<svg id="Layer_2" data-name="Layer 2" xmlns="http://www.w3.org/2000/svg" xmlns:xlink="http://www.w3.org/1999/xlink" viewBox="0 0 214.6051 32.1003"><defs><style>.cls-1{fill:url(#Crystl.Finance);}.cls-2{fill:url(#Crystl.Finance-2);}.cls-3{fill:url(#Crystl.Finance-3);}.cls-4{fill:url(#Crystl.Finance-4);}.cls-5{fill:url(#Crystl.Finance-5);}.cls-6{fill:url(#Crystl.Finance-6);}.cls-7{fill:url(#Crystl.Finance-7);}.cls-8{fill:url(#Crystl.Finance-8);}.cls-9{fill:url(#Crystl.Finance-9);}.cls-10{fill:url(#Crystl.Finance-10);}.cls-11{fill:url(#Crystl.Finance-11);}.cls-12{fill:url(#Crystl.Finance-12);}.cls-13{fill:#fff;}.cls-14{fill:#da9ded;}.cls-15{fill:url(#Crystl.Finance-13);}.cls-16{fill:url(#Crystl.Finance-14);}.cls-17{fill:url(#Crystl.Finance-15);}.cls-18{fill:url(#Crystl.Finance-16);}.cls-19{fill:url(#Crystl.Finance-17);}.cls-20{fill:url(#Crystl.Finance-18);}.cls-21{fill:url(#Crystl.Finance-19);}</style><linearGradient id="Crystl.Finance" x1="7.743" y1="-0.0001" x2="7.743" y2="13.5093" gradientUnits="userSpaceOnUse"><stop offset="0" stop-color="#fff"/><stop offset="0.2977" stop-color="#fffdff"/><stop offset="0.4431" stop-color="#fdf5fe"/><stop offset="0.5551" stop-color="#fae8fc"/><stop offset="0.65" stop-color="#f6d6fa"/><stop offset="0.6653" stop-color="#f5d2fa"/><stop offset="0.7403" stop-color="#f1d2fa"/><stop offset="0.8222" stop-color="#e3d2f9"/><stop offset="0.9074" stop-color="#ced3f7"/><stop offset="0.9943" stop-color="#afd4f5"/><stop offset="1" stop-color="#add4f5"/></linearGradient><linearGradient id="Crystl.Finance-2" x1="25.5797" y1="-0.0001" x2="25.5797" y2="13.5093" xlink:href="#Crystl.Finance"/><linearGradient id="Crystl.Finance-3" x1="43.8" y1="-0.0001" x2="43.8" y2="13.5093" xlink:href="#Crystl.Finance"/><linearGradient id="Crystl.Finance-4" x1="62.3668" y1="-0.0001" x2="62.3668" y2="13.5093" xlink:href="#Crystl.Finance"/><linearGradient id="Crystl.Finance-5" x1="79.9633" y1="-0.0001" x2="79.9633" y2="13.5093" xlink:href="#Crystl.Finance"/><linearGradient id="Crystl.Finance-6" x1="96.9367" y1="-0.0001" x2="96.9367" y2="13.5093" xlink:href="#Crystl.Finance"/><linearGradient id="Crystl.Finance-7" x1="107.2699" y1="-0.0001" x2="107.2699" y2="13.5093" xlink:href="#Crystl.Finance"/><linearGradient id="Crystl.Finance-8" x1="119.3703" y1="-0.0001" x2="119.3703" y2="13.5093" xlink:href="#Crystl.Finance"/><linearGradient id="Crystl.Finance-9" x1="137.7066" y1="-0.0001" x2="137.7066" y2="13.5093" xlink:href="#Crystl.Finance"/><linearGradient id="Crystl.Finance-10" x1="157.732" y1="-0.0001" x2="157.732" y2="13.5093" xlink:href="#Crystl.Finance"/><linearGradient id="Crystl.Finance-11" x1="175.8664" y1="-0.0001" x2="175.8664" y2="13.5093" xlink:href="#Crystl.Finance"/><linearGradient id="Crystl.Finance-12" x1="192.232" y1="-0.0001" x2="192.232" y2="13.5093" xlink:href="#Crystl.Finance"/><linearGradient id="Crystl.Finance-13" x1="35.5492" y1="20.7484" x2="35.5492" y2="30.5404" xlink:href="#Crystl.Finance"/><linearGradient id="Crystl.Finance-14" x1="42.4608" y1="20.7484" x2="42.4608" y2="30.5404" xlink:href="#Crystl.Finance"/><linearGradient id="Crystl.Finance-15" x1="49.8168" y1="20.7484" x2="49.8168" y2="30.5404" xlink:href="#Crystl.Finance"/><linearGradient id="Crystl.Finance-16" x1="56.5189" y1="20.7484" x2="56.5189" y2="30.5404" xlink:href="#Crystl.Finance"/><linearGradient id="Crystl.Finance-17" x1="63.0043" y1="20.7484" x2="63.0043" y2="30.5404" xlink:href="#Crystl.Finance"/><linearGradient id="Crystl.Finance-18" x1="69.2636" y1="20.7484" x2="69.2636" y2="30.5404" xlink:href="#Crystl.Finance"/><linearGradient id="Crystl.Finance-19" x1="76.0609" y1="20.7484" x2="76.0609" y2="30.5404" xlink:href="#Crystl.Finance"/></defs><path d="M200.6508,10.2085V8.328c0-.0263-.0058-.05-.0063-.0756v2.0318C200.645,10.2581,200.6508,10.2348,200.6508,10.2085Z"/><path d="M4.3367,13.5093H15.4859V11.053H4.3367c-.7867,0-1.2086-.2305-1.2086-.7867V3.2233c0-.5367.4219-.7867,1.2086-.7867H15.4859V0H4.3367C1.19,0,0,1.3241,0,3.2624v6.9844C0,12.185,1.19,13.5093,4.3367,13.5093Z"/><path class="cls-1" d="M4.3367,13.5093H15.4859V11.053H4.3367c-.7867,0-1.2086-.2305-1.2086-.7867V3.2233c0-.5367.4219-.7867,1.2086-.7867H15.4859V0H4.3367C1.19,0,0,1.3241,0,3.2624v6.9844C0,12.185,1.19,13.5093,4.3367,13.5093Z"/><path d="M20.6578,13.5093V7.503h6.4477l3.0125,6.0063h3.3578L30.4437,7.4647c2.418-.3265,3.186-1.6117,3.186-3.2242V3.2624C33.63,1.3241,32.42,0,29.2734,0H17.53V13.5093Zm0-11.0727h8.6156c.7868,0,1.2094.25,1.2094.7867V4.26c0,.6524-.3844.8055-1.2094.8055H20.6578Z"/><path class="cls-2" d="M20.6578,13.5093V7.503h6.4477l3.0125,6.0063h3.3578L30.4437,7.4647c2.418-.3265,3.186-1.6117,3.186-3.2242V3.2624C33.63,1.3241,32.42,0,29.2734,0H17.53V13.5093Zm0-11.0727h8.6156c.7868,0,1.2094.25,1.2094.7867V4.26c0,.6524-.3844.8055-1.2094.8055H20.6578Z"/><polygon points="42.274 13.509 45.402 13.509 45.402 8.155 53.961 0 50.008 0 43.829 5.891 37.63 0 33.639 0 42.274 8.155 42.274 13.509"/><polygon class="cls-3" points="42.274 13.509 45.402 13.509 45.402 8.155 53.961 0 50.008 0 43.829 5.891 37.63 0 33.639 0 42.274 8.155 42.274 13.509"/><path d="M53.9523,3.2811v.9211c0,1.9578,1.2086,3.2813,4.375,3.2813h8.0789c.8633,0,1.2282.2117,1.2282.8258v1.9375c0,.6531-.3453.8062-1.2282.8062H54.3937v2.4563H66.4062c3.1665,0,4.375-1.343,4.375-3.3008V8.328c0-1.957-1.2085-3.2812-4.375-3.2812H58.3273c-.8828,0-1.2468-.2493-1.2468-.825V3.2624c0-.6141.4218-.8258,1.2468-.8258H70.0141V0H58.3273C55.1609,0,53.9523,1.3241,53.9523,3.2811Z"/><path class="cls-4" d="M53.9523,3.2811v.9211c0,1.9578,1.2086,3.2813,4.375,3.2813h8.0789c.8633,0,1.2282.2117,1.2282.8258v1.9375c0,.6531-.3453.8062-1.2282.8062H54.3937v2.4563H66.4062c3.1665,0,4.375-1.343,4.375-3.3008V8.328c0-1.957-1.2085-3.2812-4.375-3.2812H58.3273c-.8828,0-1.2468-.2493-1.2468-.825V3.2624c0-.6141.4218-.8258,1.2468-.8258H70.0141V0H58.3273C55.1609,0,53.9523,1.3241,53.9523,3.2811Z"/><polygon points="78.466 2.437 78.466 13.509 81.614 13.509 81.614 2.437 88.426 2.437 88.426 0 71.501 0 71.501 2.437 78.466 2.437"/><polygon class="cls-5" points="78.466 2.437 78.466 13.509 81.614 13.509 81.614 2.437 88.426 2.437 88.426 0 71.501 0 71.501 2.437 78.466 2.437"/><polygon points="103.864 13.509 103.864 11.053 93.176 11.053 93.176 0 90.009 0 90.009 13.509 103.864 13.509"/><polygon class="cls-6" points="103.864 13.509 103.864 11.053 93.176 11.053 93.176 0 90.009 0 90.009 13.509 103.864 13.509"/><rect x="105.4273" y="11.0147" width="3.6852" height="2.4945"/><rect class="cls-7" x="105.4273" y="11.0147" width="3.6852" height="2.4945"/><path d="M114.6594,13.5093V8.6163h8.214c3.1469,0,4.336-1.3242,4.336-3.2625V3.2624C127.2094,1.3241,126.02,0,122.8734,0H111.5312V13.5093Zm0-11.0727h8.5015a.8273.8273,0,0,1,.92.8828V5.3733c0,.4985-.2874.7867-.9015.7867h-8.52Z"/><path class="cls-8" d="M114.6594,13.5093V8.6163h8.214c3.1469,0,4.336-1.3242,4.336-3.2625V3.2624C127.2094,1.3241,126.02,0,122.8734,0H111.5312V13.5093Zm0-11.0727h8.5015a.8273.8273,0,0,1,.92.8828V5.3733c0,.4985-.2874.7867-.9015.7867h-8.52Z"/><path d="M128.7938,3.2624v6.9844c0,1.9382,1.189,3.2625,4.3374,3.2625h9.154c3.1468,0,4.3343-1.3243,4.3343-3.2625V3.2624C146.62,1.3241,145.432,0,142.2852,0h-9.154C129.9828,0,128.7938,1.3241,128.7938,3.2624Zm3.1281-.0391c0-.5367.4219-.7867,1.2093-.7867h9.154c.7843,0,1.2062.25,1.2062.7867v7.043c0,.5562-.4219.7867-1.2062.7867h-9.154c-.7874,0-1.2093-.2305-1.2093-.7867Z"/><path class="cls-9" d="M128.7938,3.2624v6.9844c0,1.9382,1.189,3.2625,4.3374,3.2625h9.154c3.1468,0,4.3343-1.3243,4.3343-3.2625V3.2624C146.62,1.3241,145.432,0,142.2852,0h-9.154C129.9828,0,128.7938,1.3241,128.7938,3.2624Zm3.1281-.0391c0-.5367.4219-.7867,1.2093-.7867h9.154c.7843,0,1.2062.25,1.2062.7867v7.043c0,.5562-.4219.7867-1.2062.7867h-9.154c-.7874,0-1.2093-.2305-1.2093-.7867Z"/><path d="M148.82,3.2624v6.9844c0,1.9382,1.1875,3.2625,4.3375,3.2625H162.31c3.1468,0,4.3343-1.3243,4.3343-3.2625V3.2624C166.6445,1.3241,165.457,0,162.31,0H153.157C150.007,0,148.82,1.3241,148.82,3.2624Zm3.1282-.0391c0-.5367.4218-.7867,1.2093-.7867H162.31c.7843,0,1.2062.25,1.2062.7867v7.043c0,.5562-.4219.7867-1.2062.7867H153.157c-.7875,0-1.2093-.2305-1.2093-.7867Z"/><path class="cls-10" d="M148.82,3.2624v6.9844c0,1.9382,1.1875,3.2625,4.3375,3.2625H162.31c3.1468,0,4.3343-1.3243,4.3343-3.2625V3.2624C166.6445,1.3241,165.457,0,162.31,0H153.157C150.007,0,148.82,1.3241,148.82,3.2624Zm3.1282-.0391c0-.5367.4218-.7867,1.2093-.7867H162.31c.7843,0,1.2062.25,1.2062.7867v7.043c0,.5562-.4219.7867-1.2062.7867H153.157c-.7875,0-1.2093-.2305-1.2093-.7867Z"/><polygon points="182.795 13.509 182.795 11.053 172.107 11.053 172.107 0 168.938 0 168.938 13.509 182.795 13.509"/><polygon class="cls-11" points="182.795 13.509 182.795 11.053 172.107 11.053 172.107 0 168.938 0 168.938 13.509 182.795 13.509"/><path d="M183.82,3.2811v.9211c0,1.9578,1.2094,3.2813,4.3782,3.2813h8.0781c.8625,0,1.2281.2117,1.2281.8258v1.9375c0,.6531-.3469.8062-1.2281.8062H184.2633v2.4563h12.0125c3.123,0,4.3365-1.31,4.3687-3.2251V8.2524c-.0322-1.9139-1.2457-3.2056-4.3687-3.2056h-8.0781c-.8844,0-1.25-.2493-1.25-.825V3.2624c0-.6141.425-.8258,1.25-.8258H199.882V0H188.1977C185.0289,0,183.82,1.3241,183.82,3.2811Z"/><path class="cls-12" d="M183.82,3.2811v.9211c0,1.9578,1.2094,3.2813,4.3782,3.2813h8.0781c.8625,0,1.2281.2117,1.2281.8258v1.9375c0,.6531-.3469.8062-1.2281.8062H184.2633v2.4563h12.0125c3.123,0,4.3365-1.31,4.3687-3.2251V8.2524c-.0322-1.9139-1.2457-3.2056-4.3687-3.2056h-8.0781c-.8844,0-1.25-.2493-1.25-.825V3.2624c0-.6141.425-.8258,1.25-.8258H199.882V0H188.1977C185.0289,0,183.82,1.3241,183.82,3.2811Z"/><path class="cls-13" d="M3.0956,29.6287A6.2972,6.2972,0,0,1,.6835,29.244V28.0926a7.4145,7.4145,0,0,0,1.11.3115,5.953,5.953,0,0,0,1.1817.12,3.4281,3.4281,0,0,0,1.3867-.2159.8581.8581,0,0,0,.4619-.8642.9887.9887,0,0,0-.1924-.6358,1.4981,1.4981,0,0,0-.6357-.414,10.1214,10.1214,0,0,0-1.2236-.3662,3.925,3.925,0,0,1-1.753-.8213,1.8449,1.8449,0,0,1-.5039-1.3741A1.9055,1.9055,0,0,1,1.26,22.2362,3.5924,3.5924,0,0,1,3.48,21.66a7.8843,7.8843,0,0,1,1.2656.0967,5.4267,5.4267,0,0,1,.93.2158v1.1523A5.6027,5.6027,0,0,0,3.66,22.7762a3.1926,3.1926,0,0,0-1.3438.2285.8344.8344,0,0,0-.48.8281.8894.8894,0,0,0,.168.5635,1.2968,1.2968,0,0,0,.582.3721q.4146.1568,1.1465.3476a5.204,5.204,0,0,1,1.47.57,1.9061,1.9061,0,0,1,.7314.7675,2.26,2.26,0,0,1,.21.99,1.9115,1.9115,0,0,1-.7559,1.6025A3.7347,3.7347,0,0,1,3.0956,29.6287Z"/><path class="cls-13" d="M9.4071,29.6287a1.7669,1.7669,0,0,1-1.3613-.4863,1.8719,1.8719,0,0,1-.45-1.3262V24.8407h-.84V23.82h.84V22.5125l1.2959-.3965V23.82h1.5117l-.084,1.0206H8.8915V27.744a.881.881,0,0,0,.2275.69,1.13,1.13,0,0,0,.7442.1982,2.1673,2.1673,0,0,0,.6846-.12v.9239A3.012,3.012,0,0,1,9.4071,29.6287Z"/><path class="cls-13" d="M13.32,29.6287a2.584,2.584,0,0,1-1.0019-.1923,1.6625,1.6625,0,0,1-.7383-.5821,1.6253,1.6253,0,0,1-.2764-.9658,1.6773,1.6773,0,0,1,.5586-1.3144,2.5275,2.5275,0,0,1,1.7217-.4981h1.8242v-.2519a1.4027,1.4027,0,0,0-.126-.6475.7461.7461,0,0,0-.456-.3486,3.3112,3.3112,0,0,0-.9658-.1075,5.7665,5.7665,0,0,0-1.8838.3v-.9716a4.5331,4.5331,0,0,1,.9355-.252A6.8935,6.8935,0,0,1,14.1,23.7a3.0722,3.0722,0,0,1,1.9024.5039,1.948,1.948,0,0,1,.6543,1.6446v3.66H15.54l-.0839-.5761a2.3383,2.3383,0,0,1-.8584.5156A3.8769,3.8769,0,0,1,13.32,29.6287Zm.3477-.9365a2.4612,2.4612,0,0,0,1.0263-.1982,1.946,1.946,0,0,0,.7139-.5332v-.9961h-1.8a1.27,1.27,0,0,0-.834.2217.8442.8442,0,0,0-.2588.6777.6985.6985,0,0,0,.3008.6367A1.5786,1.5786,0,0,0,13.6679,28.6922Z"/><path class="cls-13" d="M18.1073,29.5086V21.4207h1.3086V26.1l2.3877-2.28h1.5l-2.3164,2.292,2.4482,3.3965h-1.38l-1.8838-2.7-.7559.72v1.98Z"/><path class="cls-13" d="M26.6513,29.6287a3.33,3.33,0,0,1-2.3037-.7324,2.8661,2.8661,0,0,1-.8164-2.2441,3.16,3.16,0,0,1,.6962-2.16A2.6672,2.6672,0,0,1,26.34,23.7a2.5907,2.5907,0,0,1,1.95.6787,2.4126,2.4126,0,0,1,.6534,1.7461v1.0557H24.7792a1.4431,1.4431,0,0,0,.6006,1.14,2.9774,2.9774,0,0,0,1.5361.3125,4.9352,4.9352,0,0,0,.8877-.0839,4.4052,4.4052,0,0,0,.792-.2159v.96a3.8243,3.8243,0,0,1-.8818.252A6.4375,6.4375,0,0,1,26.6513,29.6287ZM24.7792,26.328h3.0127v-.3955a1.2553,1.2553,0,0,0-.3242-.918,1.4926,1.4926,0,0,0-1.0918-.33,1.605,1.605,0,0,0-1.2539.3955A1.8832,1.8832,0,0,0,24.7792,26.328Z"/><path class="cls-13" d="M79.4862,30.9481l.36-2.2676h1.14l-.5517,2.2676Z"/><path class="cls-13" d="M85.0185,29.5086V21.78h5.3877v1.02H86.3271v2.34h3.6357v1.0078H86.3271v2.3525h4.0791v1.0078Z"/><path class="cls-13" d="M90.9237,29.5086l2.1719-2.8926L91.0077,23.82H92.411l1.3926,1.8965L95.1952,23.82H96.6L94.5233,26.616l2.16,2.8926h-1.416l-1.4639-1.98-1.4639,1.98Z"/><path class="cls-13" d="M97.7987,32.1V23.82h1.128l.0722.5645a2.5683,2.5683,0,0,1,.84-.5166,3.1407,3.1407,0,0,1,1.08-.168,2.623,2.623,0,0,1,1.9083.666,2.9831,2.9831,0,0,1,.6835,2.2022,3.2681,3.2681,0,0,1-.708,2.2978,2.5053,2.5053,0,0,1-1.9316.7627,3.1394,3.1394,0,0,1-1.7637-.48V32.1Zm2.7364-3.456q1.6552,0,1.6562-2.0879a2.1873,2.1873,0,0,0-.3721-1.4346,1.5867,1.5867,0,0,0-1.248-.4258,1.9648,1.9648,0,0,0-1.4639.6006v2.8438a2.32,2.32,0,0,0,.6172.3662A2.1665,2.1665,0,0,0,100.5351,28.6444Z"/><path class="cls-13" d="M106.1981,29.6287a1.4751,1.4751,0,0,1-1.0556-.3427,1.5093,1.5093,0,0,1-.36-1.1338V21.4207h1.3086v6.6114a.6487.6487,0,0,0,.1192.456.4892.4892,0,0,0,.36.12,2.0516,2.0516,0,0,0,.5518-.0722v.9482a2.1967,2.1967,0,0,1-.4375.1143A3.5683,3.5683,0,0,1,106.1981,29.6287Z"/><path class="cls-13" d="M110.8671,29.6287a2.9359,2.9359,0,0,1-2.25-.7685,3.1053,3.1053,0,0,1-.7149-2.1963,3.0886,3.0886,0,0,1,.7207-2.1953,3.6776,3.6776,0,0,1,4.5,0,3.0924,3.0924,0,0,1,.72,2.1953,3.11,3.11,0,0,1-.7139,2.1963A2.9559,2.9559,0,0,1,110.8671,29.6287Zm0-1.1044a1.6116,1.6116,0,0,0,1.2773-.4375,2.1635,2.1635,0,0,0,.378-1.4229,2.1319,2.1319,0,0,0-.378-1.415,2.0858,2.0858,0,0,0-2.5439,0,2.1319,2.1319,0,0,0-.3779,1.415,2.1636,2.1636,0,0,0,.3779,1.4229A1.5958,1.5958,0,0,0,110.8671,28.5243Z"/><path class="cls-13" d="M115.1142,29.5086V23.82h1.2l.0722.66a5.2085,5.2085,0,0,1,.9717-.4795,5.3969,5.3969,0,0,1,1.1162-.3008v.9961a7.1639,7.1639,0,0,0-.7266.1739q-.39.1141-.7373.2519a4.1106,4.1106,0,0,0-.5878.2822v4.1045Z"/><path class="cls-13" d="M122.0624,29.6287a3.33,3.33,0,0,1-2.3037-.7324,2.8661,2.8661,0,0,1-.8164-2.2441,3.16,3.16,0,0,1,.6963-2.16,2.6669,2.6669,0,0,1,2.1123-.792,2.5909,2.5909,0,0,1,1.95.6787,2.413,2.413,0,0,1,.6533,1.7461v1.0557H120.19a1.4433,1.4433,0,0,0,.6006,1.14,2.9781,2.9781,0,0,0,1.5362.3125,4.9341,4.9341,0,0,0,.8876-.0839,4.4028,4.4028,0,0,0,.792-.2159v.96a3.8229,3.8229,0,0,1-.8818.252A6.4357,6.4357,0,0,1,122.0624,29.6287ZM120.19,26.328h3.0127v-.3955a1.2553,1.2553,0,0,0-.3242-.918,1.4926,1.4926,0,0,0-1.0918-.33,1.605,1.605,0,0,0-1.2539.3955A1.8832,1.8832,0,0,0,120.19,26.328Z"/><path class="cls-13" d="M128.3866,29.5086V21.78h3.1319a3.283,3.283,0,0,1,2.5439.9063,4.4041,4.4041,0,0,1,.8281,3.0058,4.2888,4.2888,0,0,1-.8154,2.8985,3.257,3.257,0,0,1-2.5566.9179Zm1.3086-1.0078h1.6192a3.125,3.125,0,0,0,1.2607-.2226,1.4626,1.4626,0,0,0,.7559-.834,4.777,4.777,0,0,0,.2519-1.752,5.34,5.34,0,0,0-.2285-1.7637,1.5026,1.5026,0,0,0-.7256-.8759,2.9246,2.9246,0,0,0-1.3144-.252h-1.6192Z"/><path class="cls-13" d="M139.0536,29.6287a3.33,3.33,0,0,1-2.3037-.7324,2.8664,2.8664,0,0,1-.8164-2.2441,3.16,3.16,0,0,1,.6963-2.16,2.6672,2.6672,0,0,1,2.1123-.792,2.5909,2.5909,0,0,1,1.95.6787,2.413,2.413,0,0,1,.6533,1.7461v1.0557h-4.1641a1.4433,1.4433,0,0,0,.6006,1.14,2.9781,2.9781,0,0,0,1.5362.3125,4.936,4.936,0,0,0,.8877-.0839,4.4039,4.4039,0,0,0,.7919-.2159v.96a3.8229,3.8229,0,0,1-.8818.252A6.4357,6.4357,0,0,1,139.0536,29.6287Zm-1.8721-3.3007h3.0127v-.3955a1.2553,1.2553,0,0,0-.3242-.918,1.4926,1.4926,0,0,0-1.0918-.33,1.6051,1.6051,0,0,0-1.2539.3955A1.8832,1.8832,0,0,0,137.1815,26.328Z"/><path class="cls-13" d="M142.6181,29.5086V21.78h5.2558v1.02h-3.9472v2.34h3.5039v1.0078h-3.5039v3.36Z"/><path class="cls-13" d="M149.3134,29.5086V24.8162H148.45l.1191-.9961h2.0528v5.6885Zm-.1074-6.876v-1.08h1.4277v1.08Z"/><path class="cls-14" d="M37.788,28.8841a1.9276,1.9276,0,0,0,.5752-1.4394,2.2632,2.2632,0,0,0-.1973-.9659,1.88,1.88,0,0,0-.6963-.7568,4.8248,4.8248,0,0,0-1.3984-.5693v-2.376a5.7983,5.7983,0,0,1,1.8242.3476V21.972a6.7244,6.7244,0,0,0-.7793-.1855,7.3958,7.3958,0,0,0-1.0449-.1143v-.9238h-.9834v.9482a2.9394,2.9394,0,0,0-1.7578.6777,1.9078,1.9078,0,0,0-.5947,1.4581,1.8444,1.8444,0,0,0,.5039,1.374,3.9231,3.9231,0,0,0,1.7529.8222.2118.2118,0,0,0,.0957.0235v2.4726a6.3366,6.3366,0,0,1-1.1279-.1259,6.4046,6.4046,0,0,1-1.0567-.3067v1.1524a4.1575,4.1575,0,0,0,.9727.27,9.5878,9.5878,0,0,0,1.2119.1143V30.54h.9834v-.96A2.8538,2.8538,0,0,0,37.788,28.8841ZM36.0712,26.34a1.86,1.86,0,0,1,.75.4384.9552.9552,0,0,1,.2226.6661.94.94,0,0,1-.24.7021,1.3574,1.3574,0,0,1-.7324.3174Zm-.9834-1.4639a2.0975,2.0975,0,0,1-.8106-.4141.9944.9944,0,0,1,.0489-1.3076,1.54,1.54,0,0,1,.7617-.3183Z"/><path class="cls-15" d="M37.788,28.8841a1.9276,1.9276,0,0,0,.5752-1.4394,2.2632,2.2632,0,0,0-.1973-.9659,1.88,1.88,0,0,0-.6963-.7568,4.8248,4.8248,0,0,0-1.3984-.5693v-2.376a5.7983,5.7983,0,0,1,1.8242.3476V21.972a6.7244,6.7244,0,0,0-.7793-.1855,7.3958,7.3958,0,0,0-1.0449-.1143v-.9238h-.9834v.9482a2.9394,2.9394,0,0,0-1.7578.6777,1.9078,1.9078,0,0,0-.5947,1.4581,1.8444,1.8444,0,0,0,.5039,1.374,3.9231,3.9231,0,0,0,1.7529.8222.2118.2118,0,0,0,.0957.0235v2.4726a6.3366,6.3366,0,0,1-1.1279-.1259,6.4046,6.4046,0,0,1-1.0567-.3067v1.1524a4.1575,4.1575,0,0,0,.9727.27,9.5878,9.5878,0,0,0,1.2119.1143V30.54h.9834v-.96A2.8538,2.8538,0,0,0,37.788,28.8841ZM36.0712,26.34a1.86,1.86,0,0,1,.75.4384.9552.9552,0,0,1,.2226.6661.94.94,0,0,1-.24.7021,1.3574,1.3574,0,0,1-.7324.3174Zm-.9834-1.4639a2.0975,2.0975,0,0,1-.8106-.4141.9944.9944,0,0,1,.0489-1.3076,1.54,1.54,0,0,1,.7617-.3183Z"/><path class="cls-14" d="M43.3671,28.5247a2.6018,2.6018,0,0,1-2.0039-.7021,2.9313,2.9313,0,0,1-.6485-2.0586,3.5733,3.5733,0,0,1,.5938-2.22,2.4225,2.4225,0,0,1,2.0342-.7676,6.29,6.29,0,0,1,1.1465.1016,5.4793,5.4793,0,0,1,1.0254.2939v-1.14a6.6889,6.6889,0,0,0-2.2676-.3721,4.2559,4.2559,0,0,0-2.1719.498,3.05,3.05,0,0,0-1.2666,1.416,5.3053,5.3053,0,0,0-.4141,2.1895,3.9583,3.9583,0,0,0,.9785,2.82,3.7648,3.7648,0,0,0,2.8858,1.044,8.3553,8.3553,0,0,0,1.23-.084,6.3977,6.3977,0,0,0,1.038-.24V28.1527a5.1127,5.1127,0,0,1-1.0507.2812A6.8945,6.8945,0,0,1,43.3671,28.5247Z"/><path class="cls-16" d="M43.3671,28.5247a2.6018,2.6018,0,0,1-2.0039-.7021,2.9313,2.9313,0,0,1-.6485-2.0586,3.5733,3.5733,0,0,1,.5938-2.22,2.4225,2.4225,0,0,1,2.0342-.7676,6.29,6.29,0,0,1,1.1465.1016,5.4793,5.4793,0,0,1,1.0254.2939v-1.14a6.6889,6.6889,0,0,0-2.2676-.3721,4.2559,4.2559,0,0,0-2.1719.498,3.05,3.05,0,0,0-1.2666,1.416,5.3053,5.3053,0,0,0-.4141,2.1895,3.9583,3.9583,0,0,0,.9785,2.82,3.7648,3.7648,0,0,0,2.8858,1.044,8.3553,8.3553,0,0,0,1.23-.084,6.3977,6.3977,0,0,0,1.038-.24V28.1527a5.1127,5.1127,0,0,1-1.0507.2812A6.8945,6.8945,0,0,1,43.3671,28.5247Z"/><path class="cls-14" d="M52.8349,24.2523a2.6154,2.6154,0,0,0-.5938-1.8057,2.4135,2.4135,0,0,0-1.8906-.666H46.7987v7.7275h1.3086V26.7728h1.4512a1.134,1.134,0,0,1,.6309.1318,1.0142,1.0142,0,0,1,.3173.4434l.9483,2.16h1.3437l-.9716-2.2441a2.686,2.686,0,0,0-.24-.4795,1.3367,1.3367,0,0,0-.3359-.3359,2.13,2.13,0,0,0,1.1758-.8037A2.347,2.347,0,0,0,52.8349,24.2523ZM51.119,25.3685a1.664,1.664,0,0,1-1.1162.3476H48.1073V22.8h2.0156a1.2632,1.2632,0,0,1,1.4043,1.4522A1.3937,1.3937,0,0,1,51.119,25.3685Z"/><path class="cls-17" d="M52.8349,24.2523a2.6154,2.6154,0,0,0-.5938-1.8057,2.4135,2.4135,0,0,0-1.8906-.666H46.7987v7.7275h1.3086V26.7728h1.4512a1.134,1.134,0,0,1,.6309.1318,1.0142,1.0142,0,0,1,.3173.4434l.9483,2.16h1.3437l-.9716-2.2441a2.686,2.686,0,0,0-.24-.4795,1.3367,1.3367,0,0,0-.3359-.3359,2.13,2.13,0,0,0,1.1758-.8037A2.347,2.347,0,0,0,52.8349,24.2523ZM51.119,25.3685a1.664,1.664,0,0,1-1.1162.3476H48.1073V22.8h2.0156a1.2632,1.2632,0,0,1,1.4043,1.4522A1.3937,1.3937,0,0,1,51.119,25.3685Z"/><polygon class="cls-14" points="56.518 25.536 54.455 21.781 53.099 21.781 55.871 26.64 55.871 29.508 57.167 29.508 57.167 26.64 59.939 21.781 58.583 21.781 56.518 25.536"/><polygon class="cls-18" points="56.518 25.536 54.455 21.781 53.099 21.781 55.871 26.64 55.871 29.508 57.167 29.508 57.167 26.64 59.939 21.781 58.583 21.781 56.518 25.536"/><path class="cls-14" d="M64.8769,25.6868a5.1772,5.1772,0,0,0-1.47-.57q-.7324-.1918-1.1465-.3486a1.3046,1.3046,0,0,1-.582-.3711.8922.8922,0,0,1-.168-.5644.8353.8353,0,0,1,.4805-.8282,3.21,3.21,0,0,1,1.3438-.2275,5.6244,5.6244,0,0,1,2.0156.3476V21.972a5.6242,5.6242,0,0,0-.93-.2158,8.0042,8.0042,0,0,0-1.2656-.0957,3.5924,3.5924,0,0,0-2.2207.5762,1.9048,1.9048,0,0,0-.7442,1.5957,1.8448,1.8448,0,0,0,.5039,1.374,3.9241,3.9241,0,0,0,1.753.8222,10.1188,10.1188,0,0,1,1.2236.3663,1.4973,1.4973,0,0,1,.6357.413.99.99,0,0,1,.1924.6368.8566.8566,0,0,1-.4619.8632,3.4084,3.4084,0,0,1-1.3867.2168,5.951,5.951,0,0,1-1.1816-.12,7.4122,7.4122,0,0,1-1.11-.3125v1.1524a6.3182,6.3182,0,0,0,2.4121.3838,3.7279,3.7279,0,0,0,2.292-.5821,1.91,1.91,0,0,0,.7559-1.6015,2.2539,2.2539,0,0,0-.21-.99A1.9,1.9,0,0,0,64.8769,25.6868Z"/><path class="cls-19" d="M64.8769,25.6868a5.1772,5.1772,0,0,0-1.47-.57q-.7324-.1918-1.1465-.3486a1.3046,1.3046,0,0,1-.582-.3711.8922.8922,0,0,1-.168-.5644.8353.8353,0,0,1,.4805-.8282,3.21,3.21,0,0,1,1.3438-.2275,5.6244,5.6244,0,0,1,2.0156.3476V21.972a5.6242,5.6242,0,0,0-.93-.2158,8.0042,8.0042,0,0,0-1.2656-.0957,3.5924,3.5924,0,0,0-2.2207.5762,1.9048,1.9048,0,0,0-.7442,1.5957,1.8448,1.8448,0,0,0,.5039,1.374,3.9241,3.9241,0,0,0,1.753.8222,10.1188,10.1188,0,0,1,1.2236.3663,1.4973,1.4973,0,0,1,.6357.413.99.99,0,0,1,.1924.6368.8566.8566,0,0,1-.4619.8632,3.4084,3.4084,0,0,1-1.3867.2168,5.951,5.951,0,0,1-1.1816-.12,7.4122,7.4122,0,0,1-1.11-.3125v1.1524a6.3182,6.3182,0,0,0,2.4121.3838,3.7279,3.7279,0,0,0,2.292-.5821,1.91,1.91,0,0,0,.7559-1.6015,2.2539,2.2539,0,0,0-.21-.99A1.9,1.9,0,0,0,64.8769,25.6868Z"/><polygon class="cls-14" points="66.143 22.8 68.615 22.8 68.615 29.508 69.924 29.508 69.924 22.8 72.384 22.8 72.384 21.781 66.143 21.781 66.143 22.8"/><polygon class="cls-20" points="66.143 22.8 68.615 22.8 68.615 29.508 69.924 29.508 69.924 22.8 72.384 22.8 72.384 21.781 66.143 21.781 66.143 22.8"/><polygon class="cls-14" points="74.735 21.781 73.427 21.781 73.427 29.508 78.695 29.508 78.695 28.5 74.735 28.5 74.735 21.781"/><polygon class="cls-21" points="74.735 21.781 73.427 21.781 73.427 29.508 78.695 29.508 78.695 28.5 74.735 28.5 74.735 21.781"/></svg>