<svg id="Layer_2" data-name="Layer 2" xmlns="http://www.w3.org/2000/svg" xmlns:xlink="http://www.w3.org/1999/xlink" viewBox="0 0 214.6051 32.1003"><defs><style>.cls-1{fill:url(#Crystl.Finance);}.cls-2{fill:url(#Crystl.Finance-2);}.cls-3{fill:url(#Crystl.Finance-3);}.cls-4{fill:url(#Crystl.Finance-4);}.cls-5{fill:url(#Crystl.Finance-5);}.cls-6{fill:url(#Crystl.Finance-6);}.cls-7{fill:url(#Crystl.Finance-7);}.cls-8{fill:url(#Crystl.Finance-8);}.cls-9{fill:url(#Crystl.Finance-9);}.cls-10{fill:url(#Crystl.Finance-10);}.cls-11{fill:url(#Crystl.Finance-11);}.cls-12{fill:#fff;}.cls-13{fill:#da9ded;}.cls-14{fill:url(#Crystl.Finance-12);}.cls-15{fill:url(#Crystl.Finance-13);}.cls-16{fill:url(#Crystl.Finance-14);}.cls-17{fill:url(#Crystl.Finance-15);}.cls-18{fill:url(#Crystl.Finance-16);}.cls-19{fill:url(#Crystl.Finance-17);}.cls-20{fill:url(#Crystl.Finance-18);}</style><linearGradient id="Crystl.Finance" x1="7.743" y1="0.5759" x2="7.743" y2="14.0852" gradientUnits="userSpaceOnUse"><stop offset="0" stop-color="#fff"/><stop offset="0.2977" stop-color="#fffdff"/><stop offset="0.4431" stop-color="#fdf5fe"/><stop offset="0.5551" stop-color="#fae8fc"/><stop offset="0.65" stop-color="#f6d6fa"/><stop offset="0.6653" stop-color="#f5d2fa"/><stop offset="0.7403" stop-color="#f1d2fa"/><stop offset="0.8222" stop-color="#e3d2f9"/><stop offset="0.9074" stop-color="#ced3f7"/><stop offset="0.9943" stop-color="#afd4f5"/><stop offset="1" stop-color="#add4f5"/></linearGradient><linearGradient id="Crystl.Finance-2" x1="25.5797" y1="0.5759" x2="25.5797" y2="14.0852" xlink:href="#Crystl.Finance"/><linearGradient id="Crystl.Finance-3" x1="43.8" y1="0.5759" x2="43.8" y2="14.0852" xlink:href="#Crystl.Finance"/><linearGradient id="Crystl.Finance-4" x1="62.3668" y1="0.5759" x2="62.3668" y2="14.0852" xlink:href="#Crystl.Finance"/><linearGradient id="Crystl.Finance-5" x1="79.9633" y1="0.5759" x2="79.9633" y2="14.0852" xlink:href="#Crystl.Finance"/><linearGradient id="Crystl.Finance-6" x1="96.9367" y1="0.5759" x2="96.9367" y2="14.0852" xlink:href="#Crystl.Finance"/><linearGradient id="Crystl.Finance-7" x1="107.2699" y1="0.5759" x2="107.2699" y2="14.0852" xlink:href="#Crystl.Finance"/><linearGradient id="Crystl.Finance-8" x1="119.0641" y1="0.5759" x2="119.0641" y2="14.0852" xlink:href="#Crystl.Finance"/><linearGradient id="Crystl.Finance-9" x1="136.4121" y1="0.5759" x2="136.4121" y2="14.0852" xlink:href="#Crystl.Finance"/><linearGradient id="Crystl.Finance-10" x1="156.1086" y1="0.5759" x2="156.1086" y2="14.0852" xlink:href="#Crystl.Finance"/><linearGradient id="Crystl.Finance-11" x1="177.1805" y1="0.5759" x2="177.1805" y2="14.0852" xlink:href="#Crystl.Finance"/><linearGradient id="Crystl.Finance-12" x1="35.5491" y1="21.3073" x2="35.5491" y2="31.0993" xlink:href="#Crystl.Finance"/><linearGradient id="Crystl.Finance-13" x1="42.4607" y1="21.3074" x2="42.4607" y2="31.0993" xlink:href="#Crystl.Finance"/><linearGradient id="Crystl.Finance-14" x1="49.8167" y1="21.3074" x2="49.8167" y2="31.0993" xlink:href="#Crystl.Finance"/><linearGradient id="Crystl.Finance-15" x1="56.5188" y1="21.3074" x2="56.5188" y2="31.0993" xlink:href="#Crystl.Finance"/><linearGradient id="Crystl.Finance-16" x1="63.0042" y1="21.3074" x2="63.0042" y2="31.0993" xlink:href="#Crystl.Finance"/><linearGradient id="Crystl.Finance-17" x1="69.2634" y1="21.3074" x2="69.2634" y2="31.0993" xlink:href="#Crystl.Finance"/><linearGradient id="Crystl.Finance-18" x1="76.0608" y1="21.3074" x2="76.0608" y2="31.0993" xlink:href="#Crystl.Finance"/></defs><path d="M4.3367,14.0852H15.4859V11.629H4.3367c-.7867,0-1.2086-.23-1.2086-.7867V3.7993c0-.5367.4219-.7867,1.2086-.7867H15.4859V.5759H4.3367C1.19.5759,0,1.9,0,3.8384v6.9843C0,12.761,1.19,14.0852,4.3367,14.0852Z"/><path class="cls-1" d="M4.3367,14.0852H15.4859V11.629H4.3367c-.7867,0-1.2086-.23-1.2086-.7867V3.7993c0-.5367.4219-.7867,1.2086-.7867H15.4859V.5759H4.3367C1.19.5759,0,1.9,0,3.8384v6.9843C0,12.761,1.19,14.0852,4.3367,14.0852Z"/><path d="M20.6578,14.0852V8.079h6.4477l3.0125,6.0062h3.3578L30.4437,8.0407c2.418-.3266,3.186-1.6117,3.186-3.2242V3.8384C33.63,1.9,32.42.5759,29.2734.5759H17.53V14.0852Zm0-11.0726h8.6156c.7868,0,1.2094.25,1.2094.7867V4.836c0,.6524-.3844.8055-1.2094.8055H20.6578Z"/><path class="cls-2" d="M20.6578,14.0852V8.079h6.4477l3.0125,6.0062h3.3578L30.4437,8.0407c2.418-.3266,3.186-1.6117,3.186-3.2242V3.8384C33.63,1.9,32.42.5759,29.2734.5759H17.53V14.0852Zm0-11.0726h8.6156c.7868,0,1.2094.25,1.2094.7867V4.836c0,.6524-.3844.8055-1.2094.8055H20.6578Z"/><polygon points="42.274 14.085 45.402 14.085 45.402 8.731 53.961 0.576 50.008 0.576 43.829 6.467 37.63 0.576 33.639 0.576 42.274 8.731 42.274 14.085"/><polygon class="cls-3" points="42.274 14.085 45.402 14.085 45.402 8.731 53.961 0.576 50.008 0.576 43.829 6.467 37.63 0.576 33.639 0.576 42.274 8.731 42.274 14.085"/><path d="M53.9523,3.8571v.9211c0,1.9578,1.2086,3.2813,4.375,3.2813h8.0789c.8633,0,1.2282.2117,1.2282.8257v1.9375c0,.6532-.3453.8063-1.2282.8063H54.3937v2.4562H66.4062c3.1665,0,4.375-1.3429,4.375-3.3007V8.904c0-1.957-1.2085-3.2813-4.375-3.2813H58.3273c-.8828,0-1.2468-.2492-1.2468-.825V3.8384c0-.6141.4218-.8258,1.2468-.8258H70.0141V.5759H58.3273C55.1609.5759,53.9523,1.9,53.9523,3.8571Z"/><path class="cls-4" d="M53.9523,3.8571v.9211c0,1.9578,1.2086,3.2813,4.375,3.2813h8.0789c.8633,0,1.2282.2117,1.2282.8257v1.9375c0,.6532-.3453.8063-1.2282.8063H54.3937v2.4562H66.4062c3.1665,0,4.375-1.3429,4.375-3.3007V8.904c0-1.957-1.2085-3.2813-4.375-3.2813H58.3273c-.8828,0-1.2468-.2492-1.2468-.825V3.8384c0-.6141.4218-.8258,1.2468-.8258H70.0141V.5759H58.3273C55.1609.5759,53.9523,1.9,53.9523,3.8571Z"/><polygon points="78.466 3.013 78.466 14.085 81.614 14.085 81.614 3.013 88.426 3.013 88.426 0.576 71.501 0.576 71.501 3.013 78.466 3.013"/><polygon class="cls-5" points="78.466 3.013 78.466 14.085 81.614 14.085 81.614 3.013 88.426 3.013 88.426 0.576 71.501 0.576 71.501 3.013 78.466 3.013"/><polygon points="103.864 14.085 103.864 11.629 93.176 11.629 93.176 0.576 90.009 0.576 90.009 14.085 103.864 14.085"/><polygon class="cls-6" points="103.864 14.085 103.864 11.629 93.176 11.629 93.176 0.576 90.009 0.576 90.009 14.085 103.864 14.085"/><rect x="105.4273" y="11.5907" width="3.6852" height="2.4945"/><rect class="cls-7" x="105.4273" y="11.5907" width="3.6852" height="2.4945"/><path d="M111.0719,3.9532v7.0234c0,2.13,1.65,3.1086,4.4328,3.1086h7.1391c3.0125,0,4.4124-.6906,4.4124-3.09V6.7165h-3.1468v4.2789c0,.4992-.575.6336-1.2656.6336h-7.1579c-.6906,0-1.2859-.1531-1.2859-.6719V3.9532c0-.5758.3062-.9406,1.2859-.9406h11.3594V.5759H115.5047C112.7219.5759,111.0719,1.5548,111.0719,3.9532Z"/><path class="cls-8" d="M111.0719,3.9532v7.0234c0,2.13,1.65,3.1086,4.4328,3.1086h7.1391c3.0125,0,4.4124-.6906,4.4124-3.09V6.7165h-3.1468v4.2789c0,.4992-.575.6336-1.2656.6336h-7.1579c-.6906,0-1.2859-.1531-1.2859-.6719V3.9532c0-.5758.3062-.9406,1.2859-.9406h11.3594V.5759H115.5047C112.7219.5759,111.0719,1.5548,111.0719,3.9532Z"/><polygon points="143.532 14.085 143.532 11.629 132.42 11.629 132.42 8.175 142.935 8.175 142.935 5.719 132.42 5.719 132.42 3.013 143.532 3.013 143.532 0.576 129.292 0.576 129.292 14.085 143.532 14.085"/><polygon class="cls-9" points="143.532 14.085 143.532 11.629 132.42 11.629 132.42 8.175 142.935 8.175 142.935 5.719 132.42 5.719 132.42 3.013 143.532 3.013 143.532 0.576 129.292 0.576 129.292 14.085 143.532 14.085"/><polygon points="148.473 14.085 148.473 5.584 154.841 14.085 157.413 14.085 163.748 5.565 163.748 14.085 166.645 14.085 166.645 0.576 163.976 0.576 156.263 11.034 148.491 0.576 145.573 0.576 145.573 14.085 148.473 14.085"/><polygon class="cls-10" points="148.473 14.085 148.473 5.584 154.841 14.085 157.413 14.085 163.748 5.565 163.748 14.085 166.645 14.085 166.645 0.576 163.976 0.576 156.263 11.034 148.491 0.576 145.573 0.576 145.573 14.085 148.473 14.085"/><path d="M168.7664,3.8571v.9211c0,1.9578,1.2094,3.2813,4.375,3.2813H181.22c.8657,0,1.2282.2117,1.2282.8257v1.9375c0,.6532-.3438.8063-1.2282.8063H169.207v2.4562H181.22c3.1657,0,4.375-1.3429,4.375-3.3007V8.904c0-1.957-1.2093-3.2813-4.375-3.2813h-8.0781c-.8812,0-1.2469-.2492-1.2469-.825V3.8384c0-.6141.4219-.8258,1.2469-.8258h11.6875V.5759H173.1414C169.9758.5759,168.7664,1.9,168.7664,3.8571Z"/><path class="cls-11" d="M168.7664,3.8571v.9211c0,1.9578,1.2094,3.2813,4.375,3.2813H181.22c.8657,0,1.2282.2117,1.2282.8257v1.9375c0,.6532-.3438.8063-1.2282.8063H169.207v2.4562H181.22c3.1657,0,4.375-1.3429,4.375-3.3007V8.904c0-1.957-1.2093-3.2813-4.375-3.2813h-8.0781c-.8812,0-1.2469-.2492-1.2469-.825V3.8384c0-.6141.4219-.8258,1.2469-.8258h11.6875V.5759H173.1414C169.9758.5759,168.7664,1.9,168.7664,3.8571Z"/><path class="cls-12" d="M3.0955,30.2041A6.3163,6.3163,0,0,1,.6834,29.82V28.668a7.4262,7.4262,0,0,0,1.11.3125,5.9528,5.9528,0,0,0,1.1817.12,3.41,3.41,0,0,0,1.3867-.2168.8566.8566,0,0,0,.4619-.8633.99.99,0,0,0-.1924-.6367,1.4974,1.4974,0,0,0-.6357-.4131,10.1183,10.1183,0,0,0-1.2237-.3662,3.922,3.922,0,0,1-1.7529-.8223,1.8445,1.8445,0,0,1-.5039-1.374A1.9049,1.9049,0,0,1,1.26,22.8125,3.5926,3.5926,0,0,1,3.48,22.2363a8.0165,8.0165,0,0,1,1.2657.0957,5.6355,5.6355,0,0,1,.93.2159V23.7A5.6249,5.6249,0,0,0,3.66,23.3526a3.2085,3.2085,0,0,0-1.3437.2275.8351.8351,0,0,0-.48.8281.8927.8927,0,0,0,.168.5645,1.3049,1.3049,0,0,0,.582.3711q.4146.1567,1.1465.3486a5.1764,5.1764,0,0,1,1.47.57,1.9,1.9,0,0,1,.7315.7676,2.2537,2.2537,0,0,1,.21.99,1.91,1.91,0,0,1-.7558,1.6016A3.7279,3.7279,0,0,1,3.0955,30.2041Z"/><path class="cls-12" d="M9.407,30.2041a1.7669,1.7669,0,0,1-1.3613-.4863,1.87,1.87,0,0,1-.45-1.3252V25.416h-.84v-1.02h.84V23.0879l1.2959-.3955v1.7041h1.5117l-.084,1.02H8.8914V28.32a.8784.8784,0,0,0,.2275.6895,1.124,1.124,0,0,0,.7442.1982,2.1662,2.1662,0,0,0,.6845-.12v.9248A3.03,3.03,0,0,1,9.407,30.2041Z"/><path class="cls-12" d="M13.32,30.2041a2.6007,2.6007,0,0,1-1.002-.1914,1.6614,1.6614,0,0,1-.7382-.582,1.6287,1.6287,0,0,1-.2764-.9668,1.6752,1.6752,0,0,1,.5586-1.3135,2.5278,2.5278,0,0,1,1.7217-.498H15.408V26.4a1.4036,1.4036,0,0,0-.126-.6484.7489.7489,0,0,0-.4561-.3477,3.2706,3.2706,0,0,0-.9658-.1084,5.7671,5.7671,0,0,0-1.8838.3008V24.624a4.66,4.66,0,0,1,.9356-.2519,6.9868,6.9868,0,0,1,1.1875-.0957,3.0717,3.0717,0,0,1,1.9023.5039,1.9441,1.9441,0,0,1,.6543,1.6435v3.66H15.54l-.084-.5762a2.3251,2.3251,0,0,1-.8584.5166A3.8779,3.8779,0,0,1,13.32,30.2041Zm.3476-.9355a2.476,2.476,0,0,0,1.0264-.1983,1.9359,1.9359,0,0,0,.7139-.5341V27.54h-1.8a1.2648,1.2648,0,0,0-.834.2226.8427.8427,0,0,0-.2588.6777.6969.6969,0,0,0,.3008.6358A1.5779,1.5779,0,0,0,13.6677,29.2686Z"/><path class="cls-12" d="M18.1072,30.084V21.9961h1.3086v4.68l2.3877-2.2793h1.5l-2.3164,2.292,2.4482,3.3955h-1.38l-1.8838-2.7-.7558.7207V30.084Z"/><path class="cls-12" d="M26.6511,30.2041a3.335,3.335,0,0,1-2.3037-.7314,2.8666,2.8666,0,0,1-.8164-2.2442,3.1593,3.1593,0,0,1,.6963-2.16,2.6638,2.6638,0,0,1,2.1123-.792,2.59,2.59,0,0,1,1.95.6777A2.4125,2.4125,0,0,1,28.9431,26.7v1.0557h-4.164a1.4434,1.4434,0,0,0,.6006,1.1406,2.98,2.98,0,0,0,1.5361.3115,4.8374,4.8374,0,0,0,.8877-.084,4.3161,4.3161,0,0,0,.792-.2158v.96a3.7224,3.7224,0,0,1-.8819.2519A6.4246,6.4246,0,0,1,26.6511,30.2041Zm-1.872-3.3h3.0127v-.3965a1.2562,1.2562,0,0,0-.3243-.9179,1.4919,1.4919,0,0,0-1.0917-.33,1.6054,1.6054,0,0,0-1.254.3965A1.8793,1.8793,0,0,0,24.7791,26.9043Z"/><path class="cls-12" d="M79.4861,31.5244l.36-2.2685h1.14l-.5518,2.2685Z"/><path class="cls-12" d="M85.0183,30.084V22.3565H90.406v1.02H86.3269v2.34h3.6358v1.0088H86.3269v2.3516H90.406V30.084Z"/><path class="cls-12" d="M93.155,30.2041a2.6,2.6,0,0,1-1.0019-.1914,1.6623,1.6623,0,0,1-.7383-.582,1.6287,1.6287,0,0,1-.2764-.9668A1.6755,1.6755,0,0,1,91.697,27.15a2.5282,2.5282,0,0,1,1.7217-.498h1.8242V26.4a1.405,1.405,0,0,0-.1259-.6484.7492.7492,0,0,0-.4561-.3477,3.271,3.271,0,0,0-.9658-.1084,5.7667,5.7667,0,0,0-1.8838.3008V24.624a4.66,4.66,0,0,1,.9355-.2519,6.9877,6.9877,0,0,1,1.1875-.0957,3.072,3.072,0,0,1,1.9024.5039,1.9444,1.9444,0,0,1,.6543,1.6435v3.66H95.3748l-.084-.5762a2.3259,2.3259,0,0,1-.8584.5166A3.8786,3.8786,0,0,1,93.155,30.2041Zm.3477-.9355a2.476,2.476,0,0,0,1.0264-.1983,1.9348,1.9348,0,0,0,.7138-.5341V27.54h-1.8a1.265,1.265,0,0,0-.834.2226.8429.8429,0,0,0-.2587.6777.6968.6968,0,0,0,.3007.6358A1.5782,1.5782,0,0,0,93.5027,29.2686Z"/><path class="cls-12" d="M97.9431,30.084V24.3965h1.2l.0723.66a5.2021,5.2021,0,0,1,.9717-.48,5.38,5.38,0,0,1,1.1162-.3v.9961a6.8786,6.8786,0,0,0-.7266.1738q-.39.1143-.7373.252a3.913,3.913,0,0,0-.5879.2822V30.084Z"/><path class="cls-12" d="M102.2508,30.084V24.3965h1.2l.06.6a3.643,3.643,0,0,1,.918-.51,3.2146,3.2146,0,0,1,1.1826-.21,2.1691,2.1691,0,0,1,1.6074.5156,2.2285,2.2285,0,0,1,.5039,1.6084V30.084h-1.2959V26.46a1.27,1.27,0,0,0-.27-.9238,1.4644,1.4644,0,0,0-1.0137-.2637,2.3282,2.3282,0,0,0-1.584.6474V30.084Z"/><path class="cls-12" d="M111.9461,30.084V22.3565h1.1523l4.0322,5.6875V22.3565h1.2959V30.084h-1.1523l-4.0195-5.6758V30.084Z"/><path class="cls-12" d="M122.83,30.2041a3.335,3.335,0,0,1-2.3037-.7314,2.8666,2.8666,0,0,1-.8164-2.2442,3.16,3.16,0,0,1,.6963-2.16,2.6638,2.6638,0,0,1,2.1123-.792,2.59,2.59,0,0,1,1.95.6777,2.4125,2.4125,0,0,1,.6533,1.7461v1.0557h-4.164a1.4434,1.4434,0,0,0,.6006,1.1406,2.98,2.98,0,0,0,1.5361.3115,4.8374,4.8374,0,0,0,.8877-.084,4.3161,4.3161,0,0,0,.792-.2158v.96a3.7229,3.7229,0,0,1-.8818.2519A6.4267,6.4267,0,0,1,122.83,30.2041Zm-1.872-3.3h3.0127v-.3965a1.2566,1.2566,0,0,0-.3242-.9179,1.4923,1.4923,0,0,0-1.0918-.33,1.605,1.605,0,0,0-1.2539.3965A1.8787,1.8787,0,0,0,120.9578,26.9043Z"/><path class="cls-12" d="M127.114,30.084l-1.5-5.6875h1.3086l.9834,4.14,1.1162-3.4444v-.6953h.9961l1.2364,4.14.9834-4.14h1.2959l-1.4874,5.6875H130.81l-1.2119-3.72-1.2363,3.72Z"/><path class="cls-12" d="M139.57,30.084V23.376h-2.4717v-1.02h6.24v1.02h-2.46v6.708Z"/><path class="cls-12" d="M145.9666,30.2041a2.9391,2.9391,0,0,1-2.25-.7676,3.1051,3.1051,0,0,1-.7149-2.1962,3.0913,3.0913,0,0,1,.7207-2.1963,3.6814,3.6814,0,0,1,4.5,0,3.0951,3.0951,0,0,1,.72,2.1963,3.1094,3.1094,0,0,1-.7139,2.1962A2.9591,2.9591,0,0,1,145.9666,30.2041Zm0-1.1035a1.6114,1.6114,0,0,0,1.2773-.4385,2.16,2.16,0,0,0,.3779-1.4218,2.1353,2.1353,0,0,0-.3779-1.4161,2.09,2.09,0,0,0-2.5439,0,2.1353,2.1353,0,0,0-.378,1.4161,2.16,2.16,0,0,0,.378,1.4218A1.5957,1.5957,0,0,0,145.9666,29.1006Z"/><path class="cls-12" d="M150.2136,30.084V21.9961h1.3086v4.68l2.3877-2.2793h1.5l-2.3164,2.292,2.4483,3.3955h-1.38l-1.8838-2.7-.7559.7207V30.084Z"/><path class="cls-12" d="M158.7576,30.2041a3.3347,3.3347,0,0,1-2.3037-.7314,2.8663,2.8663,0,0,1-.8164-2.2442,3.1593,3.1593,0,0,1,.6963-2.16,2.6635,2.6635,0,0,1,2.1123-.792,2.5907,2.5907,0,0,1,1.95.6777A2.413,2.413,0,0,1,161.05,26.7v1.0557h-4.1641a1.4439,1.4439,0,0,0,.6006,1.1406,2.98,2.98,0,0,0,1.5361.3115,4.8374,4.8374,0,0,0,.8877-.084,4.3161,4.3161,0,0,0,.792-.2158v.96a3.7216,3.7216,0,0,1-.8818.2519A6.4246,6.4246,0,0,1,158.7576,30.2041Zm-1.8721-3.3h3.0127v-.3965a1.2566,1.2566,0,0,0-.3242-.9179,1.4922,1.4922,0,0,0-1.0918-.33,1.605,1.605,0,0,0-1.2539.3965A1.8793,1.8793,0,0,0,156.8855,26.9043Z"/><path class="cls-12" d="M162.322,30.084V24.3965h1.2l.06.6a3.643,3.643,0,0,1,.918-.51,3.2146,3.2146,0,0,1,1.1826-.21,2.1693,2.1693,0,0,1,1.6074.5156,2.2285,2.2285,0,0,1,.5039,1.6084V30.084h-1.2959V26.46a1.27,1.27,0,0,0-.27-.9238,1.4644,1.4644,0,0,0-1.0137-.2637,2.3282,2.3282,0,0,0-1.584.6474V30.084Z"/><path class="cls-12" d="M171.1541,30.2041a7.2451,7.2451,0,0,1-1.1221-.084,5.2071,5.2071,0,0,1-.8818-.2041V28.8125a4.7569,4.7569,0,0,0,.8994.2393,5.505,5.505,0,0,0,.9365.084,2.7352,2.7352,0,0,0,.96-.1192.46.46,0,0,0,.288-.4687.4846.4846,0,0,0-.1748-.3955,1.7057,1.7057,0,0,0-.5156-.2637c-.2275-.08-.5176-.1768-.87-.2881a5.7851,5.7851,0,0,1-.876-.3662,1.5233,1.5233,0,0,1-.5761-.51,1.4714,1.4714,0,0,1-.2041-.8164,1.4236,1.4236,0,0,1,.5644-1.206,3.0337,3.0337,0,0,1,1.8115-.4258,5.745,5.745,0,0,1,.9365.0723,4.5457,4.5457,0,0,1,.7559.18V25.62a3.875,3.875,0,0,0-.7383-.2041,4.2824,4.2824,0,0,0-.75-.0722,3.0893,3.0893,0,0,0-.9414.1084.4227.4227,0,0,0-.3183.4316.4826.4826,0,0,0,.33.4746q.33.1377,1.0616.3779a5.2467,5.2467,0,0,1,1.0683.4317,1.4542,1.4542,0,0,1,.57.5459,1.7166,1.7166,0,0,1,.1739.8223A1.41,1.41,0,0,1,172.93,29.79,3.1648,3.1648,0,0,1,171.1541,30.2041Z"/><path class="cls-13" d="M37.7879,29.4431a1.9281,1.9281,0,0,0,.5752-1.44,2.2642,2.2642,0,0,0-.1973-.9658,1.8807,1.8807,0,0,0-.6963-.7569,4.8288,4.8288,0,0,0-1.3984-.5693v-2.376a5.8012,5.8012,0,0,1,1.8242.3477V22.5309a6.766,6.766,0,0,0-.7793-.1855,7.4122,7.4122,0,0,0-1.0449-.1143v-.9238h-.9834v.9483a2.9381,2.9381,0,0,0-1.7578.6777,1.9079,1.9079,0,0,0-.5948,1.458,1.8445,1.8445,0,0,0,.5039,1.374,3.9224,3.9224,0,0,0,1.753.8223.2127.2127,0,0,0,.0957.0234v2.4727a6.33,6.33,0,0,1-1.128-.126,6.4159,6.4159,0,0,1-1.0566-.3066v1.1523a4.1526,4.1526,0,0,0,.9727.27,9.5474,9.5474,0,0,0,1.2119.1143v.9121h.9834v-.96A2.8538,2.8538,0,0,0,37.7879,29.4431Zm-1.7168-2.544a1.8587,1.8587,0,0,1,.75.4385.9548.9548,0,0,1,.2226.666.94.94,0,0,1-.24.7021,1.357,1.357,0,0,1-.7324.3174Zm-.9834-1.4639a2.0989,2.0989,0,0,1-.8106-.414.9943.9943,0,0,1,.0488-1.3076,1.5387,1.5387,0,0,1,.7618-.3184Z"/><path class="cls-14" d="M37.7879,29.4431a1.9281,1.9281,0,0,0,.5752-1.44,2.2642,2.2642,0,0,0-.1973-.9658,1.8807,1.8807,0,0,0-.6963-.7569,4.8288,4.8288,0,0,0-1.3984-.5693v-2.376a5.8012,5.8012,0,0,1,1.8242.3477V22.5309a6.766,6.766,0,0,0-.7793-.1855,7.4122,7.4122,0,0,0-1.0449-.1143v-.9238h-.9834v.9483a2.9381,2.9381,0,0,0-1.7578.6777,1.9079,1.9079,0,0,0-.5948,1.458,1.8445,1.8445,0,0,0,.5039,1.374,3.9224,3.9224,0,0,0,1.753.8223.2127.2127,0,0,0,.0957.0234v2.4727a6.33,6.33,0,0,1-1.128-.126,6.4159,6.4159,0,0,1-1.0566-.3066v1.1523a4.1526,4.1526,0,0,0,.9727.27,9.5474,9.5474,0,0,0,1.2119.1143v.9121h.9834v-.96A2.8538,2.8538,0,0,0,37.7879,29.4431Zm-1.7168-2.544a1.8587,1.8587,0,0,1,.75.4385.9548.9548,0,0,1,.2226.666.94.94,0,0,1-.24.7021,1.357,1.357,0,0,1-.7324.3174Zm-.9834-1.4639a2.0989,2.0989,0,0,1-.8106-.414.9943.9943,0,0,1,.0488-1.3076,1.5387,1.5387,0,0,1,.7618-.3184Z"/><path class="cls-13" d="M43.367,29.0837a2.6018,2.6018,0,0,1-2.0039-.7022,2.9307,2.9307,0,0,1-.6485-2.0586,3.5735,3.5735,0,0,1,.5938-2.22,2.4224,2.4224,0,0,1,2.0341-.7676,6.29,6.29,0,0,1,1.1465.1016,5.4825,5.4825,0,0,1,1.0254.2939v-1.14a6.6955,6.6955,0,0,0-2.2676-.3721,4.2548,4.2548,0,0,0-2.1718.4981,3.05,3.05,0,0,0-1.2666,1.416,5.3051,5.3051,0,0,0-.4141,2.1894,3.9581,3.9581,0,0,0,.9785,2.82,3.7648,3.7648,0,0,0,2.8858,1.044,8.3392,8.3392,0,0,0,1.23-.084,6.3966,6.3966,0,0,0,1.0381-.24V28.7116a5.1121,5.1121,0,0,1-1.0508.2813A6.9048,6.9048,0,0,1,43.367,29.0837Z"/><path class="cls-15" d="M43.367,29.0837a2.6018,2.6018,0,0,1-2.0039-.7022,2.9307,2.9307,0,0,1-.6485-2.0586,3.5735,3.5735,0,0,1,.5938-2.22,2.4224,2.4224,0,0,1,2.0341-.7676,6.29,6.29,0,0,1,1.1465.1016,5.4825,5.4825,0,0,1,1.0254.2939v-1.14a6.6955,6.6955,0,0,0-2.2676-.3721,4.2548,4.2548,0,0,0-2.1718.4981,3.05,3.05,0,0,0-1.2666,1.416,5.3051,5.3051,0,0,0-.4141,2.1894,3.9581,3.9581,0,0,0,.9785,2.82,3.7648,3.7648,0,0,0,2.8858,1.044,8.3392,8.3392,0,0,0,1.23-.084,6.3966,6.3966,0,0,0,1.0381-.24V28.7116a5.1121,5.1121,0,0,1-1.0508.2813A6.9048,6.9048,0,0,1,43.367,29.0837Z"/><path class="cls-13" d="M52.8347,24.8112a2.6151,2.6151,0,0,0-.5937-1.8056A2.4132,2.4132,0,0,0,50.35,22.34H46.7986v7.7276h1.3086V27.3317h1.4512a1.1335,1.1335,0,0,1,.6308.1319,1.0131,1.0131,0,0,1,.3174.4433l.9483,2.16h1.3437l-.9717-2.2442a2.69,2.69,0,0,0-.24-.48,1.3367,1.3367,0,0,0-.3359-.3359,2.1284,2.1284,0,0,0,1.1757-.8037A2.346,2.346,0,0,0,52.8347,24.8112Zm-1.7158,1.1162a1.6635,1.6635,0,0,1-1.1162.3477H48.1072v-2.916h2.0156a1.2631,1.2631,0,0,1,1.4043,1.4521A1.3937,1.3937,0,0,1,51.1189,25.9274Z"/><path class="cls-16" d="M52.8347,24.8112a2.6151,2.6151,0,0,0-.5937-1.8056A2.4132,2.4132,0,0,0,50.35,22.34H46.7986v7.7276h1.3086V27.3317h1.4512a1.1335,1.1335,0,0,1,.6308.1319,1.0131,1.0131,0,0,1,.3174.4433l.9483,2.16h1.3437l-.9717-2.2442a2.69,2.69,0,0,0-.24-.48,1.3367,1.3367,0,0,0-.3359-.3359,2.1284,2.1284,0,0,0,1.1757-.8037A2.346,2.346,0,0,0,52.8347,24.8112Zm-1.7158,1.1162a1.6635,1.6635,0,0,1-1.1162.3477H48.1072v-2.916h2.0156a1.2631,1.2631,0,0,1,1.4043,1.4521A1.3937,1.3937,0,0,1,51.1189,25.9274Z"/><polygon class="cls-13" points="56.518 26.095 54.455 22.34 53.098 22.34 55.871 27.199 55.871 30.067 57.167 30.067 57.167 27.199 59.939 22.34 58.583 22.34 56.518 26.095"/><polygon class="cls-17" points="56.518 26.095 54.455 22.34 53.098 22.34 55.871 27.199 55.871 30.067 57.167 30.067 57.167 27.199 59.939 22.34 58.583 22.34 56.518 26.095"/><path class="cls-13" d="M64.8767,26.2458a5.1734,5.1734,0,0,0-1.47-.57q-.7324-.192-1.1465-.3487a1.304,1.304,0,0,1-.582-.3711.8922.8922,0,0,1-.168-.5644.8351.8351,0,0,1,.48-.8281,3.2083,3.2083,0,0,1,1.3437-.2276,5.6228,5.6228,0,0,1,2.0157.3477V22.5309a5.637,5.637,0,0,0-.93-.2158,8.0046,8.0046,0,0,0-1.2657-.0957,3.5926,3.5926,0,0,0-2.2207.5762,1.9051,1.9051,0,0,0-.7441,1.5957,1.8445,1.8445,0,0,0,.5039,1.374,3.922,3.922,0,0,0,1.7529.8223,10.1183,10.1183,0,0,1,1.2237.3662,1.4965,1.4965,0,0,1,.6357.4131.99.99,0,0,1,.1924.6367.8568.8568,0,0,1-.4619.8633,3.41,3.41,0,0,1-1.3867.2168,5.96,5.96,0,0,1-1.1817-.12,7.4262,7.4262,0,0,1-1.11-.3125v1.1523a6.3163,6.3163,0,0,0,2.4121.3838,3.7286,3.7286,0,0,0,2.292-.582,1.91,1.91,0,0,0,.7558-1.6016,2.2534,2.2534,0,0,0-.21-.99A1.9,1.9,0,0,0,64.8767,26.2458Z"/><path class="cls-18" d="M64.8767,26.2458a5.1734,5.1734,0,0,0-1.47-.57q-.7324-.192-1.1465-.3487a1.304,1.304,0,0,1-.582-.3711.8922.8922,0,0,1-.168-.5644.8351.8351,0,0,1,.48-.8281,3.2083,3.2083,0,0,1,1.3437-.2276,5.6228,5.6228,0,0,1,2.0157.3477V22.5309a5.637,5.637,0,0,0-.93-.2158,8.0046,8.0046,0,0,0-1.2657-.0957,3.5926,3.5926,0,0,0-2.2207.5762,1.9051,1.9051,0,0,0-.7441,1.5957,1.8445,1.8445,0,0,0,.5039,1.374,3.922,3.922,0,0,0,1.7529.8223,10.1183,10.1183,0,0,1,1.2237.3662,1.4965,1.4965,0,0,1,.6357.4131.99.99,0,0,1,.1924.6367.8568.8568,0,0,1-.4619.8633,3.41,3.41,0,0,1-1.3867.2168,5.96,5.96,0,0,1-1.1817-.12,7.4262,7.4262,0,0,1-1.11-.3125v1.1523a6.3163,6.3163,0,0,0,2.4121.3838,3.7286,3.7286,0,0,0,2.292-.582,1.91,1.91,0,0,0,.7558-1.6016,2.2534,2.2534,0,0,0-.21-.99A1.9,1.9,0,0,0,64.8767,26.2458Z"/><polygon class="cls-13" points="66.143 23.359 68.615 23.359 68.615 30.067 69.924 30.067 69.924 23.359 72.384 23.359 72.384 22.34 66.143 22.34 66.143 23.359"/><polygon class="cls-19" points="66.143 23.359 68.615 23.359 68.615 30.067 69.924 30.067 69.924 23.359 72.384 23.359 72.384 22.34 66.143 22.34 66.143 23.359"/><polygon class="cls-13" points="74.735 22.34 73.427 22.34 73.427 30.067 78.695 30.067 78.695 29.059 74.735 29.059 74.735 22.34"/><polygon class="cls-20" points="74.735 22.34 73.427 22.34 73.427 30.067 78.695 30.067 78.695 29.059 74.735 29.059 74.735 22.34"/></svg>