<svg id="Layer_2" data-name="Layer 2" xmlns="http://www.w3.org/2000/svg" xmlns:xlink="http://www.w3.org/1999/xlink" viewBox="0 0 214.6051 32.1003"><defs><style>.cls-1{fill:url(#Crystl.Finance);}.cls-2{fill:url(#Crystl.Finance-3);}.cls-3{fill:url(#Crystl.Finance-4);}.cls-4{fill:url(#Crystl.Finance-5);}.cls-5{fill:url(#Crystl.Finance-6);}.cls-6{fill:url(#Crystl.Finance-7);}.cls-7{fill:url(#Crystl.Finance-8);}.cls-8{fill:url(#Crystl.Finance-9);}.cls-9{fill:url(#Crystl.Finance-10);}.cls-10{fill:url(#Crystl.Finance-11);}.cls-11{fill:url(#Crystl.Finance-12);}.cls-12{fill:url(#Crystl.Finance-13);}.cls-13{fill:url(#Crystl.Finance-14);}.cls-14{fill:#fff;}.cls-15{fill:#da9ded;}.cls-16{fill:url(#Crystl.Finance-15);}.cls-17{fill:url(#Crystl.Finance-16);}.cls-18{fill:url(#Crystl.Finance-17);}.cls-19{fill:url(#Crystl.Finance-18);}.cls-20{fill:url(#Crystl.Finance-19);}.cls-21{fill:url(#Crystl.Finance-20);}.cls-22{fill:url(#Crystl.Finance-21);}</style><linearGradient id="Crystl.Finance" x1="2.1684" y1="0.5758" x2="2.1684" y2="14.0851" gradientUnits="userSpaceOnUse"><stop offset="0" stop-color="#fff"/><stop offset="0.2977" stop-color="#fffdff"/><stop offset="0.4431" stop-color="#fdf5fe"/><stop offset="0.5551" stop-color="#fae8fc"/><stop offset="0.65" stop-color="#f6d6fa"/><stop offset="0.6653" stop-color="#f5d2fa"/><stop offset="0.7403" stop-color="#f1d2fa"/><stop offset="0.8222" stop-color="#e3d2f9"/><stop offset="0.9074" stop-color="#ced3f7"/><stop offset="0.9943" stop-color="#afd4f5"/><stop offset="1" stop-color="#add4f5"/></linearGradient><linearGradient id="Crystl.Finance-3" x1="7.743" y1="0.5758" x2="7.743" y2="14.0851" xlink:href="#Crystl.Finance"/><linearGradient id="Crystl.Finance-4" x1="25.5797" y1="0.5758" x2="25.5797" y2="14.0851" xlink:href="#Crystl.Finance"/><linearGradient id="Crystl.Finance-5" x1="43.8" y1="0.5758" x2="43.8" y2="14.0851" xlink:href="#Crystl.Finance"/><linearGradient id="Crystl.Finance-6" x1="62.3668" y1="0.5758" x2="62.3668" y2="14.0851" xlink:href="#Crystl.Finance"/><linearGradient id="Crystl.Finance-7" x1="79.9633" y1="0.5758" x2="79.9633" y2="14.0851" xlink:href="#Crystl.Finance"/><linearGradient id="Crystl.Finance-8" x1="96.9367" y1="0.5758" x2="96.9367" y2="14.0851" xlink:href="#Crystl.Finance"/><linearGradient id="Crystl.Finance-9" x1="107.2699" y1="0.5758" x2="107.2699" y2="14.0851" xlink:href="#Crystl.Finance"/><linearGradient id="Crystl.Finance-10" x1="122.0664" y1="0.5758" x2="122.0664" y2="14.0851" xlink:href="#Crystl.Finance"/><linearGradient id="Crystl.Finance-11" x1="136.6551" y1="0.5758" x2="136.6551" y2="14.0851" xlink:href="#Crystl.Finance"/><linearGradient id="Crystl.Finance-12" x1="149.8602" y1="0.5758" x2="149.8602" y2="14.0851" xlink:href="#Crystl.Finance"/><linearGradient id="Crystl.Finance-13" x1="168.5133" y1="0.5758" x2="168.5133" y2="14.0851" xlink:href="#Crystl.Finance"/><linearGradient id="Crystl.Finance-14" x1="185.8211" y1="0.5758" x2="185.8211" y2="14.0851" xlink:href="#Crystl.Finance"/><linearGradient id="Crystl.Finance-15" x1="86.7164" y1="21.3248" x2="86.7164" y2="31.1168" xlink:href="#Crystl.Finance"/><linearGradient id="Crystl.Finance-16" x1="93.628" y1="21.3249" x2="93.628" y2="31.1169" xlink:href="#Crystl.Finance"/><linearGradient id="Crystl.Finance-17" x1="100.984" y1="21.3249" x2="100.984" y2="31.1169" xlink:href="#Crystl.Finance"/><linearGradient id="Crystl.Finance-18" x1="107.6862" y1="21.3249" x2="107.6862" y2="31.1169" xlink:href="#Crystl.Finance"/><linearGradient id="Crystl.Finance-19" x1="114.1715" y1="21.3249" x2="114.1715" y2="31.1169" xlink:href="#Crystl.Finance"/><linearGradient id="Crystl.Finance-20" x1="120.4308" y1="21.3249" x2="120.4308" y2="31.1169" xlink:href="#Crystl.Finance"/><linearGradient id="Crystl.Finance-21" x1="127.2281" y1="21.3249" x2="127.2281" y2="31.1169" xlink:href="#Crystl.Finance"/></defs><path class="cls-1" d="M4.3367,14.0851C1.19,14.0851,0,12.7609,0,10.8226"/><path class="cls-1" d="M0,3.8383C0,1.9,1.19.5758,4.3367.5758"/><path d="M4.3367,14.0851H15.4859V11.6289H4.3367c-.7867,0-1.2086-.23-1.2086-.7867V3.7992c0-.5367.4219-.7867,1.2086-.7867H15.4859V.5758H4.3367C1.19.5758,0,1.9,0,3.8383v6.9843C0,12.7609,1.19,14.0851,4.3367,14.0851Z"/><path class="cls-2" d="M4.3367,14.0851H15.4859V11.6289H4.3367c-.7867,0-1.2086-.23-1.2086-.7867V3.7992c0-.5367.4219-.7867,1.2086-.7867H15.4859V.5758H4.3367C1.19.5758,0,1.9,0,3.8383v6.9843C0,12.7609,1.19,14.0851,4.3367,14.0851Z"/><path d="M20.6578,14.0851V8.0789h6.4477l3.0125,6.0062h3.3578L30.4437,8.0406c2.418-.3265,3.186-1.6117,3.186-3.2242V3.8383C33.63,1.9,32.42.5758,29.2734.5758H17.53V14.0851Zm0-11.0726h8.6156c.7868,0,1.2094.25,1.2094.7867V4.8359c0,.6524-.3844.8055-1.2094.8055H20.6578Z"/><path class="cls-3" d="M20.6578,14.0851V8.0789h6.4477l3.0125,6.0062h3.3578L30.4437,8.0406c2.418-.3265,3.186-1.6117,3.186-3.2242V3.8383C33.63,1.9,32.42.5758,29.2734.5758H17.53V14.0851Zm0-11.0726h8.6156c.7868,0,1.2094.25,1.2094.7867V4.8359c0,.6524-.3844.8055-1.2094.8055H20.6578Z"/><polygon points="42.274 14.085 45.402 14.085 45.402 8.731 53.961 0.576 50.008 0.576 43.829 6.467 37.63 0.576 33.639 0.576 42.274 8.731 42.274 14.085"/><polygon class="cls-4" points="42.274 14.085 45.402 14.085 45.402 8.731 53.961 0.576 50.008 0.576 43.829 6.467 37.63 0.576 33.639 0.576 42.274 8.731 42.274 14.085"/><path d="M53.9523,3.857v.9211c0,1.9578,1.2086,3.2813,4.375,3.2813h8.0789c.8633,0,1.2282.2117,1.2282.8257v1.9375c0,.6532-.3453.8063-1.2282.8063H54.3937v2.4562H66.4062c3.1665,0,4.375-1.3429,4.375-3.3007v-1.88c0-1.957-1.2085-3.2813-4.375-3.2813H58.3273c-.8828,0-1.2468-.2492-1.2468-.825V3.8383c0-.6141.4218-.8258,1.2468-.8258H70.0141V.5758H58.3273C55.1609.5758,53.9523,1.9,53.9523,3.857Z"/><path class="cls-5" d="M53.9523,3.857v.9211c0,1.9578,1.2086,3.2813,4.375,3.2813h8.0789c.8633,0,1.2282.2117,1.2282.8257v1.9375c0,.6532-.3453.8063-1.2282.8063H54.3937v2.4562H66.4062c3.1665,0,4.375-1.3429,4.375-3.3007v-1.88c0-1.957-1.2085-3.2813-4.375-3.2813H58.3273c-.8828,0-1.2468-.2492-1.2468-.825V3.8383c0-.6141.4218-.8258,1.2468-.8258H70.0141V.5758H58.3273C55.1609.5758,53.9523,1.9,53.9523,3.857Z"/><polygon points="78.466 3.012 78.466 14.085 81.614 14.085 81.614 3.012 88.426 3.012 88.426 0.576 71.501 0.576 71.501 3.012 78.466 3.012"/><polygon class="cls-6" points="78.466 3.012 78.466 14.085 81.614 14.085 81.614 3.012 88.426 3.012 88.426 0.576 71.501 0.576 71.501 3.012 78.466 3.012"/><polygon points="103.864 14.085 103.864 11.629 93.176 11.629 93.176 0.576 90.009 0.576 90.009 14.085 103.864 14.085"/><polygon class="cls-7" points="103.864 14.085 103.864 11.629 93.176 11.629 93.176 0.576 90.009 0.576 90.009 14.085 103.864 14.085"/><rect x="105.4273" y="11.5906" width="3.6852" height="2.4945"/><rect class="cls-8" x="105.4273" y="11.5906" width="3.6852" height="2.4945"/><polygon points="114.43 14.085 114.43 5.584 120.8 14.085 123.372 14.085 129.705 5.565 129.705 14.085 132.602 14.085 132.602 0.576 129.934 0.576 122.22 11.034 114.448 0.576 111.531 0.576 111.531 14.085 114.43 14.085"/><polygon class="cls-9" points="114.43 14.085 114.43 5.584 120.8 14.085 123.372 14.085 129.705 5.565 129.705 14.085 132.602 14.085 132.602 0.576 129.934 0.576 122.22 11.034 114.448 0.576 111.531 0.576 111.531 14.085 114.43 14.085"/><rect x="135.0906" y="0.5758" width="3.1289" height="13.5094"/><rect class="cls-10" x="135.0906" y="0.5758" width="3.1289" height="13.5094"/><polygon points="143.423 14.085 143.423 4.241 157.488 14.085 159.023 14.085 159.023 0.576 156.279 0.576 156.279 9.825 143.404 0.576 140.698 0.576 140.698 14.085 143.423 14.085"/><polygon class="cls-11" points="143.423 14.085 143.423 4.241 157.488 14.085 159.023 14.085 159.023 0.576 156.279 0.576 156.279 9.825 143.404 0.576 140.698 0.576 140.698 14.085 143.423 14.085"/><polygon points="175.632 14.085 175.632 11.629 164.523 11.629 164.523 8.175 175.038 8.175 175.038 5.719 164.523 5.719 164.523 3.012 175.632 3.012 175.632 0.576 161.395 0.576 161.395 14.085 175.632 14.085"/><polygon class="cls-12" points="175.632 14.085 175.632 11.629 164.523 11.629 164.523 8.175 175.038 8.175 175.038 5.719 164.523 5.719 164.523 3.012 175.632 3.012 175.632 0.576 161.395 0.576 161.395 14.085 175.632 14.085"/><path d="M177.407,3.857v.9211c0,1.9578,1.2094,3.2813,4.375,3.2813H189.86c.8656,0,1.2281.2117,1.2281.8257v1.9375c0,.6532-.3438.8063-1.2281.8063H177.8477v2.4562H189.86c3.1656,0,4.375-1.3429,4.375-3.3007v-1.88c0-1.957-1.2094-3.2813-4.375-3.2813H181.782c-.8812,0-1.2468-.2492-1.2468-.825V3.8383c0-.6141.4218-.8258,1.2468-.8258H193.47V.5758H181.782C178.6164.5758,177.407,1.9,177.407,3.857Z"/><path class="cls-13" d="M177.407,3.857v.9211c0,1.9578,1.2094,3.2813,4.375,3.2813H189.86c.8656,0,1.2281.2117,1.2281.8257v1.9375c0,.6532-.3438.8063-1.2281.8063H177.8477v2.4562H189.86c3.1656,0,4.375-1.3429,4.375-3.3007v-1.88c0-1.957-1.2094-3.2813-4.375-3.2813H181.782c-.8812,0-1.2468-.2492-1.2468-.825V3.8383c0-.6141.4218-.8258,1.2468-.8258H193.47V.5758H181.782C178.6164.5758,177.407,1.9,177.407,3.857Z"/><path class="cls-14" d="M3.0958,30.2052A6.2951,6.2951,0,0,1,.6837,29.82V28.6691a7.4277,7.4277,0,0,0,1.11.3115,5.951,5.951,0,0,0,1.1816.12,3.43,3.43,0,0,0,1.3867-.2158.8583.8583,0,0,0,.4619-.8643.989.989,0,0,0-.1923-.6357,1.4983,1.4983,0,0,0-.6358-.4141,10.1214,10.1214,0,0,0-1.2236-.3662,3.9245,3.9245,0,0,1-1.753-.8213,1.8445,1.8445,0,0,1-.5039-1.374A1.9055,1.9055,0,0,1,1.26,22.8126a3.5924,3.5924,0,0,1,2.2207-.5762,7.8949,7.8949,0,0,1,1.2656.0967,5.4458,5.4458,0,0,1,.93.2158v1.1524A5.6027,5.6027,0,0,0,3.66,23.3527a3.1913,3.1913,0,0,0-1.3438.2285.8341.8341,0,0,0-.48.8281.89.89,0,0,0,.1679.5635,1.2974,1.2974,0,0,0,.5821.372q.4145.1568,1.1464.3477a5.2072,5.2072,0,0,1,1.47.57,1.9056,1.9056,0,0,1,.7314.7676,2.26,2.26,0,0,1,.21.99,1.9116,1.9116,0,0,1-.7559,1.6026A3.7347,3.7347,0,0,1,3.0958,30.2052Z"/><path class="cls-14" d="M9.4073,30.2052a1.7669,1.7669,0,0,1-1.3613-.4863,1.8722,1.8722,0,0,1-.45-1.3262V25.4171h-.84V24.3966h.84V23.089l1.2959-.3965v1.7041h1.5117L10.32,25.4171H8.8917V28.32a.8809.8809,0,0,0,.2276.6905,1.1292,1.1292,0,0,0,.7441.1982,2.1673,2.1673,0,0,0,.6846-.12v.9238A3.0119,3.0119,0,0,1,9.4073,30.2052Z"/><path class="cls-14" d="M13.32,30.2052a2.584,2.584,0,0,1-1.0019-.1924,1.6623,1.6623,0,0,1-.7383-.582,1.6257,1.6257,0,0,1-.2764-.9658,1.6776,1.6776,0,0,1,.5586-1.3145,2.528,2.528,0,0,1,1.7217-.498h1.8242v-.252a1.4027,1.4027,0,0,0-.126-.6475.7466.7466,0,0,0-.456-.3486,3.3114,3.3114,0,0,0-.9658-.1074,5.7665,5.7665,0,0,0-1.8838.3v-.9717a4.529,4.529,0,0,1,.9355-.2519A6.8835,6.8835,0,0,1,14.1,24.2765a3.072,3.072,0,0,1,1.9024.5039,1.9477,1.9477,0,0,1,.6543,1.6445v3.66H15.54l-.084-.5762a2.3383,2.3383,0,0,1-.8584.5156A3.8767,3.8767,0,0,1,13.32,30.2052Zm.3477-.9365a2.4617,2.4617,0,0,0,1.0264-.1983,1.9442,1.9442,0,0,0,.7138-.5332v-.9961h-1.8a1.27,1.27,0,0,0-.834.2217.8442.8442,0,0,0-.2588.6777.6987.6987,0,0,0,.3008.6368A1.5786,1.5786,0,0,0,13.6681,29.2687Z"/><path class="cls-14" d="M18.1075,30.0851V21.9972h1.3086v4.68l2.3877-2.28h1.5l-2.3164,2.292,2.4483,3.3965h-1.38l-1.8838-2.7-.7559.72v1.98Z"/><path class="cls-14" d="M26.6515,30.2052a3.33,3.33,0,0,1-2.3037-.7324,2.8663,2.8663,0,0,1-.8164-2.2442,3.1593,3.1593,0,0,1,.6963-2.16,2.6665,2.6665,0,0,1,2.1123-.792,2.5907,2.5907,0,0,1,1.95.6787,2.4128,2.4128,0,0,1,.6533,1.7461V27.757H24.7794a1.4435,1.4435,0,0,0,.6006,1.14,2.9787,2.9787,0,0,0,1.5361.3125,4.9264,4.9264,0,0,0,.8877-.084,4.3973,4.3973,0,0,0,.792-.2158v.96a3.818,3.818,0,0,1-.8818.2519A6.4246,6.4246,0,0,1,26.6515,30.2052Zm-1.8721-3.3008h3.0127v-.3955a1.2554,1.2554,0,0,0-.3242-.918,1.4926,1.4926,0,0,0-1.0918-.33,1.605,1.605,0,0,0-1.2539.3955A1.8827,1.8827,0,0,0,24.7794,26.9044Z"/><path class="cls-14" d="M32.9757,30.0851V22.3566h1.3086v6.7207h3.96v1.0078Z"/><path class="cls-14" d="M39.2755,30.0851V22.3566H42.72a2.877,2.877,0,0,1,1.4639.3359,2.0763,2.0763,0,0,1,.8516.918,3.0535,3.0535,0,0,1,.2763,1.3261,2.4652,2.4652,0,0,1-.7138,1.8487,2.6424,2.6424,0,0,1-1.9258.6953H40.5841v2.6045Zm1.3086-3.6367h1.8477a1.5684,1.5684,0,0,0,1.1757-.4073,1.5212,1.5212,0,0,0,.3965-1.1045,1.63,1.63,0,0,0-.3779-1.1513,1.4738,1.4738,0,0,0-1.1348-.4082H40.5841Z"/><path class="cls-14" d="M48.2521,30.2052a7.2451,7.2451,0,0,1-1.1221-.084,5.3058,5.3058,0,0,1-.8818-.2041V28.8126a4.6749,4.6749,0,0,0,.8994.24,5.5983,5.5983,0,0,0,.9365.084,2.7305,2.7305,0,0,0,.96-.12.4592.4592,0,0,0,.288-.4678.4877.4877,0,0,0-.1748-.3964,1.7057,1.7057,0,0,0-.5156-.2637q-.3413-.12-.87-.2881a5.5874,5.5874,0,0,1-.876-.3662,1.5233,1.5233,0,0,1-.5761-.51,1.4681,1.4681,0,0,1-.2041-.8154,1.4215,1.4215,0,0,1,.5644-1.2061,3.0338,3.0338,0,0,1,1.8115-.4267,5.8727,5.8727,0,0,1,.9366.0722,4.6507,4.6507,0,0,1,.7558.18v1.0928a3.875,3.875,0,0,0-.7383-.2041,4.2812,4.2812,0,0,0-.75-.0723,3.0925,3.0925,0,0,0-.9414.1084.4221.4221,0,0,0-.3183.4317.4823.4823,0,0,0,.33.4736q.33.1392,1.0616.3779a5.2419,5.2419,0,0,1,1.0683.4327,1.4467,1.4467,0,0,1,.57.5459,1.7137,1.7137,0,0,1,.1739.8222,1.4118,1.4118,0,0,1-.6123,1.2539A3.1722,3.1722,0,0,1,48.2521,30.2052Z"/><path class="cls-14" d="M51.6827,31.5245l.36-2.2675h1.14l-.5517,2.2675Z"/><path class="cls-14" d="M57.215,30.0851V22.3566h5.3877v1.02H58.5236v2.34h3.6357v1.0078H58.5236v2.3526h4.0791v1.0078Z"/><path class="cls-14" d="M65.3517,30.2052a2.5841,2.5841,0,0,1-1.002-.1924,1.6623,1.6623,0,0,1-.7383-.582,1.6264,1.6264,0,0,1-.2763-.9658,1.6773,1.6773,0,0,1,.5586-1.3145,2.5278,2.5278,0,0,1,1.7217-.498H67.44v-.252a1.4027,1.4027,0,0,0-.126-.6475.7468.7468,0,0,0-.4561-.3486,3.3114,3.3114,0,0,0-.9658-.1074,5.7665,5.7665,0,0,0-1.8838.3v-.9717a4.53,4.53,0,0,1,.9356-.2519,6.8819,6.8819,0,0,1,1.1875-.0967,3.0717,3.0717,0,0,1,1.9023.5039,1.9477,1.9477,0,0,1,.6543,1.6445v3.66H67.5714l-.084-.5762a2.3375,2.3375,0,0,1-.8584.5156A3.8757,3.8757,0,0,1,65.3517,30.2052Zm.3476-.9365a2.4617,2.4617,0,0,0,1.0264-.1983,1.9438,1.9438,0,0,0,.7139-.5332v-.9961h-1.8a1.27,1.27,0,0,0-.834.2217.8439.8439,0,0,0-.2588.6777.6987.6987,0,0,0,.3008.6368A1.5784,1.5784,0,0,0,65.6993,29.2687Z"/><path class="cls-14" d="M70.1388,30.0851V24.3966h1.2l.0722.66a5.2054,5.2054,0,0,1,.9717-.4795,5.3861,5.3861,0,0,1,1.1162-.3008v.9961a7.1275,7.1275,0,0,0-.7265.1738q-.39.1143-.7373.252a4.1067,4.1067,0,0,0-.5879.2822v4.1045Z"/><path class="cls-14" d="M74.4474,30.0851V24.3966h1.2l.0595.6006a3.676,3.676,0,0,1,.918-.5108,3.215,3.215,0,0,1,1.1826-.21,2.1693,2.1693,0,0,1,1.6075.5166,2.2262,2.2262,0,0,1,.5039,1.6074v3.6846H78.6232v-3.624a1.2688,1.2688,0,0,0-.27-.9239,1.4636,1.4636,0,0,0-1.0136-.2646,2.21,2.21,0,0,0-.87.1806,2.1857,2.1857,0,0,0-.7138.4678v4.1641Z"/><path class="cls-15" d="M88.9552,29.4606a1.9277,1.9277,0,0,0,.5752-1.4395,2.2631,2.2631,0,0,0-.1973-.9658,1.88,1.88,0,0,0-.6963-.7568,4.8246,4.8246,0,0,0-1.3984-.5694v-2.376a5.8012,5.8012,0,0,1,1.8242.3477V22.5485a6.7374,6.7374,0,0,0-.7793-.1856,7.4111,7.4111,0,0,0-1.0449-.1142v-.9239H86.255v.9483a2.9381,2.9381,0,0,0-1.7578.6777,1.9078,1.9078,0,0,0-.5947,1.458,1.8441,1.8441,0,0,0,.5039,1.374,3.922,3.922,0,0,0,1.7529.8223.213.213,0,0,0,.0957.0234v2.4727a6.3276,6.3276,0,0,1-1.1279-.126,6.4171,6.4171,0,0,1-1.0567-.3066v1.1523a4.1526,4.1526,0,0,0,.9727.2695,9.551,9.551,0,0,0,1.2119.1143v.9121h.9834v-.96A2.8545,2.8545,0,0,0,88.9552,29.4606Zm-1.7168-2.544a1.8587,1.8587,0,0,1,.75.4385.955.955,0,0,1,.2227.666.94.94,0,0,1-.24.7022,1.3573,1.3573,0,0,1-.7324.3173Zm-.9834-1.4638a2.0989,2.0989,0,0,1-.81-.4141.9943.9943,0,0,1,.0488-1.3076,1.54,1.54,0,0,1,.7617-.3184Z"/><path class="cls-16" d="M88.9552,29.4606a1.9277,1.9277,0,0,0,.5752-1.4395,2.2631,2.2631,0,0,0-.1973-.9658,1.88,1.88,0,0,0-.6963-.7568,4.8246,4.8246,0,0,0-1.3984-.5694v-2.376a5.8012,5.8012,0,0,1,1.8242.3477V22.5485a6.7374,6.7374,0,0,0-.7793-.1856,7.4111,7.4111,0,0,0-1.0449-.1142v-.9239H86.255v.9483a2.9381,2.9381,0,0,0-1.7578.6777,1.9078,1.9078,0,0,0-.5947,1.458,1.8441,1.8441,0,0,0,.5039,1.374,3.922,3.922,0,0,0,1.7529.8223.213.213,0,0,0,.0957.0234v2.4727a6.3276,6.3276,0,0,1-1.1279-.126,6.4171,6.4171,0,0,1-1.0567-.3066v1.1523a4.1526,4.1526,0,0,0,.9727.2695,9.551,9.551,0,0,0,1.2119.1143v.9121h.9834v-.96A2.8545,2.8545,0,0,0,88.9552,29.4606Zm-1.7168-2.544a1.8587,1.8587,0,0,1,.75.4385.955.955,0,0,1,.2227.666.94.94,0,0,1-.24.7022,1.3573,1.3573,0,0,1-.7324.3173Zm-.9834-1.4638a2.0989,2.0989,0,0,1-.81-.4141.9943.9943,0,0,1,.0488-1.3076,1.54,1.54,0,0,1,.7617-.3184Z"/><path class="cls-15" d="M94.5343,29.1012A2.6018,2.6018,0,0,1,92.53,28.399,2.9311,2.9311,0,0,1,91.882,26.34a3.5735,3.5735,0,0,1,.5937-2.22,2.4225,2.4225,0,0,1,2.0342-.7676,6.29,6.29,0,0,1,1.1465.1016,5.4794,5.4794,0,0,1,1.0254.294v-1.14a6.6955,6.6955,0,0,0-2.2676-.3721,4.2549,4.2549,0,0,0-2.1719.4981,3.05,3.05,0,0,0-1.2666,1.416,5.3051,5.3051,0,0,0-.4141,2.1894,3.9581,3.9581,0,0,0,.9786,2.82,3.7647,3.7647,0,0,0,2.8857,1.0439,8.3416,8.3416,0,0,0,1.2305-.084,6.3911,6.3911,0,0,0,1.0381-.24V28.7291a5.1155,5.1155,0,0,1-1.0508.2813A6.906,6.906,0,0,1,94.5343,29.1012Z"/><path class="cls-17" d="M94.5343,29.1012A2.6018,2.6018,0,0,1,92.53,28.399,2.9311,2.9311,0,0,1,91.882,26.34a3.5735,3.5735,0,0,1,.5937-2.22,2.4225,2.4225,0,0,1,2.0342-.7676,6.29,6.29,0,0,1,1.1465.1016,5.4794,5.4794,0,0,1,1.0254.294v-1.14a6.6955,6.6955,0,0,0-2.2676-.3721,4.2549,4.2549,0,0,0-2.1719.4981,3.05,3.05,0,0,0-1.2666,1.416,5.3051,5.3051,0,0,0-.4141,2.1894,3.9581,3.9581,0,0,0,.9786,2.82,3.7647,3.7647,0,0,0,2.8857,1.0439,8.3416,8.3416,0,0,0,1.2305-.084,6.3911,6.3911,0,0,0,1.0381-.24V28.7291a5.1155,5.1155,0,0,1-1.0508.2813A6.906,6.906,0,0,1,94.5343,29.1012Z"/><path class="cls-15" d="M104.0021,24.8287a2.6151,2.6151,0,0,0-.5938-1.8056,2.4131,2.4131,0,0,0-1.8906-.6661H97.9659v7.7276h1.3086V27.3492h1.4512a1.1339,1.1339,0,0,1,.6309.1319,1.013,1.013,0,0,1,.3173.4433l.9483,2.16h1.3437l-.9716-2.2442a2.6847,2.6847,0,0,0-.24-.4794,1.3354,1.3354,0,0,0-.3359-.336,2.1286,2.1286,0,0,0,1.1758-.8037A2.3467,2.3467,0,0,0,104.0021,24.8287Zm-1.7159,1.1162a1.6635,1.6635,0,0,1-1.1162.3477H99.2745v-2.916H101.29a1.2632,1.2632,0,0,1,1.4043,1.4521A1.3938,1.3938,0,0,1,102.2862,25.9449Z"/><path class="cls-18" d="M104.0021,24.8287a2.6151,2.6151,0,0,0-.5938-1.8056,2.4131,2.4131,0,0,0-1.8906-.6661H97.9659v7.7276h1.3086V27.3492h1.4512a1.1339,1.1339,0,0,1,.6309.1319,1.013,1.013,0,0,1,.3173.4433l.9483,2.16h1.3437l-.9716-2.2442a2.6847,2.6847,0,0,0-.24-.4794,1.3354,1.3354,0,0,0-.3359-.336,2.1286,2.1286,0,0,0,1.1758-.8037A2.3467,2.3467,0,0,0,104.0021,24.8287Zm-1.7159,1.1162a1.6635,1.6635,0,0,1-1.1162.3477H99.2745v-2.916H101.29a1.2632,1.2632,0,0,1,1.4043,1.4521A1.3938,1.3938,0,0,1,102.2862,25.9449Z"/><polygon class="cls-15" points="107.686 26.113 105.622 22.357 104.266 22.357 107.038 27.216 107.038 30.085 108.334 30.085 108.334 27.216 111.107 22.357 109.75 22.357 107.686 26.113"/><polygon class="cls-19" points="107.686 26.113 105.622 22.357 104.266 22.357 107.038 27.216 107.038 30.085 108.334 30.085 108.334 27.216 111.107 22.357 109.75 22.357 107.686 26.113"/><path class="cls-15" d="M116.0441,26.2633a5.1742,5.1742,0,0,0-1.47-.57q-.7323-.1918-1.1464-.3486a1.3061,1.3061,0,0,1-.5821-.3711.8927.8927,0,0,1-.1679-.5645.835.835,0,0,1,.48-.8281,3.2088,3.2088,0,0,1,1.3438-.2276,5.6244,5.6244,0,0,1,2.0156.3477V22.5485a5.633,5.633,0,0,0-.93-.2159,8.0161,8.0161,0,0,0-1.2656-.0957,3.5924,3.5924,0,0,0-2.2207.5762,1.9049,1.9049,0,0,0-.7442,1.5957,1.8445,1.8445,0,0,0,.5039,1.374,3.923,3.923,0,0,0,1.753.8223,10.1214,10.1214,0,0,1,1.2236.3662,1.4965,1.4965,0,0,1,.6357.4131.9894.9894,0,0,1,.1924.6367.8567.8567,0,0,1-.4619.8633,3.41,3.41,0,0,1-1.3867.2168,5.951,5.951,0,0,1-1.1816-.12,7.4275,7.4275,0,0,1-1.11-.3125v1.1523a6.3163,6.3163,0,0,0,2.4121.3838,3.7286,3.7286,0,0,0,2.292-.582,1.91,1.91,0,0,0,.7559-1.6016,2.2534,2.2534,0,0,0-.21-.99A1.8994,1.8994,0,0,0,116.0441,26.2633Z"/><path class="cls-20" d="M116.0441,26.2633a5.1742,5.1742,0,0,0-1.47-.57q-.7323-.1918-1.1464-.3486a1.3061,1.3061,0,0,1-.5821-.3711.8927.8927,0,0,1-.1679-.5645.835.835,0,0,1,.48-.8281,3.2088,3.2088,0,0,1,1.3438-.2276,5.6244,5.6244,0,0,1,2.0156.3477V22.5485a5.633,5.633,0,0,0-.93-.2159,8.0161,8.0161,0,0,0-1.2656-.0957,3.5924,3.5924,0,0,0-2.2207.5762,1.9049,1.9049,0,0,0-.7442,1.5957,1.8445,1.8445,0,0,0,.5039,1.374,3.923,3.923,0,0,0,1.753.8223,10.1214,10.1214,0,0,1,1.2236.3662,1.4965,1.4965,0,0,1,.6357.4131.9894.9894,0,0,1,.1924.6367.8567.8567,0,0,1-.4619.8633,3.41,3.41,0,0,1-1.3867.2168,5.951,5.951,0,0,1-1.1816-.12,7.4275,7.4275,0,0,1-1.11-.3125v1.1523a6.3163,6.3163,0,0,0,2.4121.3838,3.7286,3.7286,0,0,0,2.292-.582,1.91,1.91,0,0,0,.7559-1.6016,2.2534,2.2534,0,0,0-.21-.99A1.8994,1.8994,0,0,0,116.0441,26.2633Z"/><polygon class="cls-15" points="117.311 23.377 119.782 23.377 119.782 30.085 121.091 30.085 121.091 23.377 123.551 23.377 123.551 22.357 117.311 22.357 117.311 23.377"/><polygon class="cls-21" points="117.311 23.377 119.782 23.377 119.782 30.085 121.091 30.085 121.091 23.377 123.551 23.377 123.551 22.357 117.311 22.357 117.311 23.377"/><polygon class="cls-15" points="125.902 22.357 124.594 22.357 124.594 30.085 129.862 30.085 129.862 29.077 125.902 29.077 125.902 22.357"/><polygon class="cls-22" points="125.902 22.357 124.594 22.357 124.594 30.085 129.862 30.085 129.862 29.077 125.902 29.077 125.902 22.357"/></svg>