<svg id="Layer_2" data-name="Layer 2" xmlns="http://www.w3.org/2000/svg" xmlns:xlink="http://www.w3.org/1999/xlink" viewBox="0 0 214.6051 32.1003"><defs><style>.cls-1{fill:#fff;}.cls-2{fill:url(#Crystl.Finance);}.cls-3{fill:url(#Crystl.Finance-2);}.cls-4{fill:url(#Crystl.Finance-3);}.cls-5{fill:url(#Crystl.Finance-4);}.cls-6{fill:url(#Crystl.Finance-5);}.cls-7{fill:url(#Crystl.Finance-6);}.cls-8{fill:url(#Crystl.Finance-7);}.cls-9{fill:url(#Crystl.Finance-8);}.cls-10{fill:url(#Crystl.Finance-9);}.cls-11{fill:url(#Crystl.Finance-10);}.cls-12{fill:url(#Crystl.Finance-11);}.cls-13{fill:url(#Crystl.Finance-12);}.cls-14{fill:url(#Crystl.Finance-13);}</style><linearGradient id="Crystl.Finance" x1="7.6653" y1="0.7972" x2="7.6653" y2="14.1713" gradientUnits="userSpaceOnUse"><stop offset="0" stop-color="#fff"/><stop offset="0.2977" stop-color="#fffdff"/><stop offset="0.4431" stop-color="#fdf5fe"/><stop offset="0.5551" stop-color="#fae8fc"/><stop offset="0.65" stop-color="#f6d6fa"/><stop offset="0.6653" stop-color="#f5d2fa"/><stop offset="0.7403" stop-color="#f1d2fa"/><stop offset="0.8222" stop-color="#e3d2f9"/><stop offset="0.9074" stop-color="#ced3f7"/><stop offset="0.9943" stop-color="#afd4f5"/><stop offset="1" stop-color="#add4f5"/></linearGradient><linearGradient id="Crystl.Finance-2" x1="25.3162" y1="0.7972" x2="25.3162" y2="14.1713" xlink:href="#Crystl.Finance"/><linearGradient id="Crystl.Finance-3" x1="43.3467" y1="0.7972" x2="43.3467" y2="14.1713" xlink:href="#Crystl.Finance"/><linearGradient id="Crystl.Finance-4" x1="61.7202" y1="0.7972" x2="61.7202" y2="14.1713" xlink:href="#Crystl.Finance"/><linearGradient id="Crystl.Finance-5" x1="79.1335" y1="0.7972" x2="79.1335" y2="14.1713" xlink:href="#Crystl.Finance"/><linearGradient id="Crystl.Finance-6" x1="95.9297" y1="0.7972" x2="95.9297" y2="14.1713" xlink:href="#Crystl.Finance"/><linearGradient id="Crystl.Finance-7" x1="106.1528" y1="0.7972" x2="106.1528" y2="14.1713" xlink:href="#Crystl.Finance"/><linearGradient id="Crystl.Finance-8" x1="117.4187" y1="0.7972" x2="117.4187" y2="14.1713" xlink:href="#Crystl.Finance"/><linearGradient id="Crystl.Finance-9" x1="132.6846" y1="0.7972" x2="132.6846" y2="14.1713" xlink:href="#Crystl.Finance"/><linearGradient id="Crystl.Finance-10" x1="151.6848" y1="0.7972" x2="151.6848" y2="14.1713" xlink:href="#Crystl.Finance"/><linearGradient id="Crystl.Finance-11" x1="170.0959" y1="0.7972" x2="170.0959" y2="14.1713" xlink:href="#Crystl.Finance"/><linearGradient id="Crystl.Finance-12" x1="186.8254" y1="0.7972" x2="186.8254" y2="14.1713" xlink:href="#Crystl.Finance"/><linearGradient id="Crystl.Finance-13" x1="203.469" y1="0.7972" x2="203.469" y2="14.1713" xlink:href="#Crystl.Finance"/></defs><path class="cls-1" d="M3.8643,31.3031a3.7648,3.7648,0,0,1-2.8858-1.044A3.9581,3.9581,0,0,1,0,27.4388a5.3051,5.3051,0,0,1,.4141-2.1894,3.05,3.05,0,0,1,1.2666-1.416,4.2545,4.2545,0,0,1,2.1718-.4981,6.6955,6.6955,0,0,1,2.2676.3721v1.14a5.475,5.475,0,0,0-1.0254-.2939,6.29,6.29,0,0,0-1.1465-.1016,2.4222,2.4222,0,0,0-2.0341.7676,3.5735,3.5735,0,0,0-.5938,2.22,2.9307,2.9307,0,0,0,.6485,2.0586A2.6018,2.6018,0,0,0,3.9727,30.2a6.9048,6.9048,0,0,0,1.1093-.0908,5.1121,5.1121,0,0,0,1.0508-.2813v1.1514a6.3966,6.3966,0,0,1-1.0381.24A8.3392,8.3392,0,0,1,3.8643,31.3031Z"/><path class="cls-1" d="M8.82,31.3031a1.48,1.48,0,0,1-1.0557-.3418,1.5126,1.5126,0,0,1-.36-1.1338V23.0951H8.7129v6.6123a.6508.6508,0,0,0,.1191.456.4894.4894,0,0,0,.36.12,2.091,2.091,0,0,0,.5517-.0723V31.16a2.1222,2.1222,0,0,1-.4375.1133A3.411,3.411,0,0,1,8.82,31.3031Z"/><path class="cls-1" d="M12.54,31.3031a2.602,2.602,0,0,1-1.0019-.1914A1.6623,1.6623,0,0,1,10.8,30.53a1.6289,1.6289,0,0,1-.2764-.9668,1.6755,1.6755,0,0,1,.5586-1.3135,2.5275,2.5275,0,0,1,1.7217-.4981h1.8242v-.2519a1.4057,1.4057,0,0,0-.1259-.6485.7494.7494,0,0,0-.4561-.3476,3.271,3.271,0,0,0-.9658-.1084,5.7667,5.7667,0,0,0-1.8838.3008V25.723a4.6586,4.6586,0,0,1,.9355-.2519,6.9877,6.9877,0,0,1,1.1875-.0957,3.0714,3.0714,0,0,1,1.9024.5039,1.9444,1.9444,0,0,1,.6543,1.6435v3.66H14.76l-.084-.5762a2.3259,2.3259,0,0,1-.8584.5166A3.8786,3.8786,0,0,1,12.54,31.3031Zm.3477-.9356a2.4776,2.4776,0,0,0,1.0264-.1982,1.935,1.935,0,0,0,.7138-.5342V28.639h-1.8a1.2644,1.2644,0,0,0-.834.2227.8428.8428,0,0,0-.2587.6777.6969.6969,0,0,0,.3007.6358A1.5783,1.5783,0,0,0,12.8877,30.3675Z"/><path class="cls-1" d="M17.916,31.183V26.4916h-.8633l.1192-.9961h2.0527V31.183Zm-.1074-6.876v-1.08h1.4277v1.08Z"/><path class="cls-1" d="M20.748,31.183V25.4955h1.2l.06.6a3.446,3.446,0,0,1,.9248-.5283,3.0255,3.0255,0,0,1,1.0791-.1914,1.9048,1.9048,0,0,1,.9541.1982,1.3149,1.3149,0,0,1,.5225.5459,3.5119,3.5119,0,0,1,.9121-.5342,3.2793,3.2793,0,0,1,1.2353-.21,1.8918,1.8918,0,0,1,1.4522.5039,2.208,2.208,0,0,1,.4687,1.5478V31.183H28.2725V27.5589a1.2522,1.2522,0,0,0-.2764-.9238,1.2751,1.2751,0,0,0-.9-.2637,2.1,2.1,0,0,0-.7734.1436,1.677,1.677,0,0,0-.63.4326,1.562,1.562,0,0,1,.0478.2754c.0078.0967.0118.2.0118.3125V31.183H24.54V27.5716a1.5333,1.5333,0,0,0-.2158-.9121.9663.9663,0,0,0-.8164-.2881,1.688,1.688,0,0,0-.7978.1983,3.1727,3.1727,0,0,0-.6778.4736v4.14Z"/><path class="cls-1" d="M33.7793,31.183V23.4554h5.2559v1.02H35.0879v2.34h3.5039v1.0088H35.0879V31.183Z"/><path class="cls-1" d="M39.6475,31.183V25.4955h1.2l.0722.66a5.2082,5.2082,0,0,1,.9717-.48,5.38,5.38,0,0,1,1.1162-.3v.996a6.9053,6.9053,0,0,0-.7266.1739q-.39.1141-.7373.2519a3.9063,3.9063,0,0,0-.5878.2823V31.183Z"/><path class="cls-1" d="M46.5957,31.3031a3.3347,3.3347,0,0,1-2.3037-.7315,2.8659,2.8659,0,0,1-.8164-2.2441,3.16,3.16,0,0,1,.6963-2.16,2.6635,2.6635,0,0,1,2.1123-.7919,2.59,2.59,0,0,1,1.95.6777,2.4128,2.4128,0,0,1,.6533,1.7461v1.0556H44.7236a1.444,1.444,0,0,0,.6006,1.1407,2.98,2.98,0,0,0,1.5362.3115,4.8364,4.8364,0,0,0,.8876-.084,4.3219,4.3219,0,0,0,.792-.2158v.96a3.7263,3.7263,0,0,1-.8818.2519A6.4246,6.4246,0,0,1,46.5957,31.3031Zm-1.8721-3.3h3.0127v-.3965a1.2569,1.2569,0,0,0-.3242-.918,1.4926,1.4926,0,0,0-1.0918-.33,1.6053,1.6053,0,0,0-1.2539.3964A1.88,1.88,0,0,0,44.7236,28.0033Z"/><path class="cls-1" d="M53.0391,31.3031a3.3347,3.3347,0,0,1-2.3037-.7315,2.866,2.866,0,0,1-.8165-2.2441,3.16,3.16,0,0,1,.6963-2.16,2.6638,2.6638,0,0,1,2.1123-.7919,2.59,2.59,0,0,1,1.95.6777,2.4124,2.4124,0,0,1,.6534,1.7461v1.0556H51.167a1.4434,1.4434,0,0,0,.6006,1.1407,2.98,2.98,0,0,0,1.5361.3115,4.8374,4.8374,0,0,0,.8877-.084,4.3241,4.3241,0,0,0,.792-.2158v.96a3.7276,3.7276,0,0,1-.8818.2519A6.4264,6.4264,0,0,1,53.0391,31.3031Zm-1.8721-3.3H54.18v-.3965a1.2569,1.2569,0,0,0-.3242-.918,1.4928,1.4928,0,0,0-1.0918-.33,1.6053,1.6053,0,0,0-1.2539.3964A1.879,1.879,0,0,0,51.167,28.0033Z"/><path class="cls-1" d="M59.3633,31.183V23.4554H60.707l2.4483,5.0039,2.4365-5.0039h1.3437V31.183H65.64V25.58l-2.0878,4.2714H62.76L60.6592,25.58V31.183Z"/><path class="cls-1" d="M68.22,31.183l2.9522-7.7276h1.4638l2.9278,7.7276H74.22l-.7685-1.9922H70.3438l-.7686,1.9922Zm2.3282-3h2.6875l-1.3438-3.54Z"/><path class="cls-1" d="M77.8311,31.183V24.475H75.3594v-1.02H81.6v1.02H79.14v6.708Z"/><path class="cls-1" d="M82.6436,31.183V23.4554h1.3085V31.183Z"/><path class="cls-1" d="M89.0869,31.3031a3.7644,3.7644,0,0,1-2.8857-1.044,3.9577,3.9577,0,0,1-.9785-2.82,5.3052,5.3052,0,0,1,.414-2.1894,3.0505,3.0505,0,0,1,1.2666-1.416,4.2549,4.2549,0,0,1,2.1719-.4981,6.6955,6.6955,0,0,1,2.2676.3721v1.14a5.4772,5.4772,0,0,0-1.0254-.2939,6.29,6.29,0,0,0-1.1465-.1016,2.4225,2.4225,0,0,0-2.0342.7676,3.5735,3.5735,0,0,0-.5937,2.22,2.9311,2.9311,0,0,0,.6484,2.0586,2.6018,2.6018,0,0,0,2.0039.7022,6.906,6.906,0,0,0,1.1094-.0908,5.1138,5.1138,0,0,0,1.0508-.2813v1.1514a6.3966,6.3966,0,0,1-1.0381.24A8.3406,8.3406,0,0,1,89.0869,31.3031Z"/><path d="M4.293,11.74c-.7788,0-1.1968-.2285-1.1968-.7793V3.9886c0-.5322.418-.7793,1.1968-.7793H15.3306V.7972H4.293C1.1777.7972,0,2.1078,0,4.0267v6.9151c0,1.9179,1.1777,3.23,4.293,3.23H15.3306V11.74Z"/><path class="cls-2" d="M4.293,11.74c-.7788,0-1.1968-.2285-1.1968-.7793V3.9886c0-.5322.418-.7793,1.1968-.7793H15.3306V.7972H4.293C1.1777.7972,0,2.1078,0,4.0267v6.9151c0,1.9179,1.1777,3.23,4.293,3.23H15.3306V11.74Z"/><path d="M33.2856,4.9955V4.0267c0-1.9189-1.1972-3.2295-4.3125-3.2295H17.3467V14.1713h3.0967V8.225h6.3828l2.9829,5.9463h3.3242L30.1318,8.1869C32.5254,7.8636,33.2856,6.5912,33.2856,4.9955Zm-4.3125.8164h-8.53V3.2093h8.53c.7789,0,1.1968.2471,1.1968.7793V5.014C30.17,5.6605,29.79,5.8119,28.9731,5.8119Z"/><path class="cls-3" d="M33.2856,4.9955V4.0267c0-1.9189-1.1972-3.2295-4.3125-3.2295H17.3467V14.1713h3.0967V8.225h6.3828l2.9829,5.9463h3.3242L30.1318,8.1869C32.5254,7.8636,33.2856,6.5912,33.2856,4.9955Zm-4.3125.8164h-8.53V3.2093h8.53c.7789,0,1.1968.2471,1.1968.7793V5.014C30.17,5.6605,29.79,5.8119,28.9731,5.8119Z"/><polygon points="53.406 0.797 49.492 0.797 43.375 6.629 37.239 0.797 33.288 0.797 41.836 8.87 41.836 14.171 44.933 14.171 44.933 8.87 53.406 0.797"/><polygon class="cls-4" points="53.406 0.797 49.492 0.797 43.375 6.629 37.239 0.797 33.288 0.797 41.836 8.87 41.836 14.171 44.933 14.171 44.933 8.87 53.406 0.797"/><path d="M70.05,10.9037V9.0414c0-1.9375-1.1968-3.2481-4.3311-3.2481h-7.998c-.874,0-1.2349-.247-1.2349-.8174V4.0267c0-.6084.418-.8174,1.2349-.8174H69.2905V.7972H57.7212c-3.1343,0-4.3311,1.3106-4.3311,3.2481v.9121c0,1.9375,1.1968,3.248,4.3311,3.248h7.998c.8545,0,1.2159.209,1.2159.8174v1.919c0,.6455-.3423.7978-1.2159.7978H53.8267v2.4317H65.7192C68.8535,14.1713,70.05,12.8412,70.05,10.9037Z"/><path class="cls-5" d="M70.05,10.9037V9.0414c0-1.9375-1.1968-3.2481-4.3311-3.2481h-7.998c-.874,0-1.2349-.247-1.2349-.8174V4.0267c0-.6084.418-.8174,1.2349-.8174H69.2905V.7972H57.7212c-3.1343,0-4.3311,1.3106-4.3311,3.2481v.9121c0,1.9375,1.1968,3.248,4.3311,3.248h7.998c.8545,0,1.2159.209,1.2159.8174v1.919c0,.6455-.3423.7978-1.2159.7978H53.8267v2.4317H65.7192C68.8535,14.1713,70.05,12.8412,70.05,10.9037Z"/><polygon points="87.511 3.209 87.511 0.797 70.756 0.797 70.756 3.209 77.652 3.209 77.652 14.171 80.768 14.171 80.768 3.209 87.511 3.209"/><polygon class="cls-6" points="87.511 3.209 87.511 0.797 70.756 0.797 70.756 3.209 77.652 3.209 77.652 14.171 80.768 14.171 80.768 3.209 87.511 3.209"/><polygon points="92.207 11.74 92.207 0.797 89.072 0.797 89.072 14.171 102.788 14.171 102.788 11.74 92.207 11.74"/><polygon class="cls-7" points="92.207 11.74 92.207 0.797 89.072 0.797 89.072 14.171 102.788 14.171 102.788 11.74 92.207 11.74"/><rect x="104.3291" y="11.7015" width="3.6475" height="2.4697"/><rect class="cls-8" x="104.3291" y="11.7015" width="3.6475" height="2.4697"/><polygon points="123.688 8.87 123.688 6.458 113.467 6.458 113.467 3.209 124.467 3.209 124.467 0.797 110.371 0.797 110.371 14.171 113.467 14.171 113.467 8.87 123.688 8.87"/><polygon class="cls-9" points="123.688 8.87 123.688 6.458 113.467 6.458 113.467 3.209 124.467 3.209 124.467 0.797 110.371 0.797 110.371 14.171 113.467 14.171 113.467 8.87 123.688 8.87"/><polygon points="131.573 0.797 122.664 14.171 126.121 14.171 132.732 3.989 139.21 14.171 142.706 14.171 133.853 0.797 131.573 0.797"/><polygon class="cls-10" points="131.573 0.797 122.664 14.171 126.121 14.171 132.732 3.989 139.21 14.171 142.706 14.171 133.853 0.797 131.573 0.797"/><path d="M160.2432,10.9418V.7972h-3.0967V10.96c0,.5508-.418.7793-1.1968.7793h-8.53c-.7788,0-1.1968-.2285-1.1968-.7793V.7972h-3.0966V10.9418c0,1.9179,1.1782,3.23,4.2934,3.23h8.53C159.0654,14.1713,160.2432,12.86,160.2432,10.9418Z"/><path class="cls-11" d="M160.2432,10.9418V.7972h-3.0967V10.96c0,.5508-.418.7793-1.1968.7793h-8.53c-.7788,0-1.1968-.2285-1.1968-.7793V.7972h-3.0966V10.9418c0,1.9179,1.1782,3.23,4.2934,3.23h8.53C159.0654,14.1713,160.2432,12.86,160.2432,10.9418Z"/><path d="M166.7236,11.74c-.7788,0-1.1967-.2285-1.1967-.7793V3.9886c0-.5322.4179-.7793,1.1967-.7793h11.0376V.7972H166.7236c-3.1152,0-4.2929,1.3106-4.2929,3.23v6.9151c0,1.9179,1.1777,3.23,4.2929,3.23h11.0376V11.74Z"/><path class="cls-12" d="M166.7236,11.74c-.7788,0-1.1967-.2285-1.1967-.7793V3.9886c0-.5322.4179-.7793,1.1967-.7793h11.0376V.7972H166.7236c-3.1152,0-4.2929,1.3106-4.2929,3.23v6.9151c0,1.9179,1.1777,3.23,4.2929,3.23h11.0376V11.74Z"/><polygon points="182.874 11.74 182.874 8.32 193.285 8.32 193.285 5.888 182.874 5.888 182.874 3.209 193.874 3.209 193.874 0.797 179.777 0.797 179.777 14.171 193.874 14.171 193.874 11.74 182.874 11.74"/><polygon class="cls-13" points="182.874 11.74 182.874 8.32 193.285 8.32 193.285 5.888 182.874 5.888 182.874 3.209 193.874 3.209 193.874 0.797 179.777 0.797 179.777 14.171 193.874 14.171 193.874 11.74 182.874 11.74"/><polygon points="211.847 3.209 211.847 0.797 195.091 0.797 195.091 3.209 201.987 3.209 201.987 14.171 205.103 14.171 205.103 3.209 211.847 3.209"/><polygon class="cls-14" points="211.847 3.209 211.847 0.797 195.091 0.797 195.091 3.209 201.987 3.209 201.987 14.171 205.103 14.171 205.103 3.209 211.847 3.209"/></svg>