<svg id="Layer_2" data-name="Layer 2" xmlns="http://www.w3.org/2000/svg" xmlns:xlink="http://www.w3.org/1999/xlink" viewBox="0 0 347.1856 70.272"><defs><style>.cls-1{opacity:0.2;}.cls-2{fill:#b2d5f1;}.cls-3{fill:#fff;}.cls-4{fill:#c4e9f7;}.cls-5{fill:#abb1d9;}.cls-6{fill:#c8d1eb;}.cls-7{fill:#9b95c8;}.cls-8{fill:#b298c8;}.cls-9{fill:#a296c9;}.cls-10{fill:#c89fc9;}.cls-11{fill:#edd3e6;}.cls-12{fill:#c49fca;}.cls-13{fill:#d8eff5;}.cls-14{fill:#da9ded;}.cls-15{fill:url(#Crystl.Finance);}.cls-16{fill:url(#Crystl.Finance-2);}.cls-17{fill:url(#Crystl.Finance-3);}.cls-18{fill:url(#Crystl.Finance-4);}.cls-19{fill:url(#Crystl.Finance-5);}.cls-20{fill:url(#Crystl.Finance-6);}.cls-21{fill:url(#Crystl.Finance-7);}.cls-22{fill:url(#Crystl.Finance-8);}.cls-23{fill:url(#Crystl.Finance-9);}.cls-24{fill:url(#Crystl.Finance-10);}.cls-25{fill:url(#Crystl.Finance-11);}.cls-26{fill:url(#Crystl.Finance-12);}.cls-27{fill:url(#Crystl.Finance-13);}.cls-28{fill:url(#Crystl.Finance-14);}.cls-29{fill:url(#Crystl.Finance-15);}.cls-30{fill:url(#Crystl.Finance-16);}.cls-31{fill:url(#Crystl.Finance-17);}.cls-32{fill:url(#Crystl.Finance-18);}.cls-33{fill:url(#Crystl.Finance-19);}.cls-34{fill:url(#Crystl.Finance-20);}.cls-35{fill:url(#Crystl.Finance-21);}</style><linearGradient id="Crystl.Finance" x1="187.3325" y1="41.6351" x2="187.3325" y2="51.4271" gradientUnits="userSpaceOnUse"><stop offset="0" stop-color="#fff"/><stop offset="0.2977" stop-color="#fffdff"/><stop offset="0.4431" stop-color="#fdf5fe"/><stop offset="0.5551" stop-color="#fae8fc"/><stop offset="0.65" stop-color="#f6d6fa"/><stop offset="0.6653" stop-color="#f5d2fa"/><stop offset="0.7403" stop-color="#f1d2fa"/><stop offset="0.8222" stop-color="#e3d2f9"/><stop offset="0.9074" stop-color="#ced3f7"/><stop offset="0.9943" stop-color="#afd4f5"/><stop offset="1" stop-color="#add4f5"/></linearGradient><linearGradient id="Crystl.Finance-2" x1="194.2441" y1="41.6352" x2="194.2441" y2="51.4272" xlink:href="#Crystl.Finance"/><linearGradient id="Crystl.Finance-3" x1="201.6001" y1="41.6352" x2="201.6001" y2="51.4272" xlink:href="#Crystl.Finance"/><linearGradient id="Crystl.Finance-4" x1="208.3022" y1="41.6352" x2="208.3022" y2="51.4272" xlink:href="#Crystl.Finance"/><linearGradient id="Crystl.Finance-5" x1="214.7876" y1="41.6352" x2="214.7876" y2="51.4272" xlink:href="#Crystl.Finance"/><linearGradient id="Crystl.Finance-6" x1="221.0469" y1="41.6352" x2="221.0469" y2="51.4272" xlink:href="#Crystl.Finance"/><linearGradient id="Crystl.Finance-7" x1="227.8442" y1="41.6352" x2="227.8442" y2="51.4272" xlink:href="#Crystl.Finance"/><linearGradient id="Crystl.Finance-8" x1="65.1411" y1="22.8441" x2="65.1411" y2="36.2181" xlink:href="#Crystl.Finance"/><linearGradient id="Crystl.Finance-9" x1="83.4571" y1="22.8441" x2="83.4571" y2="36.2181" xlink:href="#Crystl.Finance"/><linearGradient id="Crystl.Finance-10" x1="102.1526" y1="22.8441" x2="102.1526" y2="36.2181" xlink:href="#Crystl.Finance"/><linearGradient id="Crystl.Finance-11" x1="121.1912" y1="22.8441" x2="121.1912" y2="36.2181" xlink:href="#Crystl.Finance"/><linearGradient id="Crystl.Finance-12" x1="139.2696" y1="22.8441" x2="139.2696" y2="36.2181" xlink:href="#Crystl.Finance"/><linearGradient id="Crystl.Finance-13" x1="156.7305" y1="22.8441" x2="156.7305" y2="36.2181" xlink:href="#Crystl.Finance"/><linearGradient id="Crystl.Finance-14" x1="167.6184" y1="22.8441" x2="167.6184" y2="36.2181" xlink:href="#Crystl.Finance"/><linearGradient id="Crystl.Finance-15" x1="179.5493" y1="22.8441" x2="179.5493" y2="36.2181" xlink:href="#Crystl.Finance"/><linearGradient id="Crystl.Finance-16" x1="190.1426" y1="22.8441" x2="190.1426" y2="36.2181" xlink:href="#Crystl.Finance"/><linearGradient id="Crystl.Finance-17" x1="203.8782" y1="22.8441" x2="203.8782" y2="36.2181" xlink:href="#Crystl.Finance"/><linearGradient id="Crystl.Finance-18" x1="224.74" y1="22.8441" x2="224.74" y2="36.2181" xlink:href="#Crystl.Finance"/><linearGradient id="Crystl.Finance-19" x1="245.6209" y1="22.8441" x2="245.6209" y2="36.2181" xlink:href="#Crystl.Finance"/><linearGradient id="Crystl.Finance-20" x1="265.2671" y1="22.8441" x2="265.2671" y2="36.2181" xlink:href="#Crystl.Finance"/><linearGradient id="Crystl.Finance-21" x1="282.6617" y1="22.8441" x2="282.6617" y2="36.2181" xlink:href="#Crystl.Finance"/></defs><g class="cls-1"><polygon class="cls-2" points="157.224 38.193 147.183 35.922 142.904 48.496 150.326 40.113 157.224 38.193"/><path class="cls-3" d="M142.9038,48.9954a.4994.4994,0,0,1-.4731-.6611L146.71,35.7606a.5.5,0,0,1,.5835-.3267l10.041,2.271a.5.5,0,0,1,.0239.9692l-6.7559,1.8819-7.3242,8.2705A.5.5,0,0,1,142.9038,48.9954Zm4.6079-12.4868-3.333,9.7935,5.773-6.52a.4961.4961,0,0,1,.24-.15L155.18,38.243Z"/><polygon class="cls-2" points="154.867 44.654 157.224 38.193 150.326 40.113 154.867 44.654"/><path class="cls-3" d="M154.8667,45.1546a.5.5,0,0,1-.3535-.1465l-4.5405-4.541a.5.5,0,0,1,.2192-.8349l6.8979-1.9209a.5.5,0,0,1,.604.6528l-2.3574,6.4614a.4991.4991,0,0,1-.47.3291Zm-3.5815-4.789,3.38,3.3808,1.7554-4.8105Z"/><polygon class="cls-4" points="154.867 44.654 150.326 40.113 142.904 48.496 159.67 57.316 154.867 44.654"/><path class="cls-3" d="M159.67,57.8157a.4946.4946,0,0,1-.2329-.0576l-16.7661-8.82a.5.5,0,0,1-.1416-.7734l7.4224-8.3819a.4992.4992,0,0,1,.728-.0224l4.5405,4.541a.4961.4961,0,0,1,.1138.1758l4.8032,12.6611a.5.5,0,0,1-.4673.6777ZM143.7007,48.35l15.0332,7.9082L154.4375,44.932l-4.0894-4.0889Z"/><polygon class="cls-2" points="154.867 44.654 154.867 44.654 159.67 57.316 176.348 66.135 154.867 44.654"/><path class="cls-3" d="M176.3486,66.6341a.5.5,0,0,1-.2334-.0576L159.436,57.7581a.5033.5033,0,0,1-.2334-.2646l-4.8032-12.6612a.5.5,0,0,1,.8208-.5312l21.4819,21.48a.5.5,0,0,1-.3535.8535ZM160.07,56.9622,173.6475,64.14,156.1606,46.6556Z"/><polygon class="cls-2" points="176.348 66.135 200.449 42.121 188.224 43.868 176.348 66.135"/><path class="cls-3" d="M176.3486,66.6341a.5.5,0,0,1-.4414-.7353l11.875-22.2657a.5006.5006,0,0,1,.3711-.26l12.2246-1.7471a.5068.5068,0,0,1,.5176.2715.499.499,0,0,1-.0947.5781l-24.1,24.0127A.5018.5018,0,0,1,176.3486,66.6341Zm12.1973-22.3066L178.3613,63.4232l20.668-20.5938Z"/><polygon class="cls-2" points="195.384 28.674 184.119 35.136 193.637 33.652 203.155 39.415 195.384 28.674"/><path class="cls-3" d="M203.1553,39.9144a.4967.4967,0,0,1-.2588-.0723l-9.3633-5.6684L184.1963,35.63a.5.5,0,0,1-.3262-.9277l11.2647-6.4619a.5009.5009,0,0,1,.6543.1406l7.7714,10.74a.5.5,0,0,1-.4052.793Zm-9.5186-6.7627a.5.5,0,0,1,.2588.0723l7.4092,4.4853-6.0625-8.3774-8.5313,4.894,6.8487-1.0684A.5131.5131,0,0,1,193.6367,33.1517Z"/><polygon class="cls-4" points="193.637 33.652 188.224 43.868 188.224 43.868 200.449 42.121 203.155 39.415 193.637 33.652"/><path class="cls-3" d="M188.2236,44.3685a.5.5,0,0,1-.4414-.7344l5.4131-10.2163a.4994.4994,0,0,1,.7-.1938l9.5186,5.7626a.5.5,0,0,1,.0947.7813l-2.707,2.707a.5031.5031,0,0,1-.2832.1416l-12.2247,1.7471A.5714.5714,0,0,1,188.2236,44.3685Zm5.6075-10.0147-4.7061,8.8809,11.0879-1.585,2.1377-2.1377Z"/><polygon class="cls-5" points="165.869 34.175 165.869 34.175 165.869 34.175 170.148 47.361 174.339 48.059 169.274 4.137 162.376 23.609 162.376 23.609 165.869 34.175"/><path class="cls-3" d="M174.3394,48.5589a.4642.4642,0,0,1-.0821-.0068l-4.1909-.6983a.499.499,0,0,1-.3935-.3388L165.394,34.33l-3.4926-10.5635a.4967.4967,0,0,1,.0034-.3237L168.8032,3.97a.5.5,0,0,1,.9678.11l5.0649,43.9214a.5.5,0,0,1-.4965.5576ZM170.53,46.9173l3.2363.5391L169.0249,6.3387l-6.1206,17.2764,3.44,10.4038.001.0024Z"/><polygon class="cls-6" points="174.514 48.059 182.81 45.527 169.274 4.137 174.339 48.059 174.514 48.059"/><path class="cls-3" d="M174.5137,48.5589h-.1743a.5.5,0,0,1-.4966-.4424l-5.065-43.9223a.5.5,0,0,1,.9717-.2124l13.5357,41.3906a.5017.5017,0,0,1-.33.6338L174.66,48.5374A.5275.5275,0,0,1,174.5137,48.5589Zm-4.1753-39.56,4.435,38.458,7.4024-2.2587Z"/><polygon class="cls-5" points="188.224 43.868 188.224 43.868 169.274 4.137 182.81 45.527 188.224 43.868"/><path class="cls-3" d="M182.81,46.0277a.5.5,0,0,1-.4756-.3448L168.7993,4.2923a.5.5,0,0,1,.9263-.3706l18.9492,39.7319a.5.5,0,0,1-.3047.6934l-5.414,1.6592A.5091.5091,0,0,1,182.81,46.0277Zm-10.6534-34.687,10.9756,33.5649,4.3907-1.3457Z"/><polygon class="cls-7" points="162.376 23.609 162.376 23.609 154.867 44.654 165.869 34.175 162.376 23.609"/><path class="cls-3" d="M154.8667,45.1546a.5.5,0,0,1-.4707-.668l7.5093-21.0449a.5764.5764,0,0,1,.4765-.332.4994.4994,0,0,1,.4688.3433l3.4936,10.5659a.4994.4994,0,0,1-.13.519l-11.003,10.479A.5.5,0,0,1,154.8667,45.1546Zm7.4912-20.0068-6.314,17.6953,9.2515-8.811Z"/><polygon class="cls-8" points="154.867 44.654 176.348 66.135 170.148 47.361 154.867 44.654"/><path class="cls-3" d="M176.3486,66.6341a.4991.4991,0,0,1-.3535-.1465L154.5132,45.0081a.5.5,0,0,1-.09-.5849.5071.5071,0,0,1,.5308-.2608l15.2817,2.7061a.5008.5008,0,0,1,.3872.3349l6.2,18.7735a.4994.4994,0,0,1-.4746.6572Zm-20.0053-21.21,18.8706,18.8682-5.4468-16.4912Z"/><polygon class="cls-9" points="182.81 45.527 182.81 45.527 176.348 66.135 188.224 43.868 182.81 45.527"/><path class="cls-3" d="M176.3486,66.6341a.5008.5008,0,0,1-.4775-.6494l6.4609-20.6065a.5049.5049,0,0,1,.3311-.3291l5.414-1.6591a.5.5,0,0,1,.5879.7138L176.79,66.37A.5014.5014,0,0,1,176.3486,66.6341ZM183.208,45.929l-4.7793,15.2432,8.7842-16.4707Z"/><polygon class="cls-10" points="165.869 34.175 154.867 44.654 170.148 47.361 165.869 34.175"/><path class="cls-3" d="M170.1484,47.8607a.5427.5427,0,0,1-.0874-.0078l-15.2817-2.7061a.5.5,0,0,1-.2573-.8545l11.0029-10.479a.5.5,0,0,1,.82.208l4.2788,13.1851a.5.5,0,0,1-.4756.6543Zm-14.2207-3.5264L169.416,46.723l-3.7768-11.6377Z"/><polygon class="cls-11" points="170.148 47.361 176.348 66.135 174.339 48.059 170.148 47.361"/><path class="cls-3" d="M176.3486,66.6341a.5.5,0,0,1-.4746-.3428l-6.2-18.7734a.5.5,0,0,1,.0948-.4824.49.49,0,0,1,.4619-.168l4.1909.6982a.5011.5011,0,0,1,.415.4375l2.0093,18.0752a.5.5,0,0,1-.3906.544A.4949.4949,0,0,1,176.3486,66.6341ZM170.8828,47.99l4.44,13.4453L173.8843,48.49Z"/><polygon class="cls-12" points="182.81 45.527 174.514 48.059 174.339 48.059 176.348 66.135 182.81 45.527"/><path class="cls-3" d="M176.3486,66.6341c-.0156,0-.0322-.001-.0478-.0019a.5019.5019,0,0,1-.4492-.4424l-2.0093-18.0752a.5009.5009,0,0,1,.4971-.5557h.1l8.2251-2.51a.5005.5005,0,0,1,.623.628l-6.4609,20.6064A.5014.5014,0,0,1,176.3486,66.6341Zm-1.4609-18.167,1.6953,15.249,5.4658-17.4336Z"/><polygon class="cls-13" points="184.119 35.136 188.224 43.868 193.637 33.652 184.119 35.136"/><path class="cls-3" d="M188.2236,44.3685h-.0117a.5008.5008,0,0,1-.44-.2871L183.667,35.349a.5.5,0,0,1,.375-.7071l9.5176-1.4844a.5.5,0,0,1,.5185.7281L188.665,44.1029A.5.5,0,0,1,188.2236,44.3685Zm-3.3681-8.8413L188.25,42.75,192.7275,34.3Z"/><path class="cls-3" d="M176.3486,66.6341a.499.499,0,0,1-.3535-.1465L154.5132,45.0081a.5.5,0,0,1-.1177-.5215L168.8032,3.97a.5012.5012,0,0,1,.4453-.3321.492.492,0,0,1,.4771.2842l18.9492,39.7319a.5.5,0,0,1-.01.45L176.79,66.37a.4985.4985,0,0,1-.3681.2587A.4528.4528,0,0,1,176.3486,66.6341ZM155.4438,44.5247l20.7808,20.7784,11.4395-21.4473L169.3418,5.44Z"/><path class="cls-3" d="M176.3467,66.6351a.5009.5009,0,0,1-.4961-.4434l-7.0723-61.998a.5.5,0,0,1,.9932-.1133l7.0732,61.998a.5.5,0,0,1-.44.5538C176.3848,66.6341,176.3662,66.6351,176.3467,66.6351Z"/><path class="cls-3" d="M174.5146,48.56a.4338.4338,0,0,1-.0859-.0078l-19.6475-3.4063a.5.5,0,1,1,.1709-.9843L174.6,47.5677a.5.5,0,0,1-.085.9922Z"/><path class="cls-3" d="M174.5142,48.56a.5.5,0,0,1-.146-.9785L188.0771,43.39a.5.5,0,0,1,.293.957l-13.71,4.1914A.5023.5023,0,0,1,174.5142,48.56Z"/><path class="cls-3" d="M154.8667,45.1536a.5.5,0,0,1-.3447-.8623l11.0024-10.478a.5.5,0,0,1,.6895.7246l-11.0025,10.478A.4993.4993,0,0,1,154.8667,45.1536Z"/><path class="cls-3" d="M176.3477,66.6351a.5.5,0,0,1-.4747-.3438L161.9014,23.7659a.5.5,0,0,1,.95-.3125l13.9707,42.5254a.4992.4992,0,0,1-.3184.6309A.4841.4841,0,0,1,176.3477,66.6351Z"/><path class="cls-3" d="M176.3486,66.6341a.493.493,0,0,1-.1494-.0225.501.501,0,0,1-.3281-.6269l6.4131-20.4541L168.7993,4.2923a.5.5,0,1,1,.95-.3105l13.5357,41.3906a.5069.5069,0,0,1,.0019.3047l-6.4609,20.6064A.501.501,0,0,1,176.3486,66.6341Z"/><path class="cls-3" d="M176.3486,66.6341a.5.5,0,0,1-.3525-.8545L202.5,39.3616l-7.2578-10.03L184.3682,35.57a.5.5,0,1,1-.4981-.8672l11.2647-6.4619a.5009.5009,0,0,1,.6543.1406l7.7714,10.74a.5.5,0,0,1-.0527.6475l-26.8066,26.72A.4975.4975,0,0,1,176.3486,66.6341Z"/><path class="cls-3" d="M203.1553,39.9144a.499.499,0,0,1-.2588-.0723l-9.3633-5.6684L184.1963,35.63a.5.5,0,0,1-.1543-.9883l9.5176-1.4844a.5045.5045,0,0,1,.3359.0665l9.5186,5.7626a.5.5,0,0,1-.2588.9278Z"/><path class="cls-3" d="M176.3477,66.6351a.5.5,0,0,1-.4415-.7354l17.2891-32.4829a.5.5,0,1,1,.8828.47L176.7891,66.37A.4989.4989,0,0,1,176.3477,66.6351Z"/><path class="cls-3" d="M188.2227,44.3685a.5.5,0,0,1-.0694-.9951l12.2246-1.7471a.51.51,0,0,1,.5655.4248.5006.5006,0,0,1-.4248.5654l-12.2247,1.7471A.5874.5874,0,0,1,188.2227,44.3685Z"/><path class="cls-3" d="M176.3486,66.6341a.5.5,0,0,1-.2334-.0576L142.67,48.9378a.5.5,0,0,1-.24-.6035L146.71,35.7606a.5.5,0,0,1,.5835-.3267l10.041,2.271a.5.5,0,1,1-.2207.9751l-9.6021-2.1714-3.9971,11.7437L176.582,65.6917a.5.5,0,0,1-.2334.9424Z"/><path class="cls-3" d="M142.9038,48.9954a.5.5,0,0,1-.3745-.831l7.4224-8.3819a.4961.4961,0,0,1,.24-.15l6.8979-1.9209a.5.5,0,1,1,.2686.9628l-6.7559,1.8819-7.3242,8.2705A.497.497,0,0,1,142.9038,48.9954Z"/><path class="cls-3" d="M176.3477,66.6351a.4984.4984,0,0,1-.3536-.1465L149.9727,40.4671a.5.5,0,0,1,.707-.707l26.0215,26.0215a.5.5,0,0,1-.3535.8535Z"/><path class="cls-3" d="M159.6694,57.8157a.5.5,0,0,1-.4673-.3222l-4.8027-12.6621a.5.5,0,1,1,.9346-.3555l4.8027,12.6621a.5.5,0,0,1-.29.6455A.5113.5113,0,0,1,159.6694,57.8157Z"/></g><path class="cls-3" d="M49.0405,50.515l2.9522-7.7275h1.4638l2.9278,7.7275H55.0405l-.7685-1.9922H51.1646L50.396,50.515Zm2.3282-3h2.6875l-1.3438-3.54Z"/><path class="cls-3" d="M62.96,50.515V47.6469L60.188,42.7875h1.3564l2.0635,3.7558,2.0645-3.7558h1.3564l-2.7725,4.8594V50.515Z"/><path class="cls-3" d="M68.1079,50.515V45.8236h-.8633l.1192-.9961h2.0527V50.515Zm-.1074-6.876v-1.08h1.4277v1.08Z"/><path class="cls-3" d="M73.82,50.6351a3.3348,3.3348,0,0,1-2.3037-.7314A2.8665,2.8665,0,0,1,70.7,47.66a3.1593,3.1593,0,0,1,.6963-2.16,2.6638,2.6638,0,0,1,2.1123-.792,2.59,2.59,0,0,1,1.95.6777,2.413,2.413,0,0,1,.6533,1.7461v1.0557h-4.164a1.4436,1.4436,0,0,0,.6,1.1406,2.98,2.98,0,0,0,1.5362.3115,4.8459,4.8459,0,0,0,.8877-.0839,4.3237,4.3237,0,0,0,.792-.2159v.96a3.7271,3.7271,0,0,1-.8819.252A6.4357,6.4357,0,0,1,73.82,50.6351Zm-1.872-3.3H74.96v-.3965a1.2562,1.2562,0,0,0-.3242-.9179,1.4924,1.4924,0,0,0-1.0918-.33,1.6051,1.6051,0,0,0-1.2539.3965A1.88,1.88,0,0,0,71.9478,47.3353Z"/><path class="cls-3" d="M78.7993,50.6351a1.4788,1.4788,0,0,1-1.0556-.3418,1.512,1.512,0,0,1-.36-1.1338V42.4271h1.3086v6.6123a.6511.6511,0,0,0,.1191.4561.4894.4894,0,0,0,.36.12,2.0869,2.0869,0,0,0,.5517-.0723v.9483a2.135,2.135,0,0,1-.4375.1133A3.4122,3.4122,0,0,1,78.7993,50.6351Z"/><path class="cls-3" d="M83.0962,50.6351a3.2845,3.2845,0,0,1-1.3565-.2636,1.8961,1.8961,0,0,1-.9121-.876,3.5343,3.5343,0,0,1-.3242-1.6445,3.8433,3.8433,0,0,1,.3487-1.7217,2.4485,2.4485,0,0,1,.9658-1.0625,2.7316,2.7316,0,0,1,1.3974-.3594,3.2143,3.2143,0,0,1,.919.12,2.8151,2.8151,0,0,1,.7734.3721V42.4271h1.3076V50.515H85.1l-.084-.5635a2.59,2.59,0,0,1-.84.5157A3.1255,3.1255,0,0,1,83.0962,50.6351Zm.3476-.9834a1.9651,1.9651,0,0,0,1.4639-.6V46.2074a2.0458,2.0458,0,0,0-1.416-.5039,1.47,1.47,0,0,0-1.248.5518,2.6209,2.6209,0,0,0-.42,1.6084,1.9572,1.9572,0,0,0,.39,1.4033A1.6957,1.6957,0,0,0,83.4438,49.6517Z"/><path class="cls-3" d="M90.4878,50.515V42.7875h1.3437L94.28,47.7914l2.4365-5.0039H98.06V50.515H96.7642V44.9115L94.6763,49.183h-.792l-2.1006-4.2715V50.515Z"/><path class="cls-3" d="M101.3481,50.6351a2.6,2.6,0,0,1-1.0019-.1914,1.6616,1.6616,0,0,1-.7383-.582,1.6285,1.6285,0,0,1-.2764-.9668,1.6758,1.6758,0,0,1,.5586-1.3135,2.528,2.528,0,0,1,1.7217-.498h1.8242v-.252a1.4053,1.4053,0,0,0-.1259-.6484.7492.7492,0,0,0-.4561-.3477,3.2744,3.2744,0,0,0-.9658-.1084,5.7667,5.7667,0,0,0-1.8838.3008v-.9726a4.66,4.66,0,0,1,.9355-.252,6.9877,6.9877,0,0,1,1.1875-.0957,3.072,3.072,0,0,1,1.9024.5039,1.9445,1.9445,0,0,1,.6543,1.6436v3.66h-1.1162l-.084-.5762a2.3246,2.3246,0,0,1-.8584.5166A3.8759,3.8759,0,0,1,101.3481,50.6351Zm.3477-.9355a2.476,2.476,0,0,0,1.0264-.1983,1.9348,1.9348,0,0,0,.7138-.5341v-.9961h-1.8a1.265,1.265,0,0,0-.834.2226.8432.8432,0,0,0-.2587.6778.6966.6966,0,0,0,.3007.6357A1.5782,1.5782,0,0,0,101.6958,49.7Z"/><path class="cls-3" d="M105.44,50.515l2.1719-2.8916-2.0879-2.7959h1.4033L108.32,46.723l1.3916-1.8955h1.4043L109.04,47.6234l2.16,2.8916h-1.416l-1.4639-1.98-1.4638,1.98Z"/><path class="cls-3" d="M112.4829,50.515V45.8236H111.62l.1192-.9961h2.0527V50.515Zm-.1074-6.876v-1.08h1.4277v1.08Z"/><path class="cls-3" d="M115.3149,50.515V44.8275h1.2l.06.6a3.4486,3.4486,0,0,1,.9248-.5283,3.0273,3.0273,0,0,1,1.0791-.1914,1.9048,1.9048,0,0,1,.9541.1982,1.3155,1.3155,0,0,1,.5225.5459,3.5072,3.5072,0,0,1,.9121-.5341,3.2772,3.2772,0,0,1,1.2353-.21,1.8922,1.8922,0,0,1,1.4522.5039,2.2083,2.2083,0,0,1,.4687,1.5479V50.515h-1.2841V46.891a1.2518,1.2518,0,0,0-.2764-.9238,1.2751,1.2751,0,0,0-.9-.2637,2.1,2.1,0,0,0-.7734.1435,1.6772,1.6772,0,0,0-.63.4327,1.562,1.562,0,0,1,.0478.2754c.0078.0966.0117.2.0117.3125V50.515h-1.2119V46.9037a1.5333,1.5333,0,0,0-.2158-.9121.966.966,0,0,0-.8164-.2881,1.6879,1.6879,0,0,0-.7978.1982,3.1766,3.1766,0,0,0-.6778.4737v4.14Z"/><path class="cls-3" d="M126.1753,50.515V45.8236h-.8633l.1192-.9961h2.0527V50.515Zm-.1074-6.876v-1.08h1.4277v1.08Z"/><path class="cls-3" d="M128.7671,50.515v-.6836l3.1084-3.9365h-2.9639V44.8275h4.5723v.8037l-3.0488,3.876h3.1328V50.515Z"/><path class="cls-3" d="M137.4907,50.6351a3.3348,3.3348,0,0,1-2.3037-.7314,2.8665,2.8665,0,0,1-.8164-2.2442,3.1593,3.1593,0,0,1,.6963-2.16,2.6638,2.6638,0,0,1,2.1123-.792,2.59,2.59,0,0,1,1.95.6777,2.413,2.413,0,0,1,.6533,1.7461v1.0557h-4.164a1.4436,1.4436,0,0,0,.6005,1.1406,2.98,2.98,0,0,0,1.5362.3115,4.8459,4.8459,0,0,0,.8877-.0839,4.3259,4.3259,0,0,0,.792-.2159v.96a3.7271,3.7271,0,0,1-.8819.252A6.4357,6.4357,0,0,1,137.4907,50.6351Zm-1.872-3.3h3.0126v-.3965a1.2566,1.2566,0,0,0-.3242-.9179,1.4924,1.4924,0,0,0-1.0918-.33,1.6051,1.6051,0,0,0-1.2539.3965A1.88,1.88,0,0,0,135.6187,47.3353Z"/><path class="cls-3" d="M141.0552,50.515V44.8275h1.2l.0722.66a5.2021,5.2021,0,0,1,.9717-.48,5.3945,5.3945,0,0,1,1.1162-.3v.9961a6.8961,6.8961,0,0,0-.7265.1738q-.39.1143-.7373.252a3.9036,3.9036,0,0,0-.5879.2822V50.515Z"/><path class="cls-3" d="M149.6948,50.515l-1.8-7.7275h1.2832l1.3086,5.7959,1.4639-4.86v-.9355h1.0683l1.6436,5.7959,1.332-5.7959h1.2725L155.479,50.515h-1.2842l-1.5478-5.4121-1.6446,5.4121Z"/><path class="cls-3" d="M158.5981,50.515V45.8236h-.8632l.1191-.9961h2.0527V50.515Zm-.1074-6.876v-1.08h1.4278v1.08Z"/><path class="cls-3" d="M163.6021,50.6351a1.767,1.767,0,0,1-1.3614-.4863,1.8693,1.8693,0,0,1-.45-1.3252V45.847h-.84v-1.02h.84V43.5189l1.2959-.3955v1.7041h1.5117l-.0839,1.02h-1.4278v2.9043a.8783.8783,0,0,0,.2276.69,1.1237,1.1237,0,0,0,.7441.1982,2.1673,2.1673,0,0,0,.6846-.12v.9248A3.03,3.03,0,0,1,163.6021,50.6351Z"/><path class="cls-3" d="M165.7388,50.515V42.4271h1.3086v2.9522a3.0331,3.0331,0,0,1,.8877-.4864,3.4133,3.4133,0,0,1,1.164-.1855,1.8435,1.8435,0,0,1,2.1113,2.124V50.515h-1.2958V46.891a1.2349,1.2349,0,0,0-.2813-.9238,1.4281,1.4281,0,0,0-.9785-.2637,2.2536,2.2536,0,0,0-.876.1855,2.141,2.141,0,0,0-.7314.4864v4.14Z"/><path class="cls-3" d="M177.2109,50.6351a2.6,2.6,0,0,1-1.0019-.1914,1.6616,1.6616,0,0,1-.7383-.582,1.6285,1.6285,0,0,1-.2764-.9668,1.6758,1.6758,0,0,1,.5586-1.3135,2.528,2.528,0,0,1,1.7217-.498h1.8242v-.252a1.4053,1.4053,0,0,0-.1259-.6484.7492.7492,0,0,0-.4561-.3477,3.2744,3.2744,0,0,0-.9658-.1084,5.7667,5.7667,0,0,0-1.8838.3008v-.9726a4.6582,4.6582,0,0,1,.9355-.252,6.9877,6.9877,0,0,1,1.1875-.0957,3.072,3.072,0,0,1,1.9024.5039,1.9445,1.9445,0,0,1,.6543,1.6436v3.66h-1.1162l-.084-.5762a2.3246,2.3246,0,0,1-.8584.5166A3.8759,3.8759,0,0,1,177.2109,50.6351Zm.3477-.9355a2.476,2.476,0,0,0,1.0264-.1983,1.9348,1.9348,0,0,0,.7138-.5341v-.9961h-1.8a1.265,1.265,0,0,0-.834.2226.8432.8432,0,0,0-.2588.6778.6967.6967,0,0,0,.3008.6357A1.578,1.578,0,0,0,177.5586,49.7Z"/><path class="cls-3" d="M225.21,50.515V42.7875h1.3086v6.72h3.96V50.515Z"/><path class="cls-3" d="M237.8945,50.6351a3.7645,3.7645,0,0,1-2.8857-1.0439,3.958,3.958,0,0,1-.9785-2.82,5.3053,5.3053,0,0,1,.414-2.1895,3.0505,3.0505,0,0,1,1.2666-1.416,4.2559,4.2559,0,0,1,2.1719-.498,6.6923,6.6923,0,0,1,2.2676.372v1.14a5.4826,5.4826,0,0,0-1.0254-.294,6.2993,6.2993,0,0,0-1.1465-.1015,2.4223,2.4223,0,0,0-2.0342.7676,3.5733,3.5733,0,0,0-.5937,2.22,2.9313,2.9313,0,0,0,.6484,2.0586,2.6023,2.6023,0,0,0,2.0039.7021,6.906,6.906,0,0,0,1.1094-.0908,5.1057,5.1057,0,0,0,1.0508-.2813v1.1514a6.3965,6.3965,0,0,1-1.0381.24A8.355,8.355,0,0,1,237.8945,50.6351Z"/><path class="cls-3" d="M242.8506,50.6351a1.4792,1.4792,0,0,1-1.0557-.3418,1.5124,1.5124,0,0,1-.36-1.1338V42.4271h1.3086v6.6123a.6506.6506,0,0,0,.1191.4561.4894.4894,0,0,0,.36.12,2.088,2.088,0,0,0,.5517-.0723v.9483a2.1366,2.1366,0,0,1-.4375.1133A3.4122,3.4122,0,0,1,242.8506,50.6351Z"/><path class="cls-3" d="M247.6738,50.6351a3.3348,3.3348,0,0,1-2.3037-.7314,2.8665,2.8665,0,0,1-.8164-2.2442,3.1593,3.1593,0,0,1,.6963-2.16,2.6638,2.6638,0,0,1,2.1123-.792,2.59,2.59,0,0,1,1.95.6777,2.413,2.413,0,0,1,.6533,1.7461v1.0557h-4.164a1.4436,1.4436,0,0,0,.6005,1.1406,2.98,2.98,0,0,0,1.5362.3115,4.8459,4.8459,0,0,0,.8877-.0839,4.3237,4.3237,0,0,0,.792-.2159v.96a3.7271,3.7271,0,0,1-.8819.252A6.4357,6.4357,0,0,1,247.6738,50.6351Zm-1.872-3.3h3.0127v-.3965a1.2562,1.2562,0,0,0-.3243-.9179,1.4924,1.4924,0,0,0-1.0918-.33,1.6051,1.6051,0,0,0-1.2539.3965A1.88,1.88,0,0,0,245.8018,47.3353Z"/><path class="cls-3" d="M253.0146,50.6351a2.6,2.6,0,0,1-1.0019-.1914,1.6616,1.6616,0,0,1-.7383-.582,1.6285,1.6285,0,0,1-.2764-.9668,1.6758,1.6758,0,0,1,.5586-1.3135,2.5282,2.5282,0,0,1,1.7217-.498h1.8242v-.252a1.4053,1.4053,0,0,0-.1259-.6484.7492.7492,0,0,0-.4561-.3477,3.2744,3.2744,0,0,0-.9658-.1084,5.7667,5.7667,0,0,0-1.8838.3008v-.9726a4.66,4.66,0,0,1,.9355-.252,6.9877,6.9877,0,0,1,1.1875-.0957,3.072,3.072,0,0,1,1.9024.5039,1.9445,1.9445,0,0,1,.6543,1.6436v3.66h-1.1162l-.084-.5762a2.3246,2.3246,0,0,1-.8584.5166A3.8759,3.8759,0,0,1,253.0146,50.6351Zm.3477-.9355a2.476,2.476,0,0,0,1.0264-.1983,1.9348,1.9348,0,0,0,.7138-.5341v-.9961h-1.8a1.2645,1.2645,0,0,0-.8339.2226.8429.8429,0,0,0-.2588.6778.6966.6966,0,0,0,.3007.6357A1.5782,1.5782,0,0,0,253.3623,49.7Z"/><path class="cls-3" d="M257.8018,50.515V44.8275h1.2l.0722.66a5.2021,5.2021,0,0,1,.9717-.48,5.3929,5.3929,0,0,1,1.1162-.3v.9961a6.9035,6.9035,0,0,0-.7266.1738q-.39.1143-.7373.252a3.9067,3.9067,0,0,0-.5878.2822V50.515Z"/><path class="cls-3" d="M264.87,50.515V42.7875h5.2559v1.02h-3.9473v2.34h3.5039v1.0087h-3.5039V50.515Z"/><path class="cls-3" d="M272.7891,50.6351a2.0779,2.0779,0,0,1-1.5655-.5634,2.2907,2.2907,0,0,1-.5459-1.6563V44.8275h1.3077v3.5879a1.2408,1.2408,0,0,0,.3125.9356,1.3387,1.3387,0,0,0,.96.3007,2.1767,2.1767,0,0,0,.8877-.1806,2.3123,2.3123,0,0,0,.708-.48V44.8275h1.2959V50.515h-1.1875l-.06-.5879a3.5225,3.5225,0,0,1-.9121.5039A3.3137,3.3137,0,0,1,272.7891,50.6351Z"/><path class="cls-3" d="M279.8457,50.6351a1.7669,1.7669,0,0,1-1.3613-.4863,1.8693,1.8693,0,0,1-.45-1.3252V45.847h-.84v-1.02h.84V43.5189l1.2959-.3955v1.7041h1.5117l-.084,1.02H279.33v2.9043a.8783.8783,0,0,0,.2275.69,1.124,1.124,0,0,0,.7442.1982,2.1662,2.1662,0,0,0,.6845-.12v.9248A3.03,3.03,0,0,1,279.8457,50.6351Z"/><path class="cls-3" d="M284.0332,50.6351a2.0777,2.0777,0,0,1-1.5654-.5634,2.29,2.29,0,0,1-.5459-1.6563V44.8275H283.23v3.5879a1.2408,1.2408,0,0,0,.3125.9356,1.3388,1.3388,0,0,0,.96.3007,2.1759,2.1759,0,0,0,.8876-.1806,2.3128,2.3128,0,0,0,.7081-.48V44.8275h1.2959V50.515h-1.1875l-.0606-.5879a3.5225,3.5225,0,0,1-.9121.5039A3.3137,3.3137,0,0,1,284.0332,50.6351Z"/><path class="cls-3" d="M288.917,50.515V44.8275h1.2l.0723.66a5.201,5.201,0,0,1,.9716-.48,5.3945,5.3945,0,0,1,1.1162-.3v.9961a6.8961,6.8961,0,0,0-.7265.1738q-.39.1143-.7373.252a3.913,3.913,0,0,0-.5879.2822V50.515Z"/><path class="cls-3" d="M295.8652,50.6351a3.3348,3.3348,0,0,1-2.3037-.7314,2.8665,2.8665,0,0,1-.8164-2.2442,3.1593,3.1593,0,0,1,.6963-2.16,2.6638,2.6638,0,0,1,2.1123-.792,2.59,2.59,0,0,1,1.95.6777,2.4125,2.4125,0,0,1,.6533,1.7461v1.0557h-4.164a1.4434,1.4434,0,0,0,.6006,1.1406,2.98,2.98,0,0,0,1.5361.3115,4.8459,4.8459,0,0,0,.8877-.0839,4.3237,4.3237,0,0,0,.792-.2159v.96a3.7271,3.7271,0,0,1-.8819.252A6.4357,6.4357,0,0,1,295.8652,50.6351Zm-1.872-3.3h3.0127v-.3965a1.2562,1.2562,0,0,0-.3243-.9179,1.4924,1.4924,0,0,0-1.0918-.33,1.6051,1.6051,0,0,0-1.2539.3965A1.88,1.88,0,0,0,293.9932,47.3353Z"/><path class="cls-14" d="M189.5713,49.7709a1.9277,1.9277,0,0,0,.5752-1.4395,2.2631,2.2631,0,0,0-.1973-.9658,1.88,1.88,0,0,0-.6963-.7568,4.8246,4.8246,0,0,0-1.3984-.5694V43.6635a5.7983,5.7983,0,0,1,1.8242.3476V42.8588a6.7374,6.7374,0,0,0-.7793-.1856,7.4111,7.4111,0,0,0-1.0449-.1142v-.9239h-.9834v.9483a2.9388,2.9388,0,0,0-1.7578.6777,1.9078,1.9078,0,0,0-.5947,1.458,1.8441,1.8441,0,0,0,.5039,1.374,3.922,3.922,0,0,0,1.7529.8223.213.213,0,0,0,.0957.0234v2.4727a6.3276,6.3276,0,0,1-1.1279-.126,6.4045,6.4045,0,0,1-1.0567-.3066v1.1523a4.1574,4.1574,0,0,0,.9727.27,9.57,9.57,0,0,0,1.2119.1142v.9121h.9834v-.96A2.8538,2.8538,0,0,0,189.5713,49.7709Zm-1.7168-2.544a1.86,1.86,0,0,1,.75.4385.9551.9551,0,0,1,.2226.666.94.94,0,0,1-.24.7022,1.3581,1.3581,0,0,1-.7324.3174Zm-.9834-1.4638a2.1,2.1,0,0,1-.8106-.4141.9944.9944,0,0,1,.0489-1.3076,1.54,1.54,0,0,1,.7617-.3184Z"/><path class="cls-15" d="M189.5713,49.7709a1.9277,1.9277,0,0,0,.5752-1.4395,2.2631,2.2631,0,0,0-.1973-.9658,1.88,1.88,0,0,0-.6963-.7568,4.8246,4.8246,0,0,0-1.3984-.5694V43.6635a5.7983,5.7983,0,0,1,1.8242.3476V42.8588a6.7374,6.7374,0,0,0-.7793-.1856,7.4111,7.4111,0,0,0-1.0449-.1142v-.9239h-.9834v.9483a2.9388,2.9388,0,0,0-1.7578.6777,1.9078,1.9078,0,0,0-.5947,1.458,1.8441,1.8441,0,0,0,.5039,1.374,3.922,3.922,0,0,0,1.7529.8223.213.213,0,0,0,.0957.0234v2.4727a6.3276,6.3276,0,0,1-1.1279-.126,6.4045,6.4045,0,0,1-1.0567-.3066v1.1523a4.1574,4.1574,0,0,0,.9727.27,9.57,9.57,0,0,0,1.2119.1142v.9121h.9834v-.96A2.8538,2.8538,0,0,0,189.5713,49.7709Zm-1.7168-2.544a1.86,1.86,0,0,1,.75.4385.9551.9551,0,0,1,.2226.666.94.94,0,0,1-.24.7022,1.3581,1.3581,0,0,1-.7324.3174Zm-.9834-1.4638a2.1,2.1,0,0,1-.8106-.4141.9944.9944,0,0,1,.0489-1.3076,1.54,1.54,0,0,1,.7617-.3184Z"/><path class="cls-14" d="M195.15,49.4115a2.6021,2.6021,0,0,1-2.0039-.7021,2.9313,2.9313,0,0,1-.6485-2.0586,3.5738,3.5738,0,0,1,.5938-2.22,2.4224,2.4224,0,0,1,2.0342-.7675,6.29,6.29,0,0,1,1.1465.1015,5.4794,5.4794,0,0,1,1.0254.294v-1.14a6.6955,6.6955,0,0,0-2.2676-.3721,4.2559,4.2559,0,0,0-2.1719.4981,3.05,3.05,0,0,0-1.2666,1.416,5.3053,5.3053,0,0,0-.4141,2.1895,3.9584,3.9584,0,0,0,.9785,2.82,3.7647,3.7647,0,0,0,2.8858,1.0439,8.3416,8.3416,0,0,0,1.2305-.084,6.3874,6.3874,0,0,0,1.038-.24V49.0394a5.1065,5.1065,0,0,1-1.0507.2813A6.906,6.906,0,0,1,195.15,49.4115Z"/><path class="cls-16" d="M195.15,49.4115a2.6021,2.6021,0,0,1-2.0039-.7021,2.9313,2.9313,0,0,1-.6485-2.0586,3.5738,3.5738,0,0,1,.5938-2.22,2.4224,2.4224,0,0,1,2.0342-.7675,6.29,6.29,0,0,1,1.1465.1015,5.4794,5.4794,0,0,1,1.0254.294v-1.14a6.6955,6.6955,0,0,0-2.2676-.3721,4.2559,4.2559,0,0,0-2.1719.4981,3.05,3.05,0,0,0-1.2666,1.416,5.3053,5.3053,0,0,0-.4141,2.1895,3.9584,3.9584,0,0,0,.9785,2.82,3.7647,3.7647,0,0,0,2.8858,1.0439,8.3416,8.3416,0,0,0,1.2305-.084,6.3874,6.3874,0,0,0,1.038-.24V49.0394a5.1065,5.1065,0,0,1-1.0507.2813A6.906,6.906,0,0,1,195.15,49.4115Z"/><path class="cls-14" d="M204.6182,45.139a2.6151,2.6151,0,0,0-.5938-1.8056,2.4132,2.4132,0,0,0-1.8906-.666H198.582v7.7275h1.3086V47.66h1.4512a1.1339,1.1339,0,0,1,.6309.1319,1.0138,1.0138,0,0,1,.3173.4433l.9483,2.16h1.3437l-.9716-2.2441a2.6826,2.6826,0,0,0-.24-.4795,1.337,1.337,0,0,0-.3359-.336,2.1286,2.1286,0,0,0,1.1758-.8037A2.3465,2.3465,0,0,0,204.6182,45.139Zm-1.7159,1.1163a1.664,1.664,0,0,1-1.1162.3476h-1.8955v-2.916h2.0156a1.2632,1.2632,0,0,1,1.4043,1.4521A1.394,1.394,0,0,1,202.9023,46.2553Z"/><path class="cls-17" d="M204.6182,45.139a2.6151,2.6151,0,0,0-.5938-1.8056,2.4132,2.4132,0,0,0-1.8906-.666H198.582v7.7275h1.3086V47.66h1.4512a1.1339,1.1339,0,0,1,.6309.1319,1.0138,1.0138,0,0,1,.3173.4433l.9483,2.16h1.3437l-.9716-2.2441a2.6826,2.6826,0,0,0-.24-.4795,1.337,1.337,0,0,0-.3359-.336,2.1286,2.1286,0,0,0,1.1758-.8037A2.3465,2.3465,0,0,0,204.6182,45.139Zm-1.7159,1.1163a1.664,1.664,0,0,1-1.1162.3476h-1.8955v-2.916h2.0156a1.2632,1.2632,0,0,1,1.4043,1.4521A1.394,1.394,0,0,1,202.9023,46.2553Z"/><polygon class="cls-14" points="208.302 46.423 206.238 42.667 204.882 42.667 207.654 47.527 207.654 50.395 208.95 50.395 208.95 47.527 211.723 42.667 210.366 42.667 208.302 46.423"/><polygon class="cls-18" points="208.302 46.423 206.238 42.667 204.882 42.667 207.654 47.527 207.654 50.395 208.95 50.395 208.95 47.527 211.723 42.667 210.366 42.667 208.302 46.423"/><path class="cls-14" d="M216.66,46.5736a5.1772,5.1772,0,0,0-1.47-.57q-.7325-.1919-1.1465-.3486a1.3054,1.3054,0,0,1-.582-.3711.8927.8927,0,0,1-.168-.5645.8351.8351,0,0,1,.4805-.8281,3.209,3.209,0,0,1,1.3438-.2275,5.6244,5.6244,0,0,1,2.0156.3476V42.8588a5.633,5.633,0,0,0-.93-.2159,8.0161,8.0161,0,0,0-1.2656-.0957,3.5924,3.5924,0,0,0-2.2207.5762,1.9049,1.9049,0,0,0-.7442,1.5957,1.8445,1.8445,0,0,0,.5039,1.374,3.923,3.923,0,0,0,1.753.8223,10.1214,10.1214,0,0,1,1.2236.3662,1.4974,1.4974,0,0,1,.6357.4131.99.99,0,0,1,.1924.6367.8566.8566,0,0,1-.4619.8633,3.41,3.41,0,0,1-1.3867.2168,5.951,5.951,0,0,1-1.1816-.12,7.4241,7.4241,0,0,1-1.11-.3125v1.1523a6.3163,6.3163,0,0,0,2.4121.3838,3.7279,3.7279,0,0,0,2.292-.582,1.91,1.91,0,0,0,.7559-1.6016,2.2538,2.2538,0,0,0-.21-.99A1.8994,1.8994,0,0,0,216.66,46.5736Z"/><path class="cls-19" d="M216.66,46.5736a5.1772,5.1772,0,0,0-1.47-.57q-.7325-.1919-1.1465-.3486a1.3054,1.3054,0,0,1-.582-.3711.8927.8927,0,0,1-.168-.5645.8351.8351,0,0,1,.4805-.8281,3.209,3.209,0,0,1,1.3438-.2275,5.6244,5.6244,0,0,1,2.0156.3476V42.8588a5.633,5.633,0,0,0-.93-.2159,8.0161,8.0161,0,0,0-1.2656-.0957,3.5924,3.5924,0,0,0-2.2207.5762,1.9049,1.9049,0,0,0-.7442,1.5957,1.8445,1.8445,0,0,0,.5039,1.374,3.923,3.923,0,0,0,1.753.8223,10.1214,10.1214,0,0,1,1.2236.3662,1.4974,1.4974,0,0,1,.6357.4131.99.99,0,0,1,.1924.6367.8566.8566,0,0,1-.4619.8633,3.41,3.41,0,0,1-1.3867.2168,5.951,5.951,0,0,1-1.1816-.12,7.4241,7.4241,0,0,1-1.11-.3125v1.1523a6.3163,6.3163,0,0,0,2.4121.3838,3.7279,3.7279,0,0,0,2.292-.582,1.91,1.91,0,0,0,.7559-1.6016,2.2538,2.2538,0,0,0-.21-.99A1.8994,1.8994,0,0,0,216.66,46.5736Z"/><polygon class="cls-14" points="217.927 43.687 220.398 43.687 220.398 50.395 221.707 50.395 221.707 43.687 224.167 43.687 224.167 42.667 217.927 42.667 217.927 43.687"/><polygon class="cls-20" points="217.927 43.687 220.398 43.687 220.398 50.395 221.707 50.395 221.707 43.687 224.167 43.687 224.167 42.667 217.927 42.667 217.927 43.687"/><polygon class="cls-14" points="226.519 42.667 225.21 42.667 225.21 50.395 230.479 50.395 230.479 49.387 226.519 49.387 226.519 42.667"/><polygon class="cls-21" points="226.519 42.667 225.21 42.667 225.21 50.395 230.479 50.395 230.479 49.387 226.519 49.387 226.519 42.667"/><path d="M61.7688,33.7865c-.7788,0-1.1967-.228-1.1967-.7788V26.0355c0-.5317.4179-.7788,1.1967-.7788H72.8064V22.8441H61.7688c-3.1152,0-4.2929,1.3111-4.2929,3.2295v6.9151c0,1.9184,1.1777,3.2294,4.2929,3.2294H72.8064V33.7865Z"/><path class="cls-22" d="M61.7688,33.7865c-.7788,0-1.1967-.228-1.1967-.7788V26.0355c0-.5317.4179-.7788,1.1967-.7788H72.8064V22.8441H61.7688c-3.1152,0-4.2929,1.3111-4.2929,3.2295v6.9151c0,1.9184,1.1777,3.2294,4.2929,3.2294H72.8064V33.7865Z"/><path d="M91.4265,27.0424v-.9688c0-1.9184-1.1972-3.2295-4.3125-3.2295H75.4876v13.374h3.0967V30.2719h6.3828L87.95,36.2181h3.3242l-3.0015-5.9838C90.6663,29.911,91.4265,28.6381,91.4265,27.0424Zm-4.3125.8169h-8.53V25.2567h8.53c.7789,0,1.1968.2471,1.1968.7788v1.0259C88.3108,27.7074,87.9309,27.8593,87.114,27.8593Z"/><path class="cls-23" d="M91.4265,27.0424v-.9688c0-1.9184-1.1972-3.2295-4.3125-3.2295H75.4876v13.374h3.0967V30.2719h6.3828L87.95,36.2181h3.3242l-3.0015-5.9838C90.6663,29.911,91.4265,28.6381,91.4265,27.0424Zm-4.3125.8169h-8.53V25.2567h8.53c.7789,0,1.1968.2471,1.1968.7788v1.0259C88.3108,27.7074,87.9309,27.8593,87.114,27.8593Z"/><polygon points="112.212 22.844 108.298 22.844 102.181 28.676 96.045 22.844 92.094 22.844 100.642 30.918 100.642 36.218 103.739 36.218 103.739 30.918 112.212 22.844"/><polygon class="cls-24" points="112.212 22.844 108.298 22.844 102.181 28.676 96.045 22.844 92.094 22.844 100.642 30.918 100.642 36.218 103.739 36.218 103.739 30.918 112.212 22.844"/><path d="M129.5213,32.9506V31.0887c0-1.9375-1.1968-3.2485-4.3311-3.2485h-7.998c-.8741,0-1.2349-.2466-1.2349-.8169v-.95c0-.6079.418-.8169,1.2349-.8169h11.5693V22.8441H117.1922c-3.1343,0-4.3311,1.3111-4.3311,3.2486v.9116c0,1.938,1.1968,3.2485,4.3311,3.2485h7.998c.8545,0,1.2158.209,1.2158.8169v1.919c0,.6459-.3422.7978-1.2158.7978H113.2976v2.4316H125.19C128.3245,36.2181,129.5213,34.8886,129.5213,32.9506Z"/><path class="cls-25" d="M129.5213,32.9506V31.0887c0-1.9375-1.1968-3.2485-4.3311-3.2485h-7.998c-.8741,0-1.2349-.2466-1.2349-.8169v-.95c0-.6079.418-.8169,1.2349-.8169h11.5693V22.8441H117.1922c-3.1343,0-4.3311,1.3111-4.3311,3.2486v.9116c0,1.938,1.1968,3.2485,4.3311,3.2485h7.998c.8545,0,1.2158.209,1.2158.8169v1.919c0,.6459-.3422.7978-1.2158.7978H113.2976v2.4316H125.19C128.3245,36.2181,129.5213,34.8886,129.5213,32.9506Z"/><polygon points="147.647 25.257 147.647 22.844 130.892 22.844 130.892 25.257 137.788 25.257 137.788 36.218 140.904 36.218 140.904 25.257 147.647 25.257"/><polygon class="cls-26" points="147.647 25.257 147.647 22.844 130.892 22.844 130.892 25.257 137.788 25.257 137.788 36.218 140.904 36.218 140.904 25.257 147.647 25.257"/><polygon points="153.007 33.787 153.007 22.844 149.872 22.844 149.872 36.218 163.589 36.218 163.589 33.787 153.007 33.787"/><polygon class="cls-27" points="153.007 33.787 153.007 22.844 149.872 22.844 149.872 36.218 163.589 36.218 163.589 33.787 153.007 33.787"/><rect x="165.7947" y="33.7484" width="3.6475" height="2.4697"/><rect class="cls-28" x="165.7947" y="33.7484" width="3.6475" height="2.4697"/><polygon points="185.818 30.918 185.818 28.505 175.598 28.505 175.598 25.257 186.597 25.257 186.597 22.844 172.501 22.844 172.501 36.218 175.598 36.218 175.598 30.918 185.818 30.918"/><polygon class="cls-29" points="185.818 30.918 185.818 28.505 175.598 28.505 175.598 25.257 186.597 25.257 186.597 22.844 172.501 22.844 172.501 36.218 175.598 36.218 175.598 30.918 185.818 30.918"/><rect x="188.5945" y="22.8441" width="3.0962" height="13.374"/><rect class="cls-30" x="188.5945" y="22.8441" width="3.0962" height="13.374"/><polygon points="210.233 22.844 210.233 32.001 197.486 22.844 194.807 22.844 194.807 36.218 197.505 36.218 197.505 26.473 211.429 36.218 212.949 36.218 212.949 22.844 210.233 22.844"/><polygon class="cls-31" points="210.233 22.844 210.233 32.001 197.486 22.844 194.807 22.844 194.807 36.218 197.505 36.218 197.505 26.473 211.429 36.218 212.949 36.218 212.949 22.844 210.233 22.844"/><polygon points="223.629 22.844 214.719 36.218 218.177 36.218 224.788 26.036 231.266 36.218 234.761 36.218 225.908 22.844 223.629 22.844"/><polygon class="cls-32" points="223.629 22.844 214.719 36.218 218.177 36.218 224.788 26.036 231.266 36.218 234.761 36.218 225.908 22.844 223.629 22.844"/><polygon points="251.975 22.844 251.975 32.001 239.228 22.844 236.55 22.844 236.55 36.218 239.247 36.218 239.247 26.473 253.172 36.218 254.692 36.218 254.692 22.844 251.975 22.844"/><polygon class="cls-33" points="251.975 22.844 251.975 32.001 239.228 22.844 236.55 22.844 236.55 36.218 239.247 36.218 239.247 26.473 253.172 36.218 254.692 36.218 254.692 22.844 251.975 22.844"/><path d="M261.8948,33.7865c-.7788,0-1.1968-.228-1.1968-.7788V26.0355c0-.5317.418-.7788,1.1968-.7788h11.0376V22.8441H261.8948c-3.1152,0-4.293,1.3111-4.293,3.2295v6.9151c0,1.9184,1.1778,3.2294,4.293,3.2294h11.0376V33.7865Z"/><path class="cls-34" d="M261.8948,33.7865c-.7788,0-1.1968-.228-1.1968-.7788V26.0355c0-.5317.418-.7788,1.1968-.7788h11.0376V22.8441H261.8948c-3.1152,0-4.293,1.3111-4.293,3.2295v6.9151c0,1.9184,1.1778,3.2294,4.293,3.2294h11.0376V33.7865Z"/><polygon points="278.71 33.787 278.71 30.367 289.121 30.367 289.121 27.935 278.71 27.935 278.71 25.257 289.71 25.257 289.71 22.844 275.614 22.844 275.614 36.218 289.71 36.218 289.71 33.787 278.71 33.787"/><polygon class="cls-35" points="278.71 33.787 278.71 30.367 289.121 30.367 289.121 27.935 278.71 27.935 278.71 25.257 289.71 25.257 289.71 22.844 275.614 22.844 275.614 36.218 289.71 36.218 289.71 33.787 278.71 33.787"/></svg>