<svg id="Layer_2" data-name="Layer 2" xmlns="http://www.w3.org/2000/svg" xmlns:xlink="http://www.w3.org/1999/xlink" viewBox="0 0 214.6051 32.1003"><defs><style>.cls-1{fill:#fff;}.cls-2{fill:url(#Crystl.Finance);}.cls-3{fill:url(#Crystl.Finance-2);}.cls-4{fill:url(#Crystl.Finance-3);}.cls-5{fill:url(#Crystl.Finance-4);}.cls-6{fill:url(#Crystl.Finance-5);}.cls-7{fill:url(#Crystl.Finance-6);}.cls-8{fill:url(#Crystl.Finance-7);}.cls-9{fill:url(#Crystl.Finance-8);}.cls-10{fill:url(#Crystl.Finance-9);}.cls-11{fill:url(#Crystl.Finance-10);}.cls-12{fill:url(#Crystl.Finance-11);}.cls-13{fill:url(#Crystl.Finance-12);}.cls-14{fill:url(#Crystl.Finance-13);}.cls-15{fill:#da9ded;}.cls-16{fill:url(#Crystl.Finance-14);}.cls-17{fill:url(#Crystl.Finance-15);}.cls-18{fill:url(#Crystl.Finance-16);}.cls-19{fill:url(#Crystl.Finance-17);}.cls-20{fill:url(#Crystl.Finance-18);}.cls-21{fill:url(#Crystl.Finance-19);}.cls-22{fill:url(#Crystl.Finance-20);}</style><linearGradient id="Crystl.Finance" x1="7.743" y1="0.5759" x2="7.743" y2="14.0853" gradientUnits="userSpaceOnUse"><stop offset="0" stop-color="#fff"/><stop offset="0.2977" stop-color="#fffdff"/><stop offset="0.4431" stop-color="#fdf5fe"/><stop offset="0.5551" stop-color="#fae8fc"/><stop offset="0.65" stop-color="#f6d6fa"/><stop offset="0.6653" stop-color="#f5d2fa"/><stop offset="0.7403" stop-color="#f1d2fa"/><stop offset="0.8222" stop-color="#e3d2f9"/><stop offset="0.9074" stop-color="#ced3f7"/><stop offset="0.9943" stop-color="#afd4f5"/><stop offset="1" stop-color="#add4f5"/></linearGradient><linearGradient id="Crystl.Finance-2" x1="25.5797" y1="0.5759" x2="25.5797" y2="14.0853" xlink:href="#Crystl.Finance"/><linearGradient id="Crystl.Finance-3" x1="43.8" y1="0.5759" x2="43.8" y2="14.0853" xlink:href="#Crystl.Finance"/><linearGradient id="Crystl.Finance-4" x1="62.3668" y1="0.5759" x2="62.3668" y2="14.0853" xlink:href="#Crystl.Finance"/><linearGradient id="Crystl.Finance-5" x1="79.9633" y1="0.5759" x2="79.9633" y2="14.0853" xlink:href="#Crystl.Finance"/><linearGradient id="Crystl.Finance-6" x1="96.9367" y1="0.5759" x2="96.9367" y2="14.0853" xlink:href="#Crystl.Finance"/><linearGradient id="Crystl.Finance-7" x1="107.2699" y1="0.5759" x2="107.2699" y2="14.0853" xlink:href="#Crystl.Finance"/><linearGradient id="Crystl.Finance-8" x1="114.5164" y1="0.5759" x2="114.5164" y2="14.0853" xlink:href="#Crystl.Finance"/><linearGradient id="Crystl.Finance-9" x1="128.0023" y1="0.5759" x2="128.0023" y2="14.0853" xlink:href="#Crystl.Finance"/><linearGradient id="Crystl.Finance-10" x1="149.0813" y1="0.5759" x2="149.0813" y2="14.0853" xlink:href="#Crystl.Finance"/><linearGradient id="Crystl.Finance-11" x1="170.4914" y1="0.5759" x2="170.4914" y2="14.0853" xlink:href="#Crystl.Finance"/><linearGradient id="Crystl.Finance-12" x1="186.5805" y1="0.5759" x2="186.5805" y2="14.0853" xlink:href="#Crystl.Finance"/><linearGradient id="Crystl.Finance-13" x1="202.9477" y1="0.5759" x2="202.9477" y2="14.0853" xlink:href="#Crystl.Finance"/><linearGradient id="Crystl.Finance-14" x1="105.0287" y1="21.3247" x2="105.0287" y2="31.1167" xlink:href="#Crystl.Finance"/><linearGradient id="Crystl.Finance-15" x1="111.9403" y1="21.3247" x2="111.9403" y2="31.1167" xlink:href="#Crystl.Finance"/><linearGradient id="Crystl.Finance-16" x1="119.2963" y1="21.3247" x2="119.2963" y2="31.1167" xlink:href="#Crystl.Finance"/><linearGradient id="Crystl.Finance-17" x1="125.9984" y1="21.3247" x2="125.9984" y2="31.1167" xlink:href="#Crystl.Finance"/><linearGradient id="Crystl.Finance-18" x1="132.4838" y1="21.3247" x2="132.4838" y2="31.1167" xlink:href="#Crystl.Finance"/><linearGradient id="Crystl.Finance-19" x1="138.7431" y1="21.3247" x2="138.7431" y2="31.1167" xlink:href="#Crystl.Finance"/><linearGradient id="Crystl.Finance-20" x1="145.5404" y1="21.3247" x2="145.5404" y2="31.1167" xlink:href="#Crystl.Finance"/></defs><path class="cls-1" d="M3.0956,30.2051A6.297,6.297,0,0,1,.6835,29.82V28.6689a7.4145,7.4145,0,0,0,1.11.3115,5.953,5.953,0,0,0,1.1817.12,3.4281,3.4281,0,0,0,1.3867-.2159.8581.8581,0,0,0,.4619-.8642.9887.9887,0,0,0-.1924-.6358,1.4981,1.4981,0,0,0-.6357-.414,10.1214,10.1214,0,0,0-1.2236-.3662,3.925,3.925,0,0,1-1.753-.8213,1.8448,1.8448,0,0,1-.5039-1.374A1.9055,1.9055,0,0,1,1.26,22.8125,3.5924,3.5924,0,0,1,3.48,22.2363a7.8843,7.8843,0,0,1,1.2656.0967,5.4363,5.4363,0,0,1,.93.2158v1.1523A5.6027,5.6027,0,0,0,3.66,23.3525a3.1926,3.1926,0,0,0-1.3438.2285.8344.8344,0,0,0-.48.8282.8893.8893,0,0,0,.168.5634,1.2968,1.2968,0,0,0,.582.3721q.4146.1568,1.1465.3477a5.2012,5.2012,0,0,1,1.47.57,1.9061,1.9061,0,0,1,.7314.7675,2.26,2.26,0,0,1,.21.99,1.9115,1.9115,0,0,1-.7559,1.6025A3.7346,3.7346,0,0,1,3.0956,30.2051Z"/><path class="cls-1" d="M9.4071,30.2051a1.767,1.767,0,0,1-1.3613-.4864,1.8718,1.8718,0,0,1-.45-1.3261V25.417h-.84V24.3965h.84V23.0888l1.2959-.3964v1.7041h1.5117l-.084,1.0205H8.8915V28.32a.881.881,0,0,0,.2275.69,1.1291,1.1291,0,0,0,.7442.1983,2.1675,2.1675,0,0,0,.6846-.12v.9239A3.0119,3.0119,0,0,1,9.4071,30.2051Z"/><path class="cls-1" d="M13.32,30.2051a2.584,2.584,0,0,1-1.0019-.1924,1.6625,1.6625,0,0,1-.7383-.5821,1.6253,1.6253,0,0,1-.2764-.9658,1.6773,1.6773,0,0,1,.5586-1.3144,2.5275,2.5275,0,0,1,1.7217-.4981h1.8242V26.4a1.4027,1.4027,0,0,0-.126-.6475.7461.7461,0,0,0-.456-.3486,3.3112,3.3112,0,0,0-.9658-.1075,5.7665,5.7665,0,0,0-1.8838.3V24.625a4.5331,4.5331,0,0,1,.9355-.252A6.8935,6.8935,0,0,1,14.1,24.2763a3.0722,3.0722,0,0,1,1.9024.5039,1.948,1.948,0,0,1,.6543,1.6446v3.66H15.54l-.0839-.5761a2.3383,2.3383,0,0,1-.8584.5156A3.8767,3.8767,0,0,1,13.32,30.2051Zm.3477-.9366a2.4612,2.4612,0,0,0,1.0263-.1982,1.9449,1.9449,0,0,0,.7139-.5332V27.541h-1.8a1.27,1.27,0,0,0-.834.2217.8442.8442,0,0,0-.2588.6777.6985.6985,0,0,0,.3008.6367A1.5777,1.5777,0,0,0,13.6679,29.2685Z"/><path class="cls-1" d="M18.1073,30.0849V21.997h1.3086v4.68l2.3877-2.28h1.5l-2.3164,2.292,2.4482,3.3964h-1.38l-1.8838-2.7-.7559.72v1.98Z"/><path class="cls-1" d="M26.6513,30.2051a3.33,3.33,0,0,1-2.3037-.7325,2.8661,2.8661,0,0,1-.8164-2.2441,3.16,3.16,0,0,1,.6962-2.16,2.6672,2.6672,0,0,1,2.1123-.792,2.59,2.59,0,0,1,1.95.6788,2.4122,2.4122,0,0,1,.6534,1.746v1.0557H24.7792a1.4433,1.4433,0,0,0,.6006,1.14,2.9784,2.9784,0,0,0,1.5361.3125,4.9355,4.9355,0,0,0,.8877-.084,4.4139,4.4139,0,0,0,.792-.2158v.96a3.8243,3.8243,0,0,1-.8818.252A6.4372,6.4372,0,0,1,26.6513,30.2051Zm-1.8721-3.3008h3.0127v-.3955a1.2553,1.2553,0,0,0-.3242-.918,1.4926,1.4926,0,0,0-1.0918-.33,1.6054,1.6054,0,0,0-1.2539.3955A1.8832,1.8832,0,0,0,24.7792,26.9043Z"/><path class="cls-1" d="M34.9794,30.0849v-6.708H32.5077v-1.02h6.24v1.02h-2.46v6.708Z"/><path class="cls-1" d="M41.3759,30.2051a2.9359,2.9359,0,0,1-2.25-.7686A3.1052,3.1052,0,0,1,38.411,27.24a3.0886,3.0886,0,0,1,.7207-2.1953,2.9429,2.9429,0,0,1,2.2442-.7686,2.9625,2.9625,0,0,1,2.2558.7686,3.0924,3.0924,0,0,1,.72,2.1953,3.11,3.11,0,0,1-.7139,2.1963A2.9559,2.9559,0,0,1,41.3759,30.2051Zm0-1.1045a1.6112,1.6112,0,0,0,1.2773-.4375,2.1633,2.1633,0,0,0,.378-1.4229,2.1319,2.1319,0,0,0-.378-1.415,2.0862,2.0862,0,0,0-2.5439,0,2.1319,2.1319,0,0,0-.378,1.415,2.1633,2.1633,0,0,0,.378,1.4229A1.5954,1.5954,0,0,0,41.3759,29.1006Z"/><path class="cls-1" d="M45.6229,30.0849V21.997h1.3086v4.68l2.3877-2.28h1.5l-2.3164,2.292,2.4483,3.3964h-1.38l-1.8838-2.7-.7559.72v1.98Z"/><path class="cls-1" d="M54.1669,30.2051a3.33,3.33,0,0,1-2.3037-.7325,2.8661,2.8661,0,0,1-.8164-2.2441,3.16,3.16,0,0,1,.6963-2.16,2.6669,2.6669,0,0,1,2.1123-.792,2.5907,2.5907,0,0,1,1.95.6788,2.4126,2.4126,0,0,1,.6533,1.746v1.0557H52.2948a1.4435,1.4435,0,0,0,.6006,1.14,2.9787,2.9787,0,0,0,1.5361.3125,4.9347,4.9347,0,0,0,.8877-.084,4.4139,4.4139,0,0,0,.792-.2158v.96a3.8229,3.8229,0,0,1-.8818.252A6.4354,6.4354,0,0,1,54.1669,30.2051Zm-1.8721-3.3008h3.0127v-.3955a1.2553,1.2553,0,0,0-.3242-.918,1.4926,1.4926,0,0,0-1.0918-.33,1.6054,1.6054,0,0,0-1.2539.3955A1.8832,1.8832,0,0,0,52.2948,26.9043Z"/><path class="cls-1" d="M57.7313,30.0849V24.3965h1.2l.06.6005a3.6726,3.6726,0,0,1,.918-.5107,3.2146,3.2146,0,0,1,1.1826-.21,2.1693,2.1693,0,0,1,1.6074.5166A2.2261,2.2261,0,0,1,63.203,26.4v3.6845H61.9071v-3.624a1.2687,1.2687,0,0,0-.27-.9238,1.4639,1.4639,0,0,0-1.0137-.2647,2.21,2.21,0,0,0-.87.1807,2.1835,2.1835,0,0,0-.7139.4678v4.164Z"/><path class="cls-1" d="M66.5634,30.2051a7.2575,7.2575,0,0,1-1.1221-.084,5.326,5.326,0,0,1-.8818-.2041V28.8125a4.6842,4.6842,0,0,0,.8994.24,5.5983,5.5983,0,0,0,.9365.084,2.7305,2.7305,0,0,0,.96-.12.4593.4593,0,0,0,.2881-.4678.4882.4882,0,0,0-.1748-.3965,1.7077,1.7077,0,0,0-.5157-.2637q-.3413-.12-.87-.288a5.5871,5.5871,0,0,1-.876-.3663,1.5231,1.5231,0,0,1-.5761-.51,1.4681,1.4681,0,0,1-.2041-.8154,1.4213,1.4213,0,0,1,.5644-1.2061,3.033,3.033,0,0,1,1.8115-.4268,5.8724,5.8724,0,0,1,.9366.0723,4.6481,4.6481,0,0,1,.7558.18v1.0928a3.8677,3.8677,0,0,0-.7383-.2041,4.2716,4.2716,0,0,0-.75-.0723,3.0893,3.0893,0,0,0-.9414.1084.422.422,0,0,0-.3183.4316.4823.4823,0,0,0,.33.4737q.33.1391,1.0615.3779a5.2423,5.2423,0,0,1,1.0683.4326,1.448,1.448,0,0,1,.57.5459,1.7139,1.7139,0,0,1,.1739.8223,1.4119,1.4119,0,0,1-.6123,1.2539A3.1722,3.1722,0,0,1,66.5634,30.2051Z"/><path class="cls-1" d="M69.995,31.5244l.36-2.2676h1.14l-.5517,2.2676Z"/><path class="cls-1" d="M75.5272,30.0849V22.3564h5.3877v1.02H76.8358v2.34h3.6358v1.0078H76.8358v2.3525h4.0791v1.0078Z"/><path class="cls-1" d="M83.663,30.2051a2.5845,2.5845,0,0,1-1.002-.1924,1.6616,1.6616,0,0,1-.7382-.5821,1.6253,1.6253,0,0,1-.2764-.9658A1.6773,1.6773,0,0,1,82.205,27.15a2.5275,2.5275,0,0,1,1.7217-.4981h1.8242V26.4a1.4027,1.4027,0,0,0-.126-.6475.7461.7461,0,0,0-.4561-.3486,3.31,3.31,0,0,0-.9658-.1075,5.7669,5.7669,0,0,0-1.8838.3V24.625a4.536,4.536,0,0,1,.9356-.252,6.8926,6.8926,0,0,1,1.1875-.0967,3.0717,3.0717,0,0,1,1.9023.5039,1.9477,1.9477,0,0,1,.6543,1.6446v3.66H85.8827l-.084-.5761a2.3367,2.3367,0,0,1-.8584.5156A3.8757,3.8757,0,0,1,83.663,30.2051Zm.3476-.9366A2.4617,2.4617,0,0,0,85.037,29.07a1.9449,1.9449,0,0,0,.7139-.5332V27.541h-1.8a1.27,1.27,0,0,0-.834.2217.8439.8439,0,0,0-.2588.6777.6985.6985,0,0,0,.3008.6367A1.5775,1.5775,0,0,0,84.0106,29.2685Z"/><path class="cls-1" d="M88.4511,30.0849V24.3965h1.2l.0722.66a5.2085,5.2085,0,0,1,.9717-.4795,5.3986,5.3986,0,0,1,1.1162-.3008v.9961a7.1561,7.1561,0,0,0-.7265.1739q-.39.1142-.7373.2519a4.107,4.107,0,0,0-.5879.2822v4.1045Z"/><path class="cls-1" d="M92.7587,30.0849V24.3965h1.2l.06.6005a3.6719,3.6719,0,0,1,.9179-.5107,3.215,3.215,0,0,1,1.1826-.21,2.17,2.17,0,0,1,1.6075.5166A2.2265,2.2265,0,0,1,98.23,26.4v3.6845H96.9345v-3.624a1.2687,1.2687,0,0,0-.27-.9238,1.4634,1.4634,0,0,0-1.0136-.2647,2.2092,2.2092,0,0,0-.87.1807,2.1835,2.1835,0,0,0-.7139.4678v4.164Z"/><path d="M4.3367,11.629c-.7867,0-1.2086-.23-1.2086-.7867V3.7993c0-.5367.4219-.7867,1.2086-.7867H15.4859V.5759H4.3367C1.19.5759,0,1.9,0,3.8384v6.9844c0,1.9383,1.19,3.2625,4.3367,3.2625H15.4859V11.629Z"/><path class="cls-2" d="M4.3367,11.629c-.7867,0-1.2086-.23-1.2086-.7867V3.7993c0-.5367.4219-.7867,1.2086-.7867H15.4859V.5759H4.3367C1.19.5759,0,1.9,0,3.8384v6.9844c0,1.9383,1.19,3.2625,4.3367,3.2625H15.4859V11.629Z"/><path d="M33.63,4.8165V3.8384C33.63,1.9,32.42.5759,29.2734.5759H17.53V14.0853h3.1281V8.079h6.4477l3.0125,6.0063h3.3578l-3.032-6.0445C32.8617,7.7142,33.63,6.429,33.63,4.8165Zm-4.3563.825H20.6578V3.0126h8.6156c.7868,0,1.2094.25,1.2094.7867V4.8361C30.4828,5.4884,30.0984,5.6415,29.2734,5.6415Z"/><path class="cls-3" d="M33.63,4.8165V3.8384C33.63,1.9,32.42.5759,29.2734.5759H17.53V14.0853h3.1281V8.079h6.4477l3.0125,6.0063h3.3578l-3.032-6.0445C32.8617,7.7142,33.63,6.429,33.63,4.8165Zm-4.3563.825H20.6578V3.0126h8.6156c.7868,0,1.2094.25,1.2094.7867V4.8361C30.4828,5.4884,30.0984,5.6415,29.2734,5.6415Z"/><polygon points="53.961 0.576 50.008 0.576 43.829 6.467 37.63 0.576 33.639 0.576 42.274 8.731 42.274 14.085 45.402 14.085 45.402 8.731 53.961 0.576"/><polygon class="cls-4" points="53.961 0.576 50.008 0.576 43.829 6.467 37.63 0.576 33.639 0.576 42.274 8.731 42.274 14.085 45.402 14.085 45.402 8.731 53.961 0.576"/><path d="M70.7812,10.7845V8.904c0-1.957-1.2085-3.2812-4.375-3.2812H58.3273c-.8828,0-1.2468-.2492-1.2468-.825V3.8384c0-.6141.4218-.8258,1.2468-.8258H70.0141V.5759H58.3273c-3.1664,0-4.375,1.3242-4.375,3.2813v.9211c0,1.9578,1.2086,3.2812,4.375,3.2812h8.0789c.8633,0,1.2282.2117,1.2282.8258v1.9375c0,.6531-.3453.8062-1.2282.8062H54.3938v2.4563H66.4062C69.5727,14.0853,70.7812,12.7423,70.7812,10.7845Z"/><path class="cls-5" d="M70.7812,10.7845V8.904c0-1.957-1.2085-3.2812-4.375-3.2812H58.3273c-.8828,0-1.2468-.2492-1.2468-.825V3.8384c0-.6141.4218-.8258,1.2468-.8258H70.0141V.5759H58.3273c-3.1664,0-4.375,1.3242-4.375,3.2813v.9211c0,1.9578,1.2086,3.2812,4.375,3.2812h8.0789c.8633,0,1.2282.2117,1.2282.8258v1.9375c0,.6531-.3453.8062-1.2282.8062H54.3938v2.4563H66.4062C69.5727,14.0853,70.7812,12.7423,70.7812,10.7845Z"/><polygon points="88.426 3.013 88.426 0.576 71.501 0.576 71.501 3.013 78.466 3.013 78.466 14.085 81.614 14.085 81.614 3.013 88.426 3.013"/><polygon class="cls-6" points="88.426 3.013 88.426 0.576 71.501 0.576 71.501 3.013 78.466 3.013 78.466 14.085 81.614 14.085 81.614 3.013 88.426 3.013"/><polygon points="93.176 11.629 93.176 0.576 90.009 0.576 90.009 14.085 103.864 14.085 103.864 11.629 93.176 11.629"/><polygon class="cls-7" points="93.176 11.629 93.176 0.576 90.009 0.576 90.009 14.085 103.864 14.085 103.864 11.629 93.176 11.629"/><rect x="105.4273" y="11.5908" width="3.6852" height="2.4945"/><rect class="cls-8" x="105.4273" y="11.5908" width="3.6852" height="2.4945"/><path d="M118.575,10.9767V.5759h-3.1469V10.9767c0,.6141-.3656.6523-1.1906.6523h-3.78v2.4563h3.78C117.3078,14.0853,118.575,12.8767,118.575,10.9767Z"/><path class="cls-9" d="M118.575,10.9767V.5759h-3.1469V10.9767c0,.6141-.3656.6523-1.1906.6523h-3.78v2.4563h3.78C117.3078,14.0853,118.575,12.8767,118.575,10.9767Z"/><polygon points="124.011 11.629 124.011 8.175 134.527 8.175 134.527 5.719 124.011 5.719 124.011 3.013 135.122 3.013 135.122 0.576 120.883 0.576 120.883 14.085 135.122 14.085 135.122 11.629 124.011 11.629"/><polygon class="cls-10" points="124.011 11.629 124.011 8.175 134.527 8.175 134.527 5.719 124.011 5.719 124.011 3.013 135.122 3.013 135.122 0.576 120.883 0.576 120.883 14.085 135.122 14.085 135.122 11.629 124.011 11.629"/><polygon points="159.214 0.576 154.723 10.228 150.252 0.576 147.911 0.576 143.363 10.228 138.93 0.576 135.917 0.576 142.192 14.085 144.477 14.085 149.1 4.433 153.572 14.085 155.933 14.085 162.245 0.576 159.214 0.576"/><polygon class="cls-11" points="159.214 0.576 154.723 10.228 150.252 0.576 147.911 0.576 143.363 10.228 138.93 0.576 135.917 0.576 142.192 14.085 144.477 14.085 149.1 4.433 153.572 14.085 155.933 14.085 162.245 0.576 159.214 0.576"/><polygon points="166.5 11.629 166.5 8.175 177.016 8.175 177.016 5.719 166.5 5.719 166.5 3.013 177.611 3.013 177.611 0.576 163.372 0.576 163.372 14.085 177.611 14.085 177.611 11.629 166.5 11.629"/><polygon class="cls-12" points="166.5 11.629 166.5 8.175 177.016 8.175 177.016 5.719 166.5 5.719 166.5 3.013 177.611 3.013 177.611 0.576 163.372 0.576 163.372 14.085 177.611 14.085 177.611 11.629 166.5 11.629"/><polygon points="182.82 11.629 182.82 0.576 179.653 0.576 179.653 14.085 193.508 14.085 193.508 11.629 182.82 11.629"/><polygon class="cls-13" points="182.82 11.629 182.82 0.576 179.653 0.576 179.653 14.085 193.508 14.085 193.508 11.629 182.82 11.629"/><path d="M211.3625,10.7845V8.904c0-1.957-1.2094-3.2812-4.375-3.2812h-8.0781c-.8828,0-1.2485-.2492-1.2485-.825V3.8384c0-.6141.4235-.8258,1.2485-.8258h11.6859V.5759H198.9094c-3.1672,0-4.3766,1.3242-4.3766,3.2813v.9211c0,1.9578,1.2094,3.2812,4.3766,3.2812h8.0781c.8641,0,1.2281.2117,1.2281.8258v1.9375c0,.6531-.3453.8062-1.2281.8062H194.975v2.4563h12.0125C210.1531,14.0853,211.3625,12.7423,211.3625,10.7845Z"/><path class="cls-14" d="M211.3625,10.7845V8.904c0-1.957-1.2094-3.2812-4.375-3.2812h-8.0781c-.8828,0-1.2485-.2492-1.2485-.825V3.8384c0-.6141.4235-.8258,1.2485-.8258h11.6859V.5759H198.9094c-3.1672,0-4.3766,1.3242-4.3766,3.2813v.9211c0,1.9578,1.2094,3.2812,4.3766,3.2812h8.0781c.8641,0,1.2281.2117,1.2281.8258v1.9375c0,.6531-.3453.8062-1.2281.8062H194.975v2.4563h12.0125C210.1531,14.0853,211.3625,12.7423,211.3625,10.7845Z"/><path class="cls-15" d="M107.2675,29.46a1.9275,1.9275,0,0,0,.5752-1.4394,2.2642,2.2642,0,0,0-.1973-.9658,1.88,1.88,0,0,0-.6963-.7569,4.8248,4.8248,0,0,0-1.3984-.5693V23.353a5.7983,5.7983,0,0,1,1.8242.3477V22.5483a6.7244,6.7244,0,0,0-.7793-.1855,7.3958,7.3958,0,0,0-1.0449-.1143v-.9238h-.9834v.9482a2.9388,2.9388,0,0,0-1.7578.6778,1.9077,1.9077,0,0,0-.5948,1.458,1.8442,1.8442,0,0,0,.504,1.374,3.9241,3.9241,0,0,0,1.7529.8223.213.213,0,0,0,.0957.0234V29.101a6.3366,6.3366,0,0,1-1.1279-.1259,6.4046,6.4046,0,0,1-1.0567-.3067v1.1524a4.1575,4.1575,0,0,0,.9727.27,9.5693,9.5693,0,0,0,1.2119.1143v.9121h.9834v-.96A2.8538,2.8538,0,0,0,107.2675,29.46Zm-1.7168-2.5439a1.8587,1.8587,0,0,1,.75.4385.9548.9548,0,0,1,.2226.666.94.94,0,0,1-.24.7021,1.3577,1.3577,0,0,1-.7324.3174Zm-.9834-1.4639a2.0975,2.0975,0,0,1-.8106-.4141.9944.9944,0,0,1,.0489-1.3076,1.54,1.54,0,0,1,.7617-.3183Z"/><path class="cls-16" d="M107.2675,29.46a1.9275,1.9275,0,0,0,.5752-1.4394,2.2642,2.2642,0,0,0-.1973-.9658,1.88,1.88,0,0,0-.6963-.7569,4.8248,4.8248,0,0,0-1.3984-.5693V23.353a5.7983,5.7983,0,0,1,1.8242.3477V22.5483a6.7244,6.7244,0,0,0-.7793-.1855,7.3958,7.3958,0,0,0-1.0449-.1143v-.9238h-.9834v.9482a2.9388,2.9388,0,0,0-1.7578.6778,1.9077,1.9077,0,0,0-.5948,1.458,1.8442,1.8442,0,0,0,.504,1.374,3.9241,3.9241,0,0,0,1.7529.8223.213.213,0,0,0,.0957.0234V29.101a6.3366,6.3366,0,0,1-1.1279-.1259,6.4046,6.4046,0,0,1-1.0567-.3067v1.1524a4.1575,4.1575,0,0,0,.9727.27,9.5693,9.5693,0,0,0,1.2119.1143v.9121h.9834v-.96A2.8538,2.8538,0,0,0,107.2675,29.46Zm-1.7168-2.5439a1.8587,1.8587,0,0,1,.75.4385.9548.9548,0,0,1,.2226.666.94.94,0,0,1-.24.7021,1.3577,1.3577,0,0,1-.7324.3174Zm-.9834-1.4639a2.0975,2.0975,0,0,1-.8106-.4141.9944.9944,0,0,1,.0489-1.3076,1.54,1.54,0,0,1,.7617-.3183Z"/><path class="cls-15" d="M112.8466,29.101a2.6018,2.6018,0,0,1-2.0039-.7021,2.9313,2.9313,0,0,1-.6485-2.0586,3.5733,3.5733,0,0,1,.5938-2.22,2.4225,2.4225,0,0,1,2.0342-.7676,6.29,6.29,0,0,1,1.1465.1016,5.4761,5.4761,0,0,1,1.0253.2939v-1.14a6.6943,6.6943,0,0,0-2.2675-.3721,4.2559,4.2559,0,0,0-2.1719.498,3.05,3.05,0,0,0-1.2666,1.4161,5.3051,5.3051,0,0,0-.4141,2.1894,3.9583,3.9583,0,0,0,.9785,2.82,3.7648,3.7648,0,0,0,2.8858,1.044,8.3553,8.3553,0,0,0,1.23-.084,6.3977,6.3977,0,0,0,1.038-.24V28.729a5.1064,5.1064,0,0,1-1.0507.2812A6.8945,6.8945,0,0,1,112.8466,29.101Z"/><path class="cls-17" d="M112.8466,29.101a2.6018,2.6018,0,0,1-2.0039-.7021,2.9313,2.9313,0,0,1-.6485-2.0586,3.5733,3.5733,0,0,1,.5938-2.22,2.4225,2.4225,0,0,1,2.0342-.7676,6.29,6.29,0,0,1,1.1465.1016,5.4761,5.4761,0,0,1,1.0253.2939v-1.14a6.6943,6.6943,0,0,0-2.2675-.3721,4.2559,4.2559,0,0,0-2.1719.498,3.05,3.05,0,0,0-1.2666,1.4161,5.3051,5.3051,0,0,0-.4141,2.1894,3.9583,3.9583,0,0,0,.9785,2.82,3.7648,3.7648,0,0,0,2.8858,1.044,8.3553,8.3553,0,0,0,1.23-.084,6.3977,6.3977,0,0,0,1.038-.24V28.729a5.1064,5.1064,0,0,1-1.0507.2812A6.8945,6.8945,0,0,1,112.8466,29.101Z"/><path class="cls-15" d="M122.3144,24.8286a2.6154,2.6154,0,0,0-.5938-1.8057,2.4135,2.4135,0,0,0-1.8906-.666h-3.5518v7.7275h1.3086V27.3491h1.4512a1.1336,1.1336,0,0,1,.6308.1318,1.0135,1.0135,0,0,1,.3174.4434l.9483,2.16h1.3437l-.9717-2.2441a2.68,2.68,0,0,0-.24-.4795,1.3367,1.3367,0,0,0-.3359-.3359,2.1291,2.1291,0,0,0,1.1758-.8037A2.347,2.347,0,0,0,122.3144,24.8286Zm-1.7159,1.1162a1.664,1.664,0,0,1-1.1162.3477h-1.8955V23.3764h2.0156a1.2632,1.2632,0,0,1,1.4043,1.4522A1.3937,1.3937,0,0,1,120.5985,25.9448Z"/><path class="cls-18" d="M122.3144,24.8286a2.6154,2.6154,0,0,0-.5938-1.8057,2.4135,2.4135,0,0,0-1.8906-.666h-3.5518v7.7275h1.3086V27.3491h1.4512a1.1336,1.1336,0,0,1,.6308.1318,1.0135,1.0135,0,0,1,.3174.4434l.9483,2.16h1.3437l-.9717-2.2441a2.68,2.68,0,0,0-.24-.4795,1.3367,1.3367,0,0,0-.3359-.3359,2.1291,2.1291,0,0,0,1.1758-.8037A2.347,2.347,0,0,0,122.3144,24.8286Zm-1.7159,1.1162a1.664,1.664,0,0,1-1.1162.3477h-1.8955V23.3764h2.0156a1.2632,1.2632,0,0,1,1.4043,1.4522A1.3937,1.3937,0,0,1,120.5985,25.9448Z"/><polygon class="cls-15" points="125.998 26.113 123.934 22.357 122.578 22.357 125.35 27.216 125.35 30.084 126.646 30.084 126.646 27.216 129.419 22.357 128.062 22.357 125.998 26.113"/><polygon class="cls-19" points="125.998 26.113 123.934 22.357 122.578 22.357 125.35 27.216 125.35 30.084 126.646 30.084 126.646 27.216 129.419 22.357 128.062 22.357 125.998 26.113"/><path class="cls-15" d="M134.3563,26.2632a5.175,5.175,0,0,0-1.47-.57q-.7324-.1918-1.1465-.3486a1.3046,1.3046,0,0,1-.582-.3711.8922.8922,0,0,1-.168-.5644.8353.8353,0,0,1,.48-.8282,3.21,3.21,0,0,1,1.3438-.2275,5.6222,5.6222,0,0,1,2.0156.3477V22.5483a5.6267,5.6267,0,0,0-.93-.2158,8.0042,8.0042,0,0,0-1.2656-.0957,3.5924,3.5924,0,0,0-2.2207.5762,1.9049,1.9049,0,0,0-.7442,1.5957,1.8445,1.8445,0,0,0,.5039,1.374,3.9246,3.9246,0,0,0,1.753.8223,10.1214,10.1214,0,0,1,1.2236.3662,1.4965,1.4965,0,0,1,.6357.4131.9892.9892,0,0,1,.1924.6367.8568.8568,0,0,1-.4619.8633,3.41,3.41,0,0,1-1.3867.2167,5.9528,5.9528,0,0,1-1.1817-.12,7.4024,7.4024,0,0,1-1.11-.3125v1.1524a6.3182,6.3182,0,0,0,2.4121.3838,3.7279,3.7279,0,0,0,2.292-.5821,1.91,1.91,0,0,0,.7559-1.6015,2.2539,2.2539,0,0,0-.21-.99A1.9,1.9,0,0,0,134.3563,26.2632Z"/><path class="cls-20" d="M134.3563,26.2632a5.175,5.175,0,0,0-1.47-.57q-.7324-.1918-1.1465-.3486a1.3046,1.3046,0,0,1-.582-.3711.8922.8922,0,0,1-.168-.5644.8353.8353,0,0,1,.48-.8282,3.21,3.21,0,0,1,1.3438-.2275,5.6222,5.6222,0,0,1,2.0156.3477V22.5483a5.6267,5.6267,0,0,0-.93-.2158,8.0042,8.0042,0,0,0-1.2656-.0957,3.5924,3.5924,0,0,0-2.2207.5762,1.9049,1.9049,0,0,0-.7442,1.5957,1.8445,1.8445,0,0,0,.5039,1.374,3.9246,3.9246,0,0,0,1.753.8223,10.1214,10.1214,0,0,1,1.2236.3662,1.4965,1.4965,0,0,1,.6357.4131.9892.9892,0,0,1,.1924.6367.8568.8568,0,0,1-.4619.8633,3.41,3.41,0,0,1-1.3867.2167,5.9528,5.9528,0,0,1-1.1817-.12,7.4024,7.4024,0,0,1-1.11-.3125v1.1524a6.3182,6.3182,0,0,0,2.4121.3838,3.7279,3.7279,0,0,0,2.292-.5821,1.91,1.91,0,0,0,.7559-1.6015,2.2539,2.2539,0,0,0-.21-.99A1.9,1.9,0,0,0,134.3563,26.2632Z"/><polygon class="cls-15" points="135.623 23.376 138.095 23.376 138.095 30.084 139.403 30.084 139.403 23.376 141.863 23.376 141.863 22.357 135.623 22.357 135.623 23.376"/><polygon class="cls-21" points="135.623 23.376 138.095 23.376 138.095 30.084 139.403 30.084 139.403 23.376 141.863 23.376 141.863 22.357 135.623 22.357 135.623 23.376"/><polygon class="cls-15" points="144.215 22.357 142.906 22.357 142.906 30.084 148.175 30.084 148.175 29.077 144.215 29.077 144.215 22.357"/><polygon class="cls-22" points="144.215 22.357 142.906 22.357 142.906 30.084 148.175 30.084 148.175 29.077 144.215 29.077 144.215 22.357"/></svg>