<svg id="Layer_2" data-name="Layer 2" xmlns="http://www.w3.org/2000/svg" xmlns:xlink="http://www.w3.org/1999/xlink" viewBox="0 0 238.2583 32.1003"><defs><style>.cls-1{fill:#fff;}.cls-2{fill:url(#Crystl.Finance);}.cls-3{fill:url(#Crystl.Finance-2);}.cls-4{fill:url(#Crystl.Finance-3);}.cls-5{fill:url(#Crystl.Finance-4);}.cls-6{fill:url(#Crystl.Finance-5);}.cls-7{fill:url(#Crystl.Finance-6);}.cls-8{fill:url(#Crystl.Finance-7);}.cls-9{fill:url(#Crystl.Finance-8);}.cls-10{fill:url(#Crystl.Finance-9);}.cls-11{fill:url(#Crystl.Finance-10);}.cls-12{fill:url(#Crystl.Finance-11);}.cls-13{fill:url(#Crystl.Finance-12);}.cls-14{fill:url(#Crystl.Finance-13);}.cls-15{fill:url(#Crystl.Finance-14);}.cls-16{fill:url(#Crystl.Finance-15);}.cls-17{fill:url(#Crystl.Finance-16);}</style><linearGradient id="Crystl.Finance" x1="8.0887" x2="8.0887" y2="13.5095" gradientUnits="userSpaceOnUse"><stop offset="0" stop-color="#fff"/><stop offset="0.2977" stop-color="#fffdff"/><stop offset="0.4431" stop-color="#fdf5fe"/><stop offset="0.5551" stop-color="#fae8fc"/><stop offset="0.65" stop-color="#f6d6fa"/><stop offset="0.6653" stop-color="#f5d2fa"/><stop offset="0.7403" stop-color="#f1d2fa"/><stop offset="0.8222" stop-color="#e3d2f9"/><stop offset="0.9074" stop-color="#ced3f7"/><stop offset="0.9943" stop-color="#afd4f5"/><stop offset="1" stop-color="#add4f5"/></linearGradient><linearGradient id="Crystl.Finance-2" x1="25.7396" y1="0" x2="25.7396" y2="13.5095" xlink:href="#Crystl.Finance"/><linearGradient id="Crystl.Finance-3" x1="43.7701" y1="0" x2="43.7701" y2="13.5095" xlink:href="#Crystl.Finance"/><linearGradient id="Crystl.Finance-4" x1="62.1437" y1="0" x2="62.1437" y2="13.5095" xlink:href="#Crystl.Finance"/><linearGradient id="Crystl.Finance-5" x1="79.557" y1="0" x2="79.557" y2="13.5095" xlink:href="#Crystl.Finance"/><linearGradient id="Crystl.Finance-6" x1="96.3532" y1="0" x2="96.3532" y2="13.5095" xlink:href="#Crystl.Finance"/><linearGradient id="Crystl.Finance-7" x1="106.5763" y1="0" x2="106.5763" y2="13.5095" xlink:href="#Crystl.Finance"/><linearGradient id="Crystl.Finance-8" x1="116.882" y1="0" x2="116.882" y2="13.5095" xlink:href="#Crystl.Finance"/><linearGradient id="Crystl.Finance-9" x1="132.9943" y1="0" x2="132.9943" y2="13.5095" xlink:href="#Crystl.Finance"/><linearGradient id="Crystl.Finance-10" x1="151.9945" y1="0" x2="151.9945" y2="13.5095" xlink:href="#Crystl.Finance"/><linearGradient id="Crystl.Finance-11" x1="169.6935" y1="0" x2="169.6935" y2="13.5095" xlink:href="#Crystl.Finance"/><linearGradient id="Crystl.Finance-12" x1="181.5109" y1="0" x2="181.5109" y2="13.5095" xlink:href="#Crystl.Finance"/><linearGradient id="Crystl.Finance-13" x1="198.9811" y1="0" x2="198.9811" y2="13.5095" xlink:href="#Crystl.Finance"/><linearGradient id="Crystl.Finance-14" x1="210.5441" y1="0" x2="210.5441" y2="13.5095" xlink:href="#Crystl.Finance"/><linearGradient id="Crystl.Finance-15" x1="220.8497" y1="0" x2="220.8497" y2="13.5095" xlink:href="#Crystl.Finance"/><linearGradient id="Crystl.Finance-16" x1="234.3888" y1="0" x2="234.3888" y2="13.5095" xlink:href="#Crystl.Finance"/></defs><path class="cls-1" d="M.96,29.5085,3.9122,21.781H5.3761l2.9277,7.7275H6.96l-.7686-1.9922H3.0841l-.7685,1.9922Zm2.3281-3H5.9757l-1.3437-3.54Z"/><path class="cls-1" d="M11.22,29.6286a2.0779,2.0779,0,0,1-1.5655-.5634,2.29,2.29,0,0,1-.5459-1.6563V23.821h1.3076v3.5879a1.2412,1.2412,0,0,0,.3125.9356,1.3391,1.3391,0,0,0,.96.3007,2.1767,2.1767,0,0,0,.8877-.1806,2.3123,2.3123,0,0,0,.708-.48V23.821H14.58v5.6875H13.3927l-.06-.5879a3.5215,3.5215,0,0,1-.9122.5039A3.3128,3.3128,0,0,1,11.22,29.6286Z"/><path class="cls-1" d="M18.2755,29.6286a1.7669,1.7669,0,0,1-1.3613-.4863,1.8693,1.8693,0,0,1-.45-1.3252V24.8406h-.84v-1.02h.84V22.5124l1.2959-.3955V23.821h1.5117l-.084,1.02H17.76v2.9043a.8785.8785,0,0,0,.2275.6894,1.124,1.124,0,0,0,.7442.1982,2.1662,2.1662,0,0,0,.6845-.12v.9248A3.03,3.03,0,0,1,18.2755,29.6286Z"/><path class="cls-1" d="M23.1359,29.6286a2.9394,2.9394,0,0,1-2.25-.7675,3.1055,3.1055,0,0,1-.7149-2.1963,3.0913,3.0913,0,0,1,.7207-2.1963,2.9427,2.9427,0,0,1,2.2442-.7676,2.9623,2.9623,0,0,1,2.2558.7676,3.0951,3.0951,0,0,1,.72,2.1963,3.11,3.11,0,0,1-.7139,2.1963A2.9594,2.9594,0,0,1,23.1359,29.6286Zm0-1.1035a1.6114,1.6114,0,0,0,1.2773-.4385,2.16,2.16,0,0,0,.3779-1.4218,2.1348,2.1348,0,0,0-.3779-1.416,1.624,1.624,0,0,0-1.2773-.4317,1.608,1.608,0,0,0-1.2666.4317,2.1348,2.1348,0,0,0-.378,1.416,2.16,2.16,0,0,0,.378,1.4218A1.5957,1.5957,0,0,0,23.1359,28.5251Z"/><path class="cls-1" d="M27.3829,29.5085V23.821h1.2l.06.6a3.4486,3.4486,0,0,1,.9248-.5283,3.0273,3.0273,0,0,1,1.0791-.1914,1.9048,1.9048,0,0,1,.9541.1982,1.3155,1.3155,0,0,1,.5225.5459,3.5072,3.5072,0,0,1,.9121-.5341,3.2772,3.2772,0,0,1,1.2353-.21,1.8922,1.8922,0,0,1,1.4522.5039,2.2083,2.2083,0,0,1,.4687,1.5479v3.7558H34.9074v-3.624a1.252,1.252,0,0,0-.2764-.9238,1.2751,1.2751,0,0,0-.9-.2637,2.1,2.1,0,0,0-.7734.1436,1.6758,1.6758,0,0,0-.63.4326,1.562,1.562,0,0,1,.0478.2754c.0078.0966.0117.2.0117.3125v3.6474H31.1749V25.8972a1.5333,1.5333,0,0,0-.2158-.9121.966.966,0,0,0-.8164-.2881,1.6879,1.6879,0,0,0-.7978.1982,3.1766,3.1766,0,0,0-.6778.4737v4.14Z"/><path class="cls-1" d="M39.2521,29.6286a2.6,2.6,0,0,1-1.002-.1914,1.6616,1.6616,0,0,1-.7383-.582,1.6291,1.6291,0,0,1-.2763-.9668,1.6755,1.6755,0,0,1,.5586-1.3135,2.5278,2.5278,0,0,1,1.7217-.498H41.34v-.252a1.4039,1.4039,0,0,0-.126-.6484.7489.7489,0,0,0-.4561-.3477,3.2744,3.2744,0,0,0-.9658-.1084,5.7667,5.7667,0,0,0-1.8838.3008v-.9726a4.6593,4.6593,0,0,1,.9356-.252,6.986,6.986,0,0,1,1.1875-.0957,3.0717,3.0717,0,0,1,1.9023.5039,1.9445,1.9445,0,0,1,.6543,1.6436v3.66H41.4718l-.084-.5761a2.3273,2.3273,0,0,1-.8584.5166A3.8782,3.8782,0,0,1,39.2521,29.6286Zm.3476-.9355a2.4776,2.4776,0,0,0,1.0264-.1982,1.9373,1.9373,0,0,0,.7139-.5342v-.9961h-1.8a1.2648,1.2648,0,0,0-.834.2226.8429.8429,0,0,0-.2588.6778.6967.6967,0,0,0,.3008.6357A1.5779,1.5779,0,0,0,39.6,28.6931Z"/><path class="cls-1" d="M46.2111,29.6286a1.767,1.767,0,0,1-1.3614-.4863,1.87,1.87,0,0,1-.45-1.3252V24.8406h-.84v-1.02h.84V22.5124l1.2959-.3955V23.821h1.5118l-.084,1.02H45.6954v2.9043a.8782.8782,0,0,0,.2276.6894,1.1237,1.1237,0,0,0,.7441.1982,2.1668,2.1668,0,0,0,.6846-.12v.9248A3.03,3.03,0,0,1,46.2111,29.6286Z"/><path class="cls-1" d="M51.2267,29.6286a3.3347,3.3347,0,0,1-2.3037-.7314,2.8661,2.8661,0,0,1-.8164-2.2441,3.1594,3.1594,0,0,1,.6963-2.16,2.6635,2.6635,0,0,1,2.1123-.792,2.5907,2.5907,0,0,1,1.95.6777,2.413,2.413,0,0,1,.6533,1.7461V27.18H49.3546a1.4439,1.4439,0,0,0,.6006,1.1406,2.98,2.98,0,0,0,1.5361.3115,4.8459,4.8459,0,0,0,.8877-.0839,4.3237,4.3237,0,0,0,.792-.2159v.96a3.7262,3.7262,0,0,1-.8818.252A6.4357,6.4357,0,0,1,51.2267,29.6286Zm-1.8721-3.3h3.0127v-.3964a1.2567,1.2567,0,0,0-.3242-.918,1.4926,1.4926,0,0,0-1.0918-.33,1.605,1.605,0,0,0-1.2539.3965A1.8794,1.8794,0,0,0,49.3546,26.3288Z"/><path class="cls-1" d="M57.1437,29.6286a3.2845,3.2845,0,0,1-1.3565-.2636,1.8957,1.8957,0,0,1-.9121-.876,3.5343,3.5343,0,0,1-.3242-1.6445A3.8449,3.8449,0,0,1,54.9,25.1228a2.4494,2.4494,0,0,1,.9659-1.0625,2.7316,2.7316,0,0,1,1.3974-.3594,3.2148,3.2148,0,0,1,.919.12,2.8164,2.8164,0,0,1,.7734.3721V21.4206h1.3076v8.0879H59.1476l-.084-.5635a2.59,2.59,0,0,1-.84.5157A3.1255,3.1255,0,0,1,57.1437,29.6286Zm.3476-.9834a1.9651,1.9651,0,0,0,1.4639-.6005V25.2009a2.046,2.046,0,0,0-1.416-.5039,1.47,1.47,0,0,0-1.2481.5518,2.6218,2.6218,0,0,0-.42,1.6084,1.9572,1.9572,0,0,0,.39,1.4033A1.6957,1.6957,0,0,0,57.4913,28.6452Z"/><path class="cls-1" d="M64.5353,29.5085V21.781H69.923v1.02H65.8439v2.34H69.48v1.0087H65.8439v2.3516H69.923v1.0078Z"/><path class="cls-1" d="M72.671,29.6286a2.6,2.6,0,0,1-1.0019-.1914,1.6616,1.6616,0,0,1-.7383-.582,1.6285,1.6285,0,0,1-.2764-.9668,1.6755,1.6755,0,0,1,.5586-1.3135,2.528,2.528,0,0,1,1.7217-.498h1.8242v-.252a1.4039,1.4039,0,0,0-.126-.6484.7487.7487,0,0,0-.456-.3477,3.2744,3.2744,0,0,0-.9658-.1084,5.7667,5.7667,0,0,0-1.8838.3008v-.9726a4.6582,4.6582,0,0,1,.9355-.252,6.9877,6.9877,0,0,1,1.1875-.0957,3.072,3.072,0,0,1,1.9024.5039,1.9445,1.9445,0,0,1,.6543,1.6436v3.66H74.8908l-.084-.5761a2.3281,2.3281,0,0,1-.8584.5166A3.8792,3.8792,0,0,1,72.671,29.6286Zm.3477-.9355a2.4768,2.4768,0,0,0,1.0263-.1982,1.9373,1.9373,0,0,0,.7139-.5342v-.9961h-1.8a1.2648,1.2648,0,0,0-.834.2226.8432.8432,0,0,0-.2588.6778.6967.6967,0,0,0,.3008.6357A1.578,1.578,0,0,0,73.0187,28.6931Z"/><path class="cls-1" d="M77.4591,29.5085V23.821h1.2l.0723.66a5.2021,5.2021,0,0,1,.9717-.4805,5.3912,5.3912,0,0,1,1.1162-.3v.9961a6.9035,6.9035,0,0,0-.7266.1738q-.39.1143-.7373.252a3.913,3.913,0,0,0-.5879.2822v4.1035Z"/><path class="cls-1" d="M81.7667,29.5085V23.821h1.2l.06.6a3.64,3.64,0,0,1,.918-.51,3.2125,3.2125,0,0,1,1.1826-.21,2.1693,2.1693,0,0,1,1.6074.5156,2.2291,2.2291,0,0,1,.5039,1.6084v3.6836H85.9425v-3.624a1.27,1.27,0,0,0-.2695-.9238,1.4644,1.4644,0,0,0-1.0137-.2637,2.3277,2.3277,0,0,0-1.584.6475v4.164Z"/><path class="cls-1" d="M89.29,29.5085V24.8171h-.8633l.1191-.9961h2.0528v5.6875Zm-.1075-6.876v-1.08h1.4278v1.08Z"/><path class="cls-1" d="M92.1222,29.5085V23.821h1.2l.06.6a3.6391,3.6391,0,0,1,.9179-.51,3.2129,3.2129,0,0,1,1.1826-.21,2.17,2.17,0,0,1,1.6075.5156,2.2291,2.2291,0,0,1,.5039,1.6084v3.6836H96.298v-3.624a1.27,1.27,0,0,0-.27-.9238,1.4639,1.4639,0,0,0-1.0136-.2637,2.3277,2.3277,0,0,0-1.584.6475v4.164Z"/><path class="cls-1" d="M101.3624,31.6208a10.4734,10.4734,0,0,1-1.2715-.0781,5.1617,5.1617,0,0,1-1.08-.2344V30.3005a6.2334,6.2334,0,0,0,1.1035.24,8.9751,8.9751,0,0,0,1.1885.084,5.93,5.93,0,0,0,1.26-.0957c.2647-.0644.3965-.208.3965-.4326a.3657.3657,0,0,0-.1924-.3535,1.7506,1.7506,0,0,0-.7314-.1025h-1.5361q-1.5485,0-1.5479-1.0918a1.1314,1.1314,0,0,1,.2031-.6475,1.2544,1.2544,0,0,1,.6485-.4561,1.5987,1.5987,0,0,1-.7256-.66,2.0389,2.0389,0,0,1-.2344-1.0078,1.8519,1.8519,0,0,1,.6543-1.584,3.2428,3.2428,0,0,1,1.9619-.4922,4.12,4.12,0,0,1,.5762.042c.1992.0283.3555.0537.4678.0781h2.0878l-.0361.8516h-.96a1.1366,1.1366,0,0,1,.3359.48,1.7518,1.7518,0,0,1,.1084.624,1.8784,1.8784,0,0,1-.5527,1.4336,2.35,2.35,0,0,1-1.668.5224,3.2712,3.2712,0,0,1-.3535-.0185c-.1084-.0117-.2266-.0254-.3545-.042a1.6978,1.6978,0,0,0-.6475.1924.4687.4687,0,0,0-.2881.42.27.27,0,0,0,.1436.2578,1.08,1.08,0,0,0,.4805.0781h1.5957a2.0731,2.0731,0,0,1,1.3144.3662,1.275,1.275,0,0,1,.4619,1.0616,1.2512,1.2512,0,0,1-.7265,1.206A4.7312,4.7312,0,0,1,101.3624,31.6208Zm.0967-4.7158a1.6861,1.6861,0,0,0,1.0859-.2646,1.1347,1.1347,0,0,0,.3057-.8995,1.2169,1.2169,0,0,0-.3057-.9238,1.5837,1.5837,0,0,0-1.0859-.2881,1.6772,1.6772,0,0,0-1.0683.2754,1.1514,1.1514,0,0,0-.336.9365,1.1164,1.1164,0,0,0,.3184.8877A1.6588,1.6588,0,0,0,101.4591,26.905Z"/><path class="cls-1" d="M105.046,30.949l.36-2.2686h1.14l-.5517,2.2686Z"/><path class="cls-1" d="M110.5783,29.5085V21.781h5.3876v1.02h-4.0791v2.34h3.6358v1.0087h-3.6358v2.3516h4.0791v1.0078Z"/><path class="cls-1" d="M116.4825,29.5085l2.1719-2.8916-2.0879-2.7959H117.97l1.3925,1.8955,1.3916-1.8955h1.4043l-2.0761,2.7959,2.16,2.8916h-1.416l-1.4639-1.98-1.4638,1.98Z"/><path class="cls-1" d="M123.3575,32.1V23.821h1.128l.0722.5635a2.5822,2.5822,0,0,1,.84-.5156,3.1175,3.1175,0,0,1,1.08-.168,2.6187,2.6187,0,0,1,1.9082.666,2.98,2.98,0,0,1,.6836,2.2022,3.27,3.27,0,0,1-.708,2.2978,2.5086,2.5086,0,0,1-1.9317.7617,3.1462,3.1462,0,0,1-1.7637-.4795V32.1Zm2.7364-3.4551q1.6552,0,1.6562-2.0888a2.1848,2.1848,0,0,0-.372-1.4336,1.5835,1.5835,0,0,0-1.2481-.4258,1.9677,1.9677,0,0,0-1.4639.6V28.14a2.32,2.32,0,0,0,.6172.3662A2.1659,2.1659,0,0,0,126.0939,28.6452Z"/><path class="cls-1" d="M133.0665,29.6286a2.9394,2.9394,0,0,1-2.25-.7675,3.1059,3.1059,0,0,1-.7148-2.1963,3.0908,3.0908,0,0,1,.7207-2.1963,3.6814,3.6814,0,0,1,4.5,0,3.095,3.095,0,0,1,.72,2.1963,3.11,3.11,0,0,1-.7138,2.1963A2.96,2.96,0,0,1,133.0665,29.6286Zm0-1.1035a1.6118,1.6118,0,0,0,1.2774-.4385,2.1605,2.1605,0,0,0,.3779-1.4218,2.1354,2.1354,0,0,0-.3779-1.416,2.09,2.09,0,0,0-2.544,0,2.1354,2.1354,0,0,0-.3779,1.416,2.1605,2.1605,0,0,0,.3779,1.4218A1.5959,1.5959,0,0,0,133.0665,28.5251Z"/><path class="cls-1" d="M137.3136,29.5085V23.821h1.2l.06.6a3.6391,3.6391,0,0,1,.9179-.51,3.2131,3.2131,0,0,1,1.1827-.21,2.17,2.17,0,0,1,1.6074.5156,2.2291,2.2291,0,0,1,.5039,1.6084v3.6836h-1.2959v-3.624a1.2706,1.2706,0,0,0-.2695-.9238,1.4644,1.4644,0,0,0-1.0137-.2637,2.3277,2.3277,0,0,0-1.584.6475v4.164Z"/><path class="cls-1" d="M147.01,29.6286a3.3347,3.3347,0,0,1-2.3037-.7314,2.8661,2.8661,0,0,1-.8164-2.2441,3.1594,3.1594,0,0,1,.6963-2.16,2.6635,2.6635,0,0,1,2.1123-.792,2.5907,2.5907,0,0,1,1.95.6777,2.413,2.413,0,0,1,.6533,1.7461V27.18h-4.1641a1.4439,1.4439,0,0,0,.6006,1.1406,2.98,2.98,0,0,0,1.5361.3115,4.8459,4.8459,0,0,0,.8877-.0839,4.3237,4.3237,0,0,0,.792-.2159v.96a3.7262,3.7262,0,0,1-.8818.252A6.4357,6.4357,0,0,1,147.01,29.6286Zm-1.8721-3.3h3.0127v-.3964a1.2567,1.2567,0,0,0-.3242-.918,1.4926,1.4926,0,0,0-1.0918-.33,1.605,1.605,0,0,0-1.2539.3965A1.8794,1.8794,0,0,0,145.1378,26.3288Z"/><path class="cls-1" d="M150.5734,29.5085V23.821h1.2l.06.6a3.64,3.64,0,0,1,.918-.51,3.2125,3.2125,0,0,1,1.1826-.21,2.1691,2.1691,0,0,1,1.6074.5156,2.2286,2.2286,0,0,1,.5039,1.6084v3.6836h-1.2958v-3.624a1.27,1.27,0,0,0-.27-.9238,1.4642,1.4642,0,0,0-1.0137-.2637,2.3272,2.3272,0,0,0-1.5839.6475v4.164Z"/><path class="cls-1" d="M159.6808,29.6286a1.7669,1.7669,0,0,1-1.3613-.4863,1.8693,1.8693,0,0,1-.45-1.3252V24.8406h-.84v-1.02h.84V22.5124l1.2959-.3955V23.821h1.5117l-.084,1.02h-1.4277v2.9043a.8781.8781,0,0,0,.2275.6894,1.1237,1.1237,0,0,0,.7441.1982,2.1663,2.1663,0,0,0,.6846-.12v.9248A3.03,3.03,0,0,1,159.6808,29.6286Z"/><path class="cls-1" d="M162.4059,29.5085V24.8171h-.8633l.1191-.9961h2.0528v5.6875Zm-.1074-6.876v-1.08h1.4277v1.08Z"/><path class="cls-1" d="M167.0143,29.6286a2.6007,2.6007,0,0,1-1.002-.1914,1.6607,1.6607,0,0,1-.7382-.582,1.6285,1.6285,0,0,1-.2764-.9668,1.6755,1.6755,0,0,1,.5586-1.3135,2.5278,2.5278,0,0,1,1.7217-.498h1.8242v-.252a1.4039,1.4039,0,0,0-.126-.6484.7489.7489,0,0,0-.4561-.3477,3.274,3.274,0,0,0-.9658-.1084,5.7671,5.7671,0,0,0-1.8838.3008v-.9726a4.6593,4.6593,0,0,1,.9356-.252,6.9868,6.9868,0,0,1,1.1875-.0957,3.0717,3.0717,0,0,1,1.9023.5039,1.9442,1.9442,0,0,1,.6543,1.6436v3.66H169.234l-.084-.5761a2.3264,2.3264,0,0,1-.8584.5166A3.8782,3.8782,0,0,1,167.0143,29.6286Zm.3476-.9355a2.4776,2.4776,0,0,0,1.0264-.1982,1.9373,1.9373,0,0,0,.7139-.5342v-.9961h-1.8a1.2648,1.2648,0,0,0-.834.2226.8429.8429,0,0,0-.2588.6778.6967.6967,0,0,0,.3008.6357A1.5779,1.5779,0,0,0,167.3619,28.6931Z"/><path class="cls-1" d="M173.2174,29.6286a1.4792,1.4792,0,0,1-1.0557-.3418,1.5123,1.5123,0,0,1-.36-1.1337V21.4206H173.11v6.6123a.6511.6511,0,0,0,.1191.4561.4894.4894,0,0,0,.36.12,2.0869,2.0869,0,0,0,.5517-.0723v.9483a2.135,2.135,0,0,1-.4375.1133A3.4122,3.4122,0,0,1,173.2174,29.6286Z"/><path class="cls-1" d="M181.5221,29.6286a3.7477,3.7477,0,0,1-2.874-1.0322,3.9246,3.9246,0,0,1-.9668-2.7959,5.3275,5.3275,0,0,1,.42-2.2021,3.102,3.102,0,0,1,1.2783-1.4336,4.25,4.25,0,0,1,2.1778-.5039,7.8865,7.8865,0,0,1,1.2421.09,6.4254,6.4254,0,0,1,1.05.2578v1.128a6.3285,6.3285,0,0,0-2.1835-.3594,2.45,2.45,0,0,0-2.07.7793,3.6539,3.6539,0,0,0-.5937,2.2441,2.9437,2.9437,0,0,0,.624,2.0283,2.4672,2.4672,0,0,0,1.9317.6963,4.8077,4.8077,0,0,0,1.6679-.24v-2.16h-1.9316v-.8515h3.0478v3.72a4.0655,4.0655,0,0,1-1.0615.4375A6.4767,6.4767,0,0,1,181.5221,29.6286Z"/><path class="cls-1" d="M185.6139,29.5085V23.821h1.2l.0723.66a5.201,5.201,0,0,1,.9716-.4805,5.3945,5.3945,0,0,1,1.1162-.3v.9961a6.902,6.902,0,0,0-.7265.1738q-.39.1143-.7373.252a3.913,3.913,0,0,0-.5879.2822v4.1035Z"/><path class="cls-1" d="M192.4059,29.6286a2.9394,2.9394,0,0,1-2.25-.7675,3.1055,3.1055,0,0,1-.7149-2.1963,3.0913,3.0913,0,0,1,.7207-2.1963,3.6814,3.6814,0,0,1,4.5,0,3.0951,3.0951,0,0,1,.72,2.1963,3.11,3.11,0,0,1-.7139,2.1963A2.9594,2.9594,0,0,1,192.4059,29.6286Zm0-1.1035a1.6114,1.6114,0,0,0,1.2773-.4385,2.16,2.16,0,0,0,.378-1.4218,2.1348,2.1348,0,0,0-.378-1.416,2.09,2.09,0,0,0-2.5439,0,2.1348,2.1348,0,0,0-.3779,1.416,2.16,2.16,0,0,0,.3779,1.4218A1.5957,1.5957,0,0,0,192.4059,28.5251Z"/><path class="cls-1" d="M197.3737,29.5085l-1.5-5.6875h1.3086l.9834,4.14,1.1162-3.4444V23.821h.9961l1.2363,4.14.9834-4.14h1.2959l-1.4873,5.6875H201.07l-1.212-3.72-1.2363,3.72Z"/><path class="cls-1" d="M206.9977,29.6286a1.7669,1.7669,0,0,1-1.3613-.4863,1.8693,1.8693,0,0,1-.45-1.3252V24.8406h-.84v-1.02h.84V22.5124l1.2959-.3955V23.821h1.5117l-.084,1.02h-1.4277v2.9043a.8781.8781,0,0,0,.2275.6894,1.1237,1.1237,0,0,0,.7441.1982,2.1663,2.1663,0,0,0,.6846-.12v.9248A3.03,3.03,0,0,1,206.9977,29.6286Z"/><path class="cls-1" d="M209.1334,29.5085V21.4206h1.3086v2.9522a3.0332,3.0332,0,0,1,.8877-.4863,3.4118,3.4118,0,0,1,1.1641-.1856,1.8435,1.8435,0,0,1,2.1113,2.124v3.6836h-1.2959v-3.624a1.235,1.235,0,0,0-.2812-.9238,1.4284,1.4284,0,0,0-.9786-.2637,2.2535,2.2535,0,0,0-.8759.1855,2.1415,2.1415,0,0,0-.7315.4864v4.14Z"/><path d="M4.7164,11.0779c-.7788,0-1.1967-.2276-1.1967-.7783V3.3269c0-.5312.4179-.7783,1.1967-.7783H15.754V.1355H4.7164C1.6012.1355.4235,1.447.4235,3.365V10.28c0,1.919,1.1777,3.23,4.2929,3.23H15.754V11.0779Z"/><path class="cls-2" d="M4.7164,11.0779c-.7788,0-1.1967-.2276-1.1967-.7783V3.3269c0-.5312.4179-.7783,1.1967-.7783H15.754V.1355H4.7164C1.6012.1355.4235,1.447.4235,3.365V10.28c0,1.919,1.1777,3.23,4.2929,3.23H15.754V11.0779Z"/><path d="M33.7091,4.3337V3.365c0-1.918-1.1973-3.23-4.3125-3.23H17.77V13.51h3.0967V7.5632H27.25L30.2325,13.51h3.3243L30.5553,7.5261C32.9489,7.2029,33.7091,5.9294,33.7091,4.3337Zm-4.3125.8174h-8.53V2.5486h8.53c.7788,0,1.1968.2471,1.1968.7783V4.3533C30.5934,4.9988,30.2135,5.1511,29.3966,5.1511Z"/><path class="cls-3" d="M33.7091,4.3337V3.365c0-1.918-1.1973-3.23-4.3125-3.23H17.77V13.51h3.0967V7.5632H27.25L30.2325,13.51h3.3243L30.5553,7.5261C32.9489,7.2029,33.7091,5.9294,33.7091,4.3337Zm-4.3125.8174h-8.53V2.5486h8.53c.7788,0,1.1968.2471,1.1968.7783V4.3533C30.5934,4.9988,30.2135,5.1511,29.3966,5.1511Z"/><polygon points="53.829 0.135 49.916 0.135 43.799 5.968 37.663 0.135 33.711 0.135 42.26 8.21 42.26 13.51 45.357 13.51 45.357 8.21 53.829 0.135"/><polygon class="cls-4" points="53.829 0.135 49.916 0.135 43.799 5.968 37.663 0.135 33.711 0.135 42.26 8.21 42.26 13.51 45.357 13.51 45.357 8.21 53.829 0.135"/><path d="M70.4738,10.2419V8.3806c0-1.9375-1.1968-3.249-4.3311-3.249h-7.998c-.8741,0-1.2349-.2461-1.2349-.8164v-.95c0-.6074.418-.8164,1.2349-.8164H69.714V.1355H58.1447c-3.1343,0-4.3311,1.3115-4.3311,3.249v.9112c0,1.9384,1.1968,3.249,4.3311,3.249h7.998c.8545,0,1.2158.209,1.2158.8164V10.28c0,.6465-.3423.7979-1.2158.7979H54.25V13.51H66.1427C69.277,13.51,70.4738,12.18,70.4738,10.2419Z"/><path class="cls-5" d="M70.4738,10.2419V8.3806c0-1.9375-1.1968-3.249-4.3311-3.249h-7.998c-.8741,0-1.2349-.2461-1.2349-.8164v-.95c0-.6074.418-.8164,1.2349-.8164H69.714V.1355H58.1447c-3.1343,0-4.3311,1.3115-4.3311,3.249v.9112c0,1.9384,1.1968,3.249,4.3311,3.249h7.998c.8545,0,1.2158.209,1.2158.8164V10.28c0,.6465-.3423.7979-1.2158.7979H54.25V13.51H66.1427C69.277,13.51,70.4738,12.18,70.4738,10.2419Z"/><polygon points="87.935 2.549 87.935 0.135 71.179 0.135 71.179 2.549 78.075 2.549 78.075 13.51 81.191 13.51 81.191 2.549 87.935 2.549"/><polygon class="cls-6" points="87.935 2.549 87.935 0.135 71.179 0.135 71.179 2.549 78.075 2.549 78.075 13.51 81.191 13.51 81.191 2.549 87.935 2.549"/><polygon points="92.63 11.078 92.63 0.135 89.495 0.135 89.495 13.51 103.211 13.51 103.211 11.078 92.63 11.078"/><polygon class="cls-7" points="92.63 11.078 92.63 0.135 89.495 0.135 89.495 13.51 103.211 13.51 103.211 11.078 92.63 11.078"/><rect x="104.7526" y="11.0398" width="3.6475" height="2.4697"/><rect class="cls-8" x="104.7526" y="11.0398" width="3.6475" height="2.4697"/><polygon points="123.464 0.135 116.986 10.3 110.376 0.135 106.861 0.135 115.79 13.51 118.05 13.51 126.903 0.135 123.464 0.135"/><polygon class="cls-9" points="123.464 0.135 116.986 10.3 110.376 0.135 106.861 0.135 115.79 13.51 118.05 13.51 126.903 0.135 123.464 0.135"/><polygon points="131.883 0.135 122.973 13.51 126.431 13.51 133.042 3.327 139.52 13.51 143.015 13.51 134.163 0.135 131.883 0.135"/><polygon class="cls-10" points="131.883 0.135 122.973 13.51 126.431 13.51 133.042 3.327 139.52 13.51 143.015 13.51 134.163 0.135 131.883 0.135"/><path d="M160.5529,10.28V.1355h-3.0967V10.3c0,.5507-.418.7783-1.1968.7783h-8.53c-.7788,0-1.1968-.2276-1.1968-.7783V.1355h-3.0966V10.28c0,1.919,1.1782,3.23,4.2934,3.23h8.53C159.3751,13.51,160.5529,12.199,160.5529,10.28Z"/><path class="cls-11" d="M160.5529,10.28V.1355h-3.0967V10.3c0,.5507-.418.7783-1.1968.7783h-8.53c-.7788,0-1.1968-.2276-1.1968-.7783V.1355h-3.0966V10.28c0,1.919,1.1782,3.23,4.2934,3.23h8.53C159.3751,13.51,160.5529,12.199,160.5529,10.28Z"/><polygon points="165.97 11.078 165.97 0.135 162.836 0.135 162.836 13.51 176.551 13.51 176.551 11.078 165.97 11.078"/><polygon class="cls-12" points="165.97 11.078 165.97 0.135 162.836 0.135 162.836 13.51 176.551 13.51 176.551 11.078 165.97 11.078"/><polygon points="189.888 2.549 189.888 0.135 173.133 0.135 173.133 2.549 180.029 2.549 180.029 13.51 183.145 13.51 183.145 2.549 189.888 2.549"/><polygon class="cls-13" points="189.888 2.549 189.888 0.135 173.133 0.135 173.133 2.549 180.029 2.549 180.029 13.51 183.145 13.51 183.145 2.549 189.888 2.549"/><path d="M207.3112,10.2419V8.3806c0-1.9375-1.1963-3.249-4.3311-3.249h-7.998c-.8741,0-1.2344-.2461-1.2344-.8164v-.95c0-.6074.418-.8164,1.2344-.8164h11.5693V.1355H194.9821c-3.1338,0-4.3311,1.3115-4.3311,3.249v.9112c0,1.9384,1.1973,3.249,4.3311,3.249h7.998c.8545,0,1.2158.209,1.2158.8164V10.28c0,.6465-.3418.7979-1.2158.7979H191.0875V13.51H202.98C206.1149,13.51,207.3112,12.18,207.3112,10.2419Z"/><path class="cls-14" d="M207.3112,10.2419V8.3806c0-1.9375-1.1963-3.249-4.3311-3.249h-7.998c-.8741,0-1.2344-.2461-1.2344-.8164v-.95c0-.6074.418-.8164,1.2344-.8164h11.5693V.1355H194.9821c-3.1338,0-4.3311,1.3115-4.3311,3.249v.9112c0,1.9384,1.1973,3.249,4.3311,3.249h7.998c.8545,0,1.2158.209,1.2158.8164V10.28c0,.6465-.3418.7979-1.2158.7979H191.0875V13.51H202.98C206.1149,13.51,207.3112,12.18,207.3112,10.2419Z"/><rect x="208.7203" y="11.0398" width="3.6475" height="2.4697"/><rect class="cls-15" x="208.7203" y="11.0398" width="3.6475" height="2.4697"/><polygon points="227.432 0.135 220.955 10.3 214.343 0.135 210.829 0.135 219.757 13.51 222.018 13.51 230.871 0.135 227.432 0.135"/><polygon class="cls-16" points="227.432 0.135 220.955 10.3 214.343 0.135 210.829 0.135 219.757 13.51 222.018 13.51 230.871 0.135 227.432 0.135"/><polygon points="233.59 0.135 230.855 3.08 234.123 3.08 234.806 2.434 234.806 13.51 237.922 13.51 237.922 0.135 233.59 0.135"/><polygon class="cls-17" points="233.59 0.135 230.855 3.08 234.123 3.08 234.806 2.434 234.806 13.51 237.922 13.51 237.922 0.135 233.59 0.135"/></svg>