<svg xmlns="http://www.w3.org/2000/svg" xmlns:xlink="http://www.w3.org/1999/xlink" width="114" height="64" viewBox="0 0 114 64">
  <defs>
    <clipPath id="clip-path">
      <circle id="Ellipse_318" data-name="Ellipse 318" cx="32" cy="32" r="32" transform="translate(-24544 -9753)" fill="#fff"/>
    </clipPath>
    <clipPath id="clip-path-2">
      <ellipse id="Ellipse_665" data-name="Ellipse 665" cx="26.5" cy="25.5" rx="26.5" ry="25.5" transform="translate(-24483 -11213.874)" fill="#fff"/>
    </clipPath>
  </defs>
  <g id="Group_4007" data-name="Group 4007" transform="translate(24544 9753)">
    <g id="Mask_Group_60" data-name="Mask Group 60" clip-path="url(#clip-path)">
      <g id="svgg" transform="translate(-24544 -9753)">
        <path id="path0" d="M32.091,12.165c-.258.125-.341.239-1.027,1.4-.075.126-.287.474-.473.773s-.5.818-.7,1.152c-.52.864-1.4,2.306-1.793,2.944-.185.3-.4.646-.472.771s-.28.465-.456.756-.409.679-.518.861-.35.577-.536.876-.388.63-.449.736-.263.437-.448.736-.632,1.034-.992,1.632-.807,1.333-.992,1.632-.394.645-.464.768-.178.3-.24.384-.181.276-.264.419c-.139.237-.5.83-.984,1.632-.106.174-.435.719-.731,1.212s-.592.953-.656,1.022a.427.427,0,0,0-.117.2.664.664,0,0,1-.12.243c-.066.093-.422.674-.791,1.29s-.823,1.365-1.009,1.664-.5.818-.7,1.152-.491.81-.643,1.056c-.4.651-1.464,2.4-1.6,2.624-.062.106-.264.437-.449.736s-.387.63-.449.736c-.176.3-1.163,1.928-1.535,2.528-.185.3-.5.818-.7,1.152s-.518.853-.7,1.152A17.566,17.566,0,0,0,9.28,49.562a1.1,1.1,0,0,0,.405.77L9.9,50.5H55.176l.213-.162a1.072,1.072,0,0,0,.076-1.532,2.9,2.9,0,0,1-.233-.388A3.26,3.26,0,0,0,54.976,48a3.26,3.26,0,0,1-.256-.413,2.675,2.675,0,0,0-.216-.372c-.381-.59-1.256-2.032-1.256-2.068a1.837,1.837,0,0,0-.183-.3c-.224-.328-.713-1.133-.713-1.175a2.076,2.076,0,0,0-.184-.3c-.1-.147-.356-.556-.567-.908-.353-.59-.655-1.087-2-3.3l-.8-1.312-.82-1.344c-.28-.458-.566-.933-.636-1.056s-.182-.3-.248-.394a.8.8,0,0,1-.12-.212,2.793,2.793,0,0,0-.246-.406c-.136-.2-.258-.394-.272-.431-.024-.06-.774-1.288-1.113-1.822-.154-.242-.672-1.108-.879-1.472-.071-.123-.179-.3-.241-.384s-.17-.261-.24-.384-.279-.469-.465-.768-.4-.645-.467-.768-.225-.373-.343-.555A2.826,2.826,0,0,1,42.5,27.5a3.716,3.716,0,0,0-.256-.418,3.2,3.2,0,0,1-.256-.425,1.816,1.816,0,0,0-.192-.319,1.781,1.781,0,0,1-.192-.32,1.669,1.669,0,0,0-.183-.308c-.1-.147-.45-.714-.777-1.26s-.691-1.141-.809-1.323a2.389,2.389,0,0,1-.215-.372,1.648,1.648,0,0,0-.184-.309c-.1-.147-.241-.368-.311-.492s-.279-.468-.464-.768c-.865-1.4-1.067-1.731-1.347-2.208-.165-.282-.452-.757-.638-1.056s-.416-.674-.513-.832l-.992-1.632c-.449-.739-.874-1.445-.944-1.568s-.2-.339-.3-.48-.207-.328-.251-.416c-.425-.839-.972-1.124-1.584-.827m.873,3.309c.048.1.168.295.266.442a1.686,1.686,0,0,1,.178.308,1.669,1.669,0,0,0,.183.308c.1.147.486.772.855,1.388s.824,1.365,1.009,1.664c.306.493.8,1.31,1.408,2.309l.544.9c.176.291.381.631.456.756s.287.472.472.771.394.645.464.768.178.3.24.384.171.261.241.384c.16.28,1.1,1.835,1.551,2.56.185.3.387.63.449.736s.393.653.736,1.216l.8,1.312.7,1.152c.29.475.579.95.641,1.056.138.234,1.215,2.007,1.6,2.624.152.246.333.549.4.672s.178.3.24.384.17.261.24.384.279.469.465.768.428.694.536.878.428.715.71,1.18.58.963.664,1.106.2.332.264.42.171.261.241.384.375.627.677,1.12c.489.8.878,1.44,1.3,2.141.075.125.287.472.472.771A13.229,13.229,0,0,1,53,48.495c.018.108-.9.114-20.477.13-15.24.012-20.5,0-20.5-.056a1.044,1.044,0,0,1,.144-.3c.079-.127.187-.305.24-.4.088-.15.434-.723.928-1.535.6-.99.835-1.38.858-1.437.014-.035.136-.228.272-.428a2.879,2.879,0,0,0,.246-.4,1.693,1.693,0,0,1,.184-.308c.1-.147.241-.368.311-.492s.28-.468.466-.768.429-.7.541-.9.356-.6.543-.9.39-.63.452-.736c.113-.195.353-.586.96-1.568.185-.3.631-1.034.991-1.632s.807-1.333.992-1.632.387-.63.448-.736.263-.437.449-.736.431-.706.544-.9.263-.442.332-.544c.12-.175.415-.659.66-1.081.113-.2.358-.6.96-1.568.185-.3.386-.63.447-.736s.391-.653.735-1.216.683-1.125.753-1.248.178-.3.241-.384.181-.276.264-.419.3-.5.472-.788l.544-.9c.6-.986,1.1-1.815,1.408-2.309.186-.3.388-.63.449-.736s.226-.379.367-.608c.756-1.234,1.52-2.491,1.632-2.688.07-.123.179-.3.241-.384s.17-.261.24-.384c.345-.606.995-1.648,1.114-1.786.085-.1.326.136.506.492m-.906,2.839a2.5,2.5,0,0,0-.672.867c-.243.4-.471.769-.506.812a4.667,4.667,0,0,0-.366.609c-.071.127-.213.351-.314.5a1.873,1.873,0,0,0-.184.3c0,.019-.211.374-.469.788s-.53.855-.6.978c-.44.733-.728,1.206-2.119,3.477-1.03,1.683-1.288,2.116-1.288,2.166a.059.059,0,0,1-.064.053.062.062,0,0,0-.064.059,4.265,4.265,0,0,1-.328.592c-.181.293-.383.628-.45.745s-.174.29-.24.384-.3.474-.517.843-.582.969-.808,1.333a7.2,7.2,0,0,0-.409.71.417.417,0,0,1-.128.165.41.41,0,0,0-.128.167,8.135,8.135,0,0,1-.443.774c-.244.4-.663,1.083-.931,1.523s-.644,1.045-.833,1.344-.4.645-.457.768a1.4,1.4,0,0,1-.152.256,3.853,3.853,0,0,0-.257.416c-.12.211-.46.773-.757,1.248s-.589.95-.65,1.056-.262.437-.448.736-.387.63-.448.736c-.1.179-.838,1.392-1.472,2.432-.15.246-.329.527-.4.624a.989.989,0,0,0,.249,1.392l.3.192h16.78c14.3,0,16.812-.013,17-.09a.905.905,0,0,0,.515-1.3,8.185,8.185,0,0,0-.459-.813c-.028-.035-.107-.165-.177-.288s-.244-.411-.388-.64c-.663-1.058-1-1.606-1.412-2.308-.155-.262-.316-.52-.358-.572a3.461,3.461,0,0,1-.231-.384,2.924,2.924,0,0,0-.187-.32c-.019-.018-.261-.406-.538-.864l-1.2-1.975c-.381-.628-.694-1.166-.694-1.195a.088.088,0,0,0-.05-.073.948.948,0,0,1-.182-.245c-.072-.123-.413-.685-.758-1.248A26.086,26.086,0,0,1,41.984,32.7a.057.057,0,0,0-.049-.063,12.6,12.6,0,0,1-.774-1.2c-.4-.66-.97-1.6-1.27-2.1s-.6-1-.674-1.12-.179-.3-.241-.384-.171-.261-.241-.384c-.16-.28-1.1-1.835-1.551-2.56-.185-.3-.387-.63-.448-.736s-.262-.437-.447-.736c-.611-.987-.84-1.364-1.521-2.5-.37-.616-.756-1.24-.857-1.388a1.7,1.7,0,0,1-.183-.308A3.24,3.24,0,0,0,33,18.3a.967.967,0,0,0-.945.012m.758,3.064a2.4,2.4,0,0,1,.208.355,1.772,1.772,0,0,0,.184.305c.1.147.242.368.312.492s.409.684.753,1.248.682,1.125.752,1.248.177.3.239.384.17.261.24.384.279.469.464.768.481.789.657,1.088.371.618.432.708c.1.15,1.081,1.758,1.342,2.2.062.106.264.437.449.736s.388.63.449.736.306.509.544.9.482.79.543.9c.115.2.369.613.96,1.568.185.3.386.63.447.736s.262.437.448.736.632,1.034.993,1.632.78,1.29.933,1.536c.706,1.144,1.351,2.2,1.518,2.5.1.176.336.565.523.864s.4.645.466.768.178.3.24.384c.254.359.457.784.4.839-.033.033-1.614.051-3.734.041L39.9,45.408l-.032-5.984c-.035-6.448-.017-6.161-.393-6.5l-.215-.192-6.5-.019c-6.926-.02-6.928-.02-7.17.2-.375.337-.347-.135-.382,6.44l-.032,6.054-3.7.016c-4.063.018-3.916.033-3.636-.36a1,1,0,0,0,.134-.225,3.15,3.15,0,0,1,.238-.406c.4-.629,1.248-2.019,1.405-2.316a2.645,2.645,0,0,1,.239-.384,2.423,2.423,0,0,0,.215-.325c.069-.123.278-.469.463-.768s.387-.63.448-.736c.136-.237,1.081-1.791,1.537-2.528.185-.3.387-.63.448-.736s.393-.653.737-1.216.7-1.154.8-1.312.412-.677.7-1.152l1.035-1.7c.279-.458.534-.875.567-.928s.215-.355.405-.672.5-.821.682-1.12.388-.636.452-.748.2-.328.294-.48.21-.334.249-.4.353-.589.7-1.152.677-1.11.739-1.216c.251-.43.669-1.1.841-1.356a1.669,1.669,0,0,0,.183-.308,1.781,1.781,0,0,1,.192-.32,2.22,2.22,0,0,0,.192-.309,6.631,6.631,0,0,1,.79-1.194c.041,0,.167.144.282.319m5.1,18.656v5.376l-5.337.016c-3.89.012-5.361,0-5.424-.056-.091-.075-.137-10.411-.048-10.644.035-.092.555-.1,5.424-.085l5.385.016v5.376m-5.866-4.8c-.3.164-.438.47-.438.986,0,.546-.06.683-.324.741a2.564,2.564,0,0,0-.609.325c-.494.338-.444.335-.9.058-.565-.341-.96-.325-1.34.055-.523.523-.377,1.1.408,1.608l.376.243,0,.8,0,.8-.295.17c-.623.359-.761.542-.761,1,0,.9.769,1.2,1.683.66.387-.228.348-.233.852.105a3.749,3.749,0,0,0,.635.355c.243.08.283.187.287.767a.934.934,0,0,0,1.631.737,1.317,1.317,0,0,0,.223-.9V43.26l.287-.123a5.445,5.445,0,0,0,.686-.388l.4-.265.387.206c.7.37,1.007.372,1.4.009.524-.489.332-1.271-.405-1.645-.4-.2-.388-.171-.389-1.026,0-.82.006-.836.429-1.054a.968.968,0,0,0,.313-1.656c-.33-.29-.718-.278-1.3.04l-.435.238-.332-.239a3.4,3.4,0,0,0-.6-.344c-.419-.163-.43-.181-.43-.708,0-.945-.69-1.467-1.418-1.071m1.073,3.5a1.616,1.616,0,0,1,.828,1.046,1.43,1.43,0,1,1-.828-1.046" fill="#f7f7f7" fill-rule="evenodd"/>
        <path id="path1" d="M0,32V64H64V0H0V32M33.264,12.211a2.592,2.592,0,0,1,.375.5c.074.139.287.5.473.8.383.616.336.54,1.153,1.893.334.555.676,1.126.76,1.269s.2.333.264.421.17.261.24.384.278.469.463.768.51.832.722,1.184.482.789.6.971a1.739,1.739,0,0,1,.215.4.067.067,0,0,0,.064.069.062.062,0,0,1,.064.059,4.266,4.266,0,0,0,.328.592c.181.293.386.633.456.756s.2.339.3.48.309.487.476.768.417.695.556.918a4.437,4.437,0,0,1,.252.436,2.217,2.217,0,0,0,.192.309,2.114,2.114,0,0,1,.192.311,3.771,3.771,0,0,0,.256.417,3.426,3.426,0,0,1,.256.422,2.691,2.691,0,0,0,.214.371c.118.184.338.537.489.783s.323.52.382.608.177.29.263.448a3.275,3.275,0,0,0,.188.32,6.947,6.947,0,0,1,.448.745,2.112,2.112,0,0,0,.192.311,1.331,1.331,0,0,1,.192.348c0,.038.022.069.048.069s.08.065.119.144.257.446.484.816.5.812.6.982.283.459.4.64a5.259,5.259,0,0,1,.288.506c.043.1.1.176.127.176s.048.038.048.084a.424.424,0,0,0,.112.208,1.658,1.658,0,0,1,.206.316,4.912,4.912,0,0,0,.264.448c.094.141.227.357.3.48s.323.54.563.928a11.55,11.55,0,0,1,.925,1.557.4.4,0,0,0,.128.171.415.415,0,0,1,.128.165,4.7,4.7,0,0,0,.32.571,4.852,4.852,0,0,1,.32.569.468.468,0,0,0,.116.172,3.43,3.43,0,0,1,.321.5c.113.206.291.5.4.651a1.605,1.605,0,0,1,.191.324.362.362,0,0,0,.088.148,2.85,2.85,0,0,1,.241.389c.084.158.261.454.392.657a3.556,3.556,0,0,1,.239.4,3.6,3.6,0,0,0,.256.407,2.03,2.03,0,0,1,.256.447.069.069,0,0,0,.064.072.067.067,0,0,1,.064.068,1.284,1.284,0,0,0,.176.337c.1.148.21.326.252.4s.3.487.57.927.612,1,.756,1.238.328.544.408.672.164.277.187.33a.466.466,0,0,0,.079.128,2.326,2.326,0,0,1,.3.528c.02.062.061.112.092.112a.059.059,0,0,1,.056.061,1.463,1.463,0,0,0,.192.345,1.746,1.746,0,0,1,.192.329.92.92,0,0,0,.136.236,1.081,1.081,0,0,1-.577,1.644c-.307.1-44.782.1-45.123,0A1.092,1.092,0,0,1,9.4,48.938c.1-.181.422-.719.712-1.194s.631-1.037.755-1.248a3.592,3.592,0,0,1,.269-.416,3.164,3.164,0,0,0,.251-.413c.114-.21.263-.459.331-.554a.717.717,0,0,0,.123-.23.457.457,0,0,1,.112-.185,2.074,2.074,0,0,0,.2-.277l.2-.349c.062-.11.265-.444.45-.743.441-.712,1.388-2.275,1.551-2.56.071-.123.211-.344.312-.492a1.253,1.253,0,0,0,.184-.336.067.067,0,0,1,.064-.068.067.067,0,0,0,.064-.068,1.331,1.331,0,0,1,.192-.348,2.117,2.117,0,0,0,.192-.311c0-.029.23-.408.89-1.467a13.547,13.547,0,0,0,.966-1.654.061.061,0,0,1,.064-.056.076.076,0,0,0,.064-.084.424.424,0,0,1,.112-.208,1.675,1.675,0,0,0,.207-.316c.052-.106.185-.336.294-.512s.324-.522.475-.768.34-.549.417-.672c.157-.25.68-1.127.878-1.472.071-.123.211-.344.312-.492a1.377,1.377,0,0,0,.184-.324.454.454,0,0,1,.112-.182,2.327,2.327,0,0,0,.233-.348c.141-.258.923-1.546,1.222-2.014.113-.176.287-.464.388-.64a3.573,3.573,0,0,1,.218-.352,2.756,2.756,0,0,0,.19-.32,2.552,2.552,0,0,1,.192-.32,3.888,3.888,0,0,0,.348-.592c.071-.132.152-.24.181-.24a.057.057,0,0,0,.052-.061,11.025,11.025,0,0,1,.991-1.7c.343-.563.681-1.125.752-1.248a1.371,1.371,0,0,1,.173-.256.373.373,0,0,0,.087-.128c.023-.053.122-.226.219-.386l.4-.659.416-.683.9-1.466c.035-.058.148-.248.25-.424a2.644,2.644,0,0,1,.229-.351.976.976,0,0,0,.133-.24c.05-.114.112-.208.139-.208s.048-.043.048-.1.025-.1.056-.1.073-.05.092-.112a2.416,2.416,0,0,1,.3-.528,8.2,8.2,0,0,0,.444-.736c.155-.272.94-1.546,1.159-1.881a4.248,4.248,0,0,0,.264-.464c.045-.1.1-.183.13-.183s.048-.031.048-.068a1.331,1.331,0,0,1,.192-.348,1.781,1.781,0,0,0,.192-.32,1.685,1.685,0,0,1,.178-.308c.1-.147.22-.352.272-.455a2.485,2.485,0,0,1,.366-.464l.272-.276h.48c.471,0,.485,0,.72.243m-.97,3.234c-.136.218-.33.516-.431.662a1.9,1.9,0,0,0-.183.3,6.815,6.815,0,0,1-.448.746,3.245,3.245,0,0,0-.187.32,2.552,2.552,0,0,1-.192.32,1.09,1.09,0,0,0-.123.185c-.243.432-.348.607-.748,1.255-.239.387-.581.944-.76,1.236l-.471.768a3.751,3.751,0,0,0-.2.37.949.949,0,0,1-.143.226,2.5,2.5,0,0,0-.325.52.962.962,0,0,1-.117.176,4.908,4.908,0,0,0-.277.448c-.277.481-.6,1.011-.985,1.637-.151.243-.31.5-.352.571s-.156.252-.253.4a1.417,1.417,0,0,0-.176.336.059.059,0,0,1-.056.061c-.031,0-.073.05-.093.112a5.774,5.774,0,0,1-.5.858.9.9,0,0,0-.12.2,3.616,3.616,0,0,1-.256.419,2.9,2.9,0,0,0-.256.431,1.045,1.045,0,0,1-.16.255,1.239,1.239,0,0,0-.16.244c0,.038-.734,1.252-.817,1.351a3.645,3.645,0,0,0-.21.352,3.324,3.324,0,0,1-.189.32,5.543,5.543,0,0,0-.448.76.465.465,0,0,1-.112.172,1.7,1.7,0,0,0-.208.316c-.053.106-.226.4-.384.645s-.36.575-.448.724-.219.363-.291.475-.227.377-.346.588a4.551,4.551,0,0,1-.324.512,1.585,1.585,0,0,0-.2.336c-.049.114-.11.208-.137.208s-.048.036-.048.08a.71.71,0,0,1-.166.272,1.871,1.871,0,0,0-.258.414,1.011,1.011,0,0,1-.139.256,1.973,1.973,0,0,0-.2.322c-.086.158-.4.677-.7,1.152-.522.835-.624,1-.914,1.52a1.765,1.765,0,0,1-.176.272.938.938,0,0,0-.127.185l-.215.384a1.646,1.646,0,0,1-.17.263,2.146,2.146,0,0,0-.2.32,2.112,2.112,0,0,1-.2.32,2.948,2.948,0,0,0-.234.384c-.235.429-1.31,2.2-1.363,2.24a2.446,2.446,0,0,0-.2.336.912.912,0,0,1-.206.3.054.054,0,0,0-.048.059,16.8,16.8,0,0,1-.864,1.477c-.475.743-1.262,2.046-1.42,2.352-.059.114-.131.208-.16.208a.059.059,0,0,0-.052.064c0,.043,6.827.064,20.352.064,11.194,0,20.352-.024,20.352-.054a2.7,2.7,0,0,0-.256-.45,3.77,3.77,0,0,1-.256-.43,1.883,1.883,0,0,0-.181-.3c-.1-.147-.251-.4-.336-.556a2.191,2.191,0,0,0-.195-.32c-.022-.018-.256-.392-.521-.832S50.4,44.379,50.112,43.9s-.577-.95-.639-1.056-.341-.566-.621-1.024-.64-1.048-.8-1.312-.444-.725-.629-1.024-.4-.659-.472-.8a2.343,2.343,0,0,0-.247-.38.424.424,0,0,1-.112-.208c0-.046-.022-.084-.048-.084s-.08-.065-.119-.144-.352-.6-.7-1.168-.676-1.11-.737-1.216-.231-.386-.376-.623a2.79,2.79,0,0,1-.264-.5A.06.06,0,0,0,44.3,34.3c-.029,0-.093-.079-.142-.176s-.165-.291-.259-.432-.228-.357-.3-.48-.409-.684-.752-1.248-.685-1.139-.76-1.28a2.366,2.366,0,0,0-.235-.366,2.3,2.3,0,0,1-.229-.352,3.441,3.441,0,0,0-.424-.682.46.46,0,0,1-.112-.184,1.378,1.378,0,0,0-.183-.324,5.886,5.886,0,0,1-.329-.556,1.809,1.809,0,0,0-.189-.32c-.024-.018-.213-.32-.42-.672s-.486-.8-.62-1a2.8,2.8,0,0,1-.244-.406.8.8,0,0,0-.12-.212c-.066-.093-.178-.271-.248-.394s-.279-.469-.465-.768-.431-.7-.543-.9-.321-.539-.462-.768l-.594-.96c-.309-.5-.408-.666-.649-1.1a1.408,1.408,0,0,0-.118-.185c-.036-.036-.405-.632-.575-.928-.061-.106-.305-.509-.544-.9s-.484-.79-.545-.9-.23-.386-.376-.623a2.791,2.791,0,0,1-.264-.5.06.06,0,0,0-.052-.065c-.029,0-.111-.108-.183-.24-.108-.2-.776-1.3-.813-1.34a3.44,3.44,0,0,0-.259.384m.8,2.775a1.657,1.657,0,0,1,.574.721.067.067,0,0,0,.064.068.067.067,0,0,1,.064.068,1.331,1.331,0,0,0,.192.348,1.384,1.384,0,0,1,.192.342.1.1,0,0,0,.05.084,6.453,6.453,0,0,1,.472.725c.232.387.573.949.758,1.248.31.5.408.666.649,1.1a1.408,1.408,0,0,0,.118.185c.055.055.457.72.658,1.088a4.407,4.407,0,0,0,.271.448c.077.093.223.329.99,1.6.2.334.519.853.7,1.152s.388.63.45.736.393.653.735,1.216l.8,1.312c.1.158.323.528.5.821s.329.547.329.564a2,2,0,0,0,.185.3c.1.148.271.412.376.588s.471.779.814,1.342.681,1.125.752,1.248.179.3.241.384.17.261.24.384.279.469.465.768c.416.668.72,1.175.887,1.477.07.126.244.405.387.621a3.3,3.3,0,0,1,.26.432,1.817,1.817,0,0,0,.192.319,1.813,1.813,0,0,1,.192.319,3.042,3.042,0,0,0,.256.417,3.043,3.043,0,0,1,.256.417,1.693,1.693,0,0,0,.184.308c.1.147.241.368.312.492s.318.534.552.914.424.705.424.724a3.527,3.527,0,0,0,.256.41,2.49,2.49,0,0,1,.256.43,1.041,1.041,0,0,0,.177.276,2.828,2.828,0,0,1,.272.415c.052.106.2.362.335.57a1.156,1.156,0,0,1-.276,1.736c-.158.082-2.373.094-17.12.094H15.6l-.241-.136c-.4-.224-.707-1.08-.448-1.24a.171.171,0,0,0,.064-.133,2.634,2.634,0,0,1,.32-.577,5.86,5.86,0,0,0,.32-.514,6.082,6.082,0,0,1,.311-.523c.361-.572.993-1.609,1.177-1.932.07-.123.21-.344.312-.492a1.626,1.626,0,0,0,.184-.31.794.794,0,0,1,.12-.212c.066-.093.177-.271.247-.394s.321-.541.56-.928c.712-1.155,1.184-1.952,1.184-2a.528.528,0,0,1,.122-.174,2.3,2.3,0,0,0,.248-.356c.069-.123.277-.469.462-.768s.631-1.034.992-1.632.807-1.333.993-1.632.395-.645.465-.768.21-.344.311-.492a1.648,1.648,0,0,0,.184-.309,2.381,2.381,0,0,1,.214-.372c.118-.182.272-.432.343-.555s.281-.469.467-.768.424-.688.529-.864a2.932,2.932,0,0,1,.231-.352,1.049,1.049,0,0,0,.135-.224c.052-.106.2-.356.336-.556a2.884,2.884,0,0,0,.242-.4,1.813,1.813,0,0,1,.192-.319,1.859,1.859,0,0,0,.192-.318,4.011,4.011,0,0,1,.276-.468c.3-.474.634-1.014.829-1.358.07-.123.21-.344.311-.492a1.663,1.663,0,0,0,.184-.309,1.781,1.781,0,0,1,.192-.32,1.781,1.781,0,0,0,.192-.32,1.663,1.663,0,0,1,.184-.309c.1-.147.242-.368.312-.492.118-.207,1.032-1.71,1.633-2.688.141-.229.315-.525.388-.658a2.363,2.363,0,0,1,.231-.352,2.641,2.641,0,0,0,.259-.43c.41-.821,1.046-1.1,1.73-.757m-.773,3.3c-.114.185-.3.487-.423.671a2.672,2.672,0,0,0-.215.372,3.261,3.261,0,0,1-.256.413,3.1,3.1,0,0,0-.256.416,3.1,3.1,0,0,1-.256.416,4.16,4.16,0,0,0-.256.4c0,.015-.306.528-.679,1.14s-.737,1.213-.808,1.337-.179.3-.241.384-.17.261-.24.384-.279.469-.464.768-.387.63-.448.736c-.123.213-1.02,1.691-1.528,2.517-.18.293-.328.547-.328.564a2.117,2.117,0,0,1-.192.311,1.384,1.384,0,0,0-.192.342.116.116,0,0,1-.08.092c-.044.016-.062.048-.04.072s.08,0,.128-.044c.235-.234.382-.239,7.028-.239,6.362,0,6.51,0,6.754.127.305.156.344.129.169-.117a.765.765,0,0,1-.135-.26.065.065,0,0,0-.057-.07c-.031,0-.1-.094-.162-.208s-.155-.294-.217-.4a8.139,8.139,0,0,0-.525-.864c-.021-.018-.235-.363-.475-.768s-.589-.981-.776-1.28-.417-.688-.513-.864a2.65,2.65,0,0,0-.213-.352,2.179,2.179,0,0,1-.307-.528c-.02-.062-.061-.112-.092-.112s-.056-.043-.056-.1-.029-.1-.064-.1a.079.079,0,0,1-.069-.08,1.391,1.391,0,0,0-.176-.349c-.094-.148-.4-.638-.672-1.088s-.614-1-.752-1.225-.251-.416-.251-.428a7.354,7.354,0,0,0-.453-.734,2.524,2.524,0,0,1-.192-.32,2.929,2.929,0,0,0-.189-.32c-.019-.018-.159-.241-.311-.5-.33-.552-.268-.537-.521-.128m7.621,17.792,0,6h7.3l-.081-.144a1.254,1.254,0,0,0-.113-.176,1.559,1.559,0,0,1-.128-.224,1.445,1.445,0,0,0-.129-.224c-.018-.018-.233-.363-.478-.768s-.595-.981-.779-1.28c-.471-.767-1.125-1.859-1.225-2.047a.856.856,0,0,0-.129-.192,2.048,2.048,0,0,1-.312-.529c-.02-.062-.061-.112-.092-.112a.057.057,0,0,1-.056-.058,2.724,2.724,0,0,0-.255-.464c-.14-.224-.328-.536-.418-.694s-.319-.533-.51-.832-.4-.645-.459-.768a1.2,1.2,0,0,0-.156-.256,1.561,1.561,0,0,1-.179-.272l-.271-.48a1.764,1.764,0,0,0-.176-.272,1.469,1.469,0,0,1-.161-.256c-.115-.214-.4-.678-.841-1.376-.112-.176-.235-.378-.275-.448-.053-.1-.072,1.4-.074,5.872M24.976,33.539c-.044.086-.108.2-.142.253-.082.127-.883,1.451-1.026,1.7-.061.106-.263.437-.449.736s-.394.645-.464.768-.21.344-.311.492a2.063,2.063,0,0,0-.184.3,4.42,4.42,0,0,1-.252.436c-.315.508-1.01,1.657-1.212,2-.084.143-.235.38-.336.528a1.7,1.7,0,0,0-.184.308,2.943,2.943,0,0,1-.251.409c-.138.2-.307.468-.375.588-.576,1.016-1.6,2.693-1.671,2.747a1.134,1.134,0,0,0-.15.256l-.106.224,3.591.016c1.975.009,3.6.007,3.613-.006s.015-2.7.006-5.965a50.308,50.308,0,0,0-.1-5.786m2.262,1.25c-.021.056-.039,2.446-.039,5.312v5.211H37.824V34.688H32.551c-4.749,0-5.277.01-5.312.1m5.785.315c.372.192.5.459.525,1.058l.019.542.256.12a7.476,7.476,0,0,1,.654.374l.4.254.412-.23a1.077,1.077,0,1,1,1.023,1.857c-.376.177-.376.177-.362.944l.013.711.464.321c1.4.967.273,2.593-1.216,1.754-.337-.19-.344-.191-.512-.077-.094.064-.386.232-.65.374l-.48.258-.019.561-.019.561-.259.252c-.756.734-1.784.2-1.784-.932v-.463l-.41-.2a3.684,3.684,0,0,1-.615-.37l-.2-.172-.364.2c-.845.464-1.512.287-1.837-.49-.15-.358.21-1.224.508-1.224a1.491,1.491,0,0,0,.3-.17l.256-.17-.018-.738-.018-.738-.364-.213c-1.484-.867-.428-2.678,1.072-1.839l.409.229.338-.224a4.938,4.938,0,0,1,.642-.354l.3-.13v-.485c0-.983.76-1.552,1.536-1.151m-.992,3.719c-.6.308-1.124,1.265-.8,1.465a.175.175,0,0,1,.064.136c0,.394.709.92,1.24.92a1.313,1.313,0,0,0,.573-2.49c-.1-.047-.23-.11-.291-.141a.881.881,0,0,0-.785.111" fill="#040404" fill-rule="evenodd"/>
        <path id="path2" d="M31.933,12.112c-.09.079-.131.123-.092.1a2.921,2.921,0,0,1,.291-.141c.153-.066.181-.1.092-.1a.551.551,0,0,0-.291.141M33,12.092a.938.938,0,0,1,.44.417c.1.163.188.283.2.266.117-.117-.567-.809-.8-.806-.063,0,.005.056.152.122m-1.5.491c-.082.126-.136.242-.121.256s.1-.088.2-.23.148-.257.121-.256a.692.692,0,0,0-.2.23m-.355.6c-.181.274-.228.436-.066.225a1.469,1.469,0,0,0,.259-.48,1.341,1.341,0,0,0-.194.255m2.78.1a2.454,2.454,0,0,0,.2.32c.1.1-.123-.3-.242-.448-.059-.07-.042-.013.037.128m-3.164.543c-.181.274-.228.436-.066.225a1.469,1.469,0,0,0,.259-.48,1.341,1.341,0,0,0-.194.255m3.612.193a7.2,7.2,0,0,0,.618.96,2.419,2.419,0,0,0-.345-.581.369.369,0,0,1-.087-.16.643.643,0,0,0-.132-.219l-.131-.16.077.16m-4.068.576c-.055.106-.085.192-.067.192a.551.551,0,0,0,.131-.192c.055-.106.085-.192.067-.192a.551.551,0,0,0-.131.192m-.308.5c-.229.369-.246.4-.214.4a1.632,1.632,0,0,0,.227-.32,1.166,1.166,0,0,0,.166-.32.974.974,0,0,0-.18.24m2.35.153c-.27.427-.552.935-.44.791.055-.07.222-.323.372-.561l.272-.433.3.5c.258.432.564.875.476.689-.06-.126-.7-1.153-.747-1.207-.029-.03-.132.07-.23.224m2.662-.18a2.3,2.3,0,0,0,.366.555,2.36,2.36,0,0,0-.312-.541c-.03-.033-.054-.04-.054-.015m-5.639,1.048c-.43.695-.484.842-.09.243a3.138,3.138,0,0,0,.46-.8,5.505,5.505,0,0,0-.37.557m6.119-.237a.551.551,0,0,0,.131.192c.018,0-.013-.086-.067-.192a.551.551,0,0,0-.131-.192c-.018,0,.013.086.067.192m-2.14.48a.459.459,0,0,0,.094.188c.052.068.094.1.094.06a.46.46,0,0,0-.094-.188c-.052-.068-.094-.1-.094-.06m-1.82.24-.115.208.132-.16c.117-.142.169-.256.116-.256a1.045,1.045,0,0,0-.133.208m-2.679.384c-.14.216-.266.473-.2.4a2.137,2.137,0,0,0,.319-.544c-.016,0-.072.065-.123.144m2.421.016c-.058.088-.08.16-.05.16s.088-.072.128-.16.062-.16.05-.16a.617.617,0,0,0-.128.16m2.586.192a3.055,3.055,0,0,0,.264.416c.108.132.1.114-.019-.1-.225-.394-.413-.635-.245-.315m2.525.144a.633.633,0,0,0,.132.208c.064,0,.023-.1-.1-.256l-.13-.16.1.208m-5.423.179c-.095.157-.151.285-.126.284a1.592,1.592,0,0,0,.316-.551,1.035,1.035,0,0,0-.191.266m-2.637.323c-.06.091-.094.18-.076.2s.078-.057.135-.166c.124-.241.09-.26-.059-.032m5.919.01a.7.7,0,0,0,.132.208l.13.16L34.4,18c-.1-.2-.164-.265-.161-.16m2.562.192c.139.235.405.668.825,1.344a1.865,1.865,0,0,0,.238.336c.016,0,.016-.022,0-.048l-.365-.592c-.185-.3-.434-.71-.554-.912a1.84,1.84,0,0,0-.252-.368c-.019,0,.03.108.108.24m-6.182.032-.1.208.13-.16c.126-.154.167-.256.1-.256a.633.633,0,0,0-.132.208m1.3.184c-.192.143-.591.685-.541.735.017.017.109-.1.2-.266a1.4,1.4,0,0,1,.392-.425.893.893,0,0,0,.218-.154c0-.057-.106-.014-.273.111m2.758.292a6.481,6.481,0,0,0,.632.98c.019,0-.008-.065-.059-.144s-.216-.353-.367-.609a3.493,3.493,0,0,0-.332-.5c-.031-.019.025.1.126.273m-4.355,0a5.381,5.381,0,0,0-.3.529c-.147.306-.115.266.267-.337.265-.418.292-.588.031-.193m3.18.192a.633.633,0,0,0,.132.208c.064,0,.023-.1-.1-.256l-.13-.16.1.208m-5.968.378c-.282.482-.233.495.064.018.13-.209.216-.379.191-.378a1.424,1.424,0,0,0-.255.361m6.391.326c.163.272.251.383.251.315a2.3,2.3,0,0,0-.366-.555c-.016,0,.036.108.115.24m-2.938.119a.621.621,0,0,0-.123.255c.014.014.1-.089.193-.23s.148-.255.123-.255a.737.737,0,0,0-.193.23m-1.7.684a6.418,6.418,0,0,0-.432.778,14.7,14.7,0,0,0,.979-1.626,7.167,7.167,0,0,0-.547.848m-2.138-.483a4.211,4.211,0,0,0-.439.784,3.447,3.447,0,0,0,.321-.48c.286-.472.356-.65.118-.3m8.176-.159a3.2,3.2,0,0,0,.256.439,2.7,2.7,0,0,1,.256.45.06.06,0,0,0,.065.054c.036,0-.055-.194-.2-.432-.282-.455-.374-.581-.374-.511m2.656.367a.551.551,0,0,0,.131.192c.018,0-.013-.086-.067-.192a.551.551,0,0,0-.131-.192c-.018,0,.013.086.067.192m-3.415.512a5.758,5.758,0,0,0,.418.64,1.25,1.25,0,0,0-.169-.336c-.11-.185-.278-.472-.373-.639a1.038,1.038,0,0,0-.218-.3,3.313,3.313,0,0,0,.342.639m-3.927-.336c-.2.3-.32.528-.283.528a.813.813,0,0,0,.154-.214c.069-.117.176-.29.238-.384s.1-.17.081-.17a1.022,1.022,0,0,0-.189.24m7.673.371c.09.16.176.278.192.262a1.688,1.688,0,0,0-.328-.553,1.049,1.049,0,0,0,.136.291m-11.807.292c-.06.11-.172.3-.249.414-.175.267-.287.475-.256.475a7.441,7.441,0,0,0,.552-.848c.079-.132.126-.24.1-.24s-.089.09-.149.2m9.461-.167a.612.612,0,0,0,.131.224q.13.159.065.032c-.108-.209-.2-.324-.2-.256m-5.929.5c-.132.22-.282.465-.332.544s-.076.144-.057.144a2.147,2.147,0,0,0,.275-.4c.132-.22.282-.465.332-.544s.076-.144.057-.144a2.147,2.147,0,0,0-.275.4m6.183-.044a1.814,1.814,0,0,0,.18.3c.1.147.259.4.355.572a1.235,1.235,0,0,0,.21.3,4.461,4.461,0,0,0-.509-.912c-.185-.29-.236-.348-.236-.268m2.565.188a2.454,2.454,0,0,0,.2.32c.1.1-.123-.3-.242-.448-.059-.07-.042-.013.037.128m-10.151.048-.1.208.13-.16c.126-.154.167-.256.1-.256a.633.633,0,0,0-.132.208m3.7.064a4.45,4.45,0,0,0-.488.859,6.159,6.159,0,0,0,.357-.544c.165-.27.333-.483.373-.473s.055-.012.032-.048c-.061-.1-.076-.088-.274.206m2.751-.064c.051.079.211.346.355.592s.306.506.36.576c.179.232.107.037-.112-.3-.118-.184-.308-.486-.423-.671a1.676,1.676,0,0,0-.241-.336c-.018,0,.009.065.06.144m-2.39.08a1.627,1.627,0,0,0,.167.256l.1.128-.063-.128a1.628,1.628,0,0,0-.167-.256l-.1-.128.063.128m-4.275.278c-.1.2-.083.25.033.084.056-.08.088-.161.069-.18s-.064.025-.1.1m-2.653.328c-.181.274-.228.436-.066.225a1.469,1.469,0,0,0,.259-.48,1.341,1.341,0,0,0-.194.255m7.267-.031c.04.088.1.16.128.16s.008-.072-.05-.16a.617.617,0,0,0-.128-.16c-.013,0,.009.072.05.16m-3.546.048a3.425,3.425,0,0,0-.171.3c-.109.224.089-.015.224-.272.112-.212.077-.233-.053-.032m9.736-.048c.108.209.2.324.2.256a.611.611,0,0,0-.131-.224q-.13-.159-.065-.032m-11.1.176-.1.208.13-.16c.126-.154.167-.256.1-.256a.633.633,0,0,0-.132.208m-2.684.406c-.06.091-.094.18-.076.2s.078-.057.135-.166c.124-.241.09-.26-.059-.032m7.977.058c.04.088.1.16.128.16s.008-.072-.05-.16a.617.617,0,0,0-.128-.16c-.013,0,.009.072.05.16m-1.872.043c-.044.082-.121.214-.172.293s-.08.144-.063.144a1.582,1.582,0,0,0,.346-.555c-.017-.017-.067.036-.111.118m5.669.053a.551.551,0,0,0,.131.192c.018,0-.013-.086-.067-.192a.551.551,0,0,0-.131-.192c-.018,0,.013.086.067.192m-9.472.064c-.055.106-.085.192-.067.192a.551.551,0,0,0,.131-.192c.055-.106.085-.192.067-.192a.551.551,0,0,0-.131.192M36,22.832a.633.633,0,0,0,.132.208c.064,0,.023-.1-.1-.256l-.13-.16.1.208m-7.036.054c-.06.091-.094.18-.076.2s.078-.057.135-.166c.124-.241.09-.26-.059-.032m10.889.138c.38.654.8,1.331.868,1.392.038.035.014-.029-.053-.143-.585-.989-.934-1.553-.96-1.553a.975.975,0,0,0,.145.3m-14.688-.042c-.121.194-.048.22.078.028.058-.089.084-.162.056-.162s-.088.06-.134.134m8.533.058a.551.551,0,0,0,.131.192c.018,0-.013-.086-.067-.192a.551.551,0,0,0-.131-.192c-.018,0,.013.086.067.192m-6.264.255c-.193.292-.226.412-.05.186.135-.174.283-.441.244-.441a1.316,1.316,0,0,0-.194.255m8.878.049c.329.555.443.724.469.7a1.644,1.644,0,0,0-.232-.429,2.758,2.758,0,0,1-.259-.455.058.058,0,0,0-.06-.054c-.033,0,0,.108.082.24m-11.462.192c-.693,1.115-.928,1.522-.8,1.392.046-.048.787-1.242,1.022-1.648.015-.026.015-.048,0-.048a1.547,1.547,0,0,0-.218.3m3.672.079c-.181.274-.228.436-.066.225a1.469,1.469,0,0,0,.259-.48,1.341,1.341,0,0,0-.194.255m2.485-.047-.1.208.13-.16c.126-.154.167-.256.1-.256a.633.633,0,0,0-.132.208m6.785.1a3.662,3.662,0,0,0,.3.464l.133.16-.093-.16-.27-.464a1.426,1.426,0,0,0-.207-.3,1,1,0,0,0,.136.3M33.984,23.5a3.642,3.642,0,0,0,.251.445c.138.224.473.774.745,1.224a9.741,9.741,0,0,0,.549.852c.057.035-1.388-2.39-1.489-2.5-.031-.033-.056-.044-.056-.022m-6.824.259-.459.752a3.941,3.941,0,0,0-.343.608c.064-.06.72-1.084.851-1.328.068-.127.025-.155-.049-.032m.977.495c-.16.242-.23.417-.115.286A2.36,2.36,0,0,0,28.334,24a1.2,1.2,0,0,0-.2.255M30.5,24.4l-.115.208.132-.16c.117-.142.169-.256.116-.256a1.045,1.045,0,0,0-.133.208m7.831.16a3.33,3.33,0,0,0,.268.4l.132.16-.112-.186-.238-.4c-.173-.294-.218-.271-.05.026m2.527.128a.633.633,0,0,0,.132.208c.064,0,.023-.1-.1-.256l-.13-.16.1.208m-3.609.2a1.971,1.971,0,0,0,.233.332,1.969,1.969,0,0,0-.352-.591c-.048-.04.006.077.119.26M27.684,25a1.285,1.285,0,0,0-.209.387c.016.016.086-.069.156-.188s.178-.293.239-.387.1-.17.081-.17a2.137,2.137,0,0,0-.268.358m2.573-.214c-.14.216-.266.473-.2.4a2.137,2.137,0,0,0,.319-.544c-.016,0-.072.065-.123.144m-6.413.4a3.9,3.9,0,0,0-.462.84c.015.015.1-.1.184-.248s.222-.383.3-.515c.162-.268.143-.331-.024-.077m14.878-.017a2.288,2.288,0,0,0,.36.559,1.469,1.469,0,0,0-.259-.48c-.054-.07-.1-.106-.1-.079m2.524.159a.633.633,0,0,0,.132.208c.064,0,.023-.1-.1-.256l-.13-.16.1.208M26.1,25.507a.939.939,0,0,0-.142.285,1.874,1.874,0,0,0,.338-.547c-.013-.013-.1.105-.2.262m3.574.255c-.161.265-.339.553-.4.64s-.088.158-.068.158a4.016,4.016,0,0,0,.38-.56c.455-.739.444-.72.408-.72a3.373,3.373,0,0,0-.324.482m-2.419-.05a2.313,2.313,0,0,0-.345.656,1.2,1.2,0,0,0,.181-.272c.084-.15.2-.351.269-.448s.1-.176.085-.176a1.027,1.027,0,0,0-.19.24m10.47-.08a2.038,2.038,0,0,0,.2.32c.1.12.1.116.01-.064a2.038,2.038,0,0,0-.2-.32c-.1-.12-.1-.116-.01.064m1.387.192a.612.612,0,0,0,.125.224c.069.088.125.131.125.1a.612.612,0,0,0-.125-.224c-.069-.088-.125-.131-.125-.1m2.651.336a.633.633,0,0,0,.132.208c.064,0,.023-.1-.1-.256l-.13-.16.1.208m-18.579.086c-.121.194-.048.22.078.028.058-.089.084-.162.056-.162s-.088.06-.134.134m14.839-.121a2.931,2.931,0,0,0,.362.561c.062.057-.156-.343-.261-.478-.054-.07-.1-.108-.1-.083m-15.072.536c-.06.091-.1.176-.084.19s.075-.061.137-.165c.138-.234.1-.253-.053-.024m2.448-.024a1.262,1.262,0,0,0-.221.434,1.794,1.794,0,0,0,.344-.552c-.016-.016-.071.038-.123.118m3.627.194-.1.208.13-.16c.126-.154.167-.256.1-.256a.633.633,0,0,0-.132.208M39.7,26.784a2.113,2.113,0,0,0,.2.32c.059.07.042.013-.037-.128-.174-.311-.3-.46-.167-.192m2.51.128a2.959,2.959,0,0,0,.27.416c.05.053,0-.062-.112-.256a3.317,3.317,0,0,0-.27-.416c-.037-.035.014.08.112.256M38.477,26.9c.05.079.245.4.433.705a2.778,2.778,0,0,0,.369.534,1.222,1.222,0,0,0-.192-.369c-.121-.188-.313-.493-.427-.678a1.676,1.676,0,0,0-.241-.336c-.018,0,.008.065.059.144m-12.01.086c-.06.091-.094.18-.076.2s.078-.057.135-.166c.124-.241.09-.26-.059-.032m-3.859.229c-.2.36-.149.372.065.018.095-.157.151-.285.126-.284a.778.778,0,0,0-.191.266m13.49-.219a.7.7,0,0,0,.132.208l.13.16-.1-.208c-.1-.2-.164-.265-.161-.16m-11.085.286a2.406,2.406,0,0,0-.329.594,3.161,3.161,0,0,0,.448-.714c-.015-.015-.068.039-.119.12m15.158.3c.1.174.189.3.2.291a1.984,1.984,0,0,0-.348-.607.992.992,0,0,0,.145.316m-14.088.041c-.06.091-.1.176-.084.19s.075-.061.137-.165c.138-.234.1-.253-.053-.024m2.438.042-.115.208.132-.16c.117-.142.169-.256.116-.256a1.045,1.045,0,0,0-.133.208m14.21.1a6.179,6.179,0,0,0,.656,1.008,1.689,1.689,0,0,0-.187-.352c-.1-.158-.271-.439-.38-.624a1.552,1.552,0,0,0-.231-.336.888.888,0,0,0,.142.3m-20.447-.016c-.04.088-.062.16-.05.16a.617.617,0,0,0,.128-.16c.058-.088.08-.16.05-.16s-.088.072-.128.16m14.292.032a.551.551,0,0,0,.131.192c.018,0-.013-.086-.067-.192a.551.551,0,0,0-.131-.192c-.018,0,.013.086.067.192m-12.118.413a.673.673,0,0,0-.108.227,1.018,1.018,0,0,0,.273-.422c-.017-.017-.091.071-.165.2m12.278-.1a.13.13,0,0,0,.059.1,3.856,3.856,0,0,1,.354.532,14.51,14.51,0,0,0,.831,1.34,4.586,4.586,0,0,0-.444-.812c-.042-.053-.227-.348-.41-.656-.324-.542-.39-.627-.39-.5m-8.608.2c-.055.106-.085.192-.067.192a.551.551,0,0,0,.131-.192c.055-.106.085-.192.067-.192a.551.551,0,0,0-.131.192m12.487.016c.059.114.183.323.276.464s.209.335.258.432.114.176.144.176-.052-.166-.182-.368-.307-.49-.391-.64c-.18-.319-.259-.367-.1-.064m-1.224.088c.06.092.209.337.33.544.21.359.367.535.207.232a7.3,7.3,0,0,0-.613-.944c-.018,0,.016.076.076.168m-13.821.062c-.06.091-.094.18-.076.2s.078-.057.135-.166c.124-.241.09-.26-.059-.032m-1.416.239a4.057,4.057,0,0,0-.431.779,6.338,6.338,0,0,0,.585-.961c-.012-.012-.081.07-.154.182m-2.489.075-.2.328c-.056.092-.073.15-.037.127a1.443,1.443,0,0,0,.226-.328c.169-.3.178-.4.011-.127m21.828.256a.617.617,0,0,0,.128.16c.013,0-.009-.072-.05-.16s-.1-.16-.128-.16-.008.072.05.16m-15.88.112-.1.208.13-.16c.126-.154.167-.256.1-.256a.633.633,0,0,0-.132.208m-2.568.194c-.107.184-.348.579-.535.878a5.576,5.576,0,0,0-.618,1.088,1.094,1.094,0,0,0,.187-.272c.085-.15.308-.517.494-.816a6.713,6.713,0,0,0,.689-1.19,1.155,1.155,0,0,0-.217.312m18.7.094a.633.633,0,0,0,.132.208c.064,0,.023-.1-.1-.256l-.13-.16.1.208M20.9,30.016a8.171,8.171,0,0,0-.424.752,7.779,7.779,0,0,0,.7-1.088c.362-.635.172-.4-.272.336m6.473-.5c-.14.216-.266.473-.2.4a2.137,2.137,0,0,0,.319-.544c-.016,0-.072.065-.123.144m13.969-.048a.612.612,0,0,0,.131.224q.13.159.065.032c-.108-.209-.2-.324-.2-.256m-17.82.256c-.058.088-.08.16-.05.16s.088-.072.128-.16.062-.16.05-.16a.617.617,0,0,0-.128.16m16.7.032a.551.551,0,0,0,.131.192c.018,0-.013-.086-.067-.192a.551.551,0,0,0-.131-.192c-.018,0,.013.086.067.192m1.376.161a1.5,1.5,0,0,0,.337.478c.027,0-.027-.114-.12-.255-.16-.241-.216-.3-.216-.223m-18.336.223c-.055.106-.085.192-.067.192a.551.551,0,0,0,.131-.192c.055-.106.085-.192.067-.192a.551.551,0,0,0-.131.192m3.716.035c-.059.089-.19.3-.292.477s-.235.395-.3.493-.079.15-.041.115a11.786,11.786,0,0,0,.763-1.2c.079-.13-.042-.027-.134.115m11.212.284a1.063,1.063,0,0,0,.223.32c.026,0-.041-.143-.149-.319-.254-.413-.3-.414-.074,0m2.449-.015a.7.7,0,0,0,.132.208l.13.16-.1-.208c-.1-.2-.164-.265-.161-.16M22.9,30.736c-.042.079-.118.216-.169.3-.089.153-.088.155.015.032.128-.152.307-.48.262-.48-.017,0-.066.065-.108.144m19.209.032a.7.7,0,0,0,.132.208l.13.16-.1-.208c-.1-.2-.164-.265-.161-.16m2.563.176a2.454,2.454,0,0,0,.2.32c.1.1-.123-.3-.242-.448-.059-.07-.042-.013.037.128M20.3,30.982c-.121.194-.048.22.078.028.058-.089.084-.162.056-.162s-.088.06-.134.134m18.261.058a.551.551,0,0,0,.131.192c.018,0-.013-.086-.067-.192a.551.551,0,0,0-.131-.192c-.018,0,.013.086.067.192m2.483.048a7.413,7.413,0,0,0,.6.956,5.833,5.833,0,0,0-.595-1c-.017,0-.019.022,0,.048m-21.1.5c-.244.367-.318.545-.117.282a2.828,2.828,0,0,0,.378-.633,2.2,2.2,0,0,0-.261.351M22.5,31.39c-.058.089-.084.162-.056.162.062,0,.228-.258.19-.3-.015-.015-.076.045-.134.134m1.141.232a.7.7,0,0,0-.136.291c.016.016.1-.1.192-.262.2-.363.166-.382-.056-.029m2.524-.118c-.042.079-.118.216-.169.3-.089.153-.088.155.015.032.128-.152.307-.48.262-.48-.017,0-.066.065-.108.144m16.412.016a2.113,2.113,0,0,0,.2.32c.059.07.042.013-.037-.128-.174-.311-.3-.46-.167-.192m2.515.144c.095.167.265.448.378.624s.3.471.413.656a1.973,1.973,0,0,0,.235.336c.034,0-.1-.235-.453-.8-.155-.246-.37-.6-.479-.784a1.556,1.556,0,0,0-.232-.336.876.876,0,0,0,.138.3m-6.247-.151a.75.75,0,0,0,.114.221,3.837,3.837,0,0,1,.2.346c.049.1.112.176.14.176s-.037-.151-.145-.336c-.207-.354-.312-.492-.312-.407m-13.1.7c-.178.271-.228.364-.2.364a2.019,2.019,0,0,0,.352-.546c-.012-.012-.083.07-.156.182m17.261.028a5.545,5.545,0,0,0,.552.848c.017,0-.027-.094-.1-.208s-.218-.359-.326-.544A1.465,1.465,0,0,0,42.906,32c-.02,0,.028.108.106.24m-23.54.128a3.5,3.5,0,0,0-.444.784,10.837,10.837,0,0,0,.646-1.008c.125-.22-.038-.04-.2.224m2.424.016a.77.77,0,0,0-.116.256,1.256,1.256,0,0,0,.2-.256c.093-.141.145-.256.116-.256s-.118.115-.2.256m17.464-.03a.942.942,0,0,0,.135.231c.161.226.123.3-.081.157a.574.574,0,0,0-.209-.1c-.034,0,.069.084.231.186a1.659,1.659,0,0,1,.348.272c.031.047.07,2.822.088,6.166l.032,6.08,3.7.016c2.033.009,3.7-.007,3.7-.036,0-.08-.188-.31-.19-.234a.247.247,0,0,0,.075.144,22.215,22.215,0,0,1-3.585.077H39.934l.017-6.048c.009-3.326,0-6.048-.019-6.048a2.033,2.033,0,0,1-.254-.421c-.2-.385-.317-.548-.317-.44m2.529.12.238.4a.776.776,0,0,0,.156.214,2.226,2.226,0,0,0-.373-.64l-.132-.16.112.186m-18.815.075c-.06.091-.094.18-.076.2s.078-.057.135-.166c.124-.241.09-.26-.059-.032m6.195.074c1.824.009,4.791.009,6.592,0s.309-.017-3.317-.017-5.1.008-3.275.017m-7.743.384c-.316.5-.474.794-.4.751a1.478,1.478,0,0,0,.226-.34c.089-.165.22-.393.293-.508s.119-.208.1-.208a1.663,1.663,0,0,0-.219.3m1.294-.013a3.311,3.311,0,0,0-.426.769,1.394,1.394,0,0,0,.212-.308c.084-.149.2-.351.268-.447s.1-.176.084-.176a.513.513,0,0,0-.139.163m2.454-.024c-.035.064-.037.117-.006.117a.358.358,0,0,0,.163-.117c.094-.1.094-.117.006-.117a.219.219,0,0,0-.163.117m-.148.283c-.023.059-.04,2.8-.039,6.083l0,5.975H21.475c-3.414,0-3.613-.006-3.579-.112s.025-.1-.033-.016a.374.374,0,0,0-.07.144c0,.027,1.648.041,3.663.032l3.664-.016.032-6.08c.034-6.511.036-6.169-.025-6.01M42.4,33.32c.06.092.209.337.33.544a1.9,1.9,0,0,0,.255.376c.019,0-.03-.108-.108-.24a5.311,5.311,0,0,0-.554-.848c-.018,0,.017.076.077.168m1.185-.135a4.611,4.611,0,0,0,.5.735c.017,0-.02-.077-.081-.17s-.168-.267-.238-.384c-.117-.2-.177-.26-.177-.181m-24.743.243c-.073.112-.256.406-.408.652s-.375.6-.5.79a1.094,1.094,0,0,0-.188.373,10.848,10.848,0,0,0,.9-1.4c.066-.113.177-.287.246-.387s.115-.192.1-.2-.083.069-.155.181m21.292.22a2.424,2.424,0,0,0,.236.336c.051.053,0-.055-.111-.24a1.694,1.694,0,0,0-.236-.336c-.017,0,.033.108.111.24m-18.282.928-.53.88c-.053.088-.065.131-.026.1a14.482,14.482,0,0,0,1.018-1.7,7.773,7.773,0,0,0-.462.72m-1.177-.16c-.148.238-.213.374-.145.3a2.883,2.883,0,0,0,.441-.736,3.1,3.1,0,0,0-.3.432m23.426-.4c0,.085.179.319.216.282.016-.016-.027-.1-.094-.187s-.122-.13-.122-.1m-19.807.578c-.161.265-.339.553-.4.64s-.088.158-.068.158a4.016,4.016,0,0,0,.38-.56c.455-.739.444-.72.408-.72a3.373,3.373,0,0,0-.324.482m16.251-.29a.551.551,0,0,0,.131.192c.018,0-.013-.086-.067-.192a.551.551,0,0,0-.131-.192c-.018,0,.013.086.067.192m2.552.16a2.037,2.037,0,0,0,.2.32c.1.12.1.116.01-.064a2.038,2.038,0,0,0-.2-.32c-.1-.12-.1-.116-.01.064m1.511.4a3.329,3.329,0,0,0,.268.4l.132.16-.112-.186-.238-.4c-.173-.294-.218-.271-.05.026m-17.442-.1c-.017.044-.023,2.442-.014,5.328l.016,5.248,5.36.016,5.36.016-.016-5.36-.016-5.36-.017,5.328-.017,5.328H27.2L27.215,40c.009-2.922.009-5.312,0-5.312s-.032.036-.048.08m19.968.224a.633.633,0,0,0,.132.208c.064,0,.023-.1-.1-.256l-.13-.16.1.208m-6.078.144a.551.551,0,0,0,.131.192c.018,0-.013-.086-.067-.192a.551.551,0,0,0-.131-.192c-.018,0,.013.086.067.192m-8.928-.083a1.263,1.263,0,0,0-.637.832c0,.063.042,0,.091-.132a1.1,1.1,0,0,1,.631-.666c.112-.036.16-.066.108-.067a.646.646,0,0,0-.192.033m.768.057a1.746,1.746,0,0,1,.384.238l.16.14-.127-.151a1,1,0,0,0-.556-.327c-.046,0,.017.046.14.1m10.718.2a.633.633,0,0,0,.132.208c.064,0,.023-.1-.1-.256l-.13-.16.1.208m-23.577.134c-.1.2-.083.25.033.084.056-.08.088-.161.069-.18s-.064.025-.1.1m3.609.218-.1.208.13-.16c.126-.154.167-.256.1-.256a.633.633,0,0,0-.132.208m21.348-.16a.7.7,0,0,0,.132.208l.13.16-.1-.208c-.1-.2-.164-.265-.161-.16m2.592.24a2.96,2.96,0,0,0,.27.416c.05.053,0-.062-.112-.256a3.317,3.317,0,0,0-.27-.416c-.037-.035.014.08.112.256m-30.167-.026c-.121.194-.048.22.078.028.058-.089.084-.162.056-.162s-.088.06-.134.134m3.669.122c-.055.106-.085.192-.067.192a.551.551,0,0,0,.131-.192c.055-.106.085-.192.067-.192a.551.551,0,0,0-.131.192m20.386-.032a.612.612,0,0,0,.131.224q.13.159.065.032c-.108-.209-.2-.324-.2-.256m2.563.208c.163.272.251.383.251.315a2.3,2.3,0,0,0-.366-.555c-.016,0,.036.108.115.24m-24.4.084c-.059.1-.085.188-.057.188.053,0,.219-.321.184-.356-.011-.011-.068.065-.127.168m3.809-.116a3,3,0,0,0-.353.656,4.222,4.222,0,0,0,.437-.736c-.012,0-.05.036-.083.08m-6.345.29c-.168.338-.106.3.114-.066.079-.132.12-.239.09-.238a.841.841,0,0,0-.2.3m28.347-.041c.166.31.907,1.5.971,1.559.038.035.014-.029-.053-.143-.583-.985-.934-1.553-.96-1.553s0,.062.042.137m-3.713.023c0,.085.179.319.216.282.016-.016-.027-.1-.094-.187s-.122-.13-.122-.1m-22.49.49a1.606,1.606,0,0,0-.208.421,1.384,1.384,0,0,0,.259-.37,1.722,1.722,0,0,0,.208-.421,1.486,1.486,0,0,0-.259.37m25.121-.2c.054.088.28.462.5.832.415.692.656,1.022.373.512a16.613,16.613,0,0,0-.9-1.44c-.039-.035-.026.008.028.1m-23.786.128c-.055.106-.085.192-.067.192a.551.551,0,0,0,.131-.192c.055-.106.085-.192.067-.192a.551.551,0,0,0-.131.192m-3.728.016c-.091.114-.218.368-.185.368a.881.881,0,0,0,.16-.224c.132-.224.144-.295.025-.144m31.418.149c.225.394.413.635.245.315a3.054,3.054,0,0,0-.264-.416c-.108-.132-.1-.114.019.1m-14.731-.1c0,.037.044.084.1.1.15.058.168,0,.026-.093-.079-.049-.125-.054-.125-.012m.325.15a1.5,1.5,0,0,0,.443.2,1.191,1.191,0,0,0-.424-.227c-.025,0-.034.011-.019.024m8.253-.013a2.077,2.077,0,0,0,.206.365c.114.177.307.482.428.676s.233.34.25.324-.013-.081-.067-.143a5.84,5.84,0,0,1-.357-.56c-.272-.469-.456-.734-.46-.662m-19.364.262-.1.208.13-.16c.126-.154.167-.256.1-.256a.633.633,0,0,0-.132.208m5.826-.026a1.34,1.34,0,0,0-.288.237c-.059.073-.009.054.13-.05a2.161,2.161,0,0,1,.384-.233c.087-.035.115-.065.062-.067a.733.733,0,0,0-.288.114m7.766-.02a1.517,1.517,0,0,1,.41.3c.108.115.182.165.165.113a1.527,1.527,0,0,0-.682-.509c-.059,0-.011.044.107.1m-19.83.174c-.187.281-.2.334-.04.144.143-.167.207-.288.152-.288a.67.67,0,0,0-.112.144m3.683.022c-.06.091-.094.18-.076.2s.078-.057.135-.166c.124-.241.09-.26-.059-.032m14.366.021c.241.209.35.241.422.124.029-.047.017-.056-.032-.026s-.194-.026-.346-.122l-.268-.17.224.194m-15.695.086c-.14.216-.266.473-.2.4a2.137,2.137,0,0,0,.319-.544c-.016,0-.072.065-.123.144M29.848,37.3a.394.394,0,0,0,.573.076l.139-.149-.176.109c-.163.1-.191.1-.375.006-.109-.057-.182-.076-.161-.042m19.017.544c.062.1.128.162.148.142s-.031-.1-.112-.178l-.148-.142.112.178m-29.057.046c-.064.071-.1.144-.083.162s.081-.039.14-.128c.128-.195.1-.21-.057-.034m8.186.036a.522.522,0,0,0,.026.3c.058.12.068.1.072-.164,0-.336-.035-.392-.1-.14m9.015.124c0,.141.014.191.029.111a.7.7,0,0,0,0-.256c-.016-.061-.029,0-.028.145m-18.5-.08c-.091.114-.218.368-.185.368a.881.881,0,0,0,.16-.224c.132-.224.144-.295.025-.144m28.084.144a.459.459,0,0,0,.094.188c.052.068.094.1.094.06a.46.46,0,0,0-.094-.188c-.052-.068-.094-.1-.094-.06m2.516.128a2.037,2.037,0,0,0,.2.32c.1.12.1.116.01-.064a2.038,2.038,0,0,0-.2-.32c-.1-.12-.1-.116-.01.064m-33.458.39a2.827,2.827,0,0,0-.274.516,2.538,2.538,0,0,0,.322-.467,2.509,2.509,0,0,0,.274-.516,2.24,2.24,0,0,0-.322.467m3.7.041c-.171.291-.4.673-.512.849a9.461,9.461,0,0,0-.839,1.419,4.01,4.01,0,0,0,.443-.663c.228-.381.606-1,.842-1.388a5.03,5.03,0,0,0,.4-.721,2.6,2.6,0,0,0-.336.5m2.571-.208c-.193.292-.226.412-.05.186.135-.174.283-.441.244-.441a1.316,1.316,0,0,0-.194.255m23.617.032a1.348,1.348,0,0,0,.19.289,1.584,1.584,0,0,0-.29-.541c-.034-.021.012.092.1.252m-8.669,0c-.04.088-.048.16-.018.16.053,0,.149-.263.11-.3-.01-.011-.052.053-.092.141m6.226.028a.775.775,0,0,0,.162.228c.036.022,0-.063-.07-.188-.162-.275-.228-.3-.092-.04m-6.556.359c-.122.086-.194.157-.16.156a.783.783,0,0,0,.254-.158c.247-.2.193-.2-.094,0m10.43-.13a1.791,1.791,0,0,0,.366.518.744.744,0,0,0-.146-.289c-.163-.247-.22-.306-.22-.228m-29.08.239-.115.208.132-.16c.117-.142.169-.256.116-.256a1.045,1.045,0,0,0-.133.208m13.686.078a1.139,1.139,0,0,0-.282.368c0,.045.038.025.08-.044a2.08,2.08,0,0,1,.527-.527c.069-.042.089-.078.044-.08a1.139,1.139,0,0,0-.368.282m1.6-.194c.07.056.181.147.246.2s.131.086.148.07-.051-.086-.15-.154c-.24-.166-.4-.245-.244-.117m-11.58.134c-.059.089-.19.3-.292.477s-.235.395-.3.493-.079.15-.041.115a11.788,11.788,0,0,0,.763-1.2c.079-.13-.042-.027-.134.115m21.808,0a2.113,2.113,0,0,0,.2.32c.059.07.042.013-.037-.128-.174-.311-.3-.46-.167-.192m-14.868-.067a.551.551,0,0,0,.192.131c.106.055.192.085.192.067a.551.551,0,0,0-.192-.131c-.106-.055-.192-.085-.192-.067m.49.291a.712.712,0,0,1,.1.256l.029.16.009-.168a.339.339,0,0,0-.1-.256c-.1-.076-.1-.075-.038.008m-11.395.158c-.058.089-.084.162-.056.162.062,0,.228-.258.19-.3-.015-.015-.076.045-.134.134m28.38-.126a.612.612,0,0,0,.125.224c.069.088.125.131.125.1a.612.612,0,0,0-.125-.224c-.069-.088-.125-.131-.125-.1m1.429.256a2.038,2.038,0,0,0,.2.32c.1.12.1.116.01-.064a2.037,2.037,0,0,0-.2-.32c-.1-.12-.1-.116-.01.064m2.516.131c.09.16.174.28.188.266a1.456,1.456,0,0,0-.307-.557c-.024,0,.03.131.119.291m-34.89-.062c-.06.091-.094.18-.076.2s.078-.057.135-.166c.124-.241.09-.26-.059-.032m20.853.442c0,.352.011.488.024.3a5.2,5.2,0,0,0,0-.64c-.013-.166-.024-.014-.024.338m-18.554-.208-.1.208.13-.16c.126-.154.167-.256.1-.256a.633.633,0,0,0-.132.208m26.468-.1a.7.7,0,0,0,.132.208l.13.16-.1-.208c-.1-.2-.164-.265-.161-.16m-9.969.3c0,.141.014.191.029.111a.7.7,0,0,0,0-.256c-.016-.061-.029,0-.028.145m-19.308.39a1.285,1.285,0,0,0-.209.387c.016.016.086-.069.156-.188s.178-.293.239-.387.1-.17.081-.17a2.137,2.137,0,0,0-.268.358m2.563-.2c-.058.089-.084.162-.056.162.062,0,.228-.258.19-.3-.015-.015-.076.045-.134.134m3.639.178-.1.208.13-.16c.126-.154.167-.256.1-.256a.633.633,0,0,0-.132.208m27.2-.016a.551.551,0,0,0,.131.192c.018,0-.013-.086-.067-.192a.551.551,0,0,0-.131-.192c-.018,0,.013.086.067.192m2.434-.016c.215.334.286.428.286.381a2.2,2.2,0,0,0-.368-.557c-.017,0,.02.079.082.176m-21.274.219c-.006.121-.074.211-.233.309-.276.171-.3.244-.027.084s.33-.243.3-.416c-.026-.135-.029-.133-.037.023m15.225-.027a.7.7,0,0,0,.132.208l.13.16-.1-.208c-.1-.2-.164-.265-.161-.16m-12.961.209a1.443,1.443,0,0,0,.729.572c.056,0-.022-.064-.175-.138a1.242,1.242,0,0,1-.441-.381c-.195-.295-.252-.321-.113-.053m-14.651.095c-.058.088-.08.16-.05.16s.088-.072.128-.16.062-.16.05-.16a.617.617,0,0,0-.128.16M35.9,40.751a.733.733,0,0,0,.256.195c.33.188.329.144,0-.074-.141-.093-.256-.147-.256-.12m11.1.129a.633.633,0,0,0,.132.208c.064,0,.023-.1-.1-.256l-.13-.16.1.208m1.383.176a2.455,2.455,0,0,0,.2.32c.1.1-.123-.3-.242-.448-.059-.07-.042-.013.037.128m2.352-.12c.141.258.284.4.175.172a.785.785,0,0,0-.169-.248c-.051-.031-.052-.01-.005.076M14.1,41.2c-.356.572-.475.784-.438.784a1.465,1.465,0,0,0,.234-.336c.108-.185.255-.43.326-.544s.115-.208.1-.208a1.455,1.455,0,0,0-.22.3m19.28-.167a1.318,1.318,0,0,1-.32.22c-.155.072-.161.082-.032.049a1.608,1.608,0,0,0,.576-.382c0-.06-.107-.006-.224.113m11.315.087c.117.226.3.468.3.4a2.931,2.931,0,0,0-.362-.561c-.02-.018.008.053.063.158m-24.437.112-.1.208.13-.16c.126-.154.167-.256.1-.256a.633.633,0,0,0-.132.208m-3.871.224a4.034,4.034,0,0,1-.3.48c-.054.062-.084.127-.066.145.039.039.3-.34.492-.723.2-.4.116-.329-.122.1m30.882-.134c.061.094.169.268.239.387s.14.2.156.188a3.075,3.075,0,0,0-.477-.745c-.017,0,.02.077.081.17M17.7,41.382c-.06.091-.094.18-.076.2s.078-.057.135-.166c.124-.241.09-.26-.059-.032m19.108.058c.186.329.212.356.155.16a.815.815,0,0,0-.173-.288c-.112-.113-.109-.1.018.128m-4.374-.051a.7.7,0,0,0,.256,0c.061-.016,0-.029-.145-.028s-.191.014-.111.029m16.263.179a1.627,1.627,0,0,0,.167.256l.1.128-.063-.128a1.627,1.627,0,0,0-.167-.256l-.1-.128.063.128m-3.615.192c.185.344,1.008,1.662,1.078,1.728.088.082.1.1-.525-.928-.486-.8-.792-1.245-.552-.8M28,41.918a.5.5,0,0,0,.025.3c.053.091.067.052.069-.19,0-.347-.033-.39-.094-.114m9.008.1c0,.141.014.191.029.111a.7.7,0,0,0,0-.256c-.016-.061-.029,0-.028.145m10.688,0c.141.259.712,1.164.767,1.216.086.081.078.068-.334-.608a6.7,6.7,0,0,0-.4-.608q-.068-.064-.033,0m1.348.128a2.113,2.113,0,0,0,.2.32c.059.07.042.013-.037-.128-.174-.311-.3-.46-.167-.192m-35.555.048c-.14.216-.266.473-.2.4a2.138,2.138,0,0,0,.319-.544c-.016,0-.072.065-.123.144m3.7.022c-.06.091-.094.18-.076.2s.078-.057.135-.166c.124-.241.09-.26-.059-.032m-1.687.7a4.7,4.7,0,0,0-.406.735,10.372,10.372,0,0,0,.886-1.471,7.485,7.485,0,0,0-.48.736m1.433-.253c-.059.089-.19.3-.292.477s-.235.395-.3.493-.079.15-.041.115a11.787,11.787,0,0,0,.763-1.2c.079-.13-.042-.027-.134.115m2.3.237a5.193,5.193,0,0,0-.527.944,13.285,13.285,0,0,0,.744-1.2c.147-.285.02-.136-.217.256m17.579-.267a1.033,1.033,0,0,1-.285.253c-.113.069-.17.126-.125.126.1,0,.572-.424.524-.472-.019-.019-.07.023-.114.093m-7.02.158c-.211.12-.359.22-.328.22a2.423,2.423,0,0,0,.425-.2l.369-.2.246.2a1.19,1.19,0,0,0,.3.2c.03,0-.078-.1-.239-.224-.35-.268-.3-.268-.772,0m4.738-.028c-.14.1-.269.208-.288.228-.059.064.277-.122.453-.252l.167-.123.35.2a2.147,2.147,0,0,0,.409.2c.032,0-.122-.1-.342-.224-.475-.264-.43-.263-.749-.024m-6.1.073a.619.619,0,0,0,.259.174c.044,0,.021-.034-.049-.073a2.323,2.323,0,0,1-.259-.174c-.072-.057-.05-.024.049.073m23.518.083c.09.16.176.278.192.262a1.688,1.688,0,0,0-.328-.553,1.049,1.049,0,0,0,.136.291m-2.476-.079a2.3,2.3,0,0,0,.366.555,2.36,2.36,0,0,0-.312-.541c-.03-.033-.054-.04-.054-.015m-20.5.217a.7.7,0,0,0,.256,0c.061-.016,0-.029-.145-.028s-.191.014-.111.029m1.935-.014a.953.953,0,0,0,.421.209c.014-.014-.075-.073-.2-.132s-.223-.093-.223-.077m4.977.014a.7.7,0,0,0,.256,0c.061-.016,0-.029-.145-.028s-.191.014-.111.029M12.83,43.28l-.1.208.13-.16c.126-.154.167-.256.1-.256a.633.633,0,0,0-.132.208m37.086.3c.035.066.213.361.395.656s.549.9.816,1.348a6.682,6.682,0,0,0,.509.789c.022-.022-.564-1.03-1.071-1.839-.126-.2-.327-.525-.445-.72-.2-.334-.343-.493-.2-.234m2.505.12c.163.272.251.383.251.315a2.3,2.3,0,0,0-.366-.555c-.016,0,.036.108.115.24m-39.9.085a.751.751,0,0,0-.147.291c.015.015.106-.091.2-.236a.751.751,0,0,0,.147-.291c-.015-.015-.106.091-.2.236m33.775-.037a2.113,2.113,0,0,0,.2.32c.059.07.042.013-.037-.128-.174-.311-.3-.46-.167-.192m-30.141.211c-.037.06-.174.275-.3.477a1.616,1.616,0,0,0-.2.368,5.58,5.58,0,0,0,.6-.932c-.012-.012-.052.027-.09.087m2.308.221c-.092.15-.222.351-.291.448s-.1.176-.074.176c.052,0,.109-.082.41-.592a1.069,1.069,0,0,0,.15-.3,1.229,1.229,0,0,0-.2.272m-3.7-.048c-.058.088-.08.16-.05.16s.088-.072.128-.16.062-.16.05-.16a.617.617,0,0,0-.128.16m38.18.4c.282.454.447.67.308.4A5.579,5.579,0,0,0,52.7,44.1a2.184,2.184,0,0,0,.236.432m-40.743-.2c-.06.091-.094.18-.076.2s.078-.057.135-.166c.124-.241.09-.26-.059-.032m34.473.058c.04.088.1.16.128.16s.008-.072-.05-.16a.617.617,0,0,0-.128-.16c-.013,0,.009.072.05.16m-32.332.43c-.348.593-.332.562-.3.562a5.833,5.833,0,0,0,.595-1,2.106,2.106,0,0,0-.3.442m17.281-.288a1.541,1.541,0,0,0,.55.466c.028,0-.048-.073-.169-.161a1.822,1.822,0,0,1-.3-.268c-.044-.059-.08-.075-.08-.036M11.9,44.784c-.049.1-.172.3-.273.452a.81.81,0,0,0-.156.3,2.639,2.639,0,0,0,.432-.66.464.464,0,0,1,.106-.156c.058-.064.078-.117.043-.117s-.1.079-.152.176m21.224.018c-.138.1-.225.189-.192.188.06,0,.534-.379.475-.379a1.742,1.742,0,0,0-.283.19m13.75-.114c.021.044.055.13.077.192s.066.112.1.112.013-.086-.041-.192c-.094-.182-.212-.281-.133-.112m2.573.2c.092.164.178.288.192.274.038-.038-.159-.407-.265-.495-.052-.043-.019.056.073.221M32.4,45.038a1.142,1.142,0,0,0,.32,0c.079-.015,0-.027-.177-.027s-.24.013-.143.028m20.988.226c.05.079.2.324.332.544a2.351,2.351,0,0,0,.272.4c.037,0,.022-.027-.345-.624a3.039,3.039,0,0,0-.318-.464c-.018,0,.008.065.059.144m-38.244.3c-.181.274-.228.436-.066.225a1.469,1.469,0,0,0,.259-.48,1.341,1.341,0,0,0-.194.255m-1.232-.047c-.026.044-.092.151-.148.238s-.07.139-.02.108c.083-.051.3-.425.245-.425-.016,0-.051.036-.077.08m36.008.145a2.118,2.118,0,0,1,.192.4c.037.122.054.138.058.053a1.633,1.633,0,0,0-.354-.678c-.019,0,.028.1.1.225M13.56,46.1c-.042.079-.118.216-.169.3-.089.153-.088.155.015.032.128-.152.307-.48.262-.48-.017,0-.066.065-.108.144m1.33-.037a1.439,1.439,0,0,0,.006.7c.026.041.047-.11.047-.336s0-.41-.005-.41a.282.282,0,0,0-.048.043m-3.966.341c-.233.415-.177.415.078,0,.108-.176.176-.32.149-.32a1.071,1.071,0,0,0-.227.32m43.092-.105a1.742,1.742,0,0,0,.364.53.705.705,0,0,0-.141-.272c-.192-.283-.224-.319-.224-.258m-2.3.182a5.793,5.793,0,0,0,.544.915c.058.07.04.013-.04-.128a4.538,4.538,0,0,0-.5-.787m-38.544.259c-.14.216-.266.473-.2.4a2.138,2.138,0,0,0,.319-.544c-.016,0-.072.065-.123.144m36.95-.037a.94.94,0,0,1-.5.589c-.132.054-4.557.069-17.179.056-9.351-.009-16.969,0-16.928.03s7.709.048,17.04.048H49.517l.212-.144c.281-.191.467-.451.429-.6-.027-.1-.032-.1-.038.019m-39.626.421-.348.56c-.187.3-.319.559-.243.48.051-.054.666-1.034.813-1.3.13-.232-.043-.032-.222.256m4.556-.089a.745.745,0,0,0,.208.2c.094.057.078.021-.053-.119-.214-.228-.262-.253-.155-.081m39.445.057a.633.633,0,0,0,.132.208c.064,0,.023-.1-.1-.256l-.13-.16.1.208m-2.142.485a2.3,2.3,0,0,0,.366.555,2.36,2.36,0,0,0-.312-.541c-.03-.033-.054-.04-.054-.015m-39.832.251-.115.208.132-.16c.117-.142.169-.256.116-.256a1.045,1.045,0,0,0-.133.208m-.259.4c-.058.088-.08.16-.05.16s.088-.072.128-.16.062-.16.05-.16a.617.617,0,0,0-.128.16M52.8,48.3a.776.776,0,0,1,.068.176c0,.02-9.18.043-20.4.052l-20.4.016L32.5,48.56c16.8.013,20.432,0,20.432-.068a.446.446,0,0,0-.1-.208c-.1-.12-.1-.119-.032.016m2.547.177c.095.157.183.275.2.262a1.874,1.874,0,0,0-.338-.547.939.939,0,0,0,.142.285m-45.7.034c-.16.242-.23.417-.115.286a2.36,2.36,0,0,0,.312-.541,1.2,1.2,0,0,0-.2.255m-.331.582a.556.556,0,0,0-.082.253c.011.031.068-.057.127-.2.127-.3.1-.336-.045-.057m46.422.028c.032.07.075.171.094.224.031.083.036.082.041,0a.417.417,0,0,0-.094-.224c-.1-.122-.1-.122-.041,0M9.22,49.836a.23.23,0,0,0,.06.18c.076.047.076-.016,0-.192-.053-.123-.055-.123-.06.012m46.559.065a1.165,1.165,0,0,1-.547.617c-.119.055-5.905.082-22.656.106l-22.5.032,22.406.016c16.552.012,22.463,0,22.624-.057.374-.125.885-.722.74-.866-.015-.015-.047.053-.072.152m-46.435.238a1.353,1.353,0,0,0,.475.42c.032,0,.046-.006.031-.015s-.135-.115-.267-.236-.239-.2-.239-.168" fill="#505050" fill-rule="evenodd"/>
        <path id="path3" d="M32.433,12.013a.7.7,0,0,0,.256,0c.061-.016,0-.029-.145-.028s-.191.014-.111.029M25.466,32.935a.562.562,0,0,1-.2.144c-.061.023-.091.072-.066.109s.116-.015.228-.144.169-.212.152-.212a.336.336,0,0,0-.116.1m14.187.1c.068.091.132.139.144.108.032-.087.016-.156-.037-.157a.379.379,0,0,1-.139-.059c-.053-.033-.04.011.032.107M27.178,34.672c-.027.044,3.739.043,8.758,0,1.056-.009-.476-.024-3.4-.032s-5.338.007-5.354.033m4.331,1.68c0,.229.012.322.026.208a2.031,2.031,0,0,0,0-.416c-.014-.114-.026-.021-.026.208m0,7.36c0,.229.012.322.026.208a2.031,2.031,0,0,0,0-.416c-.014-.114-.026-.021-.026.208M50.127,46.4c0,.123.013.174.029.112a.529.529,0,0,0,0-.224c-.016-.062-.029-.011-.029.112M22.32,48.624c5.606.009,14.778.009,20.384,0s1.019-.016-10.192-.016-15.8.007-10.192.016m-1.056,1.984c6.186.009,16.31.009,22.5,0s1.125-.016-11.248-.016-17.434.007-11.248.016" fill="#7c7c7c" fill-rule="evenodd"/>
        <path id="path4" d="M32.087,12.1a.443.443,0,0,0-.177.12c-.032.052.314-.085.405-.161.048-.04-.088-.015-.228.041m.851.031a1.287,1.287,0,0,1,.373.3c.095.116.143.153.108.083a.959.959,0,0,0-.523-.44c-.121-.029-.111-.016.041.054m-1.243.306c-.036.044-.153.23-.26.413s-.245.414-.307.512-.079.15-.041.115a10.013,10.013,0,0,0,.694-1.12.268.268,0,0,0-.086.08m2.036.656a.612.612,0,0,0,.131.224q.13.159.065.032c-.108-.209-.2-.324-.2-.256m-2.842.688-.115.208.132-.16c.117-.142.169-.256.116-.256a1.045,1.045,0,0,0-.133.208m-.368.576c-.042.079-.118.216-.169.3-.089.153-.088.155.015.032.128-.152.307-.48.262-.48-.017,0-.066.065-.108.144m1.928.63c-.085.06-.085.065,0,.039a.3.3,0,0,1,.224.075c.127.1.127.1.006-.04a1.822,1.822,0,0,0-.128-.143s-.049.032-.1.069m2.516.136c.059.1.3.491.528.88a7.041,7.041,0,0,0,.451.707,14.092,14.092,0,0,0-1.016-1.7c-.039-.035-.022.014.037.109m-4.98.115c-.055.106-.085.192-.067.192a.551.551,0,0,0,.131-.192c.055-.106.085-.192.067-.192a.551.551,0,0,0-.131.192m2.878.176a.633.633,0,0,0,.132.208c.064,0,.023-.1-.1-.256l-.13-.16.1.208m-3.237.416c-.042.079-.118.216-.169.3-.089.153-.088.155.015.032.128-.152.307-.48.262-.48-.017,0-.066.065-.108.144m2.216.112c-.055.106-.085.192-.067.192a.551.551,0,0,0,.131-.192c.055-.106.085-.192.067-.192a.551.551,0,0,0-.131.192m-2.607.528c-.14.216-.266.473-.2.4a2.137,2.137,0,0,0,.319-.544c-.016,0-.072.065-.123.144m4.268.006c.669,1.118,1.021,1.685,1.078,1.738.037.035.025-.008-.027-.1-.632-1.068-.918-1.53-1.028-1.664l-.132-.16.109.182m-2.044.08c-.06.091-.1.176-.084.19s.075-.061.137-.165c.138-.234.1-.253-.053-.024m-2.57.49c-.22.374-.235.406-.123.272.13-.155.242-.352.2-.352-.017,0-.052.036-.078.08m7.3.112a.551.551,0,0,0,.131.192c.018,0-.013-.086-.067-.192a.551.551,0,0,0-.131-.192c-.018,0,.013.086.067.192m-5.246.23c-.06.091-.094.18-.076.2s.078-.057.135-.166c.124-.241.09-.26-.059-.032m-2.452.3-.238.4-.112.186.132-.16a2.226,2.226,0,0,0,.373-.64.776.776,0,0,0-.156.214M30.577,18c-.14.216-.266.473-.2.4a2.137,2.137,0,0,0,.319-.544c-.016,0-.072.065-.123.144m1.467.26a1.615,1.615,0,0,0-.593.7c-.164.3-.052.191.167-.17a.976.976,0,0,1,1.764-.1c.193.292.28.352.121.083a1.151,1.151,0,0,0-.48-.52.938.938,0,0,0-.978.012M28,18.5c-.055.106-.085.192-.067.192a.551.551,0,0,0,.131-.192c.055-.106.085-.192.067-.192A.551.551,0,0,0,28,18.5m2.232.08c-.22.374-.235.406-.123.272.13-.155.242-.352.2-.352-.017,0-.052.036-.078.08m4.616.112a.551.551,0,0,0,.131.192c.018,0-.013-.086-.067-.192a.551.551,0,0,0-.131-.192c-.018,0,.013.086.067.192m2.438.256a1.018,1.018,0,0,0,.2.3,2.232,2.232,0,0,0-.341-.618,1.084,1.084,0,0,0,.144.32m-7.406.208c-.042.079-.118.216-.169.3-.089.153-.088.155.015.032.128-.152.307-.48.262-.48-.017,0-.066.065-.108.144m5.388.208a2.454,2.454,0,0,0,.2.32c.1.1-.123-.3-.242-.448-.059-.07-.042-.013.037.128m-1.538-.128a.612.612,0,0,0,.131.224q.13.159.065.032c-.108-.209-.2-.324-.2-.256m-2.692.4a1.507,1.507,0,0,0-.19.368c0,.037.075-.062.165-.22a3.924,3.924,0,0,1,.231-.368c.037-.044.048-.08.025-.08a1.172,1.172,0,0,0-.232.3m6.823.244c.064.106.185.314.269.464a1.119,1.119,0,0,0,.183.272,3.015,3.015,0,0,0-.436-.768l-.133-.16.116.192m-10.757.1c-.055.106-.085.192-.067.192a.551.551,0,0,0,.131-.192c.055-.106.085-.192.067-.192a.551.551,0,0,0-.131.192m2.24.064c-.055.106-.085.192-.067.192a.551.551,0,0,0,.131-.192c.055-.106.085-.192.067-.192a.551.551,0,0,0-.131.192m6.367.057c.044.084.268.459.5.832s.489.8.574.951a1.094,1.094,0,0,0,.187.272c.018,0-.038-.122-.124-.272-.594-1.033-1.407-2.31-1.135-1.783m-1.375.135a.551.551,0,0,0,.131.192c.018,0-.013-.086-.067-.192a.551.551,0,0,0-.131-.192c-.018,0,.013.086.067.192m-5.374.422c-.06.091-.094.18-.076.2s.078-.057.135-.166c.124-.241.09-.26-.059-.032m1.4.106-.1.208.13-.16c.126-.154.167-.256.1-.256a.633.633,0,0,0-.132.208m-3.82.128c-.084.15-.205.358-.269.464l-.116.192.133-.16a3.015,3.015,0,0,0,.436-.768,1.119,1.119,0,0,0-.183.272m8.162-.048a2.113,2.113,0,0,0,.2.32c.059.07.042.013-.037-.128-.174-.311-.3-.46-.167-.192m3.98.416a.551.551,0,0,0,.131.192c.018,0-.013-.086-.067-.192a.551.551,0,0,0-.131-.192c-.018,0,.013.086.067.192m-10.095.016c-.14.216-.266.473-.2.4a2.137,2.137,0,0,0,.319-.544c-.016,0-.072.065-.123.144m3.655.128c-.042.079-.118.216-.169.3-.089.153-.088.155.015.032.128-.152.307-.48.262-.48-.017,0-.066.065-.108.144m2.931.224c.19.327.577.949.712,1.144a5.078,5.078,0,0,0-.527-.952c-.328-.538-.472-.688-.185-.192m-2.353-.144c.108.209.2.324.2.256a.612.612,0,0,0-.131-.224q-.13-.159-.065-.032m-6.866.384c-.057.088-.15.239-.207.336l-.1.176.129-.156c.152-.184.354-.516.313-.516a.529.529,0,0,0-.132.16m3.658.112c-.14.216-.266.473-.2.4a2.137,2.137,0,0,0,.319-.544c-.016,0-.072.065-.123.144m2.225.086c-.06.091-.094.18-.076.2s.078-.057.135-.166c.124-.241.09-.26-.059-.032m7.264-.134a.612.612,0,0,0,.131.224q.13.159.065.032c-.108-.209-.2-.324-.2-.256m-11.115.336c-.1.167-.2.347-.239.4-.058.085-.055.085.033,0a2.606,2.606,0,0,0,.412-.7,1.333,1.333,0,0,0-.206.3m5.382.128a.633.633,0,0,0,.132.208c.064,0,.023-.1-.1-.256l-.13-.16.1.208m-7.834.163c-.048.078-.129.206-.181.285s-.08.144-.063.144a1.882,1.882,0,0,0,.354-.547c-.013-.013-.063.04-.111.118m11.8.237a.551.551,0,0,0,.131.192c.018,0-.013-.086-.067-.192a.551.551,0,0,0-.131-.192c-.018,0,.013.086.067.192m-8.439.353c-.089.159-.134.272-.1.252a1.584,1.584,0,0,0,.29-.541,1.348,1.348,0,0,0-.19.289m4.891-.049a5.312,5.312,0,0,0,.554.848c.018,0-.017-.076-.077-.168s-.209-.337-.33-.544a1.9,1.9,0,0,0-.255-.376c-.019,0,.03.108.108.24m-8.676.144c-.055.106-.085.192-.067.192a.551.551,0,0,0,.131-.192c.055-.106.085-.192.067-.192a.551.551,0,0,0-.131.192m2.13.24a2.313,2.313,0,0,0-.345.656,1.2,1.2,0,0,0,.181-.272c.084-.15.2-.351.269-.448s.1-.176.085-.176a1.027,1.027,0,0,0-.19.24m10.476-.064a.633.633,0,0,0,.132.208c.064,0,.023-.1-.1-.256l-.13-.16.1.208m-1.406.08a.551.551,0,0,0,.131.192c.018,0-.013-.086-.067-.192a.551.551,0,0,0-.131-.192c-.018,0,.013.086.067.192m3.776.064a.551.551,0,0,0,.131.192c.018,0-.013-.086-.067-.192a.551.551,0,0,0-.131-.192c-.018,0,.013.086.067.192m-9.28.192c-.055.106-.085.192-.067.192a.551.551,0,0,0,.131-.192c.055-.106.085-.192.067-.192a.551.551,0,0,0-.131.192m-2.449.278-.238.4-.112.186.132-.16a2.226,2.226,0,0,0,.373-.64.776.776,0,0,0-.156.214m12.022.01a2.454,2.454,0,0,0,.2.32c.1.1-.123-.3-.242-.448-.059-.07-.042-.013.037.128m-15.781.032c-.055.106-.085.192-.067.192a.551.551,0,0,0,.131-.192c.055-.106.085-.192.067-.192a.551.551,0,0,0-.131.192m9.844.1a2.113,2.113,0,0,0,.2.32c.059.07.042.013-.037-.128-.174-.311-.3-.46-.167-.192m3.788.1a.551.551,0,0,0,.131.192c.018,0-.013-.086-.067-.192a.551.551,0,0,0-.131-.192c-.018,0,.013.086.067.192m-1.5-.1a.612.612,0,0,0,.131.224q.13.159.065.032c-.108-.209-.2-.324-.2-.256m-6.3.2c-.06.091-.1.176-.084.19s.075-.061.137-.165c.138-.234.1-.253-.053-.024m10.3.258c.06.092.209.337.33.544a1.9,1.9,0,0,0,.255.376c.019,0-.03-.108-.108-.24a5.312,5.312,0,0,0-.554-.848c-.018,0,.017.076.077.168m-16.509.062c-.06.091-.094.18-.076.2s.078-.057.135-.166c.124-.241.09-.26-.059-.032m2.238.09c-.055.106-.085.192-.067.192a.551.551,0,0,0,.131-.192c.055-.106.085-.192.067-.192a.551.551,0,0,0-.131.192m3.716.035c-.059.089-.19.3-.292.477s-.235.395-.3.493-.079.15-.041.115a11.787,11.787,0,0,0,.763-1.2c.079-.13-.042-.027-.134.115m8.442.077a.633.633,0,0,0,.132.208c.064,0,.023-.1-.1-.256l-.13-.16.1.208m-10.757-.032c-.22.374-.235.406-.123.272.13-.155.242-.352.2-.352-.017,0-.052.036-.078.08m9.352.112a.551.551,0,0,0,.131.192c.018,0-.013-.086-.067-.192a.551.551,0,0,0-.131-.192c-.018,0,.013.086.067.192m-13.494.568c-.121.207-.27.452-.33.544s-.1.168-.077.168a5.312,5.312,0,0,0,.554-.848c.078-.132.127-.24.108-.24a1.9,1.9,0,0,0-.255.376m15.161-.2c.278.431.413.618.413.574a4.005,4.005,0,0,0-.5-.75c-.017,0,.021.079.083.176m-11.412.166-.238.4-.112.186.132-.16a2.226,2.226,0,0,0,.373-.64.776.776,0,0,0-.156.214m7.887.154a.633.633,0,0,0,.132.208c.064,0,.023-.1-.1-.256l-.13-.16.1.208m2.37.144a.551.551,0,0,0,.131.192c.018,0-.013-.086-.067-.192a.551.551,0,0,0-.131-.192c-.018,0,.013.086.067.192m1.663.36c.06.092.209.337.33.544a1.9,1.9,0,0,0,.255.376c.019,0-.03-.108-.108-.24a5.312,5.312,0,0,0-.554-.848c-.018,0,.017.076.077.168m-13.821.062c-.06.091-.094.18-.076.2s.078-.057.135-.166c.124-.241.09-.26-.059-.032m1.406.09c-.055.106-.085.192-.067.192a.551.551,0,0,0,.131-.192c.055-.106.085-.192.067-.192a.551.551,0,0,0-.131.192m8.8.032a2.454,2.454,0,0,0,.2.32c.1.1-.123-.3-.242-.448-.059-.07-.042-.013.037.128m2.367.144a5.311,5.311,0,0,0,.554.848c.018,0-.017-.076-.077-.168s-.209-.337-.33-.544a1.9,1.9,0,0,0-.255-.376c-.019,0,.03.108.108.24m-15.029.038-.238.4-.112.186.132-.16a2.226,2.226,0,0,0,.373-.64.776.776,0,0,0-.156.214m18.867.154a.7.7,0,0,0,.132.208l.13.16-.1-.208c-.1-.2-.164-.265-.161-.16m-16.92.392c-.121.207-.27.452-.33.544s-.1.168-.077.168a5.311,5.311,0,0,0,.554-.848c.078-.132.127-.24.108-.24a1.9,1.9,0,0,0-.255.376m1.429.024c-.112.185-.162.293-.111.24a1.964,1.964,0,0,0,.347-.576,1.694,1.694,0,0,0-.236.336m9.827.144a2.96,2.96,0,0,0,.27.416c.05.053,0-.062-.112-.256a3.317,3.317,0,0,0-.27-.416c-.037-.035.014.08.112.256m-13.7.112-.1.208.13-.16c.126-.154.167-.256.1-.256a.633.633,0,0,0-.132.208m17.6.176a.551.551,0,0,0,.131.192c.018,0-.013-.086-.067-.192a.551.551,0,0,0-.131-.192c-.018,0,.013.086.067.192m-1.5-.1a.612.612,0,0,0,.131.224q.13.159.065.032c-.108-.209-.2-.324-.2-.256m-10.272.2c-.06.091-.1.176-.084.19s.075-.061.137-.165c.138-.234.1-.253-.053-.024M42.5,27.489a2.636,2.636,0,0,0,.348.543,1.025,1.025,0,0,0-.134-.288c-.147-.263-.214-.343-.214-.255M24.5,27.984c-.042.079-.118.216-.169.3-.089.153-.088.155.015.032.128-.152.307-.48.262-.48-.017,0-.066.065-.108.144m-2.395.192-.1.208.13-.16c.126-.154.167-.256.1-.256a.633.633,0,0,0-.132.208m20.918.176a12.311,12.311,0,0,0,.788,1.28,5.813,5.813,0,0,0-.55-.968c-.34-.54-.41-.632-.239-.312m-2.386-.144a.7.7,0,0,0,.132.208l.13.16-.1-.208c-.1-.2-.164-.265-.161-.16m-12.705.272c-.055.106-.085.192-.067.192A.551.551,0,0,0,28,28.48c.055-.106.085-.192.067-.192a.551.551,0,0,0-.131.192m9.382.4a6.023,6.023,0,0,0,.395.6c.039.035.019-.019-.044-.12s-.213-.352-.333-.557a2.319,2.319,0,0,0-.281-.412,1.942,1.942,0,0,0,.263.493M24.1,28.646c-.06.091-.1.176-.084.19s.075-.061.137-.165c.138-.234.1-.253-.053-.024m-2.37.154c-.055.106-.085.192-.067.192a.551.551,0,0,0,.131-.192c.055-.106.085-.192.067-.192a.551.551,0,0,0-.131.192m19.39.176a.633.633,0,0,0,.132.208c.064,0,.023-.1-.1-.256l-.13-.16.1.208m-1.406.08a.551.551,0,0,0,.131.192c.018,0-.013-.086-.067-.192a.551.551,0,0,0-.131-.192c-.018,0,.013.086.067.192m-14.456.08-.115.208.132-.16c.117-.142.169-.256.116-.256a1.045,1.045,0,0,0-.133.208m2.313-.064c-.14.216-.266.473-.2.4a2.137,2.137,0,0,0,.319-.544c-.016,0-.072.065-.123.144M41.3,29.28c.141.259.712,1.164.767,1.216.086.081.078.068-.334-.608a6.7,6.7,0,0,0-.4-.608q-.068-.064-.033,0M23.584,29.5c-.055.106-.085.192-.067.192a.551.551,0,0,0,.131-.192c.055-.106.085-.192.067-.192a.551.551,0,0,0-.131.192m1.391.086-.238.4-.112.186.132-.16a2.226,2.226,0,0,0,.373-.64.776.776,0,0,0-.156.214m-3.814.14c-.089.159-.134.272-.1.252a1.584,1.584,0,0,0,.29-.541,1.348,1.348,0,0,0-.19.289m19,.063a2.959,2.959,0,0,0,.27.416c.05.053,0-.062-.112-.256a3.317,3.317,0,0,0-.27-.416c-.037-.035.014.08.112.256m-12.937-.144c-.22.374-.235.406-.123.272.13-.155.242-.352.2-.352-.017,0-.052.036-.078.08m10.632.112a.551.551,0,0,0,.131.192c.018,0-.013-.086-.067-.192a.551.551,0,0,0-.131-.192c-.018,0,.013.086.067.192m6.114.16a.612.612,0,0,0,.131.224q.13.159.065.032c-.108-.209-.2-.324-.2-.256M23.217,30.1c-.14.216-.266.473-.2.4a2.137,2.137,0,0,0,.319-.544c-.016,0-.072.065-.123.144m1.241.333a.673.673,0,0,0-.108.227,1.018,1.018,0,0,0,.273-.422c-.017-.017-.091.071-.165.2m16.22.2c.42.733,1.207,2,1.227,1.984s-1.25-2.147-1.348-2.244c-.035-.035.019.082.122.26m-20.2.236c-.151.255-.371.6-.487.768s-.19.3-.164.3c.052,0,.066-.02.541-.792.364-.591.449-.744.412-.744a3.488,3.488,0,0,0-.3.464m21.732-.08a.551.551,0,0,0,.131.192c.018,0-.013-.086-.067-.192a.551.551,0,0,0-.131-.192c-.018,0,.013.086.067.192m-15.727.08c-.14.216-.266.473-.2.4a2.137,2.137,0,0,0,.319-.544c-.016,0-.072.065-.123.144m18-.1a.7.7,0,0,0,.132.208l.13.16-.1-.208c-.1-.2-.164-.265-.161-.16M22.69,30.95c-.06.091-.1.176-.084.19s.075-.061.137-.165c.138-.234.1-.253-.053-.024m1.423.042a3.425,3.425,0,0,0-.171.3c-.109.224.089-.015.224-.272.112-.212.077-.233-.053-.032m14.639.24a.551.551,0,0,0,.131.192c.018,0-.013-.086-.067-.192a.551.551,0,0,0-.131-.192c-.018,0,.013.086.067.192m-16.366.24a2.313,2.313,0,0,0-.345.656,1.2,1.2,0,0,0,.181-.272c.084-.15.2-.351.269-.448s.1-.176.085-.176a1.027,1.027,0,0,0-.19.24m22.574.08a.551.551,0,0,0,.131.192c.018,0-.013-.086-.067-.192a.551.551,0,0,0-.131-.192c-.018,0,.013.086.067.192m-2.24.064a.551.551,0,0,0,.131.192c.018,0-.013-.086-.067-.192a.551.551,0,0,0-.131-.192c-.018,0,.013.086.067.192m-19.08.176c-.1.167-.2.347-.239.4-.058.085-.055.085.033,0a2.606,2.606,0,0,0,.412-.7,1.333,1.333,0,0,0-.206.3M39,31.628c.056.095.16.274.229.4a4.438,4.438,0,0,0,.5.742c.032,0-.007-.069-.233-.416-.092-.141-.2-.328-.248-.416a2.085,2.085,0,0,0-.214-.32l-.133-.16.1.172m-13.047.116c-.055.106-.085.192-.067.192a.551.551,0,0,0,.131-.192c.055-.106.085-.192.067-.192a.551.551,0,0,0-.131.192m17.067.357c.225.394.413.635.245.315A3.055,3.055,0,0,0,43,32c-.108-.132-.1-.114.019.1m2.33.087c.038.055.193.309.345.565a1.912,1.912,0,0,0,.3.439,4.916,4.916,0,0,0-.6-.973c-.064-.072-.085-.087-.048-.032m-23.511.179c-.136.194-.374.648-.307.584a5.542,5.542,0,0,0,.453-.76.788.788,0,0,0-.147.176m3.748-.032c-.14.216-.266.473-.2.4a2.137,2.137,0,0,0,.319-.544c-.016,0-.072.065-.123.144m.321.356c-.06.024,2.911.044,6.6.044s6.678-.021,6.638-.047c-.093-.059-13.09-.056-13.24,0m-6.674.2c-.055.106-.085.192-.067.192A.551.551,0,0,0,19.3,32.9c.055-.106.085-.192.067-.192a.551.551,0,0,0-.131.192m20.132-.08a.738.738,0,0,0,.208.2l.2.156-.188-.2c-.2-.212-.23-.236-.224-.156m-14.123.1c-.22.374-.235.406-.123.272.13-.155.242-.352.2-.352-.017,0-.052.036-.078.08m14.5-.032a.7.7,0,0,0,.132.208l.13.16-.1-.208c-.1-.2-.164-.265-.161-.16m3.871.208a.551.551,0,0,0,.131.192c.018,0-.013-.086-.067-.192a.551.551,0,0,0-.131-.192c-.018,0,.013.086.067.192M22.872,33.04c-.22.374-.235.406-.123.272.13-.155.242-.352.2-.352-.017,0-.052.036-.078.08m19.336.112a.551.551,0,0,0,.131.192c.018,0-.013-.086-.067-.192a.551.551,0,0,0-.131-.192c-.018,0,.013.086.067.192m-17.015.269c-.022.081-.04,2.8-.04,6.051v5.9H17.777l.036-.137c.026-.1.016-.117-.033-.068-.266.266-.182.272,3.706.254l3.7-.016.032-6.048c.018-3.326.028-6.056.024-6.067s-.026.047-.047.128m20.879-.045a1.627,1.627,0,0,0,.167.256l.1.128-.063-.128a1.627,1.627,0,0,0-.167-.256l-.1-.128.063.128m-27.545.688c-.238.4-.478.792-.532.88s-.067.131-.028.1a13.7,13.7,0,0,0,1.02-1.7,8.518,8.518,0,0,0-.459.72m25.347-.544c.215.334.286.428.286.381a2.2,2.2,0,0,0-.368-.557c-.017,0,.02.079.082.176m-22.786.08c-.055.106-.085.192-.067.192a.551.551,0,0,0,.131-.192c.055-.106.085-.192.067-.192a.551.551,0,0,0-.131.192m1.409.046-.112.178.148-.142c.081-.078.132-.158.112-.178s-.086.044-.148.142m17.689-.078c.108.209.2.324.2.256a.612.612,0,0,0-.131-.224q-.13-.159-.065-.032m2.394.192a2.113,2.113,0,0,0,.2.32c.059.07.042.013-.037-.128-.174-.311-.3-.46-.167-.192m-18.026.28c-.121.207-.27.452-.33.544s-.1.168-.077.168A5.311,5.311,0,0,0,24.7,33.9c.078-.132.127-.24.108-.24a1.9,1.9,0,0,0-.255.376m19.7.1.238.4a.776.776,0,0,0,.156.214,2.226,2.226,0,0,0-.373-.64l-.132-.16.112.186m2.21-.122a.612.612,0,0,0,.131.224q.13.159.065.032c-.108-.209-.2-.324-.2-.256m-25.76.2c-.06.091-.1.176-.084.19s.075-.061.137-.165c.138-.234.1-.253-.053-.024m1.425.042c-.05.079-.156.259-.235.4-.169.3.016.067.235-.3.156-.259.156-.348,0-.1m18.6.24a.551.551,0,0,0,.131.192c.018,0-.013-.086-.067-.192a.551.551,0,0,0-.131-.192c-.018,0,.013.086.067.192m2.368.128a.551.551,0,0,0,.131.192c.018,0-.013-.086-.067-.192a.551.551,0,0,0-.131-.192c-.018,0,.013.086.067.192M37.873,40l.017,5.372-5.345.017-5.345.017H37.92l.016-5.34c.009-2.937-.005-5.362-.032-5.389s-.041,2.369-.032,5.324m-10.77.029c0,2.922.008,4.126.017,2.677s.01-3.84,0-5.312-.017-.286-.017,2.635m-3.36-4.656c-.4.658-.4.656-.364.656a5.287,5.287,0,0,0,.365-.56c.412-.68.4-.656.365-.656a5.016,5.016,0,0,0-.366.56m20.986-.464a1.628,1.628,0,0,0,.167.256l.1.128-.063-.128a1.628,1.628,0,0,0-.167-.256l-.1-.128.063.128m-24.536.16c-.055.106-.085.192-.067.192a.551.551,0,0,0,.131-.192c.055-.106.085-.192.067-.192a.551.551,0,0,0-.131.192m1.333.176c-.349.552-.48.784-.443.784a1.465,1.465,0,0,0,.234-.336c.108-.185.255-.43.326-.544s.117-.208.1-.208a1.67,1.67,0,0,0-.219.3m19.66-.016a2.959,2.959,0,0,0,.27.416c.05.053,0-.062-.112-.256a3.317,3.317,0,0,0-.27-.416c-.037-.035.014.08.112.256M32.4,35.118a1.143,1.143,0,0,0,.32,0c.079-.015,0-.027-.177-.027s-.24.013-.143.028m11.124.178a2.454,2.454,0,0,0,.2.32c.1.1-.123-.3-.242-.448-.059-.07-.042-.013.037.128m-25.765.032c-.055.106-.085.192-.067.192a.551.551,0,0,0,.131-.192c.055-.106.085-.192.067-.192a.551.551,0,0,0-.131.192m15.277-.081a.984.984,0,0,1,.285.316c.062.115.123.2.136.185.093-.093-.373-.615-.544-.61-.028,0,.028.05.123.109m-1.3.213c-.077.108-.129.206-.116.219s.088-.075.168-.2c.178-.272.138-.29-.052-.024m13.347.06a.551.551,0,0,0,.131.192c.018,0-.013-.086-.067-.192a.551.551,0,0,0-.131-.192c-.018,0,.013.086.067.192m2.273-.016a.7.7,0,0,0,.132.208l.13.16-.1-.208c-.1-.2-.164-.265-.161-.16m-3.53.3a1.627,1.627,0,0,0,.167.256l.1.128-.063-.128a1.627,1.627,0,0,0-.167-.256l-.1-.128.063.128m-12.281.432c0,.509-.02.559-.255.674l-.16.079.16-.039c.256-.062.32-.2.32-.71a1.748,1.748,0,0,0-.032-.468,1.718,1.718,0,0,0-.033.464m10.043-.368c.108.209.2.324.2.256a.612.612,0,0,0-.131-.224q-.13-.159-.065-.032m-22,.176a4.023,4.023,0,0,1-.209.352c-.076.114-.124.208-.106.208a2.371,2.371,0,0,0,.416-.675c-.016-.016-.062.035-.1.114m13.886.28c-.008.3.016.477.068.518.108.083.67.3.6.232a1.476,1.476,0,0,0-.32-.158l-.267-.1-.036-.472-.036-.472-.012.456M17.248,36.16c-.055.106-.085.192-.067.192a.551.551,0,0,0,.131-.192c.055-.106.085-.192.067-.192a.551.551,0,0,0-.131.192m30.59.112a.633.633,0,0,0,.132.208c.064,0,.023-.1-.1-.256l-.13-.16.1.208m-2.238.08a.551.551,0,0,0,.131.192c.018,0-.013-.086-.067-.192a.551.551,0,0,0-.131-.192c-.018,0,.013.086.067.192m-3.711.026.238.4a.776.776,0,0,0,.156.214,2.226,2.226,0,0,0-.373-.64l-.132-.16.112.186m2.283.006c.04.088.1.16.128.16s.008-.072-.05-.16a.617.617,0,0,0-.128-.16c-.013,0,.009.072.05.16m-21.1.07c-.06.091-.094.18-.076.2s.078-.057.135-.166c.124-.241.09-.26-.059-.032m-6.186.3c-.042.079-.118.216-.169.3-.089.153-.088.155.015.032.128-.152.307-.48.262-.48-.017,0-.066.065-.108.144m27.466-.112a.612.612,0,0,0,.131.224q.13.159.065.032c-.108-.209-.2-.324-.2-.256m-25.25.224c-.055.106-.085.192-.067.192a.551.551,0,0,0,.131-.192c.055-.106.085-.192.067-.192a.551.551,0,0,0-.131.192m29.157.1a2.454,2.454,0,0,0,.2.32c.1.1-.123-.3-.242-.448-.059-.07-.042-.013.037.128M28.945,37.1a1.142,1.142,0,0,0,.32,0c.079-.015,0-.027-.177-.027s-.24.013-.143.028m6.912,0a1.142,1.142,0,0,0,.32,0c.079-.015,0-.027-.177-.027s-.24.013-.143.028m6.542.122c.06.092.209.337.33.544a1.9,1.9,0,0,0,.255.376c.019,0-.03-.108-.108-.24a5.311,5.311,0,0,0-.554-.848c-.018,0,.017.076.077.168m2.293-.008a2.113,2.113,0,0,0,.2.32c.059.07.042.013-.037-.128-.174-.311-.3-.46-.167-.192m-22.132.1c-.055.106-.085.192-.067.192a.551.551,0,0,0,.131-.192c.055-.106.085-.192.067-.192a.551.551,0,0,0-.131.192m5.825.063c-.137.14-.236.263-.221.272a1.243,1.243,0,0,0,.292-.255c.145-.15.245-.272.221-.272a1.421,1.421,0,0,0-.292.255m2.17-.065c-.3.229-.339.232-.644.052-.132-.078-.222-.114-.2-.08.2.323.575.32.977-.006.272-.221.169-.194-.133.034m3.685-.164a1.617,1.617,0,0,0,.658.4c.057-.023.055-.033-.007-.036a1.4,1.4,0,0,1-.368-.2.936.936,0,0,0-.284-.163m2.33.169a.971.971,0,0,1,.335.884c-.026.161-.019.2.024.137.189-.3-.21-1.216-.528-1.216-.03,0,.046.088.169.2m-1.386.033c-.239.13-.225.184.016.059a.573.573,0,0,0,.192-.13c0-.041-.007-.039-.208.07m13.429.187c.064.106.185.314.269.464a1.119,1.119,0,0,0,.183.272,3.015,3.015,0,0,0-.436-.768l-.133-.16.116.192m-32.261.1c-.055.106-.085.192-.067.192a.551.551,0,0,0,.131-.192c.055-.106.085-.192.067-.192a.551.551,0,0,0-.131.192M46.4,37.68c.163.272.251.383.251.315a2.3,2.3,0,0,0-.366-.555c-.016,0,.036.108.115.24m-1.317.208a.551.551,0,0,0,.131.192c.018,0-.013-.086-.067-.192a.551.551,0,0,0-.131-.192c-.018,0,.013.086.067.192m-23.237.592c-.238.4-.475.785-.525.864s-.077.144-.059.144a5.7,5.7,0,0,0,.432-.656c.615-1.011.65-1.072.617-1.072a7.172,7.172,0,0,0-.464.72m6.263-.432c0,.176.013.24.028.143a1.142,1.142,0,0,0,0-.32c-.015-.079-.027,0-.027.177m18.558.064c.019.035.186.309.372.608s.407.666.492.816a1.094,1.094,0,0,0,.187.272,12.969,12.969,0,0,0-1.018-1.7q-.068-.064-.033,0m-28.464.224c-.055.106-.085.192-.067.192a.551.551,0,0,0,.131-.192c.055-.106.085-.192.067-.192a.551.551,0,0,0-.131.192m-2.368.128c-.055.106-.085.192-.067.192a.551.551,0,0,0,.131-.192c.055-.106.085-.192.067-.192a.551.551,0,0,0-.131.192m29.669.1a2.455,2.455,0,0,0,.2.32c.1.1-.123-.3-.242-.448-.059-.07-.042-.013.037.128m-17.3-.064a1.325,1.325,0,0,0,.46.444c.053.026.024-.011-.064-.083a2.744,2.744,0,0,1-.31-.31c-.086-.1-.123-.125-.086-.052m15.02.1a.551.551,0,0,0,.131.192c.018,0-.013-.086-.067-.192a.551.551,0,0,0-.131-.192c-.018,0,.013.086.067.192m-6.655.154c-.14.138-.2.22-.128.182.142-.076.452-.391.41-.416a1.17,1.17,0,0,0-.282.234m-17.217.038c-.055.106-.085.192-.067.192a.551.551,0,0,0,.131-.192c.055-.106.085-.192.067-.192a.551.551,0,0,0-.131.192m12.864-.16c.147.051.8.071.723.022a1.279,1.279,0,0,0-.435-.048c-.194,0-.323.014-.288.026M15.64,38.8c-.22.374-.235.406-.123.272.13-.155.242-.352.2-.352-.017,0-.052.036-.078.08m33.8.112a.551.551,0,0,0,.131.192c.018,0-.013-.086-.067-.192a.551.551,0,0,0-.131-.192c-.018,0,.013.086.067.192m-31.6.016c-.14.216-.266.473-.2.4a2.137,2.137,0,0,0,.319-.544c-.016,0-.072.065-.123.144m13.775,0a1.334,1.334,0,0,0-.19.206c-.051.07,0,.043.112-.06.184-.168.238-.232.19-.226a.672.672,0,0,0-.112.08m4.35.24-.222.193L36,39.2c.3-.2.331-.222.25-.222a.95.95,0,0,0-.283.194m-16.844.014a3.425,3.425,0,0,0-.171.3c-.109.224.089-.015.224-.272.112-.212.077-.233-.053-.032m24.495.048a.551.551,0,0,0,.131.192c.018,0-.013-.086-.067-.192a.551.551,0,0,0-.131-.192c-.018,0,.013.086.067.192m-9.875.1a1.741,1.741,0,0,1,.108.227c.04.1.064.118.067.052a.4.4,0,0,0-.108-.227c-.062-.067-.092-.09-.067-.052m-18.534.192c-.057.088-.15.239-.207.336l-.1.176.129-.156c.152-.184.354-.516.313-.516a.529.529,0,0,0-.132.16m34.617.032a.551.551,0,0,0,.131.192c.018,0-.013-.086-.067-.192a.551.551,0,0,0-.131-.192c-.018,0,.013.086.067.192m-13.961.48c0,.317.011.454.024.306a4.163,4.163,0,0,0,0-.576c-.013-.168-.024-.047-.024.27M21.09,39.718c-.06.091-.094.18-.076.2s.078-.057.135-.166c.124-.241.09-.26-.059-.032m-3.776.064c-.06.091-.094.18-.076.2s.078-.057.135-.166c.124-.241.09-.26-.059-.032m26.723.122a2.454,2.454,0,0,0,.2.32c.1.1-.123-.3-.242-.448-.059-.07-.042-.013.037.128m-14.9.128c0,.176.013.24.028.143a1.143,1.143,0,0,0,0-.32c-.015-.079-.027,0-.027.177m4.8,0c0,.176.013.24.028.143a1.142,1.142,0,0,0,0-.32c-.015-.079-.027,0-.027.177m12.39-.128a1.628,1.628,0,0,0,.167.256l.1.128-.063-.128a1.628,1.628,0,0,0-.167-.256l-.1-.128.063.128m-27.752.176c-.091.114-.218.368-.185.368a.881.881,0,0,0,.16-.224c.132-.224.144-.295.025-.144m-3.816.192-.115.208.132-.16c.117-.142.169-.256.116-.256a1.045,1.045,0,0,0-.133.208m2.3-.048c-.057.088-.15.239-.207.336l-.1.176.129-.156c.152-.184.354-.516.313-.516a.529.529,0,0,0-.132.16m33.273.16a.551.551,0,0,0,.131.192c.018,0-.013-.086-.067-.192a.551.551,0,0,0-.131-.192c-.018,0,.013.086.067.192M48,40.3a.7.7,0,0,0,.132.208l.13.16-.1-.208c-.1-.2-.164-.265-.161-.16m-3.639.144c.054.088.28.462.5.832.381.635.622.982.449.647-.15-.291-.908-1.511-.978-1.575-.039-.035-.026.008.028.1m-23.786.128c-.055.106-.085.192-.067.192a.551.551,0,0,0,.131-.192c.055-.106.085-.192.067-.192a.551.551,0,0,0-.131.192m15.262.176c.061.125.578.457.578.371a.627.627,0,0,0-.208-.136,1.23,1.23,0,0,1-.324-.242l-.116-.137.071.144m-21.47.144c-.055.106-.085.192-.067.192a.551.551,0,0,0,.131-.192c.055-.106.085-.192.067-.192a.551.551,0,0,0-.131.192m19.2.052a1.541,1.541,0,0,1-.448.341c-.141.064-.22.117-.174.118.2,0,.937-.579.84-.66-.015-.013-.114.078-.219.2M16.5,41.136c-.275.451-.383.656-.345.656a1.186,1.186,0,0,0,.184-.272c.085-.15.22-.38.3-.512s.132-.24.116-.24a2.163,2.163,0,0,0-.254.368m15.023-.122a1.108,1.108,0,0,0,.621.392c.046,0-.018-.046-.141-.1a1.98,1.98,0,0,1-.448-.3l-.224-.2.192.214m19.237.042a2.453,2.453,0,0,0,.2.32c.1.1-.123-.3-.242-.448-.059-.07-.042-.013.037.128m-2.277.032a.551.551,0,0,0,.131.192c.018,0-.013-.086-.067-.192a.551.551,0,0,0-.131-.192c-.018,0,.013.086.067.192m-1.466-.048a5.948,5.948,0,0,0,.456.688c.03,0-.008-.069-.259-.464-.17-.268-.318-.436-.2-.224m-26.82.15c-.06.091-.1.176-.084.19s.075-.061.137-.165c.138-.234.1-.253-.053-.024m16.45.16c.1.127.2.219.216.206s-.068-.117-.187-.23l-.216-.206.187.23m-18.876.074-.115.208.132-.16c.117-.142.169-.256.116-.256a1.045,1.045,0,0,0-.133.208m14.632.03a1.143,1.143,0,0,0,.32,0c.079-.015,0-.027-.177-.027s-.24.013-.143.028m18.663.114a1.628,1.628,0,0,0,.167.256l.1.128-.063-.128a1.628,1.628,0,0,0-.167-.256L51,41.44l.063.128m-37.21.176-.1.208.13-.16c.126-.154.167-.256.1-.256a.633.633,0,0,0-.132.208m23.047.064a1.015,1.015,0,0,1-.246.865c-.192.226-.193.23-.021.079a.927.927,0,0,0,.291-1.024c-.048-.071-.054-.05-.024.08m-8.787.208c0,.176.013.24.028.143a1.142,1.142,0,0,0,0-.32c-.015-.079-.027,0-.027.177m19.47-.032a.551.551,0,0,0,.131.192c.018,0-.013-.086-.067-.192a.551.551,0,0,0-.131-.192c-.018,0,.013.086.067.192m-30.208.064c-.055.106-.085.192-.067.192a.551.551,0,0,0,.131-.192c.055-.106.085-.192.067-.192a.551.551,0,0,0-.131.192m28.169.351a1.348,1.348,0,0,0,.19.289,1.584,1.584,0,0,0-.29-.541c-.034-.021.012.092.1.252m5.942-.119c.06.092.209.337.33.544a1.9,1.9,0,0,0,.255.376c.019,0-.03-.108-.108-.24a5.311,5.311,0,0,0-.554-.848c-.018,0,.017.076.077.168m-38.013.062c-.06.091-.094.18-.076.2s.078-.057.135-.166c.124-.241.09-.26-.059-.032m2.238.09c-.055.106-.085.192-.067.192a.551.551,0,0,0,.131-.192c.055-.106.085-.192.067-.192a.551.551,0,0,0-.131.192m33.662.112a.633.633,0,0,0,.132.208c.064,0,.023-.1-.1-.256l-.13-.16.1.208m-30.2.328c-.121.207-.27.452-.33.544s-.1.168-.077.168a5.311,5.311,0,0,0,.554-.848c.078-.132.127-.24.108-.24a1.9,1.9,0,0,0-.255.376m10.659-.2c-.152.088-.262.174-.246.19a.687.687,0,0,0,.29-.135c.32-.2.349-.2.6-.013.195.145.558.351.492.278-.382-.416-.782-.529-1.14-.321m4.642.048a3.761,3.761,0,0,0-.352.261c-.065.073.442-.227.576-.341a.24.24,0,0,1,.211-.054c.059.023.085.012.063-.024-.062-.1-.17-.066-.5.158m-21.258.069c-.059.089-.19.3-.292.477s-.235.395-.3.493-.079.15-.041.115a11.786,11.786,0,0,0,.763-1.2c.079-.13-.042-.027-.134.115m22.03-.035c.272.166.361.166.11,0a.829.829,0,0,0-.256-.127c-.035,0,.03.057.146.128M48,42.645a2.3,2.3,0,0,0,.366.555,2.36,2.36,0,0,0-.312-.541c-.03-.033-.054-.04-.054-.015M16.872,42.9l-.115.208.132-.16c.117-.142.169-.256.116-.256a1.045,1.045,0,0,0-.133.208m32.761.084a2.869,2.869,0,0,0,.235.352l.127.156-.108-.2a2.868,2.868,0,0,0-.235-.352l-.127-.156.108.2m-32.951.2L16.189,44c-.664,1.1-.676,1.119-.544.96.059-.07.3-.445.53-.832s.464-.769.515-.848.076-.144.056-.144a.094.094,0,0,0-.064.048m16.894.034c-.092.067-.108.16-.089.528l.023.446.013-.454c.011-.4.029-.462.156-.524.079-.038.113-.071.076-.074a.372.372,0,0,0-.179.077m12.535.11a.551.551,0,0,0,.131.192c.018,0-.013-.086-.067-.192a.551.551,0,0,0-.131-.192c-.018,0,.013.086.067.192m2.33.032c.108.209.2.324.2.256a.611.611,0,0,0-.131-.224q-.13-.159-.065-.032m-16.868.48c0,.264.011.372.025.24a2.763,2.763,0,0,0,0-.48c-.014-.132-.025-.024-.025.24m18.411-.3a2.2,2.2,0,0,0,.368.557c.029,0-.073-.173-.282-.478-.048-.069-.086-.1-.086-.079m-31.392.3c-.055.106-.085.192-.067.192a.551.551,0,0,0,.131-.192c.055-.106.085-.192.067-.192a.551.551,0,0,0-.131.192m-3.774.038c-.06.091-.094.18-.076.2s.078-.057.135-.166c.124-.241.09-.26-.059-.032m31.639-.006c.108.209.2.324.2.256a.612.612,0,0,0-.131-.224q-.13-.159-.065-.032m-34.246.56c-.3.48-.485.813-.41.744.038-.035.2-.3.629-1,.069-.114.114-.208.1-.208a3.643,3.643,0,0,0-.318.464m6.053-.064c-.093.15-.2.315-.241.368-.062.083-.057.084.038.01a2.042,2.042,0,0,0,.4-.65,1.357,1.357,0,0,0-.2.272M52.7,44.256a2.038,2.038,0,0,0,.2.32c.1.12.1.116.01-.064a2.038,2.038,0,0,0-.2-.32c-.1-.12-.1-.116-.01.064M14.5,44.418c-.094.142-.228.36-.3.484s-.173.3-.229.4l-.1.172.133-.16a2.086,2.086,0,0,0,.214-.32c.044-.088.156-.275.248-.416.226-.347.265-.416.233-.416a1.275,1.275,0,0,0-.2.258m35.962-.066a.551.551,0,0,0,.131.192c.018,0-.013-.086-.067-.192a.551.551,0,0,0-.131-.192c-.018,0,.013.086.067.192m-17.6.516c-.106.068-.163.123-.128.123a.824.824,0,0,0,.256-.127c.106-.07.163-.125.128-.123a.951.951,0,0,0-.256.127m16.482-.036a.612.612,0,0,0,.131.224q.13.159.065.032c-.108-.209-.2-.324-.2-.256m1.63.352a.551.551,0,0,0,.131.192c.018,0-.013-.086-.067-.192a.551.551,0,0,0-.131-.192c-.018,0,.013.086.067.192m-3.748-.02a.781.781,0,0,1,.068.175c0,.02-1.656.044-3.68.053l-3.68.017h3.691c3.811,0,3.84,0,3.635-.259-.1-.122-.1-.121-.033.014m-31.836.148c-.055.106-.085.192-.067.192a.551.551,0,0,0,.131-.192c.055-.106.085-.192.067-.192a.551.551,0,0,0-.131.192m38.081.218.238.4a.776.776,0,0,0,.156.214,2.226,2.226,0,0,0-.373-.64l-.132-.16.112.186m-41.968.054a3.425,3.425,0,0,0-.171.3c-.109.224.089-.015.224-.272.112-.212.077-.233-.053-.032m38.224-.1a.7.7,0,0,0,.132.208l.13.16-.1-.208c-.1-.2-.164-.265-.161-.16m-36,.208c-.055.106-.085.192-.067.192a.551.551,0,0,0,.131-.192c.055-.106.085-.192.067-.192a.551.551,0,0,0-.131.192m37.63.112a.633.633,0,0,0,.132.208c.064,0,.023-.1-.1-.256l-.13-.16.1.208m-37.838.224a1.623,1.623,0,0,0-.247.5,1.329,1.329,0,0,0,.189-.288c.16-.285.181-.362.058-.208m1.433.061a1.584,1.584,0,0,0-.032.371c.005.171.019.141.058-.128.054-.37.041-.491-.026-.243M53.9,46.24c.141.259.712,1.164.767,1.216.086.081.078.068-.334-.608a6.7,6.7,0,0,0-.4-.608q-.068-.064-.033,0m-42.928.224c-.055.106-.085.192-.067.192a.551.551,0,0,0,.131-.192c.055-.106.085-.192.067-.192a.551.551,0,0,0-.131.192m40.9.192a.551.551,0,0,0,.131.192c.018,0-.013-.086-.067-.192a.551.551,0,0,0-.131-.192c-.018,0,.013.086.067.192m-36.734.386c.123.136.474.348.507.307a1.42,1.42,0,0,0-.308-.233c-.228-.149-.287-.171-.2-.073m36.91-.1c.141.259.712,1.164.767,1.216.086.081.078.068-.334-.608a6.7,6.7,0,0,0-.4-.608q-.068-.064-.033,0m-39.216.224c-.055.106-.085.192-.067.192a.551.551,0,0,0,.131-.192c.055-.106.085-.192.067-.192a.551.551,0,0,0-.131.192m37.024-.135c0,.031-.122.118-.272.193s-.2.118-.112.095c.258-.068.618-.345.448-.345a.061.061,0,0,0-.064.057M10.464,47.3c-.055.106-.085.192-.067.192a.551.551,0,0,0,.131-.192c.055-.106.085-.192.067-.192a.551.551,0,0,0-.131.192m-.312.511a1.424,1.424,0,0,0-.168.3c0,.026.039-.009.086-.079.208-.305.31-.478.282-.478a1.137,1.137,0,0,0-.2.255m44.57-.223a.612.612,0,0,0,.131.224q.13.159.065.032c-.108-.209-.2-.324-.2-.256m-42.272.2c-.06.091-.1.176-.084.19s.075-.061.137-.165c.138-.234.1-.253-.053-.024m-2.622.573c-.352.537-.6,1.029-.483.957a.134.134,0,0,0,.063-.1,5.562,5.562,0,0,1,.484-.86c.059-.09.092-.163.075-.163a.513.513,0,0,0-.139.163m45.9,1.092c.042.433.073.494.078.153a.975.975,0,0,0-.052-.377c-.035-.055-.044.031-.026.224M9.5,50.23a1.041,1.041,0,0,0,.256.216c.136.07.116.048-.191-.207-.185-.153-.187-.154-.065-.009m45.888.112-.192.165.208-.138a.866.866,0,0,0,.208-.165c0-.048-.027-.031-.224.138m-34.165.2c6.2.009,16.368.009,22.592,0s1.151-.016-11.275-.016-17.518.007-11.317.016" fill="#848484" fill-rule="evenodd"/>
      </g>
    </g>
    <circle id="Ellipse_319" data-name="Ellipse 319" cx="32" cy="32" r="32" transform="translate(-24494 -9753)" fill="#fff"/>
    <g id="Mask_Group_61" data-name="Mask Group 61" transform="translate(-5 1467.874)" clip-path="url(#clip-path-2)">
      <g id="polygon-matic-logo" transform="translate(-24476.975 -11206.542)">
        <path id="Path_8157" data-name="Path 8157" d="M30.434,10.808a2.646,2.646,0,0,0-2.519,0l-5.877,3.5-3.988,2.23-5.772,3.5a2.646,2.646,0,0,1-2.519,0L5.247,17.286a2.594,2.594,0,0,1-1.259-2.23V9.746a2.626,2.626,0,0,1,1.259-2.23L9.76,4.861a2.646,2.646,0,0,1,2.519,0l4.513,2.761a2.594,2.594,0,0,1,1.259,2.23v3.5l3.988-2.336V7.409a2.626,2.626,0,0,0-1.259-2.23L12.383.188a2.646,2.646,0,0,0-2.519,0l-8.605,5.1A2.34,2.34,0,0,0,0,7.409v9.982a2.626,2.626,0,0,0,1.259,2.23l8.5,4.991a2.646,2.646,0,0,0,2.519,0l5.772-3.4,3.988-2.336,5.772-3.4a2.646,2.646,0,0,1,2.519,0l4.513,2.655a2.594,2.594,0,0,1,1.259,2.23v5.31a2.626,2.626,0,0,1-1.259,2.23L30.434,30.56a2.646,2.646,0,0,1-2.519,0L23.4,27.905a2.594,2.594,0,0,1-1.259-2.23v-3.4l-3.988,2.336v3.5a2.626,2.626,0,0,0,1.259,2.23l8.5,4.991a2.646,2.646,0,0,0,2.519,0l8.5-4.991a2.594,2.594,0,0,0,1.259-2.23V18.029a2.626,2.626,0,0,0-1.259-2.23Z" transform="translate(0 0.131)" fill="#8247e5"/>
      </g>
    </g>
  </g>
</svg>
