<svg xmlns="http://www.w3.org/2000/svg" xmlns:xlink="http://www.w3.org/1999/xlink" width="115" height="64" viewBox="0 0 115 64">
  <defs>
    <style>
      .cls-1 {
        fill: #fff;
      }

      .cls-2 {
        clip-path: url(#clip-path);
      }

      .cls-3 {
        fill: #181875;
      }

      .cls-4 {
        clip-path: url(#clip-path-2);
      }

      .cls-5 {
        fill: #8247e5;
      }
    </style>
    <clipPath id="clip-path">
      <circle id="Ellipse_1685" data-name="Ellipse 1685" class="cls-1" cx="32" cy="32" r="32" transform="translate(-24524 -8726)"/>
    </clipPath>
    <clipPath id="clip-path-2">
      <ellipse id="Ellipse_1686" data-name="Ellipse 1686" class="cls-1" cx="26.5" cy="25.5" rx="26.5" ry="25.5" transform="translate(-24483 -11213.874)"/>
    </clipPath>
  </defs>
  <g id="Group_9624" data-name="Group 9624" transform="translate(24525 8726)">
    <circle id="Ellipse_1596" data-name="Ellipse 1596" class="cls-1" cx="31" cy="31" r="31" transform="translate(-24524 -8726)"/>
    <g id="Mask_Group_269" data-name="Mask Group 269" class="cls-2" transform="translate(-1)">
      <g id="bludac_lg" transform="translate(-24524.4 -8661.56)">
        <path id="Path_17326" data-name="Path 17326" class="cls-3" d="M31.066-64.412a4.771,4.771,0,0,1-.864.09,31.431,31.431,0,0,0-11.659,3.1,30.405,30.405,0,0,0-8.677,6.169,30.568,30.568,0,0,0-5.839,7.9A31.906,31.906,0,0,0,.468-34.1a21.543,21.543,0,0,0,0,3.408A31.909,31.909,0,0,0,5.449-15.218a32.437,32.437,0,0,0,7.489,8.173,37.769,37.769,0,0,0,3.444,2.3A32.018,32.018,0,0,0,50.106-5.779a32.83,32.83,0,0,0,7.939-7.507,32.33,32.33,0,0,0,5.347-11.167,31.964,31.964,0,0,0,.51-13.592,32.394,32.394,0,0,0-3.834-10.441A32.132,32.132,0,0,0,41.261-63.158a34.043,34.043,0,0,0-6.637-1.176A32.926,32.926,0,0,0,31.066-64.412Zm3.985,2.844a30.673,30.673,0,0,1,4.555.762,29.389,29.389,0,0,1,6.361,2.43,29.479,29.479,0,0,1,13.5,14.744,29.328,29.328,0,0,1,2.088,8.317,38.07,38.07,0,0,1,0,5.791,31.052,31.052,0,0,1-.912,4.891c-.27.966-.678,2.238-.84,2.592a1.35,1.35,0,0,0-.09.222c0,.1-.666,1.6-1.05,2.376a28.364,28.364,0,0,1-5.245,7.393,27.309,27.309,0,0,1-3.15,2.832A29.016,29.016,0,0,1,37.055-3.51a29.944,29.944,0,0,1-11.017-.33A29.27,29.27,0,0,1,20.895-5.5c-.174-.078-.33-.144-.342-.144-.066,0-1.488-.7-2.088-1.026A29.383,29.383,0,0,1,4.207-24.555a29.829,29.829,0,0,1-.69-12.56c.156-.96.18-1.08.42-2.1A29.044,29.044,0,0,1,10.657-52a29.2,29.2,0,0,1,7.315-5.887c.714-.408,2.43-1.284,2.52-1.284.012,0,.168-.066.342-.144A29.463,29.463,0,0,1,35.05-61.568Z"/>
        <path id="Path_17327" data-name="Path 17327" class="cls-3" d="M30.394-55.861a15.305,15.305,0,0,0-8.755,4.3,15.269,15.269,0,0,0-4.507,9.343c-.072.7-.09,2.2-.09,8.893v8.059h8.089c5.053,0,8.329-.024,8.743-.06a15.2,15.2,0,0,0,4.279-1.05A18.523,18.523,0,0,0,40.4-27.49c.222-.162.258-.144.366.138a8.691,8.691,0,0,1,.54,3.138,8.472,8.472,0,0,1-2.6,6.271,8.528,8.528,0,0,1-6,2.622,8.711,8.711,0,0,1-6.571-2.592A8.742,8.742,0,0,1,23.5-23.853l-.012-.24-3.222-.018-3.228-.012v.372a18.775,18.775,0,0,0,.306,2.6,15.361,15.361,0,0,0,5.167,8.677,14.007,14.007,0,0,0,3.048,2,14.407,14.407,0,0,0,5.269,1.536,15.227,15.227,0,0,0,11.2-3.312,15.245,15.245,0,0,0,5.731-11.966,15.191,15.191,0,0,0-4.657-11.011,15.265,15.265,0,0,0-7.645-4.051c-1.368-.276-1.848-.3-6.481-.3H24.633l-.018,3.222L24.6-33.124h4.141c4.369,0,4.9.024,5.851.27a4.534,4.534,0,0,1,1.23.438,5.882,5.882,0,0,1-1.458.492c-.846.2-1.812.234-6.451.24h-4.4l.024-5.149c.024-5.713,0-5.359.444-6.673a8.313,8.313,0,0,1,2.148-3.4,8.455,8.455,0,0,1,3.384-2.148A8.934,8.934,0,0,1,38.4-47.208a8.949,8.949,0,0,1,2.466,3.762,9.265,9.265,0,0,1,.258,4.7,2.4,2.4,0,0,0-.072.486,17.441,17.441,0,0,1,4.609,4.249,4.248,4.248,0,0,0,.366.468,3.277,3.277,0,0,0,.288-.54,15.432,15.432,0,0,0,.282-12.44,15.514,15.514,0,0,0-9.757-8.815A15.992,15.992,0,0,0,30.394-55.861Z"/>
      </g>
    </g>
    <circle id="Ellipse_1597" data-name="Ellipse 1597" class="cls-1" cx="32" cy="32" r="32" transform="translate(-24474 -8726)"/>
    <g id="Mask_Group_271" data-name="Mask Group 271" class="cls-4" transform="translate(15 2494.874)">
      <g id="polygon-matic-logo" transform="translate(-24476.975 -11206.542)">
        <path id="Path_17330" data-name="Path 17330" class="cls-5" d="M30.434,10.808a2.646,2.646,0,0,0-2.519,0l-5.877,3.5-3.988,2.23-5.772,3.5a2.646,2.646,0,0,1-2.519,0L5.247,17.286a2.594,2.594,0,0,1-1.259-2.23V9.746a2.626,2.626,0,0,1,1.259-2.23L9.76,4.861a2.646,2.646,0,0,1,2.519,0l4.513,2.761a2.594,2.594,0,0,1,1.259,2.23v3.5l3.988-2.336V7.409a2.626,2.626,0,0,0-1.259-2.23L12.383.188a2.646,2.646,0,0,0-2.519,0l-8.605,5.1A2.34,2.34,0,0,0,0,7.409v9.982a2.626,2.626,0,0,0,1.259,2.23l8.5,4.991a2.646,2.646,0,0,0,2.519,0l5.772-3.4,3.988-2.336,5.772-3.4a2.646,2.646,0,0,1,2.519,0l4.513,2.655a2.594,2.594,0,0,1,1.259,2.23v5.31a2.626,2.626,0,0,1-1.259,2.23L30.434,30.56a2.646,2.646,0,0,1-2.519,0L23.4,27.905a2.594,2.594,0,0,1-1.259-2.23v-3.4l-3.988,2.336v3.5a2.626,2.626,0,0,0,1.259,2.23l8.5,4.991a2.646,2.646,0,0,0,2.519,0l8.5-4.991a2.594,2.594,0,0,0,1.259-2.23V18.029a2.626,2.626,0,0,0-1.259-2.23Z" transform="translate(0 0.131)"/>
      </g>
    </g>
  </g>
</svg>
