<svg xmlns="http://www.w3.org/2000/svg" xmlns:xlink="http://www.w3.org/1999/xlink" width="114" height="64" viewBox="0 0 114 64">
  <defs>
    <style>
      .cls-1 {
        fill: #fff;
      }

      .cls-2 {
        clip-path: url(#clip-path);
      }

      .cls-3 {
        fill: #91d7ed;
      }

      .cls-4 {
        fill: #ebf6f6;
      }

      .cls-5 {
        fill: #96d7e2;
      }

      .cls-6 {
        fill: #96d8e8;
      }

      .cls-7 {
        fill: #92d7eb;
      }

      .cls-8 {
        fill: #8fd7f0;
      }

      .cls-9 {
        fill: #fcf3ec;
      }

      .cls-10 {
        fill: #edf0f4;
      }

      .cls-11 {
        fill: #f8b8c1;
      }

      .cls-12 {
        fill: #f9bfc2;
      }

      .cls-13 {
        fill: #f7b1c2;
      }

      .cls-14 {
        fill: #422e24;
      }

      .cls-15 {
        fill: #be99c6;
      }

      .cls-16 {
        fill: #f9c5c3;
      }

      .cls-17 {
        fill: #fbdfdb;
      }

      .cls-18 {
        fill: #f6adc2;
      }

      .cls-19 {
        fill: #f5a4c1;
      }

      .cls-20 {
        fill: #e94d9b;
      }

      .cls-21 {
        fill: #f59fc1;
      }

      .cls-22 {
        fill: #f29ac0;
      }

      .cls-23 {
        fill: #facbc4;
      }

      .cls-24 {
        fill: #f6a9c2;
      }

      .cls-25 {
        fill: #988684;
      }

      .cls-26 {
        fill: #fccfc2;
      }

      .cls-27 {
        fill: #feffff;
      }

      .cls-28 {
        fill: #ad3533;
      }

      .cls-29 {
        fill: #c75f93;
      }

      .cls-30 {
        fill: #ebdfec;
      }

      .cls-31 {
        fill: #c32829;
      }

      .cls-32 {
        fill: #e12026;
      }

      .cls-33 {
        clip-path: url(#clip-path-2);
      }

      .cls-34 {
        fill: #8247e5;
      }
    </style>
    <clipPath id="clip-path">
      <circle id="Ellipse_1970" data-name="Ellipse 1970" class="cls-1" cx="32" cy="32" r="32" transform="translate(-24423 -22253)"/>
    </clipPath>
    <clipPath id="clip-path-2">
      <circle id="Ellipse_1968" data-name="Ellipse 1968" class="cls-1" cx="32" cy="32" r="32" transform="translate(-24373 -22253)"/>
    </clipPath>
  </defs>
  <g id="Group_795" data-name="Group 795" transform="translate(24423 22253)">
    <g id="Mask_Group_129" data-name="Mask Group 129" class="cls-2">
      <g id="bsc" transform="translate(-24423.002 -22252.988)">
        <path id="Path_17844" data-name="Path 17844" class="cls-3" d="M-69.193,89.169c.081-.588.185-1.172.231-1.762A31.148,31.148,0,0,1-62.1,70.424,31.668,31.668,0,0,1-48.07,60.371a31.633,31.633,0,0,1,13.243-1.829,31.012,31.012,0,0,1,13.608,4.168,31.8,31.8,0,0,1,7.025,5.459A32.313,32.313,0,0,1-7.15,79.4,31.342,31.342,0,0,1-5.3,92.949a30.959,30.959,0,0,1-6.633,17.068,31.337,31.337,0,0,1-19.45,11.8c-1.384.258-2.8.337-4.2.505a3.281,3.281,0,0,0-.461.12h-2.378a1.439,1.439,0,0,0-.332-.12c-.888-.09-1.778-.148-2.664-.254a29.753,29.753,0,0,1-8.9-2.526,31.582,31.582,0,0,1-11.3-8.568,31.41,31.41,0,0,1-7.339-17.61c-.051-.57-.157-1.132-.231-1.7Zm9.77-18.885-.507.627c-.334.422-.692.835-1.006,1.266a30.632,30.632,0,0,0-3.921,6.841,29.85,29.85,0,0,0-2.207,10.1A29.909,29.909,0,0,0-66.58,95.8a29.984,29.984,0,0,0,3.051,8.721,34.6,34.6,0,0,0,3.967,5.766,3.171,3.171,0,0,0,1.76,1.764l.115.115.254.263a32.039,32.039,0,0,0,8.1,5.3A28.436,28.436,0,0,0-39,120.291a28.721,28.721,0,0,0,7.441-.461,34.135,34.135,0,0,0,6.919-2.191,29.2,29.2,0,0,0,8.764-6.084,29.785,29.785,0,0,0,4.2-5.229,29.153,29.153,0,0,0,4.53-13.9,28.74,28.74,0,0,0-.563-8.181A31.259,31.259,0,0,0-11.1,75.6a29.875,29.875,0,0,0-5.2-6.571,31.6,31.6,0,0,0-8.857-6.059,28.616,28.616,0,0,0-10.1-2.537,28.272,28.272,0,0,0-8.056.59,29.317,29.317,0,0,0-9.009,3.543c-1.465.895-2.818,1.972-4.223,2.966a12,12,0,0,0-1.252.812,2.145,2.145,0,0,0-.378.706l-.231.231c-.65.021-.786.554-1.01,1Z" transform="translate(69.195 -58.461)"/>
        <path id="Path_17845" data-name="Path 17845" class="cls-4" d="M-59.554,110.3a34.6,34.6,0,0,1-3.967-5.766,29.983,29.983,0,0,1-3.051-8.721,29.909,29.909,0,0,1-.484-6.689,29.85,29.85,0,0,1,2.207-10.1,30.632,30.632,0,0,1,3.921-6.841c.323-.431.671-.844,1.006-1.266l.507-.627h0l1.01-1,.231-.231,1.631-1.518c1.4-.994,2.768-2.076,4.223-2.966a29.317,29.317,0,0,1,9.009-3.543,28.272,28.272,0,0,1,8.054-.6,28.616,28.616,0,0,1,10.1,2.537,31.6,31.6,0,0,1,8.857,6.054,29.875,29.875,0,0,1,5.192,6.571,31.259,31.259,0,0,1,3.39,8.654,28.74,28.74,0,0,1,.563,8.181,29.153,29.153,0,0,1-4.518,13.9,29.785,29.785,0,0,1-4.2,5.245,29.2,29.2,0,0,1-8.764,6.084,34.135,34.135,0,0,1-6.919,2.191,29.342,29.342,0,0,1-7.441.461,28.436,28.436,0,0,1-10.333-2.553,32.207,32.207,0,0,1-8.1-5.3l-.254-.263-.115-.115Zm51.166-25.88a.431.431,0,0,0-.012-.122l-.208-.641q-.383-1.37-.773-2.742c-.461-1.153-.865-2.336-1.435-3.434a30.359,30.359,0,0,0-6.227-8.317,29.871,29.871,0,0,0-9.777-6.193c-1.229-.461-2.537-.731-3.813-1.086-1.384-.249-2.749-.567-4.138-.731a24.736,24.736,0,0,0-8.776.627c-.5.122-1.006.231-1.5.369A27.689,27.689,0,0,0-53.841,66.3a29.952,29.952,0,0,0-6.14,5.782,29.116,29.116,0,0,0-4.8,8.665,21.078,21.078,0,0,0-1.292,5.425.742.742,0,0,0-.072.173,28.459,28.459,0,0,0,.016,8.3,5.8,5.8,0,0,0,.279.923c.309,1.372.505,2.782.948,4.11a26.223,26.223,0,0,0,4.779,8.829,50.556,50.556,0,0,0,4.006,4.152,22.926,22.926,0,0,0,3.026,2.279,26.314,26.314,0,0,0,6.626,3.259,30.065,30.065,0,0,0,7.062,1.412,33.076,33.076,0,0,0,6.34-.168,27.506,27.506,0,0,0,9.182-2.844,30.083,30.083,0,0,0,8.135-6.089,30.445,30.445,0,0,0,5.04-7.233,27.031,27.031,0,0,0,2.537-7.842l.023-.251.362-3.384c-.037-1.573-.028-3.148-.131-4.717A24.156,24.156,0,0,0-8.388,84.415Z" transform="translate(69.195 -58.461)"/>
        <path id="Path_17846" data-name="Path 17846" class="cls-5" d="M-56.547,67.525l-1.631,1.518c.122-.231.189-.549.378-.706a12,12,0,0,1,1.252-.812Z" transform="translate(69.195 -58.461)"/>
        <path id="Path_17847" data-name="Path 17847" class="cls-5" d="M-59.554,110.3l1.76,1.764A3.171,3.171,0,0,1-59.554,110.3Z" transform="translate(69.195 -58.461)"/>
        <path id="Path_17848" data-name="Path 17848" class="cls-5" d="M-58.417,69.28l-1.01,1C-59.2,69.834-59.067,69.3-58.417,69.28Z" transform="translate(69.195 -58.461)"/>
        <path id="Path_17849" data-name="Path 17849" class="cls-5" d="M-59.425,70.284l-.507.627C-59.762,70.7-59.593,70.494-59.425,70.284Z" transform="translate(69.195 -58.461)"/>
        <path id="Path_17850" data-name="Path 17850" class="cls-5" d="M-57.679,112.175l.254.263Z" transform="translate(69.195 -58.461)"/>
        <path id="Path_17851" data-name="Path 17851" class="cls-6" d="M-8.165,95.424a27.031,27.031,0,0,1-2.537,7.842,30.445,30.445,0,0,1-5.04,7.233,30.083,30.083,0,0,1-8.135,6.089,27.506,27.506,0,0,1-9.182,2.844,33.075,33.075,0,0,1-6.34.168,30.064,30.064,0,0,1-7.062-1.412,26.314,26.314,0,0,1-6.626-3.259,22.926,22.926,0,0,1-3.026-2.279,50.555,50.555,0,0,1-4.006-4.152A26.18,26.18,0,0,1-64.9,99.67c-.443-1.328-.639-2.738-.948-4.11l.512.118a34.656,34.656,0,0,0,2.369,7.129,28.853,28.853,0,0,0,5.3,7.567,27.244,27.244,0,0,0,7.86,5.75,29.4,29.4,0,0,0,8.96,2.722,28.464,28.464,0,0,0,9.728-.337,27.04,27.04,0,0,0,7.69-2.855,26.688,26.688,0,0,0,5.927-4.308c1.174-1.165,2.263-2.424,3.326-3.69a23.635,23.635,0,0,0,3.847-6.8c.66-1.714,1.054-3.529,1.566-5.3Z" transform="translate(69.195 -58.461)"/>
        <path id="Path_17852" data-name="Path 17852" class="cls-6" d="M-66.072,86.166a21.077,21.077,0,0,1,1.292-5.425,29.116,29.116,0,0,1,4.8-8.665,29.951,29.951,0,0,1,6.14-5.782,27.688,27.688,0,0,1,8.792-4.152c.5-.134,1-.247,1.5-.369v.517c-.886.281-1.778.547-2.657.846a26.058,26.058,0,0,0-7.611,3.937,32.255,32.255,0,0,0-3.824,3.268,42.013,42.013,0,0,0-3.533,4.474,23.064,23.064,0,0,0-3.3,6.947c-.367,1.248-.657,2.519-.98,3.778a1.061,1.061,0,0,0-.374.161A2.223,2.223,0,0,0-66.072,86.166Z" transform="translate(69.195 -58.461)"/>
        <path id="Path_17853" data-name="Path 17853" class="cls-6" d="M-30.632,61.877c1.273.355,2.583.616,3.813,1.086a29.871,29.871,0,0,1,9.772,6.193,30.36,30.36,0,0,1,6.227,8.317c.57,1.1.962,2.286,1.435,3.434a2.171,2.171,0,0,1-.39-.113,2.634,2.634,0,0,1-.351-.258c-.378-.83-.738-1.668-1.137-2.489a29.627,29.627,0,0,0-7.15-9.246,29.061,29.061,0,0,0-9.332-5.5c-1.239-.461-2.537-.773-3.789-1.153Z" transform="translate(69.195 -58.461)"/>
        <path id="Path_17854" data-name="Path 17854" class="cls-7" d="M-30.632,61.877l-.9.272c-.865-.1-1.725-.265-2.592-.3-1.7-.071-3.4-.152-5.095-.078-1.444.065-2.878.339-4.318.519v-.517a24.736,24.736,0,0,1,8.776-.627C-33.381,61.309-32.011,61.628-30.632,61.877Z" transform="translate(69.195 -58.461)"/>
        <path id="Path_17855" data-name="Path 17855" class="cls-7" d="M-8.165,95.424l-.6.125c.122-.98.316-1.96.357-2.945a30.622,30.622,0,0,0-.708-8.815l.505-.138.208.641c-.014.014-.042.032-.039.037a.461.461,0,0,0,.051.085,24.237,24.237,0,0,1,.475,2.669c.1,1.568.095,3.144.131,4.714-.071.062-.2.118-.208.187-.1.923-.189,1.864-.263,2.8a1.172,1.172,0,0,0,.111.392Z" transform="translate(69.195 -58.461)"/>
        <path id="Path_17856" data-name="Path 17856" class="cls-7" d="M-66.072,86.166a2.223,2.223,0,0,1,.265-.461,1.061,1.061,0,0,1,.374-.161c-.127,1.3-.3,2.59-.371,3.891a30.323,30.323,0,0,0,.461,6.243l-.512-.118a5.8,5.8,0,0,1-.279-.923,28.459,28.459,0,0,1-.016-8.3A.742.742,0,0,1-66.072,86.166Z" transform="translate(69.195 -58.461)"/>
        <path id="Path_17857" data-name="Path 17857" class="cls-5" d="M-8.608,83.649l-.505.138q-.5-1.614-1.008-3.252a2.635,2.635,0,0,0,.351.258,2.171,2.171,0,0,0,.39.113Q-9,82.277-8.608,83.649Z" transform="translate(69.195 -58.461)"/>
        <path id="Path_17858" data-name="Path 17858" class="cls-6" d="M-8.142,95.172a1.172,1.172,0,0,1-.111-.392c.074-.934.164-1.868.263-2.8,0-.069.136-.125.208-.187Z" transform="translate(69.195 -58.461)"/>
        <path id="Path_17859" data-name="Path 17859" class="cls-5" d="M-8.388,84.415a.461.461,0,0,1-.051-.085l.039-.037A.431.431,0,0,1-8.388,84.415Z" transform="translate(69.195 -58.461)"/>
        <path id="Path_17860" data-name="Path 17860" class="cls-4" d="M-10.121,80.536q.505,1.626,1.008,3.252A30.622,30.622,0,0,1-8.4,92.6c-.042.985-.231,1.965-.357,2.945-.512,1.771-.906,3.586-1.566,5.3a23.635,23.635,0,0,1-3.847,6.8c-1.063,1.271-2.152,2.537-3.326,3.69a26.688,26.688,0,0,1-5.928,4.308,27.04,27.04,0,0,1-7.69,2.855,28.464,28.464,0,0,1-9.728.337,29.4,29.4,0,0,1-8.96-2.722,27.243,27.243,0,0,1-7.853-5.75,28.853,28.853,0,0,1-5.3-7.567,34.656,34.656,0,0,1-2.371-7.131,29.433,29.433,0,0,1-.461-6.243c.074-1.3.244-2.595.371-3.891.323-1.259.614-2.537.98-3.778a23.064,23.064,0,0,1,3.3-6.947,42.015,42.015,0,0,1,3.527-4.47A32.255,32.255,0,0,1-53.8,67.078a26.1,26.1,0,0,1,7.611-3.937c.879-.3,1.771-.565,2.657-.846,1.439-.18,2.874-.461,4.318-.519,1.7-.074,3.4,0,5.095.078.867.035,1.728.2,2.592.3,1.264.381,2.551.692,3.789,1.153a29.061,29.061,0,0,1,9.32,5.494,29.491,29.491,0,0,1,7.15,9.246C-10.859,78.88-10.5,79.705-10.121,80.536ZM-50.944,66.017h0l-3.367,2.253-.249.231-1.5,1.259h0a1.753,1.753,0,0,0-.406.254c-.828.923-1.644,1.845-2.466,2.768-.168.21-.351.411-.505.63A25.526,25.526,0,0,0-62.8,79.272c-.6,1.651-1.1,3.342-1.647,5.014a28.14,28.14,0,0,0-.588,3.388c-.1,1.7-.023,3.416-.023,5.125.037.286.081.572.111.86a27.093,27.093,0,0,0,1.868,7.316,25.438,25.438,0,0,0,3.275,5.84l1.363,1.651.242.357c.547.6,1.052,1.236,1.644,1.783.71.657,1.495,1.234,2.246,1.845h0l.627.5a16.171,16.171,0,0,0,1.568,1.1c1.384.75,2.786,1.444,4.184,2.159a5.551,5.551,0,0,0,.657.341,25.188,25.188,0,0,0,5.718,1.536c1.086.131,2.177.231,3.266.334h1.252l3.755-.231.881-.231a7.906,7.906,0,0,0,1.174-.111,28.557,28.557,0,0,0,7.339-2.7,30.676,30.676,0,0,0,5.835-4.119,28.445,28.445,0,0,0,5.231-6.481c.417-.708.713-1.49,1.066-2.237a2.484,2.484,0,0,0,.351-.5c.394-1.017.812-2.03,1.137-3.07.274-.881.438-1.8.65-2.7.168-1.153.362-2.318.5-3.483a23.034,23.034,0,0,0-.535-8.1,27.509,27.509,0,0,0-2.685-7.15,26.548,26.548,0,0,0-4.8-6.458,54.455,54.455,0,0,0-4.737-3.921,21.922,21.922,0,0,0-2.768-1.536l-3.125-1.384A25.241,25.241,0,0,0-37,62.324a29.021,29.021,0,0,0-4.578.369,27.649,27.649,0,0,0-9.226,3.229Z" transform="translate(69.195 -58.461)"/>
        <path id="Path_17861" data-name="Path 17861" class="cls-8" d="M-54.561,68.5l.249-.231a2.95,2.95,0,0,0,.667-.231c.786-.514,1.559-1.049,2.327-1.594a2.424,2.424,0,0,0,.385-.436h0l.131-.115a27.65,27.65,0,0,1,9.226-3.229A29.023,29.023,0,0,1-37,62.3,25.242,25.242,0,0,1-27.772,64c-.062.307-.145.609-.182.923a1.831,1.831,0,0,0,.065.48l-1.25,1.5a2.452,2.452,0,0,0-.512.383c-.593.733-1.192,1.462-1.723,2.237a6.362,6.362,0,0,0-.528,1.259,1.075,1.075,0,0,1-1.241.763,5.922,5.922,0,0,0-3.259.5c-.5-.593-.284-1.1.143-1.628a1.931,1.931,0,0,0,.212-.669.355.355,0,0,1,.014-.1l.364-.4c.369-.408.752-.8,1.1-1.229a5.785,5.785,0,0,0,.447-.727,4.383,4.383,0,0,0-.867-.037A7.381,7.381,0,0,0-36,67.544a4.542,4.542,0,0,0-1.319.427A6.859,6.859,0,0,0-38.4,69.163h0l-.127.247h0l-.258.369c-.357.8-.715,1.614-1.089,2.445a1.384,1.384,0,0,1-.348-.161c-1.352-1.031-2.911-.584-4.4-.618-.134,0-.27.2-.406.314.127.131.231.318.385.387.491.231,1.04.334,1.5.6.77.45,1.488.985,2.306,1.541-1.384.325-2.562.584-3.739.888-.66.171-1.3.413-1.949.623-.9.284-1.075-.673-1.614-1l-.436.371a4.4,4.4,0,0,1-2.353-.392c-.032-.178,0-.427-.108-.519a1.571,1.571,0,0,1-.524-1.437,6.334,6.334,0,0,0,0-.863c-.016-.309-.1-.581-.5-.558h-.134c-.607.141-.374.643-.348.971a2.712,2.712,0,0,1-1.4,2.413c-.554.042-1.109.053-1.654.138-.212.032-.4.231-.6.353l.127.159c.141.143.277.4.422.408.57.021,1.153-.037,1.714-.065l1.368,1c.085.549.191,1.1.231,1.649a.648.648,0,0,1-.231.461c-.713.6-1.49,1.121-2.159,1.762a11.232,11.232,0,0,0-2.537,3.437,13.481,13.481,0,0,0-1.243,4.975,9.148,9.148,0,0,0,1.128,5.561c.923,1.5,1.349,1.734,3.054,1.384.505-.108.625.03.75.5.279,1.033.653,2.039.989,3.056l.014.251c.039.157.071.318.12.473.258.8.2.874-.586,1.229a.8.8,0,0,0-.408.581c0,.692.074,1.384.122,2.076a1.364,1.364,0,0,0,.865,1.755h0l.487.387h0l.411.482.113.1a2.446,2.446,0,0,0,1.894,1.273l.461.148c.231.164.461.337.692.482a2.162,2.162,0,0,0,.436.168,8.137,8.137,0,0,0,.987.332,3.863,3.863,0,0,0,.784.012c.662,0,1.324.012,1.986,0,.125,0,.244-.15.364-.231h.623c-.042.461.028.8.63.78.12,0,.249.3.374.461l-.265.507-.738.883a6,6,0,0,0-.577-.214.5.5,0,0,0-.653.6l-.025.231q-.249.563-.5,1.13l-.085.016a2.23,2.23,0,0,0-.487.408,6.391,6.391,0,0,0-.547,1.013c-.161.376-.272.775-.406,1.153a.892.892,0,0,1-.131.321c-.046.046-.244.042-.265,0-.3-.556-.745,0-1.089-.155-1.4-.715-2.807-1.409-4.184-2.159a16.17,16.17,0,0,1-1.568-1.1c.025-.461-.291-.5-.627-.5h0a3.392,3.392,0,0,0-.51-.858c-.842-.773-1.721-1.5-2.6-2.24a9.357,9.357,0,0,0-.784-.533l-.242-.357a2.021,2.021,0,0,0-1.363-1.651,25.437,25.437,0,0,1-3.275-5.84,27.094,27.094,0,0,1-1.868-7.316c-.03-.288-.074-.574-.111-.86a3.648,3.648,0,0,0,.115-.71,34.479,34.479,0,0,1,.6-7.288,1.46,1.46,0,0,0-.1-.514c.547-1.672,1.045-3.363,1.647-5.014a25.623,25.623,0,0,1,3.365-5.861c.155-.219.337-.42.505-.63a2.259,2.259,0,0,0,.623-.332c.706-.752,1.384-1.527,2.064-2.306a1.541,1.541,0,0,0,.185-.376h0A1.869,1.869,0,0,0-54.561,68.5Z" transform="translate(69.195 -58.461)"/>
        <path id="Path_17862" data-name="Path 17862" class="cls-8" d="M-24.649,65.392a22.084,22.084,0,0,1,2.768,1.536,54.457,54.457,0,0,1,4.737,3.921,27.181,27.181,0,0,1,4.8,6.458,27.929,27.929,0,0,1,2.685,7.15,23.034,23.034,0,0,1,.535,8.1c-.136,1.165-.33,2.323-.5,3.483-.092.111-.231.21-.268.334-.083.36-.065.747-.18,1.093-.337,1.024-.7,2.039-1.086,3.047-.166.438-.4.851-.609,1.275-.491.231-.641-.092-.8-.524a1.093,1.093,0,0,0-.316.505c-.051.231.035.535-.076.729a1.815,1.815,0,0,0-.122,1.476,1.278,1.278,0,0,1-.231.763c-.231.4-.533.754-.789,1.139-.141.21-.251.438-.374.66l-.231-.071a7.983,7.983,0,0,1,.247-1.024c.12-.325.134-.528-.288-.526h0l-.231-.325c-.62.551-1.342-.021-2.011.173-.191.058-.475-.2-.717-.311a3.037,3.037,0,0,1,.627-.514c.537-.231,1.1-.415,1.656-.623.4-.15.793-.309,1.139-.445a8.111,8.111,0,0,0,.632-1.37,5.951,5.951,0,0,0,.272-3.162,5.766,5.766,0,0,0-.33-.77c-.191.127-.383.258-.579.378-.1.065-.288.088-.318.173-.348.983-.955.757-1.774.6-.752-.141-.976-.614-1.46-1.128h.722c-.046-.533-.062-1.024-.148-1.5-.032-.191-.231-.357-.341-.533-.06.182-.122.364-.18.547s-.127.434-.191.65c-.161-.129-.417-.231-.461-.392a7.067,7.067,0,0,1-.579-3.116c.051-.357.138-.842-.042-1.07-.422-.535-.249-1.107-.321-1.665-.016-.127-.157-.231-.231-.36V89.9c.039-.318.081-.634.122-.953a6.55,6.55,0,0,1,.111-1.077,1.5,1.5,0,0,0-.256-1.508,2.876,2.876,0,0,1-.376-.484c-.3-.614-.579-1.245-.881-1.861-.032-.065-.18-.074-.272-.111h0v-.256l.194-.1-.194-.155-.627-1.25c0-.351-.178-.535-.881-.876a.275.275,0,0,0-.016-.113c.265-.427-.21-.441-.355-.639l.5-.75-.157-.231-.231.231c-.461.254-.733.1-.823-.337l.692-.667a24.448,24.448,0,0,0,6.919-3.646,7.166,7.166,0,0,0-.8-.461c-.284-.108-.588-.164-.883-.244a1.868,1.868,0,0,0-2-.383L-20.313,74a4.22,4.22,0,0,0-1.126-.581,13.319,13.319,0,0,0-2.735-.231c-.4.016-1.043-.187-1.257.482l-1.245.692a53.74,53.74,0,0,0,.106-8.732l.417-.037-.175-.823a6.306,6.306,0,0,0,.692.353C-25.281,65.242-24.962,65.309-24.649,65.392Zm9.154,38.916c-.035.053-.092.106-.081.136s.1.1.115.09a.641.641,0,0,0,.129-.143Z" transform="translate(69.195 -58.461)"/>
        <path id="Path_17863" data-name="Path 17863" class="cls-7" d="M-14.761,104.942c.422,0,.408.2.288.526a7.983,7.983,0,0,0-.247,1.024l.231.071a6.776,6.776,0,0,1,.374-.66c.256-.385.554-.743.789-1.139A1.142,1.142,0,0,0-13.1,104a1.815,1.815,0,0,1,.122-1.476c.111-.194.025-.489.076-.729a1.093,1.093,0,0,1,.316-.505c.161.431.311.754.8.524v.512c-.353.747-.648,1.529-1.066,2.237a28.445,28.445,0,0,1-5.231,6.479,30.676,30.676,0,0,1-5.835,4.119,28.571,28.571,0,0,1-7.339,2.7,7.907,7.907,0,0,1-1.174.111c.014-.06.014-.157.048-.173.893-.4,1.875-.5,2.8-.807.81-.272,1.331-.657,1.412-1.513a1.806,1.806,0,0,0-.519-1.425l.837-.131.131,2.039a11.786,11.786,0,0,0,.293-1.741.787.787,0,0,1,.323-.514,7.007,7.007,0,0,1,1.049-.378,1.845,1.845,0,0,0,.325.076c.56.021,1.123.03,1.684.042l.33.664.514-.8c.5.03,1.008.09,1.266-.676l-.607.044-.637-.385c.623-.316,1.195-.56,1.718-.888a11.362,11.362,0,0,0,1.478-1.119,3.573,3.573,0,0,0,.512-.777,4.182,4.182,0,0,0-.962,0,2.228,2.228,0,0,1-2.537-2.394c.021,0,.044-.018.06,0a.923.923,0,0,1,.161.088,5.4,5.4,0,0,0,3.826,1.008,5.606,5.606,0,0,0,3.824-2.323A3.059,3.059,0,0,0-14.761,104.942Z" transform="translate(69.195 -58.461)"/>
        <path id="Path_17864" data-name="Path 17864" class="cls-8" d="M-28.66,114.048a1.806,1.806,0,0,1,.519,1.425c-.081.856-.6,1.241-1.412,1.513-.923.311-1.91.408-2.8.807-.035.016-.035.113-.048.173l-.881.231c-.138-.081-.281-.231-.413-.231-.837.058-1.674.141-2.507.244a5.73,5.73,0,0,0-.835.231h-1.252c-.2-.118-.4-.316-.614-.339-.717-.078-1.442-.095-2.09-.129l-.558-.992.484-1.368a43.638,43.638,0,0,0,8.317-1.794,2.761,2.761,0,0,0,.837.475,8.015,8.015,0,0,0,1.525,0c.081,0,.152-.152.231-.231h.249c.323.353.558.353.876,0Zm-2.383,2.809-.053-.364-.731.083.074.429Zm-8.7-.879c.035.014.078.048.1.039s.032-.065.046-.1c-.035-.014-.076-.048-.1-.039S-39.728,115.944-39.744,115.978Zm10.042.309c-.035-.014-.076-.048-.1-.039s-.032.065-.048.1c.035.014.078.048.1.039S-29.716,116.322-29.7,116.288Z" transform="translate(69.195 -58.461)"/>
        <path id="Path_17865" data-name="Path 17865" class="cls-7" d="M-30.156,114.062c-.076.083-.148.231-.231.231a8.014,8.014,0,0,1-1.525,0,2.761,2.761,0,0,1-.837-.475A43.638,43.638,0,0,1-41.07,115.6l-.484,1.368.558.992c.648.035,1.384.051,2.09.129.214.023.411.231.614.339-1.089-.111-2.18-.2-3.266-.334a25.552,25.552,0,0,1-5.718-1.536,5.549,5.549,0,0,1-.657-.341c.344.155.789-.4,1.089.155.021.039.219.044.265,0a.892.892,0,0,0,.131-.321c.134-.387.244-.786.406-1.153a6.391,6.391,0,0,1,.547-1.013,2.231,2.231,0,0,1,.487-.408c-.085.187-.175.371-.254.558a9.486,9.486,0,0,0-.519,1.324c-.053.217.042.648.182.692a1.292,1.292,0,0,0,.923,0,1.392,1.392,0,0,1,1.9.325c.048.053.15.058.231.083h.371l.381-.131c.115-.164.325-.328.328-.494,0-.584.4-.6.8-.63a2.5,2.5,0,0,0,.436-.014,52.3,52.3,0,0,0,7.551-1.748,1.289,1.289,0,0,1,.692.046C-31.367,113.656-30.763,113.866-30.156,114.062Z" transform="translate(69.195 -58.461)"/>
        <path id="Path_17866" data-name="Path 17866" class="cls-6" d="M-64.451,84.281a1.46,1.46,0,0,1,.1.514,34.479,34.479,0,0,0-.6,7.288,3.649,3.649,0,0,1-.115.71c0-1.709-.078-3.423.023-5.125A28.142,28.142,0,0,1-64.451,84.281Z" transform="translate(69.195 -58.461)"/>
        <path id="Path_17867" data-name="Path 17867" class="cls-5" d="M-11.763,102.318v-.512c.205-.424.443-.837.609-1.275.383-1.008.75-2.023,1.086-3.047.115-.346.1-.733.18-1.093.028-.125.175-.231.268-.334-.212.9-.376,1.815-.65,2.7-.325,1.04-.743,2.053-1.137,3.07a2.484,2.484,0,0,1-.355.5Z" transform="translate(69.195 -58.461)"/>
        <path id="Path_17868" data-name="Path 17868" class="cls-5" d="M-24.649,65.392c-.314-.083-.632-.15-.939-.254a6.306,6.306,0,0,1-.692-.353l.175.823-.417.037a3.739,3.739,0,0,0-.088-.667,1.9,1.9,0,0,0-.277-.441c-.125.09-.258.168-.371.268-.214.191-.417.394-.625.593a1.831,1.831,0,0,1-.065-.48c.037-.309.12-.611.182-.923Z" transform="translate(69.195 -58.461)"/>
        <path id="Path_17869" data-name="Path 17869" class="cls-6" d="M-58.2,108.819a9.358,9.358,0,0,1,.784.533c.876.736,1.755,1.467,2.6,2.24a3.533,3.533,0,0,1,.51.858c-.752-.614-1.536-1.19-2.246-1.845C-57.151,110.056-57.661,109.417-58.2,108.819Z" transform="translate(69.195 -58.461)"/>
        <path id="Path_17870" data-name="Path 17870" class="cls-6" d="M-56.062,69.767a1.54,1.54,0,0,1-.185.376c-.678.775-1.358,1.55-2.064,2.306a2.258,2.258,0,0,1-.623.332c.821-.923,1.638-1.845,2.466-2.768A1.753,1.753,0,0,1-56.062,69.767Z" transform="translate(69.195 -58.461)"/>
        <path id="Path_17871" data-name="Path 17871" class="cls-6" d="M-50.933,66.012a2.424,2.424,0,0,1-.385.436c-.768.544-1.541,1.079-2.327,1.594a2.95,2.95,0,0,1-.667.231Z" transform="translate(69.195 -58.461)"/>
        <path id="Path_17872" data-name="Path 17872" class="cls-7" d="M-37.039,118.435a5.73,5.73,0,0,1,.835-.231c.833-.1,1.67-.187,2.507-.244.131,0,.274.15.413.231Z" transform="translate(69.195 -58.461)"/>
        <path id="Path_17873" data-name="Path 17873" class="cls-5" d="M-59.808,106.81a2.021,2.021,0,0,1,1.363,1.651Z" transform="translate(69.195 -58.461)"/>
        <path id="Path_17874" data-name="Path 17874" class="cls-6" d="M-54.561,68.5a1.887,1.887,0,0,1-1.5,1.259Z" transform="translate(69.195 -58.461)"/>
        <path id="Path_17875" data-name="Path 17875" class="cls-6" d="M-54.312,112.447c.337,0,.653.042.627.5Z" transform="translate(69.195 -58.461)"/>
        <path id="Path_17876" data-name="Path 17876" class="cls-6" d="M-50.8,65.9l-.131.115C-50.891,65.978-50.847,65.941-50.8,65.9Z" transform="translate(69.195 -58.461)"/>
        <path id="Path_17877" data-name="Path 17877" class="cls-9" d="M-52.531,99.8l-.014-.251a1.153,1.153,0,0,0,.042-.387c-.3-1.206-.616-2.41-.923-3.614.54.039.692-.2.577-.717-.178-.881-.3-1.774-.461-2.662l.637-.129.012.129.346.637h0l.127.251h0l.118.148a.217.217,0,0,0,0,.095l.141.376.378.5c.263.2.521.549.789.56.669.023,1.34-.143,2.014-.168.549-.021,1.1.048,1.651.078l-1.273,1.232.131.129,2.306-.3a6.618,6.618,0,0,0-.482,3.651,5.487,5.487,0,0,0,1.049,3.137,1.145,1.145,0,0,0,.856.461c.268-.042.567-.378.736-.657a1.977,1.977,0,0,0,.314-1.031c-.046-1.257-.141-2.514-.272-3.764a7.48,7.48,0,0,0-.385-1.326c.593.549,1.176,1.112,1.783,1.642a2.087,2.087,0,0,1,.593,2.21c-.032.143-.053.288-.081.434l.141.074,2.871-3.487.016.258v1.5q-.258,1.384-.514,2.749a22.1,22.1,0,0,0-2.807.387,1.728,1.728,0,0,0-.906.978,3.865,3.865,0,0,0-.152,1.467,2.364,2.364,0,0,0,2.06,2.249,2.135,2.135,0,0,0,2.293-.973,2.971,2.971,0,0,1,.341-.473l.438.249-.277,1.631c-.383,0-.777-.085-1.052.339-.051.076-.371-.014-.565-.039s-.325-.062-.489-.092a3.583,3.583,0,0,1,0,.445,3.841,3.841,0,0,1-.072.422,3.155,3.155,0,0,1-.422-.113c-.074-.03-.122-.12-.191-.194-.076.081-.15.127-.15.171,0,.588-.318.623-.807.584-.231-.018-.5.231-.747.351h-.247a1.232,1.232,0,0,0-.33-.127c-1.026-.078-2.076-.074-3.079-.231a27.807,27.807,0,0,1-2.791-.74.152.152,0,0,1-.055-.025,13.2,13.2,0,0,1-2.306-1.822,5.775,5.775,0,0,1-1.446-3.061c.127.06.281.2.376.164.3-.1.692-.191.821-.417.189-.323.014-.639-.45-.627.081-.161.164-.323.247-.482A1.233,1.233,0,0,0-52.531,99.8Zm6.55,5.335c-1.121.108-2.2.205-3.287.344-.076,0-.212.422-.15.491a9.812,9.812,0,0,0,1.548,1.5,1.126,1.126,0,0,0,1.075-.053A2.415,2.415,0,0,0-45.981,105.136Z" transform="translate(69.195 -58.461)"/>
        <path id="Path_17878" data-name="Path 17878" class="cls-10" d="M-53.428,95.548c.309,1.2.625,2.408.923,3.614a1.153,1.153,0,0,1-.042.387c-.337-1.017-.71-2.023-.989-3.056-.125-.461-.244-.6-.75-.5-1.7.36-2.124.125-3.054-1.384a9.148,9.148,0,0,1-1.128-5.561,13.481,13.481,0,0,1,1.243-4.975,11.232,11.232,0,0,1,2.537-3.437c.669-.641,1.446-1.167,2.159-1.762a.648.648,0,0,0,.231-.461c-.051-.554-.157-1.1-.231-1.649-.055-.692-.505-1.068-1.384-1.123h0l-.122-.611.134-.113a1.365,1.365,0,0,0,1.347-1.093c.194-.8.263-1.626.385-2.44h.134a9.519,9.519,0,0,0,.155,1.785c.155.57.191,1.347.973,1.591a4.287,4.287,0,0,0,2.353.392,1.9,1.9,0,0,1-.413.231,9.024,9.024,0,0,0-2.011.565c-.9.5-.939,1.474-.985,2.537l3.321-1.518-.035-.189-.657-.281,1.243-1.112c.669,1.01.784,1.043,1.589.387.648-.21,1.289-.461,1.949-.623,1.176-.3,2.362-.563,3.739-.888-.823-.556-1.541-1.091-2.306-1.541a15.511,15.511,0,0,0-1.5-.6c-.155-.069-.258-.256-.385-.387.136-.111.272-.318.406-.314,1.485.035,3.044-.413,4.4.618a1.384,1.384,0,0,0,.348.161c.374-.842.731-1.642,1.089-2.445l.258-.369h0l.127-.247h0c.2-.129.406-.251.6-.387.6-.408,1.195-.821,1.792-1.232a7.38,7.38,0,0,1,1.015-.281,4.382,4.382,0,0,1,.867.037A5.783,5.783,0,0,1-34.55,68c-.351.424-.733.821-1.1,1.229l-.364.4a.355.355,0,0,0-.014.1c-.115.081-.281.134-.337.231q-.609,1.222-1.172,2.461a3.766,3.766,0,0,0-.129.733c.517-.461.9-.8,1.282-1.139a5.922,5.922,0,0,1,3.259-.5,1.075,1.075,0,0,0,1.241-.763c.692-.936,1.4-1.871,2.076-2.814.247-.341.461-.71.692-1.066l1.25-1.5c.208-.2.411-.4.625-.593.113-.1.247-.178.371-.268a1.9,1.9,0,0,1,.277.441,3.739,3.739,0,0,1,.088.667,53.739,53.739,0,0,1-.106,8.732l1.245-.692a4,4,0,0,1,1.153-.219c1.331.143,2.652.36,3.976.549l.489.039,2,.383c.3.081.6.136.883.244a7.163,7.163,0,0,1,.8.461,24.448,24.448,0,0,1-6.919,3.646l-1.465.394,1.266,1.384.51.625a.275.275,0,0,0,.016.113l.5.752,1,1.882h0c.337,1.1.717,2.186,1,3.3.231.888.337,1.806.5,2.71v.242a19.353,19.353,0,0,0,.627,5.422,5.477,5.477,0,0,0,2.076,3.36c1.033.65,1.771.75,2.521-.18a2.307,2.307,0,0,1,.309-.309c.328-.277.567-.18.574.231a6.248,6.248,0,0,1-.122,1.483,3.963,3.963,0,0,1-3.229,3.441c-.625.113-1.259.178-1.967.274a2.712,2.712,0,0,0,2.143,1.282,16.6,16.6,0,0,0,1.951-.231h0a2.87,2.87,0,0,1-.325.962,5.607,5.607,0,0,1-3.824,2.323,5.4,5.4,0,0,1-3.792-1.017.923.923,0,0,0-.161-.088h-.06a2.218,2.218,0,0,0,2.537,2.394,4.181,4.181,0,0,1,.962,0,3.573,3.573,0,0,1-.512.777,11.361,11.361,0,0,1-1.483,1.112c-.524.328-1.1.572-1.718.888l.637.385-.66.632-.514.8c-.1-.194-.214-.429-.33-.664a2.115,2.115,0,0,0-.392-.427c-.62-.381-1.121-.028-1.614.309a7.01,7.01,0,0,0-1.049.378.787.787,0,0,0-.323.514,11.785,11.785,0,0,1-.293,1.741l-.131-2.039-.837.131-.371.016h-1.126c-.607-.2-1.209-.406-1.82-.581a1.289,1.289,0,0,0-.692-.046,51.42,51.42,0,0,1-7.551,1.748c-.143.025-.291,0-.436.014-.4.035-.793.046-.8.63,0,.166-.212.33-.328.494l-.381.131h-.371l.125-.219c.334-.1.733-.118.6-.657s-.244-1.126-.383-1.785c.328.053.579.106.83.129s.54,0,.81.016c-.051.3-.1.609-.191,1.139.835-.191,1.511-.357,2.191-.5,1.049-.231,2.11-.39,3.146-.66s2.076-.65,3.128-.98a5.377,5.377,0,0,0,3.365.75c.337-.048.84.1.9-.489.268-.055.662-.018.777-.182a16.376,16.376,0,0,0,.962-1.688l1.817.265-.143.563c.436-.217.782-.549,1.043-.491a2.322,2.322,0,0,0,1.755-.461c.586-.346,1.132-.759,1.7-1.153l-.1-.171c-.231.021-.475.042-.713.058a1.891,1.891,0,0,1-1.7-.86,4.2,4.2,0,0,1-.92-2.26V106.1l.231-.182a3.554,3.554,0,0,0,2.445,1.753,4.924,4.924,0,0,0,3.056-.136,4.44,4.44,0,0,0,2.376-1.974c-.441,0-.793.016-1.153,0a3.3,3.3,0,0,1-2.881-1.873,1.8,1.8,0,0,1-.081-.623l.618.134,1.015.125.992-.129.648-.249c1.384-.3,2.8-2.807,2.133-3.893a2.537,2.537,0,0,0-.378.293,1.359,1.359,0,0,1-1.614.429,6.744,6.744,0,0,1-1.4-.8,11.637,11.637,0,0,1-1.1-1.066l-.035-.355-.125-.131h0l-.12-.251a12.2,12.2,0,0,1-.906-4.3,6.748,6.748,0,0,0-.217-1.333V89.921q-.3-1.515-.607-3.028a.482.482,0,0,0,0-.1v-.129l-.023-.251-.1-.127-.985-2.537q-.572-.994-1.139-1.984l-.491-.743-.131-.129h0l-.127-.129h0l-.122-.155a.108.108,0,0,0,0-.085l-.136-.134-1.354-1.476,1.239-.254,2.265-.74h0l.614-.281h0l.263-.118h0l.249-.138h0l.189-.127h0l.3-.136h0l.256-.122h0l.258-.127h0l.136-.131.883-.461.729-.417h0l.383-.249h0c.242-.138.487-.272.717-.424a1.506,1.506,0,0,0-.106-.254l-.12-.012-.376.028a.293.293,0,0,0,0-.065l-1.093-.256-.291.053-1-.341h0l-.429-.1-1.326-.18-.2-.025c-.551-.069-1.1-.161-1.649-.205-.784-.06-1.6-.254-2.256.411l-1.6.752c.058-.427.122-.888.185-1.347l.111-.5.081-.653-.037-.231-.028-.129c.381-.251.27-.563.106-.879q0-1.566.025-3.132l-.021-.747h0l-.037-.325-.042-.3V65.77l-.046-.136c0-.208.018-.417.025-.627l-.074-.1-.6.713h.014l-.129.138h0l-.53.727h-.014L-28.92,67.5h0l-.127.127h0l-.369.505h0l-.231.268h0l-.155.231h0l-.231.272h0l-.786,1.1v.012l-.111.131h0l-.258.36H-31.2l-.581.77h0l-.491.729c-.166-.012-.332-.018-.5-.039-2.094-.274-4.039.185-5.127,2.306-.053.1-.175.168-.268.251a10.833,10.833,0,0,1,2.931-6.58,5.178,5.178,0,0,0-4.2,5.2,4.824,4.824,0,0,0-4.735-1.3,9.412,9.412,0,0,1,3.946,2.768,2.261,2.261,0,0,1-.383.168c-.934.175-1.875.314-2.8.526-.717.161-1.414.413-2.12.625l-.406.231a.288.288,0,0,0-.1.018l-.514.362h0l-.865.263-.134.106-.249.138h0l-.219.385a.719.719,0,0,0-.025.122c-.551-.434-.959,0-1.4.231l-1.481.653-.129.108h0l-.272.122-.231.129a12.219,12.219,0,0,0-1.8,1.176c-.833.752-1.566,1.614-2.341,2.429a7.157,7.157,0,0,0-1.635,3.121l-.475,1.543a.429.429,0,0,0,0,.108l-.254,1.769v.242l-.088.385a.254.254,0,0,0,0,.118v.256a.263.263,0,0,0,0,.12c.035.461.03.923.108,1.361a7.4,7.4,0,0,0,1.384,3.527,1.552,1.552,0,0,0,1.984.768A4.134,4.134,0,0,1-53.428,95.548Zm28.916,17.084v-.261c-.664.021-1.315-.371-1.99-.069v.191Z" transform="translate(69.195 -58.461)"/>
        <path id="Path_17879" data-name="Path 17879" class="cls-6" d="M-46.521,75.794c-.8.655-.923.623-1.589-.387l-1.243,1.112.657.281.035.189-3.321,1.518c.046-1.063.085-2.041.985-2.537a9.277,9.277,0,0,1,2.011-.565,1.9,1.9,0,0,0,.413-.231l.436-.371C-47.6,75.12-47.425,76.077-46.521,75.794Z" transform="translate(69.195 -58.461)"/>
        <path id="Path_17880" data-name="Path 17880" class="cls-10" d="M-53.048,102.929a5.775,5.775,0,0,0,1.446,3.061,13.372,13.372,0,0,0,2.306,1.822.152.152,0,0,0,.055.025,27.322,27.322,0,0,0,2.791.74c1.013.166,2.053.161,3.079.231a1.232,1.232,0,0,1,.33.127l-.129.118h-.623a14.542,14.542,0,0,1-5.259-.754l-.461-.148-1.894-1.273-.113-.1-.411-.482h0l-.487-.387h0l-.865-1.755c-.048-.692-.129-1.384-.122-2.076a.8.8,0,0,1,.408-.581c.786-.355.844-.429.586-1.229-.048-.155-.081-.316-.12-.473a1.247,1.247,0,0,1,.461,1.764c-.083.159-.166.321-.247.482C-53.278,102.059-53.278,102.059-53.048,102.929Z" transform="translate(69.195 -58.461)"/>
        <path id="Path_17881" data-name="Path 17881" class="cls-10" d="M-42.8,108.937c.249-.125.507-.369.747-.351.489.039.812,0,.807-.584,0-.044.074-.09.15-.171.069.074.118.164.191.194a3.152,3.152,0,0,0,.422.113,3.839,3.839,0,0,0,.072-.422c.012-.148,0-.3,0-.445.164.03.325.071.489.092s.514.115.565.039c.274-.424.669-.337,1.052-.341l-.36.87h0l-.247.108c-.957.328-.957.328-.9,1.28a3.921,3.921,0,0,0,.03.436.649.649,0,0,1-.461.826h-.692c-.512-.231-1.008-.371-1.384.231a1,1,0,0,1-.118,0l.265-.507c.837-.332,1.054-1.352,1.877-1.679Z" transform="translate(69.195 -58.461)"/>
        <path id="Path_17882" data-name="Path 17882" class="cls-4" d="M-42.438,110.807a1,1,0,0,0,.118,0l-.231.957a1.4,1.4,0,0,1-.431.231,1.494,1.494,0,0,0-1.345,1.153,22.407,22.407,0,0,1-1.116,2.133c-.178.374.012.63.487.648l.528-1.384a3.144,3.144,0,0,0,.018.417.461.461,0,0,0,0,.081c-.037.244-.125.507.286.51.648,0,1.365-.155,1.691.671l-.125.219c-.078-.025-.18-.03-.231-.083a1.4,1.4,0,0,0-1.9-.325,1.292,1.292,0,0,1-.923,0c-.141-.055-.231-.487-.182-.692a9.486,9.486,0,0,1,.519-1.324c.078-.187.168-.371.254-.558l.085-.016q.247-.567.5-1.13a1.764,1.764,0,0,1,.025-.231l1.229-.387Z" transform="translate(69.195 -58.461)"/>
        <path id="Path_17883" data-name="Path 17883" class="cls-6" d="M-42.8,108.937l2.5-.316c-.823.328-1.04,1.347-1.877,1.679-.125-.161-.254-.461-.374-.461-.6.021-.671-.318-.63-.78l.129-.118Z" transform="translate(69.195 -58.461)"/>
        <path id="Path_17884" data-name="Path 17884" class="cls-6" d="M-49.053,108.317a14.542,14.542,0,0,0,5.259.754c-.12.081-.231.231-.364.231-.662.021-1.324,0-1.986,0a3.864,3.864,0,0,1-.784-.012,8.136,8.136,0,0,1-.987-.332,2.161,2.161,0,0,1-.436-.168C-48.594,108.653-48.82,108.48-49.053,108.317Z" transform="translate(69.195 -58.461)"/>
        <path id="Path_17885" data-name="Path 17885" class="cls-6" d="M-36.4,72.046c-.383.341-.766.692-1.282,1.139a3.766,3.766,0,0,1,.129-.733q.563-1.241,1.172-2.461c.055-.108.231-.161.337-.231a1.9,1.9,0,0,1-.212.669C-36.688,70.943-36.9,71.453-36.4,72.046Z" transform="translate(69.195 -58.461)"/>
        <path id="Path_17886" data-name="Path 17886" class="cls-6" d="M-50.926,74.777c-.782-.244-.819-.989-.973-1.591a9.759,9.759,0,0,1-.155-1.785c.4-.023.48.249.5.558a6.334,6.334,0,0,1,0,.863,1.571,1.571,0,0,0,.524,1.437C-50.928,74.35-50.958,74.6-50.926,74.777Z" transform="translate(69.195 -58.461)"/>
        <path id="Path_17887" data-name="Path 17887" class="cls-6" d="M-29.142,66.9c-.231.355-.436.724-.692,1.066-.692.943-1.384,1.877-2.076,2.814a6.362,6.362,0,0,1,.528-1.259c.53-.775,1.13-1.5,1.723-2.237a2.452,2.452,0,0,1,.517-.383Z" transform="translate(69.195 -58.461)"/>
        <path id="Path_17888" data-name="Path 17888" class="cls-6" d="M-52.187,71.4c-.122.814-.191,1.642-.385,2.44a1.365,1.365,0,0,1-1.347,1.093.647.647,0,0,0-.012-.15,2.717,2.717,0,0,0,1.4-2.413C-52.561,72.041-52.794,71.538-52.187,71.4Z" transform="translate(69.195 -58.461)"/>
        <path id="Path_17889" data-name="Path 17889" class="cls-6" d="M-36,67.539c-.6.411-1.192.823-1.792,1.232-.2.136-.4.258-.6.387a6.859,6.859,0,0,1,1.077-1.192A4.611,4.611,0,0,1-36,67.539Z" transform="translate(69.195 -58.461)"/>
        <path id="Path_17890" data-name="Path 17890" class="cls-5" d="M-53.92,75.775c-.57.028-1.153.085-1.714.065-.145,0-.281-.265-.422-.408l2.124.231h0C-53.929,75.694-53.924,75.736-53.92,75.775Z" transform="translate(69.195 -58.461)"/>
        <path id="Path_17891" data-name="Path 17891" class="cls-4" d="M-53.931,75.651l-2.124-.231-.127-.159,2.129-.231Z" transform="translate(69.195 -58.461)"/>
        <path id="Path_17892" data-name="Path 17892" class="cls-5" d="M-54.053,75.044l-2.129.231c.2-.122.385-.321.6-.353.544-.085,1.1-.1,1.654-.138a.667.667,0,0,0,.012.15Z" transform="translate(69.195 -58.461)"/>
        <path id="Path_17893" data-name="Path 17893" class="cls-6" d="M-53.278,104.17l.865,1.755A1.356,1.356,0,0,1-53.278,104.17Z" transform="translate(69.195 -58.461)"/>
        <path id="Path_17894" data-name="Path 17894" class="cls-6" d="M-51.408,106.9l1.894,1.273A2.461,2.461,0,0,1-51.408,106.9Z" transform="translate(69.195 -58.461)"/>
        <path id="Path_17895" data-name="Path 17895" class="cls-5" d="M-43.172,111.691l-1.229.387c-.055-.436.231-.715.653-.6a6,6,0,0,1,.577.215Z" transform="translate(69.195 -58.461)"/>
        <path id="Path_17896" data-name="Path 17896" class="cls-4" d="M-53.92,75.775a.423.423,0,0,0-.012-.12c.874.055,1.324.422,1.384,1.123Z" transform="translate(69.195 -58.461)"/>
        <path id="Path_17897" data-name="Path 17897" class="cls-5" d="M-44.426,112.323q-.249.563-.5,1.13Q-44.675,112.879-44.426,112.323Z" transform="translate(69.195 -58.461)"/>
        <path id="Path_17898" data-name="Path 17898" class="cls-6" d="M-52.42,105.925l.487.387Z" transform="translate(69.195 -58.461)"/>
        <path id="Path_17899" data-name="Path 17899" class="cls-6" d="M-51.931,106.326l.411.482Z" transform="translate(69.195 -58.461)"/>
        <path id="Path_17900" data-name="Path 17900" class="cls-6" d="M-36.036,69.654l.364-.4C-35.793,69.384-35.916,69.516-36.036,69.654Z" transform="translate(69.195 -58.461)"/>
        <path id="Path_17901" data-name="Path 17901" class="cls-6" d="M-38.531,69.4l-.258.369Z" transform="translate(69.195 -58.461)"/>
        <path id="Path_17902" data-name="Path 17902" class="cls-6" d="M-38.407,69.158l-.127.247Z" transform="translate(69.195 -58.461)"/>
        <path id="Path_17903" data-name="Path 17903" class="cls-7" d="M-14.761,104.942a12.821,12.821,0,0,1-1.951.231,2.709,2.709,0,0,1-2.143-1.282c.708-.1,1.342-.161,1.967-.274a3.953,3.953,0,0,0,3.229-3.441,6.248,6.248,0,0,0,.122-1.483c0-.408-.247-.505-.574-.231a2.307,2.307,0,0,0-.309.309c-.75.923-1.488.83-2.521.18a5.436,5.436,0,0,1-2.076-3.36,19.353,19.353,0,0,1-.627-5.422c.085.12.231.231.231.36.071.558-.1,1.13.321,1.665.18.231.092.713.042,1.07a7.067,7.067,0,0,0,.579,3.116c.051.161.307.263.461.392.065-.217.125-.434.191-.65s.12-.364.18-.547c.118.175.309.341.341.533.085.48.1.971.148,1.5h-.722c.484.514.708.987,1.46,1.128.819.155,1.425.381,1.774-.6.03-.085.214-.108.318-.173.2-.12.387-.251.579-.378a5.766,5.766,0,0,1,.33.77,5.953,5.953,0,0,1-.272,3.162,8.281,8.281,0,0,1-.632,1.37c-.346.136-.74.3-1.139.445-.551.208-1.119.383-1.656.623a3.037,3.037,0,0,0-.614.526c.231.113.526.369.717.311.669-.194,1.384.378,2.011-.173Z" transform="translate(69.195 -58.461)"/>
        <path id="Path_17904" data-name="Path 17904" class="cls-7" d="M-19.655,89.925c-.161-.9-.272-1.822-.5-2.71-.284-1.112-.664-2.2-1-3.3.092.037.231.046.272.111.3.616.577,1.248.881,1.861a2.876,2.876,0,0,0,.376.484,1.5,1.5,0,0,1,.251,1.5,6.55,6.55,0,0,0-.164,1.091C-19.575,89.291-19.6,89.607-19.655,89.925Z" transform="translate(69.195 -58.461)"/>
        <path id="Path_17905" data-name="Path 17905" class="cls-5" d="M-20.273,74.009c-1.324-.189-2.645-.406-3.976-.549a4.146,4.146,0,0,0-1.153.219c.214-.667.856-.461,1.257-.48a13.319,13.319,0,0,1,2.735.231A3.986,3.986,0,0,1-20.273,74.009Z" transform="translate(69.195 -58.461)"/>
        <path id="Path_17906" data-name="Path 17906" class="cls-5" d="M-23.18,80.547l-1.266-1.384,1.421-.376-.692.667c.09.438.355.59.823.337h.376c-.166.251-.334.5-.5.75Z" transform="translate(69.195 -58.461)"/>
        <path id="Path_17907" data-name="Path 17907" class="cls-5" d="M-17.78,74.431l-2-.383A1.876,1.876,0,0,1-17.78,74.431Z" transform="translate(69.195 -58.461)"/>
        <path id="Path_17908" data-name="Path 17908" class="cls-5" d="M-21.152,83.919l-1-1.882.383.125.627,1.25v.251Z" transform="translate(69.195 -58.461)"/>
        <path id="Path_17909" data-name="Path 17909" class="cls-7" d="M-21.773,82.162l-.383-.125-.5-.752C-21.95,81.627-21.766,81.811-21.773,82.162Z" transform="translate(69.195 -58.461)"/>
        <path id="Path_17910" data-name="Path 17910" class="cls-7" d="M-23.18,80.547l.155-.014c.145.2.62.212.355.639Z" transform="translate(69.195 -58.461)"/>
        <path id="Path_17911" data-name="Path 17911" class="cls-7" d="M-15.495,104.308l.164.083a.641.641,0,0,1-.129.143.2.2,0,0,1-.115-.09C-15.587,104.4-15.529,104.361-15.495,104.308Z" transform="translate(69.195 -58.461)"/>
        <path id="Path_17912" data-name="Path 17912" class="cls-7" d="M-22.525,79.784H-22.9l.231-.231Z" transform="translate(69.195 -58.461)"/>
        <path id="Path_17913" data-name="Path 17913" class="cls-7" d="M-21.145,83.663v-.251l.194.155Z" transform="translate(69.195 -58.461)"/>
        <path id="Path_17914" data-name="Path 17914" class="cls-5" d="M-26.026,113.321c.5-.337,1-.692,1.614-.309a2.115,2.115,0,0,1,.392.427c-.56,0-1.123-.021-1.684-.042A1.845,1.845,0,0,1-26.026,113.321Z" transform="translate(69.195 -58.461)"/>
        <path id="Path_17915" data-name="Path 17915" class="cls-5" d="M-23.173,113.308l.66-.632.607-.044C-22.165,113.4-22.677,113.338-23.173,113.308Z" transform="translate(69.195 -58.461)"/>
        <path id="Path_17916" data-name="Path 17916" class="cls-7" d="M-31.042,116.857l-.71.148-.074-.429.731-.083Z" transform="translate(69.195 -58.461)"/>
        <path id="Path_17917" data-name="Path 17917" class="cls-7" d="M-29.907,114.064h.876C-29.349,114.417-29.584,114.417-29.907,114.064Z" transform="translate(69.195 -58.461)"/>
        <path id="Path_17918" data-name="Path 17918" class="cls-7" d="M-39.744,115.978c.016-.035.023-.09.048-.1s.067.025.1.039c-.014.035-.021.09-.046.1S-39.71,115.992-39.744,115.978Z" transform="translate(69.195 -58.461)"/>
        <path id="Path_17919" data-name="Path 17919" class="cls-7" d="M-29.7,116.288c-.014.035-.023.09-.046.1s-.069-.025-.1-.039c.016-.035.023-.09.048-.1S-29.737,116.274-29.7,116.288Z" transform="translate(69.195 -58.461)"/>
        <path id="Path_17920" data-name="Path 17920" class="cls-4" d="M-42.173,116.451l.381-.131Z" transform="translate(69.195 -58.461)"/>
        <path id="Path_17921" data-name="Path 17921" class="cls-11" d="M-38.783,98.8V97.3c0-.088-.012-.173-.016-.258v-.268l-.1-1.1.584-.035c-.016-.614.219-.893.853-.865.793.037,1.167-.461,1.308-1.2a9.811,9.811,0,0,1,.256-1.026,1.153,1.153,0,0,1,.249-.482q1.352-1.349,2.728-2.678a12.981,12.981,0,0,1,3.333-2.7.65.65,0,0,1,.775.1,4.387,4.387,0,0,1,1.541,2.256,1.794,1.794,0,0,0-.461-.362c-.258-.1-.66-.254-.8-.138a3.49,3.49,0,0,0-1.172,1.3,7.561,7.561,0,0,1-1.79,2.482,8.134,8.134,0,0,1-.863,1.04,5.908,5.908,0,0,0-1.79,1.868,2.2,2.2,0,0,0-.247,1.787c.148.554.321,1.1.482,1.654-.219.078-.443.152-.662.231a6.019,6.019,0,0,1-.909.371,1.8,1.8,0,0,1-.923,0C-37.18,99.024-38.121,99.578-38.783,98.8Z" transform="translate(69.195 -58.461)"/>
        <path id="Path_17922" data-name="Path 17922" class="cls-12" d="M-38.783,98.8c.662.777,1.614.231,2.38.487a1.8,1.8,0,0,0,.923,0,6.018,6.018,0,0,0,.909-.371c.231-.088.443-.161.653-.231.406.867-.288,1.153-.819,1.582a.923.923,0,0,0,.65-.074,1.378,1.378,0,0,0,.708-1.614l-.54.108c-.152-.554-.325-1.1-.473-1.656a2.2,2.2,0,0,1,.247-1.787,5.884,5.884,0,0,1,1.79-1.868,8.134,8.134,0,0,0,.863-1.04,7.662,7.662,0,0,0,1.79-2.482,3.57,3.57,0,0,1,1.172-1.3c.138-.115.54.042.8.138a1.794,1.794,0,0,1,.461.362h0l.249.376c.129.42.254.842.385,1.262.076.247.161.491.231.738-.731-.231-1.522-.777-1.972.4-.014.032-.062.055-.1.074a3.047,3.047,0,0,0-1.882,1.668.189.189,0,0,1-.088.088A2.93,2.93,0,0,0-32.2,95.511c-.023.078-.161.122-.244.185a1.528,1.528,0,0,0-.572,1.919,8.7,8.7,0,0,1,.231,1.206,10.18,10.18,0,0,1-2.385,3.229,4.384,4.384,0,0,0-.625,1.153c-.639.065-1.211-.706-1.9-.161-.021.016-.189-.136-.277-.231s-.212-.247-.318-.371a1.317,1.317,0,0,0-.5,0c-.429.2-.637.1-.637-.383l.12-.505Z" transform="translate(69.195 -58.461)"/>
        <path id="Path_17923" data-name="Path 17923" class="cls-13" d="M-52.658,92.169l-.014-.129.014-.125-.018-.244v-.752c.125-.178.346-.346.36-.533.1-1.342.088-1.345,1.462-1.345a2.091,2.091,0,0,1,.434,0c.66.134,1.46.032,1.638.992a.505.505,0,0,0,.337.325.445.445,0,0,0,.378-.217c.076-.533.1-1.07.145-1.614l.122-.376a14.657,14.657,0,0,0,.505,5.256,2.8,2.8,0,0,1-.231.556c-.085.134-.247.307-.374.3-1.218-.016-2.449.422-3.649-.113l-.378-.5c-.048-.125-.095-.251-.141-.376a.217.217,0,0,1,0-.095l-.118-.148h0c-.044-.083-.085-.168-.127-.251h0Z" transform="translate(69.195 -58.461)"/>
        <path id="Path_17924" data-name="Path 17924" class="cls-14" d="M-38.8,96.778v.268l-2.871,3.487-.141-.074c.028-.145.048-.291.081-.434a2.07,2.07,0,0,0-.593-2.21c-.607-.53-1.19-1.093-1.783-1.642l-1.815-.477-2.306.3-.131-.129,1.273-1.232H-47.1l.231-.134.025.018h.032l1.266-.208.77.134,3.061,1.409,1.114-1.033a5.6,5.6,0,0,1-.2,1.686c-.143.544.037.8.586.68C-39.742,97.08-39.276,96.914-38.8,96.778Z" transform="translate(69.195 -58.461)"/>
        <path id="Path_17925" data-name="Path 17925" class="cls-15" d="M-45.925,95.7l1.815.477a7.48,7.48,0,0,1,.385,1.326c.131,1.25.231,2.507.272,3.764a1.977,1.977,0,0,1-.314,1.031c-.168.279-.461.625-.736.657a1.212,1.212,0,0,1-.856-.461,5.487,5.487,0,0,1-1.049-3.137A6.637,6.637,0,0,1-45.925,95.7Zm-.042,3.211c.247.316.547.72.872,1.1.037.044.268,0,.318-.065a4.671,4.671,0,0,0,.639-1.031.856.856,0,0,0-.2-.66c-.055-.071-.355.051-.547.072a.78.78,0,0,1-.387-.012c-.484-.238-.574.074-.7.6Z" transform="translate(69.195 -58.461)"/>
        <path id="Path_17926" data-name="Path 17926" class="cls-16" d="M-38.287,102.428c.106.125.205.254.318.371a1.261,1.261,0,0,0,.277.231c.692-.544,1.262.231,1.9.161-.314,1.282-.625,2.565-.941,3.856l.632.076c-.36.171-.853.247-1.056.53-.57.8-1.022,1.684-1.52,2.537h0l-.214.258-.761.632.383-1.109.125-.249c.2-.505.4-1.008.581-1.518.023-.067-.069-.175-.108-.263l.36-.87.277-1.628a3.994,3.994,0,0,0,.155-.574,4.5,4.5,0,0,0-.016-.634l-.648.081a2.477,2.477,0,0,1-.048-.634C-38.517,103.254-38.388,102.843-38.287,102.428Z" transform="translate(69.195 -58.461)"/>
        <path id="Path_17927" data-name="Path 17927" class="cls-17" d="M-38.54,104.306l.648-.081a4.5,4.5,0,0,1,.016.634,4,4,0,0,1-.155.574l-.438-.249a2.972,2.972,0,0,0-.341.473,2.129,2.129,0,0,1-2.293.973,2.37,2.37,0,0,1-2.06-2.249,4.008,4.008,0,0,1,.152-1.467,1.728,1.728,0,0,1,.906-.978,22.956,22.956,0,0,1,2.807-.387c-.042.168-.081.337-.12.505-.307.042-.614.09-.923.127-1.3.157-1.861.194-2.168,1.575a1.816,1.816,0,0,0,.8,1.937,2.535,2.535,0,0,0,2.249-.3C-39.133,105.055-38.847,104.672-38.54,104.306Z" transform="translate(69.195 -58.461)"/>
        <path id="Path_17928" data-name="Path 17928" class="cls-18" d="M-45.981,105.136a2.415,2.415,0,0,1-.814,2.283,1.126,1.126,0,0,1-1.075.053,9.812,9.812,0,0,1-1.548-1.5c-.062-.069.074-.482.15-.491C-48.186,105.341-47.1,105.244-45.981,105.136Z" transform="translate(69.195 -58.461)"/>
        <path id="Path_17929" data-name="Path 17929" class="cls-11" d="M-53.428,95.548a5.17,5.17,0,0,0-1.278.148,1.549,1.549,0,0,1-1.984-.768,4.255,4.255,0,0,1,2.2.014.754.754,0,0,0,1.054-.747c0-.59-.078-1.195-.095-1.794-.021-.706-.018-1.412,0-2.117,0-.081.148-.159.231-.231v2.127c.15.888.277,1.781.461,2.662C-52.748,95.345-52.889,95.587-53.428,95.548Z" transform="translate(69.195 -58.461)"/>
        <path id="Path_17930" data-name="Path 17930" class="cls-11" d="M-51.544,94.169c1.2.535,2.431.1,3.649.113.127,0,.288-.171.374-.3a2.8,2.8,0,0,0,.231-.556l.477,1.093h-.032l-.025-.021-.231.136h.014c-.551-.03-1.1-.1-1.651-.078-.673.025-1.345.191-2.014.168C-51.023,94.718-51.281,94.365-51.544,94.169Z" transform="translate(69.195 -58.461)"/>
        <path id="Path_17931" data-name="Path 17931" class="cls-17" d="M-53.048,102.929c-.231-.87-.231-.87.747-.881.461-.012.639.3.45.627-.131.231-.526.321-.821.417C-52.771,103.125-52.925,102.989-53.048,102.929Z" transform="translate(69.195 -58.461)"/>
        <path id="Path_17932" data-name="Path 17932" class="cls-17" d="M-53.306,92.169V90.043l.254-.115v.118l.12.378v.12l.244,1.008v.12a1.092,1.092,0,0,0,.018.244l-.014.125Z" transform="translate(69.195 -58.461)"/>
        <path id="Path_17933" data-name="Path 17933" class="cls-11" d="M-52.658,92.169l.346.637Z" transform="translate(69.195 -58.461)"/>
        <path id="Path_17934" data-name="Path 17934" class="cls-12" d="M-38.787,97.3v1Q-38.784,97.8-38.787,97.3Z" transform="translate(69.195 -58.461)"/>
        <path id="Path_17935" data-name="Path 17935" class="cls-11" d="M-52.063,93.295c.046.125.092.251.141.376C-51.971,93.546-52.017,93.41-52.063,93.295Z" transform="translate(69.195 -58.461)"/>
        <path id="Path_17936" data-name="Path 17936" class="cls-11" d="M-52.312,92.8c.042.083.083.168.127.251C-52.229,92.97-52.27,92.884-52.312,92.8Z" transform="translate(69.195 -58.461)"/>
        <path id="Path_17937" data-name="Path 17937" class="cls-11" d="M-52.185,93.053l.118.148Z" transform="translate(69.195 -58.461)"/>
        <path id="Path_17938" data-name="Path 17938" class="cls-13" d="M-44.784,94.441l-.77-.134c-.053-.127-.106-.258-.164-.383-.392-.86-.816-1.707-1.153-2.586-.148-.376-.157-.793-.844-.662l.542-.443-.134-.941.4.89c.085.037.171.113.251.106a3.809,3.809,0,0,1,3,.851c.025.023.131-.042.339-.115l-1.218-.833h.948c-.2-.733-.212-.692.579-.556a4.409,4.409,0,0,0,1.421-.071,1.816,1.816,0,0,1,1.462.56,3.991,3.991,0,0,0,.436.517,4.95,4.95,0,0,0,.4-.644c.155-.353.293-.567.733-.323.477.265.736.078.9-.461a1.573,1.573,0,0,1,.447-.648c.378-.346.906-.574,1.172-.983a7.263,7.263,0,0,1,2-2.12c.731-.494,1.437-1.029,2.18-1.506a.773.773,0,0,1,.586.039c.505.2.992.436,1.488.66a11.218,11.218,0,0,1,2.449,3.55c.328.775.567.86,1.326.542a4.184,4.184,0,0,1,1.365-.231,9.987,9.987,0,0,0,1.707-.032,3.851,3.851,0,0,1,2.389-.143c-.03-.507-.06-.987-.09-1.467q.3,1.515.607,3.028v1.614c-.125.6-.256,1.195-.36,1.8a.346.346,0,0,0,.175.288c.461.182.286.521.231.835l-.5-.1c-.923.1-1.716.247-2.5.256a6.736,6.736,0,0,1-1.439-.314,1.211,1.211,0,0,0-.113-.4c-.623-.83-1.259-1.651-1.891-2.475-.081-.247-.166-.491-.231-.738-.131-.42-.256-.842-.385-1.262l-.249-.376h0a4.387,4.387,0,0,0-1.541-2.256.65.65,0,0,0-.775-.1,12.922,12.922,0,0,0-3.333,2.7q-1.384,1.324-2.729,2.678a1.153,1.153,0,0,0-.249.482,9.811,9.811,0,0,0-.256,1.026c-.141.731-.514,1.239-1.308,1.2-.634-.028-.87.251-.853.865l-.584.035c-.048-.461-.095-.923-.143-1.37l-.122-.381c-.042-.2-.085-.406-.127-.609-.081-.3-.159-.6-.231-.893l-.321-.821c-.441.53-.21.923-.044,1.319l.108.876c-.028.256-.058.51-.085.763l-2.8-.067Z" transform="translate(69.195 -58.461)"/>
        <path id="Path_17939" data-name="Path 17939" class="cls-19" d="M-22.9,81.774q.57.989,1.139,1.984c-.268.4-.533.8-.78,1.176a2.754,2.754,0,0,0-.727.367,2.568,2.568,0,0,1-1.859.5,3.17,3.17,0,0,1-1.022-.357c-.579-.48-.835-.579-1.442-.148-.413.293-.669.21-1.017-.115a7.622,7.622,0,0,0-1.179-.77l-.376-.374c-.367-.87-1.2-1.225-1.917-1.693a2.991,2.991,0,0,0-1.515-.637,4.993,4.993,0,0,0-2.735,1.209,9.51,9.51,0,0,1-3.607,2.15.551.551,0,0,0-.316.185c-.417.581-1.079.558-1.665.646a19.373,19.373,0,0,1-2.168.134,2.848,2.848,0,0,1-.6-.085,5.218,5.218,0,0,0-2.023-.348c-.77.2-1.222.1-1.614-.528,0-.016-.076,0-.115.014-.261.664-.261.664-.881.254-.332.042-.581.923-.976.074a9.81,9.81,0,0,0,.346-1.557c.018-.258-.231-.535-.371-.8a.334.334,0,0,1-.095-.023c-.217-.417-.422-.251-.627,0h0l-.881.332V81.527l.4.307c.231-.2.441-.524.655-.533a4.4,4.4,0,0,1,2.166.3,4.209,4.209,0,0,0,1.3.189c.161.018.328.03.489.044a19.556,19.556,0,0,0,2.131.173c1.061-.028,2.124-.134,3.181-.244a4.6,4.6,0,0,0,1.679-.339,8.709,8.709,0,0,1,2.2-.745,5.868,5.868,0,0,1,4.05.231,3.805,3.805,0,0,0,2.583.623c.157-.039.348.1.526.122a7.989,7.989,0,0,0,1.239.074c.692-.037,1.384-.131,2.076-.205.334-.037.671-.053,1-.12.528-.108,1.043-.3,1.573-.36a.931.931,0,0,1,.964.637c.095.2.4.307.611.461Z" transform="translate(69.195 -58.461)"/>
        <path id="Path_17940" data-name="Path 17940" class="cls-20" d="M-18.767,74.744l.291-.053,1.093.256a.293.293,0,0,1,0,.065c.058.078.118.157.148.2l-.263.461h0l-.383.249h0l-.729.417-.883.461-.136.131h0l-.256.127h0l-.256.122h0l-.3.136h0l-.189.127h0l-.249.138h0l-.263.118h0l-.614.281h0c-.551.141-1.1.265-1.649.424a3.617,3.617,0,0,0-.616.316l-1.239.254c-1.183-.051-2.364-.113-3.545-.145-.346,0-.692.111-1.04.088a14,14,0,0,1-1.437-.231c-.042-.2-.078-.4-.127-.6-.214-.881-.434-1.76-.65-2.641-.035-.535-.053-1.072-.111-1.614a6,6,0,0,1,.362-2.537h0a.637.637,0,0,0,.581-.77h.014c.088-.12.173-.242.258-.362h0l.108-.131v-.012q.39-.549.784-1.1h0c.074-.092.15-.182.231-.272h0l.155-.231h0c.078-.088.157-.178.231-.268h0l.369-.505h0l.127-.127h0l.731-1.013h.014l.53-.727h0l.129-.138h-.014l.643.014c.014.046.03.09.044.136l.014.978.042.3a3.118,3.118,0,0,0,.037.325h0l.021.747q-.014,1.564-.025,3.132c-.037.293-.071.586-.106.879l.028.129c.012.074.025.145.037.231-.028.217-.053.436-.081.653l-.111.5c-.062.461-.127.923-.185,1.347l1.6-.752a7.326,7.326,0,0,1,3.377-.069c.812.138,1.633.231,2.449.346Z" transform="translate(69.195 -58.461)"/>
        <path id="Path_17941" data-name="Path 17941" class="cls-21" d="M-31.277,78.649c.48.078.955.189,1.437.231.341.023.692-.1,1.04-.088,1.181.032,2.362.095,3.545.145l1.354,1.476.136.134a.108.108,0,0,1,0,.085l.122.155h0l.127.129h0l.131.129.491.743-.231.376c-.21-.148-.517-.251-.611-.461a.923.923,0,0,0-.964-.637c-.53.058-1.045.251-1.573.36-.328.067-.664.083-1,.12-.692.074-1.384.168-2.076.205a7.99,7.99,0,0,1-1.239-.074c-.178-.018-.369-.161-.526-.122a3.827,3.827,0,0,1-2.583-.623,5.844,5.844,0,0,0-4.05-.231,8.709,8.709,0,0,0-2.2.745,4.6,4.6,0,0,1-1.679.339c-1.056.111-2.12.217-3.181.244a19.557,19.557,0,0,1-2.131-.173c-.161-.014-.328-.025-.489-.044a4.021,4.021,0,0,1-1.3-.189,4.4,4.4,0,0,0-2.166-.3c-.214,0-.417.33-.655.533l-.4-.307-.191-.018-.166-.487.113-.125c.383-.3.969-.537.33-1.153-.067-.067,0-.3.039-.445a4.565,4.565,0,0,1,.251-.54l.231-.129.272-.122h0l.129-.108,1.481-.653,1.384-.074c0,.035,0-.062.016-.159a.719.719,0,0,1,.025-.122h.231l.353.54.6-.823c.8.724.8.722,2.014.8a.655.655,0,0,1,.171.067c.574.231,1.326-.138,1.783.517.012.016.078,0,.118,0,.814.025,1.631.03,2.443.085,1.317.09,2.632.231,3.951.311.692.044,1.384.018,2.09,0a4.424,4.424,0,0,0,.793-.12c.521-.108,1.038-.247,1.564-.339.106-.018.231.118.362.164A1.4,1.4,0,0,0-31.277,78.649Z" transform="translate(69.195 -58.461)"/>
        <path id="Path_17942" data-name="Path 17942" class="cls-22" d="M-31.277,78.649a1.4,1.4,0,0,1-.279-.039c-.125-.046-.256-.182-.362-.164-.526.092-1.043.231-1.564.339a4.426,4.426,0,0,1-.793.12c-.692.016-1.384.042-2.09,0-1.319-.083-2.634-.231-3.951-.311-.812-.055-1.628-.06-2.443-.085-.039,0-.106.023-.118,0-.461-.655-1.209-.281-1.783-.517a.655.655,0,0,0-.171-.067c-1.215-.083-1.215-.081-2.014-.8l-.6.823-.353-.54v-.381h0l.249-.138.134-.106.865-.263h0l.512-.362a.231.231,0,0,1,.1-.016l.406-.231c.706-.212,1.4-.461,2.12-.625.923-.212,1.868-.351,2.8-.526a2.262,2.262,0,0,0,.383-.168A9.413,9.413,0,0,0-44.18,71.82a4.82,4.82,0,0,1,4.735,1.3,5.2,5.2,0,0,1,4.2-5.2,10.859,10.859,0,0,0-2.931,6.58c.092-.083.214-.15.268-.251,1.089-2.113,3.033-2.572,5.127-2.306.164.021.33.028.5.039-.044.272-.085.542-.129.814a5.636,5.636,0,0,0-3.42,1.905l3.646.4.143.3c.217.881.436,1.76.65,2.641C-31.356,78.245-31.319,78.446-31.277,78.649Z" transform="translate(69.195 -58.461)"/>
        <path id="Path_17943" data-name="Path 17943" class="cls-16" d="M-19.522,103.063a1.8,1.8,0,0,0,.081.623,3.292,3.292,0,0,0,2.881,1.873c.351.018.692,0,1.153,0a4.44,4.44,0,0,1-2.376,1.974,4.924,4.924,0,0,1-3.056.136,3.554,3.554,0,0,1-2.445-1.753l-.231.182v.71c-.33-.021-.494.111-.512.461-.023.406-.205.394-.588.3a4.364,4.364,0,0,0-1.677-.069c-.205.028-.348.461-.526.715-.018.028-.071.03-.161.065l-.556-1.049c-.332.427-.692.706-1.017.205-.364-.554-.786-.5-1.345-.383a3.082,3.082,0,0,1-2.034.048c-.8-.348-1.324-.164-1.451.374s-.424.648-.89.586c-.085-.83-.185-1.661-.251-2.493-.058-.692.032-.757.761-.768a9.485,9.485,0,0,0,3.69-.623,5.69,5.69,0,0,0,2.793-2.246,2.461,2.461,0,0,1,1.845.2,13.347,13.347,0,0,0,5.157.411c.178-.014.341-.208.528-.332l-.533-.65a3.275,3.275,0,0,1,.5.187C-19.183,102.078-19.533,102.608-19.522,103.063Zm-3.921,2.782a.118.118,0,0,0,.016-.053s-.028-.012-.044-.016a.231.231,0,0,0-.016.053.38.38,0,0,0,.037.016Z" transform="translate(69.195 -58.461)"/>
        <path id="Path_17944" data-name="Path 17944" class="cls-23" d="M-34.278,108.063c.461.062.766-.046.89-.586s.65-.722,1.451-.374a3.08,3.08,0,0,0,2.034-.048c.558-.12.98-.171,1.345.383.33.5.692.231,1.017-.205l.556,1.049c.09-.035.143-.037.161-.065.178-.249.321-.692.526-.715a4.363,4.363,0,0,1,1.677.069c.383.1.565.108.588-.3.018-.353.182-.484.512-.461a4.2,4.2,0,0,0,.9,2.267,1.891,1.891,0,0,0,1.7.86c.231-.016.475-.037.713-.058l.1.171c-.565.385-1.112.8-1.7,1.153a2.312,2.312,0,0,1-1.755.461c-.261-.058-.607.274-1.043.491l.143-.563-1.817-.265c-1.153-.692-1.008-1.951-1.282-3l-.5,2.02-.581-.351c-.143.445-.152,1.017-.429,1.213a3.3,3.3,0,0,1-1.384.231.561.561,0,0,1-.062,0l-1.861-.078a2.161,2.161,0,0,0,.118.487c.15.33.113.556-.254.673v-.023a14.7,14.7,0,0,0-.519-1.538c-.085-.185-.385-.272-.586-.406-.2-.676-.39-1.354-.586-2.032C-34.232,108.374-34.255,108.22-34.278,108.063Z" transform="translate(69.195 -58.461)"/>
        <path id="Path_17945" data-name="Path 17945" class="cls-12" d="M-19.522,103.063c0-.461.339-.985-.256-1.319a3.275,3.275,0,0,0-.5-.187,1.034,1.034,0,0,1-.325-.152c-.844-.883-1.7-1.76-2.507-2.671a6.177,6.177,0,0,1-.614-1.038l.18-.155,1.139.512a2.972,2.972,0,0,0,2,.844l-.369-.844a2.491,2.491,0,0,0,2.166-.145,11.638,11.638,0,0,0,1.1,1.066,6.744,6.744,0,0,0,1.4.8,1.35,1.35,0,0,0,1.614-.429,2.537,2.537,0,0,1,.378-.293c.664,1.086-.745,3.6-2.133,3.893l-.648.249-.992.129c-.3-.394-.646-.332-1.015-.125Z" transform="translate(69.195 -58.461)"/>
        <path id="Path_17946" data-name="Path 17946" class="cls-13" d="M-53.048,89.927l-.254.115c-.078.081-.231.159-.231.231-.014.706-.016,1.412,0,2.117.016.6.1,1.2.095,1.794a.749.749,0,0,1-1.054.747,4.255,4.255,0,0,0-2.2-.014,7.523,7.523,0,0,1-1.384-3.527c-.078-.445-.074-.906-.108-1.361.014-.012.044-.028.042-.035a.724.724,0,0,0-.042-.085v-.256c.014,0,.044-.025.042-.032a.573.573,0,0,0-.039-.085l.09-.385c.362,0,.727-.018,1.089-.018s.676.014,1.015.018a17.529,17.529,0,0,1,2.2.076C-53.509,89.277-53.295,89.685-53.048,89.927Z" transform="translate(69.195 -58.461)"/>
        <path id="Path_17947" data-name="Path 17947" class="cls-24" d="M-29.781,84.415a7.622,7.622,0,0,1,1.179.77c.348.325.6.408,1.017.115.607-.431.863-.332,1.442.148a3.171,3.171,0,0,0,1.022.357,2.585,2.585,0,0,0,1.859-.5,2.754,2.754,0,0,1,.727-.367c.247-.376.512-.775.78-1.176q.491,1.264.985,2.537c.035.042.067.083.1.127l.023.251V86.8a.482.482,0,0,1,0,.1c.03.48.06.959.09,1.467a3.851,3.851,0,0,0-2.389.143,9.539,9.539,0,0,1-1.707.032,4.184,4.184,0,0,0-1.365.231c-.759.318-1,.231-1.326-.542a11.218,11.218,0,0,0-2.449-3.55Z" transform="translate(69.195 -58.461)"/>
        <path id="Path_17948" data-name="Path 17948" class="cls-18" d="M-53.048,89.927c-.231-.231-.447-.65-.713-.692a17.529,17.529,0,0,0-2.2-.076c-.339,0-.676-.018-1.015-.018s-.727.012-1.089.018v-.242c.085-.59.168-1.179.254-1.769a.429.429,0,0,1,0-.108l.251-.129a1.123,1.123,0,0,0,1.753-.125h.261l.362.155c.323.231.692.12,1-.284a.231.231,0,0,1,.09,0l.286.021c.1.542.487.517.9.482.318-.028.643.021.962,0a3.962,3.962,0,0,1,2.422.461c.489.277,1.213.131,1.425.886,0,.032.111.037.171.055-.044.537-.069,1.075-.145,1.614a.445.445,0,0,1-.378.217.505.505,0,0,1-.337-.325c-.178-.959-.978-.858-1.638-.992a2.089,2.089,0,0,0-.434,0c-1.384,0-1.361,0-1.462,1.345-.014.187-.231.355-.36.533l-.247-.376v-.12c-.039-.127-.081-.254-.12-.378Z" transform="translate(69.195 -58.461)"/>
        <path id="Path_17949" data-name="Path 17949" class="cls-11" d="M-18.608,97.908a2.491,2.491,0,0,1-2.166.145H-20.9l-.752-.491-.374-.129-.627-.747c-.164-.185-.346-.357-.491-.558-.429-.6-.844-1.211-1.264-1.817h0a6.466,6.466,0,0,0,1.439.314,24.444,24.444,0,0,0,2.5-.256l.5.1c.051-.314.231-.653-.231-.835a.346.346,0,0,1-.175-.288c.1-.6.231-1.2.36-1.8a6.922,6.922,0,0,1,.217,1.333,12.2,12.2,0,0,0,.906,4.3l.12.251h0l.125.131Z" transform="translate(69.195 -58.461)"/>
        <path id="Path_17950" data-name="Path 17950" class="cls-25" d="M-42.42,116.23c-.325-.826-1.043-.667-1.691-.671-.411,0-.323-.265-.286-.51.254.461.692.547,1.614.231l-.828-1.845.018-.42-.182-.048-.657,1.585-.528,1.384c-.475-.018-.664-.274-.487-.648a22.408,22.408,0,0,0,1.116-2.133A1.517,1.517,0,0,1-42.985,112a1.4,1.4,0,0,0,.431-.231l1.384-.2.657-.12c.076.085.152.168.231.254,0,.205.021.411.03.614l-.3,1.614c-.27,0-.54,0-.81-.016s-.5-.076-.83-.129c.138.66.247,1.227.383,1.785S-42.085,116.133-42.42,116.23Zm.63-4-.98.231-.025.212.856.376c.182.035.364.06.542.111.489.138.65-.088.6-.535-.083-.766-.637-.334-.994-.394Z" transform="translate(69.195 -58.461)"/>
        <path id="Path_17951" data-name="Path 17951" class="cls-26" d="M-32.521,112.53c.367-.118.4-.344.254-.673a2.161,2.161,0,0,1-.118-.487l1.861.078c.131.131.242.318.4.383.558.231,1.132.413,1.7.614l.364.385.028.36c-.065.593-.567.441-.9.489a5.387,5.387,0,0,1-3.365-.75C-32.361,112.8-32.438,112.664-32.521,112.53Z" transform="translate(69.195 -58.461)"/>
        <path id="Path_17952" data-name="Path 17952" class="cls-27" d="M-28.408,112.445c-.57-.2-1.153-.385-1.7-.614-.161-.065-.272-.251-.4-.383a.561.561,0,0,0,.062,0,3.669,3.669,0,0,0,1.384-.231c.277-.2.286-.768.429-1.213l.581.351.5-2.02c.274,1.043.131,2.306,1.282,3a16.376,16.376,0,0,1-.964,1.681c-.115.164-.51.127-.777.182,0-.12-.018-.231-.025-.36C-27.781,112.337-28.173,112.466-28.408,112.445Z" transform="translate(69.195 -58.461)"/>
        <path id="Path_17953" data-name="Path 17953" class="cls-24" d="M-55.815,86.788a1.117,1.117,0,0,1-1.753.125c.074-.461.148-.943.231-1.414A7.1,7.1,0,0,1-55.7,82.379a2.214,2.214,0,0,1-.113.53c-.205.429-.088.63.383.63l.021.277a.231.231,0,0,1-.014.1l-.122.381h0c-.118.62-.231,1.241-.344,1.864,0,.032.118.09.18.134l.016.251Z" transform="translate(69.195 -58.461)"/>
        <path id="Path_17954" data-name="Path 17954" class="cls-19" d="M-55.43,83.539c-.461,0-.588-.2-.383-.63a2.214,2.214,0,0,0,.113-.53c.775-.816,1.508-1.677,2.341-2.429a13.01,13.01,0,0,1,1.8-1.176,4.563,4.563,0,0,0-.251.54c-.046.143-.106.378-.039.445.639.614.053.849-.33,1.153l-.152.014a.344.344,0,0,1-.1-.044c-.219-.231-.434-.4-.62.03a.231.231,0,0,1-.095.016l-.4.247h0l-.122.12h0l-.122.122h0l-.12.122h0l-.122.118h0a2.181,2.181,0,0,0-1.248,1.875h0Z" transform="translate(69.195 -58.461)"/>
        <path id="Path_17955" data-name="Path 17955" class="cls-28" d="M-32.521,112.53c.074.134.15.268.231.4-1.043.33-2.076.7-3.128.98s-2.1.438-3.146.66c-.68.145-1.356.311-2.191.5.09-.53.141-.835.191-1.139l.3-1.614c.4.371.2.773.069,1.179-.115.357-.2.724-.323,1.206a38.676,38.676,0,0,0,7.823-1.845l-.258-.634.055-.053.367.337Z" transform="translate(69.195 -58.461)"/>
        <path id="Path_17956" data-name="Path 17956" class="cls-29" d="M-19.768,74.527c-.816-.113-1.638-.208-2.449-.346a7.327,7.327,0,0,0-3.377.069c.655-.664,1.471-.461,2.256-.411.551.044,1.1.136,1.649.205l.164.076,1.326.18.429.1h0Z" transform="translate(69.195 -58.461)"/>
        <path id="Path_17957" data-name="Path 17957" class="cls-29" d="M-32.424,72.8c.044-.272.085-.542.129-.814l.491-.729a6,6,0,0,0-.362,2.537c.058.533.076,1.07.111,1.615-.048-.1-.095-.2-.143-.3v-.159l-.062-.187Z" transform="translate(69.195 -58.461)"/>
        <path id="Path_17958" data-name="Path 17958" class="cls-5" d="M-24.513,112.632l-1.984-.138V112.3c.676-.3,1.326.09,1.99.069Z" transform="translate(69.195 -58.461)"/>
        <path id="Path_17959" data-name="Path 17959" class="cls-29" d="M-24.017,78.674a3.617,3.617,0,0,1,.616-.316c.544-.159,1.1-.284,1.649-.424Z" transform="translate(69.195 -58.461)"/>
        <path id="Path_17960" data-name="Path 17960" class="cls-18" d="M-48.05,77.533a.489.489,0,0,1-.016.159l-1.384.074C-49.009,77.526-48.6,77.1-48.05,77.533Z" transform="translate(69.195 -58.461)"/>
        <path id="Path_17961" data-name="Path 17961" class="cls-11" d="M-57.335,85.5c-.076.461-.15.943-.231,1.414l-.251.129C-57.661,86.528-57.495,86.013-57.335,85.5Z" transform="translate(69.195 -58.461)"/>
        <path id="Path_17962" data-name="Path 17962" class="cls-16" d="M-18.913,103.2c.369-.208.72-.27,1.015.125Z" transform="translate(69.195 -58.461)"/>
        <path id="Path_17963" data-name="Path 17963" class="cls-29" d="M-26.909,65.643l-.643-.014.6-.713a.231.231,0,0,0,.074.1C-26.891,65.226-26.9,65.436-26.909,65.643Z" transform="translate(69.195 -58.461)"/>
        <path id="Path_17964" data-name="Path 17964" class="cls-29" d="M-17.506,75.674l.263-.461c-.03-.044-.09-.122-.148-.2l.376-.028.058.023h.062a1.506,1.506,0,0,1,.106.254C-17.019,75.4-17.264,75.535-17.506,75.674Z" transform="translate(69.195 -58.461)"/>
        <path id="Path_17965" data-name="Path 17965" class="cls-30" d="M-17.384,74.959l-1.093-.256Z" transform="translate(69.195 -58.461)"/>
        <path id="Path_17966" data-name="Path 17966" class="cls-11" d="M-57.817,87.15c-.085.59-.168,1.179-.254,1.769C-57.986,88.336-57.891,87.741-57.817,87.15Z" transform="translate(69.195 -58.461)"/>
        <path id="Path_17967" data-name="Path 17967" class="cls-29" d="M-28.208,66.48l-.731,1.013Z" transform="translate(69.195 -58.461)"/>
        <path id="Path_17968" data-name="Path 17968" class="cls-29" d="M-30.046,68.881q-.394.547-.784,1.1Q-30.445,69.423-30.046,68.881Z" transform="translate(69.195 -58.461)"/>
        <path id="Path_17969" data-name="Path 17969" class="cls-30" d="M-19.768,74.527V74.4l1,.341Z" transform="translate(69.195 -58.461)"/>
        <path id="Path_17970" data-name="Path 17970" class="cls-29" d="M-31.22,70.484a.642.642,0,0,1-.581.77Z" transform="translate(69.195 -58.461)"/>
        <path id="Path_17971" data-name="Path 17971" class="cls-30" d="M-26.881,72.154c.035-.293.069-.586.106-.879C-26.612,71.591-26.5,71.9-26.881,72.154Z" transform="translate(69.195 -58.461)"/>
        <path id="Path_17972" data-name="Path 17972" class="cls-11" d="M-20.015,91.3V89.914C-20.022,90.379-20.02,90.838-20.015,91.3Z" transform="translate(69.195 -58.461)"/>
        <path id="Path_17973" data-name="Path 17973" class="cls-18" d="M-46.05,76.151l-.512.362Z" transform="translate(69.195 -58.461)"/>
        <path id="Path_17974" data-name="Path 17974" class="cls-29" d="M-27.663,65.758l-.53.727Z" transform="translate(69.195 -58.461)"/>
        <path id="Path_17975" data-name="Path 17975" class="cls-18" d="M-46.557,76.516l-.865.263Z" transform="translate(69.195 -58.461)"/>
        <path id="Path_17976" data-name="Path 17976" class="cls-29" d="M-18.617,76.329l.729-.417Z" transform="translate(69.195 -58.461)"/>
        <path id="Path_17977" data-name="Path 17977" class="cls-30" d="M-26.851,66.757l-.014-.978Z" transform="translate(69.195 -58.461)"/>
        <path id="Path_17978" data-name="Path 17978" class="cls-30" d="M-27.008,73.656l.111-.5Z" transform="translate(69.195 -58.461)"/>
        <path id="Path_17979" data-name="Path 17979" class="cls-16" d="M-16.9,103.192l.648-.249Z" transform="translate(69.195 -58.461)"/>
        <path id="Path_17980" data-name="Path 17980" class="cls-29" d="M-29.061,67.617l-.369.505Z" transform="translate(69.195 -58.461)"/>
        <path id="Path_17981" data-name="Path 17981" class="cls-29" d="M-21.754,77.943l.614-.281Z" transform="translate(69.195 -58.461)"/>
        <path id="Path_17982" data-name="Path 17982" class="cls-30" d="M-26.755,68.143l-.021-.747Z" transform="translate(69.195 -58.461)"/>
        <path id="Path_17983" data-name="Path 17983" class="cls-18" d="M-47.805,77.035v.381h-.231Z" transform="translate(69.195 -58.461)"/>
        <path id="Path_17984" data-name="Path 17984" class="cls-29" d="M-30.948,70.115c-.085.12-.171.242-.258.362C-31.121,70.346-31.033,70.235-30.948,70.115Z" transform="translate(69.195 -58.461)"/>
        <path id="Path_17985" data-name="Path 17985" class="cls-18" d="M-45.547,75.907l-.406.231Z" transform="translate(69.195 -58.461)"/>
        <path id="Path_17986" data-name="Path 17986" class="cls-29" d="M-17.891,75.914l.383-.249Z" transform="translate(69.195 -58.461)"/>
        <path id="Path_17987" data-name="Path 17987" class="cls-12" d="M-18.765,97.421l-.12-.251C-18.843,97.253-18.8,97.331-18.765,97.421Z" transform="translate(69.195 -58.461)"/>
        <path id="Path_17988" data-name="Path 17988" class="cls-29" d="M-29.444,68.116c-.076.09-.155.18-.231.268C-29.6,68.3-29.522,68.206-29.444,68.116Z" transform="translate(69.195 -58.461)"/>
        <path id="Path_17989" data-name="Path 17989" class="cls-29" d="M-29.829,68.611c-.074.09-.15.18-.231.272C-29.983,68.791-29.9,68.7-29.829,68.611Z" transform="translate(69.195 -58.461)"/>
        <path id="Path_17990" data-name="Path 17990" class="cls-30" d="M-26.773,67.384a3.118,3.118,0,0,0-.037-.325C-26.8,67.168-26.784,67.276-26.773,67.384Z" transform="translate(69.195 -58.461)"/>
        <path id="Path_17991" data-name="Path 17991" class="cls-30" d="M-19.771,74.4l-.429-.1Z" transform="translate(69.195 -58.461)"/>
        <path id="Path_17992" data-name="Path 17992" class="cls-29" d="M-20.446,77.3l.3-.136Z" transform="translate(69.195 -58.461)"/>
        <path id="Path_17993" data-name="Path 17993" class="cls-29" d="M-20.142,77.166l.256-.122Z" transform="translate(69.195 -58.461)"/>
        <path id="Path_17994" data-name="Path 17994" class="cls-19" d="M-51.057,78.522l-.272.122Z" transform="translate(69.195 -58.461)"/>
        <path id="Path_17995" data-name="Path 17995" class="cls-29" d="M-29.67,68.383l-.155.231Z" transform="translate(69.195 -58.461)"/>
        <path id="Path_17996" data-name="Path 17996" class="cls-30" d="M-26.817,72.5a1.9,1.9,0,0,0-.037-.231C-26.842,72.357-26.828,72.422-26.817,72.5Z" transform="translate(69.195 -58.461)"/>
        <path id="Path_17997" data-name="Path 17997" class="cls-29" d="M-19.888,77.048l.256-.127Z" transform="translate(69.195 -58.461)"/>
        <path id="Path_17998" data-name="Path 17998" class="cls-18" d="M-47.556,76.885l-.249.138Z" transform="translate(69.195 -58.461)"/>
        <path id="Path_17999" data-name="Path 17999" class="cls-29" d="M-20.889,77.553l.249-.138Z" transform="translate(69.195 -58.461)"/>
        <path id="Path_18000" data-name="Path 18000" class="cls-29" d="M-21.145,77.664l.263-.118Z" transform="translate(69.195 -58.461)"/>
        <path id="Path_18001" data-name="Path 18001" class="cls-13" d="M-20.642,86.793v0Z" transform="translate(69.195 -58.461)"/>
        <path id="Path_18002" data-name="Path 18002" class="cls-13" d="M-20.672,86.412c-.032-.044-.065-.085-.1-.127C-20.737,86.327-20.7,86.369-20.672,86.412Z" transform="translate(69.195 -58.461)"/>
        <path id="Path_18003" data-name="Path 18003" class="cls-19" d="M-23.387,81.032l-.131-.129Z" transform="translate(69.195 -58.461)"/>
        <path id="Path_18004" data-name="Path 18004" class="cls-29" d="M-20.642,77.417l.189-.127Z" transform="translate(69.195 -58.461)"/>
        <path id="Path_18005" data-name="Path 18005" class="cls-29" d="M-28.934,67.493l-.127.127Z" transform="translate(69.195 -58.461)"/>
        <path id="Path_18006" data-name="Path 18006" class="cls-19" d="M-50.93,78.418l-.129.108Z" transform="translate(69.195 -58.461)"/>
        <path id="Path_18007" data-name="Path 18007" class="cls-11" d="M-58.168,89.547a.571.571,0,0,1,.039.085s-.028.023-.042.032A.254.254,0,0,1-58.168,89.547Z" transform="translate(69.195 -58.461)"/>
        <path id="Path_18008" data-name="Path 18008" class="cls-11" d="M-58.17,89.921a.724.724,0,0,1,.042.085l-.042.035a.263.263,0,0,1,0-.12Z" transform="translate(69.195 -58.461)"/>
        <path id="Path_18009" data-name="Path 18009" class="cls-19" d="M-23.756,80.538l-.136-.134Z" transform="translate(69.195 -58.461)"/>
        <path id="Path_18010" data-name="Path 18010" class="cls-29" d="M-19.637,76.924l.136-.131Z" transform="translate(69.195 -58.461)"/>
        <path id="Path_18011" data-name="Path 18011" class="cls-29" d="M-30.832,69.988l-.108.131Z" transform="translate(69.195 -58.461)"/>
        <path id="Path_18012" data-name="Path 18012" class="cls-19" d="M-23.641,80.778l-.122-.155Z" transform="translate(69.195 -58.461)"/>
        <path id="Path_18013" data-name="Path 18013" class="cls-19" d="M-23.526,80.9l-.127-.129Z" transform="translate(69.195 -58.461)"/>
        <path id="Path_18014" data-name="Path 18014" class="cls-30" d="M-16.895,75h-.062l-.058-.023Z" transform="translate(69.195 -58.461)"/>
        <path id="Path_18015" data-name="Path 18015" class="cls-29" d="M-27.539,65.627l-.129.138Z" transform="translate(69.195 -58.461)"/>
        <path id="Path_18016" data-name="Path 18016" class="cls-30" d="M-26.884,65.016a.231.231,0,0,1-.074-.1Z" transform="translate(69.195 -58.461)"/>
        <path id="Path_18017" data-name="Path 18017" class="cls-12" d="M-18.643,97.562l-.125-.131Z" transform="translate(69.195 -58.461)"/>
        <path id="Path_18018" data-name="Path 18018" class="cls-30" d="M-21.526,74.122l-.155-.085Z" transform="translate(69.195 -58.461)"/>
        <path id="Path_18019" data-name="Path 18019" class="cls-28" d="M-40.284,111.7c-.074-.085-.15-.168-.231-.254.085-.288.173-.577.261-.865a.653.653,0,0,0,.461-.826,3.921,3.921,0,0,1-.03-.436c-.055-.953-.055-.953.9-1.28l.247-.108h0c.039.088.131.2.108.263-.182.51-.385,1.013-.581,1.518l-.044-.037c.118-.429.231-.858.353-1.3-.786.051-.971.231-.8.881.055.212-.131.616.316.662l.051.044-.383,1.109Z" transform="translate(69.195 -58.461)"/>
        <path id="Path_18020" data-name="Path 18020" class="cls-28" d="M-41.167,111.566l-1.384.2.231-.957c.367-.609.863-.461,1.384-.231l-.048.517c-.046-.392-.244-.607-.657-.528-.514.1-.535.526-.66,1.031l1.153-.15A.366.366,0,0,0-41.167,111.566Z" transform="translate(69.195 -58.461)"/>
        <path id="Path_18021" data-name="Path 18021" class="cls-9" d="M-41.167,111.566v-.122h0l.161-.348h.012l.048-.517h.692c-.088.288-.175.577-.261.865Z" transform="translate(69.195 -58.461)"/>
        <path id="Path_18022" data-name="Path 18022" class="cls-16" d="M-38.672,107.941l-.247.108Z" transform="translate(69.195 -58.461)"/>
        <path id="Path_18023" data-name="Path 18023" class="cls-31" d="M-43.614,113.432l.828,1.845c-.923.309-1.356.231-1.614-.231a.461.461,0,0,1,0-.081Z" transform="translate(69.195 -58.461)"/>
        <path id="Path_18024" data-name="Path 18024" class="cls-17" d="M-43.614,113.432l-.789,1.536a3.178,3.178,0,0,0-.018-.417l.657-1.585.182.048Z" transform="translate(69.195 -58.461)"/>
        <path id="Path_18025" data-name="Path 18025" class="cls-9" d="M-39.3,93.313c.042.2.085.406.127.609.042.127.081.254.122.381.048.461.095.923.143,1.37l.1,1.1c-.461.136-.939.3-1.421.406-.549.118-.729-.136-.586-.68a5.6,5.6,0,0,0,.2-1.686l-1.114,1.033-3.061-1.409,2.1.051,2.8.067c.028-.254.058-.507.085-.763-.037-.291-.074-.584-.108-.876l.357-.247Z" transform="translate(69.195 -58.461)"/>
        <path id="Path_18026" data-name="Path 18026" class="cls-16" d="M-26.4,91.42c.632.823,1.269,1.644,1.891,2.475a1.211,1.211,0,0,1,.113.4h0a2.04,2.04,0,0,0-1.921.334,11.4,11.4,0,0,1-1.4.888,1.112,1.112,0,0,0-.441.436,2.288,2.288,0,0,1-1.4,1.384,1.093,1.093,0,0,0-.5.554c-.217.461-.346.973-.558,1.444-.065.145-.274.231-.42.341A10.936,10.936,0,0,0-32.036,99a3.188,3.188,0,0,0-.738-.2A8.7,8.7,0,0,0-33,97.6a1.541,1.541,0,0,1,.572-1.919c.083-.062.231-.106.244-.185a2.909,2.909,0,0,1,1.748-1.859.189.189,0,0,0,.088-.088,3.048,3.048,0,0,1,1.882-1.668c.037-.018.085-.042.1-.074C-27.926,90.642-27.135,91.184-26.4,91.42Z" transform="translate(69.195 -58.461)"/>
        <path id="Path_18027" data-name="Path 18027" class="cls-9" d="M-32.779,98.814a3.187,3.187,0,0,1,.738.2,10.932,10.932,0,0,1,.994.676l1.259.754c.706.348,1.418.692,2.113,1.054.166.088.27.288.4.438a5.678,5.678,0,0,1-2.793,2.246,9.557,9.557,0,0,1-3.69.623c-.729.012-.819.081-.761.768.067.833.166,1.663.251,2.493.023.157.046.311.067.461l-.558-.254-.134-.247c.272-.18.39-1.135.138-1.335-.055-.048-.314.028-.341.1-.044.113.03.27.053.408-.272-.254-.551-.461-.883-.078h-.161l-.632-.076c.316-1.292.627-2.574.941-3.856a4.534,4.534,0,0,1,.625-1.153A10.144,10.144,0,0,0-32.779,98.814Zm2.283,2.24a3.016,3.016,0,0,0-2.5,1.029.842.842,0,0,0,.475,1.49,2.973,2.973,0,0,0,2.892-.865.959.959,0,0,0,.229-.96.959.959,0,0,0-.739-.654,2.112,2.112,0,0,0-.357-.039Z" transform="translate(69.195 -58.461)"/>
        <path id="Path_18028" data-name="Path 18028" class="cls-23" d="M-38.54,104.306c-.307.367-.593.75-.923,1.093a2.533,2.533,0,0,1-2.249.3,1.823,1.823,0,0,1-.8-1.937c.307-1.384.872-1.418,2.168-1.575.307-.037.614-.085.923-.127,0,.48.208.579.637.383a1.317,1.317,0,0,1,.5,0c-.1.415-.231.826-.3,1.243a2.477,2.477,0,0,0,.048.625Zm-1.059-.185a3.506,3.506,0,0,0-.277-.793c-.2-.311-1.757-.212-1.822.125a1.984,1.984,0,0,0,.113,1.384,1.577,1.577,0,0,0,1.273.3A.936.936,0,0,0-39.6,104.121Z" transform="translate(69.195 -58.461)"/>
        <path id="Path_18029" data-name="Path 18029" class="cls-11" d="M-33.932,98.683l.551-.111a1.376,1.376,0,0,1-.708,1.615.923.923,0,0,1-.65.074C-34.209,99.824-33.515,99.548-33.932,98.683Z" transform="translate(69.195 -58.461)"/>
        <path id="Path_18030" data-name="Path 18030" class="cls-11" d="M-27.28,89.044l.249.376Z" transform="translate(69.195 -58.461)"/>
        <path id="Path_18031" data-name="Path 18031" class="cls-24" d="M-47.925,88.541c-.06-.018-.161-.023-.171-.055-.212-.754-.936-.609-1.425-.886a3.962,3.962,0,0,0-2.422-.461c-.318.028-.643-.021-.962,0-.415.035-.8.06-.9-.482v-.251h0l.369-.261.6-.505c.212.2.413.406.637.588a5.117,5.117,0,0,0,.514.328c.692-.051.966-.337,1.132-1.153h.249c.394.858.643-.032.976-.074.62.411.62.411.881-.254.039,0,.106-.03.115-.014a1.24,1.24,0,0,0,1.614.528,5.218,5.218,0,0,1,2.023.348,2.848,2.848,0,0,0,.6.085,19.373,19.373,0,0,0,2.168-.134c.586-.088,1.248-.065,1.665-.646a.551.551,0,0,1,.316-.185,9.481,9.481,0,0,0,3.607-2.15A4.993,4.993,0,0,1-33.6,81.7a2.983,2.983,0,0,1,1.515.637c.713.461,1.55.823,1.917,1.693a9.917,9.917,0,0,1-1.026-.729,2.693,2.693,0,0,0-2-.846c-.339.03-.63.563-.95.856q-1.289,1.176-2.592,2.346a9.549,9.549,0,0,0-.8.692,3.757,3.757,0,0,1-3.086,1.384c-1.661-.055-3.326.055-4.986.048-.657,0-1.248-.021-1.414.8-.014.065-.095.115-.143.173l-.381-.581h-.268Z" transform="translate(69.195 -58.461)"/>
        <path id="Path_18032" data-name="Path 18032" class="cls-9" d="M-47.8,88.165h.268l.231,1.126.134.941-.542.443c.692-.131.692.286.844.662.344.879.768,1.725,1.153,2.585.058.125.111.256.164.383l-1.266.208-.477-1.093A14.589,14.589,0,0,1-47.8,88.165Z" transform="translate(69.195 -58.461)"/>
        <path id="Path_18033" data-name="Path 18033" class="cls-11" d="M-52.925,90.543l.247.376v.632C-52.764,91.214-52.845,90.873-52.925,90.543Z" transform="translate(69.195 -58.461)"/>
        <path id="Path_18034" data-name="Path 18034" class="cls-11" d="M-52.658,91.916c0-.081-.012-.164-.018-.244C-52.669,91.752-52.665,91.835-52.658,91.916Z" transform="translate(69.195 -58.461)"/>
        <path id="Path_18035" data-name="Path 18035" class="cls-9" d="M-47.1,94.635l.231-.136Z" transform="translate(69.195 -58.461)"/>
        <path id="Path_18036" data-name="Path 18036" class="cls-9" d="M-45.967,98.906c.122-.524.212-.835.692-.6a.78.78,0,0,0,.387.012c.191-.021.491-.143.547-.071a.856.856,0,0,1,.2.66,4.671,4.671,0,0,1-.639,1.031c-.051.067-.281.108-.318.065C-45.42,99.637-45.72,99.222-45.967,98.906Z" transform="translate(69.195 -58.461)"/>
        <path id="Path_18037" data-name="Path 18037" class="cls-32" d="M-34.9,108.031l.134.247a9.688,9.688,0,0,1,.5,1.006,7,7,0,0,0,1.328,2.941l.258.634a39.23,39.23,0,0,1-7.823,1.845c.127-.482.208-.849.323-1.206.129-.406.328-.807-.069-1.179,0-.2-.018-.408-.03-.614l.637-.63.761-.632.214-.258h0a7.721,7.721,0,0,0,.923-1.086c.461-.844.863-1.73,1.974-1.891.36-.131.542.053.655.364a.085.085,0,0,0,0,.115Z" transform="translate(69.195 -58.461)"/>
        <path id="Path_18038" data-name="Path 18038" class="cls-28" d="M-35.789,107.2c-1.112.161-1.5,1.047-1.974,1.891a7.022,7.022,0,0,1-.923,1.086c.5-.851.95-1.734,1.52-2.537.2-.284.692-.36,1.056-.53h.161Z" transform="translate(69.195 -58.461)"/>
        <path id="Path_18039" data-name="Path 18039" class="cls-28" d="M-38.672,110.18l-.214.258Z" transform="translate(69.195 -58.461)"/>
        <path id="Path_18040" data-name="Path 18040" class="cls-28" d="M-39.14,109.712l-.125.249-.051-.042.131-.244Z" transform="translate(69.195 -58.461)"/>
        <path id="Path_18041" data-name="Path 18041" class="cls-11" d="M-53.048,90.045c.039.125.081.251.12.378C-52.969,90.3-53.011,90.181-53.048,90.045Z" transform="translate(69.195 -58.461)"/>
        <path id="Path_18042" data-name="Path 18042" class="cls-18" d="M-47.314,89.293l-.231-1.126c.12.182.231.367.381.581.048-.058.129-.108.143-.173.166-.816.757-.8,1.414-.8,1.661,0,3.326-.1,4.986-.048a3.75,3.75,0,0,0,3.086-1.384,9.551,9.551,0,0,1,.8-.692q1.3-1.169,2.592-2.346c.321-.293.611-.826.95-.856a2.693,2.693,0,0,1,2,.846,9.916,9.916,0,0,0,1.026.729l.376.374v.251c-.5-.231-.983-.461-1.488-.66a.773.773,0,0,0-.586-.039c-.743.477-1.448,1.013-2.18,1.506a7.263,7.263,0,0,0-2,2.12c-.265.408-.793.637-1.172.983a1.573,1.573,0,0,0-.447.648c-.168.54-.427.727-.9.461-.441-.244-.579-.03-.733.323a4.949,4.949,0,0,1-.39.646,3.993,3.993,0,0,1-.427-.524,1.816,1.816,0,0,0-1.462-.56A4.409,4.409,0,0,1-43,89.63c-.791-.129-.782-.178-.579.556h-3.335Z" transform="translate(69.195 -58.461)"/>
        <path id="Path_18043" data-name="Path 18043" class="cls-14" d="M-46.917,90.181h2.362l1.218.833c-.208.074-.314.138-.339.115a3.79,3.79,0,0,0-3-.851C-46.747,90.3-46.82,90.22-46.917,90.181Z" transform="translate(69.195 -58.461)"/>
        <path id="Path_18044" data-name="Path 18044" class="cls-17" d="M-39.544,92.672l-.357.247c-.166-.394-.4-.789.044-1.319l.321.821Z" transform="translate(69.195 -58.461)"/>
        <path id="Path_18045" data-name="Path 18045" class="cls-17" d="M-39.793,93.8c-.028.256-.058.51-.085.763C-39.85,94.305-39.82,94.051-39.793,93.8Z" transform="translate(69.195 -58.461)"/>
        <path id="Path_18046" data-name="Path 18046" class="cls-11" d="M-39.544,92.672v-.251c.078.3.157.6.231.893C-39.382,93.1-39.463,92.887-39.544,92.672Z" transform="translate(69.195 -58.461)"/>
        <path id="Path_18047" data-name="Path 18047" class="cls-11" d="M-39.05,94.3c-.042-.127-.081-.254-.122-.381C-39.131,94.049-39.092,94.176-39.05,94.3Z" transform="translate(69.195 -58.461)"/>
        <path id="Path_18048" data-name="Path 18048" class="cls-27" d="M-52.836,85.644l-.6.505-.369.261h0l-.284.231a.231.231,0,0,0-.09,0l-1,.284-.362-.155-.15-.231c0-.083-.012-.166-.016-.251q.083-1,.164-2h0c.042-.127.083-.254.122-.381a.231.231,0,0,0,.014-.1c.037-.088.076-.175.115-.263h0l1.248-1.875h0l.122-.118h0l.12-.122h0c.039-.042.081-.081.122-.122h0l.122-.12h0l.4-.247a.231.231,0,0,0,.095-.016l.62-.03a.344.344,0,0,0,.1.044.318.318,0,0,0,.039.111l.166.487v2.35l.157.055.923-.888h.627a.334.334,0,0,0,.095.023,3.369,3.369,0,0,1-.231,2.364c-.166.81-.447,1.1-1.132,1.153l-.89-1.315Z" transform="translate(69.195 -58.461)"/>
        <path id="Path_18049" data-name="Path 18049" class="cls-11" d="M-51.053,83.031l-.923.888-.157-.055v-2.35l.191.018v1.831Z" transform="translate(69.195 -58.461)"/>
        <path id="Path_18050" data-name="Path 18050" class="cls-11" d="M-50.552,85.414a3.446,3.446,0,0,0,.231-2.364c.131.27.39.547.371.8a9.812,9.812,0,0,1-.346,1.557Z" transform="translate(69.195 -58.461)"/>
        <path id="Path_18051" data-name="Path 18051" class="cls-11" d="M-50.423,83.031h-.627C-50.845,82.775-50.64,82.609-50.423,83.031Z" transform="translate(69.195 -58.461)"/>
        <path id="Path_18052" data-name="Path 18052" class="cls-18" d="M-52.291,81.034a.318.318,0,0,1-.039-.111l.152-.014Z" transform="translate(69.195 -58.461)"/>
        <path id="Path_18053" data-name="Path 18053" class="cls-10" d="M-32.424,72.8l.166,1.956.062.187v.159l-3.646-.4A5.659,5.659,0,0,1-32.424,72.8Zm-2.59,1.361.108.2,2.348.429a10.57,10.57,0,0,0-.143-1.232c-.028-.115-.3-.291-.392-.256C-33.743,73.575-34.366,73.875-35.014,74.165Z" transform="translate(69.195 -58.461)"/>
        <path id="Path_18054" data-name="Path 18054" class="cls-26" d="M-27.273,101.944c-.131-.15-.231-.351-.4-.438-.692-.369-1.407-.706-2.113-1.054a3.028,3.028,0,0,1,.311-.286c.727-.514,1.529-.957,1.483-2.055,0-.157.3-.436.494-.477,1.153-.231,1.868-1.153,2.786-1.741.461-.293.66-.353.983.1.256.357.521.78,1.082.692l.627.747c.113.355.157.667-.378.632l-1.139-.512-.18.155a6.177,6.177,0,0,0,.614,1.038c.812.911,1.663,1.787,2.507,2.671a1.033,1.033,0,0,0,.325.152c.157.189.311.381.533.65-.187.125-.351.318-.528.332a13.35,13.35,0,0,1-5.157-.411A2.425,2.425,0,0,0-27.273,101.944Z" transform="translate(69.195 -58.461)"/>
        <path id="Path_18055" data-name="Path 18055" class="cls-23" d="M-23.449,105.844c-.014,0-.044,0-.044-.016a.231.231,0,0,1,.016-.053c.016,0,.044,0,.044.016A.118.118,0,0,1-23.449,105.844Z" transform="translate(69.195 -58.461)"/>
        <path id="Path_18056" data-name="Path 18056" class="cls-28" d="M-32.943,112.224a7,7,0,0,1-1.328-2.941,9.688,9.688,0,0,0-.5-1.006l.558.254c.2.678.39,1.356.586,2.032.247.537.491,1.072.738,1.615Z" transform="translate(69.195 -58.461)"/>
        <path id="Path_18057" data-name="Path 18057" class="cls-26" d="M-32.887,112.171c-.247-.535-.491-1.07-.738-1.614.2.134.5.231.586.406a14.7,14.7,0,0,1,.519,1.545Z" transform="translate(69.195 -58.461)"/>
        <path id="Path_18058" data-name="Path 18058" class="cls-23" d="M-22.4,98.053c.535.035.491-.277.378-.632l.374.129.752.5h.122c.113.256.231.514.369.844A2.959,2.959,0,0,1-22.4,98.053Z" transform="translate(69.195 -58.461)"/>
        <path id="Path_18059" data-name="Path 18059" class="cls-11" d="M-55.183,86.938l1-.284C-54.5,87.058-54.861,87.16-55.183,86.938Z" transform="translate(69.195 -58.461)"/>
        <path id="Path_18060" data-name="Path 18060" class="cls-11" d="M-55.7,86.544l.15.231h-.261Z" transform="translate(69.195 -58.461)"/>
        <path id="Path_18061" data-name="Path 18061" class="cls-11" d="M-54.093,86.643l.284-.231v.251Z" transform="translate(69.195 -58.461)"/>
        <path id="Path_18062" data-name="Path 18062" class="cls-23" d="M-22.649,96.674c-.56.085-.826-.337-1.082-.692-.323-.461-.526-.392-.983-.1-.923.588-1.64,1.5-2.786,1.741-.2.042-.5.321-.494.477.046,1.1-.757,1.541-1.483,2.055a3.028,3.028,0,0,0-.311.286l-1.259-.754c.145-.113.355-.2.42-.341.212-.461.341-.976.558-1.444a1.093,1.093,0,0,1,.5-.554,2.288,2.288,0,0,0,1.4-1.384,1.112,1.112,0,0,1,.441-.436,11.4,11.4,0,0,0,1.4-.888,2.021,2.021,0,0,1,1.921-.334c.42.607.835,1.218,1.264,1.817C-23,96.316-22.813,96.489-22.649,96.674Z" transform="translate(69.195 -58.461)"/>
        <path id="Path_18063" data-name="Path 18063" class="cls-12" d="M-20.9,98.051l-.752-.489Z" transform="translate(69.195 -58.461)"/>
        <path id="Path_18064" data-name="Path 18064" class="cls-10" d="M-41.79,112.233c.357.06.911-.371.994.385.048.447-.113.673-.6.535-.178-.051-.36-.076-.542-.111.016-.062.032-.127.046-.189l.055-.434Z" transform="translate(69.195 -58.461)"/>
        <path id="Path_18065" data-name="Path 18065" class="cls-28" d="M-41.79,112.233l-.048.187-.055.434c-.014.062-.03.127-.046.189l-.856-.376.025-.212Z" transform="translate(69.195 -58.461)"/>
        <path id="Path_18066" data-name="Path 18066" class="cls-10" d="M-28.408,112.445c.231.021.627-.108.367.385Z" transform="translate(69.195 -58.461)"/>
        <path id="Path_18067" data-name="Path 18067" class="cls-11" d="M-55.548,84.3q-.078,1-.164,2c-.062-.044-.187-.1-.18-.134C-55.785,85.536-55.666,84.916-55.548,84.3Z" transform="translate(69.195 -58.461)"/>
        <path id="Path_18068" data-name="Path 18068" class="cls-11" d="M-55.423,83.912c-.039.127-.081.254-.122.381C-55.5,84.166-55.463,84.039-55.423,83.912Z" transform="translate(69.195 -58.461)"/>
        <path id="Path_18069" data-name="Path 18069" class="cls-11" d="M-55.294,83.552c-.039.088-.078.175-.115.263l-.021-.277Z" transform="translate(69.195 -58.461)"/>
        <path id="Path_18070" data-name="Path 18070" class="cls-11" d="M-54.046,81.673l-1.248,1.875A2.22,2.22,0,0,1-54.046,81.673Z" transform="translate(69.195 -58.461)"/>
        <path id="Path_18071" data-name="Path 18071" class="cls-18" d="M-52.434,80.879l-.62.03C-52.868,80.476-52.653,80.649-52.434,80.879Z" transform="translate(69.195 -58.461)"/>
        <path id="Path_18072" data-name="Path 18072" class="cls-18" d="M-53.149,80.925l-.4.247Z" transform="translate(69.195 -58.461)"/>
        <path id="Path_18073" data-name="Path 18073" class="cls-11" d="M-53.922,81.548l-.122.118Z" transform="translate(69.195 -58.461)"/>
        <path id="Path_18074" data-name="Path 18074" class="cls-11" d="M-53.8,81.417l-.12.122Z" transform="translate(69.195 -58.461)"/>
        <path id="Path_18075" data-name="Path 18075" class="cls-11" d="M-53.67,81.3c-.042.042-.083.081-.122.122C-53.753,81.378-53.712,81.338-53.67,81.3Z" transform="translate(69.195 -58.461)"/>
        <path id="Path_18076" data-name="Path 18076" class="cls-11" d="M-53.546,81.186l-.122.12Z" transform="translate(69.195 -58.461)"/>
        <path id="Path_18077" data-name="Path 18077" class="cls-22" d="M-32.2,74.959l-.062-.187Z" transform="translate(69.195 -58.461)"/>
        <path id="Path_18078" data-name="Path 18078" class="cls-32" d="M-39.184,109.675l-.131.244c-.447-.048-.261-.461-.316-.664-.171-.655.014-.83.8-.881C-38.951,108.817-39.066,109.246-39.184,109.675Z" transform="translate(69.195 -58.461)"/>
        <path id="Path_18079" data-name="Path 18079" class="cls-31" d="M-41.163,111.444l-1.153.15c.125-.505.145-.923.66-1.031.413-.078.611.136.657.528h-.012l-.161.348Z" transform="translate(69.195 -58.461)"/>
        <path id="Path_18080" data-name="Path 18080" class="cls-28" d="M-41.163,111.444-41,111.1Z" transform="translate(69.195 -58.461)"/>
        <path id="Path_18081" data-name="Path 18081" class="cls-17" d="M-30.5,101.054a2.115,2.115,0,0,1,.357.03.959.959,0,0,1,.739.654.959.959,0,0,1-.229.96,2.973,2.973,0,0,1-2.892.865.842.842,0,0,1-.475-1.49A3.037,3.037,0,0,1-30.5,101.054Z" transform="translate(69.195 -58.461)"/>
        <path id="Path_18082" data-name="Path 18082" class="cls-4" d="M-34.9,108.031c-.076-.115-.15-.231-.231-.348l.1-.369a.63.63,0,0,0-.023-.111c-.023-.138-.1-.3-.053-.408.028-.071.286-.148.341-.1C-34.513,106.9-34.631,107.851-34.9,108.031Z" transform="translate(69.195 -58.461)"/>
        <path id="Path_18083" data-name="Path 18083" class="cls-16" d="M-35.058,107.2a.474.474,0,0,0,.023.111l-.1.254c-.113-.311-.3-.5-.655-.364l-.148-.078C-35.6,106.741-35.325,106.949-35.058,107.2Z" transform="translate(69.195 -58.461)"/>
        <path id="Path_18084" data-name="Path 18084" class="cls-16" d="M-39.6,104.121a.933.933,0,0,1-.713,1.01,1.567,1.567,0,0,1-1.273-.3,2.031,2.031,0,0,1-.113-1.384c.065-.337,1.614-.436,1.822-.125A3.506,3.506,0,0,1-39.6,104.121Z" transform="translate(69.195 -58.461)"/>
        <path id="Path_18085" data-name="Path 18085" class="cls-11" d="M-52.836,85.644l.261-.4.89,1.315a5.116,5.116,0,0,1-.514-.328C-52.423,86.05-52.623,85.84-52.836,85.644Z" transform="translate(69.195 -58.461)"/>
        <path id="Path_18086" data-name="Path 18086" class="cls-11" d="M-53.807,86.41l.369-.261Z" transform="translate(69.195 -58.461)"/>
        <path id="Path_18087" data-name="Path 18087" class="cls-9" d="M-35.134,107.567l.1-.254-.1.369a.085.085,0,0,1-.007-.115Z" transform="translate(69.195 -58.461)"/>
        <path id="Path_18088" data-name="Path 18088" class="cls-6" d="M-35.014,74.165c.639-.291,1.271-.6,1.921-.858.088-.035.364.141.392.256a10.569,10.569,0,0,1,.143,1.232l-2.348-.429Z" transform="translate(69.195 -58.461)"/>
        <path id="Path_18089" data-name="Path 18089" class="cls-25" d="M-41.894,112.853l.055-.434Z" transform="translate(69.195 -58.461)"/>
      </g>
    </g>
    <g id="Mask_Group_83" data-name="Mask Group 83" class="cls-33">
      <g id="matic-token-inverted-icon" transform="translate(-24373 -22253)">
        <circle id="Ellipse_1984" data-name="Ellipse 1984" class="cls-1" cx="32" cy="32" r="32"/>
        <path id="Path_17804" data-name="Path 17804" class="cls-34" d="M42.592,25.153a2.708,2.708,0,0,0-2.61,0L34,28.577l-4.068,2.233-5.987,3.423a2.708,2.708,0,0,1-2.61,0l-4.759-2.679a2.554,2.554,0,0,1-1.3-2.158V24.112a2.4,2.4,0,0,1,1.3-2.158l4.682-2.6a2.708,2.708,0,0,1,2.61,0l4.682,2.6a2.554,2.554,0,0,1,1.3,2.158v3.423l4.068-2.307V21.8a2.4,2.4,0,0,0-1.3-2.158l-8.673-4.912a2.708,2.708,0,0,0-2.61,0L12.5,19.646A2.4,2.4,0,0,0,11.2,21.8v9.9a2.4,2.4,0,0,0,1.3,2.158l8.827,4.912a2.708,2.708,0,0,0,2.61,0l5.987-3.349L34,33.116l5.987-3.349a2.708,2.708,0,0,1,2.61,0l4.682,2.6a2.554,2.554,0,0,1,1.3,2.158v5.284a2.4,2.4,0,0,1-1.3,2.158l-4.682,2.679a2.708,2.708,0,0,1-2.61,0l-4.682-2.6A2.554,2.554,0,0,1,34,39.888V36.465l-4.068,2.307V42.2a2.4,2.4,0,0,0,1.3,2.158l8.827,4.912a2.708,2.708,0,0,0,2.61,0L51.5,44.354A2.554,2.554,0,0,0,52.8,42.2V32.3a2.4,2.4,0,0,0-1.3-2.158Z"/>
      </g>
    </g>
  </g>
</svg>
