<svg xmlns="http://www.w3.org/2000/svg" xmlns:xlink="http://www.w3.org/1999/xlink" width="114" height="64" viewBox="0 0 114 64">
  <defs>
    <style>
      .cls-1 {
        fill: #fff;
      }

      .cls-2 {
        clip-path: url(#clip-path);
      }

      .cls-3 {
        fill: #f5ac37;
      }

      .cls-4 {
        fill: #fefefd;
      }

      .cls-5 {
        clip-path: url(#clip-path-2);
      }

      .cls-6 {
        clip-path: url(#clip-path-3);
      }

      .cls-7 {
        fill: #53ae94;
      }
    </style>
    <clipPath id="clip-path">
      <circle id="Ellipse_1931" data-name="Ellipse 1931" class="cls-1" cx="32" cy="32" r="32" transform="translate(-23603 -22053)"/>
    </clipPath>
    <clipPath id="clip-path-2">
      <circle id="Ellipse_1932" data-name="Ellipse 1932" class="cls-1" cx="32" cy="32" r="32" transform="translate(-23553 -22053)"/>
    </clipPath>
    <clipPath id="clip-path-3">
      <circle id="Ellipse_1825" data-name="Ellipse 1825" class="cls-1" cx="32" cy="32" r="32" transform="translate(-23439 -23605)"/>
    </clipPath>
  </defs>
  <g id="Group_847" data-name="Group 847" transform="translate(23603 22053)">
    <g id="Mask_Group_143" data-name="Mask Group 143" class="cls-2">
      <g id="Layer_x0020_1" transform="translate(-23603 -22053)">
        <path id="Path_19675" data-name="Path 19675" class="cls-3" d="M32,0A32,32,0,1,1,0,32,32,32,0,0,1,32,0Z"/>
        <path id="Path_19676" data-name="Path 19676" class="cls-4" d="M33.179,34.259H45.339c.259,0,.382,0,.4-.34a23.244,23.244,0,0,0,0-3.72c0-.24-.12-.34-.38-.34H21.16c-.3,0-.38.1-.38.38V33.8c0,.459,0,.459.48.459Zm11.2-8.559a.389.389,0,0,0,0-.279,7.908,7.908,0,0,0-.723-1.26,10.2,10.2,0,0,0-1.48-1.86,4.907,4.907,0,0,0-.92-.9,14.376,14.376,0,0,0-6-3.04,14.916,14.916,0,0,0-3.4-.36H21.118c-.3,0-.34.12-.34.38v7.1c0,.3,0,.38.38.38H44.237s.2-.04.24-.16h-.1Zm0,12.72a4.667,4.667,0,0,0-1.022,0H21.18c-.3,0-.4,0-.4.4v6.941c0,.32,0,.4.4.4H31.42a5.115,5.115,0,0,0,1.459-.1,15.244,15.244,0,0,0,4.342-.96,7.946,7.946,0,0,0,1.459-.68h.14A12.993,12.993,0,0,0,44.4,38.8s.14-.3-.017-.382ZM16.76,49.76V38.7c0-.261,0-.3-.32-.3H12.1c-.24,0-.34,0-.34-.32v-3.8H16.4c.259,0,.36,0,.36-.34v-3.76c0-.24,0-.3-.32-.3H12.1c-.24,0-.34,0-.34-.32V26.043c0-.22,0-.279.32-.279h4.3c.3,0,.38,0,.38-.38V14.6c0-.32,0-.4.4-.4h15a22.853,22.853,0,0,1,3.24.36,19.549,19.549,0,0,1,6.26,2.32,17.641,17.641,0,0,1,3.519,2.72,19.272,19.272,0,0,1,2.14,2.66,16.041,16.041,0,0,1,1.562,3.06.521.521,0,0,0,.6.42h3.58c.459,0,.459,0,.48.441v3.28c0,.32-.12.4-.441.4H50.337c-.279,0-.36,0-.34.36a20.431,20.431,0,0,1,0,3.659c0,.34,0,.38.382.38h3.158c.14.18,0,.36,0,.541a4.039,4.039,0,0,1,0,.7v2.421c0,.34-.1.441-.4.441h-3.78a.5.5,0,0,0-.58.38,15.993,15.993,0,0,1-4.2,6.12,24.089,24.089,0,0,1-2.14,1.719c-.8.461-1.58.94-2.4,1.32a21.624,21.624,0,0,1-4.72,1.5,24.609,24.609,0,0,1-4.68.38H16.755v-.02Z"/>
      </g>
    </g>
    <g id="Mask_Group_144" data-name="Mask Group 144" class="cls-5">
      <g id="Mask_Group_19" data-name="Mask Group 19" class="cls-6" transform="translate(-114 1552)">
        <g id="tether-seeklogo.com" transform="translate(-23439 -23605)">
          <path id="Path_17428" data-name="Path 17428" class="cls-7" d="M32,0A32,32,0,1,1,0,32,32,32,0,0,1,32,0"/>
          <path id="Path_17429" data-name="Path 17429" class="cls-1" d="M35.949,27.736v-4.76H46.835V15.723H17.193v7.253H28.08v4.756c-8.848.406-15.5,2.159-15.5,4.258s6.656,3.852,15.5,4.26V51.5h7.872V36.25c8.832-.408,15.471-2.159,15.471-4.256s-6.639-3.848-15.471-4.256m0,7.22h0c-.222.014-1.363.083-3.9.083-2.031,0-3.46-.058-3.964-.084v.006c-7.817-.346-13.652-1.708-13.652-3.336s5.836-2.988,13.652-3.335V33.6c.512.035,1.976.122,4,.122,2.428,0,3.648-.1,3.872-.122V28.288c7.8.348,13.623,1.71,13.623,3.333s-5.824,2.986-13.623,3.334"/>
        </g>
      </g>
    </g>
  </g>
</svg>
