<svg xmlns="http://www.w3.org/2000/svg" xmlns:xlink="http://www.w3.org/1999/xlink" width="114" height="64" viewBox="0 0 114 64">
  <defs>
    <clipPath id="clip-path">
      <circle id="Ellipse_103" data-name="Ellipse 103" cx="32" cy="32" r="32" transform="translate(-24240 -10914)" fill="#fff"/>
    </clipPath>
    <clipPath id="clip-path-2">
      <circle id="Ellipse_104" data-name="Ellipse 104" cx="32" cy="32" r="32" transform="translate(-24190 -10914)" fill="#fff"/>
    </clipPath>
  </defs>
  <g id="Group_3365" data-name="Group 3365" transform="translate(24240 10914)">
    <g id="Group_3346" data-name="Group 3346">
      <g id="Mask_Group_25" data-name="Mask Group 25" clip-path="url(#clip-path)">
        <g id="Layer_x0020_1" transform="translate(-24240 -10914)">
          <path id="Path_4110" data-name="Path 4110" d="M32,0A32,32,0,1,1,0,32,32,32,0,0,1,32,0Z" fill="#f5ac37"/>
          <path id="Path_4111" data-name="Path 4111" d="M33.179,34.259H45.339c.259,0,.382,0,.4-.34a23.244,23.244,0,0,0,0-3.72c0-.24-.12-.34-.38-.34H21.16c-.3,0-.38.1-.38.38V33.8c0,.459,0,.459.48.459Zm11.2-8.559a.389.389,0,0,0,0-.279,7.908,7.908,0,0,0-.723-1.26,10.2,10.2,0,0,0-1.48-1.86,4.907,4.907,0,0,0-.92-.9,14.376,14.376,0,0,0-6-3.04,14.916,14.916,0,0,0-3.4-.36H21.118c-.3,0-.34.12-.34.38v7.1c0,.3,0,.38.38.38H44.237s.2-.04.24-.16h-.1Zm0,12.72a4.667,4.667,0,0,0-1.022,0H21.18c-.3,0-.4,0-.4.4v6.941c0,.32,0,.4.4.4H31.42a5.115,5.115,0,0,0,1.459-.1,15.244,15.244,0,0,0,4.342-.96,7.946,7.946,0,0,0,1.459-.68h.14A12.993,12.993,0,0,0,44.4,38.8s.14-.3-.017-.382ZM16.76,49.76V38.7c0-.261,0-.3-.32-.3H12.1c-.24,0-.34,0-.34-.32v-3.8H16.4c.259,0,.36,0,.36-.34v-3.76c0-.24,0-.3-.32-.3H12.1c-.24,0-.34,0-.34-.32V26.043c0-.22,0-.279.32-.279h4.3c.3,0,.38,0,.38-.38V14.6c0-.32,0-.4.4-.4h15a22.853,22.853,0,0,1,3.24.36,19.549,19.549,0,0,1,6.26,2.32,17.641,17.641,0,0,1,3.519,2.72,19.272,19.272,0,0,1,2.14,2.66,16.041,16.041,0,0,1,1.562,3.06.521.521,0,0,0,.6.42h3.58c.459,0,.459,0,.48.441v3.28c0,.32-.12.4-.441.4H50.337c-.279,0-.36,0-.34.36a20.431,20.431,0,0,1,0,3.659c0,.34,0,.38.382.38h3.158c.14.18,0,.36,0,.541a4.039,4.039,0,0,1,0,.7v2.421c0,.34-.1.441-.4.441h-3.78a.5.5,0,0,0-.58.38,15.993,15.993,0,0,1-4.2,6.12,24.089,24.089,0,0,1-2.14,1.719c-.8.461-1.58.94-2.4,1.32a21.624,21.624,0,0,1-4.72,1.5,24.609,24.609,0,0,1-4.68.38H16.755v-.02Z" fill="#fefefd"/>
        </g>
      </g>
      <g id="Mask_Group_26" data-name="Mask Group 26" clip-path="url(#clip-path-2)">
        <g id="usd-coin-usdc-logo" transform="translate(-24190 -10914)">
          <path id="Path_4112" data-name="Path 4112" d="M32,64A32,32,0,1,0,0,32,31.923,31.923,0,0,0,32,64Z" fill="#2775ca"/>
          <path id="Path_4113" data-name="Path 4113" d="M40.8,37.067c0-4.667-2.8-6.267-8.4-6.933-4-.533-4.8-1.6-4.8-3.467s1.333-3.067,4-3.067c2.4,0,3.733.8,4.4,2.8a1,1,0,0,0,.933.667h2.133A.911.911,0,0,0,40,26.133V26a6.661,6.661,0,0,0-6-5.467v-3.2c0-.533-.4-.933-1.067-1.067h-2c-.533,0-.933.4-1.067,1.067V20.4c-4,.533-6.533,3.2-6.533,6.533,0,4.4,2.667,6.133,8.267,6.8,3.733.667,4.933,1.467,4.933,3.6s-1.867,3.6-4.4,3.6c-3.467,0-4.667-1.467-5.067-3.467a.974.974,0,0,0-.933-.8H23.867a.911.911,0,0,0-.933.933v.133c.533,3.333,2.667,5.733,7.067,6.4v3.2c0,.533.4.933,1.067,1.067h2c.533,0,.933-.4,1.067-1.067v-3.2c4-.667,6.667-3.467,6.667-7.067Z" fill="#fff"/>
          <path id="Path_4114" data-name="Path 4114" d="M25.2,51.067a19.952,19.952,0,0,1,0-37.467,1.338,1.338,0,0,0,.8-1.333V10.4a1.013,1.013,0,0,0-.8-1.067.8.8,0,0,0-.533.133,23.994,23.994,0,0,0,0,45.733.811.811,0,0,0,1.2-.533C26,54.533,26,54.4,26,54.133V52.267A1.776,1.776,0,0,0,25.2,51.067Zm14.133-41.6a.811.811,0,0,0-1.2.533c-.133.133-.133.267-.133.533V12.4a1.769,1.769,0,0,0,.8,1.333,19.952,19.952,0,0,1,0,37.467,1.338,1.338,0,0,0-.8,1.333V54.4a1.013,1.013,0,0,0,.8,1.067.8.8,0,0,0,.533-.133,24.1,24.1,0,0,0,0-45.867Z" fill="#fff"/>
        </g>
      </g>
    </g>
  </g>
</svg>
