<svg xmlns="http://www.w3.org/2000/svg" xmlns:xlink="http://www.w3.org/1999/xlink" width="138.5" height="85" viewBox="0 0 138.5 85">
  <defs>
    <clipPath id="clip-path">
      <circle id="Ellipse_972" data-name="Ellipse 972" cx="42.5" cy="42.5" r="42.5" transform="translate(-24390.328 -9347.441)" fill="#fff"/>
    </clipPath>
    <linearGradient id="linear-gradient" x1="0.5" y1="-8.188" x2="0.5" y2="18.616" gradientUnits="objectBoundingBox">
      <stop offset="0" stop-color="#2b388f"/>
      <stop offset="1"/>
    </linearGradient>
    <linearGradient id="linear-gradient-2" y1="-9.294" y2="15.932" xlink:href="#linear-gradient"/>
    <linearGradient id="linear-gradient-3" y1="-6.118" y2="19.109" xlink:href="#linear-gradient"/>
    <linearGradient id="linear-gradient-4" y1="-11.625" y2="15.178" xlink:href="#linear-gradient"/>
    <linearGradient id="linear-gradient-5" y1="0.711" y2="3.469" xlink:href="#linear-gradient"/>
    <linearGradient id="linear-gradient-6" y1="-2.756" y2="2.568" xlink:href="#linear-gradient"/>
    <linearGradient id="linear-gradient-7" y1="-2.429" y2="17.993" xlink:href="#linear-gradient"/>
    <linearGradient id="linear-gradient-8" y1="-4.647" y2="20.579" xlink:href="#linear-gradient"/>
    <clipPath id="clip-path-2">
      <ellipse id="Ellipse_971" data-name="Ellipse 971" cx="26.5" cy="25.5" rx="26.5" ry="25.5" transform="translate(-24483 -11213.874)" fill="#fff"/>
    </clipPath>
  </defs>
  <g id="Group_4627" data-name="Group 4627" transform="translate(23790 8980)">
    <g id="Mask_Group_122" data-name="Mask Group 122" transform="translate(600.328 367.441)" clip-path="url(#clip-path)">
      <g id="DOGIRA_LOGO" transform="translate(-24389.932 -9335.717)">
        <g id="Слой_3" data-name="Слой 3" transform="translate(16.96 0.466)">
          <circle id="Ellipse_973" data-name="Ellipse 973" cx="30.741" cy="30.741" r="30.741"/>
        </g>
        <g id="Слой_2" data-name="Слой 2" transform="translate(16.751 0.466)">
          <path id="Path_10082" data-name="Path 10082" d="M1.811,29.019q.206,1.213.5,2.39h59.8q.3-1.179.5-2.39Z" transform="translate(-1.369 7.048)" fill="url(#linear-gradient)"/>
          <path id="Path_10083" data-name="Path 10083" d="M2.543,32.056q.406,1.3.923,2.539H60.482q.515-1.244.923-2.539Z" transform="translate(-1.129 8.044)" fill="url(#linear-gradient-2)"/>
          <path id="Path_10084" data-name="Path 10084" d="M1.5,25.982q.046,1.283.2,2.539H62.94q.149-1.255.2-2.539Z" transform="translate(-1.472 6.052)" fill="url(#linear-gradient-3)"/>
          <path id="Path_10085" data-name="Path 10085" d="M59.335,35.206H3.793q.6,1.226,1.294,2.39H58.042Q58.739,36.433,59.335,35.206Z" transform="translate(-0.719 9.077)" fill="url(#linear-gradient-4)"/>
          <path id="Path_10086" data-name="Path 10086" d="M61.984,25.082a30.854,30.854,0,0,0-59.791,0Z" transform="translate(-1.243 -1.86)" fill="url(#linear-gradient-5)"/>
          <path id="Path_10087" data-name="Path 10087" d="M6.3,39.255a30.844,30.844,0,0,0,48.884,0Z" transform="translate(0.103 10.405)" fill="url(#linear-gradient-6)"/>
          <path id="Path_10088" data-name="Path 10088" d="M1.635,23.158H62.908a30.941,30.941,0,0,0-.529-3.137H2.164a30.946,30.946,0,0,0-.529,3.137Z" transform="translate(-1.426 4.097)" fill="url(#linear-gradient-7)"/>
          <path id="Path_10089" data-name="Path 10089" d="M1.583,23.17c-.067.839-.1,1.688-.1,2.539H63.169c0-.857-.037-1.706-.1-2.539Z" transform="translate(-1.478 5.13)" fill="url(#linear-gradient-8)"/>
        </g>
        <g id="Слой_6_копия_" data-name="Слой 6 (копия)" transform="translate(0 1.431)">
          <path id="Path_10090" data-name="Path 10090" d="M-11.135,11.81" transform="translate(11.135 0.438)" fill="none"/>
          <path id="Path_10091" data-name="Path 10091" d="M2.8,17.79c-.012.037-.022.076-.034.114a1.046,1.046,0,0,0,.122-.217A.6.6,0,0,0,2.8,17.79Z" transform="translate(15.695 2.366)" stroke="#000" stroke-miterlimit="10" stroke-width="1.012"/>
          <path id="Path_10092" data-name="Path 10092" d="M2.948,17.663c.112-.157.223-.315.333-.472A4.9,4.9,0,0,0,2.948,17.663Z" transform="translate(15.755 2.203)" stroke="#000" stroke-miterlimit="10" stroke-width="1.012"/>
          <path id="Path_10093" data-name="Path 10093" d="M62.2,39.73c-.266.013.149-4.681-1.731-8.538a17.327,17.327,0,0,0-4.108-5.377,7.969,7.969,0,0,1,2.017.9,8.181,8.181,0,0,1,2.689,2.763,18.155,18.155,0,0,0-2.539-5.9,18.482,18.482,0,0,0-7.306-6.348h0c-.245-.408-.488-.78-.723-1.116h0a6.816,6.816,0,0,1,2.974,1.27,4.78,4.78,0,0,0-1.144-2.345,4.651,4.651,0,0,0-1.3-.995,7.055,7.055,0,0,1,1.893.1,7.231,7.231,0,0,1,3.237,1.545A12.2,12.2,0,0,0,51.977,11.2a12.014,12.014,0,0,0-3.734-1.545l1.592-.647a14.255,14.255,0,0,1-2.489-.249A14.385,14.385,0,0,1,43.86,7.625a5.277,5.277,0,0,0-5.128.339A22.464,22.464,0,0,1,45.32,11.1h0a29.294,29.294,0,0,0-4.2-2.166,21.688,21.688,0,0,0-6.5-1.942c-.491-.061-1.072-.13-1.728-.169h.01a19.09,19.09,0,0,1,4.78.8,3.037,3.037,0,0,0,1.1-.457c.533-.361.987-.928.9-1.046-.057-.076-.3.067-.584.149a2.68,2.68,0,0,1-2.054-.4c.01,0,.763-.339,1.494-.747A4.947,4.947,0,0,0,39.98,3.785h0c-.018-.052-1.556.506-3.088.8a14.549,14.549,0,0,1-2.193.242l2.017-2.241a13.521,13.521,0,0,0-7.693,2.738,12.525,12.525,0,0,0-2.241,2.266c.448-.133.969-.267,1.547-.387-.358.087-.726.19-1.1.312-.276.091-.541.188-.8.288-.367-.111-.9-.254-1.545-.388A20.713,20.713,0,0,0,20.788,7,21.384,21.384,0,0,0,22.375,10.2a13.264,13.264,0,0,0-2.4,2.729,17.8,17.8,0,0,1-4.018-.414,17.565,17.565,0,0,1-2.689-.822,8.054,8.054,0,0,0,4.6,5.2,20.037,20.037,0,0,0-1.019,3.462A3.467,3.467,0,0,1,19,21.881a1.655,1.655,0,0,0-.021.609L15.8,24.18l2.241,1.634L15.35,30.091l.052.088a3.674,3.674,0,0,0,.626.789h0c.034.033.07.066.108.1l.121.1h0a3.449,3.449,0,0,0,.966.547,3.409,3.409,0,0,0,.69.178l.066.01H18a4.251,4.251,0,0,0,1.046.033,4.792,4.792,0,0,1,1.842.43c.651.3,1.092.7,1.568.541a.647.647,0,0,0,.109-.046,1.089,1.089,0,0,0,.414-.42l.01.027a.53.53,0,0,0,.022.124c-.013.025-.024.048-.033.067a.781.781,0,0,0,.3.4.667.667,0,0,0,.149.076,1.028,1.028,0,0,0,.22.149c.468.232.905.015,1.606-.055a4.79,4.79,0,0,1,1.9.2,16.758,16.758,0,0,1,4.707-4.554,4.713,4.713,0,0,1,1.195,1.046,5.371,5.371,0,0,1,.9,1.792,10.686,10.686,0,0,1,.523,3.211A7.183,7.183,0,0,0,34.7,30.52a13.076,13.076,0,0,1,1.568,3.958,14.615,14.615,0,0,1,.257,1.568c0,.051.01.1.015.149a12.828,12.828,0,0,1-.786,5.527c-.072.173-.149.348-.233.523A11.61,11.61,0,0,1,30.965,47.1c-.246.149-.494.288-.747.418l-.239.119-.2.1-.238.108-.17.075c-.119.051-.238.1-.356.149H29a13.266,13.266,0,0,1-3.318.769,12.764,12.764,0,0,1-3.035-5.527,7.727,7.727,0,0,1-.1,1.095,7.606,7.606,0,0,1-.3,1.195,24.654,24.654,0,0,1-4.084-7.618,11.715,11.715,0,0,0,1.8,9.41,5.137,5.137,0,0,1-3.894-2.838A6.287,6.287,0,0,0,17.8,48.429l-.877-.134c-.308-.049-.638-.106-.981-.172a4.582,4.582,0,0,1-.96-.825c0,.182,0,.4.01.633-.606-.13-1.256-.287-1.942-.474A24.04,24.04,0,0,1,9.258,35.075a9.251,9.251,0,0,0-1.6,5.9,9.751,9.751,0,0,1-.848-1.444,9.55,9.55,0,0,1-.472-1.195,10.169,10.169,0,0,0,0,1.246,10.392,10.392,0,0,0,.125,1.095,10.945,10.945,0,0,1-1.3-1.668,11.072,11.072,0,0,1-1.329-3.046A22.6,22.6,0,0,1,3.5,30.287a20.262,20.262,0,0,1,.98-4.547l-1.66,2.315q-.46-2.3-.46-2.315h0c-.115.471-.269,1.161-.4,2a25.508,25.508,0,0,0,.471,9.8,35.68,35.68,0,0,0,8.813,16.73c9.3,8.95,21.28,8.4,23,8.29,1.067-.067,14.264-1.108,22.779-12.323a31.108,31.108,0,0,0,5.291-10.965C62.278,39.658,62.23,39.728,62.2,39.73ZM53.056,35.37ZM24.361,8.383l-.069-.033.024.01ZM21.266,7.152l-.1-.031Zm2.6,1-.025-.01Zm-.937-.4h0ZM22.5,7.594l-.088-.034Zm-.415-.149-.111-.04ZM21.679,7.3l-.114-.039Zm-2.514,6.943c-.078.133-.158.275-.242.424.3-.533.586-1.022.877-1.465C19.562,13.564,19.354,13.915,19.165,14.238Zm-.393.7c.012-.021.022-.039.033-.06l-.042.079Zm.653,7.9h0l.114.586a.7.7,0,0,1-.114-.586Z" transform="translate(15.34 -2.587)" stroke="#000" stroke-miterlimit="10" stroke-width="1.012"/>
        </g>
        <g id="Слой_6" data-name="Слой 6" transform="translate(0 1.431)">
          <path id="Path_10094" data-name="Path 10094" d="M13.9,28.884l3.958-6.5a3.5,3.5,0,0,0-2.689-3.062A19.611,19.611,0,0,1,17.485,13.2,14.7,14.7,0,0,1,20.7,9.167a14.459,14.459,0,0,1,4.855-2.689,16.179,16.179,0,0,1,7.394-.523,21.688,21.688,0,0,1,6.5,1.942,21.619,21.619,0,0,1,7.693,5.079,20.225,20.225,0,0,1,4.332,7.394,21.467,21.467,0,0,1,.822,9.485,24.618,24.618,0,0,1-3.137,9.635,24.709,24.709,0,0,1-6.5,7.245,27.665,27.665,0,0,1-5.9,3.51,30.581,30.581,0,0,1-6.647,2.166,25.2,25.2,0,0,1-14.19-.9A16.673,16.673,0,0,1,9.942,48.6,13.693,13.693,0,0,1,6.8,44.867a37.82,37.82,0,0,0,8.44,2.39c4.589.735,9.57,1.533,14.041-1.195a11.61,11.61,0,0,0,4.556-4.855,11.963,11.963,0,0,0,.747-7.767,13.076,13.076,0,0,0-1.568-3.958,7.183,7.183,0,0,1-.224,4.406,10.686,10.686,0,0,0-.523-3.212,5.371,5.371,0,0,0-.9-1.792,4.713,4.713,0,0,0-1.195-1.046,16.758,16.758,0,0,0-4.705,4.556,3.164,3.164,0,0,0-1.867-.6c-.925.028-1.577.547-2.017.224a.924.924,0,0,1-.3-.7.938.938,0,0,1-.523.547c-.412.125-.826-.178-1.27-.448a7.706,7.706,0,0,0-2.091-.853,3.083,3.083,0,0,1-1.867-.124A3.137,3.137,0,0,1,13.9,28.884Z" transform="translate(17.02 -1.549)" fill="#c77d36" stroke="#8c5019" stroke-miterlimit="10" stroke-width="0.225"/>
          <path id="Path_10095" data-name="Path 10095" d="M15.008,14.649a8.054,8.054,0,0,1-4.6-5.2,17.565,17.565,0,0,0,2.689.822,17.8,17.8,0,0,0,4.018.414,21.052,21.052,0,0,0-2.1,3.966Z" transform="translate(18.201 -0.336)" fill="#c77d36" stroke="#8c5019" stroke-miterlimit="10" stroke-width="0.225"/>
          <path id="Path_10096" data-name="Path 10096" d="M19.574,11.8a21.375,21.375,0,0,1-1.643-2.241A21.318,21.318,0,0,1,16.07,5.908a28.49,28.49,0,0,1,11.915,7.3c-1.81-2.127-4.3-3.164-6.423-2.563A4.766,4.766,0,0,0,19.574,11.8Z" transform="translate(20.059 -1.498)" fill="#f9edc7" stroke="#8c5019" stroke-miterlimit="10" stroke-width="0.225"/>
          <path id="Path_10097" data-name="Path 10097" d="M16.07,5.908a20.714,20.714,0,0,1,4.1.418,17.441,17.441,0,0,1,2.012.536,16.879,16.879,0,0,1,2.072.859A6.678,6.678,0,0,1,27.99,13.21c-.545-.557-1.153-1.134-1.83-1.715A28.482,28.482,0,0,0,16.074,5.908Z" transform="translate(20.059 -1.498)" fill="#c77d36"/>
          <path id="Path_10098" data-name="Path 10098" d="M16.07,5.911l.482-.009h.481c.323,0,.644.021.965.042.642.043,1.283.115,1.921.221a18.364,18.364,0,0,1,1.891.423,15.888,15.888,0,0,1,1.831.653c.3.13.59.257.886.408a7.17,7.17,0,0,1,.844.517A6.8,6.8,0,0,1,28.209,13.2l.046.614-.426-.448A29.987,29.987,0,0,0,25.243,11a30.211,30.211,0,0,0-2.85-2.034,30.867,30.867,0,0,0-3.07-1.7A31.61,31.61,0,0,0,16.07,5.911Zm0,0a26.141,26.141,0,0,1,3.34,1.161,26.6,26.6,0,0,1,3.161,1.6A27.159,27.159,0,0,1,25.5,10.683a27.834,27.834,0,0,1,2.644,2.374l-.379.173a6.556,6.556,0,0,0-2.627-4.743,6.753,6.753,0,0,0-.787-.5c-.275-.149-.566-.285-.853-.418a17.088,17.088,0,0,0-3.621-1.182,22.4,22.4,0,0,0-3.806-.475Z" transform="translate(20.059 -1.5)" fill="#8c5019"/>
          <path id="Path_10099" data-name="Path 10099" d="M20.583,7.591a12.525,12.525,0,0,1,2.241-2.266,13.521,13.521,0,0,1,7.693-2.738L28.5,4.828a14.549,14.549,0,0,0,2.191-.249c1.531-.3,3.07-.853,3.088-.8h0a4.947,4.947,0,0,1-1.443,1.344c-.73.408-1.483.747-1.494.747a2.681,2.681,0,0,0,2.054.4c.284-.079.527-.223.584-.149.091.118-.363.684-.9,1.046a3.037,3.037,0,0,1-1.1.465A19.024,19.024,0,0,0,20.583,7.591Z" transform="translate(21.539 -2.587)" fill="#8c5019" stroke="#66330e" stroke-miterlimit="10" stroke-width="0.225"/>
          <path id="Path_10100" data-name="Path 10100" d="M28.485,26.247a13.173,13.173,0,0,1,9.784-4.033A5.017,5.017,0,0,0,35.953,19.6a3.277,3.277,0,0,0,.822.075,3.447,3.447,0,0,0,1.792-.6,2.193,2.193,0,0,1-1.6-.7,1.942,1.942,0,0,1-.366-.647,8.314,8.314,0,0,0,4.281-2.987,9.811,9.811,0,0,1-5.527-.822L36.6,12.131c-.6.206-1.243.408-1.918.6-.726.2-1.425.376-2.091.523A2.916,2.916,0,0,0,33.862,10.6a8.953,8.953,0,0,1-1.494,1.677c-1.99,1.73-3.616,1.543-5.079,2.838A6.152,6.152,0,0,0,25.422,19l-3.51,2.241-3.286-1.494-2.578.46.114.586-4.182,6.666a3.64,3.64,0,0,0,.917,1.081,3.942,3.942,0,0,0,2.768.766,4.792,4.792,0,0,1,1.842.43c.651.3,1.092.7,1.568.541a1,1,0,0,0,.523-.466,1.479,1.479,0,0,0,.672.839c.468.232.905.015,1.606-.055a4.79,4.79,0,0,1,1.9.2,16.758,16.758,0,0,1,4.705-4.556Z" transform="translate(18.717 0.042)" fill="#f9edc7" stroke="#8c5019" stroke-miterlimit="10" stroke-width="0.225"/>
          <path id="Path_10101" data-name="Path 10101" d="M12.148,25.439a3.912,3.912,0,0,0,2.091-.6c.81-.533.842-1.116,1.942-2.689.916-1.31,1.373-1.966,2.091-2.2.747-.249,1.046.087,2.539-.075A9.43,9.43,0,0,0,22.6,19.5a6.654,6.654,0,0,0,3.237-2.514l-5.851-.735c-.66.243-1.213.412-1.606.523-1.037.3-1.555.353-1.979.822a1.924,1.924,0,0,0-.412.759l.114.586Z" transform="translate(18.772 1.896)" fill="#c77d36" stroke="#8c5019" stroke-miterlimit="10" stroke-width="0.225"/>
          <path id="Path_10102" data-name="Path 10102" d="M11.979,23.6A4.789,4.789,0,0,0,14.8,22.383a1.116,1.116,0,0,1,.977.695,1.174,1.174,0,0,1-.142,1.061.877.877,0,0,0-.965-.01,2.057,2.057,0,0,0,.883,1.28,3.531,3.531,0,0,1-1.71-.187A3.651,3.651,0,0,1,11.979,23.6Z" transform="translate(18.717 3.906)" fill="#040308"/>
          <path id="Path_10103" data-name="Path 10103" d="M14.471,22.227,12.2,20.572l3.18-1.689a1.476,1.476,0,0,1,.178-1.008,2.118,2.118,0,0,1,2.548-.523l7.448-4.221c.069.485.139.971.208,1.458q.239,1.685.485,3.361l-5.377,2.382L18.4,18.771c-1.385-.226-2.409-.024-2.578.46a.7.7,0,0,0,.114.586Z" transform="translate(18.789 0.871)"/>
          <path id="Path_10104" data-name="Path 10104" d="M-11.135,11.81" transform="translate(11.135 0.438)" fill="none"/>
          <path id="Path_10105" data-name="Path 10105" d="M33.02,23.62a11.14,11.14,0,0,1,6.722,3.66c3.165,3.724,2.475,8.338,2.315,9.41a10.976,10.976,0,0,1-1.12,3.51,10.559,10.559,0,0,1-4.182,4.182,29.8,29.8,0,0,1-14.866,2.65,30.166,30.166,0,0,1-11.237-3.748A13.551,13.551,0,0,1,6.8,39.006a40.294,40.294,0,0,0,8.44,2.539,25.485,25.485,0,0,0,6.795.554,14.941,14.941,0,0,0,6.572-1.519,11.014,11.014,0,0,0,5.455-5.757A12.81,12.81,0,0,0,33.02,23.62Z" transform="translate(17.02 4.312)" fill="#f9edc7" stroke="#8c5019" stroke-miterlimit="10" stroke-width="0.225"/>
          <path id="Path_10106" data-name="Path 10106" d="M31.864,44.032a13.145,13.145,0,0,1-9.012-3.485,12.707,12.707,0,0,1-3.486-5.975,7.727,7.727,0,0,1-.1,1.095,7.606,7.606,0,0,1-.3,1.195,24.654,24.654,0,0,1-4.084-7.618,11.715,11.715,0,0,0,1.8,9.41,5.137,5.137,0,0,1-3.894-2.838,6.308,6.308,0,0,0,2.118,4.254,4.392,4.392,0,0,1-1.271-.221,4.5,4.5,0,0,1-1.942-1.3,6.353,6.353,0,0,0,.5,2.689,6.657,6.657,0,0,0,3.188,3.286,30.5,30.5,0,0,0,16.48-.5Z" transform="translate(18.624 6.157)" fill="#8c5019" stroke="#8c5019" stroke-miterlimit="10" stroke-width="0.225"/>
          <path id="Path_10107" data-name="Path 10107" d="M17.29,44.876a24.476,24.476,0,0,1-6.846-9.534,24.212,24.212,0,0,1-1.692-8.29,9.251,9.251,0,0,0-1.594,5.9,9.751,9.751,0,0,1-.848-1.444,9.549,9.549,0,0,1-.472-1.195,10.169,10.169,0,0,0,0,1.246,10.392,10.392,0,0,0,.125,1.095,10.946,10.946,0,0,1-1.3-1.668,11.1,11.1,0,0,1-1.443-3.51,22.406,22.406,0,0,0,1.792,6.374,19.762,19.762,0,0,0,4.795,6.834,19.184,19.184,0,0,0,7.478,4.194Z" transform="translate(15.846 5.437)" fill="#8c5019" stroke="#8c5019" stroke-miterlimit="10" stroke-width="0.225"/>
          <path id="Path_10108" data-name="Path 10108" d="M54.227,25.133l5.228,1.718,2.805,5.228.17,2.4a28.472,28.472,0,0,1-4.106,10.891c-7.8,12.163-22.3,13.417-23.74,13.518-1.477.1-14.476.8-24.348-8.962-.512-.508-7.21-7.3-8.717-17.028a34.449,34.449,0,0,1,.554-9.948,42.273,42.273,0,0,1,1.195-5l.541-.768a6.265,6.265,0,0,0-1.335,3.764,5.985,5.985,0,0,0,.46,2.315l1.66-2.315a20.262,20.262,0,0,0-.98,4.55A23.456,23.456,0,0,0,6.876,38.944c5.791,9.3,17.134,10.229,18.3,10.307a32.693,32.693,0,0,0,18.6-5.745,25.372,25.372,0,0,0,9.394-12.925Q53.694,27.856,54.227,25.133Z" transform="translate(15.231 2.202)" fill="#8c5019"/>
          <path id="Path_10109" data-name="Path 10109" d="M17.512,26.965a3.4,3.4,0,0,1,1.471-1.494,3.355,3.355,0,0,1,2.039-.332l-.236.2.073-1.07.013-.179h.17l1.3.03-.149.149.03-1.27v-.119h.114l.747-.033-.1.087a3.146,3.146,0,0,1,.448-1.1,2.184,2.184,0,0,1,.9-.766c.175-.085.35-.166.512-.264a3.117,3.117,0,0,0,.462-.341,3.585,3.585,0,0,0,.73-.9,3.669,3.669,0,0,1-.693.931,3.36,3.36,0,0,1-.456.367c-.163.109-.338.2-.5.3a2.027,2.027,0,0,0-.813.757,2.932,2.932,0,0,0-.366,1.058l-.013.079H23.1l-.747.067L22.466,23l.03,1.27v.149h-.157l-1.3.03.184-.175L21.2,25.34v.221l-.232-.024a2.9,2.9,0,0,0-1.74.364,2.838,2.838,0,0,0-1.173,1.3Z" transform="translate(20.532 2.981)" fill="#8c5019"/>
          <path id="Path_10110" data-name="Path 10110" d="M38.984,13.61a18.482,18.482,0,0,1,7.306,6.348,18.154,18.154,0,0,1,2.539,5.9,8.181,8.181,0,0,0-2.689-2.763,7.969,7.969,0,0,0-2.017-.9,19.6,19.6,0,0,1,6.3,13.892A16.715,16.715,0,0,0,44.945,29a9.959,9.959,0,0,1-.523,8.365,12.08,12.08,0,0,0-.747-5.826A11.908,11.908,0,0,0,41.584,28.1a27.89,27.89,0,0,0,.036-4.553,28.312,28.312,0,0,0-2.636-9.936Z" transform="translate(27.575 1.029)" fill="#c77d36" stroke="#8c5019" stroke-miterlimit="10" stroke-width="0.225"/>
          <path id="Path_10111" data-name="Path 10111" d="M29.582,6.845a5.277,5.277,0,0,1,5.129-.338A14.385,14.385,0,0,0,38.2,7.643a14.254,14.254,0,0,0,2.487.248l-1.592.647a12.014,12.014,0,0,1,3.734,1.545,12.2,12.2,0,0,1,4.182,4.481,7.231,7.231,0,0,0-3.237-1.545,7.055,7.055,0,0,0-1.893-.1,4.651,4.651,0,0,1,1.3.995,4.78,4.78,0,0,1,1.146,2.341,6.816,6.816,0,0,0-2.974-1.27A22.46,22.46,0,0,0,29.582,6.845Z" transform="translate(24.491 -1.468)" fill="#aa6531" stroke="#66330e" stroke-miterlimit="10" stroke-width="0.225"/>
          <path id="Path_10112" data-name="Path 10112" d="M47.043,25.488a19.034,19.034,0,0,1,.92,8.425c-1.046,8.5-7.879,13.636-10.008,15.236a27.783,27.783,0,0,1-4.78,2.887,6.713,6.713,0,0,0,2.448-5.247,14.255,14.255,0,0,1-5.18,2.293c-3.15.68-6.175.158-6.2-.24-.019-.29,1.545-.36,3.84-1.553a15.366,15.366,0,0,0,2.12-1.332,9.484,9.484,0,0,1-3.982-.735,9.7,9.7,0,0,1-4.406-3.8,24.127,24.127,0,0,0,10.779.943,9.606,9.606,0,0,1-3.15-1.132A9.49,9.49,0,0,1,27.8,40.036,17.341,17.341,0,0,0,39.9,37.2,17.524,17.524,0,0,0,47.043,25.488Z" transform="translate(21.943 4.925)" fill="#c77d36" stroke="#8c5019" stroke-miterlimit="10" stroke-width="0.225"/>
          <path id="Path_10113" data-name="Path 10113" d="M52.865,27.332" transform="translate(32.128 5.53)" fill="#c77d36" stroke="#c77d36" stroke-miterlimit="10" stroke-width="0.225"/>
        </g>
        <g id="Слой_7" data-name="Слой 7" transform="translate(16.473)">
          <path id="Path_10114" data-name="Path 10114" d="M32.556,1.509A31.287,31.287,0,1,0,63.844,32.8,31.288,31.288,0,0,0,32.556,1.509Zm.061,61.906A30.621,30.621,0,1,1,63.239,32.794,30.622,30.622,0,0,1,32.617,63.415Z" transform="translate(-1.269 -1.509)" stroke="#000" stroke-miterlimit="10" stroke-width="0.9"/>
        </g>
      </g>
    </g>
    <circle id="Ellipse_967" data-name="Ellipse 967" cx="32" cy="32" r="32" transform="translate(-23724 -8969)" fill="#fff"/>
    <g id="Mask_Group_121" data-name="Mask Group 121" transform="translate(765 2251.874)" clip-path="url(#clip-path-2)">
      <g id="polygon-matic-logo" transform="translate(-24476.975 -11206.542)">
        <path id="Path_10081" data-name="Path 10081" d="M30.434,10.808a2.646,2.646,0,0,0-2.519,0l-5.877,3.5-3.988,2.23-5.772,3.5a2.646,2.646,0,0,1-2.519,0L5.247,17.286a2.594,2.594,0,0,1-1.259-2.23V9.746a2.626,2.626,0,0,1,1.259-2.23L9.76,4.861a2.646,2.646,0,0,1,2.519,0l4.513,2.761a2.594,2.594,0,0,1,1.259,2.23v3.5l3.988-2.336V7.409a2.626,2.626,0,0,0-1.259-2.23L12.383.188a2.646,2.646,0,0,0-2.519,0l-8.605,5.1A2.34,2.34,0,0,0,0,7.409v9.982a2.626,2.626,0,0,0,1.259,2.23l8.5,4.991a2.646,2.646,0,0,0,2.519,0l5.772-3.4,3.988-2.336,5.772-3.4a2.646,2.646,0,0,1,2.519,0l4.513,2.655a2.594,2.594,0,0,1,1.259,2.23v5.31a2.626,2.626,0,0,1-1.259,2.23L30.434,30.56a2.646,2.646,0,0,1-2.519,0L23.4,27.905a2.594,2.594,0,0,1-1.259-2.23v-3.4l-3.988,2.336v3.5a2.626,2.626,0,0,0,1.259,2.23l8.5,4.991a2.646,2.646,0,0,0,2.519,0l8.5-4.991a2.594,2.594,0,0,0,1.259-2.23V18.029a2.626,2.626,0,0,0-1.259-2.23Z" transform="translate(0 0.131)" fill="#8247e5"/>
      </g>
    </g>
    <path id="Path_10193" data-name="Path 10193" d="M132,0" transform="translate(-23783.5 -8904.5)" fill="none" stroke="#707070" stroke-width="1"/>
  </g>
</svg>
