<svg xmlns="http://www.w3.org/2000/svg" xmlns:xlink="http://www.w3.org/1999/xlink" width="114" height="64" viewBox="0 0 114 64">
  <defs>
    <style>
      .cls-1 {
        fill: #fff;
      }

      .cls-2 {
        fill: #010101;
      }

      .cls-3 {
        clip-path: url(#clip-path);
      }

      .cls-4 {
        fill: #8247e5;
      }
    </style>
    <clipPath id="clip-path">
      <circle id="Ellipse_1934" data-name="Ellipse 1934" class="cls-1" cx="32" cy="32" r="32" transform="translate(-23389 -22253)"/>
    </clipPath>
  </defs>
  <g id="Group_802" data-name="Group 802" transform="translate(23439 22253)">
    <g id="Group_801" data-name="Group 801">
      <circle id="Ellipse_1933" data-name="Ellipse 1933" class="cls-1" cx="32" cy="32" r="32" transform="translate(-23439 -22253)"/>
      <g id="fish" transform="translate(-23424.945 -22248.953)">
        <path id="Path_18275" data-name="Path 18275" class="cls-2" d="M3.937.577A24.283,24.283,0,0,1,8.406.986l6.747.878c1.252.123,2.13,1.1,3.082,1.814l6.781,5.194A9.773,9.773,0,0,1,26.885,10.7c1.212,1.507,3.162,2.115,4.509,3.462A22.648,22.648,0,0,1,33.157,17,21.752,21.752,0,0,1,35.4,21.22c-2.014-.153-3.923-.863-5.9-1.206a23.185,23.185,0,0,1,.792,3.662,12.166,12.166,0,0,1-1.16,2.753L22.744,39.38a2.646,2.646,0,0,1-1.437,1.3c-2.931,1.461-5.8,3.045-8.7,4.558.172,1.265.78,2.5.666,3.782-.786,2.13-1.633,4.251-2.572,6.323h-.279c-1.268-3.113-1.707-6.489-2.993-9.6-1.038-.018-2.075-.068-3.113,0-1.286.086-2.526.629-3.828.467a37.7,37.7,0,0,1,3.263-3.42,4.757,4.757,0,0,1,1.32-1.084c1.418-.246,2.882-.117,4.3-.405,1.209-1.127,2.158-2.508,3.278-3.726.835-.813.654-2.057.7-3.116-.046-2.5.218-5,.233-7.5-1.808,1.391-2.394,3.7-3.57,5.559l-.648.058c-.4-1.4-.712-2.818-1.05-4.23A27.109,27.109,0,0,1,7.13,23.4c.1-1.7,1.219-3.168,1.314-4.862C7.3,16.527,5.739,14.78,4.5,12.831a3.461,3.461,0,0,1-.371-1.983C4.152,7.423,3.765,4,3.937.577m.672.47A21.488,21.488,0,0,0,4.7,3.678C5.208,5.007,5.819,6.3,6.288,7.644a2.055,2.055,0,0,0,1.1,1.351l7.419,3.684a39.709,39.709,0,0,0,4.675-1.351,9.565,9.565,0,0,0-2.643-2.591c-.955-.117-1.98.074-2.842-.457a9.261,9.261,0,0,1-1.348-2.041q1.16-.025,2.321,0c1.489,1.6,3.113,3.073,4.6,4.669.685-1.658.319-3.472.427-5.212C18.6,4.7,17.3,3.58,15.866,2.634,12.133,1.983,8.324,1.75,4.609,1.047m.052,3.769c-.055,2.25-.031,4.506,0,6.759.761-.764,1.071-1.839,1.753-2.671C5.77,7.567,5.38,6.118,4.662,4.817m15.986,1.36a17.515,17.515,0,0,0-.344,5.016c1.74-.491,3.6-.457,5.3-1.065-1.6-1.391-3.367-2.56-4.96-3.951m-7.395.356c.335.491.642,1,.949,1.507a10.1,10.1,0,0,1,2.265.295c-.442-.737-1.252-1.142-1.8-1.793l-1.415-.009M6.568,9.206c-.513,1.047-1.219,1.986-1.713,3.042,1.691.411,3.3,1.108,4.979,1.55-.982-1.6-2.143-3.085-3.266-4.592m.749.3c1.053,1.519,2.17,2.993,3.263,4.485a16.44,16.44,0,0,0,3.684-1.148C11.912,11.809,9.7,10.455,7.317,9.507M20.246,11.45c1.176,1.986,2.37,3.966,3.665,5.875a59.11,59.11,0,0,0,4.552,4.347c.5.374.7,1.087,1.357,1.249a8.8,8.8,0,0,1-.691-1.9l-2.809-10c-1.038,1.879-1.523,4.03-2.689,5.835.338-2.167,1.578-4.107,2.305-6.173-1.918.114-3.766.789-5.691.764m-8.094,2.578-.586.4C15.377,15,19.1,16.1,22.907,16.708c-.869-1.747-2.035-3.331-3.014-5.016-2.6.721-5.145,1.608-7.741,2.336M27.4,12.012c-.055.359-.3.731-.141,1.093.626,2,1.222,4.018,1.713,6.056.8-.255,1.605-.457,2.4-.706-1.384-2-3.03-3.88-4-6.115,1.645,1.516,2.456,3.754,4,5.366a13.105,13.105,0,0,1-.35-3.128c-1.17-.909-2.382-1.762-3.622-2.566m-22.279.669c2.456,3.714,5.234,7.235,7.656,10.983l.479.436a15.763,15.763,0,0,0-.9-3.2c-.473-1.909-1.243-3.73-1.7-5.645-.144-.341-.212-.807-.635-.915-1.645-.516-3.269-1.1-4.9-1.655m5.82,1.879,6.931,10.817,5.218-8.058c-4.012-1.074-8.134-1.691-12.149-2.76m20.661.964c.049.97.052,1.943.049,2.913.872.525,1.7,1.111,2.551,1.679a38.128,38.128,0,0,0-2.6-4.592m-20.256.663,2.879,9.378h3.346l-3.782-5.78a23.849,23.849,0,0,0-2.443-3.6m12.11,1.338C21.771,20.2,19.92,22.774,18.312,25.5a24.314,24.314,0,0,1,3.2-.562c2.717-.322,5.35-1.255,8.1-1.262A8.406,8.406,0,0,0,27.736,21.5a40.555,40.555,0,0,0-4.279-3.972m6.311,1.731a23.175,23.175,0,0,0,3.966,1.1c-.648-.586-1.409-1.028-2.075-1.593a12.984,12.984,0,0,1-1.891.5m-20.52.034-.009,4.976a21.439,21.439,0,0,0,4.377,1.047L9.248,19.29m-1.569,3.8a1.866,1.866,0,0,0,1.234,1.041c.025-1.418.055-2.839-.006-4.258a14.207,14.207,0,0,0-1.228,3.217m-.006.559c.583,1.9.832,3.9,1.532,5.752a14.263,14.263,0,0,0-.341-4.647,5.987,5.987,0,0,0-1.191-1.105m5.6.417h0m11.935.583c-2.382.3-4.715.921-7.091,1.252,1.443,2.106,2.628,4.386,4.083,6.486.881-1.446,2.348-2.388,3.278-3.794,1.378-1.544,2.664-3.152,4.135-4.614-1.5-.012-2.913.6-4.4.669M9.772,24.9a26.59,26.59,0,0,0,2.008,3.174,7.36,7.36,0,0,0,1.808-2.192A28.275,28.275,0,0,0,9.772,24.9m-.218.534a13.942,13.942,0,0,0,.193,3.613,15.756,15.756,0,0,1,.123,2.5,34.4,34.4,0,0,1,1.744-3.054l-2.06-3.054M26.91,27.562c-.66.955-1.651,1.621-2.305,2.582a15.037,15.037,0,0,1-2.158,2.284q-.041,3.094.009,6.188a50.572,50.572,0,0,0,2.477-5.049c1.286-2.741,2.714-5.415,4-8.156a11.981,11.981,0,0,0-2.02,2.152M14.524,25.9l-.347.347c-.092,1.931.046,3.868-.055,5.8a11.728,11.728,0,0,0-.249,3.509l3.72-9.669c-1.022,0-2.047-.055-3.07.015m3.383.451c-1.449,3.291-2.542,6.722-3.846,10.068,2.658-1.136,5.2-2.532,7.791-3.828-1.43-2.008-2.462-4.273-3.944-6.24M14.543,36.737c-.043.1-.135.282-.178.378,2.526.638,4.93,1.679,7.447,2.348l-.006-6.32c-2.453,1.13-4.847,2.385-7.263,3.594m-2.468,2.4a13.775,13.775,0,0,0-1.992,2.446,8.931,8.931,0,0,1,1.618-.365c3.085-.384,6.124-1.1,9.23-1.311l-.457-.424-6.64-2.222c-.817.261-1.157,1.289-1.759,1.876M9.726,41.946c1.019.774,1.587,1.965,2.535,2.815,1.363-.611,2.575-1.495,3.935-2.109,1.5-.8,3.1-1.443,4.537-2.354-3.674.417-7.33,1.166-11.008,1.648m-3.475.282c-.031.451,1.093.417,1.071-.012a1.04,1.04,0,0,0-1.071.012m.78.638a4.707,4.707,0,0,0,.777,1.854c.439-.863.878-1.722,1.268-2.606a12.357,12.357,0,0,1-2.044.752m1,2.394a12.292,12.292,0,0,1,3.742-.359,10.342,10.342,0,0,1-2.047-2.956,26.742,26.742,0,0,0-1.694,3.315M4.763,42.49c-1.025.995-2.057,1.986-3,3.063A5.81,5.81,0,0,0,3.6,45.108,24.031,24.031,0,0,0,6.249,42.8c-.479-.126-.976-.519-1.486-.313M4.213,45.2q1.641.031,3.281-.012a14.651,14.651,0,0,0-.955-1.946A17.981,17.981,0,0,0,4.213,45.2m3.984.316c.872.568,1.541,1.384,2.413,1.946.335-.8.758-1.544,1.151-2.308a10.9,10.9,0,0,1-3.564.362m3.68.209a8.039,8.039,0,0,1-1.123,1.931,16.426,16.426,0,0,0,1.918.691,6.674,6.674,0,0,0-.8-2.621m-3.622.292c.608,1.946,1.219,3.9,1.642,5.9a3.838,3.838,0,0,0,.543,1.13c.061-1.651.018-3.309.018-4.964-.746-.678-1.406-1.446-2.2-2.063m2.535,2.195.006,5.439c.715-1.541,1.265-3.149,1.891-4.724A4.839,4.839,0,0,0,10.792,48.211Z"/>
        <g id="Group_800" data-name="Group 800" transform="translate(1.767 1.047)">
          <path id="Path_18276" data-name="Path 18276" class="cls-1" d="M13.91,2.13c3.714.7,7.524.936,11.256,1.587C26.6,4.662,27.9,5.786,29.3,6.774c-.107,1.74.258,3.555-.427,5.212-1.492-1.6-3.116-3.067-4.6-4.669q-1.16-.021-2.321,0A9.261,9.261,0,0,0,23.3,9.362c.863.531,1.888.341,2.842.457a9.565,9.565,0,0,1,2.643,2.591,39.71,39.71,0,0,1-4.675,1.351l-7.419-3.684a2.055,2.055,0,0,1-1.1-1.351C15.119,7.382,14.509,6.09,14,4.761A21.488,21.488,0,0,1,13.91,2.13ZM13.962,5.9c.718,1.3,1.108,2.75,1.75,4.089-.681.832-.991,1.906-1.753,2.671l0-6.759Zm15.986,1.36c1.593,1.391,3.364,2.56,4.96,3.951-1.707.608-3.564.574-5.3,1.065a17.515,17.515,0,0,1,.344-5.016Zm-7.395.356,1.415.009c.546.651,1.357,1.056,1.8,1.793A10.1,10.1,0,0,0,23.5,9.123Zm-6.686,2.674c1.123,1.507,2.284,3,3.266,4.592-1.682-.442-3.288-1.139-4.979-1.55C14.65,12.275,15.356,11.336,15.868,10.289Zm.749.3c2.388.949,4.6,2.3,6.946,3.337a16.44,16.44,0,0,1-3.684,1.148L16.617,10.59Zm12.929,1.943c1.925.025,3.773-.651,5.691-.764-.727,2.066-1.968,4.006-2.305,6.173,1.166-1.8,1.651-3.957,2.689-5.835.875,3.349,1.872,6.664,2.809,10A8.8,8.8,0,0,0,39.12,24c-.654-.163-.856-.875-1.357-1.249a59.11,59.11,0,0,1-4.552-4.347c-1.3-1.909-2.489-3.889-3.665-5.875Zm-8.094,2.578c2.6-.727,5.145-1.615,7.741-2.336.979,1.685,2.146,3.269,3.014,5.016-3.806-.611-7.53-1.713-11.342-2.284ZM36.7,13.095c1.24.8,2.453,1.658,3.622,2.566a13.105,13.105,0,0,0,.35,3.128c-1.547-1.612-2.357-3.849-4-5.366.973,2.235,2.618,4.119,4,6.115-.8.249-1.605.451-2.4.706-.491-2.038-1.087-4.055-1.713-6.056-.157-.362.086-.734.141-1.093Zm-22.279.669,4.9,1.655c.424.107.491.574.635.915.454,1.915,1.225,3.736,1.7,5.645a15.763,15.763,0,0,1,.9,3.2l-.479-.436c-2.422-3.748-5.2-7.269-7.656-10.983Zm5.82,1.879c4.015,1.068,8.137,1.685,12.149,2.76L27.174,26.46c-2.391-3.552-4.577-7.241-6.931-10.817Zm20.661.964A38.128,38.128,0,0,1,43.5,21.2c-.847-.568-1.679-1.154-2.551-1.679,0-.97,0-1.943-.049-2.913Zm-20.256.663a23.848,23.848,0,0,1,2.443,3.6l3.782,5.78c-1.114,0-2.229,0-3.346,0-.875-3.149-1.958-6.244-2.879-9.378Zm12.11,1.338a40.555,40.555,0,0,1,4.279,3.972,8.406,8.406,0,0,1,1.885,2.182c-2.753.006-5.387.939-8.1,1.262a24.313,24.313,0,0,0-3.2.562c1.608-2.729,3.459-5.3,5.145-7.978Zm6.311,1.731a12.984,12.984,0,0,0,1.891-.5l2.075,1.593a23.175,23.175,0,0,1-3.966-1.1Zm-20.52.034L22.916,26.4a21.439,21.439,0,0,1-4.377-1.047Zm-1.569,3.8a14.207,14.207,0,0,1,1.228-3.217c.061,1.418.031,2.839.006,4.258A1.866,1.866,0,0,1,16.98,24.176Zm-.006.559a5.987,5.987,0,0,1,1.191,1.105,14.263,14.263,0,0,1,.341,4.647c-.7-1.851-.949-3.855-1.532-5.752Zm5.6.417Zm11.935.583c1.492-.074,2.907-.681,4.4-.669-1.47,1.461-2.756,3.07-4.135,4.614-.93,1.406-2.4,2.348-3.278,3.794-1.455-2.1-2.64-4.38-4.083-6.486C29.792,26.656,32.125,26.039,34.507,25.735Zm-15.434.252a28.276,28.276,0,0,1,3.815.982,7.36,7.36,0,0,1-1.808,2.192,26.59,26.59,0,0,1-2.008-3.174Zm-.218.534c.669,1.028,1.366,2.041,2.06,3.054a34.4,34.4,0,0,0-1.744,3.054,15.756,15.756,0,0,0-.123-2.5A13.942,13.942,0,0,1,18.855,26.521Zm17.355,2.124a11.98,11.98,0,0,1,2.02-2.152c-1.283,2.741-2.71,5.415-4,8.156A50.573,50.573,0,0,1,31.757,39.7Q31.7,36.6,31.747,33.51a15.037,15.037,0,0,0,2.158-2.284c.654-.961,1.645-1.627,2.305-2.582ZM23.825,26.978c1.022-.071,2.047-.018,3.07-.015-1.148,3.257-2.44,6.465-3.72,9.669a11.728,11.728,0,0,1,.249-3.509c.1-1.931-.037-3.868.055-5.8Zm3.383.451c1.483,1.968,2.514,4.233,3.944,6.24-2.588,1.3-5.132,2.692-7.791,3.828,1.3-3.346,2.4-6.778,3.846-10.068ZM23.843,37.82l7.263-3.594c.04,2.106.034,4.215.006,6.32-2.517-.669-4.921-1.71-7.447-2.348.043-.1.135-.282.178-.378Zm-2.468,2.4c.6-.586.942-1.615,1.759-1.876l6.64,2.222.457.424c-3.106.209-6.145.927-9.23,1.311a8.932,8.932,0,0,0-1.618.365,13.775,13.775,0,0,1,1.992-2.446Zm-2.348,2.812c3.677-.482,7.333-1.231,11.008-1.648-1.44.912-3.033,1.553-4.537,2.354-1.36.614-2.572,1.5-3.935,2.109-.949-.85-1.516-2.041-2.535-2.815Z" transform="translate(-11.068 -2.13)"/>
          <path id="Path_18277" data-name="Path 18277" class="cls-1" d="M9.135,135.652a1.04,1.04,0,0,1,1.071-.012C10.227,136.07,9.1,136.1,9.135,135.652Zm.78.638a12.356,12.356,0,0,0,2.044-.752l-1.268,2.606A4.707,4.707,0,0,1,9.914,136.291Zm1,2.394a26.741,26.741,0,0,1,1.694-3.315,10.342,10.342,0,0,0,2.047,2.956,12.292,12.292,0,0,0-3.742.359Zm-3.269-2.772c.51-.206,1.007.187,1.486.313a24.031,24.031,0,0,1-2.652,2.305,5.81,5.81,0,0,1-1.829.445C5.589,137.9,6.621,136.908,7.646,135.913Zm-.549,2.71a17.981,17.981,0,0,1,2.327-1.958,14.648,14.648,0,0,1,.955,1.946q-1.64.043-3.281.012Zm3.984.316a10.9,10.9,0,0,0,3.564-.362c-.393.764-.817,1.513-1.151,2.308-.872-.562-1.541-1.378-2.413-1.946Zm3.68.209a6.674,6.674,0,0,1,.8,2.621l-1.918-.691A8.039,8.039,0,0,0,14.761,139.149Zm-3.622.292c.8.617,1.458,1.384,2.2,2.063,0,1.655.043,3.312-.018,4.964a3.838,3.838,0,0,1-.543-1.13C12.358,143.339,11.747,141.386,11.139,139.44Zm2.535,2.195a4.839,4.839,0,0,1,1.9.715c-.626,1.575-1.176,3.183-1.891,4.724C13.629,145.26,13.665,143.446,13.675,141.635Z" transform="translate(-4.65 -94.471)"/>
        </g>
      </g>
    </g>
    <g id="Mask_Group_90" data-name="Mask Group 90" class="cls-3">
      <g id="matic-token-inverted-icon" transform="translate(-23389 -22253)">
        <circle id="Ellipse_1989" data-name="Ellipse 1989" class="cls-1" cx="32" cy="32" r="32"/>
        <path id="Path_17809" data-name="Path 17809" class="cls-4" d="M42.592,25.153a2.708,2.708,0,0,0-2.61,0L34,28.577l-4.068,2.233-5.987,3.423a2.708,2.708,0,0,1-2.61,0l-4.759-2.679a2.554,2.554,0,0,1-1.3-2.158V24.112a2.4,2.4,0,0,1,1.3-2.158l4.682-2.6a2.708,2.708,0,0,1,2.61,0l4.682,2.6a2.554,2.554,0,0,1,1.3,2.158v3.423l4.068-2.307V21.8a2.4,2.4,0,0,0-1.3-2.158l-8.673-4.912a2.708,2.708,0,0,0-2.61,0L12.5,19.646A2.4,2.4,0,0,0,11.2,21.8v9.9a2.4,2.4,0,0,0,1.3,2.158l8.827,4.912a2.708,2.708,0,0,0,2.61,0l5.987-3.349L34,33.116l5.987-3.349a2.708,2.708,0,0,1,2.61,0l4.682,2.6a2.554,2.554,0,0,1,1.3,2.158v5.284a2.4,2.4,0,0,1-1.3,2.158l-4.682,2.679a2.708,2.708,0,0,1-2.61,0l-4.682-2.6A2.554,2.554,0,0,1,34,39.888V36.465l-4.068,2.307V42.2a2.4,2.4,0,0,0,1.3,2.158l8.827,4.912a2.708,2.708,0,0,0,2.61,0L51.5,44.354A2.554,2.554,0,0,0,52.8,42.2V32.3a2.4,2.4,0,0,0-1.3-2.158Z"/>
      </g>
    </g>
  </g>
</svg>
