<svg xmlns="http://www.w3.org/2000/svg" xmlns:xlink="http://www.w3.org/1999/xlink" width="114" height="64" viewBox="0 0 114 64">
  <defs>
    <style>
      .cls-1 {
        fill: #fff;
      }

      .cls-2 {
        fill: #615035;
      }

      .cls-3 {
        fill: #2a2a29;
      }

      .cls-4 {
        fill: #f1d19a;
      }

      .cls-5 {
        fill: #efce96;
      }

      .cls-6 {
        fill: #ebca91;
      }

      .cls-7 {
        fill: #604f35;
      }

      .cls-8 {
        fill: #dfbd80;
      }

      .cls-9 {
        fill: #e5c388;
      }

      .cls-10 {
        fill: #e6c58a;
      }

      .cls-11 {
        fill: #d6b272;
      }

      .cls-12 {
        fill: #e8c78d;
      }

      .cls-13 {
        fill: #d8b575;
      }

      .cls-14 {
        fill: #dbb97a;
      }

      .cls-15 {
        fill: #d9b677;
      }

      .cls-16 {
        fill: #ceaa69;
      }

      .cls-17 {
        fill: #ddba7c;
      }

      .cls-18 {
        fill: #dcba7f;
      }

      .cls-19 {
        fill: #e2bf84;
      }

      .cls-20 {
        fill: #d5b271;
      }

      .cls-21 {
        fill: #d3b06f;
      }

      .cls-22 {
        fill: #caa665;
      }

      .cls-23 {
        fill: #edcc93;
      }

      .cls-24 {
        fill: #c2b092;
      }

      .cls-25 {
        fill: #d1ad6c;
      }

      .cls-26 {
        fill: #bb9b61;
      }

      .cls-27 {
        fill: #c0a473;
      }

      .cls-28 {
        fill: #413a30;
      }

      .cls-29 {
        fill: #bfa984;
      }

      .cls-30 {
        fill: #a68a59;
      }

      .cls-31 {
        clip-path: url(#clip-path);
      }

      .cls-32 {
        clip-path: url(#clip-path-2);
      }

      .cls-33 {
        fill: #343434;
      }

      .cls-34 {
        fill: #8c8c8c;
      }

      .cls-35 {
        fill: #3c3c3b;
      }

      .cls-36 {
        fill: #141414;
      }

      .cls-37 {
        fill: #393939;
      }
    </style>
    <clipPath id="clip-path">
      <circle id="Ellipse_1938" data-name="Ellipse 1938" class="cls-1" cx="32" cy="32" r="32" transform="translate(-23061 -22253)"/>
    </clipPath>
    <clipPath id="clip-path-2">
      <circle id="Ellipse_1822" data-name="Ellipse 1822" class="cls-1" cx="32" cy="32" r="32" transform="translate(-23325 -23674)"/>
    </clipPath>
  </defs>
  <g id="Group_838" data-name="Group 838" transform="translate(23111 22253)">
    <circle id="Ellipse_1937" data-name="Ellipse 1937" class="cls-1" cx="32" cy="32" r="32" transform="translate(-23111 -22253)"/>
    <g id="Group_786" data-name="Group 786" transform="translate(990 2660)">
      <circle id="Ellipse_1805" data-name="Ellipse 1805" class="cls-1" cx="32" cy="32" r="32" transform="translate(-24101 -24913)"/>
      <g id="Group_734" data-name="Group 734" transform="translate(55.692 -47.234)">
        <g id="FRMX" transform="translate(-24150.598 -24860)">
          <path id="Path_17444" data-name="Path 17444" class="cls-2" d="M183.8,63.421l-.3-.016c.019-.019.036-.037.054-.054h.183A.9.9,0,0,1,183.8,63.421Z" transform="translate(-157.776 -10.953)"/>
          <path id="Path_17445" data-name="Path 17445" class="cls-3" d="M178.085,17.524q1.668,2.424,3.338,4.847c.913,1.322,1.832,2.639,2.741,3.963a3.1,3.1,0,0,1,.234.526l-.135.159-3.108,4.441-1.944,2.784-1.5,2.149-1.126,1.576-.891,1.208-.216-.073-3.64.01h-2.073c.407-.646.755-1.2,1.1-1.748l1.433-2.052,1.782-2.559,1.092-1.576,1.609-2.39c.457-.6.933-1.2,1.357-1.825a.67.67,0,0,0-.021-.595c-.357-.573-.765-1.12-1.155-1.675l-6.754-9.629-.3-.543v-.2l3.751-.039,2.252.043v.1c.3.48.566.979.89,1.433C177.208,16.432,177.657,16.971,178.085,17.524Z" transform="translate(-155.302 -2.112)"/>
          <path id="Path_17446" data-name="Path 17446" class="cls-4" d="M167.932,14.029l6.761,9.639c.39.554.8,1.1,1.155,1.675a.671.671,0,0,1,.021.595c-.43.628-.9,1.221-1.357,1.825a4.925,4.925,0,0,1-.6-.43c-.665-.645-1.314-1.305-1.969-1.96l-7.933-7.933L160.8,14.231c-.628-.628-1.278-1.234-1.874-1.888a2.118,2.118,0,0,0-1.623-.785c-.06,0-.122-.06-.183-.092l1.277-.652.215-.117h0l.43-.216h0l1.709-.809,2.033-.954c.143-.066.287-.123.43-.185.093.41,0,.847.378,1.2,1.13,1.087,2.221,2.216,3.342,3.312.133.129.374.143.564.219.016.07.033.143.049.208C167.4,13.844,167.445,13.913,167.932,14.029Z" transform="translate(-153.024 -1.075)"/>
          <path id="Path_17447" data-name="Path 17447" class="cls-2" d="M209.576,44.653c0,.821-.039,1.645.02,2.463a.869.869,0,0,1-.623.957c-2.368,1.113-4.728,2.245-7.092,3.373l-12.535,5.987q-2.748,1.311-5.5,2.616a.9.9,0,0,0-.062-.067v-3.04l.983-.554,2.781-1.327,2.7-1.274,2.235-1.073,1.977-.948,2.523-1.2,3.351-1.6,4.483-2.149,1.281-.659,1.185-.523,1.192-.646.951-.354Z" transform="translate(-157.828 -7.58)"/>
          <path id="Path_17448" data-name="Path 17448" class="cls-5" d="M156.553,12.1c.062.032.123.092.183.092a2.091,2.091,0,0,1,1.623.785c.6.655,1.246,1.261,1.874,1.888l3.209,3.209,7.933,7.933c.655.655,1.3,1.315,1.969,1.96a4.924,4.924,0,0,0,.6.43l-1.609,2.39c-.125-.143-.239-.309-.377-.447q-1.706-1.719-3.42-3.423l-5.407-5.4c-.34-.338-.716-.636-1.057-.976-.973-.977-1.923-1.976-2.9-2.95-.956-.953-1.969-1.852-2.887-2.84a3.294,3.294,0,0,0-2.325-1.383Z" transform="translate(-152.455 -1.719)"/>
          <path id="Path_17449" data-name="Path 17449" class="cls-6" d="M153.633,13.659a3.3,3.3,0,0,1,2.325,1.383c.918.987,1.931,1.887,2.887,2.84.976.974,1.926,1.973,2.9,2.95.337.34.716.638,1.057.976q2.708,2.692,5.4,5.4l3.42,3.423c.143.143.252.3.377.447l-1.092,1.576a2.584,2.584,0,0,1-.633-.335c-.847-.83-1.662-1.692-2.5-2.524-.9-.885-1.822-1.741-2.722-2.625-1.239-1.224-2.466-2.461-3.7-3.693L154.7,16.82c-.573-.573-1.122-1.146-1.719-1.7a3.169,3.169,0,0,0-.729-.381l-.1-.314Z" transform="translate(-152.127 -1.999)"/>
          <path id="Path_17450" data-name="Path 17450" class="cls-7" d="M167.537,54.87c-.143.01-.322.076-.44.02q-3.095-1.448-6.179-2.926c-2.794-1.335-5.588-2.682-8.381-4.012a.589.589,0,0,1-.411-.643c.027-.89.017-1.782.023-2.673.979.446,1.957.894,2.937,1.338.787.358,1.576.716,2.361,1.067a3.521,3.521,0,0,0,.4.259q1.971.94,3.948,1.862l3.97,1.9,1.719.771Z" transform="translate(-152.124 -7.581)"/>
          <path id="Path_17451" data-name="Path 17451" class="cls-8" d="M174.189,3.563l1.469-.669c-.229.656.106,1.066.553,1.506,2.361,2.324,4.7,4.672,7.033,7.02.875.88,1.719,1.784,2.592,2.669a.828.828,0,0,0,.287.117q-.629.881-1.261,1.759l-2.413-3.41c-.181-.1-.358-.287-.543-.287-.827-.039-1.655-.027-2.481-.036-.021-.083-.017-.193-.07-.245-.86-.814-1.738-1.6-2.579-2.436-1.162-1.156-2.272-2.363-3.438-3.516-.494-.487-1-.913-.573-1.689l.966-.562h0Z" transform="translate(-155.813 -0.06)"/>
          <path id="Path_17452" data-name="Path 17452" class="cls-9" d="M197.548,25.129l1.457-2a2.532,2.532,0,0,0,.817,1.672Q205.43,30.359,211,35.956c.143.143.3.287.418.4l.5-.287v3.109c-.391.324-.668.17-.979-.165q-1.335-1.444-2.722-2.837c-.838-.84-1.719-1.63-2.562-2.471-1.209-1.215-2.385-2.464-3.59-3.683-.559-.563-1.163-1.083-1.732-1.636-.645-.626-1.269-1.274-1.911-1.9a1.383,1.383,0,0,1-.573-1.1C197.851,25.311,197.653,25.217,197.548,25.129Z" transform="translate(-160.308 -3.706)"/>
          <path id="Path_17453" data-name="Path 17453" class="cls-8" d="M212.23,35.683l-.5.287c-.117-.112-.272-.252-.418-.4q-5.588-5.588-11.175-11.154a2.532,2.532,0,0,1-.817-1.672l1.189-1.769a5.939,5.939,0,0,0,.708,1.158c1.933,1.967,3.9,3.9,5.848,5.853,1.4,1.4,2.8,2.8,4.183,4.212a.775.775,0,0,0,.977.268Z" transform="translate(-160.628 -3.318)"/>
          <path id="Path_17454" data-name="Path 17454" class="cls-3" d="M186.815,38.026l3.06-4.473,1.99,2.865q2.006,2.893,4.024,5.784c.07.1.159.188.239.287v.04c-.212.019-.43.05-.635.053-1.034.013-2.067.019-3.1.026-.642-.007-1.289.01-1.923-.037a.9.9,0,0,1-.59-.315c-.656-.888-1.268-1.808-1.91-2.7C187.6,39.026,187.2,38.532,186.815,38.026Z" transform="translate(-158.374 -5.584)"/>
          <path id="Path_17455" data-name="Path 17455" class="cls-10" d="M186.434,39.009c.385.506.784,1,1.146,1.517.642.9,1.254,1.817,1.91,2.7a.9.9,0,0,0,.59.315c.639.047,1.281.03,1.923.037-.1.514.277.741.586,1.04,1.066,1.032,2.1,2.092,3.152,3.14.348.348.716.678,1.036,1.054a3.371,3.371,0,0,1,.368.732l-2.523,1.2c-.312-.287-.636-.563-.936-.86q-3.868-3.858-7.724-7.727a1.092,1.092,0,0,0-.963-.46c-.087.013-.2-.143-.3-.212Z" transform="translate(-157.993 -6.567)"/>
          <path id="Path_17456" data-name="Path 17456" class="cls-11" d="M203.284,16.753l1.805-2.6a4.611,4.611,0,0,0,.615,1.178c2.116,2.166,4.275,4.3,6.4,6.447.287.287.507.4.834.125V25.76l-.542.219c-.122-.143-.239-.3-.377-.44-2.41-2.414-4.83-4.818-7.228-7.242-.491-.5-1.216-.86-1.1-1.778Z" transform="translate(-161.342 -2.089)"/>
          <path id="Path_17457" data-name="Path 17457" class="cls-9" d="M172.015,4.655c-.437.777.076,1.2.573,1.689,1.165,1.146,2.275,2.36,3.438,3.516.837.834,1.719,1.622,2.579,2.436.053.052.049.162.07.245l-3.009.047-2.252-.043a2.988,2.988,0,0,0-.39-.716c-.666-.708-1.365-1.384-2.052-2.07-.595-.6-1.206-1.176-1.779-1.794-.4-.43-1.109-.752-.645-1.552.016-.027-.039-.095-.06-.143l2.45-1.206c.232-.113.473-.213.709-.319l.264-.107h0Z" transform="translate(-155.056 -0.374)"/>
          <path id="Path_17458" data-name="Path 17458" class="cls-12" d="M197.334,25.569c.1.087.3.182.3.261a1.344,1.344,0,0,0,.573,1.1c.642.628,1.266,1.275,1.911,1.9.573.553,1.173,1.073,1.732,1.636,1.2,1.219,2.381,2.469,3.59,3.683.837.841,1.719,1.632,2.562,2.471q1.388,1.39,2.722,2.837c.311.335.587.489.979.163v1.576l-.951.354a1.656,1.656,0,0,1-.312-.2c-.774-.782-1.534-1.576-2.311-2.358-1.289-1.289-2.567-2.579-3.868-3.868-1.258-1.242-2.54-2.461-3.8-3.7-1.146-1.13-2.292-2.268-3.411-3.426a3.772,3.772,0,0,1-.372-.732,1.706,1.706,0,0,0-.314-.312Z" transform="translate(-160.093 -4.145)"/>
          <path id="Path_17459" data-name="Path 17459" class="cls-13" d="M178.793,1.5,181.071.35a2.694,2.694,0,0,0-.143.506c-.016.2-.057.473.049.59.726.807,1.479,1.59,2.242,2.361.52.526,1.087,1,1.61,1.533,1.02,1.026,2.016,2.079,3.039,3.1.9.9,1.835,1.775,2.735,2.681a2.49,2.49,0,0,1,.332.645c-.446.009-.894,0-1.338.03-.365.023-.728.087-1.09.133a3.121,3.121,0,0,1-.519-.341c-1.212-1.2-2.416-2.407-3.62-3.612-1.683-1.683-3.373-3.363-5.047-5.056-.344-.35-.809-.7-.43-1.305C178.894,1.593,178.826,1.531,178.793,1.5Z" transform="translate(-156.921 0.399)"/>
          <path id="Path_17460" data-name="Path 17460" class="cls-14" d="M178.34,1.748c.033.039.1.1.093.115-.375.609.09.956.43,1.305,1.675,1.693,3.364,3.373,5.047,5.056,1.2,1.2,2.408,2.414,3.62,3.612a3.12,3.12,0,0,0,.519.341L186.776,14a.828.828,0,0,1-.287-.117c-.86-.885-1.719-1.789-2.592-2.669-2.335-2.348-4.672-4.7-7.033-7.02-.447-.44-.782-.85-.553-1.506q.84-.43,1.683-.841a2.1,2.1,0,0,1,.345-.1Z" transform="translate(-156.468 0.147)"/>
          <path id="Path_17461" data-name="Path 17461" class="cls-15" d="M203.07,17.273l.407-.229c-.112.924.613,1.289,1.1,1.778,2.4,2.424,4.818,4.828,7.228,7.242.143.143.255.3.377.44l.542-.219v2.894c-.384.254-.629.089-.926-.211-2.865-2.888-5.744-5.755-8.615-8.635-.405-.407-.938-.742-.894-1.441,0-.075-.129-.159-.2-.239Z" transform="translate(-161.127 -2.609)"/>
          <path id="Path_17462" data-name="Path 17462" class="cls-16" d="M213.338,21.359c-.327.274-.552.16-.834-.125-2.129-2.149-4.288-4.279-6.4-6.447a4.612,4.612,0,0,1-.615-1.178c.542-.784,1.069-1.576,1.638-2.34.087-.117.362-.1.55-.143a.744.744,0,0,0-.116,1.166c.079.1.173.179.261.266,1.547,1.547,3.1,3.086,4.633,4.652.287.3.536.391.887.173Z" transform="translate(-161.738 -1.543)"/>
          <path id="Path_17463" data-name="Path 17463" class="cls-17" d="M201.861,19.007c.069.08.2.165.2.239-.044.7.489,1.034.894,1.441,2.865,2.88,5.752,5.747,8.615,8.635.3.3.542.464.926.211v2.576a.776.776,0,0,1-.977-.268c-1.381-1.416-2.784-2.812-4.183-4.212-1.95-1.95-3.916-3.885-5.848-5.853a5.939,5.939,0,0,1-.708-1.158Z" transform="translate(-160.89 -2.963)"/>
          <path id="Path_17464" data-name="Path 17464" class="cls-15" d="M189.528,54.049l-2.7,1.274a3.708,3.708,0,0,0-.357-.509l-5.661-5.678c-.234-.234-.444-.473-.827-.287-.039.02-.156-.123-.236-.191l1.706-2.569a2.685,2.685,0,0,0,.318.43c.143.126.342.178.473.308,1.289,1.277,2.57,2.563,3.855,3.845q1.1,1.1,2.216,2.2C188.714,53.271,189.124,53.659,189.528,54.049Z" transform="translate(-157.101 -7.843)"/>
          <path id="Path_17465" data-name="Path 17465" class="cls-16" d="M186.8.944c.695.327,1.387.656,2.083.979.777.358,1.562.695,2.33,1.07.83.4,1.643.841,2.464,1.264l-.86.153c.013.05.01.115.04.143Q194.8,6.53,196.74,8.5c.3.308.593.628.888.943l-.534.966h0l-.109.218h0l-.11.11h0l-.109.219h0l-.112.112h0l-.11.219h-.132c-.143-.132-.287-.259-.43-.4-2.944-2.941-5.874-5.891-8.838-8.82C186.821,1.71,186.632,1.405,186.8.944Z" transform="translate(-158.36 0.292)"/>
          <path id="Path_17466" data-name="Path 17466" class="cls-18" d="M189.9,53.728c-.405-.39-.814-.778-1.215-1.172q-1.113-1.1-2.216-2.2c-1.289-1.282-2.565-2.569-3.855-3.845-.13-.13-.335-.182-.473-.308a2.683,2.683,0,0,1-.318-.43h.009l.106-.107h0a.272.272,0,0,0,.044-.016.5.5,0,0,0-.02-.076l.944-1.2c.042.029.1.093.12.082.547-.351.874,0,1.228.354q3.6,3.615,7.211,7.215c.216.216.447.418.672.628Z" transform="translate(-157.475 -7.522)"/>
          <path id="Path_17467" data-name="Path 17467" class="cls-19" d="M192.374,52.244c-.225-.209-.456-.411-.672-.628q-3.608-3.6-7.211-7.215c-.354-.354-.681-.7-1.228-.354-.016.011-.079-.053-.12-.082a.8.8,0,0,1,.016-.1l.093-.117,1.179-1.719c.1.076.211.225.3.212a1.1,1.1,0,0,1,.963.46q3.854,3.868,7.724,7.727c.3.3.623.573.936.86Z" transform="translate(-157.713 -7.111)"/>
          <path id="Path_17468" data-name="Path 17468" class="cls-20" d="M191.409,11.638a2.446,2.446,0,0,0-.332-.645c-.9-.905-1.834-1.777-2.735-2.681-1.023-1.023-2.019-2.076-3.039-3.1-.523-.526-1.09-1-1.61-1.533-.764-.771-1.516-1.554-2.242-2.361-.106-.117-.064-.393-.049-.59a2.7,2.7,0,0,1,.143-.506l1.077-.537c.066.082.2.173.188.244-.095.609.368.887.709,1.235.46.468.927.93,1.391,1.394q4.075,4.075,8.156,8.143a1.03,1.03,0,0,1,.383.937Z" transform="translate(-157.395 0.519)"/>
          <path id="Path_17469" data-name="Path 17469" class="cls-21" d="M179.387,49.229c.08.067.2.211.236.191.383-.186.593.053.827.287q2.828,2.84,5.663,5.673a3.708,3.708,0,0,1,.357.509l-2.781,1.327a3.345,3.345,0,0,0-.43-.817c-.963-.976-1.96-1.916-2.944-2.865-.731-.706-1.258-1.669-2.384-1.877-.064-.011-.109-.132-.162-.2Z" transform="translate(-156.744 -8.408)"/>
          <path id="Path_17470" data-name="Path 17470" class="cls-6" d="M196.2,27.262a1.706,1.706,0,0,1,.314.312c.143.236.191.546.372.732,1.122,1.158,2.264,2.292,3.411,3.426,1.261,1.241,2.543,2.46,3.8,3.7q1.934,1.917,3.868,3.868c.777.781,1.537,1.576,2.311,2.358a1.657,1.657,0,0,0,.312.2l-1.192.646c-.822-.807-1.655-1.6-2.464-2.423-.986-1-1.936-2.034-2.931-3.024-1.45-1.444-2.928-2.865-4.388-4.3-.215-.211-.38-.473-.595-.682-.931-.911-1.88-1.8-2.8-2.722a1.133,1.133,0,0,1-.319-.643c-.027-.321-.156-.4-.43-.375l.43-.643.2-.218h0l.1-.143A.063.063,0,0,1,196.2,27.262Z" transform="translate(-159.934 -4.45)"/>
          <path id="Path_17471" data-name="Path 17471" class="cls-2" d="M201.172,41.683l-3.357-4.871c-.92-1.332-1.848-2.661-2.771-3.99-.07-.1-.185-.213-.183-.319.014-1.077.047-2.149.074-3.232a1.078,1.078,0,0,0,.1.3q1.165,1.662,2.341,3.314c.2.311.4.626.616.93q1.711,2.436,3.43,4.871L203.5,41.8h-2.262Z" transform="translate(-159.824 -4.812)"/>
          <path id="Path_17472" data-name="Path 17472" class="cls-21" d="M193.722,11.592a1.03,1.03,0,0,0-.383-.937q-4.089-4.062-8.156-8.143c-.464-.464-.931-.926-1.391-1.394-.341-.348-.8-.626-.709-1.235.011-.07-.122-.162-.188-.244a.968.968,0,0,1,1.2.013,14.848,14.848,0,0,0,2.016,1.02.95.95,0,0,0,.355,1.1c2.958,2.928,5.894,5.874,8.838,8.82.143.143.287.266.43.4a.511.511,0,0,0,.023.113h0l-.109.11h0l-.11.218h0l-.11.163.014.163a.322.322,0,0,1-.083,0,2.63,2.63,0,0,0-.48-.125C194.5,11.6,194.11,11.6,193.722,11.592Z" transform="translate(-157.668 0.563)"/>
          <path id="Path_17473" data-name="Path 17473" class="cls-6" d="M167.794,6.623c.021.049.076.116.06.143-.464.8.248,1.125.645,1.552.573.617,1.185,1.2,1.779,1.794.686.686,1.385,1.362,2.052,2.07a3.16,3.16,0,0,1,.39.716l-3.751.043-.129-.014a1.634,1.634,0,0,1-.563-.219c-1.122-1.1-2.212-2.225-3.342-3.312-.371-.357-.287-.794-.378-1.2.032-.042.054-.1.1-.123Q166.222,7.342,167.794,6.623Z" transform="translate(-154.364 -0.732)"/>
          <path id="Path_17474" data-name="Path 17474" class="cls-2" d="M182,61.995c-2.171-1.029-4.344-2.053-6.509-3.093a.565.565,0,0,1-.3-.372c-.02-.963,0-1.926,0-2.888,0-.04.059-.079.09-.119.817.43,1.626.86,2.448,1.265,1.433.716,2.875,1.405,4.315,2.107q0,1.523.007,3.044Z" transform="translate(-156.277 -9.542)"/>
          <path id="Path_17475" data-name="Path 17475" class="cls-22" d="M182.067,58.249c-1.433-.7-2.881-1.4-4.315-2.107-.822-.408-1.632-.842-2.448-1.265l2.02-2.936c.053.069.1.189.162.2,1.126.208,1.653,1.171,2.384,1.877.984.953,1.981,1.893,2.944,2.865a3.3,3.3,0,0,1,.43.817l-.983.554Z" transform="translate(-156.3 -8.897)"/>
          <path id="Path_17476" data-name="Path 17476" class="cls-23" d="M197.39,32.757q-1.173-1.655-2.341-3.314a1.079,1.079,0,0,1-.1-.3l.415-.564c.287-.029.408.054.43.375a1.133,1.133,0,0,0,.319.643c.921.92,1.863,1.812,2.8,2.722.215.209.38.471.595.682,1.46,1.433,2.938,2.851,4.388,4.3,1,.99,1.946,2.026,2.931,3.024.809.819,1.642,1.616,2.464,2.423l-1.185.523a2.993,2.993,0,0,0-.319-.471c-.756-.771-1.524-1.532-2.292-2.292q-3.695-3.693-7.4-7.381A2.469,2.469,0,0,0,197.39,32.757Z" transform="translate(-159.84 -4.686)"/>
          <path id="Path_17477" data-name="Path 17477" class="cls-2" d="M184.554,14.68l2.416,3.414c.241.407.463.827.726,1.219.726,1.08,1.469,2.149,2.2,3.222l-.021,2.934L185.4,19.091l-1.109-1.576a4.567,4.567,0,0,0,.135-.642C184.477,16.144,184.511,15.409,184.554,14.68Z" transform="translate(-157.919 -2.183)"/>
          <path id="Path_17478" data-name="Path 17478" class="cls-22" d="M213.743,17.392c-.351.218-.595.126-.887-.173-1.529-1.566-3.086-3.1-4.633-4.652-.087-.087-.182-.17-.261-.266a.744.744,0,0,1,.116-1.166q1.687.752,3.373,1.506c.669.3,1.334.616,1.991.944a2.557,2.557,0,0,1,.447.367.086.086,0,0,0-.053.013,2.971,2.971,0,0,0-.089.506C213.739,15.443,213.743,16.418,213.743,17.392Z" transform="translate(-162.143 -1.544)"/>
          <path id="Path_17479" data-name="Path 17479" class="cls-7" d="M179.437,17.553c-.43-.553-.877-1.092-1.281-1.663-.324-.458-.595-.957-.89-1.433,1.719,0,3.45.009,5.173-.011.4,0,.53.109.516.511-.029.835-.01,1.671-.011,2.507Z" transform="translate(-156.654 -2.141)"/>
          <path id="Path_17480" data-name="Path 17480" class="cls-22" d="M198.968,10.175c-.3-.315-.586-.635-.888-.943q-1.938-1.977-3.881-3.949c-.03-.032-.027-.1-.04-.143l.86-.153c.837.393,1.669.794,2.512,1.173.779.352,1.576.676,2.354,1.024.274.122.532.287.8.43v.421l-.953,1.272-.116.236h0l-.219.327h0l-.219.325h0Z" transform="translate(-159.697 -0.437)"/>
          <path id="Path_17481" data-name="Path 17481" class="cls-4" d="M183.659,34.265l3.108-4.441c0,.516,0,1.033.016,1.549.016.4.069.8.1,1.2-.033.069-.067.143-.1.2l-.112.116v-.007l-.119.223L184.3,36.314c-.064.086-.129.173-.195.259a.053.053,0,0,1-.01.056l-.1.143-.311.408v-.666Q183.667,35.39,183.659,34.265Z" transform="translate(-157.805 -4.912)"/>
          <path id="Path_17482" data-name="Path 17482" class="cls-22" d="M157.452,46.48c-.787-.355-1.576-.716-2.361-1.067-.98-.444-1.958-.893-2.937-1.338v-.193a2.94,2.94,0,0,0,.095-.5c.011-.619,0-1.238,0-1.863.212.016.506-.052.622.062,1.534,1.5,3.044,3.009,4.549,4.537C157.493,46.187,157.447,46.358,157.452,46.48Z" transform="translate(-152.129 -7.018)"/>
          <path id="Path_17483" data-name="Path 17483" class="cls-4" d="M200.7,9.966l.953-1.272a6.3,6.3,0,0,1,.1.652c.042.716.067,1.424.1,2.136l-1.911,2.683c-.082-.133-.222-.261-.236-.4-.062-.658-.09-1.318-.13-1.977l.583-.947h0l.219-.325h0l.219-.327h0Z" transform="translate(-160.674 -1.105)"/>
          <path id="Path_17484" data-name="Path 17484" class="cls-6" d="M183.231,35.241q.016,1.123.029,2.248v.666h-.01l-.106.122-1.711,2.565c-.024-.287-.056-.573-.07-.86-.03-.649-.052-1.3-.077-1.947Z" transform="translate(-157.378 -5.888)"/>
          <path id="Path_17485" data-name="Path 17485" class="cls-9" d="M197.758,14.454a.322.322,0,0,0,.083,0c.01.648,0,1.289.037,1.944a3.179,3.179,0,0,0,.158.623c-.365.573-.728,1.135-1.1,1.7-.153.232-.328.451-.493.676-.069-.143-.2-.3-.2-.447.032-.573.126-1.146.152-1.729,0-.143-.156-.287-.242-.43Z" transform="translate(-160.057 -2.142)"/>
          <path id="Path_17486" data-name="Path 17486" class="cls-22" d="M170.913,56.057l-.052-3.032h0l.1-.1h0c.106-.178.212-.355.32-.533h0l.212-.212h0l.213-.43h0l.226-.2.11-.212c.036-.034.072-.07.106-.106h.1c.477.787.052,1.6.033,2.456l.411-.209Z" transform="translate(-155.5 -8.768)"/>
          <path id="Path_17487" data-name="Path 17487" class="cls-10" d="M180.934,38.637c.026.649.047,1.3.077,1.947.014.287.046.573.07.86L179.7,43.368l-.38.046a1.525,1.525,0,0,0,.143-.408c0-.742-.02-1.486-.033-2.228Z" transform="translate(-157.025 -6.5)"/>
          <path id="Path_17488" data-name="Path 17488" class="cls-18" d="M195.879,17.3c.086.143.249.287.242.43-.026.573-.12,1.146-.152,1.729,0,.143.128.3.2.447q-.6.847-1.2,1.695a1.555,1.555,0,0,1-.186-.506c0-.527.069-1.053.07-1.576,0-.128-.158-.256-.242-.384Z" transform="translate(-159.779 -2.655)"/>
          <path id="Path_17489" data-name="Path 17489" class="cls-14" d="M176.83,47.61l-1.275,1.847c0-.582,0-1.163-.021-1.744-.013-.322-.072-.643-.109-.966v-.215h0l.109-.219h0l.113-.135.86-1.259h.109c0,.758,0,1.516.021,2.272C176.636,47.339,176.761,47.474,176.83,47.61Z" transform="translate(-156.322 -7.632)"/>
          <path id="Path_17490" data-name="Path 17490" class="cls-6" d="M198.4,16.658a3.181,3.181,0,0,1-.158-.623c-.03-.648-.027-1.3-.037-1.944,0-.054-.01-.109-.014-.163l.11-.163h0l.11-.218h0l.109-.11h0l.109-.107h0c.037-.073.074-.143.11-.219h0l.112-.112h0l.109-.219h0c.037-.036.074-.073.11-.11h0l.109-.218h0l.17-.02c.04.659.069,1.32.13,1.977.014.143.155.266.236.4Z" transform="translate(-160.424 -1.778)"/>
          <path id="Path_17491" data-name="Path 17491" class="cls-24" d="M215.068,31.309v-1.5a1.4,1.4,0,0,0,.092-.347V14.582a.086.086,0,0,1,.053-.013,4.285,4.285,0,0,1,.063.522V38.716a4.585,4.585,0,0,1-.059.52l-.143-.017V34.535Q215.069,32.919,215.068,31.309Z" transform="translate(-163.465 -2.163)"/>
          <path id="Path_17492" data-name="Path 17492" class="cls-25" d="M173,53.084l-.411.209c.019-.86.444-1.669-.033-2.456v-.219l.213-.324.115-.1.1-.112.126-.2.188-.344.215-.321.107-.11h.116c.069.085.2.169.2.255,0,.423-.044.845-.046,1.267,0,.383.036.764.056,1.146Z" transform="translate(-155.805 -8.387)"/>
          <path id="Path_17493" data-name="Path 17493" class="cls-11" d="M194.365,19.536c.085.128.242.256.242.384,0,.527-.069,1.053-.07,1.576a1.588,1.588,0,0,0,.186.506l-1.139,1.629c-.077-.11-.224-.219-.222-.328,0-.56.064-1.12.067-1.681a1.593,1.593,0,0,0-.181-.506Q193.808,20.33,194.365,19.536Z" transform="translate(-159.534 -3.058)"/>
          <path id="Path_17494" data-name="Path 17494" class="cls-11" d="M174.206,51.422c-.02-.381-.056-.762-.056-1.146,0-.421.049-.844.046-1.267,0-.086-.128-.17-.2-.255v-.219h0l.11-.11h0l.11-.218h0l.112-.112h0l.11-.219h0l.11-.11h0l.43-.648h.212c.037.322.1.643.109.966.021.573.016,1.162.021,1.744Z" transform="translate(-156.065 -8.028)"/>
          <path id="Path_17495" data-name="Path 17495" class="cls-18" d="M177.09,47.3c-.069-.136-.193-.271-.2-.41-.023-.756-.017-1.514-.021-2.272l.1-.229.891-1.208c.059.083.169.165.169.246,0,.547-.046,1.095-.039,1.64a2.638,2.638,0,0,0,.158.619Q177.623,46.491,177.09,47.3Z" transform="translate(-156.583 -7.318)"/>
          <path id="Path_17496" data-name="Path 17496" class="cls-19" d="M178.372,45.337a2.638,2.638,0,0,1-.158-.619c-.007-.546.036-1.093.039-1.64,0-.082-.11-.163-.169-.246l1.126-1.576c.013.742.032,1.486.033,2.228a1.524,1.524,0,0,1-.143.408l.38-.046-.877,1.289-.12.092Z" transform="translate(-156.801 -6.971)"/>
          <path id="Path_17497" data-name="Path 17497" class="cls-16" d="M193.017,21.469a1.559,1.559,0,0,1,.181.506c0,.56-.062,1.12-.067,1.681,0,.109.143.218.222.328l-1.1,1.6c-.02-.36-.053-.716-.056-1.077,0-.52.272-1.079-.235-1.52Z" transform="translate(-159.301 -3.406)"/>
          <path id="Path_17498" data-name="Path 17498" class="cls-26" d="M191.832,23.314c.509.441.231,1,.236,1.52,0,.36.036.716.056,1.077l-.731.991a2.6,2.6,0,0,1-.106-.491c-.016-.774-.016-1.547-.021-2.321Z" transform="translate(-159.176 -3.739)"/>
          <path id="Path_17499" data-name="Path 17499" class="cls-27" d="M152.159,14.589c.034.1.069.209.1.314l-.009,4.183V28.1h-.095q-.009-4.771-.014-9.542C152.144,17.232,152.154,15.911,152.159,14.589Z" transform="translate(-152.128 -2.167)"/>
          <path id="Path_17500" data-name="Path 17500" class="cls-28" d="M182.946,17.43c0-.837-.017-1.672.011-2.507.014-.4-.12-.516-.516-.511-1.719.02-3.448.01-5.173.011v-.1l3.009-.047c.827.009,1.655,0,2.481.036.185.009.362.189.543.287-.043.734-.077,1.469-.133,2.2a4.563,4.563,0,0,1-.135.642l-.042.009Z" transform="translate(-156.654 -2.111)"/>
          <path id="Path_17501" data-name="Path 17501" class="cls-26" d="M152.16,31.065h.095V41.509a2.941,2.941,0,0,1-.095.5Q152.159,36.532,152.16,31.065Z" transform="translate(-152.13 -5.135)"/>
          <path id="Path_17502" data-name="Path 17502" class="cls-29" d="M201.768,44.411c.021.036.043.073.066.109a2.984,2.984,0,0,1-.5.09c-.9.01-1.808,0-2.714.009l-.444-.143v-.04Z" transform="translate(-160.421 -7.54)"/>
          <path id="Path_17503" data-name="Path 17503" class="cls-24" d="M187.57,32.527c-.036-.4-.089-.8-.1-1.2-.02-.516-.011-1.033-.016-1.549l.135-.159Z" transform="translate(-158.488 -4.876)"/>
          <path id="Path_17504" data-name="Path 17504" class="cls-29" d="M202.324,11.39c-.032-.716-.057-1.424-.1-2.136a6.3,6.3,0,0,0-.1-.652V8.18c.079.11.226.219.228.331C202.348,9.47,202.324,10.43,202.324,11.39Z" transform="translate(-161.132 -1.012)"/>
          <path id="Path_17505" data-name="Path 17505" class="cls-28" d="M191.238,24.261c0,.774,0,1.547.021,2.321a2.6,2.6,0,0,0,.106.491l-.256.117.021-2.934Z" transform="translate(-159.148 -3.909)"/>
          <path id="Path_17506" data-name="Path 17506" class="cls-24" d="M161.176,9.926l-1.709.809Z" transform="translate(-153.447 -1.327)"/>
          <path id="Path_17507" data-name="Path 17507" class="cls-29" d="M172.786,4.536l-.107-.024,1.073-.537Z" transform="translate(-155.827 -0.254)"/>
          <path id="Path_17508" data-name="Path 17508" class="cls-24" d="M159.378,10.91l-.43.216Z" transform="translate(-153.353 -1.504)"/>
          <path id="Path_17509" data-name="Path 17509" class="cls-29" d="M174.439,3.71l-.453.219Z" transform="translate(-156.063 -0.207)"/>
          <path id="Path_17510" data-name="Path 17510" class="cls-6" d="M184.211,37.993c.066-.086.13-.173.195-.259C184.34,37.819,184.277,37.907,184.211,37.993Z" transform="translate(-157.905 -6.337)"/>
          <path id="Path_17511" data-name="Path 17511" class="cls-12" d="M196.175,27.526l-.2.218Z" transform="translate(-160.025 -4.498)"/>
          <path id="Path_17512" data-name="Path 17512" class="cls-29" d="M172.623,4.631l-.264.107Z" transform="translate(-155.77 -0.373)"/>
          <path id="Path_17513" data-name="Path 17513" class="cls-24" d="M187.2,33.772l.113-.219Z" transform="translate(-158.444 -5.584)"/>
          <path id="Path_17514" data-name="Path 17514" class="cls-24" d="M158.9,11.172l-.215.117Z" transform="translate(-153.306 -1.551)"/>
          <path id="Path_17515" data-name="Path 17515" class="cls-12" d="M196.323,27.342l-.1.143Z" transform="translate(-160.07 -4.465)"/>
          <path id="Path_17516" data-name="Path 17516" class="cls-18" d="M183.256,44.126l-.093.117Z" transform="translate(-157.716 -7.489)"/>
          <path id="Path_17517" data-name="Path 17517" class="cls-24" d="M187.339,33.528l.112-.116Z" transform="translate(-158.469 -5.558)"/>
          <path id="Path_17518" data-name="Path 17518" class="cls-6" d="M184.075,38.266l.1-.143Z" transform="translate(-157.88 -6.407)"/>
          <path id="Path_17519" data-name="Path 17519" class="cls-15" d="M181.94,45.961l-.106.107Z" transform="translate(-157.477 -7.819)"/>
          <path id="Path_17520" data-name="Path 17520" class="cls-18" d="M178.572,46.077l.12-.092Z" transform="translate(-156.889 -7.824)"/>
          <path id="Path_17521" data-name="Path 17521" class="cls-15" d="M181.981,45.849a.5.5,0,0,1,.02.076.27.27,0,0,1-.044.016A.077.077,0,0,1,181.981,45.849Z" transform="translate(-157.498 -7.799)"/>
          <path id="Path_17522" data-name="Path 17522" class="cls-4" d="M183.554,38.911l.106-.122Z" transform="translate(-157.787 -6.527)"/>
          <path id="Path_17523" data-name="Path 17523" class="cls-10" d="M152.279,19.155l.009-4.183a3.17,3.17,0,0,1,.729.381c.59.544,1.146,1.128,1.719,1.7l6.656,6.655c1.231,1.232,2.457,2.47,3.7,3.693.9.884,1.822,1.739,2.722,2.625.842.832,1.658,1.695,2.5,2.524a2.584,2.584,0,0,0,.633.335l-1.782,2.559a5.5,5.5,0,0,0-.476-.633c-.781-.779-1.583-1.539-2.367-2.317-1.133-1.123-2.259-2.256-3.388-3.385l-4.155-4.155q-2.807-2.807-5.606-5.616a2.435,2.435,0,0,1-.3-.513l-.15.152Z" transform="translate(-152.152 -2.236)"/>
          <path id="Path_17524" data-name="Path 17524" class="cls-19" d="M152.279,20l.43-.182.15-.152a2.436,2.436,0,0,0,.3.513q2.8,2.817,5.606,5.616l4.155,4.155c1.129,1.129,2.255,2.262,3.388,3.385.784.778,1.586,1.537,2.367,2.317a5.491,5.491,0,0,1,.476.633l-1.433,2.052a3.005,3.005,0,0,1-.768-.414c-.86-.86-1.685-1.769-2.55-2.63-1.32-1.314-2.672-2.595-4-3.9-1.38-1.361-2.742-2.738-4.112-4.108-1.034-1.033-2.077-2.059-3.1-3.109a.811.811,0,0,0-.913-.314Z" transform="translate(-152.152 -3.082)"/>
          <path id="Path_17525" data-name="Path 17525" class="cls-17" d="M152.283,24.772a.811.811,0,0,1,.913.314c1.019,1.05,2.062,2.076,3.1,3.109,1.37,1.37,2.732,2.746,4.112,4.108,1.324,1.308,2.676,2.589,4,3.9.86.86,1.683,1.769,2.55,2.63a3.054,3.054,0,0,0,.768.414c-.348.55-.7,1.1-1.1,1.748h2.073a3.119,3.119,0,0,0,.36.686c.4.45.86.85,1.265,1.289a2.712,2.712,0,0,1,.314.58l-.01.195h0l-.11.11h0c-.037.073-.074.143-.11.219h0l-.112.112h0c-.036.073-.073.143-.11.218h0l-.11.11h0l-.11.216h-.116a2.149,2.149,0,0,1-.394-.246q-4.808-4.807-9.623-9.606-3.407-3.4-6.775-6.843a.619.619,0,0,0-.756-.158Z" transform="translate(-152.152 -3.993)"/>
          <path id="Path_17526" data-name="Path 17526" class="cls-8" d="M174.231,47.134a2.71,2.71,0,0,0-.314-.58c-.408-.446-.86-.845-1.265-1.289a3.12,3.12,0,0,1-.36-.686l3.64-.01v.3l-.86,1.259-.113.135h0l-.109.219h0l-.219.216h0Z" transform="translate(-155.758 -7.568)"/>
          <path id="Path_17527" data-name="Path 17527" class="cls-6" d="M170.207,15.116c-.487-.116-.534-.185-.381-.55a.506.506,0,0,1,.08.007Z" transform="translate(-155.299 -2.163)"/>
          <path id="Path_17528" data-name="Path 17528" class="cls-27" d="M176.738,44.862v-.3l.216.073-.1.229Z" transform="translate(-156.559 -7.567)"/>
          <path id="Path_17529" data-name="Path 17529" class="cls-28" d="M169.912,14.527a.506.506,0,0,0-.08-.007c-.016-.069-.033-.143-.049-.208l.128.014Z" transform="translate(-155.305 -2.117)"/>
          <path id="Path_17530" data-name="Path 17530" class="cls-4" d="M198.714,43.96c.905,0,1.809,0,2.714-.009a2.984,2.984,0,0,0,.5-.09h2.262l-2.08-3.108a1.526,1.526,0,0,1,.473.176c.4.325.781.669,1.146,1.03,1.109,1.093,2.216,2.189,3.3,3.31a3.9,3.9,0,0,1,.484.85l-4.483,2.149c-.375-.321-.774-.617-1.12-.966-.921-.926-1.821-1.871-2.722-2.812C199.021,44.318,198.872,44.136,198.714,43.96Z" transform="translate(-160.518 -6.881)"/>
          <path id="Path_17531" data-name="Path 17531" class="cls-23" d="M197.792,44.633c.158.176.307.358.47.527.905.941,1.805,1.887,2.722,2.812.347.348.745.645,1.12.966l-3.351,1.6a3.369,3.369,0,0,0-.368-.732c-.317-.377-.688-.706-1.036-1.054-1.05-1.049-2.089-2.109-3.152-3.14-.309-.3-.683-.526-.586-1.04,1.033-.007,2.066-.013,3.1-.026.212,0,.43-.034.635-.053Z" transform="translate(-159.596 -7.555)"/>
          <path id="Path_17532" data-name="Path 17532" class="cls-5" d="M207.372,44.844a3.9,3.9,0,0,0-.484-.85c-1.082-1.12-2.189-2.216-3.3-3.31-.364-.361-.749-.7-1.146-1.03a1.525,1.525,0,0,0-.473-.176q-1.719-2.436-3.43-4.871c-.215-.3-.411-.619-.616-.93a2.542,2.542,0,0,1,.716.358q3.714,3.676,7.4,7.381c.765.765,1.533,1.526,2.292,2.292a2.992,2.992,0,0,1,.319.471Z" transform="translate(-160.376 -5.606)"/>
          <path id="Path_17533" data-name="Path 17533" class="cls-28" d="M183.744,62.685h-.183q0-1.523-.007-3.046l.195.009Z" transform="translate(-157.787 -10.284)"/>
          <path id="Path_17534" data-name="Path 17534" class="cls-20" d="M152.281,35.526v-2.9c.215.056.493.044.636.178.716.675,1.407,1.393,2.113,2.085.808.788,1.636,1.556,2.436,2.354.738.736,1.433,1.516,2.172,2.249,1.433,1.424,2.894,2.828,4.337,4.247.189.185.33.418.517.6q1.93,1.921,3.868,3.831v.216h0l-.213.43h0l-.212.212h0c-.107.178-.213.355-.319.533h0l-.1.1h0l-1.719-.771a1.542,1.542,0,0,0-.192-.524c-.691-.756-1.388-1.507-2.115-2.228-1.242-1.234-2.516-2.436-3.758-3.666-.769-.765-1.491-1.576-2.256-2.345-1.334-1.337-2.665-2.676-4.043-3.966C153.125,35.89,152.916,35.282,152.281,35.526Z" transform="translate(-152.152 -5.417)"/>
          <path id="Path_17535" data-name="Path 17535" class="cls-25" d="M152.281,36.15c.635-.244.844.364,1.146.649,1.378,1.289,2.709,2.629,4.043,3.966.765.768,1.487,1.576,2.257,2.345,1.242,1.234,2.516,2.436,3.758,3.666.726.716,1.424,1.471,2.115,2.228a1.542,1.542,0,0,1,.192.524l-3.967-1.9a2.21,2.21,0,0,0-.318-.573c-1.357-1.378-2.722-2.742-4.1-4.109-1.433-1.433-2.874-2.865-4.3-4.308-.252-.256-.486-.394-.83-.232Z" transform="translate(-152.152 -6.041)"/>
          <path id="Path_17536" data-name="Path 17536" class="cls-16" d="M152.283,38.894c.344-.162.573-.024.83.232,1.423,1.446,2.865,2.874,4.3,4.308,1.367,1.367,2.739,2.731,4.1,4.109a2.635,2.635,0,0,1,.318.573q-1.976-.93-3.949-1.863a3.521,3.521,0,0,1-.4-.259c0-.122.042-.294-.023-.358-1.5-1.523-3.009-3.042-4.549-4.537-.116-.113-.41-.046-.622-.062Q152.281,39.967,152.283,38.894Z" transform="translate(-152.152 -6.533)"/>
          <path id="Path_17537" data-name="Path 17537" class="cls-3" d="M190.6,22.46h-.107c-.736-1.073-1.479-2.149-2.2-3.222-.264-.393-.486-.812-.726-1.219l1.261-1.759,1.281-1.831c.362-.046.725-.11,1.09-.133.444-.027.893-.021,1.338-.03h2.04c.388.009.778,0,1.166.032a2.63,2.63,0,0,1,.48.125l-1.607,2.332-1.268,1.83q-.556.792-1.116,1.585l-1.059,1.513Z" transform="translate(-158.508 -2.108)"/>
          <path id="Path_17538" data-name="Path 17538" class="cls-26" d="M215.158,14.585V29.467a1.4,1.4,0,0,1-.092.347q0-.537,0-1.077V15.091A2.971,2.971,0,0,1,215.158,14.585Z" transform="translate(-163.464 -2.166)"/>
          <path id="Path_17539" data-name="Path 17539" class="cls-30" d="M199.543,12.261l-.17.02.534-.966h.219Z" transform="translate(-160.637 -1.577)"/>
          <path id="Path_17540" data-name="Path 17540" class="cls-30" d="M199.089,12.881l-.109.219Z" transform="translate(-160.566 -1.859)"/>
          <path id="Path_17541" data-name="Path 17541" class="cls-30" d="M198.828,13.282c-.036.073-.073.143-.11.219C198.755,13.425,198.792,13.347,198.828,13.282Z" transform="translate(-160.519 -1.931)"/>
          <path id="Path_17542" data-name="Path 17542" class="cls-30" d="M199.351,12.488l-.109.218Z" transform="translate(-160.613 -1.788)"/>
          <path id="Path_17543" data-name="Path 17543" class="cls-30" d="M198.692,13.537l-.109.107c-.009-.037-.016-.075-.023-.113Z" transform="translate(-160.49 -1.976)"/>
          <path id="Path_17544" data-name="Path 17544" class="cls-30" d="M198.959,13.142l-.112.112Z" transform="translate(-160.542 -1.906)"/>
          <path id="Path_17545" data-name="Path 17545" class="cls-30" d="M199.219,12.757c-.036.037-.073.075-.11.11A1.334,1.334,0,0,1,199.219,12.757Z" transform="translate(-160.589 -1.837)"/>
          <path id="Path_17546" data-name="Path 17546" class="cls-30" d="M198.435,13.806c-.037.072-.073.143-.11.218C198.362,13.949,198.4,13.87,198.435,13.806Z" transform="translate(-160.448 -2.026)"/>
          <path id="Path_17547" data-name="Path 17547" class="cls-30" d="M198.3,14.057l-.11.163Z" transform="translate(-160.424 -2.071)"/>
          <path id="Path_17548" data-name="Path 17548" class="cls-30" d="M198.564,13.666l-.109.11Z" transform="translate(-160.472 -2)"/>
          <path id="Path_17549" data-name="Path 17549" class="cls-30" d="M200.508,10.921l-.219.325Z" transform="translate(-160.802 -1.506)"/>
          <path id="Path_17550" data-name="Path 17550" class="cls-30" d="M200.768,10.527l-.219.327Z" transform="translate(-160.849 -1.435)"/>
          <path id="Path_17551" data-name="Path 17551" class="cls-30" d="M200.925,10.246l-.116.236Z" transform="translate(-160.896 -1.384)"/>
          <path id="Path_17552" data-name="Path 17552" class="cls-30" d="M170.984,53.184c.106-.178.212-.355.319-.533C171.2,52.824,171.09,53,170.984,53.184Z" transform="translate(-155.522 -9.025)"/>
          <path id="Path_17553" data-name="Path 17553" class="cls-30" d="M171.637,52.285l.213-.43Z" transform="translate(-155.639 -8.881)"/>
          <path id="Path_17554" data-name="Path 17554" class="cls-30" d="M171.9,51.806v-.216l.191-.026.039.037Z" transform="translate(-155.686 -8.829)"/>
          <path id="Path_17555" data-name="Path 17555" class="cls-30" d="M171.377,52.594l.212-.212Z" transform="translate(-155.593 -8.976)"/>
          <path id="Path_17556" data-name="Path 17556" class="cls-30" d="M172.277,51.345l-.11.212-.039-.037.12-.2Z" transform="translate(-155.728 -8.785)"/>
          <path id="Path_17557" data-name="Path 17557" class="cls-30" d="M172.53,50.947v.219h-.1l-.039-.034.128-.2Z" transform="translate(-155.775 -8.715)"/>
          <path id="Path_17558" data-name="Path 17558" class="cls-30" d="M172.408,51.214c-.034.036-.07.072-.106.106l-.027-.024.095-.116Z" transform="translate(-155.754 -8.76)"/>
          <path id="Path_17559" data-name="Path 17559" class="cls-30" d="M170.854,53.4l.1-.1Z" transform="translate(-155.498 -9.141)"/>
          <path id="Path_17560" data-name="Path 17560" class="cls-30" d="M175.166,47.1l.219-.216V47.1Z" transform="translate(-156.275 -7.986)"/>
          <path id="Path_17561" data-name="Path 17561" class="cls-30" d="M175.429,46.844l.109-.219Z" transform="translate(-156.323 -7.939)"/>
          <path id="Path_17562" data-name="Path 17562" class="cls-30" d="M175.561,46.6l.113-.135C175.635,46.509,175.6,46.555,175.561,46.6Z" transform="translate(-156.346 -7.91)"/>
          <path id="Path_17563" data-name="Path 17563" class="cls-30" d="M173.417,49.631l-.188.344-.049-.04.234-.305Z" transform="translate(-155.918 -8.48)"/>
          <path id="Path_17564" data-name="Path 17564" class="cls-30" d="M172.771,50.555c-.072.107-.143.215-.213.322l-.011-.01.215-.322Z" transform="translate(-155.803 -8.645)"/>
          <path id="Path_17565" data-name="Path 17565" class="cls-30" d="M173.684,49.244l-.215.321h0c.07-.107.143-.215.213-.322Z" transform="translate(-155.969 -8.411)"/>
          <path id="Path_17566" data-name="Path 17566" class="cls-30" d="M173.206,50.047l-.126.2-.029-.023c.036-.072.072-.143.106-.216Z" transform="translate(-155.894 -8.548)"/>
          <path id="Path_17567" data-name="Path 17567" class="cls-30" d="M173.858,49.059l.11-.216v.219Z" transform="translate(-156.04 -8.339)"/>
          <path id="Path_17568" data-name="Path 17568" class="cls-30" d="M173.717,49.107h.119l-.107.11h0Z" transform="translate(-156.014 -8.386)"/>
          <path id="Path_17569" data-name="Path 17569" class="cls-30" d="M173.058,50.293l-.1.112-.026-.024.1-.11Z" transform="translate(-155.872 -8.596)"/>
          <path id="Path_17570" data-name="Path 17570" class="cls-30" d="M172.933,50.429l-.115.1-.01-.009.1-.115Z" transform="translate(-155.85 -8.62)"/>
          <path id="Path_17571" data-name="Path 17571" class="cls-30" d="M174.655,47.6l.421-.453-.43.648Z" transform="translate(-156.182 -8.033)"/>
          <path id="Path_17572" data-name="Path 17572" class="cls-30" d="M174.383,48.281c.036-.073.073-.143.11-.219C174.456,48.135,174.419,48.2,174.383,48.281Z" transform="translate(-156.134 -8.198)"/>
          <path id="Path_17573" data-name="Path 17573" class="cls-30" d="M174.121,48.673c.037-.073.075-.143.11-.218C174.2,48.528,174.158,48.6,174.121,48.673Z" transform="translate(-156.087 -8.269)"/>
          <path id="Path_17574" data-name="Path 17574" class="cls-30" d="M173.989,48.829l.11-.11Z" transform="translate(-156.063 -8.316)"/>
          <path id="Path_17575" data-name="Path 17575" class="cls-30" d="M174.25,48.437l.112-.112Z" transform="translate(-156.11 -8.245)"/>
          <path id="Path_17576" data-name="Path 17576" class="cls-30" d="M174.512,48.044l.11-.11Z" transform="translate(-156.157 -8.175)"/>
          <path id="Path_17577" data-name="Path 17577" class="cls-15" d="M169.209,46.456l-.1.115-.215.322-.128.2-.095.116c-.042.066-.082.133-.122.2l-.191.026L164.492,43.6c-.188-.186-.328-.42-.517-.6-1.443-1.418-2.9-2.822-4.337-4.247-.739-.734-1.433-1.513-2.172-2.249-.8-.8-1.628-1.566-2.436-2.354-.706-.692-1.39-1.41-2.113-2.085-.143-.133-.421-.122-.636-.178V28.553a.619.619,0,0,1,.756.158q3.373,3.438,6.775,6.843,4.812,4.805,9.646,9.588a2.149,2.149,0,0,0,.394.246l.009.109c-.072.107-.143.215-.213.322l-.231.311c-.034.072-.07.143-.106.216Z" transform="translate(-152.152 -4.671)"/>
        </g>
      </g>
    </g>
    <g id="Mask_Group_92" data-name="Mask Group 92" class="cls-31">
      <g id="Group_727" data-name="Group 727" transform="translate(264 1421)">
        <g id="Group_726" data-name="Group 726">
          <circle id="Ellipse_1807" data-name="Ellipse 1807" class="cls-1" cx="32" cy="32" r="32" transform="translate(-23325 -23674)"/>
          <g id="Mask_Group_16" data-name="Mask Group 16" class="cls-32">
            <g id="Layer_x0020_1" transform="translate(-23311.184 -23671.611)">
              <g id="_1421394342400">
                <g id="Group_714" data-name="Group 714">
                  <path id="Path_128" data-name="Path 128" class="cls-33" d="M19.612,0l-.4,1.35V40.509l.4.4L37.789,30.161Z" transform="translate(-1.434)"/>
                  <path id="Path_129" data-name="Path 129" class="cls-34" d="M18.177,0,0,30.161,18.177,40.9Z"/>
                  <path id="Path_130" data-name="Path 130" class="cls-35" d="M19.626,47.058l-.224.273V61.28l.224.654L37.814,36.319Z" transform="translate(-1.448 -2.711)"/>
                  <path id="Path_131" data-name="Path 131" class="cls-34" d="M18.177,61.934V47.058L0,36.319Z" transform="translate(0 -2.711)"/>
                  <path id="Path_132" data-name="Path 132" class="cls-36" d="M19.644,42.672,37.821,31.927,19.644,23.665Z" transform="translate(-1.466 -1.766)"/>
                  <path id="Path_133" data-name="Path 133" class="cls-37" d="M0,31.927,18.177,42.672V23.665Z" transform="translate(0 -1.766)"/>
                </g>
              </g>
            </g>
          </g>
        </g>
      </g>
    </g>
  </g>
</svg>
