<svg xmlns="http://www.w3.org/2000/svg" xmlns:xlink="http://www.w3.org/1999/xlink" width="114.09" height="64" viewBox="0 0 114.09 64">
  <defs>
    <style>
      .cls-1 {
        fill: none;
      }

      .cls-2 {
        fill: #fff;
      }

      .cls-3 {
        fill: #554a99;
      }

      .cls-4 {
        clip-path: url(#clip-path);
      }

      .cls-5 {
        fill: #b280b7;
      }

      .cls-6 {
        fill: #b985ba;
      }

      .cls-7 {
        fill: #624e9b;
      }

      .cls-8 {
        fill: #67509c;
      }

      .cls-9 {
        fill: #6c539e;
      }

      .cls-10 {
        fill: #7360a6;
      }

      .cls-11 {
        fill: #5d4c9a;
      }

      .cls-12 {
        fill: #a176b1;
      }

      .cls-13 {
        fill: #5a4b99;
      }

      .cls-14 {
        fill: #7f5fa5;
      }

      .cls-15 {
        fill: #70569f;
      }

      .cls-16 {
        fill: #ac7cb5;
      }

      .cls-17 {
        fill: #a87ab4;
      }

      .cls-18 {
        fill: #68519d;
      }

      .cls-19 {
        fill: #765aa2;
      }

      .cls-20 {
        fill: #9a70af;
      }

      .cls-21 {
        fill: #8865a8;
      }

      .cls-22 {
        fill: #9069ab;
      }

      .cls-23 {
        fill: #9970ae;
      }

      .cls-24 {
        fill: #8a66a9;
      }

      .cls-25 {
        fill: #7157a0;
      }

      .cls-26 {
        fill: #8563a7;
      }

      .cls-27 {
        fill: #775ba2;
      }

      .cls-28 {
        fill: #faf8fb;
      }

      .cls-29 {
        fill: #faf6fa;
      }

      .cls-30 {
        fill: #6b539e;
      }

      .cls-31 {
        fill: #7b5da3;
      }

      .cls-32 {
        fill: #8f69aa;
      }

      .cls-33 {
        clip-path: url(#clip-path-2);
      }

      .cls-34 {
        fill: #8247e5;
      }
    </style>
    <clipPath id="clip-path">
      <rect id="Rectangle_8" data-name="Rectangle 8" class="cls-1" width="64.179" height="64"/>
    </clipPath>
    <clipPath id="clip-path-2">
      <circle id="Ellipse_1940" data-name="Ellipse 1940" class="cls-2" cx="32" cy="32" r="32" transform="translate(-22897 -22253)"/>
    </clipPath>
  </defs>
  <g id="Group_805" data-name="Group 805" transform="translate(22947.09 22253)">
    <circle id="Ellipse_1939" data-name="Ellipse 1939" class="cls-3" cx="32" cy="32" r="32" transform="translate(-22947 -22253)"/>
    <g id="Group_804" data-name="Group 804" transform="translate(-22947.09 -22253)">
      <g id="Group_803" data-name="Group 803" class="cls-4">
        <path id="Path_18278" data-name="Path 18278" class="cls-5" d="M262.032,127.844l1.022,3.671v1c-.182.446-.346.9-.549,1.337-3.416,7.32-6.862,14.626-10.236,21.965-.755,1.641-1.262,3.4-1.883,5.1l-4.687,2.968a12.855,12.855,0,0,1,.572-2.726c2.008-4.5,4.126-8.948,6.163-13.434,2.378-5.239,4.672-10.516,7.092-15.736a42.16,42.16,0,0,1,2.508-4.146" transform="translate(-198.875 -103.48)"/>
        <path id="Path_18279" data-name="Path 18279" class="cls-6" d="M270.291,180.764c.621-1.7,1.128-3.458,1.883-5.1,3.374-7.339,6.82-14.645,10.236-21.965.2-.436.367-.891.55-1.337v7.343c-.571,2-1.041,4.034-1.73,5.992a30.535,30.535,0,0,1-10.938,15.067" transform="translate(-218.781 -123.327)"/>
        <path id="Path_18280" data-name="Path 18280" class="cls-7" d="M103.079.749,105.75,0h1.335l1.669.334c-1.615,3.674-3.191,7.367-4.871,11.011-.446.968-.626,1.736.249,2.489a14.19,14.19,0,0,0-7.443,4.331c-1.273-.212-.715-.909-.415-1.547,1.709-3.636,3.468-7.251,5.1-10.922.706-1.588,1.146-3.294,1.706-4.947" transform="translate(-77.617)"/>
        <path id="Path_18281" data-name="Path 18281" class="cls-8" d="M136.5,13.835c-.875-.754-.7-1.521-.249-2.489,1.68-3.644,3.256-7.337,4.871-11.011l3-.334h.668c-1.512,3.468-3.083,6.913-4.5,10.42a14.187,14.187,0,0,0-.508,3.259l-3.286.156" transform="translate(-109.985)"/>
        <path id="Path_18282" data-name="Path 18282" class="cls-9" d="M156.38,13.679a14.2,14.2,0,0,1,.508-3.259c1.416-3.507,2.987-6.952,4.5-10.42h1.335l1.334.693q-1.093,2.673-2.186,5.346-1.572,3.821-3.151,7.638,0,.164,0,.329l-.671-.036-.715-.176-.951-.115" transform="translate(-126.578)"/>
        <path id="Path_18283" data-name="Path 18283" class="cls-10" d="M159.3,0l-3,.334L154.632,0Z" transform="translate(-125.163)"/>
        <path id="Path_18284" data-name="Path 18284" class="cls-11" d="M34.526,3.932c-.561,1.652-1,3.358-1.706,4.947-1.631,3.671-3.389,7.286-5.1,10.922-.3.638-.858,1.336.415,1.547a12.549,12.549,0,0,0-3,8.867,1.67,1.67,0,0,0-2.447,1.3,8.149,8.149,0,0,1-.473,1.06c-2.508,5.541-4.995,11.091-7.556,16.607-.264.568-.975.928-1.478,1.385L11.2,46.235c.435-.446,1.033-.815,1.28-1.348q5.659-12.2,11.232-24.439c2-4.378,3.976-8.767,5.9-13.178a5.343,5.343,0,0,0,.085-1.854l4.832-1.484" transform="translate(-9.063 -3.183)"/>
        <path id="Path_18285" data-name="Path 18285" class="cls-12" d="M216.912,78.822l2.118,4.311c-.488.356-1.166.607-1.427,1.086-.817,1.5-1.488,3.088-2.2,4.65q-6.442,14.2-12.865,28.412c-1.381,3.07-2.651,6.189-3.972,9.286l-3.685.874a8.617,8.617,0,0,1,.366-1.587c1.014-2.327,2.193-4.589,3.082-6.96a40.407,40.407,0,0,0,1.22-5.056.959.959,0,0,1,.035-.317l.274-.459a.235.235,0,0,1,.047-.2c.212-.146.521-.244.621-.445,1.4-2.816,2.833-5.621,4.147-8.479,3.287-7.153,6.484-14.347,9.8-21.485a27.234,27.234,0,0,1,2.433-3.629" transform="translate(-157.745 -63.801)"/>
        <path id="Path_18286" data-name="Path 18286" class="cls-13" d="M23.589,11.72a5.343,5.343,0,0,1-.085,1.854c-1.924,4.411-3.9,8.8-5.9,13.178Q12.021,38.986,6.373,51.191c-.247.533-.845.9-1.28,1.348q-.719-2.9-1.437-5.806c1.634-3.511,3.282-7.015,4.9-10.533q4.508-9.816,8.961-19.658a5.3,5.3,0,0,0,.128-1.771l5.945-3.05" transform="translate(-2.959 -9.486)"/>
        <path id="Path_18287" data-name="Path 18287" class="cls-3" d="M14.685,27.726a5.3,5.3,0,0,1-.128,1.771Q10.122,39.347,5.6,49.155C3.979,52.673,2.331,56.177.7,59.688-.651,54.475.095,49.373,1.754,44.4a30.2,30.2,0,0,1,12.93-16.674" transform="translate(0 -22.442)"/>
        <path id="Path_18288" data-name="Path 18288" class="cls-14" d="M96.569,227.287l-5-2.048c2.7-5.852,5.433-11.689,8.08-17.565a33.726,33.726,0,0,0,1.262-4.047,21.161,21.161,0,0,0,2.676.4,14.043,14.043,0,0,0,2.31-.3c.016.746-.084,1.576,1.079,1.49-3.328,2.041-4.8,4.9-3.88,8.811-.491.479-1.161.87-1.444,1.45-1.377,2.823-2.678,5.684-3.947,8.557-.462,1.045-.763,2.162-1.137,3.246" transform="translate(-74.119 -164.821)"/>
        <path id="Path_18289" data-name="Path 18289" class="cls-7" d="M21.6,161.486c.5-.457,1.215-.817,1.478-1.385,2.561-5.516,5.048-11.066,7.556-16.607a8.133,8.133,0,0,0,.473-1.06,1.67,1.67,0,0,1,2.447-1.3l1.887,5.955c-1.272-.074-1.439.962-1.817,1.8-2.5,5.521-4.99,11.046-7.528,16.549-.2.43-.738.7-1.12,1.047L21.6,161.486" transform="translate(-17.48 -114.098)"/>
        <path id="Path_18290" data-name="Path 18290" class="cls-15" d="M59.949,210.075l-3.513-2.715q3.526-7.49,7.051-14.981,1.2-2.558,2.4-5.12l3.605,2.31c-.325.986-.571,2.007-.988,2.953-1.911,4.336-3.82,8.674-5.838,12.96-.754,1.6-1.8,3.066-2.717,4.593" transform="translate(-45.681 -151.573)"/>
        <path id="Path_18291" data-name="Path 18291" class="cls-16" d="M247.991,115a42.168,42.168,0,0,0-2.508,4.146c-2.419,5.22-4.713,10.5-7.092,15.736-2.037,4.486-4.154,8.936-6.163,13.434a12.856,12.856,0,0,0-.572,2.726l-3.306,1.445a7.02,7.02,0,0,1,.312-1.432q3.828-8.563,7.7-17.106c2.6-5.749,5.153-11.517,7.826-17.231a50.63,50.63,0,0,1,2.856-4.741l.944,3.023" transform="translate(-184.834 -90.64)"/>
        <path id="Path_18292" data-name="Path 18292" class="cls-17" d="M235.607,103.452a50.636,50.636,0,0,0-2.856,4.741c-2.673,5.714-5.23,11.482-7.826,17.231q-3.861,8.549-7.7,17.106a7.021,7.021,0,0,0-.312,1.432l-2.694.916c1.321-3.1,2.591-6.216,3.972-9.286q6.4-14.222,12.865-28.412c.709-1.562,1.379-3.147,2.2-4.65.26-.479.939-.731,1.427-1.086l.928,2.008" transform="translate(-173.394 -82.112)"/>
        <path id="Path_18293" data-name="Path 18293" class="cls-18" d="M52.03,175.781q-1.2,2.56-2.4,5.12-3.524,7.491-7.051,14.981l-3.262-3.406c.381-.345.922-.617,1.12-1.047,2.538-5.5,5.03-11.028,7.528-16.549.378-.836.544-1.871,1.817-1.8l2.249,2.7" transform="translate(-31.824 -140.094)"/>
        <path id="Path_18294" data-name="Path 18294" class="cls-19" d="M74.868,219.888c.914-1.527,1.963-2.991,2.717-4.593,2.018-4.286,3.927-8.624,5.838-12.96.417-.946.663-1.967.988-2.953l1.686.572.632.151.665.086a33.719,33.719,0,0,1-1.262,4.047c-2.647,5.876-5.379,11.714-8.08,17.565l-3.183-1.915" transform="translate(-60.6 -161.385)"/>
        <path id="Path_18295" data-name="Path 18295" class="cls-20" d="M174.034,262.56a40.386,40.386,0,0,1-1.22,5.056c-.889,2.372-2.068,4.634-3.082,6.961a8.628,8.628,0,0,0-.366,1.587l-6.008.359c1.419-3.594,2.24-7.5,5.341-10.215.263.029.584.17.78.069a11.825,11.825,0,0,0,4.556-3.816" transform="translate(-132.226 -212.523)"/>
        <path id="Path_18296" data-name="Path 18296" class="cls-21" d="M117.8,271.492c.374-1.084.675-2.2,1.137-3.246,1.269-2.873,2.57-5.735,3.947-8.557.283-.58.953-.972,1.443-1.449,0,0-.072.11-.072.11l.059.488.217-.162,2,2.975L121.8,272.484l-4-.991" transform="translate(-95.351 -209.026)"/>
        <path id="Path_18297" data-name="Path 18297" class="cls-22" d="M138.79,286.974l4.729-10.832,5.293,1.159c-3.1,2.715-3.922,6.621-5.341,10.215l-4.682-.543" transform="translate(-112.34 -223.517)"/>
        <path id="Path_18298" data-name="Path 18298" class="cls-23" d="M230.811,57.231a27.234,27.234,0,0,0-2.433,3.629c-3.318,7.138-6.514,14.332-9.8,21.485-1.313,2.858-2.744,5.663-4.147,8.479-.1.2-.409.3-.621.445q0-2.171,0-4.343-.039-.313-.078-.625l.039,0-.342-.355.014.017-.447-.67-.215-.306-.353-.707.017.013-.345-.344-.041.047.075-.4a10.509,10.509,0,0,0,1.369-1.809q4.611-9.933,9.132-19.907c1.456-3.22,2.809-6.486,4.209-9.732l3.969,5.083" transform="translate(-171.645 -42.21)"/>
        <path id="Path_18299" data-name="Path 18299" class="cls-22" d="M215.8,42.585c-1.4,3.245-2.753,6.512-4.209,9.732q-4.512,9.978-9.131,19.907a10.513,10.513,0,0,1-1.369,1.809l-.724.017-.31-.223-.671-.44.021.013-.51-.347-.04.073-.081-.022-.36-.741c.894-2.08,1.814-4.151,2.652-6.254.11-.277-.2-.721-.314-1.087l-.342,0,.2-.364.432-.674-.035-.033.4.077c.247-.05.638-.019.719-.163.513-.907.985-1.84,1.42-2.789,2.254-4.922,4.46-9.867,6.751-14.772.949-2.031,2.068-3.982,3.11-5.97l2.387,2.251" transform="translate(-160.603 -32.647)"/>
        <path id="Path_18300" data-name="Path 18300" class="cls-24" d="M226.048,30.651c-1.042,1.987-2.161,3.939-3.11,5.97-2.291,4.9-4.5,9.849-6.751,14.772-.434.948-.907,1.881-1.42,2.789-.081.144-.471.113-.719.163l-.023-1.09q.112-3.439.225-6.878a10.49,10.49,0,0,0,1.454-1.744c.845-1.609,1.586-3.275,2.33-4.935,1.688-3.769,3.352-7.549,5.025-11.325l2.988,2.28" transform="translate(-173.238 -22.964)"/>
        <path id="Path_18301" data-name="Path 18301" class="cls-14" d="M204.945,13.657l3.145,1.41a13.094,13.094,0,0,1-.557,2.06c-1.381,3.075-2.808,6.13-4.233,9.185-.855,1.833-1.738,3.653-2.608,5.478l-2.277-3.374a4.848,4.848,0,0,1,.463-1.536c.666-.909,1.472-1.716,2.221-2.565,1.189-1.791,1.125-2.359-.431-3.875a14.636,14.636,0,0,0,1.764-2.036c.914-1.538,1.685-3.161,2.515-4.748" transform="translate(-160.602 -11.054)"/>
        <path id="Path_18302" data-name="Path 18302" class="cls-25" d="M168.653,16.622q1.576-3.819,3.151-7.638,1.1-2.671,2.186-5.346l3.669.68c-.85,1.909-1.751,3.8-2.518,5.741a6.44,6.44,0,0,0-.119,1.991c-1.492.753-2.189,1.849-1.519,3.532-1.8.136-1.734,1.525-1.864,2.782l-2.664-1.446-.322-.3" transform="translate(-136.512 -2.945)"/>
        <path id="Path_18303" data-name="Path 18303" class="cls-26" d="M210.363,37.781c.87-1.826,1.753-3.645,2.609-5.478,1.426-3.055,2.853-6.11,4.233-9.185a13.093,13.093,0,0,0,.557-2.061l2.333,1.394c-1.674,3.776-3.338,7.555-5.025,11.325-.744,1.661-1.485,3.326-2.33,4.935a10.505,10.505,0,0,1-1.454,1.744q-.088-.361-.177-.722l-.442-1.606.032,0-.326-.37Z" transform="translate(-170.274 -17.044)"/>
        <path id="Path_18304" data-name="Path 18304" class="cls-27" d="M202,14.94a6.439,6.439,0,0,1,.119-1.991c.766-1.942,1.668-3.831,2.518-5.741l3.2,1.229c-.83,1.587-1.6,3.21-2.515,4.748a14.641,14.641,0,0,1-1.764,2.036L202,14.94" transform="translate(-163.494 -5.834)"/>
        <path id="Path_18305" data-name="Path 18305" class="cls-28" d="M108.96,80.787q.089.361.177.722-.113,3.439-.225,6.879l-.381,1.013.035.033-.432.674-.2.364a.355.355,0,0,0-.075.281h.02l-.5.716-.776,1.124-.41.491.023,0-.34.344.006-.01-.34.343.005-.011-.34.338.009-.014-.7.378-.3.218L99.9,97.009a13.961,13.961,0,0,1-2.31.3,21.154,21.154,0,0,1-2.676-.4l-.665-.085-.632-.151L91.936,96.1,88.33,93.785l-2.249-2.7L84.2,85.13a12.549,12.549,0,0,1,3-8.867,14.191,14.191,0,0,1,7.443-4.331l3.286-.156.951.115.715.176.671.036.164.006.159-.039,2.664,1.446,2.686,1.944,2.277,3.374.01-.022.326.37-.031,0q.222.8.441,1.606m-9.2,9.725c4.374-2.464,5.271-7.456,1.881-10.506L100.5,78.789c-1.19-1.333-2.775-.886-4.248-.942a8.509,8.509,0,0,1-.955.23c-5.642.71-6.677,7.689-3.78,10.549l3.4,2.216,3.746.116a.293.293,0,0,0,.234-.1l.858-.35" transform="translate(-68.125 -58.098)"/>
        <path id="Path_18306" data-name="Path 18306" class="cls-8" d="M162.087,72.558l-.715-.176.715.176" transform="translate(-130.619 -58.588)"/>
        <path id="Path_18307" data-name="Path 18307" class="cls-8" d="M168.965,72.065l-.159.039-.164-.006q0-.164,0-.329l.322.3" transform="translate(-136.502 -58.092)"/>
        <path id="Path_18308" data-name="Path 18308" class="cls-29" d="M161.385,212.78l.31.223.649.382.041-.047.345.344-.017-.013.353.706.216.306.446.67-.014-.017.342.355-.038,0q.039.313.078.626,0,2.171,0,4.343a.237.237,0,0,0-.047.2l-.274.459a.954.954,0,0,0-.035.317,11.824,11.824,0,0,1-4.556,3.816c-.2.1-.517-.04-.78-.069l-5.293-1.159-2-2.976-.276-.326s.071-.109.072-.11c-.92-3.913.554-6.771,3.882-8.812l5.314.055.081.022.041-.073.51.346-.021-.013.671.44m-.416,5.644a3.344,3.344,0,0,0-3.611-3.1c-1.486.092-3.131,1.531-3.06,2.677.167,2.737,1.278,4.046,3.353,3.954a3.59,3.59,0,0,0,3.318-3.536" transform="translate(-121.932 -171.6)"/>
        <path id="Path_18309" data-name="Path 18309" class="cls-23" d="M219.564,258.948l.274-.458-.274.458" transform="translate(-177.721 -209.229)"/>
        <path id="Path_18310" data-name="Path 18310" class="cls-21" d="M173.15,195.769l-5.314-.055c-1.164.086-1.064-.744-1.079-1.49l4.315-2.345a11.558,11.558,0,0,1,.039,1.46c-.119,1.262.4,1.842,1.679,1.69l.36.741" transform="translate(-134.978 -155.311)"/>
        <path id="Path_18311" data-name="Path 18311" class="cls-15" d="M133.791,202.386l.632.151-.632-.151" transform="translate(-108.294 -163.817)"/>
        <path id="Path_18312" data-name="Path 18312" class="cls-14" d="M151.674,258.817l.276.326-.216.162-.059-.488" transform="translate(-122.769 -209.494)"/>
        <path id="Path_18313" data-name="Path 18313" class="cls-21" d="M209.3,217.563l-.648-.382.723-.017-.075.4" transform="translate(-168.889 -175.779)"/>
        <path id="Path_18314" data-name="Path 18314" class="cls-21" d="M214.344,221.454l-.353-.707.353.707" transform="translate(-173.21 -178.679)"/>
        <path id="Path_18315" data-name="Path 18315" class="cls-22" d="M217.422,226.732l-.446-.67.446.67" transform="translate(-175.626 -182.981)"/>
        <path id="Path_18316" data-name="Path 18316" class="cls-22" d="M220.919,231.99q-.038-.313-.077-.626.038.313.077.626" transform="translate(-178.755 -187.272)"/>
        <path id="Path_18317" data-name="Path 18317" class="cls-21" d="M212.616,219.353l-.345-.344.345.344" transform="translate(-171.818 -177.272)"/>
        <path id="Path_18318" data-name="Path 18318" class="cls-22" d="M219.588,229.847l-.342-.355.342.355" transform="translate(-177.464 -185.757)"/>
        <path id="Path_18319" data-name="Path 18319" class="cls-24" d="M191.117,177.226c-1.28.153-1.8-.427-1.679-1.69a11.524,11.524,0,0,0-.039-1.46l.3-.218.7-.378-.009.014.34-.338,0,.012.34-.344-.006.01.34-.344-.023,0,.41-.492.775-1.123.5-.716h-.02l.416-.279c.115.366.425.81.314,1.087-.838,2.1-1.758,4.173-2.652,6.254" transform="translate(-153.305 -137.51)"/>
        <path id="Path_18320" data-name="Path 18320" class="cls-21" d="M212.027,159.951l.381-1.013q.011.545.023,1.09l-.4-.077" transform="translate(-171.62 -128.649)"/>
        <path id="Path_18321" data-name="Path 18321" class="cls-21" d="M204.175,214.216l-.671-.44.671.44" transform="translate(-164.722 -173.036)"/>
        <path id="Path_18322" data-name="Path 18322" class="cls-21" d="M209.941,165.1l.432-.674-.432.674" transform="translate(-169.932 -133.092)"/>
        <path id="Path_18323" data-name="Path 18323" class="cls-21" d="M208.9,169.876l-.416.279a.352.352,0,0,1,.074-.281l.342,0" transform="translate(-168.746 -137.501)"/>
        <path id="Path_18324" data-name="Path 18324" class="cls-21" d="M201.449,212.371l-.51-.346.51.346" transform="translate(-162.646 -171.619)"/>
        <path id="Path_18325" data-name="Path 18325" class="cls-29" d="M194.537,47.778l1.555.282c1.556,1.515,1.619,2.084.431,3.875a2.52,2.52,0,0,1-3.505-.625c-.669-1.683.027-2.779,1.519-3.532" transform="translate(-156.027 -38.673)"/>
        <path id="Path_18326" data-name="Path 18326" class="cls-27" d="M186.182,66.31a2.52,2.52,0,0,0,3.5.625c-.749.848-1.554,1.655-2.22,2.565A4.846,4.846,0,0,0,187,71.036l-2.686-1.944c.13-1.256.063-2.646,1.864-2.782" transform="translate(-149.192 -53.673)"/>
        <path id="Path_18327" data-name="Path 18327" class="cls-14" d="M212.4,112.232q-.22-.8-.441-1.606.22.8.441,1.606" transform="translate(-171.568 -89.544)"/>
        <path id="Path_18328" data-name="Path 18328" class="cls-14" d="M210.742,109.066l-.326-.37.326.37" transform="translate(-170.316 -87.981)"/>
        <path id="Path_18329" data-name="Path 18329" class="cls-15" d="M126.177,116.5l-3.4-2.216c1.248-2.344,2.579-4.649,3.707-7.049a21.823,21.823,0,0,0,1.027-3.73c1.473.056,3.058-.391,4.248.942-.21.159-.518.272-.616.483-1.214,2.613-2.424,5.229-3.577,7.869-.527,1.205-.928,2.466-1.386,3.7" transform="translate(-99.376 -83.758)"/>
        <path id="Path_18330" data-name="Path 18330" class="cls-30" d="M120.846,103.629a21.819,21.819,0,0,1-1.027,3.73c-1.128,2.4-2.46,4.7-3.708,7.049-2.9-2.86-1.862-9.839,3.78-10.549a8.5,8.5,0,0,0,.954-.23" transform="translate(-92.714 -83.88)"/>
        <path id="Path_18331" data-name="Path 18331" class="cls-19" d="M140.633,120.626c.458-1.235.859-2.5,1.386-3.7,1.154-2.64,2.363-5.256,3.577-7.869.1-.211.406-.324.616-.483l1.139,1.218a32.911,32.911,0,0,1-.995,3.617c-.691,1.749-1.555,3.429-2.335,5.144-.365.8-.486,1.579.358,2.19l-3.746-.116" transform="translate(-113.832 -87.882)"/>
        <path id="Path_18332" data-name="Path 18332" class="cls-31" d="M157.584,125.913c-.844-.611-.724-1.388-.358-2.19.78-1.714,1.644-3.394,2.335-5.144a32.892,32.892,0,0,0,.995-3.617c3.391,3.049,2.493,8.041-1.881,10.505l-.857.35a.293.293,0,0,1-.234.1" transform="translate(-127.037 -93.053)"/>
        <path id="Path_18333" data-name="Path 18333" class="cls-21" d="M206.477,171.344l-.5.716.5-.716" transform="translate(-166.723 -138.69)"/>
        <path id="Path_18334" data-name="Path 18334" class="cls-21" d="M191.678,188.752l-.7.378.7-.378" transform="translate(-154.587 -152.781)"/>
        <path id="Path_18335" data-name="Path 18335" class="cls-21" d="M200.168,181q-.2.246-.41.492l.41-.492" transform="translate(-161.69 -146.503)"/>
        <path id="Path_18336" data-name="Path 18336" class="cls-19" d="M161.518,170.438l.857-.35-.857.35" transform="translate(-130.737 -137.674)"/>
        <path id="Path_18337" data-name="Path 18337" class="cls-21" d="M196.684,185.31l-.339.344.339-.344" transform="translate(-158.927 -149.995)"/>
        <path id="Path_18338" data-name="Path 18338" class="cls-21" d="M194.926,187.053l-.34.338.34-.338" transform="translate(-157.503 -151.406)"/>
        <path id="Path_18339" data-name="Path 18339" class="cls-21" d="M198.436,183.559l-.34.344.34-.344" transform="translate(-160.344 -148.578)"/>
        <path id="Path_18340" data-name="Path 18340" class="cls-32" d="M176.5,232.525a3.59,3.59,0,0,1-3.318,3.536c-2.075.092-3.186-1.218-3.353-3.954-.07-1.146,1.575-2.585,3.06-2.677a3.344,3.344,0,0,1,3.611,3.1" transform="translate(-137.46 -185.702)"/>
      </g>
    </g>
    <g id="Mask_Group_93" data-name="Mask Group 93" class="cls-33">
      <g id="matic-token-inverted-icon" transform="translate(-22897 -22253)">
        <circle id="Ellipse_1991" data-name="Ellipse 1991" class="cls-2" cx="32" cy="32" r="32"/>
        <path id="Path_17811" data-name="Path 17811" class="cls-34" d="M42.592,25.153a2.708,2.708,0,0,0-2.61,0L34,28.577l-4.068,2.233-5.987,3.423a2.708,2.708,0,0,1-2.61,0l-4.759-2.679a2.554,2.554,0,0,1-1.3-2.158V24.112a2.4,2.4,0,0,1,1.3-2.158l4.682-2.6a2.708,2.708,0,0,1,2.61,0l4.682,2.6a2.554,2.554,0,0,1,1.3,2.158v3.423l4.068-2.307V21.8a2.4,2.4,0,0,0-1.3-2.158l-8.673-4.912a2.708,2.708,0,0,0-2.61,0L12.5,19.646A2.4,2.4,0,0,0,11.2,21.8v9.9a2.4,2.4,0,0,0,1.3,2.158l8.827,4.912a2.708,2.708,0,0,0,2.61,0l5.987-3.349L34,33.116l5.987-3.349a2.708,2.708,0,0,1,2.61,0l4.682,2.6a2.554,2.554,0,0,1,1.3,2.158v5.284a2.4,2.4,0,0,1-1.3,2.158l-4.682,2.679a2.708,2.708,0,0,1-2.61,0l-4.682-2.6A2.554,2.554,0,0,1,34,39.888V36.465l-4.068,2.307V42.2a2.4,2.4,0,0,0,1.3,2.158l8.827,4.912a2.708,2.708,0,0,0,2.61,0L51.5,44.354A2.554,2.554,0,0,0,52.8,42.2V32.3a2.4,2.4,0,0,0-1.3-2.158Z"/>
      </g>
    </g>
  </g>
</svg>
