<svg xmlns="http://www.w3.org/2000/svg" xmlns:xlink="http://www.w3.org/1999/xlink" width="114" height="64" viewBox="0 0 114 64">
  <defs>
    <clipPath id="clip-path">
      <circle id="Ellipse_103" data-name="Ellipse 103" cx="32" cy="32" r="32" transform="translate(-24240 -9969)" fill="#fff"/>
    </clipPath>
    <clipPath id="clip-path-2">
      <ellipse id="Ellipse_156" data-name="Ellipse 156" cx="26.5" cy="25.5" rx="26.5" ry="25.5" transform="translate(-24483 -11213.874)" fill="#fff"/>
    </clipPath>
  </defs>
  <g id="Group_3470" data-name="Group 3470" transform="translate(24240 9969)">
    <g id="Mask_Group_46" data-name="Mask Group 46" clip-path="url(#clip-path)">
      <g id="svgexport-7" transform="translate(-24240 -9968.53)">
        <path id="Path_5044" data-name="Path 5044" d="M37.937,23.1c-.362-.063-.532-.363-.745-.612" fill="#ecd894"/>
        <ellipse id="Ellipse_157" data-name="Ellipse 157" cx="32" cy="31.53" rx="32" ry="31.53" transform="translate(0 0)" fill="#b19e65"/>
        <ellipse id="Ellipse_158" data-name="Ellipse 158" cx="30.667" cy="30.432" rx="30.667" ry="30.432" transform="translate(1.177 1.137)" fill="#ceb882"/>
        <ellipse id="Ellipse_159" data-name="Ellipse 159" cx="29.493" cy="29.06" rx="29.493" ry="29.06" transform="translate(2.423 2.505)" fill="#231f20"/>
        <ellipse id="Ellipse_160" data-name="Ellipse 160" cx="32" cy="31.525" rx="32" ry="31.525" transform="translate(0 0.008)" fill="none"/>
        <path id="Path_5045" data-name="Path 5045" d="M36.72,24.2a2.333,2.333,0,0,0,.333.085c.85.27,1.727.44,2.577.7.738.225,1.5.347,2.23.59s1.458.367,2.178.583a4.049,4.049,0,0,0,.513.167.048.048,0,0,1,.025.083c-.228.2-.467.322-.667.5a10.849,10.849,0,0,1-1,.727c-.465.318-.922.647-1.353,1-.2.167-.63-.167-.728-.213-.647-.333-1.287-.637-1.927-.96-.578-.292-1.167-.563-1.732-.89a.26.26,0,0,1-.125-.18c-.132-.71-.318-1.408-.423-2.122Zm-9.938-.075a2.358,2.358,0,0,1-.333.085c-.848.27-1.727.44-2.577.7-.738.225-1.5.347-2.23.59s-1.458.367-2.178.583a4.05,4.05,0,0,1-.513.167.048.048,0,0,0-.025.083c.228.2.468.322.667.5a11.168,11.168,0,0,0,1,.727c.465.317.922.647,1.355,1,.2.167.628-.167.728-.213.645-.333,1.285-.637,1.925-.96.578-.292,1.167-.563,1.732-.89a.27.27,0,0,0,.127-.182c.132-.708.317-1.407.423-2.122ZM19.448,42.765q-.557-1.955-1.118-3.917-.365-1.275-.735-2.547a.455.455,0,0,1,.058-.4c.7-1.1,1.4-2.2,2.092-3.3.413-.65.833-1.3,1.247-1.947.333-.513.653-1.027.982-1.542q.9,1.725,1.793,3.448.918,1.775,1.833,3.55c.5.98,1,1.96,1.522,2.933.1.19.077.27-.125.345-.715.263-5.508,2.413-5.95,2.655a9.2,9.2,0,0,1-1.6.725Zm24.6.08,1.118-3.913c.243-.848.492-1.7.735-2.547a.442.442,0,0,0-.058-.4c-.7-1.1-1.393-2.2-2.092-3.3-.412-.652-.833-1.3-1.247-1.948q-.49-.767-.98-1.542-.9,1.727-1.795,3.45-.918,1.773-1.833,3.55c-.5.978-1,1.958-1.522,2.933-.1.188-.077.27.127.345.713.262,5.508,2.412,5.948,2.653a8.5,8.5,0,0,0,1.6.722ZM27.392,39.152c-.457-.885-.9-1.742-1.345-2.6l-2.333-4.538q-.69-1.333-1.392-2.667c-.187-.353-.193-.352.167-.5.577-.24,1.137-.517,1.7-.783.442-.21.908-.368,1.333-.607.3-.167.608-.28.908-.428a.217.217,0,0,1,.322.07c.527.715,1.052,1.43,1.595,2.132.322.415.635.833.95,1.253q1.1,1.472,2.222,2.935c.06.077.078.127.01.217q-.682.9-1.35,1.81c-.643.87-1.272,1.752-1.928,2.612a10.37,10.37,0,0,1-.857,1.1Zm8.7,0,1.343-2.6,2.333-4.538q.69-1.333,1.392-2.667c.187-.353.193-.352-.167-.5-.575-.24-1.135-.517-1.7-.783-.442-.21-.908-.368-1.333-.607-.3-.167-.608-.28-.908-.428a.217.217,0,0,0-.322.07c-.527.715-1.052,1.43-1.595,2.132-.322.415-.635.833-.95,1.253q-1.105,1.472-2.222,2.935c-.058.077-.078.127-.01.217q.683.9,1.352,1.81c.642.87,1.27,1.752,1.927,2.612a10.176,10.176,0,0,0,.858,1.1ZM44.3,42.843c0-.272,1.12-3.707,1.578-5.183.1-.333.2-.667.3-1,.03-.1.065-.147.193-.1.657.268,1.29.588,1.942.867.268.113.532.247.8.358.6.248,1.167.558,1.783.79.167.065.333.188.512.252a.137.137,0,0,1,.1.155c-.027,1.032-.053,2.063-.072,3.095,0,.155-.057.2-.208.21-1.923.14-6.928.552-6.928.552Zm-25.178-.09c0-.272-1.12-3.705-1.578-5.182-.1-.333-.2-.667-.3-1-.032-.1-.067-.147-.193-.1-.657.268-1.29.588-1.943.867-.267.113-.53.247-.8.358-.6.248-1.167.558-1.782.79-.167.065-.333.188-.512.252a.137.137,0,0,0-.1.155c.027,1.032.053,2.063.072,3.095,0,.155.057.2.208.21,1.923.135,6.928.55,6.928.55Zm27.038-6.737c-.468-.747-.925-1.478-1.387-2.207-.292-.458-.59-.91-.882-1.368-.7-1.1-1.392-2.2-2.1-3.3-.085-.133-.07-.185.053-.28.593-.448,1.158-.932,1.742-1.392.375-.3.757-.588,1.11-.912.113-.1.167-.088.225.06q.623,1.585,1.263,3.167c.282.7.572,1.4.855,2.1q.5,1.228.992,2.453c.028.068.068.133-.018.2-.617.487-1.228.977-1.858,1.48ZM21.8,28.975c-.07.125-.127.238-.193.343q-1.042,1.625-2.088,3.25-.755,1.175-1.5,2.355c-.2.313-.4.628-.588.948-.072.122-.13.12-.233.038-.523-.413-1.047-.833-1.578-1.227-.138-.107-.043-.208-.013-.292.182-.5.383-1,.57-1.5q.923-2.46,1.843-4.937c.167-.443.343-.885.5-1.333.065-.183.135-.167.263-.062.62.5,1.232,1.02,1.868,1.5.333.257.65.543,1,.785.053.042.1.087.15.13Zm-10.125,13.2c-.717-.393-1.423-.76-2.108-1.167s-1.375-.78-2.062-1.167L5.4,38.642c-.29-.167-.588-.323-.875-.5A1.373,1.373,0,0,1,4.91,37.8,16.026,16.026,0,0,0,6.3,36.765a.305.305,0,0,1,.4,0c.4.228.853.313,1.263.5.568.267,1.177.428,1.742.688.4.183.812.323,1.223.472a4.425,4.425,0,0,0,.667.3c.08.015.088.067.088.132Zm47.132-4.033c-.538.3-1.077.58-1.6.888-.74.435-1.49.85-2.237,1.272-.63.355-1.263.7-1.878,1.078a12.492,12.492,0,0,0-1.365.793.123.123,0,0,1-.052.015V40.518c0-.477.03-.953.038-1.432a.253.253,0,0,1,.192-.273c.6-.235,1.192-.478,1.777-.738.478-.212.988-.352,1.447-.6.52-.28,1.108-.388,1.61-.7a.235.235,0,0,1,.355.055.323.323,0,0,0,.087.085q.607.438,1.217.872a1.317,1.317,0,0,1,.41.352ZM31.6,33.227V28.573c0-.2-.07-.26-.25-.322-.793-.272-1.622-.418-2.413-.683-.6-.2-1.222-.333-1.887-.535,1.522,2.1,3.058,4.142,4.543,6.193Zm.172.058V28.632c0-.2.07-.26.248-.322.793-.27,1.622-.417,2.413-.683.6-.2,1.222-.333,1.887-.535-1.522,2.1-3.058,4.142-4.543,6.193Zm-20.657,3.4a1.7,1.7,0,0,0,.08.21c.263.532.53,1.06.793,1.59.033.068.2,0,.242-.022.677-.307,1.36-.6,2.03-.923.917-.44,1.833-.89,2.765-1.288.147-.063.188-.127.02-.227a9.768,9.768,0,0,1-1.3-.918.713.713,0,0,0-.877-.167,5.724,5.724,0,0,1-.545.293c-.553.247-1.567.667-2.062.875-.347.145-.693.3-1.035.46-.04.032-.13.02-.11.117Zm41.285.025a2.146,2.146,0,0,1-.078.21c-.263.532-.53,1.06-.793,1.59-.033.068-.205,0-.243-.023-.677-.307-1.358-.6-2.028-.922-.918-.44-1.833-.89-2.765-1.29-.148-.062-.19-.125-.02-.225a9.735,9.735,0,0,0,1.3-.92.714.714,0,0,1,.875-.167c.055.03.342.2.545.293.553.247,1.568.667,2.063.875.345.145.693.3,1.033.46.048.03.13.022.11.118Zm-.458,1.745c.207-.612.392-1.157.572-1.7a.257.257,0,0,1,.2-.167c.833-.242,1.618-.6,2.44-.862.333-.108.667-.252,1.01-.377.125-.047.2-.027.247.108.085.222.187.437.285.652.052.11.058.187-.087.23a3.766,3.766,0,0,0-.377.157c-.618.25-1.213.553-1.817.833-.442.207-.907.368-1.333.6-.35.2-.73.337-1.14.525Zm-40.317.058c-.207-.612-.392-1.157-.572-1.7a.257.257,0,0,0-.2-.167c-.833-.242-1.618-.6-2.44-.86-.333-.11-.667-.253-1.01-.378-.127-.045-.2-.027-.248.108-.083.222-.185.437-.285.652-.05.112-.057.187.087.23a3.972,3.972,0,0,1,.378.157c.617.25,1.213.553,1.817.833.442.207.907.368,1.333.607.35.195.723.332,1.14.523ZM36.187,24.2c.117.778.22,1.51.333,2.238.027.167-.043.18-.167.208-1.037.257-2.083.462-3.125.692-.333.075-.678.18-1.107.257Zm-8.925-.078c-.117.778-.22,1.51-.333,2.238-.027.167.043.18.167.208,1.037.257,2.083.462,3.125.692.343.075.68.18,1.107.257ZM57,35.548c-.167-.087-.292-.167-.428-.23-.09-.043-.092-.1-.068-.188.2-.71.39-1.422.585-2.133.02-.07.025-.152.145-.113.085.025.1.058.092.142-.1.8-.215,1.662-.325,2.523Zm-50.373.087c.167-.088.292-.167.427-.23.09-.045.093-.107.07-.19-.2-.71-.39-1.422-.585-2.132-.02-.072-.025-.153-.147-.115-.083.027-.1.058-.09.143C6.407,33.908,6.52,34.765,6.628,35.635Zm51.143-2.377,1.265-2.122-.083,6.732-1.69-1.515.37-2.5M5.7,33.258,4.44,31.137l.083,6.732,1.692-1.515-.37-2.5m53-2.7-.888,1.158L56,30.283Zm-54.253-.13.888,1.16,1.957-2.03-2.845.87Z" fill="#b19e65"/>
      </g>
    </g>
    <circle id="Ellipse_104" data-name="Ellipse 104" cx="32" cy="32" r="32" transform="translate(-24190 -9969)" fill="#fff"/>
    <g id="Mask_Group_45" data-name="Mask Group 45" transform="translate(299 1251.874)" clip-path="url(#clip-path-2)">
      <g id="polygon-matic-logo" transform="translate(-24476.975 -11206.542)">
        <path id="Path_5043" data-name="Path 5043" d="M30.434,10.808a2.646,2.646,0,0,0-2.519,0l-5.877,3.5-3.988,2.23-5.772,3.5a2.646,2.646,0,0,1-2.519,0L5.247,17.286a2.594,2.594,0,0,1-1.259-2.23V9.746a2.626,2.626,0,0,1,1.259-2.23L9.76,4.861a2.646,2.646,0,0,1,2.519,0l4.513,2.761a2.594,2.594,0,0,1,1.259,2.23v3.5l3.988-2.336V7.409a2.626,2.626,0,0,0-1.259-2.23L12.383.188a2.646,2.646,0,0,0-2.519,0l-8.605,5.1A2.34,2.34,0,0,0,0,7.409v9.982a2.626,2.626,0,0,0,1.259,2.23l8.5,4.991a2.646,2.646,0,0,0,2.519,0l5.772-3.4,3.988-2.336,5.772-3.4a2.646,2.646,0,0,1,2.519,0l4.513,2.655a2.594,2.594,0,0,1,1.259,2.23v5.31a2.626,2.626,0,0,1-1.259,2.23L30.434,30.56a2.646,2.646,0,0,1-2.519,0L23.4,27.905a2.594,2.594,0,0,1-1.259-2.23v-3.4l-3.988,2.336v3.5a2.626,2.626,0,0,0,1.259,2.23l8.5,4.991a2.646,2.646,0,0,0,2.519,0l8.5-4.991a2.594,2.594,0,0,0,1.259-2.23V18.029a2.626,2.626,0,0,0-1.259-2.23Z" transform="translate(0 0.131)" fill="#8247e5"/>
      </g>
    </g>
  </g>
</svg>
