<svg xmlns="http://www.w3.org/2000/svg" xmlns:xlink="http://www.w3.org/1999/xlink" width="114" height="64" viewBox="0 0 114 64">
  <defs>
    <clipPath id="clip-path">
      <circle id="Ellipse_103" data-name="Ellipse 103" cx="32" cy="32" r="32" transform="translate(-24240 -11019)" fill="#fff"/>
    </clipPath>
    <clipPath id="clip-path-2">
      <ellipse id="Ellipse_111" data-name="Ellipse 111" cx="26.5" cy="25.5" rx="26.5" ry="25.5" transform="translate(-24483 -11213.874)" fill="#fff"/>
    </clipPath>
  </defs>
  <g id="Group_3362" data-name="Group 3362" transform="translate(24240 11019)">
    <g id="Mask_Group_22" data-name="Mask Group 22" clip-path="url(#clip-path)">
      <g id="JDI" transform="translate(-24239.996 -11018.999)">
        <path id="Path_4003" data-name="Path 4003" d="M50.664,5.982a36.415,36.415,0,0,1,4.9,4.362,41.714,41.714,0,0,1,2.8,3.525,30.159,30.159,0,0,1,2.947,5.3,29.248,29.248,0,0,1,2.535,9.895,31.556,31.556,0,0,1-2.258,15.2,27.2,27.2,0,0,1-2.825,5.328,31,31,0,0,1-2.841,3.692,39.4,39.4,0,0,1-2.814,2.8,34.071,34.071,0,0,1-5.7,3.98,31.6,31.6,0,0,1-8.556,3.2A32.111,32.111,0,0,1,19.028,61.25a32.975,32.975,0,0,1-5.721-3.278c-1.019-.722-1.941-1.555-2.892-2.357A32.36,32.36,0,0,1,7.61,52.7,31.088,31.088,0,0,1,4.7,48.689,30.1,30.1,0,0,1,1.9,42.84,30.253,30.253,0,0,1,0,31.293a29.517,29.517,0,0,1,1.6-9.4,29.671,29.671,0,0,1,2.8-6.147,31,31,0,0,1,2.825-4.034A32.258,32.258,0,0,1,10.044,8.7c.919-.8,1.808-1.643,2.8-2.355a34.1,34.1,0,0,1,5.738-3.41A31.971,31.971,0,0,1,33.229.023a30.686,30.686,0,0,1,8.017,1.342,13.917,13.917,0,0,1,1.8.617l-.085,1.552c-.676-.219-1.347-.444-2.025-.654a26.391,26.391,0,0,0-6.282-1.2,4.813,4.813,0,0,0-1.282-.132c-1-.011-1.989-.011-2.987.043a31.314,31.314,0,0,0-3.806.425,30.375,30.375,0,0,0-13.69,6.243,27.053,27.053,0,0,0-3.6,3.44,28.081,28.081,0,0,0-3.241,4.327,38.057,38.057,0,0,0-2.322,4.533,38.089,38.089,0,0,0-2.075,8.213A15.829,15.829,0,0,0,1.5,31.1a28.168,28.168,0,0,0,.341,5.082,36.114,36.114,0,0,0,1.39,5.856A23.915,23.915,0,0,0,5.31,46.673c.084.151.126.338.293.432a13.309,13.309,0,0,0,1.491,2.453,2.827,2.827,0,0,0,.51.649A25.25,25.25,0,0,0,10.442,53.5a31.725,31.725,0,0,0,2.787,2.473c.951.7,1.884,1.411,2.9,2.021a31.973,31.973,0,0,0,5.783,2.739,31.2,31.2,0,0,0,8.938,1.712,28.474,28.474,0,0,0,5.1-.238,30.591,30.591,0,0,0,6.087-1.44,32.843,32.843,0,0,0,5.637-2.62,9.653,9.653,0,0,0,1.651-1.109l.16-.11c.021-.016.043-.032.064-.05.05-.036.1-.071.151-.1l.151-.117c.117-.1.3-.094.375-.263l0,0a.549.549,0,0,0,.137-.053c.976-.732,1.87-1.566,2.78-2.38a30.917,30.917,0,0,0,2.775-3.049,27.787,27.787,0,0,0,2.91-4.4,29.738,29.738,0,0,0,2.867-7.536,28.264,28.264,0,0,0,.747-8.629,27.552,27.552,0,0,0-1.1-6.569A29.646,29.646,0,0,0,58.4,16.8a29.341,29.341,0,0,0-2.823-4.085,30.4,30.4,0,0,0-2.846-3.031c-.688-.588-1.326-1.237-2.066-1.765l-.084-.169c0-.372-.016-.743,0-1.113C50.6,6.421,50.493,6.183,50.664,5.982Z" fill="#0e615d"/>
        <path id="Path_4004" data-name="Path 4004" d="M42.958,3.534l.085-1.552a26.029,26.029,0,0,1,5.321,2.535c-.011.542-.02,1.084-.03,1.628-.048,0-.1.005-.144.007-1.1-.629-2.2-1.255-3.34-1.788a10.16,10.16,0,0,0-1.66-.668l-.151-.016A.164.164,0,0,0,42.958,3.534Z" fill="#2d8483"/>
        <path id="Path_4005" data-name="Path 4005" d="M48.334,6.147c.011-.542.02-1.084.03-1.628a4.5,4.5,0,0,1,.836.5c.494.315.978.644,1.465.967-.171.2-.068.439-.076.66-.018.37,0,.741,0,1.113a20.769,20.769,0,0,1-2.2-1.47C48.353,6.263,48.35,6.193,48.334,6.147Z" fill="#70cecc"/>
        <path id="Path_4006" data-name="Path 4006" d="M49.85,56.653l-.151.117c-.071,0-.133.02-.151.1-.021.016-.043.032-.064.05-.076,0-.142.02-.16.11a9.652,9.652,0,0,1-1.651,1.109,32.516,32.516,0,0,1-5.637,2.62,30.5,30.5,0,0,1-6.087,1.44,28.791,28.791,0,0,1-5.1.238,31.252,31.252,0,0,1-8.938-1.712,32.087,32.087,0,0,1-5.783-2.739c-1.012-.61-1.943-1.324-2.9-2.021A32.246,32.246,0,0,1,10.442,53.5,25.386,25.386,0,0,1,7.6,50.209a2.827,2.827,0,0,1-.51-.649.424.424,0,0,1,.2-.313c.98-.752,1.74-1.751,2.693-2.53.528-.43.972-.948,1.479-1.4a10.343,10.343,0,0,0,1.408-1.475,2.706,2.706,0,0,1,.361.379,18.939,18.939,0,0,0,2.926,3.71,28.414,28.414,0,0,0,2.871,2.5,23.065,23.065,0,0,0,5.731,3,22.114,22.114,0,0,0,6.387,1.248,22.436,22.436,0,0,0,6.259-.59A22.662,22.662,0,0,0,47.384,48.8a24.141,24.141,0,0,0,2.86-3.175,20.742,20.742,0,0,0,2.867-5.178A21.851,21.851,0,0,0,54.488,29.78a20.146,20.146,0,0,0-1.708-6.416,21.263,21.263,0,0,0-2.953-4.946,15.357,15.357,0,0,0-1.1-1.294,12.241,12.241,0,0,0-1.452-1.49c-.825-.7-1.685-1.349-2.53-2.019a1.621,1.621,0,0,1,.215-.26c.855-.7,1.555-1.559,2.4-2.27.869-.732,1.634-1.595,2.444-2.4.116-.114.215-.254.4-.236.6.551,1.207,1.1,1.8,1.657a33.264,33.264,0,0,1,3.93,4.586,32.483,32.483,0,0,1,2.848,5.015,25.643,25.643,0,0,1,1.616,4.6,30.082,30.082,0,0,1,.875,4.794c.087.827.172,1.655.236,2.485a22.809,22.809,0,0,1-.208,3.6,27.125,27.125,0,0,1-.59,3.954,27.472,27.472,0,0,1-2.259,6.535c-.658,1.262-1.291,2.535-2.067,3.722a33.582,33.582,0,0,1-2.5,3.271,35.2,35.2,0,0,1-2.983,3c-.238.22-.585.356-.681.724l0,0C50.035,56.381,49.846,56.374,49.85,56.653ZM32.784,61.618a8.173,8.173,0,0,0,1.648-.085A4.559,4.559,0,0,0,37.41,59.81a2.682,2.682,0,0,0-.5-3.738,3.767,3.767,0,0,0-1.792-.6c-1.6-.2-3.211.025-4.81-.169-.114-.014-.235.007-.276.142a.486.486,0,0,0,.018.373c.055.107.169.091.263.112.729.162.741.178.743.923q.005,1.688.011,3.376c0,.617,0,.617-.608.635-.217.007-.443,0-.448.322s.222.324.436.348A19.219,19.219,0,0,0,32.784,61.618ZM26.87,56.641c-.023.416-.009.812-.048,1.209s-.018.793-.03,1.189q-.051,1.563-1.411.866c-.078-.039-.151-.089-.228-.133-.242-.144-.292-.267-.023-.466a.684.684,0,0,0,.052-1.138,1.366,1.366,0,0,0-.946-.4.6.6,0,0,0-.658.622,1.615,1.615,0,0,0,.379,1.173,3.308,3.308,0,0,0,2.732,1.255A1.51,1.51,0,0,0,28.3,59.1c-.028-.855.032-1.714.052-2.571.018-.837-.1-.768.741-.747.2.005.348-.027.368-.265a.31.31,0,0,0-.29-.37,26.473,26.473,0,0,1-2.988-.67c-.133-.041-.293-.046-.34.137s-.071.363.139.464c.091.043.185.076.276.117.6.268.613.284.606.971C26.868,56.33,26.87,56.495,26.87,56.641Zm12.216-1.419c.277-.092.359.089.377.452.052,1.072.117,2.144.226,3.211.1,1,.148.987-.836,1.307-.252.082-.272.238-.228.432.052.224.226.242.414.188.228-.064.459-.123.681-.2.8-.281,1.6-.571,2.4-.855a.361.361,0,0,0,.224-.494c-.071-.27-.254-.167-.423-.116-.119.036-.24.062-.363.087-.26.05-.409,0-.43-.332-.068-1.031-.148-2.064-.261-3.09-.082-.732-.11-1.4.8-1.571a.084.084,0,0,0,.034-.016.371.371,0,0,0,.133-.5c-.082-.217-.245-.171-.405-.1s-.3.126-.45.187a16.837,16.837,0,0,1-2.412.8.339.339,0,0,0-.306.434c.039.229.181.277.389.222A2.619,2.619,0,0,1,39.086,55.222Z" fill="#449c9b"/>
        <path id="Path_4007" data-name="Path 4007" d="M3.232,42.039a36.158,36.158,0,0,1-1.39-5.856A28.179,28.179,0,0,1,1.5,31.1a15.812,15.812,0,0,1,.156-2.323,38.062,38.062,0,0,1,2.075-8.213,38.056,38.056,0,0,1,2.322-4.533A28.053,28.053,0,0,1,9.294,11.7a26.713,26.713,0,0,1,3.593-3.442,30.245,30.245,0,0,1,5.722-3.635,30.607,30.607,0,0,1,7.966-2.6A31,31,0,0,1,30.381,1.6c1-.055,1.991-.055,2.987-.043a4.813,4.813,0,0,1,1.282.132c.028.025.053.066.085.069.892.132,1.785.272,2.667.475a36.373,36.373,0,0,1,5.146,1.637c.142.057.208.133.112.283h0a14.158,14.158,0,0,0-1.794,1.692,3.21,3.21,0,0,0-.6.612A5.307,5.307,0,0,0,39.07,7.612a.868.868,0,0,0-.3.306.217.217,0,0,0-.226.153,5.182,5.182,0,0,0-.752.764.333.333,0,0,0-.3.306,7.417,7.417,0,0,0-1.042,1l-.071.064c-.2-.027-.395-.044-.59-.08a21.118,21.118,0,0,0-5.834-.2,21.958,21.958,0,0,0-5.687,1.331,23.335,23.335,0,0,0-5.815,3.246A26.781,26.781,0,0,0,15.6,17.14a20.917,20.917,0,0,0-2.651,3.543,23.8,23.8,0,0,0-2.782,7.095,16.789,16.789,0,0,0-.425,3.328,21.425,21.425,0,0,0,.03,2.681c.05.647.162,1.289.171,1.939a.277.277,0,0,0-.224.119c-1.459,1.586-3.155,2.914-4.615,4.5a1.926,1.926,0,0,1-.336.3,6.619,6.619,0,0,0-1.241,1.2A.441.441,0,0,1,3.232,42.039Z" fill="#2d8483"/>
        <path id="Path_4008" data-name="Path 4008" d="M3.232,42.039a.446.446,0,0,0,.3-.19,6.619,6.619,0,0,1,1.241-1.2,1.992,1.992,0,0,0,.336-.3c1.459-1.586,3.155-2.915,4.615-4.5a.282.282,0,0,1,.224-.119c.126.6.288,1.2.45,1.794a19.376,19.376,0,0,0,.894,2.83c.112.329.222.656.334.985-.7.644-1.411,1.273-2.092,1.936-.747.727-1.49,1.452-2.251,2.163a12.512,12.512,0,0,0-1.675,1.673c-.167-.094-.21-.281-.293-.432A23.878,23.878,0,0,1,3.232,42.039Z" fill="#59b4b3"/>
        <path id="Path_4009" data-name="Path 4009" d="M50.223,56.394c.1-.368.443-.5.681-.724a34.435,34.435,0,0,0,2.983-3,33.583,33.583,0,0,0,2.5-3.271c.775-1.187,1.41-2.46,2.067-3.722a27.472,27.472,0,0,0,2.259-6.535,27.125,27.125,0,0,0,.59-3.954,22.588,22.588,0,0,0,.208-3.6c-.062-.828-.149-1.659-.236-2.485a30.118,30.118,0,0,0-.875-4.794,25.546,25.546,0,0,0-1.616-4.6,32.484,32.484,0,0,0-2.848-5.015A33.16,33.16,0,0,0,52.01,10.1c-.594-.558-1.2-1.1-1.8-1.657.092-.229.35-.309.459-.526.738.526,1.378,1.177,2.066,1.765a30.2,30.2,0,0,1,2.846,3.031A29.341,29.341,0,0,1,58.4,16.8a29.785,29.785,0,0,1,2.935,6.972,27.552,27.552,0,0,1,1.1,6.569,28.264,28.264,0,0,1-.747,8.629,29.672,29.672,0,0,1-2.867,7.536,27.787,27.787,0,0,1-2.91,4.4,30.918,30.918,0,0,1-2.775,3.049c-.908.814-1.8,1.648-2.78,2.38A.459.459,0,0,1,50.223,56.394Z" fill="#57bab9"/>
        <path id="Path_4010" data-name="Path 4010" d="M50.669,7.923c-.108.215-.366.3-.459.526-.188-.018-.288.121-.4.236-.811.805-1.575,1.669-2.444,2.4-.846.713-1.547,1.575-2.4,2.27a1.6,1.6,0,0,0-.213.26l-2.537-1.468c.14-.27.423-.388.619-.6,1.081-1.186,2.355-2.163,3.427-3.358.041-.046.1-.075.146-.119A15.639,15.639,0,0,0,47.75,6.755c.217-.146.556-.2.439-.6l.144-.009c.018.046.02.116.053.137a21.046,21.046,0,0,0,2.2,1.47C50.614,7.809,50.641,7.866,50.669,7.923Z" fill="#318f8d"/>
        <path id="Path_4011" data-name="Path 4011" d="M5.605,47.107A12.408,12.408,0,0,1,7.28,45.434c.761-.711,1.5-1.438,2.251-2.163.681-.663,1.394-1.292,2.092-1.936l1.253,2.508a10.347,10.347,0,0,1-1.408,1.475c-.508.452-.953.969-1.479,1.4C9.036,47.5,8.275,48.5,7.3,49.247a.421.421,0,0,0-.2.313A13.437,13.437,0,0,1,5.605,47.107Z" fill="#318f8d"/>
        <path id="Path_4012" data-name="Path 4012" d="M42.657,4.149c.1-.149.032-.228-.112-.283A36.373,36.373,0,0,0,37.4,2.229c-.882-.2-1.772-.343-2.667-.475-.03-.005-.057-.046-.085-.069a26.391,26.391,0,0,1,6.282,1.2c.677.21,1.349.436,2.025.654a.158.158,0,0,1,.078.148C42.816,3.758,43,4.172,42.657,4.149Z" fill="#449c9b"/>
        <path id="Path_4013" data-name="Path 4013" d="M49.85,56.653c0-.281.185-.274.375-.263C50.154,56.559,49.967,56.555,49.85,56.653Z" fill="#57bab9"/>
        <path id="Path_4014" data-name="Path 4014" d="M49.548,56.877c.016-.085.08-.1.151-.1C49.649,56.806,49.6,56.842,49.548,56.877Z" fill="#57bab9"/>
        <path id="Path_4015" data-name="Path 4015" d="M49.324,57.037c.018-.091.084-.108.16-.11Z" fill="#57bab9"/>
        <path id="Path_4016" data-name="Path 4016" d="M42.657,4.149c.336.023.158-.391.377-.468l.151.016c-.233.3-.117.439.2.56a11.2,11.2,0,0,1,1.321.6c.871.478,1.73.98,2.585,1.488.172.1.389.176.462.407A15.64,15.64,0,0,1,46.4,8.067c-.043.044-.1.073-.146.119-1.072,1.195-2.347,2.172-3.427,3.358-.2.215-.478.331-.619.6-.818-.338-1.632-.684-2.457-1.008a29.231,29.231,0,0,0-3.3-.932v-.062a7.417,7.417,0,0,1,1.042-1,.307.307,0,0,0,.3-.306,5.013,5.013,0,0,1,.752-.764c.108,0,.217,0,.226-.153a.84.84,0,0,1,.3-.306,2.74,2.74,0,0,0,1.195-1.157,3.21,3.21,0,0,1,.6-.612c.343.018.475-.308.683-.484a4.182,4.182,0,0,0,1.111-1.211Z" fill="#59b4b3"/>
        <path id="Path_4017" data-name="Path 4017" d="M47.749,6.757c-.073-.233-.29-.306-.462-.407-.855-.508-1.714-1.01-2.585-1.488a11.328,11.328,0,0,0-1.321-.6c-.313-.121-.427-.265-.2-.56a10.16,10.16,0,0,1,1.66.668c1.143.533,2.243,1.157,3.34,1.788C48.307,6.558,47.966,6.609,47.749,6.757Z" fill="#70cecc"/>
        <path id="Path_4018" data-name="Path 4018" d="M12.876,43.843l-1.253-2.508c-.11-.329-.222-.656-.334-.985.1-.133.043-.267,0-.4a21.576,21.576,0,0,1-.77-2.91,17.646,17.646,0,0,1-.487-3.379A20.393,20.393,0,0,1,10.3,29.4c.249-1.166.439-2.345.8-3.481a18.928,18.928,0,0,1,2.229-4.9,22.192,22.192,0,0,1,2.864-3.74,28.219,28.219,0,0,1,3.049-2.684,23.052,23.052,0,0,1,4.631-2.608,21.82,21.82,0,0,1,4.345-1.312,19.281,19.281,0,0,1,2.983-.364,26.1,26.1,0,0,1,3.872.124,24.474,24.474,0,0,1,4.133.9c.788.235,1.538.576,2.3.882a18.476,18.476,0,0,1,3.5,1.945,19.512,19.512,0,0,1,3.454,2.9c.062.069.132.226.263.069a15.358,15.358,0,0,1,1.1,1.294,21.324,21.324,0,0,1,2.953,4.946,20.146,20.146,0,0,1,1.708,6.416,21.853,21.853,0,0,1-1.376,10.668,20.685,20.685,0,0,1-2.867,5.178A24.141,24.141,0,0,1,47.39,48.8a22.672,22.672,0,0,1-9.976,5.289,22.376,22.376,0,0,1-6.259.59,21.985,21.985,0,0,1-6.387-1.248,23.1,23.1,0,0,1-5.731-3,28.638,28.638,0,0,1-2.871-2.5,18.939,18.939,0,0,1-2.926-3.71A2.737,2.737,0,0,0,12.876,43.843ZM52,24.591a.534.534,0,0,1-.059-.1,19.481,19.481,0,0,0-2.917-5.139A12.791,12.791,0,0,0,47.98,18.1l-.114-.124-.119-.146A18.924,18.924,0,0,0,43.715,14.5,8.7,8.7,0,0,0,41.2,13.13a.851.851,0,0,0-.409-.252,16.785,16.785,0,0,0-2.873-1.033,12.168,12.168,0,0,0-2.8-.533,1.169,1.169,0,0,0-.244-.085,24.59,24.59,0,0,0-4.094-.1,21.288,21.288,0,0,0-12.122,4.8,22.093,22.093,0,0,0-2.919,2.947A21.355,21.355,0,0,0,12.8,23.609a17.829,17.829,0,0,0-1.283,3.909,23.75,23.75,0,0,0-.507,3.779,12.793,12.793,0,0,0,.007,1.918,5.26,5.26,0,0,0,.128,1.28,18.577,18.577,0,0,0,1.42,5.843,16.015,16.015,0,0,0,1.347,2.608,4.522,4.522,0,0,0,.441.791,18.146,18.146,0,0,0,2.181,2.83.5.5,0,0,0,.176.439c.549.519,1.029,1.109,1.619,1.587a23.823,23.823,0,0,0,3.5,2.5,24.331,24.331,0,0,0,4.418,1.923,22.194,22.194,0,0,0,5.338.9,20.286,20.286,0,0,0,4.926-.382,21.577,21.577,0,0,0,8.049-3.378,19.9,19.9,0,0,0,2.955-2.5A20.9,20.9,0,0,0,50.933,43.2a25.374,25.374,0,0,0,2.135-5.207,19.663,19.663,0,0,0,.661-4.4,21.6,21.6,0,0,0-.228-4.229,19.188,19.188,0,0,0-1.139-4.14c-.041-.112-.05-.268-.231-.242l-.043-.149C52.127,24.719,52.22,24.591,52,24.591Z" fill="#064c49"/>
        <path id="Path_4019" data-name="Path 4019" d="M48.728,17.124c-.132.158-.2,0-.263-.069a19.449,19.449,0,0,0-3.454-2.9,18.53,18.53,0,0,0-3.5-1.945c-.763-.306-1.513-.647-2.3-.882a24.4,24.4,0,0,0-4.133-.9,26.362,26.362,0,0,0-3.872-.124,19.471,19.471,0,0,0-2.983.363,21.785,21.785,0,0,0-4.345,1.312,23.052,23.052,0,0,0-4.631,2.608,28.429,28.429,0,0,0-3.049,2.686,22.1,22.1,0,0,0-2.864,3.74,18.9,18.9,0,0,0-2.229,4.9c-.363,1.136-.553,2.315-.8,3.481a20.258,20.258,0,0,0-.268,4.258,17.646,17.646,0,0,0,.487,3.379,22.117,22.117,0,0,0,.77,2.91c.044.132.1.265,0,.4a19.6,19.6,0,0,1-.894-2.83c-.164-.6-.324-1.189-.45-1.794-.009-.651-.121-1.292-.171-1.939a21.092,21.092,0,0,1-.03-2.681,16.9,16.9,0,0,1,.425-3.328,23.8,23.8,0,0,1,2.782-7.095A21.108,21.108,0,0,1,15.6,17.139a27.144,27.144,0,0,1,2.851-2.631,23.223,23.223,0,0,1,5.815-3.246A21.941,21.941,0,0,1,29.954,9.93a21.186,21.186,0,0,1,5.834.2c.2.036.393.053.59.08l.036.005.036-.007a29.231,29.231,0,0,1,3.3.932c.823.324,1.637.672,2.457,1.008l2.537,1.468c.844.672,1.7,1.324,2.53,2.019A12.359,12.359,0,0,1,48.728,17.124Z" fill="#053f3d"/>
        <path id="Path_4020" data-name="Path 4020" d="M32.784,61.618a18.492,18.492,0,0,1-2.338-.085c-.213-.025-.441-.032-.436-.348s.231-.316.448-.322c.61-.018.61-.018.608-.635l-.011-3.376c0-.743-.014-.759-.743-.923-.1-.021-.208-.007-.263-.112a.486.486,0,0,1-.018-.373c.041-.135.162-.156.276-.142,1.6.194,3.212-.036,4.81.169a3.767,3.767,0,0,1,1.792.6,2.68,2.68,0,0,1,.5,3.738,4.555,4.555,0,0,1-2.978,1.723A8.194,8.194,0,0,1,32.784,61.618Zm3.593-3.168a2.086,2.086,0,0,0-1.516-2.185,4.862,4.862,0,0,0-2.208-.2c-.217.014-.181.169-.18.3.014,1.353,0,2.707.064,4.06a.461.461,0,0,0,.412.5,3.179,3.179,0,0,0,1.333-.014A2.379,2.379,0,0,0,36.377,58.45Zm-4.046.032c-.036-.617.02-1.367-.053-2.123-.037-.379-.176-.484-.478-.5-.174-.012-.348-.005-.523,0-.073,0-.158-.012-.192.078-.039.107.028.169.107.217.135.082.254.178.24.356-.034.411.071.812.075,1.219.007.96,0,1.92,0,2.878a.907.907,0,0,1-.142.581c-.142.19-.069.276.146.277.348,0,.7,0,1.047,0a.237.237,0,0,0,.167-.048c.062-.08-.023-.137-.071-.19a1.387,1.387,0,0,1-.324-.949C32.325,59.718,32.331,59.167,32.331,58.482Zm3.763,2.233A2.788,2.788,0,0,0,37.623,57.3,2.921,2.921,0,0,0,34.8,56.034c.907.405,1.73.891,1.936,1.963A3.237,3.237,0,0,1,36.094,60.715Z" fill="#023834"/>
        <path id="Path_4021" data-name="Path 4021" d="M26.87,56.641c0-.146,0-.313,0-.478.007-.686,0-.7-.606-.971-.091-.041-.185-.075-.276-.117-.212-.1-.183-.29-.139-.464s.2-.178.34-.137a26.09,26.09,0,0,0,2.988.67.31.31,0,0,1,.29.37c-.02.238-.167.27-.368.265-.846-.021-.724-.091-.741.747-.018.857-.08,1.715-.052,2.571A1.509,1.509,0,0,1,26.69,60.82a3.308,3.308,0,0,1-2.732-1.255,1.615,1.615,0,0,1-.379-1.173.6.6,0,0,1,.658-.622,1.368,1.368,0,0,1,.946.4.684.684,0,0,1-.052,1.138c-.267.2-.219.324.023.466.075.044.149.092.228.133q1.36.7,1.411-.866c.012-.4-.009-.8.03-1.189S26.847,57.057,26.87,56.641Zm-.217,4c1.113-.1,1.486-.5,1.486-1.584,0-.768-.034-1.538.014-2.3.025-.416-.078-.9.364-1.244-.491-.1-.935-.2-1.378-.3-.087-.02-.176-.064-.229.041-.064.126.039.2.117.245a.868.868,0,0,1,.37.816,18.571,18.571,0,0,0-.16,2.153,2.119,2.119,0,0,1,0,.5,5.256,5.256,0,0,1-.172,1.088C26.989,60.288,26.736,60.393,26.653,60.639ZM24.017,58.82a1.412,1.412,0,0,0,.443.972c.059.06.117.146.22.084a.155.155,0,0,0,.073-.2c-.1-.213.052-.316.178-.4.183-.126.411-.283.332-.492a.816.816,0,0,0-.631-.469C24.18,58.232,24.02,58.374,24.017,58.82Z" fill="#023834"/>
        <path id="Path_4022" data-name="Path 4022" d="M39.086,55.222a3,3,0,0,0-.437.041c-.208.055-.348.005-.389-.222a.339.339,0,0,1,.306-.434,16.764,16.764,0,0,0,2.412-.8c.151-.059.3-.123.45-.187s.324-.114.405.1a.369.369,0,0,1-.133.5.146.146,0,0,1-.034.016c-.916.176-.885.839-.8,1.571.116,1.028.194,2.059.261,3.09.021.329.171.382.43.332a3.166,3.166,0,0,0,.363-.087c.167-.052.35-.155.423.116a.361.361,0,0,1-.224.494c-.8.284-1.6.574-2.4.855-.224.078-.453.137-.681.2-.187.053-.363.036-.414-.188-.044-.194-.025-.35.228-.432.983-.322.937-.3.836-1.307-.107-1.067-.174-2.139-.226-3.211C39.445,55.311,39.362,55.13,39.086,55.222Zm.242-.238c.313.229.546.441.555.773.039,1.3.228,2.585.238,3.882,0,.215-.142.528.03.617.142.075.414-.1.622-.172.174-.064.4-.1.5-.233.119-.156-.149-.24-.208-.393a5.9,5.9,0,0,1-.188-1.543c-.062-.54-.119-1.086-.137-1.63a6.84,6.84,0,0,1-.069-1.559c.041-.2-.052-.188-.18-.146C40.126,54.708,39.763,54.833,39.328,54.984Z" fill="#023834"/>
        <path id="Path_4023" data-name="Path 4023" d="M42.657,4.149a4.183,4.183,0,0,1-1.113,1.209c-.208.176-.338.5-.683.484A14.293,14.293,0,0,1,42.657,4.149Z" fill="#449c9b"/>
        <path id="Path_4024" data-name="Path 4024" d="M40.263,6.455a2.741,2.741,0,0,1-1.195,1.157A5.307,5.307,0,0,1,40.263,6.455Z" fill="#449c9b"/>
        <path id="Path_4025" data-name="Path 4025" d="M37.792,8.835a.307.307,0,0,1-.3.306A.334.334,0,0,1,37.792,8.835Z" fill="#449c9b"/>
        <path id="Path_4026" data-name="Path 4026" d="M38.77,7.918c-.009.153-.117.153-.226.153A.215.215,0,0,1,38.77,7.918Z" fill="#449c9b"/>
        <path id="Path_4027" data-name="Path 4027" d="M36.45,10.207l-.036.007-.036-.005.071-.064Z" fill="#449c9b"/>
        <path id="Path_4028" data-name="Path 4028" d="M47.864,17.974l.114.124a.44.44,0,0,0,.112.348,26.08,26.08,0,0,1,2.1,3.376,18.425,18.425,0,0,1,1.57,4.076,23.982,23.982,0,0,1,.859,6.828c-.005.331-.055.663-.062.988a17.657,17.657,0,0,1-.5,3.657,20.1,20.1,0,0,1-2.076,5.607c-.514.884-1,1.781-1.577,2.624-.2.286-.487.517-.5.912l-.112.121c-.076.016-.228-.03-.123.146a8.855,8.855,0,0,1-1.1,1.035c-.036.036-.112.027-.171.039a6.081,6.081,0,0,0-.679-1,23.39,23.39,0,0,0-2.8-3.168c-.782-.754-1.612-1.443-2.455-2.117-.21-.169-.261-.3-.073-.526a1.63,1.63,0,0,0,.35-.539,1.076,1.076,0,0,1,.581-.233,32.044,32.044,0,0,0,3.484-.836c2.055-.558,4.089-1.2,6.138-1.781.375-.107.439-.308.375-.644a4.389,4.389,0,0,0-.677-1.65,12.821,12.821,0,0,0-2.652-2.779c-.274-.22-.222-.338-.053-.565a7.1,7.1,0,0,0,1.116-2.2,1.623,1.623,0,0,0-.13-1.4.111.111,0,0,0-.128-.08l.005,0a.409.409,0,0,0-.409-.274,3.039,3.039,0,0,0-1.771.283c-.267-.039-.121-.2-.069-.3.3-.574.54-1.177.786-1.771a11.894,11.894,0,0,0,.844-4.791,1.237,1.237,0,0,0-.34-.98,1.044,1.044,0,0,0-1.339-.151,7.415,7.415,0,0,0-3.223,2.969c-.14.245-.231.242-.448.117a13.181,13.181,0,0,0-1.207-.6A28.6,28.6,0,0,0,36.821,21.2c.082-.1.156-.2.245-.286.59-.6,1.195-1.186,1.826-1.746.846-.748,1.618-1.587,2.423-2.386a2.361,2.361,0,0,1,.229-.194c.8-.613,1.433-1.406,2.167-2.089a18.924,18.924,0,0,1,4.032,3.326C47.638,18,47.786,17.958,47.864,17.974Z" fill="#449c9b"/>
        <path id="Path_4029" data-name="Path 4029" d="M11.144,34.494a5.074,5.074,0,0,1-.128-1.28,12.793,12.793,0,0,1-.007-1.918,23.956,23.956,0,0,1,.507-3.779A17.829,17.829,0,0,1,12.8,23.608a21.515,21.515,0,0,1,2.931-4.738,20.957,20.957,0,0,1,9.256-6.545,22.073,22.073,0,0,1,5.785-1.2,24.4,24.4,0,0,1,4.094.1.97.97,0,0,1,.244.085.447.447,0,0,1-.185.279c-1.125,1.083-2.258,2.158-3.378,3.248-1.625,1.582-3.23,3.186-4.9,4.72-.686.631-1.289,1.355-1.991,1.97-.151.132-.409.178-.411.457l0-.009a.153.153,0,0,0-.155.082c-.962.411-1.915.841-2.839,1.337-.212-.05-.267-.254-.366-.405A7.227,7.227,0,0,0,18.95,20.97a4.329,4.329,0,0,0-1.308-.7.958.958,0,0,0-1.331.852,9.815,9.815,0,0,0,.3,3.545l.053.155c.007.05.016.1.023.151.036.146.06.3.107.439a20.366,20.366,0,0,0,1.184,2.985,4.221,4.221,0,0,0-1.73-.348c-.407.03-.784.137-.91.58a1.727,1.727,0,0,0,.073,1.363c0,.108.005.219.009.327a.543.543,0,0,1-.2.268c-.866.839-1.712,1.7-2.608,2.5C12.1,33.54,11.678,34.075,11.144,34.494Z" fill="#2d8483"/>
        <path id="Path_4030" data-name="Path 4030" d="M24.248,21.985c0-.277.26-.325.411-.457.7-.617,1.3-1.339,1.991-1.97,1.669-1.534,3.274-3.138,4.9-4.72,1.118-1.09,2.252-2.165,3.378-3.248a.461.461,0,0,0,.185-.279,12.248,12.248,0,0,1,2.8.535,16.785,16.785,0,0,1,2.873,1.033.868.868,0,0,1,.407.252c-1.012.743-1.758,1.785-2.752,2.555-.572.443-1.031,1.031-1.568,1.525-1.127,1.038-2.222,2.114-3.328,3.175-.08.078-.174.151-.167.284-.2,0-.4.016-.6.009a22.4,22.4,0,0,0-6.965.836A11.314,11.314,0,0,1,24.248,21.985Z" fill="#59b4b3"/>
        <path id="Path_4031" data-name="Path 4031" d="M16.534,46.565a18.171,18.171,0,0,1-2.181-2.83,4.3,4.3,0,0,1-.441-.791c.076-.064.156-.124.228-.194q.971-.917,1.939-1.836a19.551,19.551,0,0,0,1.881-1.9,1.087,1.087,0,0,1,.187.016c1.851.5,3.7,1.033,5.587,1.372a.414.414,0,0,1,.357.384,5.341,5.341,0,0,0-.226.725,1.658,1.658,0,0,1-.606.921,29.7,29.7,0,0,0-3.095,2.981c-.681.876-1.443,1.683-2.048,2.622-.11,0-.176-.08-.252-.144A17.041,17.041,0,0,1,16.534,46.565Z" fill="#449c9b"/>
        <path id="Path_4032" data-name="Path 4032" d="M33.378,20.671c-.005-.133.087-.206.167-.284,1.107-1.061,2.2-2.137,3.328-3.175.537-.5,1-1.083,1.568-1.525.994-.77,1.739-1.811,2.752-2.555A8.7,8.7,0,0,1,43.71,14.5c-.734.683-1.369,1.475-2.167,2.089a2.167,2.167,0,0,0-.229.194c-.805.8-1.577,1.635-2.423,2.386-.633.56-1.237,1.143-1.826,1.746-.087.089-.164.19-.245.286-.594-.123-1.189-.24-1.792-.311C34.478,20.826,33.929,20.744,33.378,20.671Z" fill="#318f8d"/>
        <path id="Path_4033" data-name="Path 4033" d="M16.534,46.565a18.35,18.35,0,0,0,1.326,1.33c.076.064.142.144.252.144.009.156.08.2.219.13a.324.324,0,0,0,.279.309c.032.24.263.249.4.364A19.357,19.357,0,0,0,24.8,52.134a18.58,18.58,0,0,0,3.415.949,1.893,1.893,0,0,0,.766.073.864.864,0,0,0,.453.139.542.542,0,0,0,.672-.276,3.227,3.227,0,0,1,.731-.935c.091.02.215-.05.261.071.037.1-.066.155-.126.212a2.535,2.535,0,0,0-.489.612c-.057.1-.208.192-.142.327.076.158.24.062.366.075a12.994,12.994,0,0,0,2.9.028.39.39,0,0,0,.364-.251c.185.3.453.167.7.14a.568.568,0,0,0,.7-.441,3.628,3.628,0,0,1,.61-1.321c.228.032.144.171.108.309-.1.384-.364.683-.489,1.052-.064.19-.023.263.167.26a.542.542,0,0,0,.356-.071,2.071,2.071,0,0,0,.26-.023,21.082,21.082,0,0,0,6.46-2.462,15.084,15.084,0,0,0,3.074-2.2.879.879,0,0,0,.489-.544c.059-.012.135,0,.171-.039a8.732,8.732,0,0,0,1.1-1.035l.123-.146.112-.121a19.889,19.889,0,0,0,2.361-3.1,22.538,22.538,0,0,0,2.727-6.787,12.873,12.873,0,0,0,.316-2.039,19.191,19.191,0,0,0-.473-7.157c-.233-.82-.434-1.648-.708-2.455.183-.025.19.13.231.242a19.188,19.188,0,0,1,1.139,4.14,21.462,21.462,0,0,1,.228,4.229,19.765,19.765,0,0,1-.661,4.4,25.515,25.515,0,0,1-2.135,5.207,20.857,20.857,0,0,1-3.413,4.466,19.7,19.7,0,0,1-2.955,2.5,21.523,21.523,0,0,1-8.049,3.378,20.465,20.465,0,0,1-4.926.382,22.107,22.107,0,0,1-5.338-.9,24.261,24.261,0,0,1-4.418-1.923,23.823,23.823,0,0,1-3.5-2.5c-.59-.478-1.07-1.068-1.619-1.587A.5.5,0,0,1,16.534,46.565Z" fill="#053f3d"/>
        <path id="Path_4034" data-name="Path 4034" d="M11.144,34.494c.533-.42.96-.955,1.465-1.408.9-.8,1.742-1.664,2.608-2.5a.562.562,0,0,0,.2-.268c.272.388.475.82.745,1.211.194.281.478.516.523.892-.3.222-.62.421-.9.672a8.587,8.587,0,0,0-2.734,3.961c-.05.172-.108.389.16.464l1.683.58a17.052,17.052,0,0,1-2.332,2.242A18.565,18.565,0,0,1,11.144,34.494Z" fill="#59b4b3"/>
        <path id="Path_4035" data-name="Path 4035" d="M52.129,24.977c.274.807.475,1.635.708,2.455a19.193,19.193,0,0,1,.473,7.157,12.873,12.873,0,0,1-.316,2.039,22.519,22.519,0,0,1-2.727,6.787,19.888,19.888,0,0,1-2.361,3.1c.007-.393.3-.626.5-.912.576-.843,1.063-1.742,1.577-2.624a20.039,20.039,0,0,0,2.076-5.607,17.76,17.76,0,0,0,.5-3.657c.007-.327.055-.658.062-.988a23.856,23.856,0,0,0-.859-6.828,18.425,18.425,0,0,0-1.57-4.076,26.523,26.523,0,0,0-2.1-3.376.44.44,0,0,1-.112-.348,12.387,12.387,0,0,1,1.04,1.257,19.481,19.481,0,0,1,2.917,5.139.6.6,0,0,0,.059.1c.02.084.02.174.091.236C52.1,24.877,52.115,24.927,52.129,24.977Z" fill="#57bab9"/>
        <path id="Path_4036" data-name="Path 4036" d="M12.565,40.338A17.155,17.155,0,0,0,14.9,38.1c.37.1.745.2,1.111.313.649.206,1.321.34,1.952.608a19.753,19.753,0,0,1-1.881,1.9q-.968.92-1.939,1.836c-.073.068-.151.13-.228.194A16.015,16.015,0,0,1,12.565,40.338Z" fill="#318f8d"/>
        <path id="Path_4037" data-name="Path 4037" d="M52.086,24.827c-.071-.062-.071-.153-.091-.236C52.22,24.591,52.127,24.719,52.086,24.827Z" fill="#053f3d"/>
        <path id="Path_4038" data-name="Path 4038" d="M47.864,17.974c-.078-.016-.226.03-.119-.146C47.784,17.878,47.825,17.926,47.864,17.974Z" fill="#57bab9"/>
        <path id="Path_4039" data-name="Path 4039" d="M36.377,58.45a2.379,2.379,0,0,1-2.094,2.464,3.179,3.179,0,0,1-1.333.014.463.463,0,0,1-.412-.5c-.068-1.353-.05-2.707-.064-4.06,0-.135-.037-.29.18-.3a4.862,4.862,0,0,1,2.208.2A2.086,2.086,0,0,1,36.377,58.45Z" fill="#449c9b"/>
        <path id="Path_4040" data-name="Path 4040" d="M32.331,58.482c0,.684-.005,1.235,0,1.785a1.387,1.387,0,0,0,.324.949c.048.053.132.11.071.19a.237.237,0,0,1-.167.048c-.348,0-.7,0-1.047,0-.215,0-.288-.087-.146-.277a.9.9,0,0,0,.142-.581c0-.96,0-1.92,0-2.878,0-.407-.108-.809-.075-1.219.014-.18-.1-.276-.24-.356-.078-.046-.146-.11-.107-.217.034-.091.119-.078.192-.078.174,0,.35-.009.523,0,.3.021.441.126.478.5C32.35,57.114,32.293,57.865,32.331,58.482Z" fill="#004742"/>
        <path id="Path_4041" data-name="Path 4041" d="M36.094,60.715A3.238,3.238,0,0,0,36.739,58c-.206-1.072-1.029-1.559-1.936-1.963A2.926,2.926,0,0,1,37.625,57.3,2.792,2.792,0,0,1,36.094,60.715Z" fill="#004742"/>
        <path id="Path_4042" data-name="Path 4042" d="M26.653,60.639c.084-.245.336-.352.411-.587a5.237,5.237,0,0,0,.172-1.088,2.119,2.119,0,0,0,0-.5,18.571,18.571,0,0,1,.16-2.153.868.868,0,0,0-.37-.816c-.078-.05-.181-.119-.117-.245.053-.1.14-.06.229-.041.443.1.887.192,1.378.3-.443.347-.34.828-.364,1.244-.048.764-.014,1.534-.014,2.3C28.139,60.136,27.764,60.541,26.653,60.639Z" fill="#004742"/>
        <path id="Path_4043" data-name="Path 4043" d="M24.017,58.82c0-.446.164-.588.613-.507a.81.81,0,0,1,.631.469c.078.21-.149.368-.332.492-.126.087-.279.188-.178.4a.155.155,0,0,1-.073.2c-.1.062-.162-.023-.22-.084A1.414,1.414,0,0,1,24.017,58.82Z" fill="#004742"/>
        <path id="Path_4044" data-name="Path 4044" d="M39.328,54.984c.436-.151.8-.276,1.161-.4.128-.044.22-.06.18.146a6.643,6.643,0,0,0,.069,1.559c.018.542.076,1.09.137,1.63a5.842,5.842,0,0,0,.188,1.543c.06.153.327.238.208.393-.1.132-.324.171-.5.233-.21.076-.48.247-.622.172-.172-.091-.028-.4-.03-.617-.011-1.3-.2-2.587-.238-3.882C39.874,55.425,39.641,55.213,39.328,54.984Z" fill="#004742"/>
        <path id="Path_4045" data-name="Path 4045" d="M17.958,39.018c-.631-.268-1.3-.4-1.952-.608-.366-.117-.741-.21-1.111-.313l-1.683-.58c.2-.16.089-.405.151-.608A7.186,7.186,0,0,1,14.9,34.37a13.135,13.135,0,0,1,1.838-1.648c.19-.155.215-.247-.053-.3-.044-.375-.331-.612-.523-.892-.27-.391-.473-.823-.745-1.211,0-.108-.005-.219-.009-.327,0-.14.011-.281,0-.42-.036-.868.256-1.333,1.385-1.239a4.648,4.648,0,0,1,1.271.3c.028-.139-.068-.167-.094-.233a20.567,20.567,0,0,1-1.184-2.985c-.044-.144-.071-.293-.107-.439.084-.066.073-.116-.023-.151l-.053-.155c.117-.1.082-.231.052-.356a10.67,10.67,0,0,1-.192-2.892.862.862,0,0,1,.932-.908,1.851,1.851,0,0,1,.932.229,1.07,1.07,0,0,0,.622.231,7.2,7.2,0,0,1,1.938,2.018c.1.153.156.356.366.405-.009.2,0,.329.265.2A25.122,25.122,0,0,1,24.8,22.143a22.865,22.865,0,0,1,4.231-1.01c-.025.149-.052.3-.076.448-.108.025-.217.059-.327.075a20.951,20.951,0,0,0-7.216,2.5c-.528.293-.558.277-.848-.279a6.58,6.58,0,0,0-2.9-2.839c-.485-.251-.645-.132-.688.423a10.766,10.766,0,0,0,.094,1.758,13.665,13.665,0,0,0,1.054,3.779,5.543,5.543,0,0,0,.571,1.2c.316.444.569.926.885,1.367a.359.359,0,1,1-.572.432,3.7,3.7,0,0,0-1.971-1.161c-.3-.091-.711-.279-.948.039s-.076.706.05,1.061a8.081,8.081,0,0,0,1.392,2.3c.164.206.139.348-.05.471a13.479,13.479,0,0,0-1.582,1.278,6.841,6.841,0,0,0-1.979,2.747c-.048.132-.108.268.075.348,0,.213.162.217.306.261,1.575.491,3.159.949,4.75,1.387a33.753,33.753,0,0,0,5.353,1.218c.1,0,.153.064.208.139.252.347.508.692.764,1.036A19.332,19.332,0,0,0,27.1,43.191c.51.517,1.092.96,1.641,1.435.068.244.281.306.471.389a4.9,4.9,0,0,0,1.888.377,23.149,23.149,0,0,0,3.58-.066,3.891,3.891,0,0,0,1.52-.466,13.672,13.672,0,0,0,2.729-2.633c.544-.587,1-1.259,1.5-1.893.11.057.22.116.332.172a1.658,1.658,0,0,1-.35.539c-.188.222-.137.359.073.526.844.674,1.675,1.363,2.455,2.117a23.27,23.27,0,0,1,2.8,3.168,6.312,6.312,0,0,1,.679,1,.882.882,0,0,1-.491.544,17.276,17.276,0,0,0-1.852-2.48A23.812,23.812,0,0,0,40.855,42.8c-.073-.06-.124-.169-.286-.123a5.879,5.879,0,0,0,.283,1.205.421.421,0,0,1-.075.441,27.427,27.427,0,0,0-2.629,4.211c-.247.5-.5,1-.756,1.5a17.976,17.976,0,0,0-1.262,3.061.531.531,0,0,1-.356.071c-.19,0-.231-.069-.167-.26.124-.372.393-.668.489-1.052.034-.137.119-.276-.108-.309.032-.135.012-.256-.156-.194a9.743,9.743,0,0,1-2.311.556,5.1,5.1,0,0,1,1.161,1.4c-.247.027-.516.158-.7-.14A2,2,0,0,0,31.883,52a1.494,1.494,0,0,0-1.171,1.381c-.126-.012-.29.084-.366-.075-.066-.135.085-.222.142-.327a2.461,2.461,0,0,1,.489-.612c.059-.057.164-.112.126-.212-.046-.121-.172-.052-.261-.071.1-.158.05-.208-.123-.235a8.1,8.1,0,0,1-1.449-.313c-.334-.116-.667-.235-1.042-.368.236.708.574,1.317.759,1.986a1.893,1.893,0,0,1-.766-.073c-.057-.169-.114-.336-.169-.5a20.208,20.208,0,0,0-1.219-2.444,24.4,24.4,0,0,0-3.177-5.257,1.275,1.275,0,0,1-.308-1.452c0-.009-.025-.032-.073-.091-.9.974-1.984,1.73-2.809,2.791a28.81,28.81,0,0,1-1.847,2.352.324.324,0,0,1-.279-.309,9.189,9.189,0,0,1,.711-.875,20.713,20.713,0,0,1,3.175-3.534,14.62,14.62,0,0,1,1.209-1.074c.58-.414.608-1.07.8-1.657.039-.117-.043-.19-.139-.238a.415.415,0,0,0-.357-.384c-1.89-.34-3.737-.866-5.587-1.372A1.254,1.254,0,0,0,17.958,39.018Zm18.335,7.848c-.027-.137.1-.329-.137-.386-.066-.233-.14-.464-.194-.7-.046-.212-.158-.27-.35-.213a8.772,8.772,0,0,1-1.945.311,12.251,12.251,0,0,1-4.757-.407c-.2-.068-.263,0-.315.176a29.575,29.575,0,0,0-.745,4.32.264.264,0,0,0,.14.286.256.256,0,0,0,.167.229,8.245,8.245,0,0,0,3.374.978,10.287,10.287,0,0,0,4.462-.606c.768-.29.868-.434.775-1.243-.052-.453-.1-.908-.181-1.356a3.946,3.946,0,0,0-.3-1.394Zm.828,2.227c.009.076.012.172.1.176.108,0,.119-.114.156-.188a18.685,18.685,0,0,1,1.6-2.919c.428-.558.772-1.184,1.186-1.755a.386.386,0,0,0,0-.56,8.45,8.45,0,0,1-.432-1.415c-.1-.261-.183-.322-.356-.078a21.91,21.91,0,0,1-1.776,1.9,4.684,4.684,0,0,1-1,.852.4.4,0,0,0-.2.533,20.527,20.527,0,0,1,.439,2.051A4.114,4.114,0,0,0,37.122,49.094Zm-8.9-3.767a.376.376,0,0,0-.208-.372,10.231,10.231,0,0,1-1.571-1.4c-.542-.6-1.051-1.227-1.541-1.87-.053-.069-.1-.172-.188-.171-.114,0-.094.132-.128.208a11.974,11.974,0,0,0-.642,2.1.442.442,0,0,0,.085.412c.256.361.574.663.832,1.026a25.09,25.09,0,0,1,2.179,3.788c.1.2.171.434.425.5.016.091-.028.212.135.258.16-1,.231-2.014.468-3,.1-.42.2-.841.315-1.255C28.429,45.377,28.395,45.313,28.221,45.327Z" fill="#024b46"/>
        <path id="Path_4046" data-name="Path 4046" d="M28.96,21.578c.025-.149.052-.3.076-.448a19.651,19.651,0,0,1,2.739-.222,21.313,21.313,0,0,1,3.189.212,21.739,21.739,0,0,1,4.13.935A24.637,24.637,0,0,1,43,23.677c.135.071.283.217.4-.03a6.669,6.669,0,0,1,1.639-1.909,3.188,3.188,0,0,1,2.819-1.232,1.237,1.237,0,0,1,.34.98,11.925,11.925,0,0,1-.844,4.791c-.245.594-.487,1.2-.786,1.771-.052.1-.2.263.069.3-.052.3-.039.318.1.251a4.913,4.913,0,0,1,2.082-.26l-.005,0a.12.12,0,0,0,.128.08,1.623,1.623,0,0,1,.13,1.4,7.021,7.021,0,0,1-1.116,2.2c-.169.228-.22.347.053.565a12.782,12.782,0,0,1,2.652,2.779,4.389,4.389,0,0,1,.677,1.65c.064.336,0,.537-.375.644-2.05.581-4.083,1.223-6.138,1.781a32.142,32.142,0,0,1-3.484.836,1.076,1.076,0,0,0-.581.233c-.11-.057-.22-.116-.332-.172a.633.633,0,0,1,.681-.471,1.968,1.968,0,0,0,.548-.089c2.962-.686,5.875-1.557,8.789-2.423.384-.114.4-.213.14-.548a5.177,5.177,0,0,0-.393-.818A15.553,15.553,0,0,0,48.213,33.7c-.45-.42-.967-.741-1.442-1.12.048-.014.107-.012.14-.043a5.711,5.711,0,0,0,1.724-2.93c.05-.19.075-.441-.183-.558a.307.307,0,0,0-.356-.306,3.471,3.471,0,0,0-2.611,1.179c-.167.2-.334.366-.587.124a16.278,16.278,0,0,0,1.584-3.019,27.522,27.522,0,0,0,.926-2.729,15.413,15.413,0,0,0,.251-2.155,1.215,1.215,0,0,0-.21-.939c-.132-.352-.361-.356-.652-.212a8.449,8.449,0,0,0-3.147,3.031c-.254.377-.395.437-.8.231-.636-.325-1.282-.624-1.932-.917a24.338,24.338,0,0,0-4.074-1.369,21.932,21.932,0,0,0-3.2-.516,15.561,15.561,0,0,0-2.014-.076C30.743,21.41,29.853,21.508,28.96,21.578Z" fill="#064e4b"/>
        <path id="Path_4047" data-name="Path 4047" d="M47.848,20.507a3.188,3.188,0,0,0-2.819,1.232,6.669,6.669,0,0,0-1.639,1.909c-.114.247-.261.1-.4.03a24.706,24.706,0,0,0-3.9-1.623,21.739,21.739,0,0,0-4.13-.935,21.08,21.08,0,0,0-3.189-.212,19.4,19.4,0,0,0-2.739.222,22.865,22.865,0,0,0-4.231,1.01,25.018,25.018,0,0,0-3.283,1.449c-.265.133-.276.007-.265-.2.924-.494,1.877-.926,2.839-1.337.06-.009.124-.011.155-.082l0,.009a11.291,11.291,0,0,0,1.57-.469,22.4,22.4,0,0,1,6.965-.836c.2.007.4-.005.6-.009.551.075,1.1.156,1.651.22.6.071,1.2.188,1.792.311A28.5,28.5,0,0,1,41.63,22.84a13.182,13.182,0,0,1,1.207.6c.217.124.308.128.448-.117a7.415,7.415,0,0,1,3.223-2.969A1.046,1.046,0,0,1,47.848,20.507Z" fill="#063a38"/>
        <path id="Path_4048" data-name="Path 4048" d="M48.806,28.342a4.881,4.881,0,0,0-2.082.26c-.137.068-.148.044-.1-.251a3.036,3.036,0,0,1,1.771-.283A.4.4,0,0,1,48.806,28.342Z" fill="#053f3d"/>
        <path id="Path_4049" data-name="Path 4049" d="M47.791,46.636l-.123.146C47.566,46.606,47.715,46.652,47.791,46.636Z" fill="#57bab9"/>
        <path id="Path_4050" data-name="Path 4050" d="M48.927,28.422a.125.125,0,0,1-.128-.08A.112.112,0,0,1,48.927,28.422Z" fill="#053f3d"/>
        <path id="Path_4051" data-name="Path 4051" d="M18.952,20.97c-.245.032-.425-.128-.622-.231a1.851,1.851,0,0,0-.932-.229.862.862,0,0,0-.932.908,10.747,10.747,0,0,0,.192,2.892c.03.123.066.252-.052.356a9.809,9.809,0,0,1-.3-3.545.958.958,0,0,1,1.331-.852A4.279,4.279,0,0,1,18.952,20.97Z" fill="#063a38"/>
        <path id="Path_4052" data-name="Path 4052" d="M17.974,28.393c.027.068.123.094.094.233a4.648,4.648,0,0,0-1.271-.3c-1.129-.094-1.42.372-1.385,1.239.005.139,0,.279,0,.42a1.727,1.727,0,0,1-.073-1.363c.124-.443.5-.549.91-.58A4.25,4.25,0,0,1,17.974,28.393Z" fill="#023834"/>
        <path id="Path_4053" data-name="Path 4053" d="M16.662,24.818c.1.036.107.085.023.151C16.678,24.92,16.669,24.87,16.662,24.818Z" fill="#063a38"/>
        <path id="Path_4054" data-name="Path 4054" d="M24.249,21.974c-.03.071-.094.073-.155.082A.158.158,0,0,1,24.249,21.974Z" fill="#59b4b3"/>
        <path id="Path_4055" data-name="Path 4055" d="M24.091,40.789c.1.048.178.123.139.238-.194.588-.222,1.243-.8,1.657a14.031,14.031,0,0,0-1.209,1.074,20.78,20.78,0,0,0-3.175,3.534,9.189,9.189,0,0,0-.711.875c-.139.073-.21.027-.219-.13.6-.939,1.367-1.747,2.048-2.622a29.882,29.882,0,0,1,3.095-2.981,1.664,1.664,0,0,0,.606-.921A5.767,5.767,0,0,1,24.091,40.789Z" fill="#023834"/>
        <path id="Path_4056" data-name="Path 4056" d="M36.121,53.089a17.976,17.976,0,0,1,1.262-3.061c.252-.5.508-1,.756-1.5a27.427,27.427,0,0,1,2.629-4.211.42.42,0,0,0,.075-.441,5.852,5.852,0,0,1-.283-1.205c.162-.046.213.062.286.123a23.917,23.917,0,0,1,3.214,3.123,17.178,17.178,0,0,1,1.852,2.48,15.065,15.065,0,0,1-3.074,2.2,21.173,21.173,0,0,1-6.46,2.462A2.013,2.013,0,0,1,36.121,53.089Z" fill="#359190"/>
        <path id="Path_4057" data-name="Path 4057" d="M18.611,48.476a28.507,28.507,0,0,0,1.847-2.352c.825-1.061,1.909-1.817,2.809-2.791.046.057.076.082.073.091a1.273,1.273,0,0,0,.308,1.452,24.328,24.328,0,0,1,3.177,5.257,20.339,20.339,0,0,1,1.219,2.444c.055.169.112.336.169.5a18.541,18.541,0,0,1-3.415-.949,19.417,19.417,0,0,1-5.783-3.292C18.875,48.725,18.643,48.716,18.611,48.476Z" fill="#359190"/>
        <path id="Path_4058" data-name="Path 4058" d="M30.7,53.38A1.492,1.492,0,0,1,31.876,52a2,2,0,0,1,2.1,1.161.4.4,0,0,1-.364.251A13.318,13.318,0,0,1,30.7,53.38Z" fill="#359190"/>
        <path id="Path_4059" data-name="Path 4059" d="M28.976,53.155c-.185-.67-.523-1.278-.759-1.986.375.133.708.252,1.042.368a7.945,7.945,0,0,0,1.449.313c.172.027.228.075.123.235a3.258,3.258,0,0,0-.731.935.542.542,0,0,1-.672.276A.882.882,0,0,1,28.976,53.155Z" fill="#359190"/>
        <path id="Path_4060" data-name="Path 4060" d="M34.674,53.3a5.07,5.07,0,0,0-1.161-1.4,9.763,9.763,0,0,0,2.311-.556c.167-.062.187.057.156.194a3.586,3.586,0,0,0-.61,1.321A.571.571,0,0,1,34.674,53.3Z" fill="#318f8d"/>
        <path id="Path_4061" data-name="Path 4061" d="M16.685,32.42c.27.053.245.148.053.3A13.339,13.339,0,0,0,14.9,34.368a7.186,7.186,0,0,0-1.538,2.54c-.062.2.05.448-.151.608-.27-.075-.21-.292-.16-.464a8.591,8.591,0,0,1,2.734-3.961C16.063,32.841,16.385,32.642,16.685,32.42Z" fill="#063a38"/>
        <path id="Path_4062" data-name="Path 4062" d="M28.96,21.578c.891-.069,1.781-.167,2.674-.2a14.953,14.953,0,0,1,2.014.076,21.694,21.694,0,0,1,3.2.516,24.393,24.393,0,0,1,4.074,1.369c.651.293,1.3.592,1.932.917.4.2.542.144.8-.231A8.463,8.463,0,0,1,46.8,21c.292-.144.521-.14.652.212a10.531,10.531,0,0,1-.327,3.122A29.137,29.137,0,0,1,46.1,27.316a14.55,14.55,0,0,1-1.154,2.137c-.107.174-.322.375-.044.6.252.242.42.075.587-.124A3.469,3.469,0,0,1,48.1,28.745a.307.307,0,0,1,.356.306,4.758,4.758,0,0,1-1.28,2.805c-.167.2-.519.341-.4.725.476.379.994.7,1.442,1.12a15.739,15.739,0,0,1,1.966,2.284,5.034,5.034,0,0,1,.395.818c.066.267-.158.254-.293.293C48.188,37.7,46.11,38.362,44,38.9c-1.049.267-2.092.562-3.163.734a.71.71,0,0,0-.5.292,25.261,25.261,0,0,1-1.843,2.348c-.51.542-.987,1.116-1.522,1.635a4,4,0,0,1-1.909,1.06,14.425,14.425,0,0,1-3.418.21,6.786,6.786,0,0,1-2.912-.549c-.549-.475-1.131-.917-1.641-1.435a19.4,19.4,0,0,1-1.714-2.067c-.256-.345-.512-.69-.764-1.036-.053-.075-.107-.142-.208-.139-.071-.238-.256-.288-.468-.3a4.15,4.15,0,0,1-.556-.052c-2.236-.446-4.426-1.088-6.617-1.723-.921-.267-1.845-.528-2.768-.791-.183-.08-.123-.217-.075-.348A6.87,6.87,0,0,1,15.9,33.989a13.664,13.664,0,0,1,1.582-1.278c.188-.123.215-.265.05-.471a8.081,8.081,0,0,1-1.392-2.3c-.126-.356-.279-.754-.05-1.061s.645-.128.948-.039A3.713,3.713,0,0,1,19.011,30a.359.359,0,1,0,.572-.432c-.315-.441-.569-.923-.885-1.367a5.544,5.544,0,0,1-.571-1.2,13.744,13.744,0,0,1-1.054-3.779,11.735,11.735,0,0,1-.087-1.765c.043-.555.2-.674.688-.423a6.58,6.58,0,0,1,2.9,2.839c.292.556.322.572.848.279a20.951,20.951,0,0,1,7.216-2.5C28.743,21.636,28.852,21.6,28.96,21.578Zm5.086,16.778c.18.1.245-.032.229-.165-.069-.56.343-.7.706-.876a4.659,4.659,0,0,1,.974-.206c.258-.069.356-.212.2-.466-.057-.046-.107-.117-.171-.137a1.972,1.972,0,0,0-2.139,1.431C33.824,38.108,33.8,38.307,34.046,38.355Zm-3.662,3.511.3-.092a.131.131,0,0,0,.151-.068,11.1,11.1,0,0,0,1.57-.777,9.479,9.479,0,0,0,2.638,1.127,1.446,1.446,0,0,0,1.3-.231A9.1,9.1,0,0,0,38,40.234c.156-.2.3-.261.464-.025.151.213.318.206.5.044.114-.1.24-.183.348-.286A4.884,4.884,0,0,0,40.858,36.4c0-.092-.053-.228.08-.263.1-.027.192.052.258.126a2.064,2.064,0,0,1,.414.709c.053.165.142.242.3.2a.254.254,0,0,0,.2-.315,1.288,1.288,0,0,0-1.554-1.134c-.172.059-.272.126-.242.35a3.972,3.972,0,0,1-.887,3.067c-.215.277-.42.61-.807.692a.223.223,0,0,0-.2-.194c-.292-.3-.348-.3-.6.043a8.517,8.517,0,0,1-1.607,1.641,1.407,1.407,0,0,1-1.378.293c-.748-.22-1.4-.66-2.133-.9l0,0c-.174-.236-.35-.242-.6-.076a7.69,7.69,0,0,1-2.846,1.138,11.726,11.726,0,0,1-2.363-2.2c-.165-.2-.334-.238-.492-.032-.229.3-.391.2-.617-.021a4.219,4.219,0,0,1-1.25-3.573c.007-.116-.082-.149-.16-.183a1.222,1.222,0,0,0-1.627,1.15c-.011.148.053.247.213.251.219.037.277-.085.3-.281a1.008,1.008,0,0,1,.363-.649c.073-.064.158-.149.263-.1s.053.16.052.244a4.769,4.769,0,0,0,1.815,3.765c.208.192.421.281.635,0,.128-.169.245-.135.356.023a9.746,9.746,0,0,0,1.433,1.381,1.533,1.533,0,0,0,1.9.38l.148-.014A.126.126,0,0,0,30.384,41.866Zm-1.73-4.812a.882.882,0,0,0,.425.121,2.452,2.452,0,0,1,1.109.414c.174.107.332.245.235.5-.062.16-.041.29.144.313s.265-.1.27-.279a1.405,1.405,0,0,0-.606-1.163c-.137-.084-.274-.171-.412-.251a1.62,1.62,0,0,0-1-.222.371.371,0,0,0-.35.3C28.429,36.933,28.518,37.017,28.655,37.054Zm.082-7.246a.134.134,0,0,0,.057-.156c.005-.05.012-.1.018-.151a1.194,1.194,0,0,0,.094-.85c-.03-.244-.238-.24-.4-.281-.542-.139-1.09-.258-1.635-.388-1.331-.318-2.665-.635-3.994-.962-.3-.073-.489.028-.5.329a5.2,5.2,0,0,0,.215,2.076,3.382,3.382,0,0,0,3,2.752l.148.009a.622.622,0,0,0,.6.005A2.71,2.71,0,0,0,28.736,29.808Zm12.894-.144a1.009,1.009,0,0,0,.133-.469.137.137,0,0,0,.053-.158c0-.05.009-.1.012-.151a3.413,3.413,0,0,0,.085-1.612c-.078-.3-.281-.306-.526-.247q-2.685.656-5.37,1.3c-.779.187-.82.244-.645,1.042.027.123,0,.26.1.363A3.22,3.22,0,0,0,36.958,31.9a1.732,1.732,0,0,0,1.509.292,3.242,3.242,0,0,0,2.994-2.229C41.651,29.943,41.6,29.782,41.63,29.664Zm-8.744.83a.785.785,0,0,0-1.339.148,8.039,8.039,0,0,0-1.225,4.341c-.005.153.005.316.208.348.242-.005.231-.187.229-.356a5.528,5.528,0,0,1,.069-1.028,7.394,7.394,0,0,1,.992-2.939c.329-.487.636-.473.949.007a6.426,6.426,0,0,1,.921,2.235c.117.572.244,1.145.366,1.717.034.16.1.311.29.276s.165-.2.149-.341-.046-.249-.071-.375a13.006,13.006,0,0,0-.93-3.216C33.348,31,33.257,30.633,32.885,30.494Zm1.836-3.132c.185.164.279-.014.357-.123a11,11,0,0,1,2.288-2.172,4.459,4.459,0,0,1,2.757-1.019.837.837,0,0,1,.9.738,5.018,5.018,0,0,1,.066.876c.016.187.076.356.3.38s.345-.108.409-.311a2.025,2.025,0,0,0-.626-1.915.906.906,0,0,0-.738-.384,4.711,4.711,0,0,0-3.191.921c-.523.347-.978.782-1.479,1.157a4.288,4.288,0,0,0-1.086,1.251C34.56,26.96,34.462,27.181,34.722,27.362Zm-7.166-3.088a5.8,5.8,0,0,0-1.413-.674,3.037,3.037,0,0,0-1.943-.128,2.053,2.053,0,0,0-1.036,2.334.262.262,0,0,0,.178.18c.324.16.4-.075.439-.313.032-.213,0-.434.018-.651a.941.941,0,0,1,.942-.976,2.682,2.682,0,0,1,1.065.135,7.844,7.844,0,0,1,3.49,2.451c.19.219.372.444.556.668a.265.265,0,0,0,.364.084.325.325,0,0,0,.162-.357.677.677,0,0,0-.222-.428,3.2,3.2,0,0,1-.405-.444,7.558,7.558,0,0,0-1.8-1.577l-.183-.156C27.7,24.372,27.627,24.322,27.556,24.274Z" fill="#359190"/>
        <path id="Path_4063" data-name="Path 4063" d="M27.991,50.253a.266.266,0,0,1-.14-.286,29.576,29.576,0,0,1,.745-4.32c.052-.18.114-.244.315-.176a12.248,12.248,0,0,0,4.757.407,8.877,8.877,0,0,0,1.945-.311c.192-.057.3,0,.35.213.052.236.128.466.194.7.027.137.023.283.137.386l0,0c.023.946.265,1.863.338,2.8a.658.658,0,0,1-.427.775,9.987,9.987,0,0,1-6.321.516A14.181,14.181,0,0,1,27.991,50.253Z" fill="#359190"/>
        <path id="Path_4064" data-name="Path 4064" d="M27.462,49.546c-.252-.066-.329-.3-.425-.5a24.917,24.917,0,0,0-2.179-3.788c-.256-.363-.576-.665-.832-1.026a.447.447,0,0,1-.085-.412,12.282,12.282,0,0,1,.642-2.1c.034-.075.012-.2.128-.208.092,0,.135.1.188.171.491.644,1,1.271,1.541,1.87a10.068,10.068,0,0,0,1.571,1.4c.13.094.235.192.208.372A19.579,19.579,0,0,0,27.462,49.546Z" fill="#359190"/>
        <path id="Path_4065" data-name="Path 4065" d="M37.122,49.094a4.062,4.062,0,0,1-.277-1.4,20.635,20.635,0,0,0-.439-2.051.4.4,0,0,1,.2-.533,4.634,4.634,0,0,0,1-.852,21.638,21.638,0,0,0,1.776-1.9c.174-.244.26-.183.356.078a8.288,8.288,0,0,0,.432,1.415.442.442,0,0,1-.123.27c-.535.683-1,1.422-1.484,2.139A19.165,19.165,0,0,0,37.122,49.094Z" fill="#359190"/>
        <path id="Path_4066" data-name="Path 4066" d="M28.731,44.622a6.786,6.786,0,0,0,2.912.549,14.321,14.321,0,0,0,3.418-.21,4,4,0,0,0,1.909-1.06c.535-.517,1.012-1.093,1.522-1.635a24.737,24.737,0,0,0,1.843-2.348.71.71,0,0,1,.5-.292c1.068-.172,2.112-.468,3.163-.734,2.112-.537,4.192-1.2,6.284-1.8.135-.039.357-.025.293-.293.263.334.245.434-.14.548-2.915.866-5.827,1.737-8.789,2.423a1.905,1.905,0,0,1-.548.089.632.632,0,0,0-.681.471c-.5.635-.951,1.307-1.5,1.893a13.578,13.578,0,0,1-2.729,2.633,3.882,3.882,0,0,1-1.52.466,23.15,23.15,0,0,1-3.58.066,4.869,4.869,0,0,1-1.888-.377C29.012,44.927,28.8,44.865,28.731,44.622Z" fill="#023834"/>
        <path id="Path_4067" data-name="Path 4067" d="M27.991,50.253a14.25,14.25,0,0,0,1.888.7,9.974,9.974,0,0,0,6.321-.516.657.657,0,0,0,.427-.775c-.073-.94-.313-1.859-.338-2.8a3.946,3.946,0,0,1,.3,1.394c.076.448.128.9.181,1.356.094.809-.005.953-.775,1.243a10.287,10.287,0,0,1-4.462.606,8.245,8.245,0,0,1-3.374-.978A.263.263,0,0,1,27.991,50.253Z" fill="#063a38"/>
        <path id="Path_4068" data-name="Path 4068" d="M14,37.079c.923.263,1.845.524,2.768.791,2.19.635,4.38,1.276,6.617,1.723a4.432,4.432,0,0,0,.556.052c.212.014.4.064.468.3a33.753,33.753,0,0,1-5.353-1.218q-2.387-.656-4.75-1.387C14.161,37.3,14,37.292,14,37.079Z" fill="#063a38"/>
        <path id="Path_4069" data-name="Path 4069" d="M37.122,49.094a19.254,19.254,0,0,1,1.445-2.837c.487-.716.949-1.454,1.484-2.139a.432.432,0,0,0,.123-.27.386.386,0,0,1,0,.56c-.414.571-.757,1.2-1.186,1.755a18.605,18.605,0,0,0-1.6,2.919c-.039.075-.05.192-.156.188S37.132,49.169,37.122,49.094Z" fill="#023834"/>
        <path id="Path_4070" data-name="Path 4070" d="M27.462,49.546a19.314,19.314,0,0,1,.759-4.22c.174-.014.208.05.158.228-.117.414-.213.836-.315,1.255-.236.981-.308,1.993-.468,3C27.435,49.757,27.479,49.638,27.462,49.546Z" fill="#063a38"/>
        <path id="Path_4071" data-name="Path 4071" d="M36.293,46.867a.619.619,0,0,1-.137-.386C36.391,46.538,36.267,46.73,36.293,46.867Z" fill="#063a38"/>
        <path id="Path_4072" data-name="Path 4072" d="M44.9,30.045c-.279-.219-.064-.421.044-.6A14.55,14.55,0,0,0,46.1,27.312a29.138,29.138,0,0,0,1.026-2.987A10.531,10.531,0,0,0,47.45,21.2a1.215,1.215,0,0,1,.21.939,15.412,15.412,0,0,1-.251,2.155,27.678,27.678,0,0,1-.926,2.729A16.328,16.328,0,0,1,44.9,30.045Z" fill="#063a38"/>
        <path id="Path_4073" data-name="Path 4073" d="M46.771,32.578c-.119-.384.233-.521.4-.725a4.747,4.747,0,0,0,1.28-2.805c.258.117.235.368.183.558a5.711,5.711,0,0,1-1.724,2.93C46.878,32.564,46.817,32.564,46.771,32.578Z" fill="#063a38"/>
        <path id="Path_4074" data-name="Path 4074" d="M25.6,32.18a3.382,3.382,0,0,1-3-2.752c.1-.075.073-.174.057-.277a7.253,7.253,0,0,1-.13-1.36c.012-.457.169-.6.6-.5.686.158,1.369.338,2.057.5,1.239.292,2.482.576,3.722.864a1.2,1.2,0,0,1-.094.85c-.078-.05-.114-.167-.231-.156.005-.165-.1-.208-.235-.238-.633-.139-1.264-.279-1.893-.432-.226-.055-.3.057-.322.247a.426.426,0,0,0,.416.54c.132,0,.181.02.181.155a2.036,2.036,0,0,1-.2,1.042c-.14.244-.284.517-.6.524a.828.828,0,0,1-.74-.5,1.959,1.959,0,0,1-.128-.277,3.614,3.614,0,0,1-.18-1.843c.023-.14.048-.244-.137-.283-.622-.13-1.243-.26-1.859-.411-.2-.048-.219.03-.206.187a4.119,4.119,0,0,0,1.634,3.367c0,.16.121.185.229.254C24.882,31.881,25.3,31.9,25.6,32.18Z" fill="#024b46"/>
        <path id="Path_4075" data-name="Path 4075" d="M38.469,32.192A1.738,1.738,0,0,1,36.96,31.9a3.22,3.22,0,0,1-1.488-2.165c.156-.139.012-.283.011-.423,0-.268-.1-.565.313-.658,1.161-.261,2.313-.558,3.472-.818a14.4,14.4,0,0,1,2.649-.562,3.462,3.462,0,0,1-.085,1.612c-.133-.164-.043-.357-.068-.537-.016-.114.048-.261-.126-.3-.03-.1-.011-.256-.188-.213-.786.19-1.575.363-2.354.585-.3.085-.29.432-.3.686a.369.369,0,0,0,.4.4c.1,0,.174.021.178.14a1.8,1.8,0,0,1-.386,1.358.579.579,0,0,1-.834.11,1.288,1.288,0,0,1-.508-.69,3.6,3.6,0,0,1-.222-1.349c.009-.229-.066-.3-.286-.24a9.879,9.879,0,0,1-1.163.263c-.29.039-.331.169-.242.405a4.126,4.126,0,0,0,1.378,2.121c.078.3.373.288.572.414C37.931,32.192,38.233,32.016,38.469,32.192Z" fill="#064e4b"/>
        <path id="Path_4076" data-name="Path 4076" d="M24.545,35.954a4.225,4.225,0,0,0,1.25,3.573c.226.224.388.322.617.021.158-.206.327-.172.492.032a11.726,11.726,0,0,0,2.363,2.2c.012.219.18.14.3.176.178.053.345-.169.519-.011a1.535,1.535,0,0,1-1.9-.38,9.655,9.655,0,0,1-1.433-1.381c-.108-.158-.226-.192-.356-.023-.213.279-.427.19-.635,0a4.769,4.769,0,0,1-1.815-3.765c0-.084.044-.2-.052-.244s-.19.034-.263.1a1,1,0,0,0-.363.649c-.023.2-.084.32-.3.281a1.142,1.142,0,0,1,.7-1.147C23.944,35.876,24.251,35.982,24.545,35.954Z" fill="#024b46"/>
        <path id="Path_4077" data-name="Path 4077" d="M27.949,24.578a7.558,7.558,0,0,1,1.8,1.577,3.313,3.313,0,0,0,.405.444.677.677,0,0,1,.222.428.325.325,0,0,1-.162.357.265.265,0,0,1-.364-.084c-.185-.224-.366-.45-.556-.668a7.84,7.84,0,0,0-3.49-2.451,2.682,2.682,0,0,0-1.065-.135.94.94,0,0,0-.942.976c-.016.217.014.437-.018.651-.036.236-.116.473-.439.313,0-.281,0-.562.007-.841a1.423,1.423,0,0,1,1.125-1.419,3.58,3.58,0,0,1,2.411.373,1.1,1.1,0,0,0,.67.174l.21.149C27.766,24.548,27.839,24.587,27.949,24.578Z" fill="#064c49"/>
        <path id="Path_4078" data-name="Path 4078" d="M41.173,23.814a2.025,2.025,0,0,1,.626,1.915c-.064.2-.181.336-.409.311s-.281-.194-.3-.38a5.2,5.2,0,0,0-.066-.876.837.837,0,0,0-.9-.738,4.459,4.459,0,0,0-2.757,1.019,11.041,11.041,0,0,0-2.288,2.172c-.078.108-.172.286-.357.123a.735.735,0,0,1,.167-.455,6.432,6.432,0,0,1,1.378-1.417,9.083,9.083,0,0,1,1.918-1.356A4.076,4.076,0,0,1,41.173,23.814Z" fill="#064e4b"/>
        <path id="Path_4079" data-name="Path 4079" d="M38.423,39.635a.225.225,0,0,1,.2.2c.188.316.395.18.581.011a4.456,4.456,0,0,0,1.3-3.511c-.044-.261.055-.356.318-.388s.528.176.791.014a1.233,1.233,0,0,1,.5.9.252.252,0,0,1-.2.315c-.158.044-.247-.032-.3-.2a2.009,2.009,0,0,0-.414-.709c-.066-.076-.16-.153-.258-.126-.132.034-.078.169-.08.263a4.884,4.884,0,0,1-1.545,3.566c-.108.1-.235.188-.348.286-.185.162-.352.169-.5-.044-.167-.236-.308-.174-.464.025a8.985,8.985,0,0,1-1.653,1.591,1.446,1.446,0,0,1-1.3.231A9.5,9.5,0,0,1,32.4,40.929c.025-.19.16-.215.309-.217l0,0c-.009.11.064.164.144.2a9.723,9.723,0,0,0,2.443,1.019.9.9,0,0,0,.75-.116,9.582,9.582,0,0,0,1.8-1.7C38,39.923,38.08,39.6,38.423,39.635Z" fill="#064e4b"/>
        <path id="Path_4080" data-name="Path 4080" d="M32.885,30.494c.372.14.462.508.61.816a13.061,13.061,0,0,1,.93,3.216c.025.124.057.249.071.375s.028.308-.149.341-.254-.116-.29-.276c-.123-.572-.249-1.143-.366-1.717a6.392,6.392,0,0,0-.921-2.235c-.313-.48-.62-.494-.949-.007a7.366,7.366,0,0,0-.992,2.939,5.528,5.528,0,0,0-.069,1.028c0,.169.012.348-.229.356a8.015,8.015,0,0,1,.076-1.443,7.668,7.668,0,0,1,1-2.844A1.02,1.02,0,0,1,32.885,30.494Z" fill="#064e4b"/>
        <path id="Path_4081" data-name="Path 4081" d="M41.173,23.814a4.055,4.055,0,0,0-2.987.32,9.019,9.019,0,0,0-1.918,1.356,6.431,6.431,0,0,0-1.378,1.417.735.735,0,0,0-.167.455c-.26-.181-.162-.4-.043-.6a4.288,4.288,0,0,1,1.086-1.251c.5-.375.958-.809,1.479-1.157a4.7,4.7,0,0,1,3.191-.921A.913.913,0,0,1,41.173,23.814Z" fill="#063a38"/>
        <path id="Path_4082" data-name="Path 4082" d="M38.469,32.192c-.236-.174-.539,0-.782-.153-.2-.124-.5-.11-.572-.414a3.066,3.066,0,0,0,3.717-1.1,7.264,7.264,0,0,0,.805-2.476c.176.043.11.19.126.3.025.178-.066.372.068.537,0,.05-.009.1-.012.151-.1.025-.167.059-.053.158a1.03,1.03,0,0,1-.133.469c-.222,0-.155.174-.169.3A3.243,3.243,0,0,1,38.469,32.192Z" fill="#063a38"/>
        <path id="Path_4083" data-name="Path 4083" d="M41.916,27.271a14.367,14.367,0,0,0-2.649.562c-1.161.26-2.313.556-3.472.818-.409.092-.316.389-.313.658,0,.142.144.286-.011.423-.094-.1-.071-.242-.1-.363-.174-.8-.132-.857.645-1.042q2.688-.645,5.37-1.3C41.637,26.966,41.838,26.973,41.916,27.271Z" fill="#063a38"/>
        <path id="Path_4084" data-name="Path 4084" d="M28.907,28.651c-1.241-.288-2.482-.572-3.722-.864-.686-.162-1.369-.34-2.057-.5-.436-.1-.592.044-.6.5a7.108,7.108,0,0,0,.13,1.36c.016.1.043.2-.057.277a5.263,5.263,0,0,1-.215-2.076c.011-.3.2-.4.5-.329,1.33.327,2.663.644,3.994.962.544.13,1.092.249,1.635.388C28.667,28.411,28.877,28.407,28.907,28.651Z" fill="#063a38"/>
        <path id="Path_4085" data-name="Path 4085" d="M28.58,29.344c.117-.011.153.107.231.156-.005.05-.012.1-.018.151-.094.023-.167.055-.057.156a2.713,2.713,0,0,1-2.393,2.386.543.543,0,0,0-.6-.005L25.6,32.18c-.3-.277-.713-.3-1.044-.508-.108-.069-.229-.094-.229-.254.315.114.624.247.946.341A2.284,2.284,0,0,0,28.1,30.619,10.207,10.207,0,0,0,28.58,29.344Z" fill="#063a38"/>
        <path id="Path_4086" data-name="Path 4086" d="M38.423,39.635c-.343-.039-.425.288-.574.475a9.586,9.586,0,0,1-1.8,1.7.9.9,0,0,1-.75.116,9.789,9.789,0,0,1-2.443-1.019.206.206,0,0,1-.144-.2c.734.242,1.385.681,2.133.9a1.4,1.4,0,0,0,1.378-.293,8.367,8.367,0,0,0,1.607-1.641C38.075,39.34,38.131,39.338,38.423,39.635Z" fill="#023834"/>
        <path id="Path_4087" data-name="Path 4087" d="M27.556,24.274a1.085,1.085,0,0,1-.67-.174,3.58,3.58,0,0,0-2.411-.373,1.425,1.425,0,0,0-1.125,1.419c-.011.279-.005.56-.007.841a.258.258,0,0,1-.178-.18A2.052,2.052,0,0,1,24.2,23.473a3.037,3.037,0,0,1,1.943.128A5.72,5.72,0,0,1,27.556,24.274Z" fill="#063a38"/>
        <path id="Path_4088" data-name="Path 4088" d="M32.885,30.494a1.018,1.018,0,0,0-1.282.549,7.614,7.614,0,0,0-1,2.844,8.014,8.014,0,0,0-.076,1.443c-.2-.032-.215-.2-.208-.348a8.034,8.034,0,0,1,1.225-4.341A.784.784,0,0,1,32.885,30.494Z" fill="#063a38"/>
        <path id="Path_4089" data-name="Path 4089" d="M41.61,35.957c-.265.162-.523-.048-.791-.014s-.361.126-.318.388a3.8,3.8,0,0,1-.528,2.483,3.76,3.76,0,0,1-.77,1.028c-.188.169-.395.306-.581-.011.388-.082.592-.414.807-.692a3.963,3.963,0,0,0,.887-3.067c-.032-.226.069-.292.242-.35A1.233,1.233,0,0,1,41.61,35.957Z" fill="#063a38"/>
        <path id="Path_4090" data-name="Path 4090" d="M30.231,36.958a1.4,1.4,0,0,1,.606,1.163c-.005.183-.082.3-.27.279s-.206-.155-.144-.313c.1-.251-.059-.391-.235-.5a2.459,2.459,0,0,0-1.109-.414.882.882,0,0,1-.425-.121c.032-.245.176-.329.407-.336a1.654,1.654,0,0,1,.811.2C29.981,36.971,30.094,37.109,30.231,36.958Z" fill="#024b46"/>
        <path id="Path_4091" data-name="Path 4091" d="M32.709,40.713c-.149,0-.284.025-.309.217a10.915,10.915,0,0,1-1.57.777c-.1-.1-.128-.02-.151.068l-.3.092c-.1-.11-.13-.036-.153.06l-.148.014c-.174-.158-.341.064-.519.011-.117-.036-.286.043-.3-.176a7.691,7.691,0,0,0,2.846-1.138C32.361,40.471,32.535,40.476,32.709,40.713Z" fill="#023834"/>
        <path id="Path_4092" data-name="Path 4092" d="M36.151,36.64c.158.254.06.4-.2.466a4.776,4.776,0,0,0-.974.206c-.363.181-.775.316-.706.876.016.133-.05.261-.229.165a1.741,1.741,0,0,1,1.076-1.486C35.46,36.723,35.826,36.793,36.151,36.64Z" fill="#064e4b"/>
        <path id="Path_4093" data-name="Path 4093" d="M36.151,36.64c-.325.151-.693.082-1.029.229a1.744,1.744,0,0,0-1.076,1.486c-.247-.048-.222-.249-.2-.421A1.972,1.972,0,0,1,35.98,36.5C36.046,36.523,36.1,36.594,36.151,36.64Z" fill="#063a38"/>
        <path id="Path_4094" data-name="Path 4094" d="M24.545,35.954c-.293.028-.6-.078-.878.071a1.145,1.145,0,0,0-.7,1.147.2.2,0,0,1-.213-.251,1.223,1.223,0,0,1,1.627-1.15C24.463,35.806,24.552,35.838,24.545,35.954Z" fill="#023834"/>
        <path id="Path_4095" data-name="Path 4095" d="M30.231,36.958c-.137.151-.251.012-.359-.041a1.654,1.654,0,0,0-.811-.2c-.231.009-.375.091-.407.336-.137-.039-.226-.121-.19-.276a.373.373,0,0,1,.35-.3,1.623,1.623,0,0,1,1,.222C29.958,36.787,30.094,36.875,30.231,36.958Z" fill="#063a38"/>
        <path id="Path_4096" data-name="Path 4096" d="M25.743,32.189a.543.543,0,0,1,.6.005A.622.622,0,0,1,25.743,32.189Z" fill="#024b46"/>
        <path id="Path_4097" data-name="Path 4097" d="M41.463,29.963c.014-.124-.055-.3.169-.3C41.6,29.782,41.651,29.943,41.463,29.963Z" fill="#064e4b"/>
        <path id="Path_4098" data-name="Path 4098" d="M41.765,29.195c-.114-.1-.044-.135.053-.158A.137.137,0,0,1,41.765,29.195Z" fill="#064e4b"/>
        <path id="Path_4099" data-name="Path 4099" d="M30.231,41.927c.023-.1.053-.171.153-.06A.129.129,0,0,1,30.231,41.927Z" fill="#024b46"/>
        <path id="Path_4100" data-name="Path 4100" d="M30.679,41.774c.021-.089.046-.174.151-.068A.128.128,0,0,1,30.679,41.774Z" fill="#024b46"/>
        <path id="Path_4101" data-name="Path 4101" d="M28.736,29.808c-.11-.1-.037-.133.057-.156A.134.134,0,0,1,28.736,29.808Z" fill="#024b46"/>
        <path id="Path_4102" data-name="Path 4102" d="M27.949,24.578c-.11.007-.181-.03-.183-.156C27.826,24.475,27.888,24.527,27.949,24.578Z" fill="#063a38"/>
        <path id="Path_4103" data-name="Path 4103" d="M28.58,29.344a9.946,9.946,0,0,1-.485,1.275,2.286,2.286,0,0,1-2.828,1.139c-.32-.094-.631-.226-.946-.341a4.124,4.124,0,0,1-1.634-3.367c-.012-.156.011-.235.206-.187.617.149,1.239.281,1.859.411.183.037.16.142.137.283a3.616,3.616,0,0,0,.18,1.843,1.959,1.959,0,0,0,.128.277.828.828,0,0,0,.74.5c.309-.007.455-.281.6-.524a2.036,2.036,0,0,0,.2-1.042c0-.133-.05-.149-.181-.155a.425.425,0,0,1-.416-.54c.028-.19.1-.3.322-.247.629.155,1.26.3,1.893.432C28.482,29.138,28.585,29.179,28.58,29.344Z" fill="#449c9b"/>
        <path id="Path_4104" data-name="Path 4104" d="M41.635,28.045a7.213,7.213,0,0,1-.805,2.476,3.065,3.065,0,0,1-3.717,1.1A4.133,4.133,0,0,1,35.735,29.5c-.089-.236-.048-.366.242-.405a10.076,10.076,0,0,0,1.163-.263c.219-.057.293.009.286.24a3.593,3.593,0,0,0,.222,1.349,1.282,1.282,0,0,0,.508.69A.579.579,0,0,0,38.99,31a1.8,1.8,0,0,0,.386-1.358c0-.119-.078-.142-.178-.14a.368.368,0,0,1-.4-.4c.007-.252-.005-.6.3-.686.777-.22,1.568-.395,2.354-.585C41.626,27.789,41.6,27.943,41.635,28.045Z" fill="#449c9b"/>
      </g>
    </g>
    <circle id="Ellipse_104" data-name="Ellipse 104" cx="32" cy="32" r="32" transform="translate(-24190 -11019)" fill="#fff"/>
    <g id="Mask_Group_21" data-name="Mask Group 21" transform="translate(299 201.874)" clip-path="url(#clip-path-2)">
      <g id="polygon-matic-logo" transform="translate(-24476.975 -11206.542)">
        <path id="Path_4002" data-name="Path 4002" d="M30.434,10.808a2.646,2.646,0,0,0-2.519,0l-5.877,3.5-3.988,2.23-5.772,3.5a2.646,2.646,0,0,1-2.519,0L5.247,17.286a2.594,2.594,0,0,1-1.259-2.23V9.746a2.626,2.626,0,0,1,1.259-2.23L9.76,4.861a2.646,2.646,0,0,1,2.519,0l4.513,2.761a2.594,2.594,0,0,1,1.259,2.23v3.5l3.988-2.336V7.409a2.626,2.626,0,0,0-1.259-2.23L12.383.188a2.646,2.646,0,0,0-2.519,0l-8.605,5.1A2.34,2.34,0,0,0,0,7.409v9.982a2.626,2.626,0,0,0,1.259,2.23l8.5,4.991a2.646,2.646,0,0,0,2.519,0l5.772-3.4,3.988-2.336,5.772-3.4a2.646,2.646,0,0,1,2.519,0l4.513,2.655a2.594,2.594,0,0,1,1.259,2.23v5.31a2.626,2.626,0,0,1-1.259,2.23L30.434,30.56a2.646,2.646,0,0,1-2.519,0L23.4,27.905a2.594,2.594,0,0,1-1.259-2.23v-3.4l-3.988,2.336v3.5a2.626,2.626,0,0,0,1.259,2.23l8.5,4.991a2.646,2.646,0,0,0,2.519,0l8.5-4.991a2.594,2.594,0,0,0,1.259-2.23V18.029a2.626,2.626,0,0,0-1.259-2.23Z" transform="translate(0 0.131)" fill="#8247e5"/>
      </g>
    </g>
  </g>
</svg>
