<svg xmlns="http://www.w3.org/2000/svg" xmlns:xlink="http://www.w3.org/1999/xlink" width="113.69" height="64" viewBox="0 0 113.69 64">
  <defs>
    <clipPath id="clip-path">
      <ellipse id="Ellipse_1261" data-name="Ellipse 1261" cx="26.5" cy="25.5" rx="26.5" ry="25.5" transform="translate(-24483 -11213.874)" fill="#fff"/>
    </clipPath>
  </defs>
  <g id="Group_8897" data-name="Group 8897" transform="translate(-13491.31 -16170)">
    <g id="Group_8894" data-name="Group 8894" transform="translate(37721 25207)">
      <g id="Group_8852" data-name="Group 8852">
        <g id="metamask_logo_1_" data-name="metamask logo (1)" transform="translate(-24231.555 -9038.555)">
          <path id="Path_15407" data-name="Path 15407" d="M3.728,27.589l9.942-5.965,9.942,5.965V39.52L13.67,45.485,3.728,39.52Z" fill="#fff"/>
          <path id="Path_15408" data-name="Path 15408" d="M43.5,27.589l9.942-5.965,9.942,5.965V39.52l-9.942,5.965L43.5,39.52Z" fill="#fff"/>
          <path id="Path_15409" data-name="Path 15409" d="M33.554,9.693,43.5,3.728l9.942,5.965v11.93L43.5,27.589l-9.942-5.965Z" fill="#fff"/>
          <path id="Path_15410" data-name="Path 15410" d="M13.67,9.693l9.942-5.965,9.942,5.965v11.93l-9.942,5.965L13.67,21.624Z" fill="#fff"/>
          <path id="Path_15411" data-name="Path 15411" d="M23.612,27.589l9.942-5.965L43.5,27.589V39.52l9.942,5.965v11.93L43.5,63.38l-9.942-5.965L23.612,63.38,13.67,57.415V45.485l9.942-5.965Z" fill="#fff"/>
          <path id="Path_15412" data-name="Path 15412" d="M13.67,21.624,3.728,27.589V39.52l9.942,5.965m0-23.861,9.942,5.965M13.67,21.624V9.693l9.942-5.965,9.942,5.965M13.67,45.485l9.942-5.965V27.589m-9.942,17.9v11.93l9.942,5.965,9.942-5.965L43.5,63.38l9.942-5.965V45.485m-29.826-17.9,9.942-5.965m19.884,0L43.5,27.589m9.942-5.965,9.942,5.965V39.52l-9.942,5.965m0-23.861V9.693L43.5,3.728,33.554,9.693m9.942,17.9V39.52l9.942,5.965M43.5,27.589l-9.942-5.965m0-11.93v11.93" fill="none" stroke="#000" stroke-width="3.728"/>
        </g>
        <circle id="Ellipse_1133" data-name="Ellipse 1133" cx="32" cy="32" r="32" transform="translate(-24180 -9037)" fill="#fff"/>
        <g id="Mask_Group_187" data-name="Mask Group 187" transform="translate(309 2183.874)" clip-path="url(#clip-path)">
          <g id="polygon-matic-logo" transform="translate(-24476.975 -11206.542)">
            <path id="Path_15346" data-name="Path 15346" d="M30.434,10.808a2.646,2.646,0,0,0-2.519,0l-5.877,3.5-3.988,2.23-5.772,3.5a2.646,2.646,0,0,1-2.519,0L5.247,17.286a2.594,2.594,0,0,1-1.259-2.23V9.746a2.626,2.626,0,0,1,1.259-2.23L9.76,4.861a2.646,2.646,0,0,1,2.519,0l4.513,2.761a2.594,2.594,0,0,1,1.259,2.23v3.5l3.988-2.336V7.409a2.626,2.626,0,0,0-1.259-2.23L12.383.188a2.646,2.646,0,0,0-2.519,0l-8.605,5.1A2.34,2.34,0,0,0,0,7.409v9.982a2.626,2.626,0,0,0,1.259,2.23l8.5,4.991a2.646,2.646,0,0,0,2.519,0l5.772-3.4,3.988-2.336,5.772-3.4a2.646,2.646,0,0,1,2.519,0l4.513,2.655a2.594,2.594,0,0,1,1.259,2.23v5.31a2.626,2.626,0,0,1-1.259,2.23L30.434,30.56a2.646,2.646,0,0,1-2.519,0L23.4,27.905a2.594,2.594,0,0,1-1.259-2.23v-3.4l-3.988,2.336v3.5a2.626,2.626,0,0,0,1.259,2.23l8.5,4.991a2.646,2.646,0,0,0,2.519,0l8.5-4.991a2.594,2.594,0,0,0,1.259-2.23V18.029a2.626,2.626,0,0,0-1.259-2.23Z" transform="translate(0 0.131)" fill="#8247e5"/>
          </g>
        </g>
      </g>
    </g>
  </g>
</svg>
