<svg xmlns="http://www.w3.org/2000/svg" xmlns:xlink="http://www.w3.org/1999/xlink" width="114" height="64" viewBox="0 0 114 64">
  <defs>
    <clipPath id="clip-path">
      <ellipse id="Ellipse_144" data-name="Ellipse 144" cx="26.5" cy="25.5" rx="26.5" ry="25.5" transform="translate(-24483 -11213.874)" fill="#fff"/>
    </clipPath>
  </defs>
  <g id="Group_3453" data-name="Group 3453" transform="translate(24392 9969)">
    <circle id="Ellipse_103" data-name="Ellipse 103" cx="32" cy="32" r="32" transform="translate(-24392 -9969)" fill="#fff"/>
    <g id="svgexport-16" transform="translate(-24393.6 -9972)">
      <circle id="Ellipse_140" data-name="Ellipse 140" cx="32" cy="32" r="32" transform="translate(1.599 3)" fill="#8247e5"/>
      <path id="Path_4608" data-name="Path 4608" d="M130.69,34.65l5.676,2.022,3.343,3.654.854,4.9-4.586-1.088-3.032-3.419Z" transform="translate(-108.091 -26.501)" fill="#fff"/>
      <g id="Group_3445" data-name="Group 3445" transform="translate(15.878 20.017)">
        <path id="Path_4609" data-name="Path 4609" d="M235.633,214.269l-.776-1.244-2.461-3.945c-.488-.787-1.083-1.573-1.527-2.4q-2.419,2.635-4.84,5.267l-2.889,3.141c-.112.122-.249.309-.4.5l.172.111.794-.089Z" transform="translate(-201.044 -190.564)" fill="#fff"/>
        <path id="Path_4610" data-name="Path 4610" d="M199.124,200.4c-.234-.013-.529,0-.8,0a.267.267,0,0,1,.01.026q1.531,4.662,3.057,9.326l.418.267c1.36-1.627,2.928-3.128,4.355-4.68l3.959-4.308-4.53-.264Z" transform="translate(-180.597 -185.301)" fill="#fff"/>
        <path id="Path_4611" data-name="Path 4611" d="M118.952,257.349c-.345-.036-.714-.122-.986-.146l-3.7-.324L100.44,255.69l5.3,4.108,6.629,5.127c.078.06.163.12.246.181l4.566-5.555C117.765,258.841,118.314,258.026,118.952,257.349Z" transform="translate(-98.639 -231.601)" fill="#fff"/>
        <path id="Path_4612" data-name="Path 4612" d="M148.118,158.195c.078-.265.2-.54.265-.763l.823-2.816q.551-1.884,1.1-3.766c-.864.028-1.757.192-2.6.273l-8.7.826,3.624,2.481,5.17,3.54C147.9,158.043,148.01,158.121,148.118,158.195Z" transform="translate(-130.927 -143.816)" fill="#fff"/>
        <path id="Path_4613" data-name="Path 4613" d="M133.023,160.452l-.579,4.426c-.073.558-.068,1.261-.194,1.869l4.667-.306c1.641-.109,3.305-.3,4.953-.348-.093-.075-.184-.145-.27-.2l-8.529-5.838C133.055,160.185,133.039,160.318,133.023,160.452Z" transform="translate(-125.275 -151.519)" fill="#fff"/>
        <path id="Path_4614" data-name="Path 4614" d="M139.622,125.5c-.041.068-.081.14-.122.21l3.263-.309,6.019-.571c.488-.046.976-.125,1.48-.171L142.89,120.1l-.054.075-.9,1.484Z" transform="translate(-131.345 -118.068)" fill="#fff"/>
        <path id="Path_4615" data-name="Path 4615" d="M201.217,318.871c.142-.184.281-.418.438-.626l-5.957-.285-10.478-.5c-1.529-.073-3.083-.225-4.62-.257.69.441,1.446.882,2.149,1.318l12.674,7.868a8.334,8.334,0,0,1,.563-.688Z" transform="translate(-165.759 -283.106)" fill="#fff"/>
        <path id="Path_4616" data-name="Path 4616" d="M146.315,208.991c-.023-.088-.047-.174-.073-.254q-.93-2.835-1.858-5.669l-.769-2.347c-.07-.213-.2-.475-.265-.721a2.635,2.635,0,0,1-.283.036l-9.726.638,3.118,2Z" transform="translate(-126.187 -184.971)" fill="#fff"/>
        <path id="Path_4617" data-name="Path 4617" d="M241,263.479l-.6-4.617-.247-1.88c-.033-.242-.109-.529-.13-.792l-1.31.148-10.964,1.233,4.075,2.611,9.5,6.089C241.159,265.355,241.12,264.381,241,263.479Z" transform="translate(-205.239 -232.02)" fill="#fff"/>
        <path id="Path_4618" data-name="Path 4618" d="M159.706,119.933l-.021-.013C159.588,119.941,159.635,119.948,159.706,119.933Z" transform="translate(-148.2 -117.917)" fill="#fff"/>
        <path id="Path_4619" data-name="Path 4619" d="M199.889,274.219l-2.975-1.907-11.081-7.1-.73.083a3.8,3.8,0,0,1-.361.421l-2.4,2.92-3.741,4.555c2.033.033,4.08.208,6.11.306Z" transform="translate(-164.085 -239.573)" fill="#fff"/>
        <path id="Path_4620" data-name="Path 4620" d="M93.723,322.01l2.593,3.5c.163.223.384.455.553.7l4.965-6.05,2.385-2.9c-2.243.065-4.511.363-6.743.529L91,318.275c.1.163.19.317.236.377Z" transform="translate(-90.735 -283.156)" fill="#fff"/>
        <path id="Path_4621" data-name="Path 4621" d="M136.944,329.594l3.683.958.163.037q-1.843-5.915-3.688-11.829l-7.341,8.934c.874.146,1.78.488,2.622.714Z" transform="translate(-123.19 -284.412)" fill="#fff"/>
        <path id="Path_4622" data-name="Path 4622" d="M182.025,330.778l8.005-2.055c.875-.226,1.757-.5,2.643-.7l-5.129-3.184-8.021-4.978c-.488-.307-.976-.608-1.453-.919q1.854,5.944,3.707,11.89C181.862,330.809,181.951,330.8,182.025,330.778Z" transform="translate(-163.641 -284.562)" fill="#fff"/>
        <path id="Path_4623" data-name="Path 4623" d="M90.5,259.488l-1.127,8.221,8.108-.607c1.723-.13,3.486-.374,5.223-.428-.133-.1-.267-.2-.4-.3L90.74,257.43C90.611,258.1,90.587,258.824,90.5,259.488Z" transform="translate(-89.37 -233.058)" fill="#fff"/>
        <path id="Path_4624" data-name="Path 4624" d="M219.241,123.754l-.976-1.464L213.9,126.5c2.6.2,5.206.6,7.808.926h0Z" transform="translate(-193.642 -119.902)" fill="#fff"/>
        <path id="Path_4625" data-name="Path 4625" d="M211.524,159.964c-.039-.26-.062-.535-.1-.8l-3.59,2.16-5.762,3.465c-.325.2-.641.418-.958.6.353.016.709.018,1.053.037l10.248.581c-.112-.517-.13-1.092-.2-1.576Z" transform="translate(-182.933 -150.774)" fill="#fff"/>
        <path id="Path_4626" data-name="Path 4626" d="M200.768,150.88l-1.362,4.665-.747,2.554,1.814-1.092,8.552-5.144-4.01-.477C203.625,151.225,202.174,150.924,200.768,150.88Z" transform="translate(-180.882 -143.841)" fill="#fff"/>
        <path id="Path_4627" data-name="Path 4627" d="M170.046,107.61l-2.647.813c-1.054.325-2.142.766-3.229,1.038l7.506,4.631,4.48-4.324c-1.139-.291-2.277-.826-3.371-1.205Z" transform="translate(-152.002 -107.61)" fill="#fff"/>
        <path id="Path_4628" data-name="Path 4628" d="M100.822,211.975q-.468.716-.934,1.432l-.059.086,5.437.467,9.336.8,3.362.288c.2.018.433.01.651.034a3.253,3.253,0,0,1-.171-.475l-3.8-2.44-9.812-6.291a25.334,25.334,0,0,1-1.464,2.194Z" transform="translate(-98.128 -189.894)" fill="#fff"/>
      </g>
      <path id="Path_4629" data-name="Path 4629" d="M198.469,31.421a6.9,6.9,0,0,0,1.728-.05c.085-1.27.163-2.539.259-3.808a.976.976,0,0,1,.192-.5q1.819-2.521,3.615-5.056a1.453,1.453,0,0,1,.714-.548c1.109-.425,2.207-.88,3.315-1.3.229-.088.29-.2.2-.416-.207-.467-.413-.932-.613-1.4-.1-.231-.244-.249-.446-.133-1.446.813-2.894,1.627-4.337,2.46a1.03,1.03,0,0,0-.27.3q-1.651,2.26-3.3,4.527a1.55,1.55,0,0,0-.242.55c-.275,1.106-.587,2.2-.878,3.3a4.1,4.1,0,0,0,.013,1.066C198.417,30.76,198.451,31.081,198.469,31.421Z" transform="translate(-164.758 -12.671)" fill="#fff"/>
    </g>
    <circle id="Ellipse_104" data-name="Ellipse 104" cx="32" cy="32" r="32" transform="translate(-24342 -9969)" fill="#fff"/>
    <g id="Mask_Group_42" data-name="Mask Group 42" transform="translate(147 1251.874)" clip-path="url(#clip-path)">
      <g id="polygon-matic-logo" transform="translate(-24476.975 -11206.542)">
        <path id="Path_4678" data-name="Path 4678" d="M30.434,10.808a2.646,2.646,0,0,0-2.519,0l-5.877,3.5-3.988,2.23-5.772,3.5a2.646,2.646,0,0,1-2.519,0L5.247,17.286a2.594,2.594,0,0,1-1.259-2.23V9.746a2.626,2.626,0,0,1,1.259-2.23L9.76,4.861a2.646,2.646,0,0,1,2.519,0l4.513,2.761a2.594,2.594,0,0,1,1.259,2.23v3.5l3.988-2.336V7.409a2.626,2.626,0,0,0-1.259-2.23L12.383.188a2.646,2.646,0,0,0-2.519,0l-8.605,5.1A2.34,2.34,0,0,0,0,7.409v9.982a2.626,2.626,0,0,0,1.259,2.23l8.5,4.991a2.646,2.646,0,0,0,2.519,0l5.772-3.4,3.988-2.336,5.772-3.4a2.646,2.646,0,0,1,2.519,0l4.513,2.655a2.594,2.594,0,0,1,1.259,2.23v5.31a2.626,2.626,0,0,1-1.259,2.23L30.434,30.56a2.646,2.646,0,0,1-2.519,0L23.4,27.905a2.594,2.594,0,0,1-1.259-2.23v-3.4l-3.988,2.336v3.5a2.626,2.626,0,0,0,1.259,2.23l8.5,4.991a2.646,2.646,0,0,0,2.519,0l8.5-4.991a2.594,2.594,0,0,0,1.259-2.23V18.029a2.626,2.626,0,0,0-1.259-2.23Z" transform="translate(0 0.131)" fill="#8247e5"/>
      </g>
    </g>
  </g>
</svg>
