<svg xmlns="http://www.w3.org/2000/svg" xmlns:xlink="http://www.w3.org/1999/xlink" width="116" height="64" viewBox="0 0 116 64">
  <defs>
    <style>
      .cls-1 {
        fill: #fff;
      }

      .cls-2 {
        fill: #7f46f0;
      }

      .cls-2, .cls-3, .cls-4, .cls-5 {
        fill-rule: evenodd;
      }

      .cls-3 {
        fill: #d34fa0;
      }

      .cls-4 {
        fill: #0aa5e8;
      }

      .cls-5 {
        fill: #38e4de;
      }

      .cls-6 {
        clip-path: url(#clip-path);
      }

      .cls-7 {
        fill: #8247e5;
      }
    </style>
    <clipPath id="clip-path">
      <ellipse id="Ellipse_892" data-name="Ellipse 892" class="cls-1" cx="26.5" cy="25.5" rx="26.5" ry="25.5"/>
    </clipPath>
  </defs>
  <g id="Group_10861" data-name="Group 10861" transform="translate(-17194 23990)">
    <circle id="Ellipse_1707" data-name="Ellipse 1707" class="cls-1" cx="32" cy="32" r="32" transform="translate(17194 -23990)"/>
    <g id="Layer_x0020_1" transform="translate(17201.092 -23982.908)">
      <g id="_2302127387760">
        <path id="Path_17415" data-name="Path 17415" class="cls-2" d="M75.509,178.873v6.961a12.1,12.1,0,0,1-12.082,12.082H55.183v-9.163h8.08a3.089,3.089,0,0,0,3.083-3.083v-8.08h9.163Z" transform="translate(-46.019 -148.1)"/>
        <path id="Path_17416" data-name="Path 17416" class="cls-3" d="M19.043,122.408H12.082A12.1,12.1,0,0,0,0,134.49v8.244H9.164v-8.08a3.089,3.089,0,0,1,3.083-3.083h8.08v-9.163Z" transform="translate(0 -102.082)"/>
        <path id="Path_17417" data-name="Path 17417" class="cls-4" d="M178.873,75.509h6.961a12.1,12.1,0,0,0,12.082-12.082V55.183h-9.163v8.08a3.089,3.089,0,0,1-3.083,3.083h-8.08v9.163Z" transform="translate(-148.1 -46.019)"/>
        <path id="Path_17418" data-name="Path 17418" class="cls-5" d="M122.408,19.043V12.082A12.1,12.1,0,0,1,134.49,0h8.244V9.164h-8.08a3.089,3.089,0,0,0-3.083,3.083v8.08h-9.163Z" transform="translate(-102.082)"/>
      </g>
    </g>
    <g id="Group_10860" data-name="Group 10860" transform="translate(17246 -23990)">
      <circle id="Ellipse_830" data-name="Ellipse 830" class="cls-1" cx="32" cy="32" r="32"/>
      <g id="Mask_Group_97" data-name="Mask Group 97" class="cls-6" transform="translate(5 7)">
        <g id="polygon-matic-logo" transform="translate(6.025 7.332)">
          <path id="Path_9616" data-name="Path 9616" class="cls-7" d="M30.434,10.808a2.646,2.646,0,0,0-2.519,0l-5.877,3.5-3.988,2.23-5.772,3.5a2.646,2.646,0,0,1-2.519,0L5.247,17.286a2.594,2.594,0,0,1-1.259-2.23V9.746a2.626,2.626,0,0,1,1.259-2.23L9.76,4.861a2.646,2.646,0,0,1,2.519,0l4.513,2.761a2.594,2.594,0,0,1,1.259,2.23v3.5l3.988-2.336V7.409a2.626,2.626,0,0,0-1.259-2.23L12.383.188a2.646,2.646,0,0,0-2.519,0l-8.605,5.1A2.34,2.34,0,0,0,0,7.409v9.982a2.626,2.626,0,0,0,1.259,2.23l8.5,4.991a2.646,2.646,0,0,0,2.519,0l5.772-3.4,3.988-2.336,5.772-3.4a2.646,2.646,0,0,1,2.519,0l4.513,2.655a2.594,2.594,0,0,1,1.259,2.23v5.31a2.626,2.626,0,0,1-1.259,2.23L30.434,30.56a2.646,2.646,0,0,1-2.519,0L23.4,27.905a2.594,2.594,0,0,1-1.259-2.23v-3.4l-3.988,2.336v3.5a2.626,2.626,0,0,0,1.259,2.23l8.5,4.991a2.646,2.646,0,0,0,2.519,0l8.5-4.991a2.594,2.594,0,0,0,1.259-2.23V18.029a2.626,2.626,0,0,0-1.259-2.23Z" transform="translate(0 0.131)"/>
        </g>
      </g>
    </g>
  </g>
</svg>
