<svg xmlns="http://www.w3.org/2000/svg" xmlns:xlink="http://www.w3.org/1999/xlink" width="114" height="64" viewBox="0 0 114 64">
  <defs>
    <style>
      .cls-1 {
        fill: #fff;
      }

      .cls-2 {
        fill: #141124;
      }

      .cls-3 {
        clip-path: url(#clip-path);
      }

      .cls-4 {
        fill: #16113d;
      }

      .cls-5 {
        fill: #16103d;
      }

      .cls-6 {
        fill: #161139;
      }

      .cls-7 {
        fill: #1c154e;
      }

      .cls-8 {
        fill: #1b184d;
      }

      .cls-9 {
        fill: #1f1953;
      }

      .cls-10 {
        fill: #181041;
      }

      .cls-11 {
        fill: #231d58;
      }

      .cls-12 {
        fill: #1a1245;
      }

      .cls-13 {
        fill: #191146;
      }

      .cls-14 {
        fill: #14112a;
      }

      .cls-15 {
        fill: #161135;
      }

      .cls-16 {
        fill: #161130;
      }

      .cls-17 {
        fill: #161337;
      }

      .cls-18 {
        fill: #41c2ec;
      }

      .cls-19 {
        fill: #40bfe9;
      }

      .cls-20 {
        fill: #16163a;
      }

      .cls-21 {
        fill: #191648;
      }

      .cls-22 {
        fill: #202d61;
      }

      .cls-23 {
        fill: #151432;
      }

      .cls-24 {
        fill: #172750;
      }

      .cls-25 {
        clip-path: url(#clip-path-2);
      }

      .cls-26 {
        clip-path: url(#clip-path-3);
      }

      .cls-27 {
        fill: #53ae94;
      }
    </style>
    <clipPath id="clip-path">
      <circle id="Ellipse_2017" data-name="Ellipse 2017" class="cls-1" cx="32" cy="32" r="32" transform="translate(-21146 -22186)"/>
    </clipPath>
    <clipPath id="clip-path-2">
      <circle id="Ellipse_1889" data-name="Ellipse 1889" class="cls-1" cx="32" cy="32" r="32" transform="translate(-20929 -22253)"/>
    </clipPath>
    <clipPath id="clip-path-3">
      <circle id="Ellipse_1825" data-name="Ellipse 1825" class="cls-1" cx="32" cy="32" r="32" transform="translate(-23439 -23605)"/>
    </clipPath>
  </defs>
  <g id="Group_820" data-name="Group 820" transform="translate(20979 22253)">
    <circle id="Ellipse_1888" data-name="Ellipse 1888" class="cls-1" cx="32" cy="32" r="32" transform="translate(-20979 -22253)"/>
    <circle id="Ellipse_2016" data-name="Ellipse 2016" class="cls-2" cx="32" cy="32" r="32" transform="translate(-20979 -22253)"/>
    <g id="Mask_Group_138" data-name="Mask Group 138" class="cls-3" transform="translate(167 -67)">
      <g id="snx" transform="translate(-21145.998 -22185.852)">
        <path id="Path_19304" data-name="Path 19304" class="cls-2" d="M198.95,41.071h5.9a1.47,1.47,0,0,0,.454.227,31.833,31.833,0,0,1,16.775,6.846c1.062.853,2.01,1.845,3.011,2.773-.243.865-.594,1.47-1.666.908-.238-.123-.626.041-.946.077a5.137,5.137,0,0,1-.821.1,26.962,26.962,0,0,0-2.723-.163c-1.028.054-2.042.454-3.063.4a22.2,22.2,0,0,1-3.224-.744,2.37,2.37,0,0,0-.874.116,13.153,13.153,0,0,1-2.625.454c-2.326-.05-4.647-.311-6.973-.354-1.892-.036-3.823.37-5.673.116-1.913-.261-3.746.431-5.7-.043-1.4-.34-3,.227-4.518.3a19.239,19.239,0,0,1-2.95-.177c-.8-.088-1.575-.322-2.371-.415-.724-.086-1.461-.075-2.192-.1a30.355,30.355,0,0,1,15.335-9.2C195.694,41.776,197.328,41.445,198.95,41.071Z" transform="translate(-170.133 -41.073)"/>
        <path id="Path_19305" data-name="Path 19305" class="cls-4" d="M234.121,76.353l-.277.227c-.136-.125-.349-.383-.395-.356-1.271.749-2.48-.206-3.735-.116a38.476,38.476,0,0,1-6.7.182c-1.954-.2-3.842.479-5.838-.066-1.287-.349-2.807.154-4.221.27a6.9,6.9,0,0,1-.892.041c-.83-.041-1.661-.1-2.5-.159l-3.329-3.83,1.039-.747c.44.138.908.442,1.316.381.987-.145,1.949-.572,2.866.227a.876.876,0,0,0,.542.093c1.443-.061,2.886-.127,4.329-.206.329-.02.815.011.955-.179.878-1.2,1.627-.908,2.235.029a4.4,4.4,0,0,1,1.427-.454c1.341.066,2.673.3,4.014.379,1.985.118,3.978.179,5.965.227.554.014,1.11-.152,1.666-.193.5-.039,1.012-.016,1.518-.02Z" transform="translate(-170.133 -41.073)"/>
        <path id="Path_19306" data-name="Path 19306" class="cls-5" d="M170.561,77.081l-.429-.728v-4.3c.536.776,1.087.1,1.656.077a37.272,37.272,0,0,1,4.854.113c1.872.166,3.857.481,5.525-.288a6.558,6.558,0,0,1,3.547-.318c.924.07,1.967-.03,2.707.835.141.163.6.1.908.068a15.178,15.178,0,0,1,1.534-.247c2.4-.014,4.8.02,7.2.036l-3.358,4.05c-2.988-.086-5.975-.166-8.963-.259-1.221-.039-2.439-.163-3.66-.154-3.517.03-7.034.134-10.551.145C170.768,76.119,170.507,76.38,170.561,77.081Z" transform="translate(-170.133 -41.073)"/>
        <path id="Path_19307" data-name="Path 19307" class="cls-6" d="M234.121,72.055c-.506,0-1.014-.018-1.518.02-.556.041-1.112.206-1.666.193-1.988-.043-3.98-.1-5.965-.227-1.341-.082-2.673-.313-4.014-.379a4.765,4.765,0,0,0-1.427.454c-.608-.93-1.361-1.225-2.235-.029-.141.191-.626.159-.955.179-1.443.079-2.886.145-4.329.206a.876.876,0,0,1-.531-.088c-.908-.79-1.879-.363-2.866-.227-.411.061-.876-.243-1.316-.381h.018c.958.1.908-.565.921-1.191a.091.091,0,0,1,.084-.125l.152-.184.048-.057.184-.193.023-.027.2-.227h0l.227-.256,1.815-2.228c.052.347.107.694.159,1.044l1.55-.4a4.462,4.462,0,0,0,1.085.213c1.01-.059,2.015-.284,3.022-.288,2.149,0,4.311.057,6.451.136,1.314.05,2.623.166,3.932.284,1.135.1,2.339.54,3.385.295a2.42,2.42,0,0,1,2.8.717c.068-.817.109-1.33.152-1.84q.313,1.171.624,2.346Z" transform="translate(-170.133 -41.073)"/>
        <path id="Path_19308" data-name="Path 19308" class="cls-6" d="M198.065,72.332c-2.4-.016-4.8-.05-7.2-.036a14.565,14.565,0,0,0-1.534.247c-.3.032-.765.1-.908-.068-.74-.865-1.784-.765-2.707-.835a6.558,6.558,0,0,0-3.547.318c-1.677.769-3.653.454-5.525.288a37.274,37.274,0,0,0-4.854-.113c-.57.025-1.121.7-1.656-.077V69.786l.511-1.8c.1.345.211.692.383,1.255.867-.034,1.754-.1,2.644-.1,1.856,0,3.724-.052,5.571.111,2.324.2,4.652-.054,6.984.177.681.068,1.588-.2,2.428-.123a16.376,16.376,0,0,0,3.937.1c.565-.082,1.845.781,1.849-.792l1.023-.227c.624.1,1.241.245,1.87.3s1.293.036,1.94.048c.415.515,1.082-.849,1.277.556l-1.867,2.308-.17.2-.052.041-.175.206-.011.018-.206.227Z" transform="translate(-170.133 -41.073)"/>
        <path id="Path_19309" data-name="Path 19309" class="cls-7" d="M180.276,96.056l-4.311-4.978c.429-.091,1.055-.034,1.253-.3.771-1.023,1.554-.713,2.339-.154a1.354,1.354,0,0,0,1.752.048,2.748,2.748,0,0,1,1.048-.293c.8-.143,1.609-.286,2.419-.374a15.046,15.046,0,0,1,1.568-.016c2,0,4.007-.014,6.009-.027,1.1,0,2.192-.082,3.283-.027.524.027,1.046.44,1.554.413,3.288-.177,6.567.261,9.882-.329,2.042-.363,4.25.331,6.381.322,2.573-.014,5.142-.265,7.715-.422.921-.054,1.84-.172,2.759-.163a1.246,1.246,0,0,1,.921.49c.347.595.649.7,1.262.34a5.594,5.594,0,0,1,1.436-.379l.238,1.561-3.317,3.839c-1.561-.061-3.125-.175-4.688-.17-3.338.014-6.676.123-10.014.132q-12.305.03-24.608,0a14.576,14.576,0,0,0-1.786-.138C182.329,95.561,181.3,95.838,180.276,96.056Z" transform="translate(-170.133 -41.073)"/>
        <path id="Path_19310" data-name="Path 19310" class="cls-8" d="M227.784,91.769l-.238-1.561a5.594,5.594,0,0,0-1.436.379c-.613.356-.908.254-1.262-.34a1.246,1.246,0,0,0-.921-.49c-.919,0-1.838.109-2.759.163-2.571.157-5.14.408-7.715.422-2.131,0-4.339-.681-6.381-.322-3.315.59-6.594.152-9.882.329-.508.027-1.03-.386-1.554-.413-1.091-.054-2.187.02-3.283.027-2,.014-4,.018-6.009.027a15.049,15.049,0,0,0-1.568.016c-.81.088-1.616.227-2.419.374a2.754,2.754,0,0,0-1.048.293,1.354,1.354,0,0,1-1.752-.048c-.785-.558-1.568-.869-2.339.154-.2.263-.824.206-1.253.3l-2.857-4.992,1.012-.454c2.108.545,4.2.824,6.222-.191l1.121,1.234V81.322c-.039-.781.433-.908,1.087-.908q3.771.025,7.54,0a7.785,7.785,0,0,0,1.3-.227c-.454.227-.889.626-1.341.635-2.707.061-5.416.032-8.264.032,0,1.954-.032,3.789.043,5.623,0,.2.624.542.964.549,2.417.048,4.835-.03,7.261.041a9.021,9.021,0,0,0,5.739-1.629c.159.869.595,1.212,1.493.869a2.541,2.541,0,0,1,.93-.03c.393,0,.785.077,1.178.061a21.593,21.593,0,0,1,3.147-.127c1.089.12,2.131.692,3.238.014.193-.118.574.025.853.1,1.037.279,1.489-.02,1.638-1.112a7.868,7.868,0,0,0,4.652,1.815c2.909.032,5.82,0,8.729.029.71,0,.908-.268.908-.933-.032-1.731,0-3.465-.014-5.2l.277.613c0,1.135-.073,2.269.011,3.379.027.377.386.989.681,1.042a23.372,23.372,0,0,0,3.245.263c1.43.057,2.861.07,4.291.1Q229.406,89.051,227.784,91.769Z" transform="translate(-170.133 -41.073)"/>
        <path id="Path_19311" data-name="Path 19311" class="cls-9" d="M180.276,96.056c1.03-.227,2.042-.495,3.1-.626a14.576,14.576,0,0,1,1.786.138q12.3.016,24.608,0c3.338,0,6.676-.118,10.014-.132,1.563,0,3.127.109,4.688.17a26.248,26.248,0,0,1-8.459,5.9,6.781,6.781,0,0,0-2.11-.874c-1.774-.079-3.565.182-5.337.1-1.407-.068-2.768.309-4.241-.029-1.307-.3-2.793.157-4.2.295a3.047,3.047,0,0,0-.867.2c-1.513.642-2.932.027-4.373-.3a4.647,4.647,0,0,0-1.468-.259c-.649.075-1.461.7-1.872.479-1.284-.681-2.283-.211-3.342.361a24.94,24.94,0,0,1-7.921-5.416Z" transform="translate(-170.133 -41.073)"/>
        <path id="Path_19312" data-name="Path 19312" class="cls-10" d="M222.8,81.547c-.091-.2-.184-.408-.277-.613v-.011c-.334-.163-.665-.465-1-.467-2.843-.032-5.686,0-8.532,0h0l-.536-.481-2.886-3.612c.83.054,1.661.118,2.5.159a6.9,6.9,0,0,0,.892-.041c1.414-.116,2.934-.619,4.221-.27,2,.545,3.885-.136,5.838.066a38.477,38.477,0,0,0,6.7-.182c1.255-.091,2.464.865,3.735.116.045-.027.259.227.395.356q-.753,3.206-1.5,6.417c-.148-1.377-.363-1.541-1.709-1.293a2.12,2.12,0,0,1-.442.061Q226.495,81.66,222.8,81.547Z" transform="translate(-170.133 -41.073)"/>
        <path id="Path_19313" data-name="Path 19313" class="cls-10" d="M191.39,80.188a7.852,7.852,0,0,1-1.3.227q-3.771.034-7.54,0c-.654,0-1.135.125-1.087.908a10.967,10.967,0,0,0-1.913-.4c-.771-.032-1.552.141-2.33.179-1.954.091-3.91.157-5.863.227l-.8-4.248c-.054-.7.206-.962.971-.967,3.517-.011,7.034-.116,10.551-.145,1.221,0,2.439.116,3.66.154,2.988.093,5.975.172,8.963.259Z" transform="translate(-170.133 -41.073)"/>
        <path id="Path_19314" data-name="Path 19314" class="cls-11" d="M188.2,101.486c1.06-.572,2.058-1.051,3.342-.361.411.227,1.223-.4,1.872-.479a4.646,4.646,0,0,1,1.468.259c1.441.329,2.859.944,4.373.3a3.047,3.047,0,0,1,.867-.2c1.407-.138,2.893-.6,4.2-.295,1.473.338,2.834-.039,4.241.029,1.772.084,3.563-.177,5.337-.1a6.781,6.781,0,0,1,2.11.874c-1.384.513-2.748,1.1-4.159,1.518a36.647,36.647,0,0,1-5.7,1.45A29.838,29.838,0,0,1,188.2,101.486Z" transform="translate(-170.133 -41.073)"/>
        <path id="Path_19315" data-name="Path 19315" class="cls-12" d="M171.358,81.329c1.954-.075,3.91-.141,5.863-.227.778-.039,1.559-.211,2.33-.179a10.968,10.968,0,0,1,1.913.4V86.68l-1.121-1.234c-2.022,1.014-4.114.735-6.222.191l-1.012.454Q172.225,83.7,171.358,81.329Z" transform="translate(-170.133 -41.073)"/>
        <path id="Path_19316" data-name="Path 19316" class="cls-13" d="M222.8,81.547q3.692.109,7.388.211a2.119,2.119,0,0,0,.442-.061c1.346-.247,1.561-.084,1.709,1.293q-.658,1.67-1.316,3.345c-1.43-.034-2.861-.048-4.291-.1a23.372,23.372,0,0,1-3.245-.263c-.29-.052-.649-.665-.681-1.042C222.73,83.807,222.8,82.675,222.8,81.547Z" transform="translate(-170.133 -41.073)"/>
        <path id="Path_19317" data-name="Path 19317" class="cls-14" d="M174.426,57.3l4.325-5.9c.731.029,1.468.018,2.192.1.8.093,1.575.327,2.371.415a19.24,19.24,0,0,0,2.95.177c1.516-.066,3.122-.64,4.518-.3,1.949.474,3.783-.227,5.7.043,1.852.254,3.783-.152,5.673-.116,2.326.043,4.647.3,6.973.354a14.205,14.205,0,0,0,2.625-.454,2.37,2.37,0,0,1,.874-.116,22.812,22.812,0,0,0,3.224.744,28.69,28.69,0,0,0,3.063-.4,26.726,26.726,0,0,1,2.723.163,5.138,5.138,0,0,0,.821-.1c.32-.036.708-.2.946-.077,1.071.551,1.423-.054,1.666-.908l4.749,6.394c-.129.159-.227.438-.388.454a21.282,21.282,0,0,1-2.544.261c-1.527.041-3.056.014-4.586.016q-4.52,0-9.038.011a6.743,6.743,0,0,0-1.182.213l-2.523.892c-.256-.318-.515-.633-.908-1.121h-3.857c-.908,0-1.913-.252-2.462.869-.079.161-.47.227-.719.243-1.409.073-2.823.188-4.23.134a7.494,7.494,0,0,1-1.945-.638l-.681.547-.066.016-.036-.057c-.268-1.327-.542-1.475-1.752-.96a2.512,2.512,0,0,1-.545.1h0a2.782,2.782,0,0,0-.8-.259q-4.4-.027-8.8,0a3.147,3.147,0,0,0-.812.238h0l-.238-.02h-.227c-1.361-.036-2.723-.018-4.084-.127C176.368,58.048,175.15,58.52,174.426,57.3Z" transform="translate(-170.133 -41.073)"/>
        <path id="Path_19318" data-name="Path 19318" class="cls-15" d="M233.49,67.449c-.043.511-.084,1.023-.152,1.84a2.42,2.42,0,0,0-2.8-.717c-1.046.245-2.249-.193-3.385-.295-1.309-.118-2.619-.227-3.932-.284-2.149-.079-4.311-.145-6.451-.136-1.007,0-2.013.227-3.022.288a4.07,4.07,0,0,1-1.085-.213l-1.55.4c-.052-.349-.107-.7-.159-1.044l.145-.243.331-.193.522-.887.837-.908h0l.227-.2.029-.018c2.7,0,5.407,0,8.11-.025a6.127,6.127,0,0,0,1.159-.227h0l.5-.681c2.875,0,5.75.014,8.623,0a4.613,4.613,0,0,0,1.135-.29Q233.037,65.529,233.49,67.449Z" transform="translate(-170.133 -41.073)"/>
        <path id="Path_19319" data-name="Path 19319" class="cls-16" d="M232.583,63.61a4.771,4.771,0,0,1-1.135.29c-2.875.023-5.75.011-8.623,0,0-1.568,0-3.136-.048-4.7-.011-.311-.309-.613-.474-.908h0l.018-.259c1.529,0,3.059.025,4.586-.016a21.282,21.282,0,0,0,2.544-.261c.15-.02.259-.3.388-.454Z" transform="translate(-170.133 -41.073)"/>
        <path id="Path_19320" data-name="Path 19320" class="cls-17" d="M181.478,58.257h.227c.011.088.02.179.029.268,0,1.693.016,3.383-.016,5.076-.014.715.227.992.978.976,2.11-.043,4.236.123,6.333-.054a3.506,3.506,0,0,1,3.823,2.235l.454.517h0l.227.227h0l.184.227.043.057.152.177.538.656c0,1.572-1.284.71-1.849.792a16.376,16.376,0,0,1-3.937-.1c-.846-.082-1.738.191-2.428.123-2.333-.227-4.661.025-6.984-.177-1.847-.163-3.715-.1-5.571-.111-.889,0-1.777.064-2.644.1-.172-.563-.279-.908-.383-1.255l1.042-4.382a4.916,4.916,0,0,0,1.434.5c2.5.052,4.981,0,7.472.036.713,0,.908-.265.894-.928C181.453,61.568,181.476,59.9,181.478,58.257Z" transform="translate(-170.133 -41.073)"/>
        <path id="Path_19321" data-name="Path 19321" class="cls-16" d="M181.478,58.257c0,1.656-.025,3.311,0,4.967.014.663-.182.939-.894.928-2.5-.032-4.992.016-7.472-.036a4.664,4.664,0,0,1-1.434-.5q1.361-3.156,2.741-6.313c.724,1.216,1.942.744,2.97.826C178.753,58.239,180.117,58.221,181.478,58.257Z" transform="translate(-170.133 -41.073)"/>
        <path id="Path_19322" data-name="Path 19322" class="cls-18" d="M211.1,67.05l-.145.243-1.815,2.228-.227.256h0l-.2.227-.023.027-.184.193-.048.057-.152.184a.093.093,0,0,0-.084.127l-.921,1.189h-.018l-1.039.747,3.329,3.83,2.886,3.612.536.481h0a4.962,4.962,0,0,0,1.309.393c2.741.054,5.482.057,8.223.075v.011c0,1.731-.018,3.465.014,5.2,0,.665-.193.942-.908.933-2.909-.032-5.82,0-8.729-.029a7.927,7.927,0,0,1-4.652-1.815l-.036-.052-.188-.168-.281-.277-.161-.175-.025-.059H207.5l-.141-.15.014-.057-.054-.023-.182-.2-.032-.025-.188-.227-.177-.227-.3-.365-.045-.066-.166-.206-.02-.023L206,82.686l-3.839-4.808L197.8,83.324l-.2.27-.02.018-.188.227-.259.29-.136.145-.107.191-.454.477h0l-.511.454a.1.1,0,0,0-.141.068,9.017,9.017,0,0,1-5.739,1.629c-2.414-.07-4.833,0-7.261-.041-.34,0-.955-.345-.964-.549-.075-1.833-.043-3.669-.043-5.623,2.848,0,5.557.03,8.264-.032.454,0,.894-.413,1.341-.635l3.32-3.805,3.358-4.05v-.025l.206-.227.011-.018.175-.206.052-.041.17-.2,1.867-2.308,3.644-4.443v-.023q.465-.558.928-1.121l4.45-4.556,2.523-.892,10.211.034h0q0,3.145.018,6.292h0c-2.782,0-5.562-.023-8.343,0a3.546,3.546,0,0,0-.926.261l-.029.018-.227.2h0l-.837.908-.522.887Z" transform="translate(-170.133 -41.073)"/>
        <path id="Path_19323" data-name="Path 19323" class="cls-4" d="M207.305,71.783l.921-1.189C208.217,71.218,208.263,71.887,207.305,71.783Z" transform="translate(-170.133 -41.073)"/>
        <path id="Path_19324" data-name="Path 19324" class="cls-4" d="M208.3,70.467l.152-.184Z" transform="translate(-170.133 -41.073)"/>
        <path id="Path_19325" data-name="Path 19325" class="cls-4" d="M208.51,70.226l.184-.193Z" transform="translate(-170.133 -41.073)"/>
        <path id="Path_19326" data-name="Path 19326" class="cls-4" d="M208.716,70.006l.2-.227Z" transform="translate(-170.133 -41.073)"/>
        <path id="Path_19327" data-name="Path 19327" class="cls-4" d="M208.914,69.777l.227-.256Z" transform="translate(-170.133 -41.073)"/>
        <path id="Path_19328" data-name="Path 19328" class="cls-19" d="M194.439,68.629l-.538-.656-.152-.177-.043-.054-.184-.227h0l-.227-.227h0l-.454-.517a3.506,3.506,0,0,0-3.823-2.235c-2.1.177-4.223.011-6.333.054-.758.016-.992-.261-.978-.976.032-1.693.014-3.383.016-5.076l.211-.247h0l10.406.02h0l2.3.858.036.057.066-.016,2.553,2.269.508.631.014.034.2.227h0l.227.227h0l.25.368v.066l.064.018.161.177.036.041.186.216v.66l-.018.018-.188.227-.064.036.014.073-.483.54-.191.438-2.562,2.932Z" transform="translate(-170.133 -41.073)"/>
        <path id="Path_19329" data-name="Path 19329" class="cls-20" d="M195.463,68.393l2.562-2.932c.381-.027,1.032.059,1.1-.1.363-.865,1.046-.812,1.747-.765,1.11.075,2.217.17,3.326.259L200.55,69.3c-.2-1.4-.862-.041-1.277-.556-.647-.011-1.3.011-1.94-.048S196.087,68.5,195.463,68.393Z" transform="translate(-170.133 -41.073)"/>
        <path id="Path_19330" data-name="Path 19330" class="cls-5" d="M198.46,71.847l-.175.206Z" transform="translate(-170.133 -41.073)"/>
        <path id="Path_19331" data-name="Path 19331" class="cls-5" d="M198.274,72.071l-.206.227Z" transform="translate(-170.133 -41.073)"/>
        <path id="Path_19332" data-name="Path 19332" class="cls-5" d="M198.682,71.606l-.17.2Z" transform="translate(-170.133 -41.073)"/>
        <path id="Path_19333" data-name="Path 19333" class="cls-21" d="M207.75,84.717l.281.277.188.168.036.052c-.15,1.091-.6,1.391-1.638,1.112-.279-.075-.66-.227-.853-.1-1.107.681-2.149.107-3.238-.014a21.593,21.593,0,0,0-3.147.127c-.393.016-.785-.05-1.178-.061a2.756,2.756,0,0,0-.93.03c-.908.343-1.334,0-1.493-.869a.107.107,0,0,1,.143-.068l.508-.454h0l.454-.477.107-.191a.227.227,0,0,0,.136-.145l.259-.29.188-.227.02-.018.2-.27,4.361-5.446,3.839,4.808.211.227.02.023c.054.068.111.136.166.206l.045.066.3.365.177.227L207.1,84l.032.025c.061.068.123.134.182.2l.054.023-.014.054a.265.265,0,0,0,.141.152h.066l.025.059Z" transform="translate(-170.133 -41.073)"/>
        <path id="Path_19334" data-name="Path 19334" class="cls-22" d="M222.522,80.923c-2.741-.018-5.482-.02-8.223-.075a4.72,4.72,0,0,1-1.309-.393c2.845,0,5.689-.032,8.532,0C221.857,80.458,222.188,80.76,222.522,80.923Z" transform="translate(-170.133 -41.073)"/>
        <path id="Path_19335" data-name="Path 19335" class="cls-22" d="M213,80.462l-.536-.481Z" transform="translate(-170.133 -41.073)"/>
        <path id="Path_19336" data-name="Path 19336" class="cls-23" d="M204.194,64.855c-1.11-.088-2.217-.184-3.326-.259-.7-.048-1.384-.1-1.747.765-.064.159-.715.073-1.1.1l.191-.438.483-.54-.014-.073.064-.039.188-.227.018-.018v-.66l-.186-.216-.036-.041-.161-.177-.064-.018v-.066l-.25-.368h0l-.227-.227h0l-.2-.227-.014-.034-.508-.631-2.553-2.269.681-.547a7.58,7.58,0,0,0,1.945.638c1.407.054,2.82-.061,4.23-.134.25-.011.64-.082.719-.243.549-1.121,1.552-.86,2.462-.869,1.377-.011,2.755,0,3.857,0,.4.488.656.8.908,1.121l-4.429,4.552q-.454.563-.928,1.121Z" transform="translate(-170.133 -41.073)"/>
        <path id="Path_19337" data-name="Path 19337" class="cls-24" d="M222.295,58.3l-10.211-.034a6.744,6.744,0,0,1,1.182-.213c3.011-.018,6.024,0,9.038-.011A2.459,2.459,0,0,1,222.295,58.3Z" transform="translate(-170.133 -41.073)"/>
        <path id="Path_19338" data-name="Path 19338" class="cls-23" d="M192.349,58.3l-10.406-.02a3.147,3.147,0,0,1,.812-.238q4.4-.027,8.8,0A2.782,2.782,0,0,1,192.349,58.3Z" transform="translate(-170.133 -41.073)"/>
        <path id="Path_19339" data-name="Path 19339" class="cls-23" d="M194.65,59.151l-2.3-.858a2.512,2.512,0,0,0,.545-.1C194.108,57.676,194.383,57.823,194.65,59.151Z" transform="translate(-170.133 -41.073)"/>
        <path id="Path_19340" data-name="Path 19340" class="cls-23" d="M181.95,58.284l-.211.247a2.148,2.148,0,0,0-.029-.268Z" transform="translate(-170.133 -41.073)"/>
        <path id="Path_19341" data-name="Path 19341" class="cls-24" d="M213.05,64.828a3.635,3.635,0,0,1,.926-.261c2.782-.014,5.562,0,8.343,0a6.128,6.128,0,0,1-1.16.227C218.458,64.828,215.755,64.824,213.05,64.828Z" transform="translate(-170.133 -41.073)"/>
        <path id="Path_19342" data-name="Path 19342" class="cls-24" d="M222.308,64.581q0-3.145-.018-6.292c.166.3.454.606.474.908.057,1.568.039,3.136.048,4.7Z" transform="translate(-170.133 -41.073)"/>
        <path id="Path_19343" data-name="Path 19343" class="cls-24" d="M211.957,65.97l.837-.908Z" transform="translate(-170.133 -41.073)"/>
        <path id="Path_19344" data-name="Path 19344" class="cls-6" d="M211.1,67.05l.331-.193Z" transform="translate(-170.133 -41.073)"/>
        <path id="Path_19345" data-name="Path 19345" class="cls-24" d="M212.8,65.046l.227-.2Z" transform="translate(-170.133 -41.073)"/>
        <path id="Path_19346" data-name="Path 19346" class="cls-6" d="M192.858,66.764l.454.517Z" transform="translate(-170.133 -41.073)"/>
        <path id="Path_19347" data-name="Path 19347" class="cls-6" d="M193.523,67.522l.184.227Z" transform="translate(-170.133 -41.073)"/>
        <path id="Path_19348" data-name="Path 19348" class="cls-6" d="M193.3,67.286l.227.227Z" transform="translate(-170.133 -41.073)"/>
        <path id="Path_19349" data-name="Path 19349" class="cls-6" d="M193.749,67.8l.152.177Z" transform="translate(-170.133 -41.073)"/>
        <path id="Path_19350" data-name="Path 19350" class="cls-20" d="M204.192,64.833q.465-.558.928-1.121Q204.657,64.275,204.192,64.833Z" transform="translate(-170.133 -41.073)"/>
        <path id="Path_19351" data-name="Path 19351" class="cls-8" d="M196.429,84.919l-.508.454Z" transform="translate(-170.133 -41.073)"/>
        <path id="Path_19352" data-name="Path 19352" class="cls-8" d="M196.885,84.445l-.454.477Z" transform="translate(-170.133 -41.073)"/>
        <path id="Path_19353" data-name="Path 19353" class="cls-8" d="M206.738,83.557l-.3-.365Z" transform="translate(-170.133 -41.073)"/>
        <path id="Path_19354" data-name="Path 19354" class="cls-8" d="M206.207,82.9,206,82.67Z" transform="translate(-170.133 -41.073)"/>
        <path id="Path_19355" data-name="Path 19355" class="cls-8" d="M206.393,83.126c-.054-.07-.111-.138-.166-.206C206.282,82.988,206.338,83.049,206.393,83.126Z" transform="translate(-170.133 -41.073)"/>
        <path id="Path_19356" data-name="Path 19356" class="cls-8" d="M197.8,83.306l-.2.27Z" transform="translate(-170.133 -41.073)"/>
        <path id="Path_19357" data-name="Path 19357" class="cls-8" d="M197.575,83.594l-.188.227Z" transform="translate(-170.133 -41.073)"/>
        <path id="Path_19358" data-name="Path 19358" class="cls-8" d="M207.1,84.027l-.188-.227Z" transform="translate(-170.133 -41.073)"/>
        <path id="Path_19359" data-name="Path 19359" class="cls-8" d="M197.128,84.109a.227.227,0,0,1-.136.145Z" transform="translate(-170.133 -41.073)"/>
        <path id="Path_19360" data-name="Path 19360" class="cls-8" d="M207.316,84.254c-.059-.068-.12-.134-.182-.2C207.2,84.12,207.257,84.184,207.316,84.254Z" transform="translate(-170.133 -41.073)"/>
        <path id="Path_19361" data-name="Path 19361" class="cls-8" d="M207.5,84.483a.265.265,0,0,1-.141-.152Z" transform="translate(-170.133 -41.073)"/>
        <path id="Path_19362" data-name="Path 19362" class="cls-8" d="M207.75,84.717l-.161-.175Z" transform="translate(-170.133 -41.073)"/>
        <path id="Path_19363" data-name="Path 19363" class="cls-8" d="M208.219,85.162l-.188-.168Z" transform="translate(-170.133 -41.073)"/>
        <path id="Path_19364" data-name="Path 19364" class="cls-20" d="M197.305,61.452l.508.631Z" transform="translate(-170.133 -41.073)"/>
        <path id="Path_19365" data-name="Path 19365" class="cls-20" d="M198.7,64.483l-.483.54Z" transform="translate(-170.133 -41.073)"/>
        <path id="Path_19366" data-name="Path 19366" class="cls-20" d="M198.946,63.478v.647C198.952,63.909,198.948,63.694,198.946,63.478Z" transform="translate(-170.133 -41.073)"/>
        <path id="Path_19367" data-name="Path 19367" class="cls-20" d="M198.242,62.58l.25.368Z" transform="translate(-170.133 -41.073)"/>
        <path id="Path_19368" data-name="Path 19368" class="cls-20" d="M197.827,62.117l.2.227Z" transform="translate(-170.133 -41.073)"/>
        <path id="Path_19369" data-name="Path 19369" class="cls-20" d="M198.937,64.143l-.188.227C198.812,64.3,198.873,64.216,198.937,64.143Z" transform="translate(-170.133 -41.073)"/>
        <path id="Path_19370" data-name="Path 19370" class="cls-20" d="M198.034,62.346l.227.227Z" transform="translate(-170.133 -41.073)"/>
        <path id="Path_19371" data-name="Path 19371" class="cls-20" d="M198.748,63.249l.186.216Z" transform="translate(-170.133 -41.073)"/>
        <path id="Path_19372" data-name="Path 19372" class="cls-20" d="M198.546,63.031l.161.177Z" transform="translate(-170.133 -41.073)"/>
      </g>
    </g>
    <g id="Mask_Group_105" data-name="Mask Group 105" class="cls-25">
      <g id="Mask_Group_19" data-name="Mask Group 19" class="cls-26" transform="translate(2510 1352)">
        <g id="tether-seeklogo.com" transform="translate(-23439 -23605)">
          <path id="Path_17428" data-name="Path 17428" class="cls-27" d="M32,0A32,32,0,1,1,0,32,32,32,0,0,1,32,0"/>
          <path id="Path_17429" data-name="Path 17429" class="cls-1" d="M35.949,27.736v-4.76H46.835V15.723H17.193v7.253H28.08v4.756c-8.848.406-15.5,2.159-15.5,4.258s6.656,3.852,15.5,4.26V51.5h7.872V36.25c8.832-.408,15.471-2.159,15.471-4.256s-6.639-3.848-15.471-4.256m0,7.22h0c-.222.014-1.363.083-3.9.083-2.031,0-3.46-.058-3.964-.084v.006c-7.817-.346-13.652-1.708-13.652-3.336s5.836-2.988,13.652-3.335V33.6c.512.035,1.976.122,4,.122,2.428,0,3.648-.1,3.872-.122V28.288c7.8.348,13.623,1.71,13.623,3.333s-5.824,2.986-13.623,3.334"/>
        </g>
      </g>
    </g>
  </g>
</svg>
