<svg xmlns="http://www.w3.org/2000/svg" xmlns:xlink="http://www.w3.org/1999/xlink" width="114" height="64" viewBox="0 0 114 64">
  <defs>
    <clipPath id="clip-path">
      <ellipse id="Ellipse_115" data-name="Ellipse 115" cx="26.5" cy="25.5" rx="26.5" ry="25.5" transform="translate(-24483 -11213.874)" fill="#fff"/>
    </clipPath>
  </defs>
  <g id="Group_3380" data-name="Group 3380" transform="translate(24240 10389)">
    <circle id="Ellipse_103" data-name="Ellipse 103" cx="32" cy="32" r="32" transform="translate(-24240 -10389)" fill="#fff"/>
    <g id="tape-crystl" transform="translate(-24240.922 -10388.885)">
      <path id="Path_4127" data-name="Path 4127" d="M28.7,63.312h0c-9.736-.84-17.812-6.183-20.98-13.4a16.84,16.84,0,0,1-1.453-6.814c0-7.362,4.835-13.81,12.077-17.382l.328-.155a3.387,3.387,0,1,1,.685-6.739c3.626-14.17,23.68-14.181,27.309,0a3.387,3.387,0,1,1,0,6.725c-.1.407-.216.8-.354,1.2a14.072,14.072,0,0,1-8.769,8.751,3.58,3.58,0,0,0-1.919,1.585c-1.237,2.117-3.285,6.585-1.644,10.916A16.6,16.6,0,0,1,39.4,42.258c4.339-2.639,10.911-1.809,11.054,4.326a12.977,12.977,0,0,1-3.379,9.138,28.23,28.23,0,0,0,8.786-7.975C67.718,31.016,57.384,4.489,33.508,3.81A27.868,27.868,0,0,0,6.523,23a2.02,2.02,0,0,1-3.84-1.249C14.353-12.018,63.552-4.972,64.916,31.2,65.3,51.9,46.664,65.587,28.7,63.312Z" transform="translate(0)" fill="#22303b"/>
      <path id="Path_4128" data-name="Path 4128" d="M89.332,61.468a.4.4,0,0,1-.763,0,5.653,5.653,0,1,0-6.387,7.57,2.249,2.249,0,0,1,1.781,2.221v1.033a3.868,3.868,0,0,0,3.868,3.865H90.1a3.865,3.865,0,0,0,3.865-3.865V71.259a2.252,2.252,0,0,1,1.781-2.221,5.658,5.658,0,1,0-6.412-7.57Zm-3.54,4.387h0c-.074.02-.148.033-.221.046h-.056a2.013,2.013,0,0,1-.211.031c-.074,0-.148.015-.224.023s-.209.013-.313.013a4.476,4.476,0,0,1-2.59-.824,4.26,4.26,0,0,1-.629-.522,3.818,3.818,0,0,1-.427-.509,4.227,4.227,0,0,1-.336-.557,1.313,1.313,0,0,1-.043-1.12A1.343,1.343,0,0,1,81.027,62a1.318,1.318,0,0,1,1.145-.4,4.509,4.509,0,0,1,1.97.781,4.619,4.619,0,0,1,.565.476c.056.053.112.112.165.173a1.215,1.215,0,0,1,.13.153,4.133,4.133,0,0,1,.321.44,1.526,1.526,0,0,1,.1.163.117.117,0,0,1,.018.025c.033.056.064.114.092.173a.255.255,0,0,1,.023.043c.031.056.056.112.081.17a.126.126,0,0,0,.023.053,1.27,1.27,0,0,1,.074.186,2.194,2.194,0,0,1,.079.216,4.376,4.376,0,0,1,.155.649.279.279,0,0,0,.02.127c.02.041,0,.089.015.137A.275.275,0,0,1,85.793,65.855Zm4.494,5.888H90.21a.146.146,0,0,1-.041,0,.313.313,0,0,0-.127.02l-.115.033a1.369,1.369,0,0,0-.254.1.675.675,0,0,0-.1.056l-.117.079a1.08,1.08,0,0,0-.109.087h0a1.054,1.054,0,0,0-.1.109.324.324,0,0,1-.087.1.079.079,0,0,1-.043.033.27.27,0,0,1-.232.038.29.29,0,0,1-.089-.043.036.036,0,0,1-.031-.023.191.191,0,0,1-.038-.041.122.122,0,0,1-.033-.041,1.292,1.292,0,0,0-.127-.137,1.354,1.354,0,0,0-.234-.173l-.081-.043a.906.906,0,0,0-.148-.061.587.587,0,0,0-.1-.036,1.211,1.211,0,0,0-.127-.038,1.173,1.173,0,0,1-.13-.02.194.194,0,0,1-.041,0H87.63V71.12a1.6,1.6,0,0,1,.023-.331.35.35,0,0,1,0-.048,2.136,2.136,0,0,1,.036-.316c.025-.206.056-.4.1-.59a.8.8,0,0,1,.041-.188c.038-.176.081-.344.132-.509.018-.071.041-.14.061-.206.051-.16.1-.313.16-.455.033-.087.069-.17.1-.254a1.348,1.348,0,0,1,.064-.145c.059-.137.122-.254.181-.374.076-.15.15-.28.214-.382h0a.118.118,0,0,1,.015-.023.221.221,0,0,1,.4.023,7.553,7.553,0,0,1,.537,1.094c.025.064.051.132.076.2s.059.168.089.254a2.291,2.291,0,0,1,.084.275c.028.094.059.191.081.29s.053.229.079.349.038.186.056.285h0c.02.109.036.221.051.338s.028.232.038.349h0c0,.117.02.254.025.369s0,.254,0,.374A1.132,1.132,0,0,1,90.287,71.743Zm6.842-8.189a4.338,4.338,0,0,1-.547.819c-.071.084-.148.165-.226.254a4.025,4.025,0,0,1-.618.532,4.435,4.435,0,0,1-2.58.824,2.659,2.659,0,0,1-.318-.013,1.253,1.253,0,0,1-.239-.025c-.081-.025-.12,0-.178-.025s-.066,0-.1-.015a1.663,1.663,0,0,1-.181-.041h-.02a.254.254,0,0,1-.193-.254v-.025a.056.056,0,0,1,0-.02,1.943,1.943,0,0,1,.033-.254,4.069,4.069,0,0,1,.107-.481c.02-.074.043-.15.069-.224a.193.193,0,0,1,.015-.046c.023-.064.048-.132.076-.2a2.1,2.1,0,0,1,.094-.219.033.033,0,0,1,0-.02c.033-.071.071-.142.107-.211a4.407,4.407,0,0,1,.57-.832,2.12,2.12,0,0,1,.165-.176.319.319,0,0,1,.041-.043,4.436,4.436,0,0,1,.557-.476A4.486,4.486,0,0,1,95.73,61.6a1.326,1.326,0,0,1,1.15.4,1.473,1.473,0,0,1,.282.435A1.305,1.305,0,0,1,97.129,63.554Z" transform="translate(-55.941 -43.215)" fill="#fff"/>
      <path id="Path_4129" data-name="Path 4129" d="M94.775,76.527a.275.275,0,0,1-.2.285h0q-.112.025-.221.046H94.3a2.011,2.011,0,0,1-.211.031c-.074,0-.148.015-.224.023s-.209.013-.313.013a4.476,4.476,0,0,1-2.59-.824,4.259,4.259,0,0,1-.629-.522,3.816,3.816,0,0,1-.427-.509,4.226,4.226,0,0,1-.336-.557,1.313,1.313,0,0,1-.043-1.12,1.344,1.344,0,0,1,.285-.435,1.318,1.318,0,0,1,1.145-.4,4.509,4.509,0,0,1,1.97.781,4.616,4.616,0,0,1,.565.476c.056.056.112.112.165.173s.089.1.13.153a4.132,4.132,0,0,1,.321.44,1.526,1.526,0,0,1,.1.163.118.118,0,0,1,.018.025c.033.056.064.115.092.173a.254.254,0,0,1,.023.043c.028.059.056.114.081.17s.015.038.023.053a1.875,1.875,0,0,1,.074.186c.028.071.053.142.079.216a4.377,4.377,0,0,1,.155.649.279.279,0,0,0,.02.127A.348.348,0,0,1,94.775,76.527Z" transform="translate(-64.722 -54.172)" fill="#cb1f59"/>
      <path id="Path_4130" data-name="Path 4130" d="M138.986,74.511a4.628,4.628,0,0,1-.545.819c-.071.084-.148.165-.226.254a4.024,4.024,0,0,1-.618.532,4.435,4.435,0,0,1-2.58.824,2.658,2.658,0,0,1-.318-.013,1.252,1.252,0,0,1-.239-.025c-.081-.025-.12,0-.178-.025s-.066,0-.1-.015L134,76.822h-.02a.254.254,0,0,1-.193-.254v-.025a.056.056,0,0,1,0-.02,1.943,1.943,0,0,1,.033-.254,4.07,4.07,0,0,1,.107-.481c.02-.074.043-.15.069-.224a.194.194,0,0,1,.015-.046c.023-.064.048-.132.076-.2a2.1,2.1,0,0,1,.094-.219.033.033,0,0,1,0-.02c.033-.071.071-.143.107-.211a4.409,4.409,0,0,1,.57-.832c.053-.059.109-.12.165-.176a.318.318,0,0,1,.041-.043,4.434,4.434,0,0,1,.557-.476,4.486,4.486,0,0,1,1.967-.781,1.326,1.326,0,0,1,1.15.4,1.473,1.473,0,0,1,.282.435,1.313,1.313,0,0,1-.036,1.12Z" transform="translate(-97.8 -54.172)" fill="#cb1f59"/>
      <path id="Path_4131" data-name="Path 4131" d="M119.567,98.808v.254h-.076a.145.145,0,0,1-.041,0,.313.313,0,0,0-.127.02l-.114.033a1.369,1.369,0,0,0-.254.1.675.675,0,0,0-.1.056.789.789,0,0,0-.117.079,1.086,1.086,0,0,0-.109.087h0a.6.6,0,0,0-.1.109.323.323,0,0,1-.087.1.3.3,0,0,1-.275.071.29.29,0,0,1-.089-.043.036.036,0,0,1-.031-.023A.191.191,0,0,1,118,99.6a.122.122,0,0,1-.033-.041,1.272,1.272,0,0,0-.361-.31l-.081-.043a.906.906,0,0,0-.148-.061.656.656,0,0,0-.1-.036,1.208,1.208,0,0,0-.127-.038,1.172,1.172,0,0,1-.13-.02.193.193,0,0,1-.041,0h-.074v-.629a1.6,1.6,0,0,1,.023-.331.35.35,0,0,1,0-.048,2.219,2.219,0,0,1,.036-.316,6.9,6.9,0,0,1,.137-.779c.038-.176.081-.344.132-.509a7.464,7.464,0,0,1,.392-1.071c.059-.137.122-.254.181-.374.076-.15.15-.28.214-.382h0a.119.119,0,0,1,.015-.023c.359-.527.812.855,1.018,1.318.031.081.059.168.089.254s.061.181.084.275.053.191.081.29c.048.206.1.417.135.634h0c.038.224.069.458.089.687h0C119.556,98.312,119.567,98.556,119.567,98.808Z" transform="translate(-85.218 -70.522)" fill="#22303b"/>
      <path id="Path_4132" data-name="Path 4132" d="M177.035,83.687a.127.127,0,0,1-.148-.145A14.392,14.392,0,0,0,177,81.717a14.061,14.061,0,0,0-.12-1.835.125.125,0,0,1,.148-.14,2.015,2.015,0,0,1,0,3.944Z" transform="translate(-129.931 -59.536)" fill="#fff"/>
      <path id="Path_4133" data-name="Path 4133" d="M62.083,81.775a13.485,13.485,0,0,0,.109,1.735.191.191,0,0,1-.237.211,2.015,2.015,0,0,1,0-3.9.193.193,0,0,1,.239.211,13.546,13.546,0,0,0-.112,1.741Z" transform="translate(-43.127 -59.593)" fill="#fff"/>
    </g>
    <g id="Group_3349" data-name="Group 3349">
      <circle id="Ellipse_104" data-name="Ellipse 104" cx="32" cy="32" r="32" transform="translate(-24190 -10389)" fill="#fff"/>
      <g id="Mask_Group_33" data-name="Mask Group 33" transform="translate(299 831.874)" clip-path="url(#clip-path)">
        <g id="polygon-matic-logo" transform="translate(-24476.975 -11206.542)">
          <path id="Path_4126" data-name="Path 4126" d="M30.434,10.808a2.646,2.646,0,0,0-2.519,0l-5.877,3.5-3.988,2.23-5.772,3.5a2.646,2.646,0,0,1-2.519,0L5.247,17.286a2.594,2.594,0,0,1-1.259-2.23V9.746a2.626,2.626,0,0,1,1.259-2.23L9.76,4.861a2.646,2.646,0,0,1,2.519,0l4.513,2.761a2.594,2.594,0,0,1,1.259,2.23v3.5l3.988-2.336V7.409a2.626,2.626,0,0,0-1.259-2.23L12.383.188a2.646,2.646,0,0,0-2.519,0l-8.605,5.1A2.34,2.34,0,0,0,0,7.409v9.982a2.626,2.626,0,0,0,1.259,2.23l8.5,4.991a2.646,2.646,0,0,0,2.519,0l5.772-3.4,3.988-2.336,5.772-3.4a2.646,2.646,0,0,1,2.519,0l4.513,2.655a2.594,2.594,0,0,1,1.259,2.23v5.31a2.626,2.626,0,0,1-1.259,2.23L30.434,30.56a2.646,2.646,0,0,1-2.519,0L23.4,27.905a2.594,2.594,0,0,1-1.259-2.23v-3.4l-3.988,2.336v3.5a2.626,2.626,0,0,0,1.259,2.23l8.5,4.991a2.646,2.646,0,0,0,2.519,0l8.5-4.991a2.594,2.594,0,0,0,1.259-2.23V18.029a2.626,2.626,0,0,0-1.259-2.23Z" transform="translate(0 0.131)" fill="#8247e5"/>
        </g>
      </g>
    </g>
  </g>
</svg>
