<svg xmlns="http://www.w3.org/2000/svg" xmlns:xlink="http://www.w3.org/1999/xlink" width="114" height="64" viewBox="0 0 114 64">
  <defs>
    <style>
      .cls-1 {
        fill: #fff;
      }

      .cls-2 {
        clip-path: url(#clip-path);
      }

      .cls-3 {
        fill: #2775ca;
      }

      .cls-4 {
        clip-path: url(#clip-path-2);
      }

      .cls-5 {
        fill: #cd509d;
      }

      .cls-6 {
        fill: #bc5ea4;
      }

      .cls-7 {
        fill: #7487c3;
      }

      .cls-8 {
        fill: #8f75b5;
      }

      .cls-9 {
        fill: #d54f9c;
      }

      .cls-10 {
        fill: #7b80be;
      }

      .cls-11 {
        fill: #a46bad;
      }

      .cls-12 {
        fill: #8d79b8;
      }

      .cls-13 {
        fill: #b264a8;
      }

      .cls-14 {
        fill: #ad66a9;
      }

      .cls-15 {
        fill: #7889c4;
      }

      .cls-16 {
        fill: #c15aa2;
      }

      .cls-17 {
        fill: #9675b4;
      }

      .cls-18 {
        fill: #c756a0;
      }

      .cls-19 {
        fill: #827dbb;
      }

      .cls-20 {
        fill: #c156a0;
      }

      .cls-21 {
        fill: #8281be;
      }

      .cls-22 {
        fill: #b661a6;
      }

      .cls-23 {
        fill: #877cba;
      }

      .cls-24 {
        fill: #ba5fa5;
      }

      .cls-25 {
        fill: #9476b5;
      }

      .cls-26 {
        fill: #9d71b1;
      }

      .cls-27 {
        fill: #d456a0;
      }

      .cls-28 {
        fill: #a074b2;
      }

      .cls-29 {
        fill: #7d84c1;
      }

      .cls-30 {
        fill: #9590c6;
      }

      .cls-31 {
        fill: #b684bb;
      }

      .cls-32 {
        fill: #f7f4fa;
      }

      .cls-33 {
        fill: #d8dbef;
      }
    </style>
    <clipPath id="clip-path">
      <circle id="Ellipse_1900" data-name="Ellipse 1900" class="cls-1" cx="32" cy="32" r="32" transform="translate(-19995 -22253)"/>
    </clipPath>
    <clipPath id="clip-path-2">
      <circle id="Ellipse_2023" data-name="Ellipse 2023" class="cls-1" cx="32" cy="32" r="32" transform="translate(-19945 -22253)"/>
    </clipPath>
  </defs>
  <g id="Group_825" data-name="Group 825" transform="translate(19995 22253)">
    <g id="Mask_Group_112" data-name="Mask Group 112" class="cls-2">
      <g id="usd-coin-usdc-logo" transform="translate(-19995 -22253)">
        <path id="Path_17831" data-name="Path 17831" class="cls-3" d="M32,64A32,32,0,1,0,0,32,31.923,31.923,0,0,0,32,64Z"/>
        <path id="Path_17832" data-name="Path 17832" class="cls-1" d="M40.8,37.067c0-4.667-2.8-6.267-8.4-6.933-4-.533-4.8-1.6-4.8-3.467s1.333-3.067,4-3.067c2.4,0,3.733.8,4.4,2.8a1,1,0,0,0,.933.667h2.133A.911.911,0,0,0,40,26.133V26a6.661,6.661,0,0,0-6-5.467v-3.2c0-.533-.4-.933-1.067-1.067h-2c-.533,0-.933.4-1.067,1.067V20.4c-4,.533-6.533,3.2-6.533,6.533,0,4.4,2.667,6.133,8.267,6.8,3.733.667,4.933,1.467,4.933,3.6s-1.867,3.6-4.4,3.6c-3.467,0-4.667-1.467-5.067-3.467a.974.974,0,0,0-.933-.8H23.867a.911.911,0,0,0-.933.933v.133c.533,3.333,2.667,5.733,7.067,6.4v3.2c0,.533.4.933,1.067,1.067h2c.533,0,.933-.4,1.067-1.067v-3.2c4-.667,6.667-3.467,6.667-7.067Z"/>
        <path id="Path_17833" data-name="Path 17833" class="cls-1" d="M25.2,51.067a19.952,19.952,0,0,1,0-37.467,1.338,1.338,0,0,0,.8-1.333V10.4a1.013,1.013,0,0,0-.8-1.067.8.8,0,0,0-.533.133,23.994,23.994,0,0,0,0,45.733.811.811,0,0,0,1.2-.533C26,54.533,26,54.4,26,54.133V52.267A1.776,1.776,0,0,0,25.2,51.067Zm14.133-41.6a.811.811,0,0,0-1.2.533c-.133.133-.133.267-.133.533V12.4a1.769,1.769,0,0,0,.8,1.333,19.952,19.952,0,0,1,0,37.467,1.338,1.338,0,0,0-.8,1.333V54.4a1.013,1.013,0,0,0,.8,1.067.8.8,0,0,0,.533-.133,24.1,24.1,0,0,0,0-45.867Z"/>
      </g>
    </g>
    <circle id="Ellipse_1901" data-name="Ellipse 1901" class="cls-1" cx="32" cy="32" r="32" transform="translate(-19945 -22253)"/>
    <g id="Mask_Group_142" data-name="Mask Group 142" class="cls-4">
      <g id="_6us6WO.tif" data-name="6us6WO.tif" transform="translate(-19945 -22250.447)">
        <path id="Path_19589" data-name="Path 19589" class="cls-5" d="M230.495,89.954l3.9,2.741c-2.3.028-4.6.075-6.892.067-.808,0-1.351.2-1.432,1.086a31.548,31.548,0,0,0-10.078-2.939c-.086.735-.164,1.435-.245,2.134h-5.908V90.536c.162-.136.474-.279.462-.407-.139-1.507.777-1.554,1.914-1.546,5.142.025,10.285,0,15.427-.017l1.017.343Z" transform="translate(-180.927 -85.001)"/>
        <path id="Path_19590" data-name="Path 19590" class="cls-6" d="M202.844,101.291a10.981,10.981,0,0,1,6.686-2.465c.206.2.407.557.618.557,1.7.047,3.4.053,5.1,0,.248,0,.485-.409.727-.63,3.064.373,5.984,1.114,8.051,3.7-2.46,0-4.922,0-7.385.025-.73,0-1.532-.028-1.552,1.053l-5.549.045c.067-.961-.51-1.114-1.306-1.114-1.875.022-3.749,0-5.624,0Z" transform="translate(-180.927 -85.001)"/>
        <path id="Path_19591" data-name="Path 19591" class="cls-7" d="M215.073,143.909h-4.44l-1.393-.12-.855-.15-4.7-.914-.571-.2-6.641-2.85.017-.323a10.276,10.276,0,0,0,1.624.279c5.446.02,10.889.028,16.335-.025.4,0,.786-.518,1.181-.8h.579q-.033,2.488-.072,4.972Z" transform="translate(-180.927 -85.001)"/>
        <path id="Path_19592" data-name="Path 19592" class="cls-8" d="M202.31,126.88l-.8-.691-.88-.972h0c-.078-.794.2-1.145,1.078-1.148,1.462,0,2.925-.2,4.387-.231a2.8,2.8,0,0,1,1.577.337,9.878,9.878,0,0,0,5.056,1.521,8.781,8.781,0,0,0,2.334-.462l.557-.058c.557.053,1.267.354,1.638.117,1.671-1.056,3.493-.939,5.318-.925l.279.279-.563,2.786c-2.351,0-4.711.084-7.059-.017C210.917,127.234,206.574,128,202.31,126.88Z" transform="translate(-180.927 -85.001)"/>
        <path id="Path_19593" data-name="Path 19593" class="cls-9" d="M227.648,88.583c-5.142,0-10.285.042-15.427.017-1.137,0-2.053.039-1.914,1.546,0,.12-.3.279-.462.407-.025-1.521-.111-3.045-.031-4.557a1.361,1.361,0,0,1,.955-.914,32.99,32.99,0,0,1,14.9,2.326A14.907,14.907,0,0,1,227.648,88.583Z" transform="translate(-180.927 -85.001)"/>
        <path id="Path_19594" data-name="Path 19594" class="cls-10" d="M215.628,138.8c-.4.279-.786.794-1.181.8-5.446.053-10.889.045-16.335.025a10.274,10.274,0,0,1-1.624-.279h-.557c-.7-.747-1.407-1.493-2.153-2.29.206-.092.323-.195.44-.192,3.744.072,7.521-.437,11.187.9a11.36,11.36,0,0,0,3.293.184l.557.05a2.014,2.014,0,0,0,.663.446c.106.022.279-.337.437-.524a.4.4,0,0,1,.061-.251,4.752,4.752,0,0,1,3.343-.852C215.416,136.928,215.589,137.053,215.628,138.8Z" transform="translate(-180.927 -85.001)"/>
        <path id="Path_19595" data-name="Path 19595" class="cls-10" d="M223.687,136.861l.326-1.373,1.036-2.229,4.162-.279h.557c1.63.095,3.268.12,4.886.318a8.642,8.642,0,0,1,2.053.8l-2.008,1.914-.763.588-.312.256a11.633,11.633,0,0,1-2.332.515c-1.357.025-2.716-.134-4.075-.228C226.046,137.053,224.87,136.953,223.687,136.861Z" transform="translate(-180.927 -85.001)"/>
        <path id="Path_19596" data-name="Path 19596" class="cls-5" d="M192.047,92.2q.557-.412,1.114-.836c1.437-.368,2.858-.811,4.312-1.078a19.027,19.027,0,0,1,2.619-.033c1.114-.047,2.2-.109,1.735,1.579-.028.1.2.279.312.409-.039.17-.075.343-.114.515a10.907,10.907,0,0,1-.657,1.05c-.251.323-.582.855-.858.836-3.554-.156-7.154.582-10.658-.507l1.485-1.359Z" transform="translate(-180.927 -85.001)"/>
        <path id="Path_19597" data-name="Path 19597" class="cls-11" d="M181.256,118.83c0-.791-.022-1.579-.025-2.368V112.74c1.279-.081,2.554-.173,3.833-.24.666-.036,1.334-.028,2-.039q0,1.671-.02,3.343l.042.54c.075.652.153,1.3.228,1.95l.1.579c.025.178.053.357.078.532l-5.716.279-.387-.039Z" transform="translate(-180.927 -85.001)"/>
        <path id="Path_19598" data-name="Path 19598" class="cls-12" d="M202.31,126.88c4.265,1.114,8.608.354,12.911.535,2.348.1,4.708.02,7.062.017l-.836,1.167a16.952,16.952,0,0,1-3.039,1c-1.259.175-2.145.524-2.2,1.95l-.32.042c-.312-1.95-.315-2-2.279-1.914a26.7,26.7,0,0,0-3.254.521c-2.187-.727-4.39-1.415-6.555-2.206A7,7,0,0,1,202.31,126.88Z" transform="translate(-180.927 -85.001)"/>
        <path id="Path_19599" data-name="Path 19599" class="cls-11" d="M213.4,117.181l-.557-.078-.836-.2-6.184-1.772a5.675,5.675,0,0,1,1.805-.694c4.883-.058,9.764-.031,14.647-.033.557,0,1.114-.022,1.671-.036l2.089,2.2c-.677-.072-1.354-.2-2.031-.206-2.749-.025-5.5-.072-8.245.028A8.949,8.949,0,0,0,213.4,117.181Z" transform="translate(-180.927 -85.001)"/>
        <path id="Path_19600" data-name="Path 19600" class="cls-13" d="M212.037,110.484l3.875.571.557.164.557.1,1.41.758a5.509,5.509,0,0,1-1.641.63c-4.911.136-9.822.209-14.736.3l-1.716-2.2a8.535,8.535,0,0,1,1.471-.279c1.8-.033,3.6.022,5.4-.028,1.237-.033,2.471-.187,3.708-.279l.557-.05a1.389,1.389,0,0,1-.047.153Z" transform="translate(-180.927 -85.001)"/>
        <path id="Path_19601" data-name="Path 19601" class="cls-14" d="M202.059,113.008c4.914-.089,9.825-.162,14.736-.3a5.343,5.343,0,0,0,1.641-.63l.794-.1,4.736,2.39c-.557.014-1.114.036-1.671.036-4.883,0-9.764-.025-14.647.033a5.546,5.546,0,0,0-1.805.694Z" transform="translate(-180.927 -85.001)"/>
        <path id="Path_19602" data-name="Path 19602" class="cls-15" d="M223.687,136.861c1.173.092,2.348.2,3.521.279,1.359.095,2.719.253,4.075.228a11.632,11.632,0,0,0,2.332-.515,25.1,25.1,0,0,1-8,4.708c-1.086.46-2.229.772-3.744,1.284.557-1.847.992-3.343,1.435-4.858l.292-.682Z" transform="translate(-180.927 -85.001)"/>
        <path id="Path_19603" data-name="Path 19603" class="cls-16" d="M233.993,100.517,230.6,96.962c.212-.376.435-1.084.632-1.078,2.3.078,4.663-.515,6.9.479l2.786,3.88C238.615,100.057,236.28,99.645,233.993,100.517Z" transform="translate(-180.927 -85.001)"/>
        <path id="Path_19604" data-name="Path 19604" class="cls-17" d="M215.071,125.248a8.781,8.781,0,0,1-2.334.462,9.851,9.851,0,0,1-5.056-1.521,2.8,2.8,0,0,0-1.577-.337c-1.462.033-2.925.226-4.387.231-.883,0-1.156.354-1.078,1.148-.632-1.192-1.326-2.362-1.875-3.593-.279-.641.1-1.039.836-1.036,1.747,0,3.5-.036,5.243.031a1.463,1.463,0,0,1,1.089.632c1.423,3.031,4.142,3.674,7.081,3.931C213.692,125.256,214.383,125.234,215.071,125.248Z" transform="translate(-180.927 -85.001)"/>
        <path id="Path_19605" data-name="Path 19605" class="cls-18" d="M189.838,94.155c3.5,1.089,7.1.351,10.658.507.279,0,.607-.521.858-.836a10.9,10.9,0,0,0,.657-1.05c-.515,1.989-1.028,3.975-1.6,6.162a26.941,26.941,0,0,1-2.574-1.649c-1.081-.88-2.008-.978-2.93.178a2.872,2.872,0,0,1-.66.468c.148-.454.3-.908.529-1.618a27.43,27.43,0,0,1-4.162-.047,3.379,3.379,0,0,0-2.978.85,3.3,3.3,0,0,1-.813.376Z" transform="translate(-180.927 -85.001)"/>
        <path id="Path_19606" data-name="Path 19606" class="cls-17" d="M222.572,124.381c-1.825-.014-3.644-.131-5.318.925-.37.237-1.084-.064-1.638-.117l1.287-.415c3.184-1.011,3.769-3.343,1.474-5.892a5.835,5.835,0,0,1,1.735-.557c2.248-.081,4.5-.053,6.747-.067l.279.315c.05.184.1.368.156.557l-.084,1.393h-3.986c-.638,0-1.276.07-1.914.109.418.61.836,1.217,1.259,1.827C222.572,123.089,222.572,123.735,222.572,124.381Z" transform="translate(-180.927 -85.001)"/>
        <path id="Path_19607" data-name="Path 19607" class="cls-18" d="M238.138,96.364c-2.229-.994-4.6-.4-6.9-.479-.2,0-.421.7-.632,1.078l-4.529-3.114c.081-.883.624-1.089,1.432-1.086,2.3,0,4.594-.039,6.892-.067Z" transform="translate(-180.927 -85.001)"/>
        <path id="Path_19608" data-name="Path 19608" class="cls-19" d="M236.709,134.092a8.64,8.64,0,0,0-2.053-.8c-1.618-.2-3.256-.223-4.886-.318l.017-.493,3.488-3.142,6.847.593Z" transform="translate(-180.927 -85.001)"/>
        <path id="Path_19609" data-name="Path 19609" class="cls-14" d="M238.8,112.178q-.507-2.351-1.008-4.7a10.949,10.949,0,0,1,6.323.279q.345,2.215.7,4.429Z" transform="translate(-180.927 -85.001)"/>
        <path id="Path_19610" data-name="Path 19610" class="cls-20" d="M186.827,97.5a3.3,3.3,0,0,0,.813-.376,3.379,3.379,0,0,1,2.978-.85,27.43,27.43,0,0,0,4.162.047c-.231.71-.382,1.164-.529,1.618l-2.4,2.638c-1.309-.1-2.618-.2-3.928-.315-.942-.081-1.88-.184-2.822-.279l1.047-1.685c.215-.256.432-.51.646-.763Z" transform="translate(-180.927 -85.001)"/>
        <path id="Path_19611" data-name="Path 19611" class="cls-11" d="M238.8,112.178h6.011q.064,1.95.12,3.9c-.373.279-.735.752-1.114.774-1.671.089-3.359.047-5.039.05l.134-1.644V114.7C238.871,113.841,238.835,113.01,238.8,112.178Z" transform="translate(-180.927 -85.001)"/>
        <path id="Path_19612" data-name="Path 19612" class="cls-21" d="M191.248,136.02l-3.343-3.32c1.866.092,3.733.279,5.6.234.641,0,1.273-.557,1.911-.864l4.151,2.808c-.086.933-.772.858-1.432.88C195.83,135.833,193.54,135.939,191.248,136.02Z" transform="translate(-180.927 -85.001)"/>
        <path id="Path_19613" data-name="Path 19613" class="cls-12" d="M240.122,129.93l-6.833-.593,2.357-3.281c1.485-.095,2.972-.15,4.457-.3a1.585,1.585,0,0,1,1.869,1.114Q241.033,128.4,240.122,129.93Z" transform="translate(-180.927 -85.001)"/>
        <path id="Path_19614" data-name="Path 19614" class="cls-22" d="M215.073,103.539c.02-1.081.822-1.047,1.552-1.053,2.463-.022,4.925-.02,7.385-.025l1.95,3.064-7.123.329A7.35,7.35,0,0,0,215.073,103.539Z" transform="translate(-180.927 -85.001)"/>
        <path id="Path_19615" data-name="Path 19615" class="cls-22" d="M202.594,102.481c1.875,0,3.749.014,5.624,0,.8,0,1.373.15,1.306,1.114a12.765,12.765,0,0,0-1.552.836c-1.5,1.1-1.579,2.507-.279,4.393l-2.872-1.067-2.212-2.507C202.6,104.328,202.6,103.4,202.594,102.481Z" transform="translate(-180.927 -85.001)"/>
        <path id="Path_19616" data-name="Path 19616" class="cls-23" d="M195.407,132.07c-.638.3-1.27.85-1.911.864-1.864.036-3.73-.142-5.6-.234l-2.059-2.727,7.078-.334Z" transform="translate(-180.927 -85.001)"/>
        <path id="Path_19617" data-name="Path 19617" class="cls-24" d="M233.993,100.517c2.281-.872,4.616-.46,6.939-.279l1.95,3.88a8.363,8.363,0,0,0-6.518.045Q235.189,102.344,233.993,100.517Z" transform="translate(-180.927 -85.001)"/>
        <path id="Path_19618" data-name="Path 19618" class="cls-20" d="M215.959,98.762c-.242.22-.479.621-.727.63-1.7.056-3.4.05-5.1,0-.212,0-.412-.37-.618-.557q.167-1.638.331-3.279h5.906v1.671c-.582.5-.674.972.1,1.393A.181.181,0,0,1,215.959,98.762Z" transform="translate(-180.927 -85.001)"/>
        <path id="Path_19619" data-name="Path 19619" class="cls-12" d="M192.919,129.638l-7.078.334-2.05-3.373h6.836Q191.772,128.123,192.919,129.638Z" transform="translate(-180.927 -85.001)"/>
        <path id="Path_19620" data-name="Path 19620" class="cls-22" d="M236.378,104.183a8.363,8.363,0,0,1,6.518-.045l1.215,3.621a11.14,11.14,0,0,0-6.323-.279Z" transform="translate(-180.927 -85.001)"/>
        <path id="Path_19621" data-name="Path 19621" class="cls-25" d="M190.627,126.6h-6.836l-1.454-3.6c2.17-.279,4.343-.557,6.471.248Z" transform="translate(-180.927 -85.001)"/>
        <path id="Path_19622" data-name="Path 19622" class="cls-26" d="M226.859,118.245c-2.251,0-4.5-.014-6.747.067a6.991,6.991,0,0,0-1.735.557l-4.972-1.7a8.856,8.856,0,0,1,2.376-.8c2.747-.1,5.5-.053,8.245-.028a19.287,19.287,0,0,1,2.031.206Z" transform="translate(-180.927 -85.001)"/>
        <path id="Path_19623" data-name="Path 19623" class="cls-27" d="M202.126,92.26c-.109-.139-.34-.309-.312-.409.46-1.688-.613-1.627-1.735-1.579a19.5,19.5,0,0,0-2.618.033c-1.454.279-2.875.71-4.312,1.078,3.1-2.557,6.713-4.048,10.92-5.293C203.351,88.335,202.741,90.3,202.126,92.26Z" transform="translate(-180.927 -85.001)"/>
        <path id="Path_19624" data-name="Path 19624" class="cls-28" d="M238.762,116.888c1.671,0,3.365.039,5.039-.05.39-.022.752-.5,1.114-.774l-.894,5.145c-.262-.409-.557-1.178-.783-1.167-1.783.095-3.727-.788-5.309.733Q238.347,118.832,238.762,116.888Z" transform="translate(-180.927 -85.001)"/>
        <path id="Path_19625" data-name="Path 19625" class="cls-26" d="M188.808,123.245c-2.128-.808-4.3-.513-6.471-.248l-.476-1.412c-.056-.184-.109-.368-.162-.557l-.117-.557c.067-.279.131-.535.195-.8l5.716-.279Z" transform="translate(-180.927 -85.001)"/>
        <path id="Path_19626" data-name="Path 19626" class="cls-24" d="M204.811,107.748l2.872,1.067,3.217,1.173a.8.8,0,0,0,.022.228c-1.237.1-2.471.256-3.708.279-1.8.05-3.6,0-5.4.028a8.535,8.535,0,0,0-1.471.279c-.228-.836-.454-1.671-.682-2.507Z" transform="translate(-180.927 -85.001)"/>
        <path id="Path_19627" data-name="Path 19627" class="cls-25" d="M241.952,126.866a1.59,1.59,0,0,0-1.869-1.114c-1.479.15-2.967.206-4.457.3l1.749-3.382,6.218.323Z" transform="translate(-180.927 -85.001)"/>
        <path id="Path_19628" data-name="Path 19628" class="cls-14" d="M187.064,112.462c-.666,0-1.334,0-2,.039-1.279.067-2.554.159-3.833.24l-.3-.836c.042-.175.084-.348.123-.524.064-.376.125-.752.187-1.128l.159-1.072.384-.039,5.8.279c-.031.187-.064.373-.095.557s-.1.365-.156.557Z" transform="translate(-180.927 -85.001)"/>
        <path id="Path_19629" data-name="Path 19629" class="cls-22" d="M183.133,103.985c.025-.134.047-.279.072-.4,1.412-.279,2.816-.6,4.237-.816,1.312-.206,2.034.34,1.869,1.761q-.4.928-.8,1.855c-1.755-.064-3.507-.111-5.259-.206a3.084,3.084,0,0,1-.9-.368l.376-1.114Z" transform="translate(-180.927 -85.001)"/>
        <path id="Path_19630" data-name="Path 19630" class="cls-6" d="M189.312,104.531c.164-1.421-.557-1.967-1.869-1.761-1.421.22-2.825.54-4.237.816l1.9-3.607c.942.095,1.88.2,2.822.279,1.309.114,2.618.212,3.928.315Z" transform="translate(-180.927 -85.001)"/>
        <path id="Path_19631" data-name="Path 19631" class="cls-29" d="M191.248,136.02c2.293-.089,4.585-.187,6.878-.262.66-.022,1.345.053,1.432-.88l9.134,3.095a11.337,11.337,0,0,1-3.293-.184c-3.669-1.34-7.443-.836-11.187-.9-.117,0-.234.1-.44.192.747.8,1.451,1.543,2.153,2.29Z" transform="translate(-180.927 -85.001)"/>
        <path id="Path_19632" data-name="Path 19632" class="cls-13" d="M182.353,105.812a3.084,3.084,0,0,0,.9.368c1.752.095,3.5.142,5.259.206l-.936,3.022-5.8-.279c-.075-.181-.156-.362-.234-.543Z" transform="translate(-180.927 -85.001)"/>
        <path id="Path_19633" data-name="Path 19633" class="cls-19" d="M215.906,131.591l.32-.042-.02.014v3.359c-.426.279-.836.78-1.281.786-1.5.014-3-.142-4.507-.234v-3.047a10.629,10.629,0,0,0,1.474.175C213.3,132.58,214.923,133.329,215.906,131.591Z" transform="translate(-180.927 -85.001)"/>
        <path id="Path_19634" data-name="Path 19634" class="cls-17" d="M243.6,123l-6.218-.323c.064-.262.131-.524.195-.786l.184-.582c.056-.175.114-.354.17-.532,1.585-1.521,3.529-.638,5.312-.733.24,0,.521.758.783,1.167Z" transform="translate(-180.927 -85.001)"/>
        <path id="Path_19635" data-name="Path 19635" class="cls-23" d="M215.906,131.591c-.983,1.738-2.6.989-4.014,1.011a10.627,10.627,0,0,1-1.474-.176q-.019-1.114-.045-2.229a26.7,26.7,0,0,1,3.254-.521C215.592,129.591,215.608,129.652,215.906,131.591Z" transform="translate(-180.927 -85.001)"/>
        <path id="Path_19636" data-name="Path 19636" class="cls-18" d="M215.753,95.547h-5.906V93.04h5.908Z" transform="translate(-180.927 -85.001)"/>
        <path id="Path_19637" data-name="Path 19637" class="cls-13" d="M218.837,105.854l7.126-.318c.164.454.329.908.6,1.646-2.454,0-4.674.05-6.886-.061C219.377,107.1,219.115,106.289,218.837,105.854Z" transform="translate(-180.927 -85.001)"/>
        <path id="Path_19638" data-name="Path 19638" class="cls-20" d="M204.811,107.748l-5.151.557.125-2.229c.738-.953,1.783-.869,2.813-.836Z" transform="translate(-180.927 -85.001)"/>
        <path id="Path_19639" data-name="Path 19639" class="cls-12" d="M222.572,122.443c-.421-.61-.836-1.217-1.259-1.827.638-.039,1.276-.1,1.914-.109,1.329-.017,2.657,0,3.986,0-.114.855-.226,1.71-.34,2.566a7.629,7.629,0,0,0-1.708-.6,21.748,21.748,0,0,0-2.593-.033Z" transform="translate(-180.927 -85.001)"/>
        <path id="Path_19640" data-name="Path 19640" class="cls-29" d="M210.416,135.474c1.5.092,3.006.248,4.507.234.432,0,.855-.51,1.281-.786v3.88h-.579c-.039-1.752-.212-1.872-1.88-1.95a4.766,4.766,0,0,0-3.343.852C210.413,136.953,210.416,136.218,210.416,135.474Z" transform="translate(-180.927 -85.001)"/>
        <path id="Path_19641" data-name="Path 19641" class="cls-29" d="M221.458,128.6l.836-1.167c.189-.922.379-1.841.557-2.763,1.318-.039,2.708.251,3.794-.836A7.806,7.806,0,0,1,221.458,128.6Z" transform="translate(-180.927 -85.001)"/>
        <path id="Path_19642" data-name="Path 19642" class="cls-19" d="M226.648,123.833c-1.086,1.086-2.476.8-3.794.836l-.279-.279v-1.95a21.751,21.751,0,0,1,2.593.028,8.09,8.09,0,0,1,1.708.6Z" transform="translate(-180.927 -85.001)"/>
        <path id="Path_19643" data-name="Path 19643" class="cls-19" d="M229.222,132.972l-4.162.279-.226-.54c.081-.279.159-.557.24-.836l1.449-1.159.479.318.685.476,1.524.939C229.216,132.624,229.219,132.8,229.222,132.972Z" transform="translate(-180.927 -85.001)"/>
        <path id="Path_19644" data-name="Path 19644" class="cls-27" d="M202.6,105.25c-1.031-.039-2.075-.123-2.813.836a6.2,6.2,0,0,1,3.064-4.789l-.251,1.189C202.6,103.4,202.6,104.328,202.6,105.25Z" transform="translate(-180.927 -85.001)"/>
        <path id="Path_19645" data-name="Path 19645" class="cls-30" d="M226.522,130.716l-1.449,1.159c.111-.6.223-1.209.39-2.1C225.962,130.217,226.241,130.468,226.522,130.716Z" transform="translate(-180.927 -85.001)"/>
        <path id="Path_19646" data-name="Path 19646" class="cls-30" d="M224.834,132.716l.226.54-1.036,2.229Z" transform="translate(-180.927 -85.001)"/>
        <path id="Path_19647" data-name="Path 19647" class="cls-9" d="M230.495,89.954l-1.83-1.028Z" transform="translate(-180.927 -85.001)"/>
        <path id="Path_19648" data-name="Path 19648" class="cls-6" d="M215.853,98.612c-.772-.412-.68-.88-.1-1.393C215.789,97.673,215.82,98.135,215.853,98.612Z" transform="translate(-180.927 -85.001)"/>
        <path id="Path_19649" data-name="Path 19649" class="cls-17" d="M200.633,125.226l.88.964Z" transform="translate(-180.927 -85.001)"/>
        <path id="Path_19650" data-name="Path 19650" class="cls-29" d="M210.349,137.945c-.148.187-.331.557-.437.524a2.015,2.015,0,0,1-.663-.446Z" transform="translate(-180.927 -85.001)"/>
        <path id="Path_19651" data-name="Path 19651" class="cls-31" d="M181.236,110.244c-.061.376-.123.752-.187,1.128C181.114,111,181.175,110.62,181.236,110.244Z" transform="translate(-180.927 -85.001)"/>
        <path id="Path_19652" data-name="Path 19652" class="cls-26" d="M212.02,116.9l.836.2Z" transform="translate(-180.927 -85.001)"/>
        <path id="Path_19653" data-name="Path 19653" class="cls-27" d="M192.047,92.2l-.724.591Z" transform="translate(-180.927 -85.001)"/>
        <path id="Path_19654" data-name="Path 19654" class="cls-15" d="M233.938,136.594l.763-.588Z" transform="translate(-180.927 -85.001)"/>
        <path id="Path_19655" data-name="Path 19655" class="cls-18" d="M186.8,97.531c-.214.253-.432.507-.646.763C186.359,98.038,186.585,97.776,186.8,97.531Z" transform="translate(-180.927 -85.001)"/>
        <path id="Path_19656" data-name="Path 19656" class="cls-30" d="M229.222,132.972v-.524l.577.031-.017.493Z" transform="translate(-180.927 -85.001)"/>
        <path id="Path_19657" data-name="Path 19657" class="cls-28" d="M238.91,114.674v.557C238.9,115.047,238.9,114.863,238.91,114.674Z" transform="translate(-180.927 -85.001)"/>
        <path id="Path_19658" data-name="Path 19658" class="cls-26" d="M187.086,116.337l-.042-.54Z" transform="translate(-180.927 -85.001)"/>
        <path id="Path_19659" data-name="Path 19659" class="cls-30" d="M227.687,131.51l-.685-.476Z" transform="translate(-180.927 -85.001)"/>
        <path id="Path_19660" data-name="Path 19660" class="cls-13" d="M187.326,110.515c.053-.181.1-.365.156-.557C187.429,110.15,187.376,110.333,187.326,110.515Z" transform="translate(-180.927 -85.001)"/>
        <path id="Path_19661" data-name="Path 19661" class="cls-24" d="M212.037,110.484l-.593-.164Z" transform="translate(-180.927 -85.001)"/>
        <path id="Path_19662" data-name="Path 19662" class="cls-26" d="M187.415,118.871l-.1-.579Z" transform="translate(-180.927 -85.001)"/>
        <path id="Path_19663" data-name="Path 19663" class="cls-31" d="M181.545,108.59c.078.181.159.362.234.543l-.384.039Z" transform="translate(-180.927 -85.001)"/>
        <path id="Path_19664" data-name="Path 19664" class="cls-30" d="M223.606,137.3l-.292.682Z" transform="translate(-180.927 -85.001)"/>
        <path id="Path_19665" data-name="Path 19665" class="cls-32" d="M227.286,119.111c-.053-.184-.106-.368-.156-.557C227.183,118.743,227.233,118.927,227.286,119.111Z" transform="translate(-180.927 -85.001)"/>
        <path id="Path_19666" data-name="Path 19666" class="cls-6" d="M183.133,103.985l-.4.708Z" transform="translate(-180.927 -85.001)"/>
        <path id="Path_19667" data-name="Path 19667" class="cls-28" d="M237.76,121.306l-.184.582Z" transform="translate(-180.927 -85.001)"/>
        <path id="Path_19668" data-name="Path 19668" class="cls-32" d="M216.461,111.219l-.557-.164Z" transform="translate(-180.927 -85.001)"/>
        <path id="Path_19669" data-name="Path 19669" class="cls-12" d="M216.444,132.142a1.064,1.064,0,0,0-.251.031v-.61C216.285,131.761,216.366,131.95,216.444,132.142Z" transform="translate(-180.927 -85.001)"/>
        <path id="Path_19670" data-name="Path 19670" class="cls-31" d="M181.777,119.674c-.064.279-.128.535-.195.8l-.192-.836Z" transform="translate(-180.927 -85.001)"/>
        <path id="Path_19671" data-name="Path 19671" class="cls-33" d="M208.393,143.636l.855.15Z" transform="translate(-180.927 -85.001)"/>
        <path id="Path_19672" data-name="Path 19672" class="cls-33" d="M203.12,142.527l.571.195Z" transform="translate(-180.927 -85.001)"/>
        <path id="Path_19673" data-name="Path 19673" class="cls-31" d="M181.7,121.033c.053.184.106.368.162.557C181.8,121.4,181.752,121.217,181.7,121.033Z" transform="translate(-180.927 -85.001)"/>
        <path id="Path_19674" data-name="Path 19674" class="cls-29" d="M195.925,139.363h.557l-.017.323Z" transform="translate(-180.927 -85.001)"/>
      </g>
    </g>
  </g>
</svg>
