<svg xmlns="http://www.w3.org/2000/svg" xmlns:xlink="http://www.w3.org/1999/xlink" width="114" height="64" viewBox="0 0 114 64">
  <defs>
    <style>
      .cls-1 {
        fill: #fff;
      }

      .cls-2 {
        clip-path: url(#clip-path);
      }

      .cls-3 {
        fill: #2775ca;
      }

      .cls-4 {
        clip-path: url(#clip-path-2);
      }

      .cls-5 {
        fill: #8773b1;
      }

      .cls-6 {
        fill: #a064a7;
      }

      .cls-7 {
        fill: #ae5a9f;
      }

      .cls-8 {
        fill: #8277b5;
      }

      .cls-9 {
        fill: #c04f97;
      }

      .cls-10 {
        fill: #956aab;
      }

      .cls-11 {
        fill: #bc529a;
      }

      .cls-12 {
        fill: #ab5ca1;
      }

      .cls-13 {
        fill: #757fbb;
      }

      .cls-14 {
        fill: #a560a4;
      }

      .cls-15 {
        fill: #a75ea2;
      }

      .cls-16 {
        fill: #7b7ab7;
      }

      .cls-17 {
        fill: #8f6eae;
      }

      .cls-18 {
        fill: #7f79b6;
      }

      .cls-19 {
        fill: #8873b1;
      }

      .cls-20 {
        fill: #b0599d;
      }

      .cls-21 {
        fill: #b3589d;
      }

      .cls-22 {
        fill: #9d65a7;
      }

      .cls-23 {
        fill: #7181bc;
      }

      .cls-24 {
        fill: #787db9;
      }

      .cls-25 {
        fill: #b7549a;
      }

      .cls-26 {
        fill: #926fb1;
      }

      .cls-27 {
        fill: #996aad;
      }

      .cls-28 {
        fill: #a066aa;
      }

      .cls-29 {
        fill: #8974b5;
      }

      .cls-30 {
        fill: #a562a7;
      }

      .cls-31 {
        fill: #8279b9;
      }
    </style>
    <clipPath id="clip-path">
      <circle id="Ellipse_1898" data-name="Ellipse 1898" class="cls-1" cx="32" cy="32" r="32" transform="translate(-20159 -22253)"/>
    </clipPath>
    <clipPath id="clip-path-2">
      <circle id="Ellipse_2022" data-name="Ellipse 2022" class="cls-1" cx="32" cy="32" r="32" transform="translate(-20109 -22253)"/>
    </clipPath>
  </defs>
  <g id="Group_824" data-name="Group 824" transform="translate(20159 22253)">
    <g id="Mask_Group_111" data-name="Mask Group 111" class="cls-2">
      <g id="usd-coin-usdc-logo" transform="translate(-20159 -22253)">
        <path id="Path_17828" data-name="Path 17828" class="cls-3" d="M32,64A32,32,0,1,0,0,32,31.923,31.923,0,0,0,32,64Z"/>
        <path id="Path_17829" data-name="Path 17829" class="cls-1" d="M40.8,37.067c0-4.667-2.8-6.267-8.4-6.933-4-.533-4.8-1.6-4.8-3.467s1.333-3.067,4-3.067c2.4,0,3.733.8,4.4,2.8a1,1,0,0,0,.933.667h2.133A.911.911,0,0,0,40,26.133V26a6.661,6.661,0,0,0-6-5.467v-3.2c0-.533-.4-.933-1.067-1.067h-2c-.533,0-.933.4-1.067,1.067V20.4c-4,.533-6.533,3.2-6.533,6.533,0,4.4,2.667,6.133,8.267,6.8,3.733.667,4.933,1.467,4.933,3.6s-1.867,3.6-4.4,3.6c-3.467,0-4.667-1.467-5.067-3.467a.974.974,0,0,0-.933-.8H23.867a.911.911,0,0,0-.933.933v.133c.533,3.333,2.667,5.733,7.067,6.4v3.2c0,.533.4.933,1.067,1.067h2c.533,0,.933-.4,1.067-1.067v-3.2c4-.667,6.667-3.467,6.667-7.067Z"/>
        <path id="Path_17830" data-name="Path 17830" class="cls-1" d="M25.2,51.067a19.952,19.952,0,0,1,0-37.467,1.338,1.338,0,0,0,.8-1.333V10.4a1.013,1.013,0,0,0-.8-1.067.8.8,0,0,0-.533.133,23.994,23.994,0,0,0,0,45.733.811.811,0,0,0,1.2-.533C26,54.533,26,54.4,26,54.133V52.267A1.776,1.776,0,0,0,25.2,51.067Zm14.133-41.6a.811.811,0,0,0-1.2.533c-.133.133-.133.267-.133.533V12.4a1.769,1.769,0,0,0,.8,1.333,19.952,19.952,0,0,1,0,37.467,1.338,1.338,0,0,0-.8,1.333V54.4a1.013,1.013,0,0,0,.8,1.067.8.8,0,0,0,.533-.133,24.1,24.1,0,0,0,0-45.867Z"/>
      </g>
    </g>
    <circle id="Ellipse_1899" data-name="Ellipse 1899" class="cls-1" cx="32" cy="32" r="32" transform="translate(-20109 -22253)"/>
    <g id="Mask_Group_141" data-name="Mask Group 141" class="cls-4">
      <g id="xdo" transform="translate(-20109 -22250.277)">
        <path id="Path_19511" data-name="Path 19511" class="cls-1" d="M73.99,82.275V23.869H10.147a2.641,2.641,0,0,1,.621-.155q12.32-.011,24.638,0H74.147q0,28.931-.008,57.864a3.386,3.386,0,0,1-.149.7Z" transform="translate(-10.147 -23.714)"/>
        <path id="Path_19512" data-name="Path 19512" class="cls-5" d="M32.155,64.464l3.871-4.025c.1.1.19.28.289.283q1.1.034,2.206,0c.1,0,.2-.183.292-.281l3.24,3.107,3.276-3.107a4.229,4.229,0,0,0,2.485.233c.1-.07.1-.267.155-.407q2.456,2.569,4.913,5.137c-.732,0-1.465-.03-2.195.008a2.315,2.315,0,0,0-.711.292L46.24,62.2l-.989,1.025,1.062,1.224h-8.5l1.139-1.278-1.173-1.033c-.881.857-1.864,1.81-2.846,2.763a3.165,3.165,0,0,0-.708-.264C33.537,64.544,32.846,64.511,32.155,64.464Z" transform="translate(-10.147 -23.714)"/>
        <path id="Path_19513" data-name="Path 19513" class="cls-6" d="M29.669,51.424c.337-.32.155-.544-.106-.814-1.26-1.322-2.5-2.659-3.751-3.992a2.787,2.787,0,0,1,.694-.275c.756-.085,1.519-.126,2.279-.182l2.995,2.913L33,47.951c-.381-.427-.7-.786-1.025-1.146,1.243-.054,2.5-.126,3.747-.148a2.467,2.467,0,0,1,.767.273c-.763.834-1.508,1.682-2.29,2.5s-1.553,1.553-2.33,2.33Z" transform="translate(-10.147 -23.714)"/>
        <path id="Path_19514" data-name="Path 19514" class="cls-7" d="M38.043,41.372,35.4,38.6a5.334,5.334,0,0,1,1.142-.311c.92-.05,1.841-.02,2.762-.023l1.6,1.454,1.087-1.3,1.347,1.5,1.019-1.243a4.766,4.766,0,0,0,.834.213c1.03.073,2.063.115,3.1.168l-2.193,2.316-3.621.026c-.3-.421-.573-.294-.84.034Z" transform="translate(-10.147 -23.714)"/>
        <path id="Path_19515" data-name="Path 19515" class="cls-8" d="M37.812,64.435h8.5l3.032,3.155a2.989,2.989,0,0,1-.7.264c-.806.084-1.619.124-2.428.182l-3.062-3.014-1.027,1.306-1.137-1.311-2.621,2.575c-.791-.064-1.583-.107-2.369-.2a3.15,3.15,0,0,1-.747-.294Z" transform="translate(-10.147 -23.714)"/>
        <path id="Path_19516" data-name="Path 19516" class="cls-9" d="M50.857,31.751a5.79,5.79,0,0,1,.443-.607c.551-.579,1.17-1.1,1.67-1.723,1.709-2.109,3.9-2.723,6.687-2.237l-4.884,5.047a2.843,2.843,0,0,0-.749-.292C52.97,31.844,51.913,31.808,50.857,31.751Z" transform="translate(-10.147 -23.714)"/>
        <path id="Path_19517" data-name="Path 19517" class="cls-10" d="M29.669,51.424l2.2.337-.475.777,3.714,4a3.039,3.039,0,0,1-.651.311c-.409.093-.833.124-1.25.182l-1.123-1.05-1.014,1.179c-.878-.1-1.755-.19-2.631-.3-.311-.039-.621-.118-.932-.18l2.544-2.816L28.616,52.3C28.958,52,29.31,51.714,29.669,51.424Z" transform="translate(-10.147 -23.714)"/>
        <path id="Path_19518" data-name="Path 19518" class="cls-11" d="M55.073,34.69c2.019-2.125,4.029-4.258,6.067-6.369a.755.755,0,0,1,.69-.107c.528.25,1.011.592,1.572.932-2.007,2.088-3.97,4.127-5.928,6.165-.466-.1-.932-.177-1.4-.294C55.733,34.932,55.407,34.8,55.073,34.69Z" transform="translate(-10.147 -23.714)"/>
        <path id="Path_19519" data-name="Path 19519" class="cls-12" d="M42.47,41.4l3.621-.026c-.631.75-.631.75.612,1.847l3.43-3.391c.6.051,1.205.081,1.8.155a4.428,4.428,0,0,1,.811.269q-1.615,1.709-3.228,3.417c-.207.216-.421.426-.631.637H45.2Z" transform="translate(-10.147 -23.714)"/>
        <path id="Path_19520" data-name="Path 19520" class="cls-13" d="M58.048,70.8l5.35,5.059c-.578.359-.9.559-1.216.756-1.047.642-1.112.707-1.954-.137-1.794-1.8-3.512-3.678-5.261-5.524Z" transform="translate(-10.147 -23.714)"/>
        <path id="Path_19521" data-name="Path 19521" class="cls-14" d="M45.2,44.316h3.685l-.517.657,1.213,1.286,2.228-2.29c.565.064,1.134.109,1.695.2a6.953,6.953,0,0,1,.9.269l-3.217,3.441-2.485.165Z" transform="translate(-10.147 -23.714)"/>
        <path id="Path_19522" data-name="Path 19522" class="cls-15" d="M36.485,46.93a2.354,2.354,0,0,0-.767-.273c-1.243.022-2.5.093-3.747.148l-2.628-2.8c.579-.054,1.16-.1,1.738-.166.311-.037.621-.123.932-.186l2.526,2.684,1.111-1.513c-.228-.259-.545-.621-.862-.986.155-.1.294-.281.447-.289.788-.034,1.577-.053,2.364-.022.621.025,1.233.13,1.85.2Z" transform="translate(-10.147 -23.714)"/>
        <path id="Path_19523" data-name="Path 19523" class="cls-16" d="M20.846,67.882c-1.532,1.553-3.069,3.107-4.593,4.66-.348.356-.645.287-1.014.039-.531-.359-1.087-.671-1.734-1.059l3.773-3.973c.635,0,1.274-.042,1.9.012a16.2,16.2,0,0,1,1.665.322Z" transform="translate(-10.147 -23.714)"/>
        <path id="Path_19524" data-name="Path 19524" class="cls-17" d="M47.965,60.258c-.048.14-.054.337-.155.407a4.231,4.231,0,0,1-2.485-.233L48.9,56.649l2.189.231c-.311.289-.235.519.047.806.873.895,1.709,1.821,2.569,2.734-.643.054-1.291.089-1.931.174a4.009,4.009,0,0,0-.788.28l-1.873-1.9Z" transform="translate(-10.147 -23.714)"/>
        <path id="Path_19525" data-name="Path 19525" class="cls-18" d="M58.048,70.8l-3.082.155-4.994-5.264a2.284,2.284,0,0,1,.711-.292c.73-.037,1.463-.009,2.195-.008Z" transform="translate(-10.147 -23.714)"/>
        <path id="Path_19526" data-name="Path 19526" class="cls-19" d="M59.579,59.8l4.2,4.491c-.893.054-1.789.09-2.68.172a3.6,3.6,0,0,0-.809.28L56.031,60.27c.962-.051,1.923-.084,2.881-.163A2.161,2.161,0,0,0,59.579,59.8Z" transform="translate(-10.147 -23.714)"/>
        <path id="Path_19527" data-name="Path 19527" class="cls-10" d="M51.1,56.881l-2.189-.231a.092.092,0,0,1,.1-.081l.179-.188c.932-1,1.864-1.995,2.8-3,.283-.311.519-.663.777-1,.474-.053.952-.084,1.42-.168a5.451,5.451,0,0,0,.811-.281l.486.429L54.057,53.9l2.3,2.485-3.883.155-.488-.419Z" transform="translate(-10.147 -23.714)"/>
        <path id="Path_19528" data-name="Path 19528" class="cls-12" d="M39.455,43.736c-.621-.07-1.232-.176-1.85-.2-.788-.031-1.577-.012-2.364.022-.155,0-.3.188-.447.289l-3.4-3.573,2.759-.28c.893.954,1.793,1.9,2.678,2.866.328.356.621.517.983.042.227-.311.477-.595.732-.907l-.5-.621,3.587.061Z" transform="translate(-10.147 -23.714)"/>
        <path id="Path_19529" data-name="Path 19529" class="cls-16" d="M46.214,68.037c.809-.057,1.622-.1,2.428-.182a2.889,2.889,0,0,0,.7-.264l4.542,4.749c-.8.057-1.606.095-2.4.185a2.813,2.813,0,0,0-.736.311Z" transform="translate(-10.147 -23.714)"/>
        <path id="Path_19530" data-name="Path 19530" class="cls-20" d="M21.281,41.851l-4.61-4.836a2.908,2.908,0,0,1,.736-.275c.483-.043.977.019,1.46-.028.2-.02.393-.2.589-.311l4.8,5.031a3.383,3.383,0,0,1-.711.244C22.783,41.756,22.028,41.795,21.281,41.851Z" transform="translate(-10.147 -23.714)"/>
        <path id="Path_19531" data-name="Path 19531" class="cls-11" d="M50.857,31.751c1.056.057,2.114.1,3.167.185a2.843,2.843,0,0,1,.749.292l-3.66,3.859a4.188,4.188,0,0,0-.873-.278c-1-.1-2.008-.155-3.014-.216Z" transform="translate(-10.147 -23.714)"/>
        <path id="Path_19532" data-name="Path 19532" class="cls-21" d="M39.3,38.269c-.921,0-1.842-.026-2.762.023A5.522,5.522,0,0,0,35.4,38.6l-3.824-4.054c1.073-.048,2.148-.087,3.222-.155a4.553,4.553,0,0,0,.784-.183Z" transform="translate(-10.147 -23.714)"/>
        <path id="Path_19533" data-name="Path 19533" class="cls-11" d="M35.572,34.213a4.553,4.553,0,0,1-.784.183c-1.073.067-2.148.106-3.222.155l-3.518-3.674c.4-.064.8-.155,1.2-.185.965-.07,1.932-.109,2.9-.155Z" transform="translate(-10.147 -23.714)"/>
        <path id="Path_19534" data-name="Path 19534" class="cls-8" d="M60.292,64.749a3.6,3.6,0,0,1,.809-.28c.89-.082,1.786-.118,2.68-.172q1.945,2.088,3.893,4.172c-.789.057-1.58.1-2.367.177-.368.034-.732.124-1.1.188Z" transform="translate(-10.147 -23.714)"/>
        <path id="Path_19535" data-name="Path 19535" class="cls-15" d="M21.281,41.851c.753-.056,1.508-.095,2.259-.176a3.383,3.383,0,0,0,.711-.244l4.533,4.73c-.76.056-1.522.1-2.279.182a2.764,2.764,0,0,0-.694.275Z" transform="translate(-10.147 -23.714)"/>
        <path id="Path_19536" data-name="Path 19536" class="cls-22" d="M54.989,51.93a5.452,5.452,0,0,1-.811.281c-.466.084-.946.115-1.42.168L48.7,48.045l2.485-.165,1.327,1.463c.2-.322.373-.592.545-.864a2.529,2.529,0,0,0,.735.311c.75.093,1.507.129,2.26.186l-1.844,2.08Z" transform="translate(-10.147 -23.714)"/>
        <path id="Path_19537" data-name="Path 19537" class="cls-18" d="M59.571,69.884,54.89,64.938l3-.177q2.377,2.485,4.756,4.971Z" transform="translate(-10.147 -23.714)"/>
        <path id="Path_19538" data-name="Path 19538" class="cls-23" d="M31.727,74.543c-1.229,1.314-2.4,2.681-3.7,3.921-.923.884-1.864.733-3.616-.4l4.025-3.845a4.515,4.515,0,0,0,.991.3C30.19,74.561,30.96,74.538,31.727,74.543Z" transform="translate(-10.147 -23.714)"/>
        <path id="Path_19539" data-name="Path 19539" class="cls-24" d="M59.571,69.884l3.077-.155,4.224,4.056c-.466.287-.777.477-1.08.663-1.1.67-1.193.707-2.085-.193C62.29,72.831,60.948,71.344,59.571,69.884Z" transform="translate(-10.147 -23.714)"/>
        <path id="Path_19540" data-name="Path 19540" class="cls-9" d="M32.155,30.531c-.966.051-1.934.09-2.9.155-.4.028-.8.121-1.2.185L24.509,27.2a6.518,6.518,0,0,1,6.975,2.552C31.689,30.023,31.923,30.272,32.155,30.531Z" transform="translate(-10.147 -23.714)"/>
        <path id="Path_19541" data-name="Path 19541" class="cls-20" d="M67.667,36.8l-4.194,4.426c-.455-.053-.91-.113-1.365-.155-.581-.057-1.163-.1-1.746-.155l4.368-4.568c.676.076,1.353.14,2.027.235a8.593,8.593,0,0,1,.91.219Z" transform="translate(-10.147 -23.714)"/>
        <path id="Path_19542" data-name="Path 19542" class="cls-17" d="M33.2,57.039c.418-.057.842-.089,1.25-.182a3.04,3.04,0,0,0,.651-.311l3.713,3.9c-.1.1-.191.278-.292.281q-1.1.034-2.206,0c-.1,0-.193-.183-.289-.283l-.859-1.457-.359-.134q-.555.718-1.106,1.437a2.411,2.411,0,0,0-.659-.3c-.669-.09-1.345-.124-2.019-.182.621-.669,1.255-1.328,1.85-2.019A2.825,2.825,0,0,0,33.2,57.039Z" transform="translate(-10.147 -23.714)"/>
        <path id="Path_19543" data-name="Path 19543" class="cls-17" d="M27.494,56.684c.311.062.621.141.932.18.876.109,1.754.2,2.631.3L27.65,60.736c-.593,0-1.188.04-1.777-.009-.648-.054-1.291-.191-1.935-.292Z" transform="translate(-10.147 -23.714)"/>
        <path id="Path_19544" data-name="Path 19544" class="cls-21" d="M52.747,40.258a4.428,4.428,0,0,0-.811-.269c-.6-.081-1.2-.11-1.8-.155l4.94-5.139c.334.112.66.242,1,.328.466.117.932.2,1.4.294Q55.107,37.785,52.747,40.258Z" transform="translate(-10.147 -23.714)"/>
        <path id="Path_19545" data-name="Path 19545" class="cls-15" d="M60.359,40.912c.583.051,1.165.1,1.746.155.455.047.91.107,1.365.155L59.3,45.572c-.374-.057-.747-.132-1.125-.168-.657-.062-1.316-.1-1.974-.148Z" transform="translate(-10.147 -23.714)"/>
        <path id="Path_19546" data-name="Path 19546" class="cls-11" d="M60.009,35.417c1.108-1.176,2.2-2.363,3.324-3.523.551-.569,1.157-1.087,1.813-1.693l1.824,1.087-4.329,4.5c-.621-.048-1.255-.079-1.878-.155A4.464,4.464,0,0,1,60.009,35.417Z" transform="translate(-10.147 -23.714)"/>
        <path id="Path_19547" data-name="Path 19547" class="cls-17" d="M52.486,56.542l3.883-.155c.887.976,1.772,1.954,2.666,2.925a7.2,7.2,0,0,0,.548.492,2.236,2.236,0,0,1-.666.3c-.958.079-1.92.112-2.881.163Z" transform="translate(-10.147 -23.714)"/>
        <path id="Path_19548" data-name="Path 19548" class="cls-13" d="M27.816,72.368c-1.457,1.482-2.917,2.951-4.366,4.447a.755.755,0,0,1-1.136.04c-.407-.292-.867-.548-1.5-.932,1.386-1.322,2.721-2.594,4.057-3.865.688.05,1.378.092,2.064.155A7.136,7.136,0,0,1,27.816,72.368Z" transform="translate(-10.147 -23.714)"/>
        <path id="Path_19549" data-name="Path 19549" class="cls-19" d="M23.94,60.438c.645.1,1.288.238,1.935.292.589.05,1.184.009,1.777.009l-3.542,3.728L20.349,64.3Z" transform="translate(-10.147 -23.714)"/>
        <path id="Path_19550" data-name="Path 19550" class="cls-16" d="M27.816,72.368c-.292-.054-.583-.13-.876-.155-.687-.065-1.376-.107-2.064-.155L28.9,67.873c.694,0,1.389-.028,2.08.014a2.345,2.345,0,0,1,.713.311c-.388.466-.758.932-1.171,1.373C29.632,70.513,28.719,71.436,27.816,72.368Z" transform="translate(-10.147 -23.714)"/>
        <path id="Path_19551" data-name="Path 19551" class="cls-24" d="M31.727,74.543c-.767,0-1.538.02-2.3-.028a4.515,4.515,0,0,1-.991-.3l3.553-3.728,1.575.155,1.726.186Z" transform="translate(-10.147 -23.714)"/>
        <path id="Path_19552" data-name="Path 19552" class="cls-16" d="M64.21,68.834c.365-.064.729-.155,1.1-.188.788-.073,1.578-.12,2.367-.177q1.553,1.379,3.107,2.756l-.194.328c-.663.4-1.316.826-2,1.19a.659.659,0,0,1-.595-.123C66.718,71.372,65.466,70.1,64.21,68.834Z" transform="translate(-10.147 -23.714)"/>
        <path id="Path_19553" data-name="Path 19553" class="cls-19" d="M57.892,64.761l-3,.177-3.9-4.064a4.009,4.009,0,0,1,.788-.28c.64-.085,1.288-.12,1.931-.174Z" transform="translate(-10.147 -23.714)"/>
        <path id="Path_19554" data-name="Path 19554" class="cls-24" d="M24.077,70.4q-2.113,2.145-4.225,4.286a.719.719,0,0,1-1.076.037c-.416-.3-.873-.544-1.508-.932L21.028,70.2Z" transform="translate(-10.147 -23.714)"/>
        <path id="Path_19555" data-name="Path 19555" class="cls-21" d="M47.222,35.592c1.005.068,2.019.12,3.014.216a4.187,4.187,0,0,1,.873.278l-2.829,2.97c-1.033-.053-2.066-.095-3.1-.168a4.766,4.766,0,0,1-.834-.213Z" transform="translate(-10.147 -23.714)"/>
        <path id="Path_19556" data-name="Path 19556" class="cls-20" d="M60.009,35.417a4.464,4.464,0,0,0,.753.219c.621.071,1.252.1,1.878.155l-4.3,4.5a5.948,5.948,0,0,0-.878-.3c-.536-.1-1.08-.141-1.62-.207Z" transform="translate(-10.147 -23.714)"/>
        <path id="Path_19557" data-name="Path 19557" class="cls-18" d="M24.077,70.4l-3.049-.2q1.939-2.019,3.874-4.028c.7.048,1.4.076,2.094.155a2.366,2.366,0,0,1,.662.3Z" transform="translate(-10.147 -23.714)"/>
        <path id="Path_19558" data-name="Path 19558" class="cls-13" d="M50.742,72.836a2.923,2.923,0,0,1,.736-.311c.8-.09,1.6-.127,2.4-.185l3.389,3.545c-.8.064-1.6.106-2.388.2a2.83,2.83,0,0,0-.738.318Z" transform="translate(-10.147 -23.714)"/>
        <path id="Path_19559" data-name="Path 19559" class="cls-25" d="M19.45,36.4c-.2.109-.385.292-.589.311-.483.047-.977-.016-1.46.028a2.908,2.908,0,0,0-.736.275L13.339,33.6l2.22-1.341,3.417,3.685C19.13,36.1,19.293,36.246,19.45,36.4Z" transform="translate(-10.147 -23.714)"/>
        <path id="Path_19560" data-name="Path 19560" class="cls-8" d="M20.349,64.3l3.762.168q-1.633,1.709-3.262,3.417a16.2,16.2,0,0,0-1.665-.311c-.621-.054-1.268-.012-1.9-.012Z" transform="translate(-10.147 -23.714)"/>
        <path id="Path_19561" data-name="Path 19561" class="cls-12" d="M55.839,39.783c.541.065,1.087.11,1.62.207a5.949,5.949,0,0,1,.878.3q-1.675,1.729-3.347,3.462c-.208.216-.388.466-.581.693a6.955,6.955,0,0,0-.9-.269c-.561-.09-1.129-.135-1.695-.2Z" transform="translate(-10.147 -23.714)"/>
        <path id="Path_19562" data-name="Path 19562" class="cls-5" d="M27.658,66.628a2.365,2.365,0,0,0-.662-.3c-.694-.082-1.4-.11-2.094-.155l3.843-4.039a7.676,7.676,0,0,0,1.058.3c.567.079,1.142.093,1.709.134Z" transform="translate(-10.147 -23.714)"/>
        <path id="Path_19563" data-name="Path 19563" class="cls-9" d="M24.364,32.869l-3.883-3.557c.834-.511,1.375-.875,1.949-1.17a.647.647,0,0,1,.565.171c1.168,1.226,2.311,2.475,3.467,3.713.222.238.466.454.7.68Z" transform="translate(-10.147 -23.714)"/>
        <path id="Path_19564" data-name="Path 19564" class="cls-25" d="M67.667,36.8a8.592,8.592,0,0,0-.913-.222c-.674-.095-1.351-.155-2.027-.235l3.865-4.079,2.2,1.328Z" transform="translate(-10.147 -23.714)"/>
        <path id="Path_19565" data-name="Path 19565" class="cls-20" d="M26.407,40.917l-3.851-4.039,2.822-.168q1.847,1.929,3.7,3.855a8.718,8.718,0,0,1-.859.183C27.608,40.821,27,40.863,26.407,40.917Z" transform="translate(-10.147 -23.714)"/>
        <path id="Path_19566" data-name="Path 19566" class="cls-6" d="M56.205,45.26c.659.047,1.317.085,1.974.148.377.036.75.11,1.125.168l-3.247,3.417c-.753-.057-1.51-.093-2.26-.186a3.04,3.04,0,0,1-.735-.311Z" transform="translate(-10.147 -23.714)"/>
        <path id="Path_19567" data-name="Path 19567" class="cls-18" d="M35.288,70.833l-1.726-.172-1.575-.155,3.262-3.4A3.15,3.15,0,0,0,36,67.4c.786.095,1.578.138,2.369.2Z" transform="translate(-10.147 -23.714)"/>
        <path id="Path_19568" data-name="Path 19568" class="cls-20" d="M34.146,39.987l-2.759.28q-1.839-1.928-3.678-3.851l2.849-.188Z" transform="translate(-10.147 -23.714)"/>
        <path id="Path_19569" data-name="Path 19569" class="cls-8" d="M31.689,68.193a2.173,2.173,0,0,0-.713-.311c-.691-.042-1.386-.014-2.08-.014l3.259-3.4c.691.051,1.382.084,2.069.155a3.251,3.251,0,0,1,.708.264Z" transform="translate(-10.147 -23.714)"/>
        <path id="Path_19570" data-name="Path 19570" class="cls-25" d="M30.558,36.227l-2.849.188-3.344-3.546,2.8-.155,3.13,3.278.141.115Z" transform="translate(-10.147 -23.714)"/>
        <path id="Path_19571" data-name="Path 19571" class="cls-23" d="M54.147,76.408a2.83,2.83,0,0,1,.738-.318c.792-.1,1.591-.14,2.388-.2l2.151,2.344c-1.282,1.146-2.832,1.146-4.124-.578C54.953,77.2,54.531,76.821,54.147,76.408Z" transform="translate(-10.147 -23.714)"/>
        <path id="Path_19572" data-name="Path 19572" class="cls-12" d="M26.407,40.917c.6-.054,1.209-.1,1.81-.166a8.718,8.718,0,0,0,.859-.183l2.951,3.094a9.422,9.422,0,0,1-.932.186c-.578.07-1.159.112-1.738.166Z" transform="translate(-10.147 -23.714)"/>
        <path id="Path_19573" data-name="Path 19573" class="cls-11" d="M19.751,33.939l-2.74-2.534c.747-.466,1.271-.82,1.827-1.111a.641.641,0,0,1,.57.143c1.053,1.087,2.082,2.195,3.118,3.3Z" transform="translate(-10.147 -23.714)"/>
        <path id="Path_19574" data-name="Path 19574" class="cls-25" d="M19.751,33.939l2.773-.205,2.846,2.978-2.822.168Z" transform="translate(-10.147 -23.714)"/>
        <path id="Path_19575" data-name="Path 19575" class="cls-19" d="M31.518,62.568c-.573-.04-1.148-.054-1.709-.134a7.677,7.677,0,0,1-1.058-.3L31.025,59.8c.673.057,1.348.092,2.019.182a2.41,2.41,0,0,1,.659.3Z" transform="translate(-10.147 -23.714)"/>
        <path id="Path_19576" data-name="Path 19576" class="cls-20" d="M30.437,36.106l-.141-.115Z" transform="translate(-10.147 -23.714)"/>
        <path id="Path_19577" data-name="Path 19577" class="cls-17" d="M49.01,56.569l.179-.188Z" transform="translate(-10.147 -23.714)"/>
        <path id="Path_19578" data-name="Path 19578" class="cls-26" d="M50.035,53.482,48.289,55.21a3.342,3.342,0,0,0-.777-.193q-5.448-.019-10.9,0a3.161,3.161,0,0,0-.777.205L34.1,53.482a11.081,11.081,0,0,1,1.365-.171q6.6-.019,13.2,0a11.078,11.078,0,0,1,1.367.171Z" transform="translate(-10.147 -23.714)"/>
        <path id="Path_19579" data-name="Path 19579" class="cls-27" d="M50.035,53.482a11.081,11.081,0,0,0-1.365-.171q-6.6-.019-13.2,0a11.08,11.08,0,0,0-1.365.171l-1.207-1.134.955-.769c.222.109.446.311.668.311q7.568.026,15.134,0a1.73,1.73,0,0,0,.621-.266l.895.777Z" transform="translate(-10.147 -23.714)"/>
        <path id="Path_19580" data-name="Path 19580" class="cls-28" d="M50.279,51.632c-.208.093-.418.266-.621.266q-7.565.023-15.134,0c-.222,0-.446-.2-.668-.311L35.1,50.344a3.094,3.094,0,0,0,.944.311q6.028.033,12.054,0a6.1,6.1,0,0,0,.976-.155Z" transform="translate(-10.147 -23.714)"/>
        <path id="Path_19581" data-name="Path 19581" class="cls-29" d="M35.841,55.222a3.158,3.158,0,0,1,.777-.205q5.448-.019,10.9,0a3.267,3.267,0,0,1,.777.193l-1.365,1.367H37.2Z" transform="translate(-10.147 -23.714)"/>
        <path id="Path_19582" data-name="Path 19582" class="cls-12" d="M36.33,49.111l1.553-1.544a2.524,2.524,0,0,0,.8.3q3.388.034,6.777,0a2.451,2.451,0,0,0,.8-.3q.853.854,1.709,1.709a3.059,3.059,0,0,1-.668.155q-5.182.016-10.366,0C36.728,49.416,36.529,49.218,36.33,49.111Z" transform="translate(-10.147 -23.714)"/>
        <path id="Path_19583" data-name="Path 19583" class="cls-30" d="M36.33,49.111c.2.107.4.311.6.311q5.182.028,10.366,0a3.059,3.059,0,0,0,.668-.155l1.1,1.233a6.1,6.1,0,0,1-.976.155q-6.028.016-12.054,0a3.483,3.483,0,0,1-.944-.311Z" transform="translate(-10.147 -23.714)"/>
        <path id="Path_19584" data-name="Path 19584" class="cls-21" d="M46.253,47.567a2.524,2.524,0,0,1-.8.3q-3.388.034-6.777,0a2.451,2.451,0,0,1-.8-.3l1.553-1.553c.763.051,1.527.155,2.29.144,1,0,1.99-.093,2.986-.144Z" transform="translate(-10.147 -23.714)"/>
        <path id="Path_19585" data-name="Path 19585" class="cls-31" d="M37.2,56.58h9.729l-1.553,1.553c-1.258-.057-2.515-.155-3.773-.155-.946,0-1.894.1-2.841.155Z" transform="translate(-10.147 -23.714)"/>
        <path id="Path_19586" data-name="Path 19586" class="cls-24" d="M38.761,58.127c.948-.057,1.9-.168,2.841-.155,1.258,0,2.515.1,3.773.155L43.822,59.68H40.308Z" transform="translate(-10.147 -23.714)"/>
        <path id="Path_19587" data-name="Path 19587" class="cls-11" d="M44.706,46.021c-1,.051-1.99.138-2.986.144-.763,0-1.527-.093-2.29-.144l2.7-2.513Z" transform="translate(-10.147 -23.714)"/>
        <path id="Path_19588" data-name="Path 19588" class="cls-23" d="M40.308,59.677h3.518L42.068,61.4Z" transform="translate(-10.147 -23.714)"/>
      </g>
    </g>
  </g>
</svg>
