<?xml version="1.0" encoding="utf-8"?>
<!-- Generator: Adobe Illustrator 24.0.0, SVG Export Plug-In . SVG Version: 6.00 Build 0)  -->
<svg version="1.1" id="Layer_1" xmlns="http://www.w3.org/2000/svg" xmlns:xlink="http://www.w3.org/1999/xlink" x="0px" y="0px"
	 viewBox="0 0 576 432" style="enable-background:new 0 0 576 432;" xml:space="preserve">
<style type="text/css">
	.st0{fill:#AFD5F5;}
	.st1{fill:#C2EDFC;}
	.st2{fill:#A7B2F9;}
	.st3{fill:#C6D2F9;}
	.st4{fill:#A8B2F5;}
	.st5{fill:#9F97F7;}
	.st6{fill:#BB98EF;}
	.st7{fill:#A296D1;}
	.st8{fill:#D99CEE;}
	.st9{fill:#F5D3FA;}
	.st10{fill:#D99CFA;}
	.st11{fill:#D2FDFE;}
	.st12{fill:none;stroke:#FFFFFF;stroke-width:3.2226;stroke-linecap:round;stroke-linejoin:round;stroke-miterlimit:10;}
	.st13{fill:#FFFFFF;}
</style>
<g>
	<g>
		<g>
			<polygon class="st0" points="212.55,205.08 166.23,194.76 146.68,252.77 180.85,214.1 			"/>
			<polygon class="st0" points="201.87,235.12 212.55,205.08 180.85,214.1 			"/>
			<polygon class="st1" points="201.87,235.12 180.85,214.1 146.68,252.77 223.96,293.63 201.87,235.12 			"/>
			<polygon class="st0" points="201.87,235.12 201.87,235.12 223.96,293.63 301.24,334.49 			"/>
		</g>
		<g>
			<g>
				<polygon class="st0" points="301.24,334.49 412.33,223.45 355.91,231.21 				"/>
				<polygon class="st0" points="389.13,161.21 336.81,191.03 380.85,183.99 424.89,210.89 				"/>
				<polygon class="st1" points="380.85,183.99 355.91,231.21 355.91,231.21 412.33,223.45 424.89,210.89 				"/>
				<polygon class="st2" points="252.49,186.66 252.49,186.66 252.49,186.66 272.52,247.42 291.68,250.75 268.5,47.56 
					236.41,137.91 236.41,137.91 				"/>
				<polygon class="st3" points="292.77,250.94 331.07,238.99 268.5,47.56 291.68,250.75 				"/>
				<polygon class="st4" points="355.91,231.21 355.91,231.21 268.5,47.56 331.07,238.99 				"/>
				<polygon class="st5" points="236.41,137.91 236.41,137.91 201.87,235.12 252.49,186.66 				"/>
				<polygon class="st6" points="201.87,235.12 301.24,334.49 272.52,247.42 				"/>
				<polygon class="st7" points="331.07,238.99 331.07,238.99 301.24,334.49 355.91,231.21 				"/>
				<polygon class="st8" points="252.49,186.66 201.87,235.12 272.52,247.42 				"/>
				<polygon class="st9" points="272.52,247.42 301.24,334.49 291.68,250.75 				"/>
				<polygon class="st10" points="331.07,238.99 292.77,250.94 291.68,250.75 301.24,334.49 331.07,238.99 				"/>
			</g>
			<polygon class="st11" points="336.81,191.03 355.91,231.21 380.85,183.99 			"/>
			<g>
				<g>
					<polygon class="st12" points="268.5,47.56 201.87,235.12 301.24,334.49 355.95,231.22 					"/>
					<line class="st12" x1="301.24" y1="334.49" x2="268.5" y2="47.56"/>
					<line class="st12" x1="201.87" y1="235.12" x2="292.77" y2="250.94"/>
					<line class="st12" x1="355.95" y1="231.22" x2="292.77" y2="250.94"/>
					<line class="st12" x1="252.49" y1="186.66" x2="201.87" y2="235.12"/>
					<line class="st12" x1="301.24" y1="334.49" x2="236.41" y2="137.91"/>
					<polyline class="st12" points="268.5,47.56 331.07,238.99 301.24,334.49 					"/>
				</g>
				<polyline class="st12" points="336.81,191.03 389.13,161.21 424.89,210.89 301.24,334.49 				"/>
				<polyline class="st12" points="424.89,210.89 380.85,183.99 336.81,191.03 				"/>
				<line class="st12" x1="380.85" y1="183.99" x2="301.24" y2="334.49"/>
				<line class="st12" x1="412.33" y1="223.45" x2="355.95" y2="231.22"/>
			</g>
			<circle class="st13" cx="252.49" cy="186.66" r="4.36"/>
			<circle class="st13" cx="201.87" cy="235.12" r="4.36"/>
			<circle class="st13" cx="180.85" cy="214.1" r="4.36"/>
			<circle class="st13" cx="272.52" cy="247.42" r="4.36"/>
			<circle class="st13" cx="291.68" cy="250.75" r="4.36"/>
			<circle class="st13" cx="331.07" cy="238.99" r="4.36"/>
			<circle class="st13" cx="355.91" cy="231.21" r="4.36"/>
			<circle class="st13" cx="380.85" cy="183.99" r="4.36"/>
		</g>
		<g>
			<polyline class="st12" points="212.55,205.08 166.23,194.76 146.68,252.77 301.24,334.49 			"/>
			<polyline class="st12" points="146.68,252.77 180.85,214.1 212.55,205.08 			"/>
			<line class="st12" x1="180.85" y1="214.1" x2="301.24" y2="334.49"/>
			<line class="st12" x1="223.96" y1="293.63" x2="201.87" y2="235.12"/>
		</g>
	</g>
</g>
<g>
	<g>
		<path d="M84.07,376.8h-7.24v7.53H72v-25.59c4.02,0,8.04-0.04,12.07-0.04C96.57,358.71,96.61,376.8,84.07,376.8z M76.83,372.38
			h7.24c6.18,0,6.14-9.07,0-9.07h-7.24V372.38z"/>
		<path d="M121.87,371.69c-0.07,6.62-4.13,13.23-13.12,13.23c-8.99,0-13.16-6.47-13.16-13.2s4.31-13.49,13.16-13.49
			C117.56,358.23,121.94,364.99,121.87,371.69z M100.34,371.79c0.11,4.21,2.38,8.7,8.41,8.7c6.03,0,8.3-4.53,8.37-8.74
			c0.07-4.31-2.34-9.14-8.37-9.14C102.71,362.62,100.23,367.48,100.34,371.79z"/>
		<path d="M130.25,358.74v21.13h13.16v4.46h-17.99v-25.59H130.25z"/>
		<path d="M153.02,369.31l6.8-10.57h5.81v0.22l-10.2,14.81v10.57h-4.83v-10.57l-9.83-14.81v-0.22h5.74L153.02,369.31z"/>
		<path d="M190.32,381.12c-2.63,2.6-6.03,3.8-9.73,3.8c-9.51,0-13.53-6.54-13.56-13.2c-0.04-6.69,4.31-13.49,13.56-13.49
			c3.47,0,6.76,1.32,9.4,3.91l-3.22,3.11c-1.68-1.65-3.95-2.41-6.18-2.41c-6.18,0-8.85,4.61-8.81,8.88
			c0.04,4.24,2.49,8.67,8.81,8.67c2.23,0,4.75-0.91,6.43-2.6L190.32,381.12z"/>
		<path d="M215.73,384.34h-5.74l-7.46-8.55h-4.64v8.55h-4.83v-25.63c4.06,0,8.12,0.04,12.17,0.04c6.03,0.04,9.21,4.06,9.21,8.48
			c0,3.51-1.61,7.06-6.47,8.04l7.75,8.74V384.34z M197.89,363.24v8.19h7.35c3.07,0,4.39-2.05,4.39-4.1c0-2.05-1.35-4.09-4.39-4.09
			H197.89z"/>
		<path d="M228.49,369.31l6.8-10.57h5.81v0.22l-10.2,14.81v10.57h-4.83v-10.57l-9.83-14.81v-0.22h5.74L228.49,369.31z"/>
		<path d="M259.02,364.92c-0.88-1.46-3.29-2.85-6.07-2.85c-3.58,0-5.3,1.5-5.3,3.4c0,2.23,2.63,2.85,5.7,3.22
			c5.34,0.66,10.31,2.05,10.31,8.15c0,5.7-5.05,8.15-10.75,8.15c-5.23,0-9.25-1.61-11.15-6.29l4.02-2.08
			c1.13,2.82,4.09,4.06,7.2,4.06c3.03,0,5.89-1.06,5.89-3.84c0-2.41-2.52-3.4-5.92-3.77c-5.23-0.62-10.05-2.01-10.05-7.75
			c0-5.27,5.19-7.42,9.91-7.46c3.99,0,8.12,1.13,10.05,5.08L259.02,364.92z"/>
		<path d="M274.01,363.13h-8.12v-4.39c7.38,0,13.64,0,21.06,0v4.39h-8.12v21.2h-4.83V363.13z"/>
		<path d="M308.05,379.51h-13.38l-2.19,4.83h-5.23l11.48-25.59H304l11.48,25.59h-5.26L308.05,379.51z M301.36,364.12l-4.75,10.89
			h9.51L301.36,364.12z"/>
		<path d="M322.86,358.74v21.13h13.16v4.46h-17.99v-25.59H322.86z"/>
		<path d="M344.26,382.03c0,3.47-5.27,3.47-5.27,0S344.26,378.56,344.26,382.03z"/>
		<path d="M348.28,384.34v-25.56h18.39v4.64H353.1v6.98h12.83v4.46H353.1v9.47H348.28z"/>
		<path d="M370.4,384.34v-25.59h4.79v25.59H370.4z"/>
		<path d="M396.54,358.71h4.83v25.63h-3v0.04l-13.45-17.29v17.26h-4.83v-25.59H384l12.54,15.87V358.71z"/>
		<path d="M423.96,379.51h-13.38l-2.19,4.83h-5.23l11.48-25.59h5.27l11.48,25.59h-5.26L423.96,379.51z M417.27,364.12l-4.75,10.89
			h9.51L417.27,364.12z"/>
		<path d="M450.4,358.71h4.83v25.63h-3v0.04l-13.45-17.29v17.26h-4.83v-25.59h3.91l12.54,15.87V358.71z"/>
		<path d="M482.21,381.12c-2.63,2.6-6.03,3.8-9.72,3.8c-9.51,0-13.53-6.54-13.56-13.2c-0.04-6.69,4.31-13.49,13.56-13.49
			c3.47,0,6.76,1.32,9.4,3.91l-3.22,3.11c-1.68-1.65-3.95-2.41-6.18-2.41c-6.18,0-8.85,4.61-8.81,8.88
			c0.04,4.24,2.49,8.67,8.81,8.67c2.23,0,4.75-0.91,6.43-2.6L482.21,381.12z"/>
		<path d="M504,384.34h-19.16c0-8.52,0-17.07,0-25.59H504v4.68h-14.37v5.89h13.85v4.5h-13.85v5.78H504V384.34z"/>
	</g>
</g>
</svg>
