<?xml version="1.0" encoding="utf-8"?>
<!-- Generator: Adobe Illustrator 24.3.0, SVG Export Plug-In . SVG Version: 6.00 Build 0)  -->
<svg version="1.1" id="Laag_1" xmlns="http://www.w3.org/2000/svg" xmlns:xlink="http://www.w3.org/1999/xlink" x="0px" y="0px"
	 viewBox="0 0 270 270" style="enable-background:new 0 0 270 270;" xml:space="preserve">
<style type="text/css">
	.st0{fill:url(#SVGID_1_);}
	.st1{fill:#AFD5F5;}
	.st2{fill:#C2EDFC;}
	.st3{fill:#A7B2F9;}
	.st4{fill:#C6D2F9;}
	.st5{fill:#A8B2F5;}
	.st6{fill:#9F97F7;}
	.st7{fill:#BB98EF;}
	.st8{fill:#A296D1;}
	.st9{fill:#D99CEE;}
	.st10{fill:#F5D3FA;}
	.st11{fill:#D99CFA;}
	.st12{fill:#D2FDFE;}
	.st13{fill:#FFFFFF;}
</style>
<linearGradient id="SVGID_1_" gradientUnits="userSpaceOnUse" x1="33.0219" y1="68.299" x2="237.323" y2="205.9334" gradientTransform="matrix(1 0 0 -1 0 272)">
	<stop  offset="0" style="stop-color:#C6D2F9"/>
	<stop  offset="1" style="stop-color:#F5D3FA"/>
</linearGradient>
<circle class="st0" cx="135" cy="135" r="125"/>
<g>
	<polygon class="st1" points="85.7,145.2 52.4,137.8 38.4,179.4 62.9,151.7 	"/>
	<polygon class="st1" points="78,166.8 85.7,145.2 62.9,151.7 	"/>
	<polygon class="st2" points="78,166.8 62.9,151.7 38.4,179.4 93.9,208.8 	"/>
	<polygon class="st1" points="78,166.8 78,166.8 93.9,208.8 149.3,238.1 	"/>
	<polygon class="st1" points="149.3,238.1 229.1,158.4 188.6,163.9 	"/>
	<polygon class="st1" points="212.4,113.7 174.9,135.1 206.5,130 238.1,149.4 	"/>
	<polygon class="st2" points="206.5,130 188.6,163.9 229.1,158.4 238.1,149.4 	"/>
	<polygon class="st3" points="114.3,132 114.3,132 128.7,175.6 142.5,178 125.8,32.1 102.8,97 	"/>
	<polygon class="st4" points="143.3,178.1 170.8,169.5 125.8,32.1 142.5,178 	"/>
	<polygon class="st5" points="188.6,163.9 188.6,163.9 125.8,32.1 170.8,169.5 	"/>
	<polygon class="st6" points="102.8,97 102.8,97 78,166.8 114.3,132 	"/>
	<polygon class="st7" points="78,166.8 149.3,238.1 128.7,175.6 	"/>
	<polygon class="st8" points="170.8,169.5 170.8,169.5 149.3,238.1 188.6,163.9 	"/>
	<polygon class="st9" points="114.3,132 78,166.8 128.7,175.6 	"/>
	<polygon class="st10" points="128.7,175.6 149.3,238.1 142.5,178 	"/>
	<polygon class="st11" points="170.8,169.5 143.3,178.1 142.5,178 149.3,238.1 	"/>
	<polygon class="st12" points="174.9,135.1 188.6,163.9 206.5,130 	"/>
	<path class="st13" d="M239.3,149.5C239.3,149.5,239.3,149.4,239.3,149.5c0-0.2,0-0.3,0-0.4l0,0c0-0.1-0.1-0.2-0.2-0.4L213.4,113
		c-0.3-0.5-1-0.6-1.5-0.3l-36.5,20.8L126.9,31.6l0,0c0-0.1-0.1-0.2-0.2-0.2l0,0l0,0l0,0c-0.1-0.1-0.1-0.1-0.2-0.2l0,0
		c-0.1,0-0.2-0.1-0.3-0.1l0,0c0,0-0.1,0-0.2,0h-0.1l0,0l0,0c-0.1,0-0.2,0-0.3,0l0,0l0,0c0,0-0.1,0-0.1,0.1c0,0-0.1,0-0.1,0.1
		c0,0,0,0-0.1,0l0,0l-0.1,0.1c0,0,0,0-0.1,0.1l0,0l0,0c0,0,0,0,0,0.1c0,0,0,0,0,0.1v0.1l0,0l-40.2,112l-32.3-7.2
		c-0.6-0.1-1.2,0.2-1.3,0.8l-14,41.7l0,0c0,0.1-0.1,0.3-0.1,0.4l0,0c0,0.1,0,0.2,0.1,0.3c0,0,0,0,0,0.1s0.1,0.2,0.2,0.3
		c0,0,0,0,0,0.1c0,0,0,0.1,0.1,0.1c0,0,0.1,0,0.1,0.1l0.1,0.1l111,58.7l0,0l0,0c0,0,0,0,0.1,0l0,0c0,0,0,0,0.1,0l0,0l0,0l0,0l0,0
		c0,0,0,0,0.1,0l0,0l0,0c0.1,0,0.1,0,0.2,0l0,0l0,0l0,0l0,0h0.1l0,0l0,0l0,0h0.1c0,0,0,0,0.1,0l0,0l0,0l0,0l0,0h0.1c0,0,0,0,0.1,0
		l0,0l0,0l0,0l0,0l0,0l0,0c0,0,0,0,0.1,0l0,0l0,0l0,0l0,0l0,0l88.8-88.7l0,0c0.1-0.1,0.1-0.1,0.1-0.2v-0.1c0,0,0,0,0-0.1
		C239.2,149.7,239.3,149.6,239.3,149.5z M94.8,207.9L81,171.4l62.1,62.1L94.8,207.9z M83.8,146.9l-5.9,16.7c-0.4,0-0.8,0.1-1.1,0.2
		l-11-11c0.1-0.3,0.2-0.6,0.2-0.9L83.8,146.9z M102.7,100.5l9.6,29c-0.7,0.6-1.1,1.4-1.1,2.4c0,0.4,0.1,0.8,0.2,1.2l-30.7,29.4
		L102.7,100.5z M203.8,131.6c0.1,0.1,0.2,0.3,0.3,0.4l-15.2,28.8c-0.1,0-0.2,0-0.3,0s-0.1,0-0.2,0L176.6,136L203.8,131.6z
		 M113,134.8c0.3,0.2,0.7,0.2,1.1,0.3l12.6,38.1c-0.3,0.2-0.5,0.5-0.7,0.8l-45-7.8c0-0.2-0.1-0.4-0.2-0.5L113,134.8z M139.4,178.6
		c0.2,1.2,1.1,2.1,2.2,2.4l5.3,46.1L130.7,178c0.3-0.2,0.5-0.5,0.7-0.8L139.4,178.6z M186.2,165.9L186.2,165.9l-32,60.5l16.8-53.8
		c1.5-0.1,2.8-1.3,2.9-2.9L186.2,165.9z M125.7,176.2c0.3,1.4,1.5,2.4,2.9,2.5l18.2,55.1l-65.3-65.3L125.7,176.2z M145.6,178.6
		l22.8-7.1c0.1,0.2,0.3,0.3,0.5,0.5L150,232.6l-5.9-51.8C144.8,180.3,145.4,179.5,145.6,178.6z M167.7,169.3l-22.5,7
		c-0.4-0.7-1.1-1.1-1.8-1.4l-15-131.7l40.5,123.9C168.1,167.7,167.7,168.4,167.7,169.3z M186.3,161.8c-0.5,0.5-0.8,1.2-0.8,1.9
		l-12.3,3.8c-0.5-0.7-1.3-1.1-2.2-1.1L132.5,48.8L186.3,161.8z M141,175.2c-0.5,0.3-0.9,0.6-1.2,1.1l-8-1.4
		c-0.3-1.4-1.5-2.4-2.9-2.5l-12.6-38.1c0.7-0.6,1.1-1.4,1.1-2.4c0-1.7-1.3-3-2.9-3.1L104,97l21.2-59.8L141,175.2z M61.8,154.6
		c0.3,0.1,0.7,0.2,1.1,0.2c0.4,0,0.9-0.1,1.2-0.3l11,11c-0.2,0.4-0.3,0.8-0.3,1.2c0,1.7,1.4,3.1,3.1,3.1l13.8,36.4L40.2,179
		L61.8,154.6z M188.3,167c0.1,0,0.2,0,0.3,0c1.5,0,2.7-1,3-2.4l34.2-4.7L154,231.8L188.3,167z M228.6,157.3l-37.2,5.1
		c-0.1-0.2-0.2-0.4-0.4-0.5l15.2-28.8c0.1,0,0.2,0,0.3,0c0.7,0,1.3-0.2,1.9-0.6l27.9,17L228.6,157.3z M212.1,115.2l21.7,30.2
		l-24.3-14.8c0-0.2,0.1-0.3,0.1-0.5c0-1.7-1.4-3.1-3.1-3.1c-1.5,0-2.7,1-3.1,2.5l-22.5,3.6L212.1,115.2z M53.2,139.1l27.8,6.2
		l-15.6,4.4c-0.6-0.7-1.5-1.2-2.5-1.2c-1.7,0-3.1,1.4-3.1,3.1c0,0.5,0.1,1,0.3,1.4l-18.8,21.3L53.2,139.1z"/>
</g>
</svg>
