<?xml version="1.0" encoding="utf-8"?>
<!-- Generator: Adobe Illustrator 25.3.1, SVG Export Plug-In . SVG Version: 6.00 Build 0)  -->
<svg version="1.1" id="Layer_1" xmlns="http://www.w3.org/2000/svg" xmlns:xlink="http://www.w3.org/1999/xlink" x="0px" y="0px"
	 viewBox="0 0 406.6 75.6" style="enable-background:new 0 0 406.6 75.6;" xml:space="preserve">
<style type="text/css">
	.st0{fill:#B2D5F1;stroke:#FFFFFF;stroke-width:0.75;stroke-linecap:round;stroke-linejoin:round;stroke-miterlimit:10;}
	.st1{fill:#C4E9F7;stroke:#FFFFFF;stroke-width:0.75;stroke-linecap:round;stroke-linejoin:round;stroke-miterlimit:10;}
	.st2{fill:#ABB1D9;stroke:#FFFFFF;stroke-width:0.75;stroke-linecap:round;stroke-linejoin:round;stroke-miterlimit:10;}
	.st3{fill:#C8D1EB;stroke:#FFFFFF;stroke-width:0.75;stroke-linecap:round;stroke-linejoin:round;stroke-miterlimit:10;}
	.st4{fill:#9B95C8;stroke:#FFFFFF;stroke-width:0.75;stroke-linecap:round;stroke-linejoin:round;stroke-miterlimit:10;}
	.st5{fill:#B298C8;stroke:#FFFFFF;stroke-width:0.75;stroke-linecap:round;stroke-linejoin:round;stroke-miterlimit:10;}
	.st6{fill:#A296C9;stroke:#FFFFFF;stroke-width:0.75;stroke-linecap:round;stroke-linejoin:round;stroke-miterlimit:10;}
	.st7{fill:#C89FC9;stroke:#FFFFFF;stroke-width:0.75;stroke-linecap:round;stroke-linejoin:round;stroke-miterlimit:10;}
	.st8{fill:#EDD3E6;stroke:#FFFFFF;stroke-width:0.75;stroke-linecap:round;stroke-linejoin:round;stroke-miterlimit:10;}
	.st9{fill:#C49FCA;stroke:#FFFFFF;stroke-width:0.75;stroke-linecap:round;stroke-linejoin:round;stroke-miterlimit:10;}
	.st10{fill:#D8EFF5;stroke:#FFFFFF;stroke-width:0.75;stroke-linecap:round;stroke-linejoin:round;stroke-miterlimit:10;}
	.st11{fill:none;stroke:#FFFFFF;stroke-width:0.75;stroke-linecap:round;stroke-linejoin:round;stroke-miterlimit:10;}
	.st12{fill:#FFFFFF;stroke:#FFFFFF;stroke-width:0.75;stroke-linecap:round;stroke-linejoin:round;stroke-miterlimit:10;}
	.st13{fill:#FFFFFF;}
</style>
<g>
	<g>
		<g>
			<g>
				<polygon class="st0" points="19.5,41.1 8,38.5 3.1,52.9 11.6,43.3 				"/>
				<polygon class="st0" points="16.8,48.5 19.5,41.1 11.6,43.3 				"/>
				<polygon class="st1" points="16.8,48.5 11.6,43.3 3.1,52.9 22.3,63 				"/>
				<polygon class="st0" points="16.8,48.5 16.8,48.5 22.3,63 41.4,73.1 				"/>
			</g>
			<g>
				<g>
					<polygon class="st0" points="41.4,73.1 69,45.6 55,47.6 					"/>
					<polygon class="st0" points="63.2,30.2 50.3,37.6 61.2,35.9 72.1,42.5 					"/>
					<polygon class="st1" points="61.2,35.9 55,47.6 55,47.6 69,45.6 72.1,42.5 					"/>
					<polygon class="st2" points="29.4,36.5 29.4,36.5 29.4,36.5 34.3,51.6 39.1,52.4 33.3,2.1 25.4,24.4 25.4,24.4 					"/>
					<polygon class="st3" points="39.3,52.4 48.8,49.5 33.3,2.1 39.1,52.4 					"/>
					<polygon class="st2" points="55,47.6 55,47.6 33.3,2.1 48.8,49.5 					"/>
					<polygon class="st4" points="25.4,24.4 25.4,24.4 16.8,48.5 29.4,36.5 					"/>
					<polygon class="st5" points="16.8,48.5 41.4,73.1 34.3,51.6 					"/>
					<polygon class="st6" points="48.8,49.5 48.8,49.5 41.4,73.1 55,47.6 					"/>
					<polygon class="st7" points="29.4,36.5 16.8,48.5 34.3,51.6 					"/>
					<polygon class="st8" points="34.3,51.6 41.4,73.1 39.1,52.4 					"/>
					<polygon class="st9" points="48.8,49.5 39.3,52.4 39.1,52.4 41.4,73.1 					"/>
				</g>
				<polygon class="st10" points="50.3,37.6 55,47.6 61.2,35.9 				"/>
				<g>
					<g>
						<polygon class="st11" points="33.3,2.1 16.8,48.5 41.4,73.1 55,47.6 						"/>
						<line class="st11" x1="41.4" y1="73.1" x2="33.3" y2="2.1"/>
						<line class="st11" x1="16.8" y1="48.5" x2="39.3" y2="52.4"/>
						<line class="st11" x1="55" y1="47.6" x2="39.3" y2="52.4"/>
						<line class="st11" x1="29.4" y1="36.5" x2="16.8" y2="48.5"/>
						<line class="st11" x1="41.4" y1="73.1" x2="25.4" y2="24.4"/>
						<polyline class="st11" points="33.3,2.1 48.8,49.5 41.4,73.1 						"/>
					</g>
					<polyline class="st11" points="50.3,37.6 63.2,30.2 72.1,42.5 41.4,73.1 					"/>
					<polyline class="st11" points="72.1,42.5 61.2,35.9 50.3,37.6 					"/>
					<line class="st11" x1="61.2" y1="35.9" x2="41.4" y2="73.1"/>
					<line class="st11" x1="69" y1="45.6" x2="55" y2="47.6"/>
				</g>
				<circle class="st12" cx="29.4" cy="36.5" r="1.1"/>
				<circle class="st12" cx="16.8" cy="48.5" r="1.1"/>
				<circle class="st12" cx="11.6" cy="43.3" r="1.1"/>
				<circle class="st12" cx="34.3" cy="51.6" r="1.1"/>
				<circle class="st12" cx="39.1" cy="52.4" r="1.1"/>
				<circle class="st12" cx="48.8" cy="49.5" r="1.1"/>
				<circle class="st12" cx="55" cy="47.6" r="1.1"/>
				<circle class="st12" cx="61.2" cy="35.9" r="1.1"/>
			</g>
			<g>
				<polyline class="st11" points="19.5,41.1 8,38.5 3.1,52.9 41.4,73.1 				"/>
				<polyline class="st11" points="3.1,52.9 11.6,43.3 19.5,41.1 				"/>
				<line class="st11" x1="11.6" y1="43.3" x2="41.4" y2="73.1"/>
				<line class="st11" x1="22.3" y1="63" x2="16.8" y2="48.5"/>
			</g>
		</g>
	</g>
	<g>
		<path class="st13" d="M80.6,48.6V27.2h8.5c2.4,0,4.1,0.6,5.2,1.8s1.6,2.8,1.6,4.8c0,2-0.6,3.6-1.9,4.8c-1.2,1.2-2.9,1.7-5.1,1.7
			h-6.6v8.2H80.6z M82.5,38.9h6.4c1.8,0,3.1-0.5,4-1.4s1.3-2.1,1.3-3.7c0-1.7-0.4-2.9-1.3-3.8c-0.9-0.9-2.1-1.3-3.8-1.3h-6.6V38.9z"
			/>
		<path class="st13" d="M108.3,49c-3.3,0-5.7-0.9-7.3-2.8s-2.3-4.6-2.3-8.2c0-3.8,0.8-6.7,2.3-8.5s4-2.7,7.3-2.7
			c3.3,0,5.7,0.9,7.3,2.7s2.3,4.6,2.3,8.5c0,3.6-0.8,6.3-2.3,8.2S111.6,49,108.3,49z M108.3,47.4c2.6,0,4.6-0.8,5.9-2.3
			c1.3-1.5,1.9-3.9,1.9-7.1c0-2.4-0.3-4.2-0.8-5.6s-1.4-2.4-2.6-3c-1.2-0.6-2.6-0.9-4.4-0.9s-3.2,0.3-4.4,0.9c-1.2,0.6-2,1.6-2.6,3
			s-0.8,3.3-0.8,5.6c0,3.2,0.6,5.6,1.9,7.1C103.7,46.7,105.6,47.4,108.3,47.4z"/>
		<path class="st13" d="M121.9,48.6V27.2h1.8v20h11.9v1.5H121.9z"/>
		<path class="st13" d="M140.4,48.6v-8l-7.6-13.4h1.9l6.7,11.8l6.7-11.8h1.9l-7.7,13.4v8H140.4z"/>
		<path class="st13" d="M160.2,49c-2.3,0-4.1-0.4-5.6-1.3c-1.5-0.9-2.5-2.1-3.2-3.7s-1-3.4-1-5.5c0-2.3,0.3-4.4,1-6.1
			c0.6-1.7,1.7-3.1,3.1-4.1c1.4-1,3.4-1.5,5.7-1.5c1.2,0,2.3,0.1,3.3,0.2c1,0.2,1.9,0.4,2.8,0.7v1.6c-0.8-0.3-1.8-0.6-2.8-0.7
			c-1-0.2-2.1-0.3-3.2-0.3c-2.1,0-3.7,0.4-4.9,1.2c-1.2,0.8-2,2-2.5,3.5c-0.5,1.5-0.7,3.3-0.7,5.3c0,2.8,0.7,5,2,6.5
			s3.4,2.3,6.3,2.3c1,0,2-0.1,3-0.2c1-0.2,2-0.4,2.8-0.7v1.6c-0.8,0.3-1.8,0.5-2.8,0.6C162.5,48.9,161.4,49,160.2,49z"/>
		<path class="st13" d="M170.3,48.6V27.2h9c2.2,0,3.9,0.6,4.9,1.7c1,1.2,1.5,2.7,1.5,4.7c0,1.6-0.4,3-1.2,4c-0.8,1-2,1.7-3.5,2
			c0.5,0.2,0.9,0.5,1.1,0.9c0.2,0.4,0.5,0.8,0.7,1.4l2.9,6.7h-1.9l-2.8-6.5c-0.2-0.5-0.5-0.9-0.7-1.2c-0.3-0.3-0.6-0.5-1.1-0.7
			c-0.5-0.1-1.1-0.2-2-0.2h-5v8.6H170.3z M172.1,38.6h6.6c1.6,0,2.8-0.4,3.7-1.2c0.9-0.8,1.4-2.1,1.4-3.8c0-3.3-1.6-4.9-4.7-4.9h-7
			V38.6z"/>
		<path class="st13" d="M194.5,48.6v-8l-7.6-13.4h1.9l6.7,11.8l6.7-11.8h1.9l-7.7,13.4v8H194.5z"/>
		<path class="st13" d="M211.2,49c-2.6,0-4.7-0.3-6.2-0.9v-1.6c1.8,0.7,3.9,1,6.1,1c2.1,0,3.7-0.3,4.7-1s1.6-1.7,1.6-3.3
			c0-0.9-0.2-1.7-0.6-2.3c-0.4-0.6-1.1-1.1-2-1.4c-0.9-0.4-2.2-0.7-3.7-1.1c-1.6-0.4-2.9-0.8-3.9-1.3c-1-0.5-1.7-1.1-2.1-1.8
			c-0.4-0.7-0.6-1.6-0.6-2.6c0-1.7,0.6-3.1,1.9-4.2c1.3-1.1,3.2-1.6,5.8-1.6c1.2,0,2.3,0.1,3.4,0.3c1,0.2,1.8,0.4,2.4,0.5v1.6
			c-1.6-0.6-3.4-0.8-5.4-0.8c-2,0-3.6,0.3-4.6,1c-1.1,0.7-1.6,1.7-1.6,3.2c0,0.8,0.2,1.5,0.5,2c0.4,0.5,1,1,1.9,1.3
			c0.9,0.4,2.1,0.7,3.7,1.1c1.8,0.4,3.1,0.9,4.1,1.4c1,0.6,1.7,1.2,2.1,2c0.4,0.8,0.6,1.7,0.6,2.7c0,1.9-0.7,3.4-2,4.3
			C215.8,48.5,213.8,49,211.2,49z"/>
		<path class="st13" d="M228.3,48.6V28.7h-7.4v-1.5h16.6v1.5h-7.4v19.9H228.3z"/>
		<path class="st13" d="M237.3,48.6l8.1-21.4h2.3l8.1,21.4H254l-2.4-6.3h-10.1l-2.4,6.3H237.3z M242,40.9h9.2l-4.6-12.2L242,40.9z"
			/>
		<path class="st13" d="M259.9,48.6V27.2h1.8v20h11.9v1.5H259.9z"/>
		<path class="st13" d="M276.2,48.6v-1.7h1.8v1.7H276.2z"/>
		<path class="st13" d="M282,48.6V27.2h13.5v1.5h-11.7v8.5h10.5v1.5h-10.5v10H282z"/>
		<path class="st13" d="M298.5,48.6V27.2h1.8v21.4H298.5z"/>
		<path class="st13" d="M305,48.6V27.2h1.7L320,45.9V27.2h1.8v21.4h-1.8L306.8,30v18.7H305z"/>
		<path class="st13" d="M325.8,48.6l8.1-21.4h2.3l8.1,21.4h-1.9l-2.4-6.3h-10.1l-2.4,6.3H325.8z M330.5,40.9h9.2l-4.6-12.2
			L330.5,40.9z"/>
		<path class="st13" d="M348.4,48.6V27.2h1.7l13.3,18.7V27.2h1.8v21.4h-1.8L350.2,30v18.7H348.4z"/>
		<path class="st13" d="M379.1,49c-2.3,0-4.1-0.4-5.6-1.3c-1.5-0.9-2.5-2.1-3.2-3.7s-1-3.4-1-5.5c0-2.3,0.3-4.4,1-6.1
			c0.6-1.7,1.7-3.1,3.1-4.1c1.4-1,3.4-1.5,5.7-1.5c1.2,0,2.3,0.1,3.3,0.2s1.9,0.4,2.8,0.7v1.6c-0.8-0.3-1.8-0.6-2.8-0.7
			c-1-0.2-2.1-0.3-3.2-0.3c-2.1,0-3.7,0.4-4.9,1.2c-1.2,0.8-2,2-2.5,3.5c-0.5,1.5-0.7,3.3-0.7,5.3c0,2.8,0.7,5,2,6.5
			c1.3,1.6,3.4,2.3,6.3,2.3c1,0,2-0.1,3-0.2c1-0.2,2-0.4,2.8-0.7v1.6c-0.8,0.3-1.8,0.5-2.8,0.6C381.4,48.9,380.3,49,379.1,49z"/>
		<path class="st13" d="M389.1,48.6V27.2h14v1.5H391v8.5h11v1.5h-11v8.5h12.2v1.5H389.1z"/>
	</g>
</g>
</svg>
