<svg xmlns="http://www.w3.org/2000/svg" xmlns:xlink="http://www.w3.org/1999/xlink" width="64" height="64" viewBox="0 0 64 64">
  <defs>
    <style>
      .cls-1 {
        fill: #fff;
      }

      .cls-2 {
        clip-path: url(#clip-path);
      }

      .cls-3 {
        fill: #d56069;
      }

      .cls-4 {
        fill: #eebcb1;
      }

      .cls-5 {
        fill: #6a55a4;
      }

      .cls-6 {
        fill: #da5b7a;
      }

      .cls-7 {
        fill: #dcc3c0;
      }

      .cls-8 {
        fill: #704fa0;
      }

      .cls-9 {
        fill: #a55685;
      }

      .cls-10 {
        fill: #de6d8f;
      }

      .cls-11 {
        fill: #e5869c;
      }

      .cls-12 {
        fill: #bdb2ce;
      }

      .cls-13 {
        fill: #6d63ac;
      }

      .cls-14 {
        fill: #eda7a9;
      }

      .cls-15 {
        fill: #c8616e;
      }

      .cls-16 {
        fill: #da5b72;
      }

      .cls-17 {
        fill: #8a4d9e;
      }

      .cls-18 {
        fill: #b45c7a;
      }

      .cls-19 {
        fill: #7a72b5;
      }

      .cls-20 {
        fill: #e17997;
      }

      .cls-21 {
        fill: #8f84bf;
      }

      .cls-22 {
        fill: #a299cb;
      }

      .cls-23 {
        fill: #afa6d0;
      }

      .cls-24 {
        fill: #975290;
      }

      .cls-25 {
        fill: #847cba;
      }

      .cls-26 {
        fill: #a14399;
      }

      .cls-27 {
        fill: #9a469a;
      }

      .cls-28 {
        fill: #914b9d;
      }

      .cls-29 {
        fill: #af3e97;
      }

      .cls-30 {
        fill: #94499c;
      }
    </style>
    <clipPath id="clip-path">
      <circle id="Ellipse_2142" data-name="Ellipse 2142" class="cls-1" cx="32" cy="32" r="32" transform="translate(-24735 -22558)"/>
    </clipPath>
  </defs>
  <g id="Group_1008" data-name="Group 1008" transform="translate(24832 22530)">
    <g id="Group_1007" data-name="Group 1007" transform="translate(-97 28)">
      <circle id="Ellipse_2141" data-name="Ellipse 2141" class="cls-1" cx="32" cy="32" r="32" transform="translate(-24735 -22558)"/>
      <g id="Mask_Group_330" data-name="Mask Group 330" class="cls-2">
        <g id="arablelands" transform="translate(-24734.881 -22558)">
          <path id="Path_24339" data-name="Path 24339" class="cls-3" d="M247.029,124.97a29.319,29.319,0,0,1-7.818,4.71,31.715,31.715,0,0,1-12.825,2.409q.4-.972.8-1.938c2.205-.268,4.435-.367,6.605-.8a29.541,29.541,0,0,0,10.582-4.63c.535.016,1.1,0,1.646.054A8.358,8.358,0,0,1,247.029,124.97Z" transform="translate(-195.054 -68.103)"/>
          <path id="Path_24340" data-name="Path 24340" class="cls-4" d="M195.169,96.9a26.432,26.432,0,0,1,2.508-9.563c.988-2.05,2.3-3.945,3.461-5.907l1.424,1.049c-.739,1.218-1.528,2.409-2.211,3.656A32.734,32.734,0,0,0,197.04,96.7Z" transform="translate(-195.054 -68.103)"/>
          <path id="Path_24341" data-name="Path 24341" class="cls-5" d="M245.634,74.135a31.544,31.544,0,0,1,9.806,11.294,4.055,4.055,0,0,1,.214.653l-2.2-.4a33.5,33.5,0,0,0-8.238-9.584Q245.423,75.112,245.634,74.135Z" transform="translate(-195.054 -68.103)"/>
          <path id="Path_24342" data-name="Path 24342" class="cls-6" d="M220.38,131.34a53.1,53.1,0,0,1-6.41-2.063,65.03,65.03,0,0,1-6.231-3.693c.345-.5.691-.993,1.038-1.488a32.443,32.443,0,0,0,12,5.465Z" transform="translate(-195.054 -68.103)"/>
          <path id="Path_24343" data-name="Path 24343" class="cls-7" d="M202.561,82.48l-1.424-1.049a30.779,30.779,0,0,1,3.23-3.966c2.015-1.79,4.261-3.316,6.41-4.954.131.653.268,1.306.391,1.959a33.187,33.187,0,0,0-8.607,8.01Z" transform="translate(-195.054 -68.103)"/>
          <path id="Path_24344" data-name="Path 24344" class="cls-8" d="M253.452,85.679l2.213.4c.859,2.369,1.82,4.708,2.537,7.116a28.511,28.511,0,0,1,.621,4.3l-1.8-.2c-.1-.583-.2-1.164-.286-1.748A32.33,32.33,0,0,0,253.452,85.679Z" transform="translate(-195.054 -68.103)"/>
          <path id="Path_24345" data-name="Path 24345" class="cls-9" d="M258.377,106.311a29.272,29.272,0,0,1-3.747,9.812l-1.873-.426a35.9,35.9,0,0,0,3.792-9.87Z" transform="translate(-195.054 -68.103)"/>
          <path id="Path_24346" data-name="Path 24346" class="cls-10" d="M208.778,124.1c-.348.5-.693.993-1.038,1.488a26.807,26.807,0,0,1-6.188-6.059c-.383-.484-.688-1.033-1.03-1.555l1.777-.645a11.446,11.446,0,0,0,.95,1.242C205.079,120.421,206.931,122.254,208.778,124.1Z" transform="translate(-195.054 -68.103)"/>
          <path id="Path_24347" data-name="Path 24347" class="cls-11" d="M198.091,113.746a26.5,26.5,0,0,1-2.778-9.608l1.812-.42c.327,1.582.578,3.182,1.006,4.734.4,1.467.988,2.882,1.493,4.32Z" transform="translate(-195.054 -68.103)"/>
          <path id="Path_24348" data-name="Path 24348" class="cls-12" d="M211.165,74.47c-.131-.653-.268-1.306-.391-1.959A31.264,31.264,0,0,1,218.8,69.16a6.243,6.243,0,0,1,.781-.11l.209,1.8c-.217.078-.428.166-.648.227a32.43,32.43,0,0,0-7.981,3.4Z" transform="translate(-195.054 -68.103)"/>
          <path id="Path_24349" data-name="Path 24349" class="cls-13" d="M245.634,74.135q-.217.982-.431,1.967L239,72.449V70.49Z" transform="translate(-195.054 -68.103)"/>
          <path id="Path_24350" data-name="Path 24350" class="cls-14" d="M197.125,103.712l-1.812.42c-.088-2.12-.182-4.237-.268-6.356a5.19,5.19,0,0,1,.112-.875l1.873-.2Q197.08,100.209,197.125,103.712Z" transform="translate(-195.054 -68.103)"/>
          <path id="Path_24351" data-name="Path 24351" class="cls-15" d="M247.029,124.97a8.36,8.36,0,0,0-1.012-.2c-.535-.046-1.1-.037-1.646-.054l5.1-4.59,2.224.225Z" transform="translate(-195.054 -68.103)"/>
          <path id="Path_24352" data-name="Path 24352" class="cls-16" d="M220.38,131.34l.4-1.78.415.064.2.1,5.792.439q-.4.966-.8,1.938Z" transform="translate(-195.054 -68.103)"/>
          <path id="Path_24353" data-name="Path 24353" class="cls-17" d="M257.009,97.294l1.8.2q-.016,3.1-.027,6.2l-1.9-.236Q256.947,100.364,257.009,97.294Z" transform="translate(-195.054 -68.103)"/>
          <path id="Path_24354" data-name="Path 24354" class="cls-18" d="M251.7,120.348l-2.224-.225,3.3-4.427,1.873.426Z" transform="translate(-195.054 -68.103)"/>
          <path id="Path_24355" data-name="Path 24355" class="cls-19" d="M239,70.49v1.959l-5-1.619V68.9Z" transform="translate(-195.054 -68.103)"/>
          <path id="Path_24356" data-name="Path 24356" class="cls-20" d="M198.091,113.746l1.534-.974,2.676,4.55-1.777.645Q199.307,115.857,198.091,113.746Z" transform="translate(-195.054 -68.103)"/>
          <path id="Path_24357" data-name="Path 24357" class="cls-21" d="M227.4,68.1l4.4.4v1.9l-4.6-.375Z" transform="translate(-195.054 -68.103)"/>
          <path id="Path_24358" data-name="Path 24358" class="cls-22" d="M227.4,68.1l-.2,1.922-4.21.217.2-1.922Z" transform="translate(-195.054 -68.103)"/>
          <path id="Path_24359" data-name="Path 24359" class="cls-23" d="M223.193,68.32c-.067.64-.136,1.282-.2,1.922l-3.212.6-.209-1.8Z" transform="translate(-195.054 -68.103)"/>
          <path id="Path_24360" data-name="Path 24360" class="cls-24" d="M256.886,103.46l1.9.236-.409,2.615-1.807-.484Q256.731,104.646,256.886,103.46Z" transform="translate(-195.054 -68.103)"/>
          <path id="Path_24361" data-name="Path 24361" class="cls-25" d="M231.8,70.388v-1.9l2.2.4v1.93Z" transform="translate(-195.054 -68.103)"/>
          <path id="Path_24362" data-name="Path 24362" class="cls-6" d="M221.2,129.625l.2.1Z" transform="translate(-195.054 -68.103)"/>
          <path id="Path_24363" data-name="Path 24363" class="cls-26" d="M243.014,108.107c-2.9,2.232-6.257,2.572-9.734,2.334a1.9,1.9,0,0,1-1.7-1.576c-1.734-5.888-3.509-11.741-5.262-17.613-.423-1.41.029-2.409,1.2-2.714.977-.268,1.9.431,2.28,1.708,1.563,5.235,3.147,10.465,4.665,15.71a1.1,1.1,0,0,0,1.405.942,9.081,9.081,0,0,0,5.706-2.259Z" transform="translate(-195.054 -68.103)"/>
          <path id="Path_24364" data-name="Path 24364" class="cls-27" d="M215.375,88.518c2.3,0,4.6-.029,6.905-.027a1.852,1.852,0,0,1,1.908,1.445q2.7,8.939,5.382,17.881a1.823,1.823,0,0,1-1.212,2.526c-1.049.31-1.948-.3-2.331-1.579-1.544-5.171-3.113-10.333-4.611-15.523-.254-.881-.578-1.261-1.542-1.172-1.089.1-2.2,0-3.3,0-.142-.535-.268-1.071-.434-1.606C215.913,89.816,215.632,89.171,215.375,88.518Z" transform="translate(-195.054 -68.103)"/>
          <path id="Path_24365" data-name="Path 24365" class="cls-17" d="M213.788,100.706c-.535,1.927-1.071,3.851-1.694,6.057l3.659-1.111L217,108.966a16.6,16.6,0,0,1-7.336,1.48,1.754,1.754,0,0,1-1.726-2.468c1.127-3.766,2.283-7.523,3.426-11.286a3.305,3.305,0,0,1,.632.637C212.613,98.442,213.194,99.58,213.788,100.706Z" transform="translate(-195.054 -68.103)"/>
          <path id="Path_24366" data-name="Path 24366" class="cls-28" d="M213.788,100.706c-.594-1.127-1.175-2.264-1.8-3.378a3.3,3.3,0,0,0-.632-.637c.674-2.336,1.306-4.686,2.047-7a1.712,1.712,0,0,1,1.967-1.17c.268.653.535,1.3.765,1.962.179.519.292,1.071.434,1.606q-1.1,3.479-2.208,6.959C214.19,99.6,213.984,100.152,213.788,100.706Z" transform="translate(-195.054 -68.103)"/>
          <path id="Path_24367" data-name="Path 24367" class="cls-29" d="M243.014,108.107l-1.44-3.479c1.012-1.376.7-2.636-.284-3.883a1.815,1.815,0,1,1,2.8-2.278C246.791,101.491,246.344,105.513,243.014,108.107Z" transform="translate(-195.054 -68.103)"/>
          <path id="Path_24368" data-name="Path 24368" class="cls-28" d="M217,108.966l-1.245-3.313a17.723,17.723,0,0,0,1.967-1.606c.937-1.022.846-1.94-.2-3.236-.616-.763-.883-1.518-.174-2.361l3.444,7.494A7.747,7.747,0,0,1,217,108.966Z" transform="translate(-195.054 -68.103)"/>
          <path id="Path_24369" data-name="Path 24369" class="cls-30" d="M220.8,105.941l-3.444-7.494a1.669,1.669,0,0,1,2.567-.343,5.735,5.735,0,0,1,.878,7.836Z" transform="translate(-195.054 -68.103)"/>
        </g>
      </g>
    </g>
  </g>
</svg>
