<svg xmlns="http://www.w3.org/2000/svg" viewBox="0 0 132.27 132.27"><defs><style>.cls-1{fill:#f53187;stroke-miterlimit:10;stroke-width:0.25px;}.cls-1,.cls-6{stroke:#fff;}.cls-2{fill:#ff97c3;}.cls-3{fill:#bba2e8;}.cls-4{fill:#f05dc4;}.cls-5{fill:#a9c9ff;}.cls-6{fill:none;stroke-linecap:round;stroke-linejoin:round;stroke-width:2px;}</style></defs><g id="Layer_2" data-name="Layer 2"><g id="Azuki_2.1" data-name="Azuki 2.1"><circle class="cls-1" cx="66.14" cy="66.14" r="66.01"/><polygon class="cls-2" points="66.14 51.79 54.16 72.31 66.14 93.62 78.11 72.48 66.14 51.79"/><polygon class="cls-3" points="66.14 33.16 31.88 93.77 46.69 93.77 53.01 83.18 60.22 83.18 54.16 72.6 66.26 51.58 78.2 72.62 72.16 83.18 79.51 83.18 85.51 93.77 100.45 93.77 66.14 33.16"/><polygon class="cls-4" points="69.84 26.6 66.14 32.95 100.51 93.77 107.8 93.77 69.84 26.6"/><polygon class="cls-5" points="62.56 26.6 66.26 32.95 31.88 93.77 24.59 93.77 62.56 26.6"/><path class="cls-4" d="M62.56,26.6,66.14,33,70,26.6a7.47,7.47,0,0,0-3.74-1.34A6,6,0,0,0,62.56,26.6Z"/><polyline class="cls-6" points="92.76 93.73 107.68 93.73 69.85 26.6 31.89 93.73 46.81 93.73 52.96 83.06 60.15 83.06 66.18 93.73 72.27 83.06 79.44 83.06 85.46 93.73 100.39 93.73 62.56 26.6 24.59 93.73 39.52 93.73"/><path class="cls-6" d="M69.85,26.6a5.73,5.73,0,0,0-7.29,0"/><polyline class="cls-6" points="66.2 93.73 72.23 83.06 78.11 72.62 54.16 72.62 60.11 83.06 66.2 93.73"/><polyline class="cls-6" points="66.2 51.49 54.16 72.6 78.11 72.6 66.2 51.49"/></g></g></svg>