<svg xmlns="http://www.w3.org/2000/svg" xmlns:xlink="http://www.w3.org/1999/xlink" width="64" height="64" viewBox="0 0 64 64">
  <defs>
    <style>
      .cls-1 {
        fill: #fff;
      }

      .cls-2 {
        fill: #009fdd;
      }

      .cls-3 {
        clip-path: url(#clip-path);
      }

      .cls-4 {
        clip-path: url(#clip-path-2);
      }

      .cls-5 {
        fill: #eef8fd;
      }
    </style>
    <clipPath id="clip-path">
      <circle id="Ellipse_2207" data-name="Ellipse 2207" class="cls-1" cx="32" cy="32" r="32" transform="translate(-24423 -23393)"/>
    </clipPath>
    <clipPath id="clip-path-2">
      <circle id="Ellipse_2085" data-name="Ellipse 2085" class="cls-1" cx="32" cy="32" r="32" transform="translate(-24457 -23329)"/>
    </clipPath>
  </defs>
  <g id="Group_1062" data-name="Group 1062" transform="translate(24532 23308)">
    <circle id="Ellipse_2208" data-name="Ellipse 2208" class="cls-2" cx="32" cy="32" r="32" transform="translate(-24532 -23308)"/>
    <g id="Mask_Group_371" data-name="Mask Group 371" class="cls-3" transform="translate(-109 85)">
      <g id="Mask_Group_302" data-name="Mask Group 302" class="cls-4" transform="translate(34 -64)">
        <g id="tMTj2e.tif" transform="translate(-24456.988 -23328.943)">
          <path id="Path_23814" data-name="Path 23814" class="cls-2" d="M690.495,362.2H704.26c5.5,3.249,11.851,5.641,16.266,9.967,4.166,4.106,6.289,10.276,9.309,15.539v13.755a32.6,32.6,0,0,0-1.994,3.728c-5.412,13.9-19.456,22.516-33.749,20.642a32.194,32.194,0,0,1-28-27.958C664.2,383.6,672.81,369.6,686.764,364.164a33.416,33.416,0,0,0,3.731-1.964Zm1,32.892c-3.4,1.854-6.678,3.578-9.887,5.442-4.246,2.462-4.336,6.977-.169,9.469,3.927,2.352,7.834,4.764,11.961,6.778,2.053,1,4.515,1.186,7.595,1.993V376.26l11.472,6.538c-8.422,5.631-8.422,5.631-6.977,9.967a3.188,3.188,0,0,0,.937-.179c2.861-1.575,5.731-3.15,8.552-4.794,4.485-2.611,4.505-7.067,0-9.708-3.987-2.322-7.834-4.784-11.961-6.748-2.123-1-4.714-1.047-7.864-1.684v42.111l-10.665-6.349c3.319-3.18,9.648-3.379,7.037-10.326Z" transform="translate(-665.846 -362.197)"/>
          <path id="Path_23815" data-name="Path 23815" class="cls-5" d="M691.521,395.088c2.611,6.977-3.718,7.146-6.977,10.346l10.665,6.349V369.672c3.15.638,5.741.678,7.864,1.684,4.126,1.993,7.974,4.425,11.961,6.748,4.465,2.641,4.445,7.1,0,9.708-2.821,1.645-5.691,3.219-8.552,4.794a2.89,2.89,0,0,1-.937.169c-1.405-4.346-1.405-4.346,6.977-9.967L701.05,376.27v42.46c-3.08-.758-5.542-.937-7.595-1.993-4.107-1.993-7.974-4.425-11.961-6.778-4.166-2.492-4.077-6.977.169-9.469C684.843,398.686,688.123,396.942,691.521,395.088Z" transform="translate(-665.846 -362.197)"/>
        </g>
      </g>
    </g>
  </g>
</svg>
