<svg xmlns="http://www.w3.org/2000/svg" xmlns:xlink="http://www.w3.org/1999/xlink" width="64" height="64" viewBox="0 0 64 64">
  <defs>
    <style>
      .cls-1 {
        fill: #fff;
      }

      .cls-2 {
        clip-path: url(#clip-path);
      }

      .cls-3 {
        fill: #61250d;
      }

      .cls-4 {
        fill: #ffc90a;
      }

      .cls-5 {
        fill: #ac6129;
      }

      .cls-6 {
        fill: #f28422;
      }

      .cls-7 {
        fill: #fdec1c;
      }

      .cls-8 {
        fill: #f68822;
      }

      .cls-9 {
        fill: #52200f;
      }

      .cls-10 {
        fill: #4d1e0e;
      }

      .cls-11 {
        fill: #e37d3c;
      }

      .cls-12 {
        fill: #e06d26;
      }

      .cls-13 {
        fill: #b55c2b;
      }

      .cls-14 {
        fill: #c46c29;
      }

      .cls-15 {
        fill: #ab5f28;
      }

      .cls-16 {
        fill: #b55827;
      }

      .cls-17 {
        fill: #b35626;
      }

      .cls-18 {
        fill: #b65927;
      }

      .cls-19 {
        fill: #feda0c;
      }

      .cls-20 {
        fill: #fdb815;
      }

      .cls-21 {
        fill: #fdec0b;
      }

      .cls-22 {
        fill: #fcb616;
      }

      .cls-23 {
        fill: #edad21;
      }

      .cls-24 {
        fill: #e27633;
      }

      .cls-25 {
        fill: #804e20;
      }

      .cls-26 {
        fill: #f08122;
      }

      .cls-27 {
        fill: #f18222;
      }

      .cls-28 {
        fill: #f28221;
      }

      .cls-29 {
        fill: #fee901;
      }

      .cls-30 {
        fill: #fdf062;
      }
    </style>
    <clipPath id="clip-path">
      <circle id="Ellipse_2062" data-name="Ellipse 2062" class="cls-1" cx="32" cy="32" r="32" transform="translate(-24259 -22253)"/>
    </clipPath>
  </defs>
  <g id="Group_1048" data-name="Group 1048" transform="translate(23931 23393)">
    <circle id="Ellipse_1958" data-name="Ellipse 1958" class="cls-1" cx="32" cy="32" r="32" transform="translate(-23931 -23393)"/>
    <g id="Mask_Group_255" data-name="Mask Group 255" class="cls-2" transform="translate(328 -1140)">
      <g id="collar" transform="translate(-24254.09 -22237.438)">
        <path id="Path_20677" data-name="Path 20677" class="cls-3" d="M-147.379,299.2l.2,1.137c-.055.11-.117.218-.161.332-.072.189-.019.307.189.324q-.04,2.56-.081,5.115c-.288.021-.265.279-.318.459,0,.036.161.123.248.189a1.326,1.326,0,0,1-.5,1.137,12.081,12.081,0,0,1-3.549,2.169,36.264,36.264,0,0,1-7.419,2.16,68.646,68.646,0,0,1-9.615,1.15c-1.15.061-2.3.085-3.45.125.045-.278.089-.557.133-.836.3.017.6.044.9.044.047,0,.1-.114.133-.189a.216.216,0,0,0-.131-.1c-.3.015-.6.044-.9.068v-5.8h-.347c-.03-.529-.063-1.057-.093-1.584h.027l.025.011a1.112,1.112,0,0,1,.189.252c.085.3.294.333.568.318.8-.049,1.6-.07,2.4-.129,1.563-.116,3.13-.224,4.689-.379,1.474-.155,2.952-.318,4.409-.589q3.27-.612,6.512-1.389a11.722,11.722,0,0,0,4.431-2.033,11.4,11.4,0,0,0,1.148-1.19h0l.117-.189.146-.555ZM-164.987,312a6.556,6.556,0,0,0-.693.072c-.066.013-.131.114-.159.189-.011.027.085.138.131.136a4.779,4.779,0,0,0,.716-.074.244.244,0,0,0,.138-.189c-.006-.063-.114-.114-.133-.131Zm-4.217.673a1.1,1.1,0,0,0,.286-.051c.078-.03.135-.121.2-.189-.081-.045-.165-.127-.248-.129a2.751,2.751,0,0,0-.559.053c-.072.013-.133.091-.189.14.061.057.114.136.189.165a1.187,1.187,0,0,0,.322.015Zm1.779-.125v.017a3.735,3.735,0,0,0,.462-.076c.074-.021.129-.1.189-.154-.072-.055-.142-.152-.212-.152a4.42,4.42,0,0,0-.688.061c-.053.009-.142.11-.133.14a.307.307,0,0,0,.155.157.6.6,0,0,0,.225.009Zm5.6-.616c.261-.045.472-.068.673-.125.066-.019.108-.123.161-.189-.076-.044-.155-.127-.227-.123a2.789,2.789,0,0,0-.585.106c-.081.025-.142.117-.212.189Zm6.362-1.686c-.271.08-.513.144-.758.229-.047.015-.106.14-.087.167.038.059.131.127.189.116a4.657,4.657,0,0,0,.693-.189c.051-.019.095-.131.095-.189s-.087-.095-.133-.129Zm1.188,0c.277-.091.519-.165.758-.258a.189.189,0,0,0,.085-.172c-.013-.051-.114-.125-.157-.114a6.923,6.923,0,0,0-.758.248c-.042.015-.076.127-.063.189s.1.08.135.11Zm6.167-2.874c-.1-.036-.2-.108-.252-.083a6.231,6.231,0,0,0-.659.415.2.2,0,0,0-.023.189.241.241,0,0,0,.212.045,6.628,6.628,0,0,0,.568-.379.97.97,0,0,0,.153-.184Zm-20.395-.782a2.891,2.891,0,0,0,.436-.072c.072-.021.121-.11.189-.169-.072-.047-.144-.134-.216-.134a4.839,4.839,0,0,0-.659.057.162.162,0,0,0-.117.114.235.235,0,0,0,.1.171A.928.928,0,0,0-168.5,306.593Zm8.6,5.024c.269-.055.5-.095.72-.155.051-.013.125-.125.112-.153-.03-.063-.116-.144-.171-.138a4.5,4.5,0,0,0-.709.136.223.223,0,0,0-.1.189c0,.057.1.093.14.121Zm-1.313-5.72c.267-.051.487-.08.7-.138.053-.015.108-.121.11-.189,0-.036-.106-.116-.159-.11a4.9,4.9,0,0,0-.682.119c-.059.013-.144.134-.129.169.019.07.11.114.152.15Zm9.164-2.131c.256-.1.491-.189.714-.3a.189.189,0,0,0,.051-.178.248.248,0,0,0-.2-.087,4.421,4.421,0,0,0-.612.233.239.239,0,0,0-.125.178c0,.055.1.1.163.152Zm1.428,5.134c.254-.136.5-.263.745-.407a.174.174,0,0,0,.011-.165.208.208,0,0,0-.189-.064,5.872,5.872,0,0,0-.648.318.22.22,0,0,0-.072.189c0,.036.081.072.144.129Zm-15.886-2.442a1.557,1.557,0,0,0,.309-.049.747.747,0,0,0,.2-.154c-.078-.057-.153-.157-.233-.161a2.99,2.99,0,0,0-.621.059c-.053,0-.117.1-.129.167s.076.116.129.133a1.55,1.55,0,0,0,.335.006Zm1.516-.142c.28-.023.493-.028.7-.064.061,0,.106-.106.157-.163-.057-.047-.114-.133-.169-.133a3.822,3.822,0,0,0-.658.057c-.065.011-.117.115-.173.176Zm1.842-.074.11-.117c.208-.028.417-.044.62-.089.064-.013.112-.1.167-.157-.066-.055-.135-.159-.2-.155a3.6,3.6,0,0,0-.65.095.226.226,0,0,0-.133.165.758.758,0,0,0,.08.26Zm.013,5.538c-.252.034-.432.045-.6.087-.072.019-.129.1-.189.159.066.051.135.142.2.144a1.969,1.969,0,0,0,.525-.061,1.158,1.158,0,0,0,.282-.171Zm7.478-6.951a6.512,6.512,0,0,0,.646-.165c.064-.023.1-.131.148-.2-.066-.034-.138-.106-.2-.1a4.055,4.055,0,0,0-.638.148c-.061.019-.1.117-.144.189Zm1.836-.489c.237-.08.458-.146.671-.231.049-.021.07-.108.1-.167-.076-.038-.157-.121-.222-.108a3.147,3.147,0,0,0-.6.178c-.066.027-.1.133-.15.2Zm2.23,4.8c-.072-.03-.15-.093-.2-.078a7.228,7.228,0,0,0-.709.263c-.038.015-.068.11-.059.159s.091.125.116.117c.267-.093.53-.189.79-.3a.966.966,0,0,0,.057-.159Zm-7.753-3.558a5.3,5.3,0,0,0,.633-.11c.068-.021.11-.142.163-.218-.076-.034-.155-.1-.227-.1a2.5,2.5,0,0,0-.555.1c-.08.025-.135.129-.2.189Zm10.61-3.289a7.174,7.174,0,0,0,.781-.593.124.124,0,0,0,.015-.174.124.124,0,0,0-.174-.015,3.641,3.641,0,0,0-.654.424c-.044.032.006.172.025.358Zm-8.63,8.45c-.248.063-.466.1-.673.174-.055.019-.081.125-.119.189.066.036.136.108.189.1a3.429,3.429,0,0,0,.616-.133c.072-.023.119-.123.178-.189Zm-12.961-4.037.028-.068a1.29,1.29,0,0,0,.343,0c.068-.021.114-.117.169-.189-.061-.042-.116-.106-.189-.117a1,1,0,0,0-.345,0c-.165.03-.421-.116-.451.169,0,.053.284.136.438.207Zm13.451-1.929c-.25.057-.468.1-.68.157-.053.017-.091.095-.135.146.07.053.146.155.21.148a3.556,3.556,0,0,0,.644-.142.225.225,0,0,0,.119-.189c-.01-.044-.114-.083-.165-.119Zm6.585-1.718c.231-.123.464-.239.688-.369a.167.167,0,0,0,.034-.159.176.176,0,0,0-.153-.072,7.131,7.131,0,0,0-.688.3c-.04.021-.057.131-.045.189s.085.064.159.11Z" transform="translate(201.097 -293.932)"/>
        <path id="Path_20678" data-name="Path 20678" class="cls-3" d="M-206.346,300.3c.08-.459.161-.917.241-1.375h0c0,.167,0,.333.015.5a2.02,2.02,0,0,0,.961,1.427,12.269,12.269,0,0,0,4.212,2.065q2.808.747,5.651,1.349c1.408.294,2.842.481,4.267.686.968.138,1.942.239,2.918.326q1.963.176,3.935.305c.79.051,1.582.055,2.374.081-.023.654-.064,1.305-.063,1.959,0,1.6.03,3.189.047,4.782-.248,0-.5-.027-.758-.015-.08,0-.155.091-.233.14.08.057.153.155.237.161.248.019.5,0,.758,0l.068.8c-1.72-.078-3.446-.091-5.157-.248-2.2-.2-4.388-.481-6.57-.8a39.257,39.257,0,0,1-7.269-1.775,15.879,15.879,0,0,1-4-1.923c-.26-.189-.489-.4-.729-.61a1.686,1.686,0,0,1-.642-1.411l.29-.152c-.1-.189-.074-.468-.358-.536l-.189-5.267c.091.053.189.11.277.154,0,0,.1-.112.085-.142C-206.065,300.6-206.045,300.323-206.346,300.3Zm2.885,7.9c-.03.125-.087.275-.063.29a8.11,8.11,0,0,0,.743.379c.03.013.123-.044.144-.089a.174.174,0,0,0-.032-.163c-.233-.121-.477-.242-.792-.409Zm13.353,3.6a.619.619,0,0,0-.18,0,2.134,2.134,0,0,0-.224.121c.061.063.112.165.189.189a2.989,2.989,0,0,0,.621.07c.08,0,.159-.093.237-.144-.064-.055-.121-.14-.189-.161a3.6,3.6,0,0,0-.455-.066Zm-9.7-2.052-.189.129c.045.063.078.155.138.189a3.867,3.867,0,0,0,.623.2c.066.015.155-.061.233-.095-.047-.072-.078-.178-.142-.2-.2-.083-.413-.136-.663-.214Zm-5.3-2.588c-.049.119-.114.231-.1.243.241.189.493.356.741.532a1.767,1.767,0,0,0,.119-.189c-.224-.182-.47-.358-.754-.576Zm9.683,4.1.178-.148c-.057-.064-.1-.163-.172-.189a3.22,3.22,0,0,0-.614-.131c-.066,0-.144.081-.216.127.047.059.083.153.142.172a5.453,5.453,0,0,0,.69.178Zm10.5-4.712a1.909,1.909,0,0,0,.364-.027.178.178,0,0,0,.1-.133c0-.047-.053-.135-.091-.14a7.089,7.089,0,0,0-.748-.068c-.049,0-.15.091-.144.127a.25.25,0,0,0,.135.169A2.252,2.252,0,0,0-184.926,306.55Zm-3.808-.64a1.384,1.384,0,0,0-.311,0c-.059.017-.142.072-.148.117s.051.161.095.169a6.655,6.655,0,0,0,.758.076.2.2,0,0,0,.138-.136.2.2,0,0,0-.117-.155,2.98,2.98,0,0,0-.409-.072Zm-2.868,6.063.171-.146c-.057-.063-.1-.163-.171-.189a3.636,3.636,0,0,0-.621-.106c-.066,0-.138.059-.208.089.045.072.078.189.138.2.216.059.436.087.7.136Zm-6.063-7.178.178-.119c-.047-.07-.081-.189-.146-.2a3.85,3.85,0,0,0-.637-.172.216.216,0,0,0-.189.106.216.216,0,0,0,.091.189c.22.063.445.119.7.189Zm-3.979,4.284c-.055.038-.146.072-.155.121a.206.206,0,0,0,.091.176,5.3,5.3,0,0,0,.673.273c.051.017.152-.045.189-.1.019-.025-.032-.152-.08-.172a7.7,7.7,0,0,0-.724-.309Zm10.761-3.393-.189.134c.063.068.116.178.189.189a2.451,2.451,0,0,0,.589.078c.066,0,.136-.091.2-.14-.047-.057-.085-.152-.142-.165a6.355,6.355,0,0,0-.657-.108Zm-1.237.178.178-.129c-.063-.066-.114-.169-.189-.189a2.589,2.589,0,0,0-.589-.11c-.068,0-.144.081-.216.127.047.063.085.161.144.176.2.042.407.066.667.114Zm4.134,6.531a1.047,1.047,0,0,0,.307,0,.235.235,0,0,0,.119-.155.167.167,0,0,0-.1-.131,5.447,5.447,0,0,0-.722-.072c-.057,0-.116.093-.172.142.053.053.1.14.161.155a3,3,0,0,0,.405.049Zm3.827.25v.011a.841.841,0,0,0,.25,0,1.06,1.06,0,0,0,.233-.15c-.074-.055-.144-.142-.225-.157a2.343,2.343,0,0,0-.568-.034c-.078,0-.148.1-.222.157.061.059.112.152.189.171a1.373,1.373,0,0,0,.333-.009Zm-18.622-9.768c-.093-.108-.127-.178-.189-.207a5.049,5.049,0,0,0-.6-.271c-.049-.019-.152.036-.189.087s.013.153.055.176a4.505,4.505,0,0,0,.623.3c.063.011.159-.057.3-.1Zm1.749.7c-.066-.093-.081-.144-.114-.157-.241-.1-.481-.189-.728-.28-.034-.011-.144.078-.144.121a.244.244,0,0,0,.1.189,2.98,2.98,0,0,0,.583.222c.072.01.172-.064.3-.106Zm7.51,8.08.189-.167c-.061-.057-.114-.144-.189-.165a3.067,3.067,0,0,0-.582-.116c-.074,0-.153.066-.231.1.049.066.087.172.15.189.2.055.4.087.657.144Zm-2.3-6.457.18-.135c-.057-.059-.1-.152-.172-.172a3.247,3.247,0,0,0-.584-.131.7.7,0,0,0-.222.091c.057.074.1.189.174.212a4.822,4.822,0,0,0,.618.123Zm-1.493,5.636c.055-.038.172-.091.167-.121a.288.288,0,0,0-.131-.206,3.823,3.823,0,0,0-.635-.171c-.059-.011-.134.066-.2.1.038.063.061.163.114.189.208.064.432.119.682.2Zm3.312-5.284.212-.136a.963.963,0,0,0-.246-.189,2.2,2.2,0,0,0-.521-.1c-.07,0-.146.072-.22.112.049.07.083.189.146.2a5.663,5.663,0,0,0,.616.1Zm7.158.875a1.538,1.538,0,0,0,.326,0,.747.747,0,0,0,.189-.121c-.047-.061-.085-.165-.14-.176a4.024,4.024,0,0,0-.657-.061c-.064,0-.127.091-.189.14.047.059.085.152.146.171a1.848,1.848,0,0,0,.32.036Zm.745,5.775a1.191,1.191,0,0,0-.277,0,1.339,1.339,0,0,0-.252.121c.083.064.159.169.248.189a2.714,2.714,0,0,0,.595.011c.064,0,.125-.078.189-.121-.051-.059-.093-.15-.155-.169a1.515,1.515,0,0,0-.354-.044Zm3.062-5.905h0a1.565,1.565,0,0,0-.313,0,.578.578,0,0,0-.189.117c.055.063.1.161.167.189a.758.758,0,0,0,.341.011c.169-.027.462.119.472-.144s-.288-.127-.449-.169a.089.089,0,0,0-.034-.017Zm-22.276-4.979c-.015.189-.064.318-.025.35a4.517,4.517,0,0,0,.629.417c.025.013.129-.119.189-.189Zm5.8,2.956.189-.142c-.053-.064-.093-.161-.161-.189a3.332,3.332,0,0,0-.568-.176c-.061-.013-.136.045-.207.072.036.076.055.189.114.218A6.319,6.319,0,0,0-199.514,304.276Z" transform="translate(206.346 -293.889)"/>
        <path id="Path_20679" data-name="Path 20679" class="cls-4" d="M-183.6,336.76l-1.326-1.645-.148-.174h0l-.125-.189v-.009l-.119-.189h0l-.189-.313h0a1.052,1.052,0,0,0-.064-.263,9.964,9.964,0,0,1-1.165-4.007,10.438,10.438,0,0,1,.447-4.028,10.42,10.42,0,0,1,4.486-5.756,10.085,10.085,0,0,1,4.833-1.516,10.843,10.843,0,0,1,2.7.189,9.992,9.992,0,0,1,6.442,4.221,23.726,23.726,0,0,1,1.256,2.294,7.767,7.767,0,0,1,.625,2.923,1.662,1.662,0,0,0-.049.208c-.068.65-.078,1.309-.207,1.946a10.391,10.391,0,0,1-3.622,6.087,10.49,10.49,0,0,1-8.012,2.436,11,11,0,0,1-4.572-1.474c-.25-.148-.508-.28-.758-.421h.009l-.189-.138h0l-.07-.064h0l-.129-.074h0Zm-1.01-5.4h0a1.516,1.516,0,0,0,.032.248,8.694,8.694,0,0,0,2.02,3.475,8.4,8.4,0,0,0,2.787,1.94,8.454,8.454,0,0,0,5.508.458,8.349,8.349,0,0,0,4.824-3.221,7.433,7.433,0,0,0,1.349-2.842,3.655,3.655,0,0,0,.127-.379,9.284,9.284,0,0,0,.2-2.359,5.741,5.741,0,0,0-.394-1.895,1.055,1.055,0,0,0,0-.318,8.266,8.266,0,0,0-2.885-4.168,8.4,8.4,0,0,0-6.737-1.732,8.51,8.51,0,0,0-4.227,2.008,8.732,8.732,0,0,0-2.516,3.8,1.532,1.532,0,0,0-.027.409,4.433,4.433,0,0,0-.248.667,7.045,7.045,0,0,0-.129,2.366c.064.474.167.947.25,1.413Z" transform="translate(203.344 -296.916)"/>
        <path id="Path_20680" data-name="Path 20680" class="cls-5" d="M-152.582,298.244l-.1.025a3.372,3.372,0,0,0-.155-.441,3.16,3.16,0,0,0-1.794-1.383,27.65,27.65,0,0,0-5.945-1.544c-1.417-.239-2.842-.405-4.274-.585-1.1-.14-2.209-.273-3.317-.379-1.2-.108-2.391-.189-3.588-.258-.915-.057-1.83-.1-2.747-.127s-1.836-.066-2.755-.063c-1.722,0-3.444.034-5.166.059q-1.123.017-2.247.064c-.862.034-1.726.072-2.588.127-1.2.076-2.393.152-3.586.258s-2.342.225-3.509.379c-1.457.189-2.912.394-4.357.64a22.551,22.551,0,0,0-5.057,1.326,4.013,4.013,0,0,0-2.171,1.6c-.015.03-.072.036-.108.053h0a4.844,4.844,0,0,1,.61-.9,8.157,8.157,0,0,1,3.031-1.588A38.253,38.253,0,0,1-195.742,294a89.018,89.018,0,0,1,9.624-.894c2.084-.085,4.168-.117,6.252-.148,3.746-.053,7.484.091,11.214.409a65.447,65.447,0,0,1,10.3,1.571,17.619,17.619,0,0,1,3.908,1.364,8.944,8.944,0,0,1,1.211.8A1.9,1.9,0,0,1-152.582,298.244Z" transform="translate(206.301 -292.972)"/>
        <path id="Path_20681" data-name="Path 20681" class="cls-6" d="M-172.888,306.028c.03.527.063,1.055.093,1.584,0,.3.015.6.015.9,0,1.173.023,2.345,0,3.518-.019.809-.112,1.616-.171,2.425l-.366.4c-.07.093-.189.189-.189.279-.027.379-.015.769-.017,1.152l-.189-.032v-1.178l-.133-.047c-.063.1-.171.189-.178.3-.025.292,0,.587,0,.881h-.131c0-.271.013-.544,0-.813,0-.076-.117-.142-.18-.212h-.989c-.189-.023-.265.044-.254.241.013.258,0,.515,0,.773h-.189c0-.263.011-.529,0-.792a1.442,1.442,0,0,0-.114-.345,1.418,1.418,0,0,0-.129.36c-.023.273-.011.549-.015.822h-.119c0-.367.011-.737,0-1.1,0-.078-.114-.15-.172-.224l-.5-.476a9.264,9.264,0,0,1-.131-1.067c-.019-1.65-.011-3.3-.028-4.952a8.446,8.446,0,0,0-.11-.947.568.568,0,0,1,0-.127c.04-.252.083-.5.125-.758.036-.189.074-.379.112-.568a.963.963,0,0,1,.709-.7,3.6,3.6,0,0,1,2.122-.114C-173.545,305.337-173.069,305.484-172.888,306.028Zm-3.7,4.134h0v1.895a16.559,16.559,0,0,0,.074,1.705.947.947,0,0,0,.3.623,2.307,2.307,0,0,0,2.463.146A.96.96,0,0,0-173.3,314a3.978,3.978,0,0,0,.14-1.091q.023-2.33,0-4.664c0-.568-.023-1.12-.066-1.677a.841.841,0,0,0-.368-.733,2.668,2.668,0,0,0-2.378-.117.853.853,0,0,0-.538.7,5.385,5.385,0,0,0-.072.818c-.008.981,0,1.955,0,2.929Z" transform="translate(201.857 -294.837)"/>
        <path id="Path_20682" data-name="Path 20682" class="cls-7" d="M-175.69,318.226h.131l.318.045.189.032.239.027a10.52,10.52,0,0,1,5.631,2.842,10.517,10.517,0,0,1,2.563,3.922.826.826,0,0,1,.021.239,24.032,24.032,0,0,0-1.256-2.294,9.992,9.992,0,0,0-6.442-4.221,10.845,10.845,0,0,0-2.7-.189,10.084,10.084,0,0,0-4.833,1.516,10.42,10.42,0,0,0-4.507,5.75,10.437,10.437,0,0,0-.447,4.028,9.964,9.964,0,0,0,1.165,4.007,1.052,1.052,0,0,1,.064.263,8.323,8.323,0,0,1-1.165-2.891,10.492,10.492,0,0,1,2.842-9.99,10.011,10.011,0,0,1,5.833-2.965.982.982,0,0,0,.214-.053h.309l.263-.045h1.4Z" transform="translate(203.377 -296.85)"/>
        <path id="Path_20683" data-name="Path 20683" class="cls-8" d="M-182.517,338.843c.254.14.512.273.758.421a11,11,0,0,0,4.572,1.474,10.492,10.492,0,0,0,8.012-2.436,10.392,10.392,0,0,0,3.63-6.087c.129-.637.138-1.3.206-1.946a1.657,1.657,0,0,1,.049-.208,10.383,10.383,0,0,1-8.364,11.013,10.535,10.535,0,0,1-8.715-2.05A1.173,1.173,0,0,1-182.517,338.843Z" transform="translate(202.69 -298.666)"/>
        <path id="Path_20684" data-name="Path 20684" class="cls-9" d="M-177.005,306.872c-.042.252-.085.5-.125.758a.566.566,0,0,0,0,.127,8.455,8.455,0,0,1,.11.947c.017,1.65,0,3.3.028,4.952a9.263,9.263,0,0,0,.131,1.067h-.4v-.017l-.068-.8v-.286c-.017-1.593-.042-3.187-.047-4.782,0-.654.04-1.305.063-1.959a.263.263,0,0,1,.055-.017Z" transform="translate(201.902 -295.107)"/>
        <path id="Path_20685" data-name="Path 20685" class="cls-10" d="M-172.209,314.91c.059-.809.152-1.616.171-2.425.03-1.173,0-2.345,0-3.518,0-.3,0-.6-.015-.9h.347v5.97c-.044.278-.087.557-.133.835Z" transform="translate(201.109 -295.292)"/>
        <path id="Path_20686" data-name="Path 20686" class="cls-11" d="M-172.658,318.081l-.239-.027c0-.379,0-.769.017-1.152,0-.1.129-.189.189-.279Z" transform="translate(201.214 -296.604)"/>
        <path id="Path_20687" data-name="Path 20687" class="cls-12" d="M-176,318.029h-.189V316.7c.059.074.169.146.172.224C-175.992,317.292-176,317.661-176,318.029Z" transform="translate(201.72 -296.616)"/>
        <path id="Path_20688" data-name="Path 20688" class="cls-13" d="M-142.835,308.039c-.087-.064-.258-.152-.248-.189.053-.189.03-.438.318-.459a1.122,1.122,0,0,1,.072.343A1.045,1.045,0,0,1-142.835,308.039Z" transform="translate(196.641 -295.188)"/>
        <path id="Path_20689" data-name="Path 20689" class="cls-13" d="M-206.126,307.326c.284.068.258.347.358.536l-.29.152C-206.105,307.786-206.355,307.58-206.126,307.326Z" transform="translate(206.327 -295.178)"/>
        <path id="Path_20690" data-name="Path 20690" class="cls-13" d="M-142.652,301.211c-.214-.017-.267-.14-.189-.324.044-.114.106-.222.161-.332.235-.013.3.1.222.305a2.845,2.845,0,0,1-.193.351Z" transform="translate(196.609 -294.139)"/>
        <path id="Path_20691" data-name="Path 20691" class="cls-13" d="M-206.346,300.547c.3.017.28.29.364.476.013.03-.078.146-.085.142a2.8,2.8,0,0,1-.277-.153Z" transform="translate(206.346 -294.138)"/>
        <path id="Path_20692" data-name="Path 20692" class="cls-7" d="M-185.3,337.067l.189.313Z" transform="translate(203.117 -299.741)"/>
        <path id="Path_20693" data-name="Path 20693" class="cls-7" d="M-185.073,337.441l.119.189Z" transform="translate(203.082 -299.798)"/>
        <path id="Path_20694" data-name="Path 20694" class="cls-7" d="M-184.932,337.674l.125.189Z" transform="translate(203.061 -299.834)"/>
        <path id="Path_20695" data-name="Path 20695" class="cls-7" d="M-184.779,337.893l.148.174Z" transform="translate(203.037 -299.867)"/>
        <path id="Path_20696" data-name="Path 20696" class="cls-8" d="M-182.73,340.272l.189.138Z" transform="translate(202.723 -300.232)"/>
        <path id="Path_20697" data-name="Path 20697" class="cls-8" d="M-182.949,340.113l.129.074Z" transform="translate(202.756 -300.208)"/>
        <path id="Path_20698" data-name="Path 20698" class="cls-6" d="M-177.222,316.152Z" transform="translate(201.878 -296.532)"/>
        <path id="Path_20699" data-name="Path 20699" class="cls-8" d="M-183.027,340.041l.072.064Z" transform="translate(202.768 -300.197)"/>
        <path id="Path_20700" data-name="Path 20700" class="cls-8" d="M-182.806,340.193l.07.064Z" transform="translate(202.735 -300.22)"/>
        <path id="Path_20701" data-name="Path 20701" class="cls-14" d="M-206.055,298.11c.036-.017.093-.023.108-.053a4.014,4.014,0,0,1,2.171-1.6,22.551,22.551,0,0,1,5.057-1.326c1.449-.246,2.9-.451,4.357-.64,1.167-.153,2.336-.275,3.509-.379s2.391-.189,3.586-.258c.862-.055,1.726-.093,2.588-.127q1.122-.045,2.247-.064c1.722-.025,3.444-.053,5.166-.059.919,0,1.838.03,2.755.063s1.832.07,2.747.127c1.2.074,2.393.15,3.588.258,1.108.1,2.213.231,3.317.379,1.427.189,2.857.347,4.274.585a27.536,27.536,0,0,1,5.945,1.544,3.154,3.154,0,0,1,1.794,1.383,3.379,3.379,0,0,1,.155.441l-.146.555-.117.189h0a2.754,2.754,0,0,0-.28.189c-.2.172-.379.379-.587.529a11.463,11.463,0,0,1-3.162,1.567c-.368.125-.746.214-1.12.32-.038-.335-.352-.222-.534-.322-.063-.034-.174.025-.265.042a1,1,0,0,0,.207.189,3.321,3.321,0,0,0,.4.148l-.964.258c-.6-.169-1.19-.379-1.8-.5a57.19,57.19,0,0,0-7.089-.972c-3.329-.3-6.665-.474-10-.468-3.031,0-6.063.1-9.094.229a64.73,64.73,0,0,0-9.473,1.025c-.887.169-1.751.457-2.624.69l-1-.315c.125-.047.254-.087.379-.144.047-.023.076-.085.112-.129-.045-.036-.108-.112-.135-.1-.229.1-.451.207-.674.313a3.092,3.092,0,0,1-.4-.087c-.633-.225-1.277-.428-1.895-.7a7.261,7.261,0,0,1-2.692-1.766c-.14-.161-.263-.337-.394-.506Zm26.389-3.979-.025.1c.163.229.424.1.64.114.059,0,.127-.1.189-.155l-.042-.059Zm1.04,5.371a.707.707,0,0,0,.22,0,.979.979,0,0,0,.21-.133.713.713,0,0,0-.189-.112,1.015,1.015,0,0,0-.347,0,1.049,1.049,0,0,0-.248.116,2.655,2.655,0,0,0,.237.131.344.344,0,0,0,.114,0Zm-26.567-1.19c.189-.138.379-.271.568-.409a.114.114,0,0,0,0-.11c-.034-.027-.1-.053-.135-.036a5.844,5.844,0,0,0-.508.316.144.144,0,0,0-.038.134C-205.3,298.248-205.246,298.271-205.193,298.313Zm27.429-3.9.413-.174a1.538,1.538,0,0,0-.423-.125,1.1,1.1,0,0,0-.369.123Zm18.15,1.406-.165.091c.059.055.108.133.178.161a1.585,1.585,0,0,0,.4.1.543.543,0,0,0,.208-.066c-.045-.055-.08-.136-.138-.159a4.165,4.165,0,0,0-.479-.131Zm-27.248,3.8c.542.15.8.093.849-.189-.271.051-.565-.106-.849.189Zm-4.484.451a5.265,5.265,0,0,0,.523-.066c.066-.013.119-.085.178-.131-.066-.038-.133-.108-.189-.108a2.026,2.026,0,0,0-.464.061c-.066.015-.119.087-.178.133Zm30.063.932.127-.108c-.045-.045-.083-.114-.138-.131a2.1,2.1,0,0,0-.453-.106c-.063,0-.133.066-.2.1.047.045.087.116.144.133a4.456,4.456,0,0,0,.519.1Zm-26.433-1.516c-.207.03-.364.042-.515.078-.053.013-.093.087-.14.134.057.032.116.093.172.093a1.843,1.843,0,0,0,.432-.049.934.934,0,0,0,.235-.138Zm31.063-2.9c-.036.025-.11.047-.125.091a.157.157,0,0,0,.072.14,3.745,3.745,0,0,0,.534.174c.047.011.112-.053.169-.081-.03-.045-.053-.116-.095-.133C-156.273,296.7-156.463,296.649-156.652,296.583Zm-16.079,2.861-.027.125c.165.222.43.1.65.116.047,0,.1-.078.15-.119-.053-.042-.1-.112-.157-.116-.214-.013-.419-.006-.625-.006Zm-29.834-2.652.051.189c.239-.063.477-.119.712-.189.025,0,.051-.1.036-.127s-.087-.085-.119-.076c-.237.064-.464.14-.69.212Zm42.944,4.564c-.064-.261-.6-.485-.737-.354a.216.216,0,0,0,.032.189c.212.07.441.116.7.174Zm-38.717-.445c-.3.078-.527.131-.748.2-.023,0-.042.161-.011.189.114.108.644-.116.75-.383Zm23.97-1.442c.26.231.525.136.771.133.023,0,.064-.061.063-.091s-.04-.123-.063-.123c-.254.006-.512-.081-.781.095Zm-9.117-5.227-.036-.081h-.614c-.055,0-.106.074-.161.114.049.044.1.119.148.123a2.19,2.19,0,0,0,.5,0c.053,0,.095-.091.155-.146Zm-10.947,6.2c.222-.027.379-.038.549-.068.051,0,.091-.07.135-.108-.047-.044-.1-.127-.142-.125a4.417,4.417,0,0,0-.587.076c-.028,0-.07.1-.057.123a.361.361,0,0,0,.093.112Zm18.593-1.137-.045.123c.083.042.165.117.248.119a4.81,4.81,0,0,0,.544-.059c-.044-.061-.081-.17-.131-.176-.212-.006-.419.006-.625.006Zm-7.01,0c-.263,0-.479-.009-.692,0-.038,0-.108.157-.087.189.1.159.652.059.777-.174Zm22.218-3.422.161-.1c-.049-.053-.089-.133-.15-.153a2.355,2.355,0,0,0-.457-.095.538.538,0,0,0-.176.076c.038.049.066.127.116.144A4.094,4.094,0,0,0-160.631,295.882ZM-185,294.235h-.692c-.036,0-.108.157-.087.189.1.146.648.045.773-.188Zm9.975-.059-.023.117c.159.248.43.1.648.123.044,0,.1-.078.148-.121-.053-.04-.1-.11-.159-.114A6.015,6.015,0,0,0-175.03,294.177Zm16.786,2-.059.189c.233.07.466.144.7.2a.162.162,0,0,0,.11-.087.14.14,0,0,0-.064-.123c-.225-.074-.457-.131-.688-.189Zm5.032,2.037.023-.11-.69-.343c0,.059-.047.155-.025.172a4.583,4.583,0,0,0,.525.337c.036.013.112-.042.169-.063Zm-26.933,1.351.369-.189a1.254,1.254,0,0,0-.379-.117,1.476,1.476,0,0,0-.405.119Zm-2.588-5.333.013.121h.669a.142.142,0,0,0,.1-.1c0-.036-.042-.116-.07-.117-.25-.027-.515-.112-.72.093Zm28.138,3.357c-.078-.288-.483-.548-.644-.483-.04.015-.07.172-.063.176C-155.089,297.386-154.87,297.475-154.595,297.587Zm-29.811,1.79h-.718c-.045,0-.1.064-.127.112-.011.015.025.076.055.1.125.112.6.021.79-.207Zm-5.447.644.106-.142a3.333,3.333,0,0,0,.436,0c.068,0,.129-.076.189-.116-.061-.044-.121-.123-.189-.123a2.572,2.572,0,0,0-.494.059.172.172,0,0,0-.108.116.783.783,0,0,0,.061.21Zm20.344-.4-.14.117c.053.047.1.123.163.136a2.1,2.1,0,0,0,.462.059c.055,0,.114-.066.171-.1-.047-.045-.087-.117-.142-.131-.152-.028-.307-.045-.513-.076Zm-23.493.4-.021.112c.167.222.417,0,.616.053.057.013.142-.095.214-.146l-.055-.11Zm26.463-.083c.083.241.081.246.5.307a.914.914,0,0,0,.269-.042c-.019-.059-.027-.165-.055-.169-.231-.038-.462-.061-.72-.093Zm2.372.532c-.125-.254-.682-.409-.782-.284a.244.244,0,0,0,.053.189c.216.04.44.053.726.1Zm-16.649-6.063.025-.049a.172.172,0,0,0,.063,0c.106-.038.212-.08.318-.121l-.307-.131a.1.1,0,0,0-.063,0l-.411.119Zm7.686.136.405-.171a1.433,1.433,0,0,0-.392-.133,1.309,1.309,0,0,0-.388.1Zm-19.611.5.042-.1c-.074-.038-.146-.108-.222-.112a1.448,1.448,0,0,0-.4.047.712.712,0,0,0-.189.121c.063.042.125.121.189.119.188-.008.383-.045.578-.072Zm25.387-.379a.7.7,0,0,0,.013.169c.235.051.472.1.709.138.017,0,.072-.074.064-.089-.027-.049-.068-.116-.114-.125-.22-.044-.434-.066-.68-.1Zm-14.74,4.827h.714c.027,0,.076-.061.072-.085s-.044-.114-.074-.117c-.258-.042-.515-.093-.72.2Zm5.449,0v-.169c-.22-.021-.438-.053-.656-.059-.047,0-.1.08-.142.133-.009.011.036.089.057.091.239.008.485.006.733.006Zm6.252.214-.038-.108-.489-.083c-.021,0-.047-.013-.063,0-.076.038-.15.08-.224.119a.672.672,0,0,0,.189.125,1.177,1.177,0,0,0,.369.051.871.871,0,0,0,.239-.1Zm3.077.379c0-.1.011-.153,0-.153-.244-.051-.489-.1-.733-.144,0,.066,0,.189.025.189.222.055.453.076.693.116Zm4.655.633a.512.512,0,0,0-.849-.146Zm-1.616-5.684-.036.189c.241.042.479.085.72.121.025,0,.081-.053.081-.08s-.032-.119-.061-.123c-.248-.032-.485-.062-.72-.1Zm-23.1-.665v.157h.731c.021,0,.063-.07.055-.095s-.061-.108-.091-.106A6.658,6.658,0,0,0-187.375,294.366Zm-16.589,3.209c.271-.1.481-.176.686-.265.03-.011.051-.085.047-.127s-.053-.064-.089-.076c-.169-.057-.566.193-.644.462Zm2.967-1.031c.216-.053.432-.1.644-.163.032,0,.061-.08.061-.123s-.045-.072-.078-.087a.641.641,0,0,0-.627.368Zm4.2,4.168c-.479-.091-.737,0-.786.26.269-.032.542.025.786-.273Zm33.985-5.212.8.083c-.246-.354-.654-.388-.8-.1Zm-32.511,5.07-.021-.174c-.235.032-.472.059-.7.1a.146.146,0,0,0-.068.121c0,.038.078.1.11.091.229-.051.457-.1.684-.15Zm6.442-5.974c.419.14.629.093.8-.165-.3.027-.591-.117-.805.152Zm-1.555.123.045.108c.229-.032.46-.059.688-.1.034,0,.055-.078.08-.117-.047-.03-.1-.083-.146-.081a2.224,2.224,0,0,0-.464.04c-.081,0-.144.085-.208.138Zm20.031-.244c.1.239.366.284.731.15-.1-.229-.242-.26-.737-.163Zm-26.1,1.027a.591.591,0,0,0,.722-.2C-196.116,295.2-196.421,295.285-196.506,295.5Zm25.315-.985v-.144c-.225-.025-.451-.057-.678-.07-.038,0-.089.068-.117.117-.009.015.038.091.061.091.25.011.5.009.735.009Zm5.35.529.782.083a.472.472,0,0,0-.37-.25.472.472,0,0,0-.413.17Zm-32.251.792c.286-.038.5-.063.707-.1a.146.146,0,0,0,.085-.1.152.152,0,0,0-.068-.119.954.954,0,0,0-.724.328Zm21.537-1.531h.767c-.294-.3-.688-.271-.758,0Zm-17.707.932.034-.117c-.064-.034-.148-.114-.189-.095-.189.074-.468-.076-.606.3Zm26.158-.413a.536.536,0,0,0-.862-.114Zm-30.692.947-.784.189a.469.469,0,0,0,.784-.176Zm7.629-1.017c-.356-.171-.638-.125-.79.14.28.023.544.116.79-.127Z" transform="translate(206.301 -293.072)"/>
        <path id="Path_20702" data-name="Path 20702" class="cls-15" d="M-172.066,305.273c1.37-.062,2.745-.08,4.111-.189,2.452-.212,4.907-.415,7.34-.758,2.15-.3,4.274-.792,6.407-1.2a.878.878,0,0,0,.171-.07l.964-.258.189-.063c.379-.106.758-.189,1.12-.32a11.462,11.462,0,0,0,3.162-1.567c.21-.155.379-.356.587-.529a2.766,2.766,0,0,1,.28-.189,10.342,10.342,0,0,1-1.148,1.19,11.721,11.721,0,0,1-4.431,2.033q-3.236.773-6.512,1.389c-1.457.271-2.935.434-4.409.589-1.559.165-3.126.273-4.689.379-.8.059-1.6.08-2.4.129-.267.015-.476-.017-.568-.318C-171.9,305.432-172,305.356-172.066,305.273Z" transform="translate(201.087 -294.074)"/>
        <path id="Path_20703" data-name="Path 20703" class="cls-16" d="M-163.847,314.328c.019.017.127.068.133.129a.245.245,0,0,1-.138.189,4.779,4.779,0,0,1-.716.074c-.045,0-.142-.11-.131-.136.028-.076.093-.176.159-.189a6.55,6.55,0,0,1,.693-.066Z" transform="translate(199.957 -296.252)"/>
        <path id="Path_20704" data-name="Path 20704" class="cls-17" d="M-168.768,315.057a1.187,1.187,0,0,1-.333,0c-.072-.028-.125-.108-.189-.165.064-.049.125-.127.189-.14a2.756,2.756,0,0,1,.559-.053c.083,0,.167.083.248.129-.064.063-.121.153-.2.189A1.1,1.1,0,0,1-168.768,315.057Z" transform="translate(200.661 -296.309)"/>
        <path id="Path_20705" data-name="Path 20705" class="cls-17" d="M-166.64,314.91a.6.6,0,0,1-.218,0,.307.307,0,0,1-.155-.157c-.009-.03.08-.131.133-.14a4.417,4.417,0,0,1,.688-.061c.07,0,.14.1.212.152-.064.053-.119.133-.189.153a3.735,3.735,0,0,1-.462.076Z" transform="translate(200.312 -296.286)"/>
        <path id="Path_20706" data-name="Path 20706" class="cls-16" d="M-159.987,314.167l-.189-.15c.07-.062.131-.155.212-.189a2.787,2.787,0,0,1,.585-.106c.072,0,.152.08.227.123-.053.064-.095.169-.161.189A4.669,4.669,0,0,1-159.987,314.167Z" transform="translate(199.263 -296.159)"/>
        <path id="Path_20707" data-name="Path 20707" class="cls-17" d="M-152.59,312.256c.045.034.14.074.14.116s-.044.189-.095.189a4.663,4.663,0,0,1-.693.189c-.057.011-.15-.057-.189-.116-.019-.026.04-.152.087-.167C-153.1,312.4-152.861,312.335-152.59,312.256Z" transform="translate(198.228 -295.934)"/>
        <path id="Path_20708" data-name="Path 20708" class="cls-16" d="M-151.058,312.156c-.038-.03-.117-.064-.129-.114a.237.237,0,0,1,.063-.189,6.912,6.912,0,0,1,.758-.248c.044-.011.144.063.157.114a.19.19,0,0,1-.085.172C-150.539,311.991-150.782,312.065-151.058,312.156Z" transform="translate(197.884 -295.834)"/>
        <path id="Path_20709" data-name="Path 20709" class="cls-16" d="M-143.921,308.845a.97.97,0,0,1-.146.189,6.622,6.622,0,0,1-.568.379.241.241,0,0,1-.212-.045c-.028-.021-.015-.159.023-.189a6.226,6.226,0,0,1,.659-.415C-144.124,308.737-144.025,308.817-143.921,308.845Z" transform="translate(196.914 -295.398)"/>
        <path id="Path_20710" data-name="Path 20710" class="cls-17" d="M-167.909,307.864a.929.929,0,0,1-.278-.034.235.235,0,0,1-.1-.17c0-.036.072-.108.117-.114a4.834,4.834,0,0,1,.659-.057c.072,0,.144.087.216.135-.059.059-.108.148-.189.169A2.9,2.9,0,0,1-167.909,307.864Z" transform="translate(200.507 -295.203)"/>
        <path id="Path_20711" data-name="Path 20711" class="cls-16" d="M-157.719,313.787c-.04-.028-.14-.064-.15-.117a.224.224,0,0,1,.1-.189,4.5,4.5,0,0,1,.709-.136.262.262,0,0,1,.171.138c.013.028-.061.14-.112.153C-157.217,313.688-157.45,313.732-157.719,313.787Z" transform="translate(198.909 -296.101)"/>
        <path id="Path_20712" data-name="Path 20712" class="cls-16" d="M-159.272,307.031c-.042-.036-.133-.08-.161-.15-.015-.034.07-.155.129-.169a4.9,4.9,0,0,1,.682-.119c.053,0,.161.074.159.11a.233.233,0,0,1-.11.189C-158.784,306.952-159.005,306.98-159.272,307.031Z" transform="translate(199.149 -295.066)"/>
        <path id="Path_20713" data-name="Path 20713" class="cls-16" d="M-148.45,304.491c-.066-.055-.165-.1-.172-.152a.239.239,0,0,1,.125-.178,4.415,4.415,0,0,1,.612-.233.248.248,0,0,1,.2.087.189.189,0,0,1-.051.178C-147.959,304.3-148.194,304.389-148.45,304.491Z" transform="translate(197.49 -294.657)"/>
        <path id="Path_20714" data-name="Path 20714" class="cls-18" d="M-146.758,310.541c-.066-.057-.142-.093-.146-.136a.22.22,0,0,1,.072-.189,5.875,5.875,0,0,1,.648-.318.209.209,0,0,1,.189.064.174.174,0,0,1-.011.165C-146.252,310.277-146.5,310.4-146.758,310.541Z" transform="translate(197.227 -295.572)"/>
        <path id="Path_20715" data-name="Path 20715" class="cls-16" d="M-165.581,307.708a1.551,1.551,0,0,1-.345,0c-.053-.017-.134-.095-.129-.133s.076-.157.129-.167a2.988,2.988,0,0,1,.621-.059c.08,0,.155.1.233.161a.748.748,0,0,1-.2.153A1.556,1.556,0,0,1-165.581,307.708Z" transform="translate(200.165 -295.182)"/>
        <path id="Path_20716" data-name="Path 20716" class="cls-16" d="M-163.727,307.54l-.146-.127c.057-.061.108-.165.174-.176a3.822,3.822,0,0,1,.657-.057c.055,0,.112.085.169.133-.051.057-.1.154-.157.163C-163.235,307.512-163.443,307.517-163.727,307.54Z" transform="translate(199.83 -295.156)"/>
        <path id="Path_20717" data-name="Path 20717" class="cls-18" d="M-161.541,307.424a.758.758,0,0,1-.085-.26.225.225,0,0,1,.133-.165,3.6,3.6,0,0,1,.65-.095c.064,0,.133.1.2.155-.055.055-.1.144-.167.157-.2.045-.411.061-.62.089Z" transform="translate(199.485 -295.113)"/>
        <path id="Path_20718" data-name="Path 20718" class="cls-18" d="M-161.654,314.059l.214.159a1.159,1.159,0,0,1-.282.171,1.968,1.968,0,0,1-.525.061c-.068,0-.136-.093-.2-.144.064-.055.121-.14.189-.159C-162.088,314.1-161.9,314.094-161.654,314.059Z" transform="translate(199.612 -296.211)"/>
        <path id="Path_20719" data-name="Path 20719" class="cls-18" d="M-171.609,315.074V314.9c.3-.025.6-.053.9-.068a.216.216,0,0,1,.131.1c-.03.068-.085.189-.133.189C-171.007,315.118-171.308,315.091-171.609,315.074Z" transform="translate(201.017 -296.33)"/>
        <path id="Path_20720" data-name="Path 20720" class="cls-16" d="M-152.711,305.763l-.189-.134c.047-.063.083-.161.144-.189a4.051,4.051,0,0,1,.638-.148c.061,0,.133.063.2.1-.047.07-.083.178-.148.2a6.507,6.507,0,0,1-.644.174Z" transform="translate(198.147 -294.866)"/>
        <path id="Path_20721" data-name="Path 20721" class="cls-16" d="M-150.545,305.179l-.2-.127c.049-.068.083-.174.15-.2a3.144,3.144,0,0,1,.6-.178c.064-.013.146.07.222.108-.034.059-.055.146-.1.167C-150.086,305.033-150.308,305.1-150.545,305.179Z" transform="translate(197.816 -294.771)"/>
        <path id="Path_20722" data-name="Path 20722" class="cls-16" d="M-148.05,310.932c-.032.085-.036.148-.063.159-.26.108-.523.21-.79.3a.212.212,0,0,1-.116-.117c-.009-.047.021-.144.059-.159a7.218,7.218,0,0,1,.709-.263C-148.2,310.843-148.122,310.9-148.05,310.932Z" transform="translate(197.551 -295.719)"/>
        <path id="Path_20723" data-name="Path 20723" class="cls-18" d="M-157.066,306.668l-.189-.125c.066-.066.121-.171.2-.189a2.5,2.5,0,0,1,.555-.1.684.684,0,0,1,.227.1c-.053.076-.095.189-.163.218A5.3,5.3,0,0,1-157.066,306.668Z" transform="translate(198.815 -295.013)"/>
        <path id="Path_20724" data-name="Path 20724" class="cls-16" d="M-144.51,302.712c-.019-.189-.068-.326-.032-.354a3.638,3.638,0,0,1,.654-.424.124.124,0,0,1,.174.015.124.124,0,0,1-.015.174,7.171,7.171,0,0,1-.781.589Z" transform="translate(196.866 -294.346)"/>
        <path id="Path_20725" data-name="Path 20725" class="cls-18" d="M-154.839,312.84l.189.144c-.059.064-.106.165-.178.189a3.426,3.426,0,0,1-.616.133c-.061,0-.131-.062-.189-.1.038-.066.064-.172.119-.189C-155.306,312.944-155.088,312.9-154.839,312.84Z" transform="translate(198.566 -296.024)"/>
        <path id="Path_20726" data-name="Path 20726" class="cls-16" d="M-170.084,308c-.153-.07-.443-.153-.438-.208.03-.284.286-.138.451-.169a1,1,0,0,1,.345,0c.066.011.121.076.189.117-.055.064-.1.161-.169.189a1.29,1.29,0,0,1-.343,0Z" transform="translate(200.85 -295.221)"/>
        <path id="Path_20727" data-name="Path 20727" class="cls-18" d="M-154.261,305.793c.051.036.155.076.159.125a.225.225,0,0,1-.119.189,3.551,3.551,0,0,1-.644.142c-.064,0-.14-.095-.21-.148.044-.051.081-.129.135-.146C-154.729,305.9-154.515,305.85-154.261,305.793Z" transform="translate(198.48 -294.943)"/>
        <path id="Path_20728" data-name="Path 20728" class="cls-18" d="M-146.365,303.654c-.074-.045-.155-.068-.165-.108s0-.171.045-.189a7.135,7.135,0,0,1,.688-.3.176.176,0,0,1,.153.072.167.167,0,0,1-.034.159C-145.9,303.416-146.134,303.531-146.365,303.654Z" transform="translate(197.17 -294.523)"/>
        <path id="Path_20729" data-name="Path 20729" class="cls-15" d="M-143.325,300.09l.117-.189Z" transform="translate(196.678 -294.039)"/>
        <path id="Path_20730" data-name="Path 20730" class="cls-15" d="M-199.338,302.953c.972.231,1.94.489,2.92.684a75.36,75.36,0,0,0,9.984,1.29c1.612.1,3.221.159,4.841.237a1.65,1.65,0,0,1,.189.021l-.26.555a.266.266,0,0,0-.055.017c-.792-.027-1.584-.03-2.374-.081q-1.968-.129-3.935-.305c-.976-.087-1.949-.189-2.918-.326-1.427-.2-2.859-.392-4.267-.686-1.895-.4-3.789-.851-5.651-1.349a12.268,12.268,0,0,1-4.212-2.065,2.02,2.02,0,0,1-.961-1.427c.131.169.254.345.394.506a7.33,7.33,0,0,0,2.692,1.766c.614.271,1.258.474,1.895.7a3.092,3.092,0,0,0,.4.087l.326.063Z" transform="translate(206.298 -293.98)"/>
        <path id="Path_20731" data-name="Path 20731" class="cls-18" d="M-202.95,309.892c.314.167.568.288.792.424a.174.174,0,0,1,.032.163c-.021.045-.114.1-.144.089a8.1,8.1,0,0,1-.743-.379C-203.037,310.167-202.982,310.018-202.95,309.892Z" transform="translate(205.835 -295.572)"/>
        <path id="Path_20732" data-name="Path 20732" class="cls-17" d="M-187.24,314.145a3.6,3.6,0,0,1,.443.072c.074.021.131.106.189.161-.078.051-.157.144-.237.144a2.987,2.987,0,0,1-.621-.07c-.072-.017-.123-.119-.189-.189a2.13,2.13,0,0,1,.224-.121.619.619,0,0,1,.191,0Z" transform="translate(203.478 -296.223)"/>
        <path id="Path_20733" data-name="Path 20733" class="cls-16" d="M-198.655,311.723c.25.078.464.131.665.214.064.027.095.133.142.2-.078.034-.167.11-.233.095a3.868,3.868,0,0,1-.623-.2c-.061-.025-.093-.117-.138-.189Z" transform="translate(205.195 -295.853)"/>
        <path id="Path_20734" data-name="Path 20734" class="cls-16" d="M-204.9,308.666c.29.218.53.394.758.582a1.773,1.773,0,0,1-.119.189c-.248-.176-.5-.349-.741-.532A1.668,1.668,0,0,1-204.9,308.666Z" transform="translate(206.139 -295.384)"/>
        <path id="Path_20735" data-name="Path 20735" class="cls-16" d="M-193.589,313.425c-.254-.059-.472-.1-.682-.163-.059-.019-.095-.114-.142-.172.072-.045.15-.133.216-.127a3.222,3.222,0,0,1,.614.131c.07.021.116.119.172.189Z" transform="translate(204.515 -296.043)"/>
        <path id="Path_20736" data-name="Path 20736" class="cls-16" d="M-181.137,307.866a2.256,2.256,0,0,1-.379-.072.25.25,0,0,1-.135-.169.212.212,0,0,1,.144-.127,7.1,7.1,0,0,1,.748.068c.038,0,.093.093.091.14a.178.178,0,0,1-.1.133A1.906,1.906,0,0,1-181.137,307.866Z" transform="translate(202.557 -295.204)"/>
        <path id="Path_20737" data-name="Path 20737" class="cls-16" d="M-185.62,307.172a2.994,2.994,0,0,1,.407.074.2.2,0,0,1,.117.155.19.19,0,0,1-.138.136,6.662,6.662,0,0,1-.758-.076c-.044,0-.1-.116-.095-.169s.089-.1.148-.117a1.386,1.386,0,0,1,.318,0Z" transform="translate(203.238 -295.153)"/>
        <path id="Path_20738" data-name="Path 20738" class="cls-16" d="M-189.074,314.245c-.261-.049-.481-.078-.692-.14-.061-.017-.093-.133-.138-.2.07-.03.142-.095.208-.089a3.639,3.639,0,0,1,.621.106c.068.019.114.119.171.189Z" transform="translate(203.824 -296.173)"/>
        <path id="Path_20739" data-name="Path 20739" class="cls-16" d="M-196.235,305.756c-.258-.07-.483-.119-.7-.189a.216.216,0,0,1-.091-.189.216.216,0,0,1,.189-.106,3.854,3.854,0,0,1,.637.172c.064.025.1.135.146.2Z" transform="translate(204.916 -294.863)"/>
        <path id="Path_20740" data-name="Path 20740" class="cls-18" d="M-200.826,310.9c.258.1.494.189.722.3.047.021.1.148.08.172-.042.055-.142.117-.189.1a5.316,5.316,0,0,1-.673-.273.207.207,0,0,1-.091-.176C-200.964,310.976-200.881,310.942-200.826,310.9Z" transform="translate(205.522 -295.727)"/>
        <path id="Path_20741" data-name="Path 20741" class="cls-17" d="M-188.121,306.9c.263.04.462.057.656.1.057.013.095.108.142.165-.068.049-.138.142-.2.14a2.45,2.45,0,0,1-.589-.078c-.076-.019-.129-.129-.189-.189Z" transform="translate(203.578 -295.112)"/>
        <path id="Path_20742" data-name="Path 20742" class="cls-16" d="M-189.7,307.028c-.26-.047-.47-.072-.673-.127-.059-.015-.1-.114-.144-.176.072-.045.148-.133.216-.127a2.587,2.587,0,0,1,.589.11c.076.023.127.125.189.189Z" transform="translate(203.917 -295.066)"/>
        <path id="Path_20743" data-name="Path 20743" class="cls-16" d="M-184.769,314.754a3.006,3.006,0,0,1-.411-.066c-.063-.015-.108-.1-.161-.155.057-.049.116-.144.172-.142a5.443,5.443,0,0,1,.722.072.167.167,0,0,1,.1.131.235.235,0,0,1-.119.155A1.047,1.047,0,0,1-184.769,314.754Z" transform="translate(203.123 -296.262)"/>
        <path id="Path_20744" data-name="Path 20744" class="cls-18" d="M-180.246,315.055a1.375,1.375,0,0,1-.343,0c-.072-.019-.123-.112-.189-.171.074-.055.144-.152.222-.157a2.345,2.345,0,0,1,.568.034c.081.015.152.1.225.157a1.06,1.06,0,0,1-.233.15.84.84,0,0,1-.25,0Z" transform="translate(202.423 -296.313)"/>
        <path id="Path_20745" data-name="Path 20745" class="cls-16" d="M-202.319,303.49c-.135.044-.235.112-.3.089a4.506,4.506,0,0,1-.623-.3c-.042-.023-.08-.146-.055-.176s.14-.106.189-.087a5.044,5.044,0,0,1,.6.271C-202.446,303.312-202.412,303.388-202.319,303.49Z" transform="translate(205.879 -294.516)"/>
        <path id="Path_20746" data-name="Path 20746" class="cls-16" d="M-200.245,304.331c-.119.042-.22.116-.3.1a2.984,2.984,0,0,1-.584-.222.244.244,0,0,1-.1-.189c0-.044.11-.133.144-.121.246.082.487.189.728.28C-200.334,304.187-200.319,304.238-200.245,304.331Z" transform="translate(205.561 -294.651)"/>
        <path id="Path_20747" data-name="Path 20747" class="cls-18" d="M-191.351,313.874c-.254-.057-.462-.089-.659-.152-.063-.021-.1-.127-.15-.189.078-.036.157-.11.231-.1a3.068,3.068,0,0,1,.582.116c.072.021.125.108.189.165Z" transform="translate(204.17 -296.114)"/>
        <path id="Path_20748" data-name="Path 20748" class="cls-18" d="M-194.07,306.248a4.829,4.829,0,0,1-.623-.135c-.074-.025-.117-.138-.174-.212.074-.032.153-.1.222-.091a3.251,3.251,0,0,1,.584.131c.07.021.116.114.172.172Z" transform="translate(204.585 -294.945)"/>
        <path id="Path_20749" data-name="Path 20749" class="cls-18" d="M-195.834,312.894c-.25-.076-.474-.131-.688-.212-.053-.021-.076-.121-.114-.189.068-.036.144-.114.2-.1a3.829,3.829,0,0,1,.635.171.288.288,0,0,1,.131.206C-195.662,312.8-195.779,312.856-195.834,312.894Z" transform="translate(204.856 -295.955)"/>
        <path id="Path_20750" data-name="Path 20750" class="cls-16" d="M-191.927,306.666a5.663,5.663,0,0,1-.629-.117c-.063-.019-.1-.131-.146-.2.074-.04.15-.116.22-.112a2.207,2.207,0,0,1,.521.1.962.962,0,0,1,.246.189Z" transform="translate(204.253 -295.011)"/>
        <path id="Path_20751" data-name="Path 20751" class="cls-16" d="M-183.409,307.712a1.848,1.848,0,0,1-.33-.053c-.061-.019-.1-.112-.146-.171.063-.049.125-.14.189-.14a4.024,4.024,0,0,1,.657.061c.055.011.093.116.14.176a.745.745,0,0,1-.189.121A1.54,1.54,0,0,1-183.409,307.712Z" transform="translate(202.9 -295.181)"/>
        <path id="Path_20752" data-name="Path 20752" class="cls-16" d="M-182.539,314.6a1.517,1.517,0,0,1,.347.03c.063.019.1.11.155.169-.063.044-.123.117-.189.121a2.714,2.714,0,0,1-.595-.011c-.089-.015-.165-.119-.248-.189a1.335,1.335,0,0,1,.252-.121A1.192,1.192,0,0,1-182.539,314.6Z" transform="translate(202.775 -296.292)"/>
        <path id="Path_20753" data-name="Path 20753" class="cls-16" d="M-178.917,307.621a.091.091,0,0,1,.032,0c.161.042.462-.11.449.169s-.3.117-.472.144a.758.758,0,0,1-.341-.011c-.068-.021-.112-.119-.167-.189a.577.577,0,0,1,.189-.117,1.555,1.555,0,0,1,.313,0Z" transform="translate(202.214 -295.221)"/>
        <path id="Path_20754" data-name="Path 20754" class="cls-18" d="M-205.146,301.742l.8.584a1.894,1.894,0,0,1-.189.189,4.526,4.526,0,0,1-.629-.417C-205.209,302.057-205.161,301.922-205.146,301.742Z" transform="translate(206.167 -294.321)"/>
        <path id="Path_20755" data-name="Path 20755" class="cls-18" d="M-198.411,305.154c-.239-.08-.443-.133-.633-.218-.059-.026-.078-.142-.114-.218.07-.027.146-.085.207-.072a3.332,3.332,0,0,1,.568.176c.068.028.108.125.161.189Z" transform="translate(205.243 -294.767)"/>
        <path id="Path_20756" data-name="Path 20756" class="cls-18" d="M-177.512,314.846v.286c-.25,0-.5.019-.758,0-.083,0-.157-.1-.237-.161.078-.049.153-.136.233-.14C-178,314.82-177.76,314.838-177.512,314.846Z" transform="translate(202.075 -296.329)"/>
        <path id="Path_20757" data-name="Path 20757" class="cls-19" d="M-167.832,327.2a5.741,5.741,0,0,1,.394,1.895,9.283,9.283,0,0,1-.2,2.359,3.644,3.644,0,0,1-.127.379l-.347.693a9.185,9.185,0,0,1-3.4,3.821,8.136,8.136,0,0,1-6.441,1.093,8.705,8.705,0,0,1-5.161-3.681c-.438-.629-.779-1.326-1.165-1.987h0l-.064-.131c-.083-.472-.189-.947-.25-1.413a7.045,7.045,0,0,1,.129-2.366,4.433,4.433,0,0,1,.248-.667c.167-.33.324-.665.5-.991a9.769,9.769,0,0,1,2.421-2.948,8.1,8.1,0,0,1,4.234-1.836,8.289,8.289,0,0,1,3.221.22,8.868,8.868,0,0,1,3.323,1.764A8.975,8.975,0,0,1-167.832,327.2Zm-8.188-.568a2.444,2.444,0,0,1,.176.333,1.067,1.067,0,0,0,1.091.813h.7a1.646,1.646,0,0,0,1.292-.692,2.972,2.972,0,0,0,.678-2.876,1.044,1.044,0,0,0-1.082-.877h-.818a3.481,3.481,0,0,0-.758.28,3.142,3.142,0,0,0-1.235,2.141,1.555,1.555,0,0,1-.125-.189,6.454,6.454,0,0,0-.512-1.076,1.662,1.662,0,0,0-1.326-.9l-.758-.063a1.042,1.042,0,0,0-1.04.584,2.734,2.734,0,0,0-.282,1.05,3.126,3.126,0,0,0,1.167,2.548.9.9,0,0,0,.911.267l.64.061a1.662,1.662,0,0,0,.339-.044,1.463,1.463,0,0,0,.945-1.362Zm-3.492,4.316a2.4,2.4,0,0,1-.106.26c-.265.477-.568.947-.79,1.434a2.125,2.125,0,0,0,.2,2.45.866.866,0,0,0,.82.307,3.031,3.031,0,0,0,1.739-.273,4.1,4.1,0,0,1,3.333,0,2.841,2.841,0,0,0,1.41.273.8.8,0,0,0,.809-.618,2.652,2.652,0,0,0,0-1.643,6.854,6.854,0,0,0-1.993-3.062,2.6,2.6,0,0,0-1.62-.775h-1.267a6.305,6.305,0,0,0-.964.314,8.44,8.44,0,0,0-.947.638,2.724,2.724,0,0,0-.449-2.287,1.724,1.724,0,0,0-1.453-.824l-.568.061a1.11,1.11,0,0,0-.379-.017,1.137,1.137,0,0,0-.739.758,2.519,2.519,0,0,0,1.326,2.935,2.063,2.063,0,0,0,.568.068h1.07Zm8.137-3.365a3.248,3.248,0,0,0-.546.117,2.4,2.4,0,0,0-1.326,1.4,1.65,1.65,0,0,0,.267,1.927.7.7,0,0,0,.71.174h.828a2.684,2.684,0,0,0,.714-.218,2.561,2.561,0,0,0,1.256-2.3,1.049,1.049,0,0,0-1.082-1.108Z" transform="translate(203.016 -297.329)"/>
        <path id="Path_20758" data-name="Path 20758" class="cls-20" d="M-167.757,327.106a8.975,8.975,0,0,0-2.683-3.806,8.869,8.869,0,0,0-3.323-1.764,8.289,8.289,0,0,0-3.221-.22,8.1,8.1,0,0,0-4.234,1.836,9.768,9.768,0,0,0-2.427,2.963c-.176.326-.333.661-.5.991a1.532,1.532,0,0,1,.027-.409,8.732,8.732,0,0,1,2.516-3.8,8.51,8.51,0,0,1,4.227-2.008,8.409,8.409,0,0,1,6.737,1.732,8.266,8.266,0,0,1,2.885,4.168,1.056,1.056,0,0,1,0,.322Z" transform="translate(202.94 -297.239)"/>
        <path id="Path_20759" data-name="Path 20759" class="cls-21" d="M-184.222,333.668c.379.665.728,1.358,1.165,1.987a8.705,8.705,0,0,0,5.161,3.681,8.126,8.126,0,0,0,6.441-1.093,9.185,9.185,0,0,0,3.4-3.818l.347-.693a7.432,7.432,0,0,1-1.349,2.842,8.349,8.349,0,0,1-4.824,3.221,8.454,8.454,0,0,1-5.507-.458,8.4,8.4,0,0,1-2.787-1.94,8.694,8.694,0,0,1-2.014-3.486A1.516,1.516,0,0,1-184.222,333.668Z" transform="translate(202.952 -299.219)"/>
        <path id="Path_20760" data-name="Path 20760" class="cls-21" d="M-184.3,333.509l.064.131C-184.254,333.6-184.275,333.552-184.3,333.509Z" transform="translate(202.963 -299.195)"/>
        <path id="Path_20761" data-name="Path 20761" class="cls-22" d="M-176.494,310.235v-2.92a5.384,5.384,0,0,1,.072-.818.853.853,0,0,1,.538-.7,2.667,2.667,0,0,1,2.378.117.837.837,0,0,1,.368.733c.044.557.064,1.118.066,1.677q.014,2.33,0,4.664a3.979,3.979,0,0,1-.14,1.091.961.961,0,0,1-.451.529,2.309,2.309,0,0,1-2.463-.146.947.947,0,0,1-.3-.623c-.059-.568-.064-1.137-.074-1.705-.011-.635,0-1.269,0-1.895Zm2.084,4.25c.544-.019.832-.322.834-.964q.017-3.325,0-6.648a.788.788,0,0,0-.835-.89l-.69-.061c-.53.064-.824.282-.877.671a5.3,5.3,0,0,0-.064.758q.017,3.124.053,6.252c0,.595.235.828.828.913Z" transform="translate(201.768 -294.91)"/>
        <path id="Path_20762" data-name="Path 20762" class="cls-23" d="M-173.17,318.053l-.318-.045c0-.294-.017-.589,0-.881,0-.106.116-.2.178-.3l.133.047Z" transform="translate(201.306 -296.635)"/>
        <path id="Path_20763" data-name="Path 20763" class="cls-23" d="M-175.565,318l-.263.045c0-.273,0-.549.015-.822a1.417,1.417,0,0,1,.129-.36,1.442,1.442,0,0,1,.114.345C-175.553,317.472-175.565,317.737-175.565,318Z" transform="translate(201.664 -296.641)"/>
        <path id="Path_20764" data-name="Path 20764" class="cls-12" d="M-175.047,317v1.006h-.244v-.773C-175.306,317.047-175.223,316.981-175.047,317Z" transform="translate(201.582 -296.662)"/>
        <path id="Path_20765" data-name="Path 20765" class="cls-24" d="M-173.859,318.016V317c.063.07.174.136.18.212.021.269,0,.542,0,.813Z" transform="translate(201.362 -296.663)"/>
        <path id="Path_20766" data-name="Path 20766" class="cls-25" d="M-177.24,306.766l.26-.555h.116c-.038.189-.076.379-.112.568Z" transform="translate(201.881 -295.007)"/>
        <path id="Path_20767" data-name="Path 20767" class="cls-26" d="M-174.889,294.227h.758l.042.059c-.064.055-.133.159-.189.155-.216-.015-.477.116-.64-.114Z" transform="translate(201.525 -293.169)"/>
        <path id="Path_20768" data-name="Path 20768" class="cls-27" d="M-173.725,300.524a.343.343,0,0,1-.125,0,2.643,2.643,0,0,1-.237-.131,1.049,1.049,0,0,1,.248-.116,1.016,1.016,0,0,1,.347,0,.711.711,0,0,1,.189.112.98.98,0,0,1-.21.133.709.709,0,0,1-.212,0Z" transform="translate(201.397 -294.094)"/>
        <path id="Path_20769" data-name="Path 20769" class="cls-27" d="M-205.06,299.065c-.053-.042-.112-.064-.125-.1a.144.144,0,0,1,.038-.135,5.826,5.826,0,0,1,.508-.316.137.137,0,0,1,.134.036.114.114,0,0,1,0,.11C-204.679,298.794-204.867,298.926-205.06,299.065Z" transform="translate(206.168 -293.824)"/>
        <path id="Path_20770" data-name="Path 20770" class="cls-27" d="M-172.705,294.507l-.379-.176a1.1,1.1,0,0,1,.369-.123,1.537,1.537,0,0,1,.422.125Z" transform="translate(201.243 -293.165)"/>
        <path id="Path_20771" data-name="Path 20771" class="cls-27" d="M-151.228,296.221a4.171,4.171,0,0,1,.479.131c.059.023.093.1.138.159a.544.544,0,0,1-.208.066,1.586,1.586,0,0,1-.4-.1c-.07-.028-.119-.106-.178-.161Z" transform="translate(197.915 -293.474)"/>
        <path id="Path_20772" data-name="Path 20772" class="cls-27" d="M-183.383,300.676c.284-.3.578-.133.849-.189C-182.58,300.769-182.841,300.826-183.383,300.676Z" transform="translate(202.823 -294.129)"/>
        <path id="Path_20773" data-name="Path 20773" class="cls-27" d="M-149.552,303.138l-.189.063a3.32,3.32,0,0,1-.4-.148,1,1,0,0,1-.207-.189c.091-.017.2-.076.265-.042C-149.9,302.916-149.59,302.8-149.552,303.138Z" transform="translate(197.756 -294.485)"/>
        <path id="Path_20774" data-name="Path 20774" class="cls-26" d="M-188.705,301.188l-.138-.112c.059-.045.112-.117.178-.133a2.025,2.025,0,0,1,.464-.061c.064,0,.131.07.189.108-.059.045-.112.117-.178.131q-.256.046-.515.066Z" transform="translate(203.661 -294.19)"/>
        <path id="Path_20775" data-name="Path 20775" class="cls-26" d="M-153.29,302.275a5.294,5.294,0,0,1-.519-.11c-.057-.017-.1-.087-.144-.133.066-.036.136-.108.2-.1a2.1,2.1,0,0,1,.453.106c.055.017.093.085.138.131Z" transform="translate(198.308 -294.35)"/>
        <path id="Path_20776" data-name="Path 20776" class="cls-27" d="M-184.519,300.565l.189.117a.931.931,0,0,1-.235.138,1.843,1.843,0,0,1-.432.049c-.057,0-.116-.061-.172-.093.047-.047.087-.121.14-.134C-184.875,300.607-184.708,300.6-184.519,300.565Z" transform="translate(203.097 -294.141)"/>
        <path id="Path_20777" data-name="Path 20777" class="cls-26" d="M-147.723,297.123c.2.066.379.121.555.189.042.017.064.087.095.133-.057.028-.121.093-.169.081a3.746,3.746,0,0,1-.534-.174.157.157,0,0,1-.072-.14C-147.842,297.18-147.768,297.148-147.723,297.123Z" transform="translate(197.372 -293.613)"/>
        <path id="Path_20778" data-name="Path 20778" class="cls-27" d="M-166.709,300.5h.616c.055,0,.1.074.157.116-.049.042-.1.123-.15.119-.22-.017-.485.106-.65-.116Z" transform="translate(200.269 -294.131)"/>
        <path id="Path_20779" data-name="Path 20779" class="cls-27" d="M-201.944,297.342c.225-.072.451-.148.68-.21a.173.173,0,0,1,.119.076.128.128,0,0,1-.036.127c-.235.07-.474.127-.712.189Z" transform="translate(205.671 -293.614)"/>
        <path id="Path_20780" data-name="Path 20780" class="cls-27" d="M-151.353,302.7c-.254-.059-.483-.1-.7-.171a.216.216,0,0,1-.032-.189C-151.954,302.215-151.418,302.438-151.353,302.7Z" transform="translate(198.024 -294.408)"/>
        <path id="Path_20781" data-name="Path 20781" class="cls-27" d="M-197.091,302.246c-.106.271-.637.491-.758.388-.03-.025-.011-.178.011-.189C-197.618,302.376-197.389,302.323-197.091,302.246Z" transform="translate(205.045 -294.399)"/>
        <path id="Path_20782" data-name="Path 20782" class="cls-26" d="M-168.638,300.528a1.191,1.191,0,0,1,.771-.081c.023,0,.059.08.063.123a.1.1,0,0,1-.063.091C-168.113,300.66-168.378,300.755-168.638,300.528Z" transform="translate(200.561 -294.119)"/>
        <path id="Path_20783" data-name="Path 20783" class="cls-27" d="M-179.553,294.353c-.053.055-.1.148-.165.157a2.194,2.194,0,0,1-.5,0c-.051,0-.1-.08-.148-.123.055-.04.106-.11.161-.114.2-.013.409,0,.614,0Z" transform="translate(202.36 -293.175)"/>
        <path id="Path_20784" data-name="Path 20784" class="cls-27" d="M-192.356,301.636a.362.362,0,0,1-.1-.1c-.013-.027.028-.119.057-.123a4.417,4.417,0,0,1,.587-.076c.045,0,.095.081.142.125-.044.038-.083.1-.135.108C-191.969,301.6-192.134,301.615-192.356,301.636Z" transform="translate(204.216 -294.259)"/>
        <path id="Path_20785" data-name="Path 20785" class="cls-27" d="M-170.382,300.352c.207,0,.413-.011.616,0,.049,0,.087.116.131.176a4.816,4.816,0,0,1-.544.059c-.083,0-.165-.078-.248-.119Z" transform="translate(200.836 -294.107)"/>
        <path id="Path_20786" data-name="Path 20786" class="cls-28" d="M-178.787,300.354c-.125.233-.676.333-.779.189-.021-.027.049-.189.087-.189C-179.266,300.344-179.051,300.354-178.787,300.354Z" transform="translate(202.238 -294.108)"/>
        <path id="Path_20787" data-name="Path 20787" class="cls-26" d="M-152.512,296.233c-.2-.049-.358-.074-.506-.125-.049-.017-.078-.095-.116-.144.059-.027.121-.081.176-.076a2.358,2.358,0,0,1,.457.095c.061.021.1.1.15.153Z" transform="translate(198.182 -293.423)"/>
        <path id="Path_20788" data-name="Path 20788" class="cls-27" d="M-181.338,294.352c-.125.233-.674.333-.779.189-.021-.027.051-.18.087-.189C-181.816,294.342-181.6,294.352-181.338,294.352Z" transform="translate(202.629 -293.187)"/>
        <path id="Path_20789" data-name="Path 20789" class="cls-28" d="M-169.412,294.281h.614c.055,0,.106.074.159.114-.049.044-.1.127-.148.121-.218-.025-.489.125-.648-.123Z" transform="translate(200.683 -293.177)"/>
        <path id="Path_20790" data-name="Path 20790" class="cls-27" d="M-149.588,296.635c.231.059.462.116.69.189a.14.14,0,0,1,.064.123c-.009.038-.08.095-.11.087-.237-.061-.47-.134-.7-.2Z" transform="translate(197.648 -293.538)"/>
        <path id="Path_20791" data-name="Path 20791" class="cls-27" d="M-143.76,298.959c-.057.021-.133.076-.167.057a4.578,4.578,0,0,1-.525-.337c-.023-.017.015-.114.025-.172l.69.343Z" transform="translate(196.852 -293.825)"/>
        <path id="Path_20792" data-name="Path 20792" class="cls-28" d="M-199.362,303.135l-.326-.062c.224-.106.445-.216.674-.313.027-.009.089.066.135.1-.036.044-.064.106-.112.129C-199.108,303.048-199.237,303.088-199.362,303.135Z" transform="translate(205.324 -294.477)"/>
        <path id="Path_20793" data-name="Path 20793" class="cls-28" d="M-175.524,300.587l-.409-.189a1.478,1.478,0,0,1,.405-.119,1.252,1.252,0,0,1,.379.117Z" transform="translate(201.68 -294.097)"/>
        <path id="Path_20794" data-name="Path 20794" class="cls-26" d="M-178.511,294.319c.2-.2.47-.119.716-.1.028,0,.078.081.07.117a.142.142,0,0,1-.1.1h-.669Z" transform="translate(202.076 -293.162)"/>
        <path id="Path_20795" data-name="Path 20795" class="cls-27" d="M-145.4,298.22c-.275-.116-.494-.2-.707-.307,0,0,.023-.161.063-.176C-145.881,297.676-145.475,297.936-145.4,298.22Z" transform="translate(197.104 -293.706)"/>
        <path id="Path_20796" data-name="Path 20796" class="cls-26" d="M-180.636,300.428a.784.784,0,0,1-.79.216c-.03-.023-.066-.083-.055-.1.03-.047.081-.11.127-.112C-181.14,300.421-180.922,300.428-180.636,300.428Z" transform="translate(202.532 -294.119)"/>
        <path id="Path_20797" data-name="Path 20797" class="cls-28" d="M-186.926,301.119a.784.784,0,0,1-.049-.212.172.172,0,0,1,.108-.116,2.575,2.575,0,0,1,.494-.059c.061,0,.121.08.189.123-.064.04-.125.108-.189.116a3.349,3.349,0,0,1-.436,0Z" transform="translate(203.374 -294.167)"/>
        <path id="Path_20798" data-name="Path 20798" class="cls-27" d="M-162.912,300.715c.207.03.362.042.513.08.055.013.095.085.142.131-.057.036-.116.1-.171.1a2.1,2.1,0,0,1-.462-.059c-.063-.013-.11-.089-.163-.136Z" transform="translate(199.704 -294.164)"/>
        <path id="Path_20799" data-name="Path 20799" class="cls-27" d="M-190.643,301.173l.758-.091.055.11c-.072.051-.157.159-.214.146-.189-.047-.449.169-.616-.053Z" transform="translate(203.94 -294.22)"/>
        <path id="Path_20800" data-name="Path 20800" class="cls-26" d="M-159.382,301.091c.258.032.489.055.716.1.028,0,.036.11.055.169a.913.913,0,0,1-.269.042C-159.3,301.337-159.3,301.332-159.382,301.091Z" transform="translate(199.141 -294.221)"/>
        <path id="Path_20801" data-name="Path 20801" class="cls-27" d="M-156.723,301.659c-.286-.038-.51-.059-.729-.1-.03,0-.076-.15-.053-.189C-157.4,301.25-156.848,301.406-156.723,301.659Z" transform="translate(198.854 -294.258)"/>
        <path id="Path_20802" data-name="Path 20802" class="cls-28" d="M-176.315,294.5l-.379-.189.411-.119a.1.1,0,0,1,.063,0l.307.131c-.106.042-.212.083-.318.121a.171.171,0,0,1-.063,0Z" transform="translate(201.797 -293.162)"/>
        <path id="Path_20803" data-name="Path 20803" class="cls-28" d="M-167.238,294.66l-.379-.2a1.308,1.308,0,0,1,.388-.1,1.433,1.433,0,0,1,.392.133Z" transform="translate(200.404 -293.188)"/>
        <path id="Path_20804" data-name="Path 20804" class="cls-27" d="M-190.472,295.262c-.189.027-.39.064-.585.072-.061,0-.123-.078-.189-.119a.712.712,0,0,1,.189-.121,1.448,1.448,0,0,1,.4-.047c.076,0,.148.074.222.112Z" transform="translate(204.029 -293.294)"/>
        <path id="Path_20805" data-name="Path 20805" class="cls-26" d="M-160.349,294.847c.246.032.46.055.673.093.045,0,.087.076.114.125,0,.015-.047.091-.064.089-.237-.04-.474-.087-.709-.138A.7.7,0,0,1-160.349,294.847Z" transform="translate(199.289 -293.264)"/>
        <path id="Path_20806" data-name="Path 20806" class="cls-26" d="M-177.759,300.505c.2-.29.462-.239.712-.207.03,0,.068.074.074.117a.088.088,0,0,1-.072.085C-177.284,300.505-177.52,300.505-177.759,300.505Z" transform="translate(201.96 -294.096)"/>
        <path id="Path_20807" data-name="Path 20807" class="cls-27" d="M-171.468,300.518h-.743c-.021,0-.066-.08-.057-.091.04-.053.095-.134.142-.133.218,0,.436.038.656.059Z" transform="translate(201.118 -294.099)"/>
        <path id="Path_20808" data-name="Path 20808" class="cls-26" d="M-164.1,300.775a.87.87,0,0,1-.26.1,1.176,1.176,0,0,1-.369-.051.674.674,0,0,1-.189-.125c.074-.04.148-.081.224-.119h.063l.489.083Z" transform="translate(199.99 -294.143)"/>
        <path id="Path_20809" data-name="Path 20809" class="cls-27" d="M-160.444,301.212c-.241-.034-.472-.061-.7-.106-.019,0-.017-.125-.025-.189.244.047.489.093.733.144C-160.433,301.058-160.44,301.115-160.444,301.212Z" transform="translate(199.415 -294.195)"/>
        <path id="Path_20810" data-name="Path 20810" class="cls-28" d="M-154.968,301.957l-.849-.146A.512.512,0,0,1-154.968,301.957Z" transform="translate(198.594 -294.307)"/>
        <path id="Path_20811" data-name="Path 20811" class="cls-27" d="M-156.73,295.3c.235.036.472.066.7.11.028,0,.059.08.061.123s-.057.081-.081.08c-.241-.036-.479-.08-.72-.121Z" transform="translate(198.74 -293.333)"/>
        <path id="Path_20812" data-name="Path 20812" class="cls-28" d="M-183.989,294.5c.233-.017.466-.04.7-.047.03,0,.078.063.091.106a.086.086,0,0,1-.055.095h-.731Z" transform="translate(202.916 -293.202)"/>
        <path id="Path_20813" data-name="Path 20813" class="cls-28" d="M-203.584,298.2c.078-.269.476-.519.644-.468.036.011.087.047.089.076s-.017.116-.047.127C-203.1,298.031-203.313,298.1-203.584,298.2Z" transform="translate(205.922 -293.706)"/>
        <path id="Path_20814" data-name="Path 20814" class="cls-27" d="M-200.08,297a.67.67,0,0,1,.627-.379c.032.015.078.059.078.087s-.028.116-.061.123C-199.648,296.9-199.864,296.948-200.08,297Z" transform="translate(205.385 -293.535)"/>
        <path id="Path_20815" data-name="Path 20815" class="cls-27" d="M-195.259,301.981c-.244.29-.517.241-.786.26C-196,301.981-195.738,301.9-195.259,301.981Z" transform="translate(204.766 -294.353)"/>
        <path id="Path_20816" data-name="Path 20816" class="cls-27" d="M-154.973,295.794c.15-.292.557-.258.8.083Z" transform="translate(198.465 -293.379)"/>
        <path id="Path_20817" data-name="Path 20817" class="cls-26" d="M-193.519,301.787c-.227.047-.455.1-.684.136a.163.163,0,0,1-.11-.091.146.146,0,0,1,.068-.121c.233-.04.47-.066.7-.1Z" transform="translate(204.5 -294.301)"/>
        <path id="Path_20818" data-name="Path 20818" class="cls-27" d="M-185.773,294.732c.212-.269.5-.125.8-.165C-185.144,294.824-185.354,294.872-185.773,294.732Z" transform="translate(203.19 -293.22)"/>
        <path id="Path_20819" data-name="Path 20819" class="cls-28" d="M-187.61,294.873c.066-.053.127-.135.2-.152a2.228,2.228,0,0,1,.464-.04c.049,0,.1.051.146.082-.025.04-.045.112-.08.117-.227.042-.458.068-.688.1Z" transform="translate(203.472 -293.238)"/>
        <path id="Path_20820" data-name="Path 20820" class="cls-27" d="M-163.949,294.609c.5-.1.638-.066.731.15C-163.584,294.892-163.845,294.848-163.949,294.609Z" transform="translate(199.842 -293.219)"/>
        <path id="Path_20821" data-name="Path 20821" class="cls-28" d="M-194.776,295.8c.085-.222.39-.307.722-.2A.575.575,0,0,1-194.776,295.8Z" transform="translate(204.571 -293.372)"/>
        <path id="Path_20822" data-name="Path 20822" class="cls-28" d="M-165.016,294.651h-.726c-.023,0-.07-.076-.061-.091.028-.049.08-.119.117-.117.227.013.453.045.678.07Z" transform="translate(200.126 -293.201)"/>
        <path id="Path_20823" data-name="Path 20823" class="cls-28" d="M-158.554,295.282a.472.472,0,0,1,.414-.169.472.472,0,0,1,.369.252Z" transform="translate(199.014 -293.304)"/>
        <path id="Path_20824" data-name="Path 20824" class="cls-28" d="M-196.649,296.188a.943.943,0,0,1,.724-.324.152.152,0,0,1,.068.119.146.146,0,0,1-.085.1C-196.151,296.125-196.363,296.15-196.649,296.188Z" transform="translate(204.858 -293.418)"/>
        <path id="Path_20825" data-name="Path 20825" class="cls-26" d="M-171.2,294.4c.08-.275.474-.3.773,0Z" transform="translate(200.954 -293.162)"/>
        <path id="Path_20826" data-name="Path 20826" class="cls-28" d="M-192.261,295.5l-.758.083c.138-.379.421-.222.606-.3.045-.019.129.061.189.095Z" transform="translate(204.301 -293.331)"/>
        <path id="Path_20827" data-name="Path 20827" class="cls-28" d="M-161.382,295l-.862-.114A.536.536,0,0,1-161.382,295Z" transform="translate(199.58 -293.245)"/>
        <path id="Path_20828" data-name="Path 20828" class="cls-28" d="M-197.621,296.183a.477.477,0,0,1-.784.189Z" transform="translate(205.128 -293.469)"/>
        <path id="Path_20829" data-name="Path 20829" class="cls-28" d="M-188.611,294.963c-.246.243-.51.15-.79.14C-189.249,294.838-188.957,294.793-188.611,294.963Z" transform="translate(203.746 -293.266)"/>
        <path id="Path_20830" data-name="Path 20830" class="cls-4" d="M-176.012,330.732h1.082a5.428,5.428,0,0,1,1.788,1.3,6.5,6.5,0,0,1,1.489,2.681,1.936,1.936,0,0,1-.483,2.12,2.842,2.842,0,0,1-1.41-.273,4.1,4.1,0,0,0-3.333,0,3.031,3.031,0,0,1-1.739.273,1.6,1.6,0,0,1-.934-1.464,3.627,3.627,0,0,1,.568-1.946,5.469,5.469,0,0,1,1.482-1.864c.407-.309.864-.553,1.3-.826h.189Zm-.165,1.137v-.062a.989.989,0,0,0-.292.123,10.929,10.929,0,0,0-1.2,1.1,3.542,3.542,0,0,0-.934,2.58,2.425,2.425,0,0,0,.066.326c.332-.746.506-1.531.887-2.2a15.119,15.119,0,0,1,1.476-1.876Z" transform="translate(202.236 -298.769)"/>
        <path id="Path_20831" data-name="Path 20831" class="cls-4" d="M-177.789,323.906l.758.062a3.261,3.261,0,0,1,1.366,1.637,2.217,2.217,0,0,1-.726,2.81l-.638-.061a.833.833,0,0,1-.123-.032,2.7,2.7,0,0,1-1.516-2.054A1.893,1.893,0,0,1-177.789,323.906Zm1.629,2.713a2.673,2.673,0,0,0-.936-1.985c-.455-.39-.932-.273-1.08.307a2.442,2.442,0,0,0-.051.923,2.3,2.3,0,0,0,1.065,1.743.515.515,0,0,0,.822-.263,5.457,5.457,0,0,0,.18-.724Z" transform="translate(202.114 -297.722)"/>
        <path id="Path_20832" data-name="Path 20832" class="cls-4" d="M-172.349,323.682h.818a1.516,1.516,0,0,1,.818,1.207,3.1,3.1,0,0,1-1.705,3.238h-.7a1.453,1.453,0,0,1-.813-1.1,3.164,3.164,0,0,1,.887-2.812A7.123,7.123,0,0,1-172.349,323.682Zm-.959,2.666a2.929,2.929,0,0,0,0,.316c.08.7.582.985,1.082.589a2.6,2.6,0,0,0,1-2.273c-.017-.328-.106-.7-.5-.809s-.652.135-.881.379A2.59,2.59,0,0,0-173.308,326.348Z" transform="translate(201.378 -297.687)"/>
        <path id="Path_20833" data-name="Path 20833" class="cls-4" d="M-169.354,332.34h-.828a1.033,1.033,0,0,1-.748-.858,2.4,2.4,0,0,1,.369-1.72,3.1,3.1,0,0,1,1.275-1.044h.82a1.22,1.22,0,0,1,.686.858,2.408,2.408,0,0,1-.352,1.705,3.536,3.536,0,0,1-1.222,1.059Zm-.947-1.381c0,.555.322.8.841.616a2.04,2.04,0,0,0,1.307-1.779.507.507,0,0,0-.568-.568,1.893,1.893,0,0,0-1.586,1.728Z" transform="translate(200.918 -298.46)"/>
        <path id="Path_20834" data-name="Path 20834" class="cls-4" d="M-180.922,328.246l.568-.061a2.667,2.667,0,0,1,1.2.983,2.6,2.6,0,0,1,.379,1.788,1.178,1.178,0,0,1-.64.991s.011.034.015.053h-.758a4.129,4.129,0,0,1-.779-.449,2.592,2.592,0,0,1-.813-2.2A1.184,1.184,0,0,1-180.922,328.246Zm1.527,2.181a2.018,2.018,0,0,0-1.023-1.627.543.543,0,0,0-.887.379,2.023,2.023,0,0,0,.875,1.957c.618.333,1.031.089,1.034-.709Z" transform="translate(202.573 -298.378)"/>
        <path id="Path_20835" data-name="Path 20835" class="cls-21" d="M-176.263,330.734c-.432.273-.889.517-1.3.826a5.469,5.469,0,0,0-1.482,1.864,3.478,3.478,0,0,0-.568,1.946,1.6,1.6,0,0,0,.934,1.464.866.866,0,0,1-.82-.307,2.144,2.144,0,0,1-.2-2.45c.22-.5.525-.947.79-1.434a2.4,2.4,0,0,0,.106-.26c.212-.233.422-.466.635-.7a8.439,8.439,0,0,1,.947-.638A6.3,6.3,0,0,1-176.263,330.734Z" transform="translate(202.301 -298.769)"/>
        <path id="Path_20836" data-name="Path 20836" class="cls-20" d="M-171.3,336.832a1.953,1.953,0,0,0,.483-2.12,6.5,6.5,0,0,0-1.489-2.681,5.429,5.429,0,0,0-1.788-1.3,2.6,2.6,0,0,1,1.62.775,6.854,6.854,0,0,1,1.987,3.067,2.652,2.652,0,0,1,0,1.643A.8.8,0,0,1-171.3,336.832Z" transform="translate(201.398 -298.768)"/>
        <path id="Path_20837" data-name="Path 20837" class="cls-21" d="M-172.425,323.682a7.116,7.116,0,0,0-.692.532,3.164,3.164,0,0,0-.887,2.812,1.453,1.453,0,0,0,.813,1.1,1.055,1.055,0,0,1-1.091-.813,2.446,2.446,0,0,0-.176-.333c.017-.292.032-.584.047-.877a3.134,3.134,0,0,1,1.235-2.141,3.477,3.477,0,0,1,.75-.28Z" transform="translate(201.454 -297.687)"/>
        <path id="Path_20838" data-name="Path 20838" class="cls-21" d="M-177.853,323.906a1.893,1.893,0,0,0-.879,2.362,2.693,2.693,0,0,0,1.516,2.054.833.833,0,0,0,.123.032.883.883,0,0,1-.913-.267,3.126,3.126,0,0,1-1.167-2.548,2.734,2.734,0,0,1,.282-1.05A1.038,1.038,0,0,1-177.853,323.906Z" transform="translate(202.178 -297.722)"/>
        <path id="Path_20839" data-name="Path 20839" class="cls-20" d="M-174.758,326.149c-.015.294-.03.585-.047.877a1.44,1.44,0,0,1-.936,1.357,1.662,1.662,0,0,1-.339.044,2.223,2.223,0,0,0,.726-2.81,3.261,3.261,0,0,0-1.366-1.637,1.666,1.666,0,0,1,1.326.9,6.316,6.316,0,0,1,.512,1.076,1.556,1.556,0,0,0,.125.189Z" transform="translate(201.801 -297.733)"/>
        <path id="Path_20840" data-name="Path 20840" class="cls-20" d="M-172.14,328.127a3.1,3.1,0,0,0,1.705-3.238,1.516,1.516,0,0,0-.818-1.207,1.03,1.03,0,0,1,1.082.877,2.972,2.972,0,0,1-.678,2.876A1.619,1.619,0,0,1-172.14,328.127Z" transform="translate(201.098 -297.687)"/>
        <path id="Path_20841" data-name="Path 20841" class="cls-21" d="M-180.995,328.252a1.184,1.184,0,0,0-.83,1.1,2.592,2.592,0,0,0,.813,2.2,4.133,4.133,0,0,0,.779.449,2.065,2.065,0,0,1-.568-.068A2.519,2.519,0,0,1-182.128,329a1.137,1.137,0,0,1,.739-.758A1.109,1.109,0,0,1-180.995,328.252Z" transform="translate(202.646 -298.385)"/>
        <path id="Path_20842" data-name="Path 20842" class="cls-20" d="M-178.19,331.294c-.212.231-.422.464-.635.7h-.314a.28.28,0,0,0-.015-.053,1.178,1.178,0,0,0,.64-.991,2.6,2.6,0,0,0-.379-1.788,2.668,2.668,0,0,0-1.2-.983,1.724,1.724,0,0,1,1.453.824A2.734,2.734,0,0,1-178.19,331.294Z" transform="translate(202.319 -298.376)"/>
        <path id="Path_20843" data-name="Path 20843" class="cls-21" d="M-169.355,328.709a3.1,3.1,0,0,0-1.275,1.044,2.4,2.4,0,0,0-.369,1.72,1.032,1.032,0,0,0,.748.858.7.7,0,0,1-.71-.174,1.645,1.645,0,0,1-.267-1.927,2.431,2.431,0,0,1,1.326-1.4,3.25,3.25,0,0,1,.547-.117Z" transform="translate(200.987 -298.458)"/>
        <path id="Path_20844" data-name="Path 20844" class="cls-20" d="M-169.063,332.338a3.535,3.535,0,0,0,1.222-1.072,2.408,2.408,0,0,0,.352-1.705,1.221,1.221,0,0,0-.686-.858,1.049,1.049,0,0,1,1.082,1.108,2.561,2.561,0,0,1-1.256,2.3A2.758,2.758,0,0,1-169.063,332.338Z" transform="translate(200.626 -298.457)"/>
        <path id="Path_20845" data-name="Path 20845" class="cls-21" d="M-175.369,330.732Z" transform="translate(201.594 -298.769)"/>
        <path id="Path_20846" data-name="Path 20846" class="cls-29" d="M-174.95,305.983l.69.061a1.4,1.4,0,0,1,.458,1.188v6.123a1.4,1.4,0,0,1-.455,1.192l-.758.023a3.354,3.354,0,0,1-.424-.68,2.618,2.618,0,0,1-.078-.811c0-1.86-.023-3.719,0-5.579C-175.494,306.955-175.552,306.333-174.95,305.983Z" transform="translate(201.618 -294.972)"/>
        <path id="Path_20847" data-name="Path 20847" class="cls-30" d="M-175.014,305.983c-.6.35-.544.972-.553,1.516-.032,1.86-.015,3.719,0,5.579a2.618,2.618,0,0,0,.078.811,3.352,3.352,0,0,0,.424.68c-.593-.085-.82-.318-.828-.913q-.036-3.124-.053-6.252a5.306,5.306,0,0,1,.064-.758C-175.839,306.265-175.545,306.047-175.014,305.983Z" transform="translate(201.682 -294.972)"/>
        <path id="Path_20848" data-name="Path 20848" class="cls-23" d="M-174.032,314.557a1.414,1.414,0,0,0,.455-1.192v-6.123a1.37,1.37,0,0,0-.458-1.188.79.79,0,0,1,.835.89q.011,3.325,0,6.648C-173.2,314.235-173.488,314.538-174.032,314.557Z" transform="translate(201.389 -294.983)"/>
        <path id="Path_20849" data-name="Path 20849" class="cls-30" d="M-176.007,332.056a15.042,15.042,0,0,0-1.483,1.87c-.39.682-.555,1.453-.887,2.2a2.431,2.431,0,0,1-.066-.326,3.542,3.542,0,0,1,.934-2.58,10.932,10.932,0,0,1,1.2-1.1.99.99,0,0,1,.292-.123Z" transform="translate(202.066 -298.962)"/>
        <path id="Path_20850" data-name="Path 20850" class="cls-19" d="M-176.068,326.71a5.459,5.459,0,0,1-.18.724.515.515,0,0,1-.822.263,2.3,2.3,0,0,1-1.065-1.743,2.442,2.442,0,0,1,.051-.923c.148-.58.625-.7,1.08-.307a2.673,2.673,0,0,1,.936,1.986Zm-1.851-1.326a1.8,1.8,0,0,0,.112.513c.07.131.235.21.358.311.089-.119.222-.227.256-.36a1.342,1.342,0,0,0,0-.549c-.042-.235-.1-.536-.409-.5S-177.9,325.132-177.919,325.383Z" transform="translate(202.021 -297.812)"/>
        <path id="Path_20851" data-name="Path 20851" class="cls-19" d="M-173.19,326.431a2.59,2.59,0,0,1,.707-1.807.9.9,0,0,1,.881-.379.79.79,0,0,1,.5.809,2.6,2.6,0,0,1-1,2.273c-.5.4-1,.116-1.082-.589A2.938,2.938,0,0,1-173.19,326.431Zm1.607-1.679c-.038-.064-.072-.189-.155-.241a.358.358,0,0,0-.314,0,1.036,1.036,0,0,0-.506.923c.021.284.161.379.419.239A1.19,1.19,0,0,0-171.583,324.752Z" transform="translate(201.26 -297.77)"/>
        <path id="Path_20852" data-name="Path 20852" class="cls-19" d="M-170.188,331.046a1.909,1.909,0,0,1,1.588-1.737.516.516,0,0,1,.568.568,2.04,2.04,0,0,1-1.307,1.779C-169.866,331.843-170.192,331.6-170.188,331.046Zm.889-.909c-.019.208.116.3.305.3a.758.758,0,0,0,.65-.671.277.277,0,0,0-.075-.235.277.277,0,0,0-.233-.081.741.741,0,0,0-.646.686Z" transform="translate(200.799 -298.55)"/>
        <path id="Path_20853" data-name="Path 20853" class="cls-19" d="M-179.32,330.515c0,.8-.417,1.042-1.034.7a2.034,2.034,0,0,1-.875-1.957.547.547,0,0,1,.887-.379A2.018,2.018,0,0,1-179.32,330.515Zm-1.718-.9c0,.322.178.555.43.568s.324-.159.333-.368a.531.531,0,0,0-.46-.583C-180.989,329.233-181.048,329.4-181.039,329.613Z" transform="translate(202.498 -298.467)"/>
        <path id="Path_20854" data-name="Path 20854" class="cls-30" d="M-177.876,325.437c.023-.252.009-.553.316-.587s.368.267.409.5a1.342,1.342,0,0,1,0,.549c-.034.133-.167.241-.256.36a1.49,1.49,0,0,1-.358-.311A1.8,1.8,0,0,1-177.876,325.437Z" transform="translate(201.978 -297.866)"/>
        <path id="Path_20855" data-name="Path 20855" class="cls-30" d="M-171.469,324.8a1.225,1.225,0,0,1-.557.93c-.258.136-.4.045-.419-.239a1.036,1.036,0,0,1,.506-.923.358.358,0,0,1,.314,0C-171.541,324.6-171.507,324.735-171.469,324.8Z" transform="translate(201.145 -297.818)"/>
        <path id="Path_20856" data-name="Path 20856" class="cls-30" d="M-169.139,330.162a.741.741,0,0,1,.646-.686.277.277,0,0,1,.233.081.277.277,0,0,1,.075.235.758.758,0,0,1-.65.671C-169.024,330.461-169.158,330.372-169.139,330.162Z" transform="translate(200.638 -298.576)"/>
        <path id="Path_20857" data-name="Path 20857" class="cls-30" d="M-181,329.7c-.009-.216.044-.379.3-.379a.528.528,0,0,1,.46.584c0,.208-.074.379-.333.368S-181,330.021-181,329.7Z" transform="translate(202.457 -298.552)"/>
      </g>
    </g>
  </g>
</svg>
