<?xml version="1.0" encoding="UTF-8"?>
<!DOCTYPE svg PUBLIC "-//W3C//DTD SVG 1.1//EN" "http://www.w3.org/Graphics/SVG/1.1/DTD/svg11.dtd">
<!-- Creator: CorelDRAW 2019 (64-Bit) -->
<svg xmlns="http://www.w3.org/2000/svg" xml:space="preserve" width="200mm" height="200mm" version="1.1" style="shape-rendering:geometricPrecision; text-rendering:geometricPrecision; image-rendering:optimizeQuality; fill-rule:evenodd; clip-rule:evenodd"
viewBox="0 0 20000 20000"
 xmlns:xlink="http://www.w3.org/1999/xlink">
 <defs>
  <style type="text/css">
   <![CDATA[
    .str10 {stroke:#282829;stroke-width:440.52;stroke-miterlimit:22.9256}
    .str1 {stroke:#282829;stroke-width:105.83;stroke-miterlimit:22.9256}
    .str7 {stroke:#282829;stroke-width:105.83;stroke-miterlimit:22.9256}
    .str2 {stroke:#95585D;stroke-width:105.83;stroke-miterlimit:22.9256}
    .str6 {stroke:#282829;stroke-width:105.83;stroke-miterlimit:22.9256}
    .str9 {stroke:#282829;stroke-width:105.83;stroke-miterlimit:22.9256}
    .str0 {stroke:#282829;stroke-width:1058.33;stroke-miterlimit:22.9256}
    .str4 {stroke:#282829;stroke-width:52.92;stroke-miterlimit:22.9256}
    .str3 {stroke:#808184;stroke-width:52.92;stroke-miterlimit:22.9256}
    .str5 {stroke:#282829;stroke-width:52.92;stroke-miterlimit:22.9256}
    .str8 {stroke:#282829;stroke-width:52.92;stroke-miterlimit:22.9256}
    .fil0 {fill:none}
    .fil1 {fill:#6B809B}
    .fil3 {fill:#99BCCC}
    .fil5 {fill:#7C94B4}
    .fil9 {fill:#282829}
    .fil4 {fill:#536D8F}
    .fil2 {fill:#565C83}
    .fil8 {fill:#221F20}
    .fil15 {fill:#808184}
    .fil16 {fill:#808184}
    .fil14 {fill:#95585D}
    .fil12 {fill:#A3CBC8}
    .fil17 {fill:#C3C3C3}
    .fil13 {fill:whitesmoke}
    .fil10 {fill:#FEFEFE}
    .fil7 {fill:#FFFBF2}
    .fil6 {fill:#FFFBF2}
    .fil11 {fill:#282829;fill-rule:nonzero}
   ]]>
  </style>
 </defs>
 <g id="Capa_x0020_1">
  <metadata id="CorelCorpID_0Corel-Layer"/>
  <g id="_1887493122992">
   <g>
    <path class="fil0 str0" d="M9992.4 1683.49c-4597.28,0 -8324.11,3726.83 -8324.11,8324.11 0,4597.28 3726.83,8324.11 8324.11,8324.11 4597.28,0 8324.11,-3726.83 8324.11,-8324.11 0,-4597.28 -3726.83,-8324.11 -8324.11,-8324.11z"/>
    <path id="1" class="fil1" d="M9992.4 1683.49c-4597.28,0 -8324.11,3726.83 -8324.11,8324.11 0,4597.28 3726.83,8324.11 8324.11,8324.11 4597.28,0 8324.11,-3726.83 8324.11,-8324.11 0,-4597.28 -3726.83,-8324.11 -8324.11,-8324.11z"/>
   </g>
   <polygon class="fil2" points="4827.58,16536.06 2021.92,12296.53 9472.83,16007.5 7068.61,2211.46 17320.33,13998.89 14081.04,2803.12 "/>
   <polygon class="fil3" points="18283.71,10660.29 1703.43,9237.65 14884.93,16743.11 9954.89,16516.5 10190.31,1787.73 3858.29,8899.44 3997.67,4232.29 "/>
   <polygon class="fil4" points="2148.2,7215.27 11126.72,7352.65 11943.79,18099.86 13333.31,2468.03 15525.66,16230.85 "/>
   <polygon class="fil5" points="14783.65,12472.11 16578.45,5061.31 8144.89,10609.11 4717.57,3614.82 "/>
   <g>
    <path class="fil0 str1" d="M15018.53 14020.79c-246.94,723.2 -490.58,1548.92 -737.52,2272.12 857.4,-623.8 1546.98,-1506.08 1981.06,-2288.65 -196.15,-142.15 -681.11,-84.09 -1243.54,16.53z"/>
    <path id="1" class="fil6" d="M15018.53 14020.79c-246.94,723.2 -490.58,1548.92 -737.52,2272.12 857.4,-623.8 1546.98,-1506.08 1981.06,-2288.65 -196.15,-142.15 -681.11,-84.09 -1243.54,16.53z"/>
   </g>
   <g>
    <path class="fil0 str1" d="M6856.13 13134.44c204.57,-551.5 243.35,-1008.35 318.43,-1279.52 143.35,-517.75 512.99,-618.17 1282.3,-1472.15 62.39,1169.36 -84.03,2289 -211.67,3413.13 -463.02,-220.49 -926.04,-440.97 -1389.06,-661.46z"/>
    <path id="1" class="fil7" d="M6856.13 13134.44c204.57,-551.5 243.35,-1008.35 318.43,-1279.52 143.35,-517.75 512.99,-618.17 1282.3,-1472.15 62.39,1169.36 -84.03,2289 -211.67,3413.13 -463.02,-220.49 -926.04,-440.97 -1389.06,-661.46z"/>
   </g>
   <g>
    <path class="fil0 str2" d="M8489.94 8246.21c344.68,1013.27 250.48,1177.25 224.23,2155.17 215.97,127.04 1510.1,225.14 1495.57,-283.25 -9.63,-250.3 -121.79,-431.17 -131.41,-681.46 -12.41,-322.96 77.68,-715.37 65.26,-1038.33 -608.54,-110.24 -1045.11,-41.89 -1653.65,-152.13z"/>
    <path id="1" class="fil7" d="M8489.94 8246.21c344.68,1013.27 250.48,1177.25 224.23,2155.17 215.97,127.04 1510.1,225.14 1495.57,-283.25 -9.63,-250.3 -121.79,-431.17 -131.41,-681.46 -12.41,-322.96 77.68,-715.37 65.26,-1038.33 -608.54,-110.24 -1045.11,-41.89 -1653.65,-152.13z"/>
   </g>
   <g>
    <path class="fil0 str1" d="M10150.91 9047.38c107.78,-4.26 189.57,-122.12 311.28,-325.26 82.66,-137.97 208.72,-314.45 277.18,-524.82 149.01,-457.9 184.18,-600.99 187.14,-1069.7 3.99,-631.95 0.61,-955.25 -386.04,-1904.27 -755.87,5.4 -1445.8,-13.6 -1943.75,361.8 -590.78,445.38 -881.73,1356.99 -273.93,2268.65 589.82,884.68 1268.93,1215.75 1828.12,1193.6z"/>
    <path id="1" class="fil7" d="M10150.91 9047.38c107.78,-4.26 189.57,-122.12 311.28,-325.26 82.66,-137.97 208.72,-314.45 277.18,-524.82 149.01,-457.9 184.18,-600.99 187.14,-1069.7 3.99,-631.95 0.61,-955.25 -386.04,-1904.27 -755.87,5.4 -1445.8,-13.6 -1943.75,361.8 -590.78,445.38 -881.73,1356.99 -273.93,2268.65 589.82,884.68 1268.93,1215.75 1828.12,1193.6z"/>
   </g>
   <g>
    <path class="fil0 str1" d="M8269.39 10550.23c127.49,1422.72 -56.56,2421.25 -616.99,3367.73 233.72,427.74 467.43,683.51 701.15,1111.25 345.06,266.79 650.43,255.77 1025.26,291.05 1210.29,487.7 2085.99,1187.6 3207.85,1915.39 617.36,-379.24 1406.9,-795.34 2024.26,-1174.58 345.7,-710.3 582.67,-1232.9 407.61,-2040.28 -490.99,55.11 -1051.44,-16.11 -1542.43,-307.8 -740.69,-426.67 -1206.88,-975.7 -1947.57,-1402.37 -487.16,-779.9 -677.04,-1409.54 -635.01,-2348.19 -151.61,12.8 -694.72,44.97 -718.98,66.26 -394.49,346.05 -937.28,472.35 -1454.2,183 -168.57,58.03 -249.31,141.6 -450.95,338.54z"/>
    <path id="1" class="fil8" d="M8269.39 10550.23c127.49,1422.72 -56.56,2421.25 -616.99,3367.73 233.72,427.74 467.43,683.51 701.15,1111.25 345.06,266.79 650.43,255.77 1025.26,291.05 1210.29,487.7 2085.99,1187.6 3207.85,1915.39 617.36,-379.24 1406.9,-795.34 2024.26,-1174.58 345.7,-710.3 582.67,-1232.9 407.61,-2040.28 -490.99,55.11 -1051.44,-16.11 -1542.43,-307.8 -740.69,-426.67 -1206.88,-975.7 -1947.57,-1402.37 -487.16,-779.9 -677.04,-1409.54 -635.01,-2348.19 -151.61,12.8 -694.72,44.97 -718.98,66.26 -394.49,346.05 -937.28,472.35 -1454.2,183 -168.57,58.03 -249.31,141.6 -450.95,338.54z"/>
   </g>
   <g>
    <path class="fil0 str3" d="M8718.56 10260.33c311.55,1025.42 678.25,1529.22 836.65,1518.8 77.61,-5.1 429.28,-498.68 479.01,-1641.03"/>
   </g>
   <g>
    <path class="fil0 str1" d="M9947.53 5520.79c-544.86,-304.11 -964.09,200.74 -1269.52,657.63 -207.52,310.44 -237.69,1059.04 59.05,1389.58 -123.7,-8.75 -273.9,-172.87 -291.05,-377.02 -117.64,882.68 357.94,1343.19 853.28,975.65 -247.03,344.89 -476.22,302.64 -732.07,153.63 238.27,574.46 203.38,1332.28 153.93,1870.59 -563.16,734.62 -803.37,255.21 -1105.27,-410.26 25.33,638.45 173.48,1006.85 622.56,836.36 -19.25,186.69 -143.31,278.59 -289.89,286.68 -859.92,-162.12 -758.19,-1645.69 -713.01,-2273.98 -173.08,359.4 -352.78,556.72 -806.98,661.46 546.06,-251.37 1072.28,-1393.02 652.28,-2764.59 -141.7,-462.75 1059.61,-2309.51 2357.37,-2193.04 1421.61,-814.77 1804.53,1189.18 3657.86,1319.6 -560.04,32.97 -967.95,60.45 -1527.98,-370.41 429.25,667.42 462.42,1343.59 1236.94,1653.65 1379.56,672.96 1572.37,468.84 1931.76,1248.49 67.46,146.35 -66.59,416.76 39.57,637.02 29.11,60.42 187.76,140.55 251.17,138.55 -135.92,22.37 -354.23,-80.78 -393.89,-251.63 -86.01,-370.51 -275.55,-625.45 -538.51,-835.78 -475.81,-380.59 -1220.58,-418.62 -1792.81,-711.76 190.7,192.21 343.53,273.41 634.19,413.35 294.57,141.81 634.31,225.11 912.97,412.88 705.07,475.12 1180.06,1190.6 728.26,2057.74 161.07,-939.89 -400.16,-1425.68 -826.83,-1706.57 450.2,457.53 835.43,1138.76 588.7,1719.8 62.92,-876.32 -265.7,-1048.42 -793.75,-1336.15 335.4,542.81 717.59,1214.6 750.76,1881.85 918.73,872.83 1206.17,-232.52 1880.1,-691.74 240.78,-164.06 699.25,-223.31 841.83,-12.7 -177.96,-115.9 -470.65,-114.24 -615.76,105.03 -616.17,931.04 -2117.96,2898.55 -3091.73,953.31 230.88,795.1 284.38,1468.53 859.78,1464.09 288.9,-2.22 616.08,-536.75 972.65,-575.85 135.59,-14.87 308.19,13.09 532.32,289.21 -1294.5,-934.49 -554.64,2672.02 -3082.4,-502.71 -410.03,-644.35 -1475.24,-1988.1 -1556.35,-1660.04 -41.12,166.33 -285.81,295.29 -285.81,295.29 -902.11,239.72 -905.21,-590.09 -661,-1147.74 0,0 125.76,-13.48 174.31,-88.56 46.81,-72.37 114.77,-187.04 182.43,-284.31 163.79,-235.43 314.21,-562.22 404.72,-920.03 90.77,-358.8 95,-748.76 73.63,-1035.86 -105.46,-286.86 -501.93,-1780.91 -977.81,-1270.71z"/>
    <path id="1" class="fil9" d="M9947.53 5520.79c-544.86,-304.11 -964.09,200.74 -1269.52,657.63 -207.52,310.44 -237.69,1059.04 59.05,1389.58 -123.7,-8.75 -273.9,-172.87 -291.05,-377.02 -117.64,882.68 357.94,1343.19 853.28,975.65 -247.03,344.89 -476.22,302.64 -732.07,153.63 238.27,574.46 203.38,1332.28 153.93,1870.59 -563.16,734.62 -803.37,255.21 -1105.27,-410.26 25.33,638.45 173.48,1006.85 622.56,836.36 -19.25,186.69 -143.31,278.59 -289.89,286.68 -859.92,-162.12 -758.19,-1645.69 -713.01,-2273.98 -173.08,359.4 -352.78,556.72 -806.98,661.46 546.06,-251.37 1072.28,-1393.02 652.28,-2764.59 -141.7,-462.75 1059.61,-2309.51 2357.37,-2193.04 1421.61,-814.77 1804.53,1189.18 3657.86,1319.6 -560.04,32.97 -967.95,60.45 -1527.98,-370.41 429.25,667.42 462.42,1343.59 1236.94,1653.65 1379.56,672.96 1572.37,468.84 1931.76,1248.49 67.46,146.35 -66.59,416.76 39.57,637.02 29.11,60.42 187.76,140.55 251.17,138.55 -135.92,22.37 -354.23,-80.78 -393.89,-251.63 -86.01,-370.51 -275.55,-625.45 -538.51,-835.78 -475.81,-380.59 -1220.58,-418.62 -1792.81,-711.76 190.7,192.21 343.53,273.41 634.19,413.35 294.57,141.81 634.31,225.11 912.97,412.88 705.07,475.12 1180.06,1190.6 728.26,2057.74 161.07,-939.89 -400.16,-1425.68 -826.83,-1706.57 450.2,457.53 835.43,1138.76 588.7,1719.8 62.92,-876.32 -265.7,-1048.42 -793.75,-1336.15 335.4,542.81 717.59,1214.6 750.76,1881.85 918.73,872.83 1206.17,-232.52 1880.1,-691.74 240.78,-164.06 699.25,-223.31 841.83,-12.7 -177.96,-115.9 -470.65,-114.24 -615.76,105.03 -616.17,931.04 -2117.96,2898.55 -3091.73,953.31 230.88,795.1 284.38,1468.53 859.78,1464.09 288.9,-2.22 616.08,-536.75 972.65,-575.85 135.59,-14.87 308.19,13.09 532.32,289.21 -1294.5,-934.49 -554.64,2672.02 -3082.4,-502.71 -410.03,-644.35 -1475.24,-1988.1 -1556.35,-1660.04 -41.12,166.33 -285.81,295.29 -285.81,295.29 -902.11,239.72 -905.21,-590.09 -661,-1147.74 0,0 125.76,-13.48 174.31,-88.56 46.81,-72.37 114.77,-187.04 182.43,-284.31 163.79,-235.43 314.21,-562.22 404.72,-920.03 90.77,-358.8 95,-748.76 73.63,-1035.86 -105.46,-286.86 -501.93,-1780.91 -977.81,-1270.71z"/>
   </g>
   <g>
    <path class="fil0 str1" d="M9672.83 7169.68c-225.97,-261.41 -541.62,-396.49 -899.88,-327.15 382,459.6 340.17,321.89 899.88,327.15z"/>
    <path id="1" class="fil10" d="M9672.83 7169.68c-225.97,-261.41 -541.62,-396.49 -899.88,-327.15 382,459.6 340.17,321.89 899.88,327.15z"/>
   </g>
   <g>
    <path class="fil11" d="M10827.74 6913.09l44.8 61.61 -19.01 -2.34 -18.13 -1.6 -17.27 -0.9 -16.43 -0.19 -15.67 0.46 -14.93 1.11 -14.24 1.73 -13.63 2.35 -13.08 2.92 -12.59 3.52 -12.2 4.1 -11.87 4.7 -11.58 5.28 -11.36 5.9 -11.24 6.56 -11.14 7.21 -11.1 7.9 -11.07 8.6 -11.1 9.32 -11.15 10.05 -11.22 10.78 -11.3 11.53 -11.44 12.28 -11.57 13.02 -11.74 13.75 -11.93 14.48 -12.14 15.21 -12.38 15.91 -12.65 16.63 -12.94 17.31 -13.27 17.99 -13.6 18.65 -85.64 -62.14 13.88 -19.03 13.63 -18.49 13.42 -17.95 13.27 -17.43 13.14 -16.89 13.06 -16.35 13.03 -15.82 13.04 -15.27 13.09 -14.72 13.2 -14.18 13.36 -13.61 13.56 -13.04 13.79 -12.43 14.08 -11.82 14.41 -11.18 14.78 -10.52 15.18 -9.83 15.62 -9.1 16.06 -8.34 16.52 -7.54 16.97 -6.7 17.42 -5.86 17.91 -5 18.36 -4.12 18.81 -3.23 19.3 -2.35 19.75 -1.47 20.23 -0.6 20.75 0.25 21.27 1.1 21.85 1.92 22.47 2.76 44.8 61.61 -104.2 -18.46zm59.4 -43.15l54.38 7.57 -9.58 54.04 -44.8 -61.61zm-429.57 358.98l-43.46 -83.95 31.83 -0.08 30.2 0.49 28.58 0.92 26.95 1.26 25.37 1.47 23.81 1.56 22.27 1.56 20.7 1.41 19.18 1.17 17.63 0.84 16.02 0.4 14.41 -0.1 12.81 -0.64 11.15 -1.18 9.48 -1.68 8.01 -2.14 6.72 -2.52 5.75 -2.93 5.29 -3.54 5.16 -4.43 5.37 -5.8 5.64 -7.49 5.89 -9.58 6.11 -11.88 6.19 -14.32 6.23 -16.85 6.2 -19.45 6.18 -22.13 6.13 -24.82 6.11 -27.59 6.11 -30.45 6.15 -33.36 104.2 18.46 -6.43 34.84 -6.47 32.29 -6.61 29.87 -6.83 27.6 -7.12 25.49 -7.52 23.55 -8.05 21.77 -8.73 20.14 -9.57 18.62 -10.63 17.22 -11.86 15.77 -13.19 14.2 -14.56 12.49 -15.71 10.52 -16.61 8.51 -17.14 6.48 -17.43 4.7 -17.64 3.16 -17.77 1.9 -18.01 0.92 -18.41 0.14 -18.9 -0.48 -19.49 -0.92 -20.28 -1.23 -21.16 -1.45 -22.11 -1.54 -23.19 -1.52 -24.37 -1.41 -25.61 -1.2 -26.94 -0.88 -28.34 -0.45 -29.87 0.08 -43.46 -83.95 85.64 62.14zm-42.18 21.81l-105.39 1.28 61.93 -85.23 43.46 83.95z"/>
    <path id="1" class="fil10" d="M10414.75 7197.85c148.32,-204.14 239.77,-306.88 465.09,-275.53 -67.17,378.75 -127.48,271.42 -465.09,275.53z"/>
   </g>
   <path class="fil9" d="M9726.7 6675.08c-0.06,-327.64 -464.44,-345.99 -729.26,-325.77 268.85,54.21 526.96,147.38 729.26,325.77z"/>
   <g>
    <path class="fil0 str4" d="M9701.85 6944.69c-92.84,-143.08 -232.38,-239.45 -413.41,-294.35"/>
   </g>
   <path class="fil9" d="M10457.56 6715.81c0.04,-221.1 274.06,-216.94 430.32,-193.38 -158.64,36.58 -310.95,73 -430.32,193.38z"/>
   <g>
    <path class="fil0 str5" d="M10488.8 6930.6c92.84,-143.08 150.41,-158.17 301.67,-163.46"/>
   </g>
   <path class="fil9" d="M9267.97 6880.37c-81.99,-72.78 -134,-155.56 -176.29,-241.59 9.61,68.76 19,137.56 46.5,204.09 43.26,12.5 86.53,25 129.79,37.5z"/>
   <path class="fil9" d="M9097.46 6826.31c-93.77,-56.81 -159.85,-128.85 -216.95,-205.85 21.85,65.9 43.48,131.88 82.53,192.36 44.8,4.5 89.62,9 134.42,13.49z"/>
   <path class="fil9" d="M8919.12 6825.28c-101.24,-42.06 -186.57,-92.58 -254.61,-160.12 31.51,61.87 62.83,123.85 110.52,177.77 44.97,-2.29 99.12,-15.36 144.09,-17.65z"/>
   <path class="fil9" d="M10584.99 7010.8c56.41,-64.03 82.16,-154.27 108.14,-225.74 -2.74,55.26 -5.31,110.53 -21.52,165.39 -31.43,13.25 -41.76,28.86 -86.62,60.35z"/>
   <g>
    <path class="fil0 str1" d="M10838.12 9792.42c-164.31,883.33 336.49,3069.11 1164.16,2799.62 171.98,732.02 469.64,1543.41 489.48,2321.73 -1056.09,183.91 -1939.61,643.65 -2922.84,885.06 -238.74,58.61 -501.27,-58.43 -741.64,7.91 35.28,202.85 70.55,405.69 105.83,608.54 455.62,25.71 905.57,-121.39 1342.07,-94.54 1483.57,91.26 2565.08,-98.11 3526.27,-765.36 102.26,-36.06 131.4,-280.71 118.19,-420.59 -35.11,-371.55 -207.67,-734.19 -308.02,-1091.34 -173.61,-617.82 -518.19,-1459.01 -596.73,-1950.61 -306.36,-1917.4 -956.53,-3561.35 -2176.77,-2300.42z"/>
    <path id="1" class="fil7" d="M10838.12 9792.42c-164.31,883.33 336.49,3069.11 1164.16,2799.62 171.98,732.02 469.64,1543.41 489.48,2321.73 -1056.09,183.91 -1939.61,643.65 -2922.84,885.06 -238.74,58.61 -501.27,-58.43 -741.64,7.91 35.28,202.85 70.55,405.69 105.83,608.54 455.62,25.71 905.57,-121.39 1342.07,-94.54 1483.57,91.26 2565.08,-98.11 3526.27,-765.36 102.26,-36.06 131.4,-280.71 118.19,-420.59 -35.11,-371.55 -207.67,-734.19 -308.02,-1091.34 -173.61,-617.82 -518.19,-1459.01 -596.73,-1950.61 -306.36,-1917.4 -956.53,-3561.35 -2176.77,-2300.42z"/>
   </g>
   <path class="fil9" d="M10700.89 6934.18c66.22,-52.27 110.82,-114.49 148.42,-179.94 -12.04,53.93 -23.92,107.91 -49.12,158.87 -33.1,7.03 -66.2,14.05 -99.3,21.07z"/>
   <path class="fil9" d="M10833.72 6919.6c72.73,-41.16 133.07,-87.79 179.42,-146.59 -19.5,51.48 -35.94,111.4 -68.01,157.83 -33.66,1.66 -77.76,-12.89 -111.41,-11.24z"/>
   <g>
    <path class="fil0 str1" d="M8953.22 6824.5c-69.84,405.08 416.41,343.04 333.73,63.21 -113.11,-46.27 -224.34,-67.18 -333.73,-63.21z"/>
    <path id="1" class="fil12" d="M8953.22 6824.5c-69.84,405.08 416.41,343.04 333.73,63.21 -113.11,-46.27 -224.34,-67.18 -333.73,-63.21z"/>
   </g>
   <g>
    <path class="fil0 str6" d="M10751.31 6929.78c45.88,348.42 -279.73,289.76 -220.02,132.46 95.81,-83.51 132.23,-108.11 220.02,-132.46z"/>
    <path id="1" class="fil12" d="M10751.31 6929.78c45.88,348.42 -279.73,289.76 -220.02,132.46 95.81,-83.51 132.23,-108.11 220.02,-132.46z"/>
   </g>
   <path class="fil9" d="M8804.98 6880.84c-1.97,133.71 -78.09,329.27 -82.28,467.46 -4.31,142.13 187.94,305.5 267.1,85.19 -223.91,204.66 -299.68,-121.04 19.95,-334.84 -75.9,-64.3 -145.23,-143.35 -204.77,-217.81z"/>
   <g>
    <path class="fil0 str1" d="M4942.65 15861.09c388.17,-473.4 151.09,-588.9 193.03,-899.48 104.45,-773.37 564.08,-1193.23 1076.3,-1332.66 1102.02,-299.98 1959.38,301.29 2216.05,961.68 71.11,182.96 -110.92,956.16 -194.58,1191.07 -1879.85,1123.15 -1623.29,1335.09 -3290.8,79.39z"/>
    <path id="1" class="fil13" d="M4942.65 15861.09c388.17,-473.4 151.09,-588.9 193.03,-899.48 104.45,-773.37 564.08,-1193.23 1076.3,-1332.66 1102.02,-299.98 1959.38,301.29 2216.05,961.68 71.11,182.96 -110.92,956.16 -194.58,1191.07 -1879.85,1123.15 -1623.29,1335.09 -3290.8,79.39z"/>
   </g>
   <g>
    <path class="fil0 str4" d="M10393.78 7905.65c59.92,-45.06 74.59,-107.08 46.31,-185.21"/>
   </g>
   <g>
    <path class="fil0 str4" d="M10048.17 7846.11c56.59,8.81 83.15,17.37 119.89,50.44"/>
   </g>
   <g>
    <path class="fil0 str7" d="M9851.36 8270.83c154.13,-62.59 179.85,-115.55 325.78,-48.78 151.47,-47.45 119.05,-68.98 206.7,56.22 -199.87,37.59 -376.75,27.78 -532.48,-7.44z"/>
    <path id="1" class="fil9" d="M9851.36 8270.83c154.13,-62.59 179.85,-115.55 325.78,-48.78 151.47,-47.45 119.05,-68.98 206.7,56.22 -199.87,37.59 -376.75,27.78 -532.48,-7.44z"/>
   </g>
   <g>
    <path class="fil0 str1" d="M9821.81 8344.82c53.95,68.03 53.28,91.15 92.89,132.6 145.2,151.91 332.66,130.29 462.47,-130.2 -185.35,25.31 -361.22,20.48 -555.36,-2.4z"/>
    <path id="1" class="fil14" d="M9821.81 8344.82c53.95,68.03 53.28,91.15 92.89,132.6 145.2,151.91 332.66,130.29 462.47,-130.2 -185.35,25.31 -361.22,20.48 -555.36,-2.4z"/>
   </g>
   <g>
    <path class="fil0 str4" d="M9619.86 8281.03c333.19,51.01 527.66,75.54 861.55,21.5"/>
   </g>
   <g>
    <path class="fil0 str8" d="M10057.62 8700.77c56.15,11.26 84.03,12.4 129.93,-5.96"/>
   </g>
   <g>
    <path class="fil0 str1" d="M9399.23 13453.71c-52.7,567.94 -241.35,991.09 -139.9,1219.46 60.89,137.06 673.49,24.32 707.42,-50.19 102.81,-225.77 -108.54,-636.15 -236.79,-1202.35 217.35,98.26 355.65,142.34 456.16,126.29 71.44,-11.4 109.48,-468.81 30.44,-495.67 -118.12,-40.14 -235.43,-12.48 -440.3,18.81 494.02,-795.91 133.79,-1211.02 -224.48,-1179.31 -351.98,31.16 -702.1,495.92 -238.54,1199.15 -255.79,17.97 -431.05,-4.39 -546.7,52.13 -32.96,16.11 90.23,460.75 127.52,473.98 114.89,40.76 269.2,-64.2 505.17,-162.3z"/>
    <path id="1" class="fil15" d="M9399.23 13453.71c-52.7,567.94 -241.35,991.09 -139.9,1219.46 60.89,137.06 673.49,24.32 707.42,-50.19 102.81,-225.77 -108.54,-636.15 -236.79,-1202.35 217.35,98.26 355.65,142.34 456.16,126.29 71.44,-11.4 109.48,-468.81 30.44,-495.67 -118.12,-40.14 -235.43,-12.48 -440.3,18.81 494.02,-795.91 133.79,-1211.02 -224.48,-1179.31 -351.98,31.16 -702.1,495.92 -238.54,1199.15 -255.79,17.97 -431.05,-4.39 -546.7,52.13 -32.96,16.11 90.23,460.75 127.52,473.98 114.89,40.76 269.2,-64.2 505.17,-162.3z"/>
   </g>
   <g>
    <path class="fil11" d="M9879.24 12549.72l-105.4 0 0 0 -0.32 -20.8 -0.93 -20.51 -1.54 -20.16 -2.12 -19.82 -2.7 -19.42 -3.25 -19.04 -3.77 -18.57 -4.3 -18.12 -4.77 -17.6 -5.25 -17.06 -5.7 -16.52 -6.13 -15.9 -6.52 -15.29 -6.91 -14.62 -7.26 -13.95 -7.57 -13.23 -7.86 -12.48 -8.14 -11.73 -8.36 -10.94 -8.54 -10.12 -8.69 -9.28 -8.83 -8.45 -8.91 -7.6 -8.93 -6.73 -8.97 -5.88 -8.97 -5.06 -8.91 -4.22 -8.91 -3.42 -8.9 -2.65 -8.89 -1.89 -8.95 -1.13 -9.06 -0.38 0 -105.84 17.86 0.76 17.61 2.23 17.29 3.65 16.86 5.01 16.41 6.3 15.91 7.52 15.33 8.64 14.79 9.7 14.23 10.71 13.65 11.64 13.09 12.53 12.53 13.38 11.96 14.16 11.4 14.92 10.84 15.63 10.32 16.36 9.75 17.03 9.18 17.65 8.63 18.28 8.06 18.87 7.47 19.42 6.9 19.96 6.31 20.5 5.69 20.98 5.08 21.44 4.45 21.89 3.81 22.3 3.14 22.7 2.48 23.08 1.78 23.42 1.09 23.73 0.36 24.02 0 0zm-314.26 488.41l0 -105.84 0 0 9.06 -0.38 8.95 -1.13 8.89 -1.89 8.9 -2.65 8.91 -3.42 8.91 -4.22 8.97 -5.06 8.97 -5.88 8.93 -6.73 8.91 -7.6 8.83 -8.45 8.69 -9.28 8.54 -10.12 8.36 -10.94 8.14 -11.73 7.86 -12.48 7.57 -13.23 7.26 -13.95 6.91 -14.62 6.52 -15.29 6.13 -15.9 5.7 -16.52 5.25 -17.06 4.77 -17.6 4.3 -18.12 3.77 -18.57 3.25 -19.04 2.7 -19.42 2.12 -19.82 1.54 -20.16 0.93 -20.51 0.32 -20.8 105.4 0 -0.36 24.02 -1.09 23.73 -1.78 23.42 -2.48 23.08 -3.14 22.7 -3.81 22.3 -4.45 21.89 -5.08 21.44 -5.69 20.98 -6.31 20.5 -6.9 19.96 -7.47 19.42 -8.06 18.87 -8.63 18.28 -9.18 17.65 -9.75 17.03 -10.32 16.36 -10.84 15.63 -11.4 14.92 -11.96 14.16 -12.53 13.38 -13.09 12.53 -13.65 11.64 -14.23 10.71 -14.79 9.7 -15.33 8.64 -15.91 7.52 -16.41 6.3 -16.86 5.01 -17.29 3.65 -17.61 2.23 -17.86 0.76 0 0zm-314.27 -488.41l105.4 0 0 0 0.32 20.8 0.93 20.51 1.54 20.16 2.12 19.82 2.7 19.42 3.25 19.04 3.77 18.57 4.3 18.12 4.77 17.6 5.25 17.06 5.7 16.52 6.12 15.89 6.54 15.3 6.9 14.63 7.26 13.94 7.57 13.23 7.86 12.48 8.14 11.73 8.36 10.94 8.53 10.11 8.71 9.29 8.83 8.46 8.89 7.58 8.95 6.74 8.96 5.88 8.97 5.06 8.93 4.23 8.89 3.41 8.91 2.65 8.89 1.89 8.95 1.13 9.06 0.38 0 105.84 -17.86 -0.76 -17.61 -2.23 -17.29 -3.65 -16.87 -5.01 -16.41 -6.31 -15.89 -7.51 -15.35 -8.64 -14.78 -9.7 -14.23 -10.7 -13.67 -11.66 -13.07 -12.52 -12.53 -13.37 -11.97 -14.17 -11.4 -14.92 -10.84 -15.63 -10.32 -16.36 -9.75 -17.03 -9.18 -17.66 -8.62 -18.27 -8.06 -18.86 -7.48 -19.43 -6.9 -19.96 -6.31 -20.5 -5.69 -20.98 -5.08 -21.44 -4.45 -21.89 -3.81 -22.3 -3.14 -22.7 -2.48 -23.08 -1.78 -23.42 -1.09 -23.73 -0.36 -24.02 0 0zm314.27 -488.41l0 105.84 0 0 -9.06 0.38 -8.95 1.13 -8.89 1.89 -8.91 2.65 -8.89 3.41 -8.93 4.23 -8.97 5.06 -8.96 5.88 -8.95 6.74 -8.89 7.58 -8.83 8.46 -8.71 9.29 -8.53 10.11 -8.36 10.94 -8.14 11.73 -7.86 12.48 -7.57 13.23 -7.26 13.94 -6.9 14.63 -6.54 15.3 -6.12 15.89 -5.7 16.52 -5.25 17.06 -4.77 17.6 -4.3 18.12 -3.77 18.57 -3.25 19.04 -2.7 19.42 -2.12 19.82 -1.54 20.16 -0.93 20.51 -0.32 20.8 -105.4 0 0.36 -24.02 1.09 -23.73 1.78 -23.42 2.48 -23.08 3.14 -22.7 3.81 -22.3 4.45 -21.89 5.08 -21.44 5.69 -20.98 6.31 -20.5 6.9 -19.96 7.48 -19.43 8.06 -18.86 8.62 -18.27 9.18 -17.66 9.75 -17.03 10.32 -16.36 10.84 -15.63 11.4 -14.92 11.97 -14.17 12.53 -13.37 13.07 -12.52 13.67 -11.66 14.23 -10.7 14.78 -9.7 15.35 -8.64 15.89 -7.51 16.41 -6.31 16.87 -5.01 17.29 -3.65 17.61 -2.23 17.86 -0.76 0 0z"/>
    <path id="1" class="fil8" d="M9564.98 12114.23c144.45,0 261.56,194.98 261.56,435.49 0,240.51 -117.11,435.49 -261.56,435.49 -144.46,0 -261.57,-194.98 -261.57,-435.49 0,-240.51 117.11,-435.49 261.57,-435.49z"/>
   </g>
   <g>
    <path class="fil0 str4" d="M9556.91 11747.51c30.14,0 54.57,24.43 54.57,54.57 0,30.14 -24.43,54.57 -54.57,54.57 -30.14,0 -54.57,-24.43 -54.57,-54.57 0,-30.14 24.43,-54.57 54.57,-54.57z"/>
    <path id="1" class="fil16" d="M9556.91 11747.51c30.14,0 54.57,24.43 54.57,54.57 0,30.14 -24.43,54.57 -54.57,54.57 -30.14,0 -54.57,-24.43 -54.57,-54.57 0,-30.14 24.43,-54.57 54.57,-54.57z"/>
   </g>
   <g>
    <path class="fil0 str1" d="M5736.04 13799.88c103.12,-350.61 259.28,-690.12 312.73,-745.23 61.34,-63.25 181.19,4.21 314.74,-2.82 95.58,-84 135.24,-192.54 196.53,-211.65 86.73,-27.04 195.28,68.56 380.58,178.58 114.76,-36.89 253.52,-47.94 326.33,-44.88 77.54,3.25 141.41,63.34 199.36,118.68 41.83,39.95 90.89,80.62 90.89,80.62 241.28,138.15 615.54,291.79 870.06,368.13 -29.26,122.44 -100.83,170.8 -218.28,138.91 -147.76,368.4 -551.03,-44.83 -1089.75,-257.97 28.66,176.39 108.59,438.77 137.25,615.16 -103.63,88.93 -301.51,9.17 -405.15,-148.83 -213.37,-92.87 -209.26,-150.96 -352.07,-318.78 -121.59,27.95 -464.95,57.15 -763.22,230.08z"/>
    <path id="1" class="fil8" d="M5736.04 13799.88c103.12,-350.61 259.28,-690.12 312.73,-745.23 61.34,-63.25 181.19,4.21 314.74,-2.82 95.58,-84 135.24,-192.54 196.53,-211.65 86.73,-27.04 195.28,68.56 380.58,178.58 114.76,-36.89 253.52,-47.94 326.33,-44.88 77.54,3.25 141.41,63.34 199.36,118.68 41.83,39.95 90.89,80.62 90.89,80.62 241.28,138.15 615.54,291.79 870.06,368.13 -29.26,122.44 -100.83,170.8 -218.28,138.91 -147.76,368.4 -551.03,-44.83 -1089.75,-257.97 28.66,176.39 108.59,438.77 137.25,615.16 -103.63,88.93 -301.51,9.17 -405.15,-148.83 -213.37,-92.87 -209.26,-150.96 -352.07,-318.78 -121.59,27.95 -464.95,57.15 -763.22,230.08z"/>
   </g>
   <g>
    <path class="fil0 str1" d="M9462.47 16789.09c35.28,-218.28 93.18,-372.29 52.39,-590.57 -152.14,-55.12 -163.22,-59.14 -315.36,-114.26 125.68,-24.25 183.59,-43.17 309.27,-67.42 -48.51,-175.29 -90.4,-300.97 -178.6,-466.34 -178.59,85.99 -420.02,180.26 -626.73,256.32 -1287.64,-584.52 -903.31,-3.78 -1736.71,484.61 -151.71,88.9 -375.77,149.18 -623.05,226.46 -151.32,100.94 -109.95,53.01 -67.25,180.4 108.04,28.66 256.87,154.74 364.91,183.4 198.44,110.24 416.74,206.03 615.18,316.27 429.95,-238.13 714.35,-395.64 1144.3,-633.77 368.21,108.04 693.44,116.86 1061.65,224.9z"/>
    <path id="1" class="fil8" d="M9462.47 16789.09c35.28,-218.28 93.18,-372.29 52.39,-590.57 -152.14,-55.12 -163.22,-59.14 -315.36,-114.26 125.68,-24.25 183.59,-43.17 309.27,-67.42 -48.51,-175.29 -90.4,-300.97 -178.6,-466.34 -178.59,85.99 -420.02,180.26 -626.73,256.32 -1287.64,-584.52 -903.31,-3.78 -1736.71,484.61 -151.71,88.9 -375.77,149.18 -623.05,226.46 -151.32,100.94 -109.95,53.01 -67.25,180.4 108.04,28.66 256.87,154.74 364.91,183.4 198.44,110.24 416.74,206.03 615.18,316.27 429.95,-238.13 714.35,-395.64 1144.3,-633.77 368.21,108.04 693.44,116.86 1061.65,224.9z"/>
   </g>
   <g>
    <path class="fil0 str4" d="M9947.53 5520.79c394.74,303.03 142.5,1392.91 509.37,1964.83 167.83,210.44 308.34,255.65 429.85,186.06"/>
   </g>
   <g>
    <path class="fil0 str4" d="M10456.9 7485.62c-539.08,42.31 -529.62,-637.56 -404.1,-1530.42 3.32,-162.26 -11.4,-316.34 -105.27,-434.41"/>
   </g>
   <g>
    <path class="fil0 str4" d="M9854.34 5476.01c-669.37,829.42 -402.05,1151.87 -1349.7,1403.6"/>
   </g>
   <g>
    <path class="fil0 str4" d="M10188.27 10231.19c182.18,813.14 642.47,1084.79 581.55,26.34"/>
   </g>
   <g>
    <path class="fil0 str4" d="M9957.56 9695.8c-65.43,613.44 51.78,1475.92 682.73,596.83"/>
   </g>
   <g>
    <path class="fil0 str4" d="M8092.41 10524.11c82.9,703.98 417.5,916.69 508.98,769.76 91.02,-146.19 61.69,-649.19 127.59,-1077.38"/>
   </g>
   <g>
    <path class="fil0 str4" d="M8325.45 10541.57c190.61,419.51 176.33,700.31 378.29,666.39 175.12,-29.41 80.25,-447.34 25.24,-991.47"/>
   </g>
   <g>
    <path class="fil0 str4" d="M7206.77 9335.43c-101.78,1275.68 -83.22,2449.39 741.78,1568.2"/>
   </g>
   <g>
    <path class="fil0 str4" d="M15455.13 12619.67c-51.79,-468.85 -358.28,-644.28 -624.07,-416.65"/>
   </g>
   <g>
    <path class="fil0 str4" d="M15569.25 7364.29c-602.77,-474.53 -958.13,-380.95 -2012.37,-221.68 -213.79,32.3 -403.71,-53.61 -680.83,-171.91"/>
   </g>
   <g>
    <path class="fil0 str4" d="M7117.8 6121.49c-285.55,960.27 -924.73,1533.12 -1437.41,733.47"/>
   </g>
   <g>
    <path class="fil0 str4" d="M6819.91 13902.64c68.08,42.68 169.06,31.75 228.31,-9.36 -127.05,-121.54 -179.7,-251.35 -249.7,-386.95 -243.32,-398.03 -162.66,-525.52 -451.54,-482.61"/>
   </g>
   <g>
    <path class="fil0 str4" d="M7155.61 13471.86c-38.07,-216.37 -31.78,-384.11 -214.99,-485.35"/>
   </g>
   <g>
    <path class="fil0 str4" d="M8215.6 13713.29c-265.82,-174.54 -423.66,-286.51 -693.13,-607.08"/>
   </g>
   <g>
    <path class="fil0 str4" d="M6507.52 13623.55c-34.01,-81.64 -90.39,-185.33 -142.07,-227.21"/>
   </g>
   <g>
    <path class="fil0 str1" d="M6477.16 15651.93c454.71,388.06 854.54,229.4 949.2,-248.05 -136.27,-762.98 -806.85,-577.36 -949.2,248.05z"/>
    <path id="1" class="fil17" d="M6477.16 15651.93c454.71,388.06 854.54,229.4 949.2,-248.05 -136.27,-762.98 -806.85,-577.36 -949.2,248.05z"/>
   </g>
   <g>
    <path class="fil0 str1" d="M6660.71 15772.62c289.34,199.54 670.99,108.71 765.65,-368.74 -43.66,-551.31 -623.3,-456.67 -765.65,368.74z"/>
    <path id="1" class="fil9" d="M6660.71 15772.62c289.34,199.54 670.99,108.71 765.65,-368.74 -43.66,-551.31 -623.3,-456.67 -765.65,368.74z"/>
   </g>
   <g>
    <path class="fil11" d="M5717.99 15608.43l37.68 98.88 0.01 0 -7.95 3.01 -8.37 3.1 -8.91 3.19 -9.42 3.19 -9.88 3.13 -10.39 3.03 -10.88 2.86 -11.32 2.61 -11.82 2.34 -12.34 1.98 -12.75 1.55 -13.2 1.09 -13.66 0.56 -14.09 -0.01 -14.51 -0.66 -14.9 -1.33 -15.27 -2.07 -15.64 -2.82 -16.01 -3.64 -16.33 -4.46 -16.69 -5.35 -17.02 -6.27 -17.36 -7.21 -17.66 -8.17 -18 -9.18 -18.36 -10.22 -18.71 -11.31 -19.03 -12.4 -19.43 -13.55 -19.8 -14.74 -20.19 -15.96 -20.59 -17.21 68.96 -80.28 18.41 15.41 17.85 14.1 17.26 12.86 16.71 11.65 16.15 10.52 15.57 9.41 15.02 8.36 14.48 7.38 13.94 6.45 13.4 5.57 12.88 4.73 12.37 3.97 11.91 3.26 11.43 2.6 11 1.98 10.59 1.43 10.2 0.91 9.85 0.44 9.51 0.01 9.24 -0.38 8.96 -0.75 8.75 -1.07 8.46 -1.36 8.3 -1.64 8.16 -1.89 7.96 -2.08 7.83 -2.29 7.72 -2.45 7.58 -2.57 7.51 -2.69 7.47 -2.76 7.35 -2.79 0.01 0zm96.93 -346.2l104.18 -18.6 0.69 5.55 1.24 20.35 0.83 20.11 0.4 19.82 -0.01 19.55 -0.41 19.24 -0.82 18.92 -1.21 18.6 -1.61 18.29 -2 17.92 -2.38 17.57 -2.77 17.17 -3.14 16.78 -3.52 16.41 -3.92 16.02 -4.29 15.58 -4.67 15.13 -5.05 14.71 -5.45 14.27 -5.86 13.8 -6.24 13.32 -6.67 12.84 -7.12 12.37 -7.57 11.83 -8.04 11.29 -8.54 10.74 -9.06 10.14 -9.6 9.5 -10.18 8.82 -10.74 8.07 -11.36 7.27 -11.93 6.35 -12.43 5.35 -37.68 -98.88 4.23 -1.83 4.33 -2.31 4.44 -2.85 4.62 -3.47 4.72 -4.1 4.82 -4.78 4.88 -5.46 4.9 -6.16 4.88 -6.87 4.83 -7.55 4.74 -8.23 4.63 -8.92 4.5 -9.58 4.32 -10.2 4.13 -10.83 3.93 -11.41 3.69 -12.01 3.47 -12.54 3.18 -13.06 2.92 -13.59 2.64 -14.1 2.35 -14.57 2.04 -14.99 1.72 -15.44 1.39 -15.85 1.05 -16.26 0.72 -16.64 0.37 -16.98 0.01 -17.33 -0.36 -17.64 -0.73 -17.95 -1.12 -18.25 0.69 5.55zm104.18 -18.6l0.49 2.75 0.2 2.8 -0.69 -5.55zm-564.94 268.48l-68.96 80.28 -15.46 -22.64 -24.24 -75.66 -18.63 -72.11 -13.26 -68.53 -8.14 -64.94 -3.24 -61.32 1.42 -57.71 5.89 -54.05 10.12 -50.34 14.2 -46.57 18.06 -42.67 21.72 -38.65 25.14 -34.44 28.31 -30.05 31.15 -25.41 33.63 -20.58 35.62 -15.51 37.17 -10.33 38.18 -5.06 38.7 0.23 38.72 5.5 38.3 10.64 37.48 15.73 36.29 20.67 34.79 25.5 32.99 30.25 30.91 34.9 28.59 39.5 26 44.02 23.21 48.51 20.14 53.01 16.83 57.46 13.31 61.89 -104.18 18.6 -11.73 -54.59 -14.59 -49.78 -17.12 -45.05 -19.31 -40.39 -21.16 -35.8 -22.65 -31.3 -23.83 -26.9 -24.67 -22.63 -25.21 -18.48 -25.47 -14.51 -25.44 -10.67 -25.22 -7.02 -24.82 -3.52 -24.26 -0.15 -23.62 3.12 -22.91 6.37 -22.12 9.63 -21.25 13 -20.23 16.51 -19.01 20.17 -17.54 24.04 -15.76 28.03 -13.6 32.15 -11.08 36.35 -8.18 40.64 -4.89 44.91 -1.2 49.19 2.82 53.46 7.22 57.68 11.98 61.87 17.07 66.03 22.48 70.16 -15.46 -22.64zm-68.96 80.28l-10.77 -9.25 -4.69 -13.39 15.46 22.64z"/>
    <path id="1" class="fil17" d="M5319.68 15552.25c210.64,180.95 337.06,136.15 417.15,105.62 90.01,-34.3 144.92,-197.68 130.18,-404.94 -115.38,-645.99 -826.99,-498.75 -547.33,299.32z"/>
   </g>
   <g>
    <path class="fil11" d="M5814.26 15257.11l105.5 -8.36 0.11 1.92 1.23 41.1 0.07 39.09 -1.09 37.14 -2.25 35.23 -3.43 33.36 -4.6 31.56 -5.83 29.81 -7.09 28.13 -8.41 26.47 -9.77 24.83 -11.22 23.22 -12.72 21.54 -14.29 19.83 -15.87 17.99 -17.42 16.01 -18.87 13.9 -20.16 11.67 -21.23 9.36 -22.09 7.1 -22.77 4.87 -23.33 2.79 -23.79 0.82 -24.19 -1 -24.62 -2.71 -25.07 -4.32 -25.5 -5.84 -25.98 -7.28 -26.49 -8.68 -27.02 -10.02 -27.56 -11.31 -28.12 -12.56 -28.71 -13.79 47.04 -94.8 26.19 12.59 25.3 11.3 24.38 10.01 23.42 8.68 22.39 7.34 21.32 5.98 20.22 4.64 19.05 3.28 17.84 1.97 16.59 0.7 15.31 -0.52 14.05 -1.67 12.85 -2.75 11.77 -3.76 10.83 -4.78 10.08 -5.83 9.53 -7.02 9.1 -8.37 8.75 -9.91 8.41 -11.69 8.04 -13.62 7.56 -15.66 7.01 -17.83 6.35 -20.03 5.61 -22.27 4.79 -24.53 3.92 -26.82 2.99 -29.1 1.99 -31.37 0.99 -33.68 -0.07 -35.97 -1.13 -38.3 0.11 1.92zm105.5 -8.36l0.06 0.77 0.05 1.15 -0.11 -1.92zm-481.04 305.43l-47.04 94.8 -29.38 -46.34 -0.14 -70.68 2.39 -66.78 4.78 -62.9 7.05 -59.05 9.17 -55.25 11.17 -51.51 13.06 -47.8 14.84 -44.12 16.51 -40.52 18.11 -36.94 19.65 -33.37 21.13 -29.86 22.64 -26.3 24.09 -22.66 25.56 -18.91 26.98 -14.93 28.24 -10.62 29.15 -5.97 29.52 -1.05 29.18 3.96 28.19 8.84 26.56 13.34 24.63 17.42 22.53 21.11 20.38 24.5 18.24 27.68 16.14 30.72 13.99 33.72 11.84 36.65 9.62 39.58 7.33 42.48 4.93 45.33 -105.5 8.36 -4.25 -39.09 -6.15 -35.7 -7.86 -32.32 -9.32 -28.87 -10.53 -25.38 -11.48 -21.88 -12.12 -18.4 -12.44 -14.96 -12.45 -11.69 -12.19 -8.64 -11.78 -5.94 -11.41 -3.58 -11.32 -1.54 -11.6 0.41 -12.27 2.53 -13.2 4.98 -14.14 7.83 -14.96 11.09 -15.51 14.6 -15.74 18.3 -15.69 22.16 -15.35 26.11 -14.75 30.06 -13.89 34.08 -12.8 38.12 -11.52 42.16 -10.03 46.23 -8.35 50.31 -6.49 54.41 -4.46 58.52 -2.23 62.66 0.12 66.84 -29.38 -46.34zm-47.04 94.8l-28.74 -14.26 -0.64 -32.08 29.38 46.34z"/>
    <path id="1" class="fil9" d="M5415.2 15601.58c296.65,147.21 470.38,86.44 451.81,-348.65 -36.97,-466.78 -466.88,-406.44 -451.81,348.65z"/>
   </g>
   <g>
    <path class="fil0 str1" d="M6176.84 15649.77c-303.87,558.37 97.04,740.2 116.86,363.98 5.15,-97.82 -86.18,-202.31 -116.86,-363.98z"/>
    <path id="1" class="fil9" d="M6176.84 15649.77c-303.87,558.37 97.04,740.2 116.86,363.98 5.15,-97.82 -86.18,-202.31 -116.86,-363.98z"/>
   </g>
   <g>
    <path class="fil0 str9" d="M5997.36 15596.42c-7.06,635.66 -402.73,622.02 -236.55,283.91 43.21,-87.9 150.76,-111.42 236.55,-283.91z"/>
    <path id="1" class="fil9" d="M5997.36 15596.42c-7.06,635.66 -402.73,622.02 -236.55,283.91 43.21,-87.9 150.76,-111.42 236.55,-283.91z"/>
   </g>
   <g>
    <path class="fil0 str4" d="M6932.01 14671.32c270.56,-61.88 498.93,15.58 681.31,244.74"/>
   </g>
   <g>
    <path class="fil0 str4" d="M5456.95 14529.1c140.72,-65.62 306.89,15.98 456.42,135.61"/>
   </g>
   <g>
    <path class="fil0 str4" d="M6346.99 16779.17c250.16,-47.78 652.45,-12.86 902.61,-60.64 286.63,-174.18 298.77,-351.68 585.4,-525.86"/>
   </g>
   <g>
    <path class="fil0 str4" d="M11973.72 12600.4c-157.97,-652.8 -431.27,-901.56 -708.94,-1329.05"/>
   </g>
   <g>
    <path class="fil0 str4" d="M8034.44 13024.18c49.46,-379.28 56.13,-642.11 -9.15,-1030.23"/>
   </g>
   <g>
    <path class="fil0 str10" d="M15954.02 5274.19c-2614.19,-3292.51 -7402.52,-3842.4 -10695.03,-1228.21 -3292.52,2614.18 -3842.41,7402.52 -1228.22,10695.03 2614.19,3292.51 7402.52,3842.4 10695.03,1228.21 3292.52,-2614.19 3842.41,-7402.52 1228.22,-10695.03z"/>
   </g>
  </g>
 </g>
</svg>
