<svg xmlns="http://www.w3.org/2000/svg" xmlns:xlink="http://www.w3.org/1999/xlink" width="64" height="64" viewBox="0 0 64 64">
  <defs>
    <style>
      .cls-1 {
        fill: #fff;
      }

      .cls-2 {
        clip-path: url(#clip-path);
      }

      .cls-10, .cls-12, .cls-14, .cls-18, .cls-19, .cls-20, .cls-21, .cls-22, .cls-23, .cls-24, .cls-25, .cls-3, .cls-5, .cls-7 {
        fill: none;
      }

      .cls-24, .cls-26, .cls-3 {
        stroke: #c61817;
      }

      .cls-10, .cls-12, .cls-14, .cls-16, .cls-18, .cls-19, .cls-20, .cls-21, .cls-22, .cls-23, .cls-24, .cls-25, .cls-26, .cls-3, .cls-5, .cls-7 {
        stroke-miterlimit: 22.926;
      }

      .cls-3 {
        stroke-width: 3.704px;
      }

      .cls-10, .cls-11, .cls-12, .cls-13, .cls-14, .cls-15, .cls-18, .cls-19, .cls-20, .cls-21, .cls-23, .cls-24, .cls-26, .cls-3, .cls-5, .cls-6, .cls-7, .cls-8, .cls-9 {
        fill-rule: evenodd;
      }

      .cls-4, .cls-6 {
        fill: #282829;
      }

      .cls-5 {
        stroke: #fefefe;
      }

      .cls-12, .cls-5, .cls-7 {
        stroke-width: 0.247px;
      }

      .cls-10, .cls-18, .cls-19, .cls-22, .cls-23, .cls-7 {
        stroke: #282829;
      }

      .cls-8 {
        fill: #f8f8f8;
      }

      .cls-26, .cls-9 {
        fill: #c61817;
      }

      .cls-10 {
        stroke-width: 0.494px;
      }

      .cls-11, .cls-17 {
        fill: #fefefe;
      }

      .cls-12 {
        stroke: #a9abae;
      }

      .cls-13 {
        fill: #d2d3d5;
      }

      .cls-14, .cls-16 {
        stroke: #f0a400;
      }

      .cls-14, .cls-16, .cls-25, .cls-26 {
        stroke-width: 0.07px;
      }

      .cls-15 {
        fill: #f5c400;
      }

      .cls-16 {
        fill: #f0a400;
      }

      .cls-18 {
        stroke-width: 0.123px;
      }

      .cls-19, .cls-21, .cls-22 {
        stroke-width: 0.185px;
      }

      .cls-20, .cls-21 {
        stroke: #570000;
      }

      .cls-20 {
        stroke-width: 0.37px;
      }

      .cls-23 {
        stroke-width: 0.21px;
      }

      .cls-24 {
        stroke-width: 1.542px;
      }

      .cls-25 {
        stroke: #f58634;
      }
    </style>
    <clipPath id="clip-path">
      <circle id="Ellipse_1807" data-name="Ellipse 1807" class="cls-1" cx="32" cy="32" r="32" transform="translate(-24807 -23674)"/>
    </clipPath>
  </defs>
  <g id="Mask_Group_2" data-name="Mask Group 2" class="cls-2" transform="translate(24807 23674)">
    <g id="Capa_x0020_1" transform="translate(-24809.969 -23677.023)">
      <g id="_2874730604944">
        <g id="Group_630" data-name="Group 630">
          <path id="Path_10" data-name="Path 10" class="cls-3" d="M34.969,5.892A29.131,29.131,0,1,0,64.1,35.023,29.131,29.131,0,0,0,34.969,5.892Z"/>
        </g>
        <circle id="Ellipse_1808" data-name="Ellipse 1808" class="cls-4" cx="29.63" cy="29.63" r="29.63" transform="matrix(0.997, 0.083, -0.083, 0.997, 7.916, 3.023)"/>
        <g id="Group_631" data-name="Group 631">
          <path id="Path_11" data-name="Path 11" class="cls-5" d="M27.525,28.613a5,5,0,0,0,.183,1.528c.194.7.561,1.484.33,2.044a2.192,2.192,0,0,0,.451-.957,3.5,3.5,0,0,1,0,2.1s.538-.456.581-.711a3.083,3.083,0,0,0,.256,1.233c.758,1.184.582-1.17.421-2.1-.218-1.258-2.164-4.073-2.226-3.136Z"/>
          <path id="_1" data-name="1" class="cls-6" d="M27.525,28.613a5,5,0,0,0,.183,1.528c.194.7.561,1.484.33,2.044a2.192,2.192,0,0,0,.451-.957,3.5,3.5,0,0,1,0,2.1s.538-.456.581-.711a3.083,3.083,0,0,0,.256,1.233c.758,1.184.582-1.17.421-2.1-.218-1.258-2.164-4.073-2.226-3.136Z"/>
        </g>
        <g id="Group_632" data-name="Group 632">
          <path id="Path_12" data-name="Path 12" class="cls-7" d="M39.166,26.711c.092-.216.087-1.148.35-1.134a.45.45,0,0,1,.4.656,3.134,3.134,0,0,1-.594,1.116c-.074.076-.351.451-.3.042a2.839,2.839,0,0,1,.136-.68Z"/>
          <path id="_1-2" data-name="1" class="cls-8" d="M39.166,26.711c.092-.216.087-1.148.35-1.134a.45.45,0,0,1,.4.656,3.134,3.134,0,0,1-.594,1.116c-.074.076-.351.451-.3.042a2.839,2.839,0,0,1,.136-.68Z"/>
        </g>
        <g id="Group_633" data-name="Group 633">
          <path id="Path_13" data-name="Path 13" class="cls-7" d="M17.291,48.549c-.03-.109-.249-4.314-.137-4.521a2.671,2.671,0,0,1,.556-.949,44.565,44.565,0,0,1,4.334-2.957,12.349,12.349,0,0,0,.926-.844c1.33-1.088,2.952-2.48,4.019-3.387.323-.274.006-1.066.358-1.083a11.162,11.162,0,0,0,2.2.049c1.993-.406,4.879-.972,10.639,2.742.588.379.138,1.619,1.055,2.68,1.1,1.278,3.621,2.5,4.8,4.409.3.485,1.2,1.559,1.478,2.059,2.01,3.56,2.871,7.069,1.845,9.811a20.163,20.163,0,0,1-4.646,2.714A36.661,36.661,0,0,1,32.8,60.879a17.6,17.6,0,0,1-4.823-.933c-4.294-1.477-7.47-2.433-10.553-5.88a7.706,7.706,0,0,0-.123-3.392c-.233-.612.07-1.854-.006-2.125Z"/>
          <path id="_1-3" data-name="1" class="cls-9" d="M17.291,48.549c-.03-.109-.249-4.314-.137-4.521a2.671,2.671,0,0,1,.556-.949,44.565,44.565,0,0,1,4.334-2.957,12.349,12.349,0,0,0,.926-.844c1.33-1.088,2.952-2.48,4.019-3.387.323-.274.006-1.066.358-1.083a11.162,11.162,0,0,0,2.2.049c1.993-.406,4.879-.972,10.639,2.742.588.379.138,1.619,1.055,2.68,1.1,1.278,3.621,2.5,4.8,4.409.3.485,1.2,1.559,1.478,2.059,2.01,3.56,2.871,7.069,1.845,9.811a20.163,20.163,0,0,1-4.646,2.714A36.661,36.661,0,0,1,32.8,60.879a17.6,17.6,0,0,1-4.823-.933c-4.294-1.477-7.47-2.433-10.553-5.88a7.706,7.706,0,0,0-.123-3.392c-.233-.612.07-1.854-.006-2.125Z"/>
        </g>
        <g id="Group_634" data-name="Group 634">
          <path id="Path_14" data-name="Path 14" class="cls-7" d="M29.252,31.789s.481,3.4.216,3.943c0,0-.616.675-1.134,1.155-3.651,3.386,1.66,9.77,2.522,13.627,2.009,9,.3,11.583,9.749,10.242a3.912,3.912,0,0,0,2.283-.986c.59-1.8,1.333-5.054.9-6.556-1.051-3.654-1.542-6.67-2.877-10.231-.548-1.461.059-2.658-.932-3.282A41.689,41.689,0,0,1,36.6,37.185s.1-.688.509-3.453c.146-1,.578-1.411-2.062-1.3a14.961,14.961,0,0,1-5.793-.643Z"/>
          <path id="_1-4" data-name="1" class="cls-8" d="M29.252,31.789s.481,3.4.216,3.943c0,0-.616.675-1.134,1.155-3.651,3.386,1.66,9.77,2.522,13.627,2.009,9,.3,11.583,9.749,10.242a3.912,3.912,0,0,0,2.283-.986c.59-1.8,1.333-5.054.9-6.556-1.051-3.654-1.542-6.67-2.877-10.231-.548-1.461.059-2.658-.932-3.282A41.689,41.689,0,0,1,36.6,37.185s.1-.688.509-3.453c.146-1,.578-1.411-2.062-1.3a14.961,14.961,0,0,1-5.793-.643Z"/>
        </g>
        <path id="Path_15" data-name="Path 15" class="cls-9" d="M48.3,39.2c.064-.2.217-.477.477-.394.122.039.194.321.194.438,0,.3-.538.147-.6.1s-.091-.063-.07-.147Z"/>
        <g id="Group_635" data-name="Group 635">
          <path id="Path_16" data-name="Path 16" class="cls-7" d="M28.753,46.737a5.283,5.283,0,0,1-.509,2.413,4.825,4.825,0,0,1-1.316,1.293.665.665,0,0,0-.16.783c.509,1.3,2.841,3.4,4.452,5.595C32.562,58.652,32.762,60.864,33.2,61a11.543,11.543,0,0,0,1.761.045c0-.357-.391-3.057-.766-4.924a19.609,19.609,0,0,0-.527-2.066,75.011,75.011,0,0,0-4.918-7.32Z"/>
          <path id="_1-5" data-name="1" class="cls-9" d="M28.753,46.737a5.283,5.283,0,0,1-.509,2.413,4.825,4.825,0,0,1-1.316,1.293.665.665,0,0,0-.16.783c.509,1.3,2.841,3.4,4.452,5.595C32.562,58.652,32.762,60.864,33.2,61a11.543,11.543,0,0,0,1.761.045c0-.357-.391-3.057-.766-4.924a19.609,19.609,0,0,0-.527-2.066,75.011,75.011,0,0,0-4.918-7.32Z"/>
        </g>
        <g id="Group_636" data-name="Group 636">
          <path id="Path_17" data-name="Path 17" class="cls-7" d="M26.486,26.6c.014.488.593,2.929,1.7,2.51.021.02.076.253.19.573a14.6,14.6,0,0,0,.7,1.979,8.249,8.249,0,0,0,2.845,2.755,4.38,4.38,0,0,0,2.891.365c2.4-.5,2.756-2,3.413-3.957a24.588,24.588,0,0,0,.914-2.566,15.161,15.161,0,0,0-.08-2.7c-.065-2.638.542-4.487-1.6-6.443-1.4-1.284-5.579-1.269-7.039-.056-4.3,3.566-2.763,6.51-2.763,6.51-.125.176-.406-.4-.665-.451C26.773,25.075,26.456,25.51,26.486,26.6Z"/>
          <path id="_1-6" data-name="1" class="cls-8" d="M26.486,26.6c.014.488.593,2.929,1.7,2.51.021.02.076.253.19.573a14.6,14.6,0,0,0,.7,1.979,8.249,8.249,0,0,0,2.845,2.755,4.38,4.38,0,0,0,2.891.365c2.4-.5,2.756-2,3.413-3.957a24.588,24.588,0,0,0,.914-2.566,15.161,15.161,0,0,0-.08-2.7c-.065-2.638.542-4.487-1.6-6.443-1.4-1.284-5.579-1.269-7.039-.056-4.3,3.566-2.763,6.51-2.763,6.51-.125.176-.406-.4-.665-.451C26.773,25.075,26.456,25.51,26.486,26.6Z"/>
        </g>
        <g id="Group_637" data-name="Group 637">
          <path id="Path_18" data-name="Path 18" class="cls-7" d="M42.606,60.009A6.945,6.945,0,0,0,43.13,57.8c.093-1.114-.456-2.864-.558-4.307-.057-.809.058-6.5.9-5.654,1.046,1.05,1.221,1.06,1.558,1.437a1.573,1.573,0,0,1,.531,1.564,17.555,17.555,0,0,1-.771,3.673c-.35,1.032-1.615,5.2-1.615,5.2C43.15,59.718,42.606,60.009,42.606,60.009Z"/>
          <path id="_1-7" data-name="1" class="cls-9" d="M42.606,60.009A6.945,6.945,0,0,0,43.13,57.8c.093-1.114-.456-2.864-.558-4.307-.057-.809.058-6.5.9-5.654,1.046,1.05,1.221,1.06,1.558,1.437a1.573,1.573,0,0,1,.531,1.564,17.555,17.555,0,0,1-.771,3.673c-.35,1.032-1.615,5.2-1.615,5.2C43.15,59.718,42.606,60.009,42.606,60.009Z"/>
        </g>
        <g id="Group_638" data-name="Group 638">
          <path id="Path_19" data-name="Path 19" class="cls-10" d="M35.326,26.186a2.164,2.164,0,0,1,1.385-.97,5.535,5.535,0,0,1,1.632.293.567.567,0,0,0,.4-.012,6.081,6.081,0,0,1-.692.331,5.467,5.467,0,0,1-.771.268A7.146,7.146,0,0,1,36,26.1c-.057,0-.671.09-.67.089Z"/>
          <path id="_1-8" data-name="1" class="cls-11" d="M35.326,26.186a2.164,2.164,0,0,1,1.385-.97,5.535,5.535,0,0,1,1.632.293.567.567,0,0,0,.4-.012,6.081,6.081,0,0,1-.692.331,5.467,5.467,0,0,1-.771.268A7.146,7.146,0,0,1,36,26.1c-.057,0-.671.09-.67.089Z"/>
        </g>
        <g id="Group_639" data-name="Group 639">
          <path id="Path_20" data-name="Path 20" class="cls-5" d="M26.581,25.217c-.455-.756-.11-1.305-.182-2.269-.05-.673.384-3.214.96-3.449a5.2,5.2,0,0,1-.021-3.148,5.7,5.7,0,0,1,.885-1.491,5.059,5.059,0,0,1,.892-.826,5.223,5.223,0,0,0-.51.889,2.318,2.318,0,0,0-.174.794,1.884,1.884,0,0,1,.676-.936c1.215-1.036,3.439-1.34,5.4-1.124a6.233,6.233,0,0,1,2.572.811,1.132,1.132,0,0,0-.358-.045,4.365,4.365,0,0,0-.6.089,11.094,11.094,0,0,1,1.4.172,5.823,5.823,0,0,1,.825.226,1.02,1.02,0,0,0-.381.057.417.417,0,0,0-.2.137,3.948,3.948,0,0,0,.928.365,2.526,2.526,0,0,0,.765.031,1.647,1.647,0,0,1-.653.188,5.163,5.163,0,0,1-.894-.057,6.427,6.427,0,0,1,1.114.51c1.181,1.034,1.966.334,1.966.334a1.118,1.118,0,0,1-.633.593,4.966,4.966,0,0,1-1.173.053,2.042,2.042,0,0,1,.933.47,4.005,4.005,0,0,1,1.418,2.317,2.318,2.318,0,0,1-.483,2.48,2.388,2.388,0,0,0,.14-.7A3.944,3.944,0,0,0,40.9,20.6c.151,2.709-.348,2.747-1.53,5.059-.332.65.6.618-.836,2.348-.292.351.058,1.029.058,1.029s-.265-.058-.513-.566c-.384-.785,1.321-1.3.37-2.222-1.387-1.341.942-3.086-.121-4.787a8.194,8.194,0,0,0-1.053-1.241,2,2,0,0,0-.667-.376c.7,1.154.518,1.872-.232,3.624a3.16,3.16,0,0,0-.743-3.181,6.536,6.536,0,0,0-1.34-1.24A5.045,5.045,0,0,1,35.3,21.3a8.327,8.327,0,0,1-.179,2.177,9.065,9.065,0,0,1-1.53,3.285,7.649,7.649,0,0,0,.64-1.9,3.485,3.485,0,0,0-.07-1.78,3.47,3.47,0,0,0-.579,2.8c-.077-.038-1.441-.457-.7-2.8a3.491,3.491,0,0,0-.524-3.161,2.534,2.534,0,0,1-1.528,3.349,3.061,3.061,0,0,0,.673-2.031,2.546,2.546,0,0,0-.725-1.31c.154,1.072-2.148,2.574-1.286,3.886a2.5,2.5,0,0,1,.044-2.961A6.363,6.363,0,0,0,28.3,23.4a9.5,9.5,0,0,0-.285,2.02c-.066.95.061,2.9,1.222,3.223-1.608-.19-2.049-1.962-1.934-3.3-.227-.188-.472-.38-.726-.135Z"/>
          <path id="_1-9" data-name="1" class="cls-6" d="M26.581,25.217c-.455-.756-.11-1.305-.182-2.269-.05-.673.384-3.214.96-3.449a5.2,5.2,0,0,1-.021-3.148,5.7,5.7,0,0,1,.885-1.491,5.059,5.059,0,0,1,.892-.826,5.223,5.223,0,0,0-.51.889,2.318,2.318,0,0,0-.174.794,1.884,1.884,0,0,1,.676-.936c1.215-1.036,3.439-1.34,5.4-1.124a6.233,6.233,0,0,1,2.572.811,1.132,1.132,0,0,0-.358-.045,4.365,4.365,0,0,0-.6.089,11.094,11.094,0,0,1,1.4.172,5.823,5.823,0,0,1,.825.226,1.02,1.02,0,0,0-.381.057.417.417,0,0,0-.2.137,3.948,3.948,0,0,0,.928.365,2.526,2.526,0,0,0,.765.031,1.647,1.647,0,0,1-.653.188,5.163,5.163,0,0,1-.894-.057,6.427,6.427,0,0,1,1.114.51c1.181,1.034,1.966.334,1.966.334a1.118,1.118,0,0,1-.633.593,4.966,4.966,0,0,1-1.173.053,2.042,2.042,0,0,1,.933.47,4.005,4.005,0,0,1,1.418,2.317,2.318,2.318,0,0,1-.483,2.48,2.388,2.388,0,0,0,.14-.7A3.944,3.944,0,0,0,40.9,20.6c.151,2.709-.348,2.747-1.53,5.059-.332.65.6.618-.836,2.348-.292.351.058,1.029.058,1.029s-.265-.058-.513-.566c-.384-.785,1.321-1.3.37-2.222-1.387-1.341.942-3.086-.121-4.787a8.194,8.194,0,0,0-1.053-1.241,2,2,0,0,0-.667-.376c.7,1.154.518,1.872-.232,3.624a3.16,3.16,0,0,0-.743-3.181,6.536,6.536,0,0,0-1.34-1.24A5.045,5.045,0,0,1,35.3,21.3a8.327,8.327,0,0,1-.179,2.177,9.065,9.065,0,0,1-1.53,3.285,7.649,7.649,0,0,0,.64-1.9,3.485,3.485,0,0,0-.07-1.78,3.47,3.47,0,0,0-.579,2.8c-.077-.038-1.441-.457-.7-2.8a3.491,3.491,0,0,0-.524-3.161,2.534,2.534,0,0,1-1.528,3.349,3.061,3.061,0,0,0,.673-2.031,2.546,2.546,0,0,0-.725-1.31c.154,1.072-2.148,2.574-1.286,3.886a2.5,2.5,0,0,1,.044-2.961A6.363,6.363,0,0,0,28.3,23.4a9.5,9.5,0,0,0-.285,2.02c-.066.95.061,2.9,1.222,3.223-1.608-.19-2.049-1.962-1.934-3.3-.227-.188-.472-.38-.726-.135Z"/>
        </g>
        <g id="Group_640" data-name="Group 640">
          <path id="Path_21" data-name="Path 21" class="cls-7" d="M49.5,36.745c.139-.3.322-.1.576,1,.271,1.17.673,1.852.448,1.834-.746-.059-1.436-1.94-1.024-2.833Z"/>
          <path id="_1-10" data-name="1" class="cls-8" d="M49.5,36.745c.139-.3.322-.1.576,1,.271,1.17.673,1.852.448,1.834-.746-.059-1.436-1.94-1.024-2.833Z"/>
        </g>
        <g id="Group_641" data-name="Group 641">
          <path id="Path_22" data-name="Path 22" class="cls-7" d="M34.1,55.781c-.441-.476-.917-1.532-1.721-2.659-1.756-2.463-5.785-8.073-8.232-11.9-.646-1.01-1.548-1.916-1.833-2.582-.008-.018,1.047-.05,1.392-.483,2.057-2.587,3.409-3.341,3.476-3.344.261-.011.879.039.879.039.023.164-.167.407-.566,1.088-.268.457.641,2.328,1.489,4.463.4,1,.564,2.15.95,3.147.741,1.913,1.632,3.513,1.872,4.154a51.921,51.921,0,0,1,1.75,5.87c.224.937.329,1.352.545,2.2Z"/>
          <path id="_1-11" data-name="1" class="cls-9" d="M34.1,55.781c-.441-.476-.917-1.532-1.721-2.659-1.756-2.463-5.785-8.073-8.232-11.9-.646-1.01-1.548-1.916-1.833-2.582-.008-.018,1.047-.05,1.392-.483,2.057-2.587,3.409-3.341,3.476-3.344.261-.011.879.039.879.039.023.164-.167.407-.566,1.088-.268.457.641,2.328,1.489,4.463.4,1,.564,2.15.95,3.147.741,1.913,1.632,3.513,1.872,4.154a51.921,51.921,0,0,1,1.75,5.87c.224.937.329,1.352.545,2.2Z"/>
        </g>
        <g id="Group_642" data-name="Group 642">
          <path id="Path_23" data-name="Path 23" class="cls-7" d="M42.591,53.709s-1.3-6.228-1.31-6.254c-.339-.874-.322-1.987-.823-3.081a19.338,19.338,0,0,0-.833-2.4c-.452-.8-.71-2.8-1.466-4.115-.494-.859-.086-1.317-.409-1.675,0,0,2.9,1.251,3.619,2.653.831,1.613,3.508,3.112,4.132,3.412,0,0-.422,1.435-.875,2.8-.428,1.287-.974,2.992-1.33,4.492a24.513,24.513,0,0,0-.705,4.169Z"/>
          <path id="_1-12" data-name="1" class="cls-9" d="M42.591,53.709s-1.3-6.228-1.31-6.254c-.339-.874-.322-1.987-.823-3.081a19.338,19.338,0,0,0-.833-2.4c-.452-.8-.71-2.8-1.466-4.115-.494-.859-.086-1.317-.409-1.675,0,0,2.9,1.251,3.619,2.653.831,1.613,3.508,3.112,4.132,3.412,0,0-.422,1.435-.875,2.8-.428,1.287-.974,2.992-1.33,4.492a24.513,24.513,0,0,0-.705,4.169Z"/>
        </g>
        <g id="Group_643" data-name="Group 643">
          <path id="Path_24" data-name="Path 24" class="cls-7" d="M47.765,38.484l6.2-.41.028.423-6.2.41Z"/>
          <path id="_1-13" data-name="1" class="cls-8" d="M47.765,38.484l6.2-.41.028.423-6.2.41Z"/>
        </g>
        <g id="Group_644" data-name="Group 644">
          <path id="Path_25" data-name="Path 25" class="cls-7" d="M46.465,45.388c.532-1.5,1.562-1.69,1.52-3.315a7.644,7.644,0,0,1,.058-2.377c.167-.534.491-.788.822-.539.468.352.022,1.861.226,2.441.056.159.238.134.407.134a1.923,1.923,0,0,0,.494-.078c.214-.124-.151-.788-.09-1.529,0,0-1.426-1.877-1.332-2.968.033-.382.456.287,1.08,1.038a5.534,5.534,0,0,1,.918,1.184c.183.549.634,2.3,1.038,3.612.122.4.412.572.482.875a2.039,2.039,0,0,1-.116.877c0,.09.1.087.088.322-.028.469-2.523,3.887-2.575,4.732a9.859,9.859,0,0,0,.416,3.841c-.877.31-3-1.31-3.228-2.437.407-2.505-.5-4.978-.208-5.81Z"/>
          <path id="_1-14" data-name="1" class="cls-8" d="M46.465,45.388c.532-1.5,1.562-1.69,1.52-3.315a7.644,7.644,0,0,1,.058-2.377c.167-.534.491-.788.822-.539.468.352.022,1.861.226,2.441.056.159.238.134.407.134a1.923,1.923,0,0,0,.494-.078c.214-.124-.151-.788-.09-1.529,0,0-1.426-1.877-1.332-2.968.033-.382.456.287,1.08,1.038a5.534,5.534,0,0,1,.918,1.184c.183.549.634,2.3,1.038,3.612.122.4.412.572.482.875a2.039,2.039,0,0,1-.116.877c0,.09.1.087.088.322-.028.469-2.523,3.887-2.575,4.732a9.859,9.859,0,0,0,.416,3.841c-.877.31-3-1.31-3.228-2.437.407-2.505-.5-4.978-.208-5.81Z"/>
        </g>
        <g id="Group_645" data-name="Group 645">
          <path id="Path_26" data-name="Path 26" class="cls-7" d="M46.094,41.756c-.044.054.037.269.27.416a2.074,2.074,0,0,0,.98.205,8.063,8.063,0,0,1,2.164.1c.235.081.265.248.428.46a5.8,5.8,0,0,1,.732.957c.3.514.522-.477.522-.8,0-.686.055-.487-.691-1.065-.772-.6-.248-.557-1.608-.485-.9.048-2.8.21-2.8.21Z"/>
          <path id="_1-15" data-name="1" class="cls-8" d="M46.094,41.756c-.044.054.037.269.27.416a2.074,2.074,0,0,0,.98.205,8.063,8.063,0,0,1,2.164.1c.235.081.265.248.428.46a5.8,5.8,0,0,1,.732.957c.3.514.522-.477.522-.8,0-.686.055-.487-.691-1.065-.772-.6-.248-.557-1.608-.485-.9.048-2.8.21-2.8.21Z"/>
        </g>
        <g id="Group_646" data-name="Group 646">
          <path id="Path_27" data-name="Path 27" class="cls-7" d="M51.02,43.878c-.533-.364-.437-.985-1.449-.937-.188.009-.772-.062-1.1-.062a12.119,12.119,0,0,0-2.034.09,1.082,1.082,0,0,0,.267.594c.13.157.835.077,1.5.112.057,0,1.522.243,1.523.247a5.073,5.073,0,0,1,.408,1.464,5.2,5.2,0,0,0-.006.654c.027.066,1.973-1.419.886-2.162Z"/>
          <path id="_1-16" data-name="1" class="cls-8" d="M51.02,43.878c-.533-.364-.437-.985-1.449-.937-.188.009-.772-.062-1.1-.062a12.119,12.119,0,0,0-2.034.09,1.082,1.082,0,0,0,.267.594c.13.157.835.077,1.5.112.057,0,1.522.243,1.523.247a5.073,5.073,0,0,1,.408,1.464,5.2,5.2,0,0,0-.006.654c.027.066,1.973-1.419.886-2.162Z"/>
        </g>
        <g id="Group_647" data-name="Group 647">
          <path id="Path_28" data-name="Path 28" class="cls-12" d="M54.8,37.245a.924.924,0,0,0-.184-1.261c-.493-.435-1.4-.057-2.366-.318-2.289-.616-2.331-2.919-1.118-4.483a4.873,4.873,0,0,1,2.953-1.431,3.753,3.753,0,0,0-1.116.471c-.733.473-1.483,1.278-1.418,1.971A1.5,1.5,0,0,0,53.1,33.725,2.4,2.4,0,0,1,54.8,37.245Z"/>
          <path id="_1-17" data-name="1" class="cls-13" d="M54.8,37.245a.924.924,0,0,0-.184-1.261c-.493-.435-1.4-.057-2.366-.318-2.289-.616-2.331-2.919-1.118-4.483a4.873,4.873,0,0,1,2.953-1.431,3.753,3.753,0,0,0-1.116.471c-.733.473-1.483,1.278-1.418,1.971A1.5,1.5,0,0,0,53.1,33.725,2.4,2.4,0,0,1,54.8,37.245Z"/>
        </g>
        <g id="Group_648" data-name="Group 648">
          <path id="Path_29" data-name="Path 29" class="cls-12" d="M54.271,31.643a2.4,2.4,0,0,0,1.5-1.608,2.334,2.334,0,0,0,.019-1.713c-.351-.925-1.286-.644-2.49-.917-1.226-.278-2.354-1.194-1.059-2.573A3.694,3.694,0,0,1,54.7,23.611c-1.095.271-2.411,2.194-.617,2.227A2.582,2.582,0,0,1,56.777,28.4c.009,1.418-1.055,3.1-2.506,3.24Z"/>
          <path id="_1-18" data-name="1" class="cls-13" d="M54.271,31.643a2.4,2.4,0,0,0,1.5-1.608,2.334,2.334,0,0,0,.019-1.713c-.351-.925-1.286-.644-2.49-.917-1.226-.278-2.354-1.194-1.059-2.573A3.694,3.694,0,0,1,54.7,23.611c-1.095.271-2.411,2.194-.617,2.227A2.582,2.582,0,0,1,56.777,28.4c.009,1.418-1.055,3.1-2.506,3.24Z"/>
        </g>
        <path id="Path_30" data-name="Path 30" class="cls-9" d="M45.586,41.747a2.131,2.131,0,0,0,1.206.125c.211-.04.254-.151.252-.195,0,0-1.473.06-1.459.069Z"/>
        <path id="Path_31" data-name="Path 31" class="cls-9" d="M48.471,36.194a2.954,2.954,0,0,0,.447,1.376.539.539,0,0,0,.4.21s-.844-1.6-.846-1.586Z"/>
        <path id="Path_32" data-name="Path 32" class="cls-9" d="M49.578,35.966a2.12,2.12,0,0,0,.088,1.223.542.542,0,0,0,.35.287s-.017-.071-.049-.182c-.115-.4-.386-1.341-.389-1.328Z"/>
        <path id="Path_33" data-name="Path 33" class="cls-9" d="M45.834,42.932a2.131,2.131,0,0,0,1.206.125c.211-.04.254-.151.252-.195C47.292,42.863,45.819,42.923,45.834,42.932Z"/>
        <g id="Group_649" data-name="Group 649">
          <path id="Path_34" data-name="Path 34" class="cls-7" d="M44.241,59.4c.6-3.006.969-5.78,1.682-8.8.12-.509-.083-1.038.627-.28A15.3,15.3,0,0,0,48.064,52.1a17.632,17.632,0,0,0,2.53,1.326,2.4,2.4,0,0,1,.748.5c.269.608-.047.7-.047,1.363,0,.354-2.913,2.158-3.392,2.445C47.693,57.865,44.227,59.47,44.241,59.4Z"/>
          <path id="_1-19" data-name="1" class="cls-9" d="M44.241,59.4c.6-3.006.969-5.78,1.682-8.8.12-.509-.083-1.038.627-.28A15.3,15.3,0,0,0,48.064,52.1a17.632,17.632,0,0,0,2.53,1.326,2.4,2.4,0,0,1,.748.5c.269.608-.047.7-.047,1.363,0,.354-2.913,2.158-3.392,2.445C47.693,57.865,44.227,59.47,44.241,59.4Z"/>
        </g>
        <g id="Group_650" data-name="Group 650">
          <path id="Path_35" data-name="Path 35" class="cls-10" d="M32.489,26.265a2.164,2.164,0,0,0-1.385-.97,6.213,6.213,0,0,0-1.747.251,1.585,1.585,0,0,1-.572.007,5.351,5.351,0,0,0,.859.431,4.724,4.724,0,0,0,.9.245,7.178,7.178,0,0,0,1.277-.052C31.876,26.176,32.49,26.267,32.489,26.265Z"/>
          <path id="_1-20" data-name="1" class="cls-11" d="M32.489,26.265a2.164,2.164,0,0,0-1.385-.97,6.213,6.213,0,0,0-1.747.251,1.585,1.585,0,0,1-.572.007,5.351,5.351,0,0,0,.859.431,4.724,4.724,0,0,0,.9.245,7.178,7.178,0,0,0,1.277-.052C31.876,26.176,32.49,26.267,32.489,26.265Z"/>
        </g>
        <g id="Group_651" data-name="Group 651">
          <path id="Path_36" data-name="Path 36" class="cls-14" d="M31.008,25.657a.534.534,0,0,1-1.068,0,.361.361,0,0,1,.066-.247,3.326,3.326,0,0,1,.724-.123c.1,0,.137-.007.137-.007a.539.539,0,0,1,.142.378Z"/>
          <path id="_1-21" data-name="1" class="cls-15" d="M31.008,25.657a.534.534,0,0,1-1.068,0,.361.361,0,0,1,.066-.247,3.326,3.326,0,0,1,.724-.123c.1,0,.137-.007.137-.007a.539.539,0,0,1,.142.378Z"/>
        </g>
        <circle id="Ellipse_1809" data-name="Ellipse 1809" class="cls-16" cx="0.21" cy="0.21" r="0.21" transform="translate(30.264 25.507)"/>
        <circle id="Ellipse_1810" data-name="Ellipse 1810" class="cls-17" cx="0.165" cy="0.165" r="0.165" transform="translate(29.989 25.413)"/>
        <g id="Group_652" data-name="Group 652">
          <path id="Path_37" data-name="Path 37" class="cls-14" d="M36.98,25.631a.5.5,0,0,1-.99,0c0-.115.024-.144.076-.17s.095-.055.136-.075a1.522,1.522,0,0,1,.63-.183C36.913,25.2,36.98,25.506,36.98,25.631Z"/>
          <path id="_1-22" data-name="1" class="cls-15" d="M36.98,25.631a.5.5,0,0,1-.99,0c0-.115.024-.144.076-.17s.095-.055.136-.075a1.522,1.522,0,0,1,.63-.183C36.913,25.2,36.98,25.506,36.98,25.631Z"/>
        </g>
        <circle id="Ellipse_1811" data-name="Ellipse 1811" class="cls-16" cx="0.21" cy="0.21" r="0.21" transform="translate(36.293 25.485)"/>
        <circle id="Ellipse_1812" data-name="Ellipse 1812" class="cls-17" cx="0.165" cy="0.165" r="0.165" transform="translate(36.038 25.45)"/>
        <g id="Group_653" data-name="Group 653">
          <path id="Path_38" data-name="Path 38" class="cls-18" d="M35.538,25.358c.339-.608.91-.528,1.578-.637"/>
        </g>
        <g id="Group_654" data-name="Group 654">
          <path id="Path_39" data-name="Path 39" class="cls-18" d="M30.486,24.833a2.121,2.121,0,0,1,1.748.552"/>
        </g>
        <g id="Group_655" data-name="Group 655">
          <path id="Path_40" data-name="Path 40" class="cls-7" d="M29.628,24.9a.945.945,0,0,0,.709.314"/>
        </g>
        <g id="Group_656" data-name="Group 656">
          <path id="Path_41" data-name="Path 41" class="cls-7" d="M29.22,25.027a.492.492,0,0,0,.607.276"/>
        </g>
        <g id="Group_657" data-name="Group 657">
          <path id="Path_42" data-name="Path 42" class="cls-18" d="M30.389,24.2a4.156,4.156,0,0,1,1.788.461,2.41,2.41,0,0,0-.047-.491,2.509,2.509,0,0,0-1.741.03Z"/>
          <path id="_1-23" data-name="1" class="cls-6" d="M30.389,24.2a4.156,4.156,0,0,1,1.788.461,2.41,2.41,0,0,0-.047-.491,2.509,2.509,0,0,0-1.741.03Z"/>
        </g>
        <g id="Group_658" data-name="Group 658">
          <path id="Path_43" data-name="Path 43" class="cls-18" d="M28.677,28.7c.269.581,1.165.824,1.5,1.855l.013.028"/>
        </g>
        <g id="Group_659" data-name="Group 659">
          <path id="Path_44" data-name="Path 44" class="cls-18" d="M37.535,30.616c.141-.254.508-.607.806-1.007a2.571,2.571,0,0,0,.594-1.252"/>
        </g>
        <g id="Group_660" data-name="Group 660">
          <path id="Path_45" data-name="Path 45" class="cls-18" d="M32.874,29.026c-.13.281.2.411.482.535.2.089.31.216.556.2.219-.012.4-.181.559-.237.33-.117.562-.052.422-.458"/>
        </g>
        <g id="Group_661" data-name="Group 661">
          <path id="Path_46" data-name="Path 46" class="cls-18" d="M32.18,31.249c.72.138,1-.178,1.5.027.273.113.557-.177.849-.022.4.214.674.041,1,.041"/>
        </g>
        <g id="Group_662" data-name="Group 662">
          <path id="Path_47" data-name="Path 47" class="cls-18" d="M33.337,31.866a.923.923,0,0,0,1.138-.019"/>
        </g>
        <g id="Group_663" data-name="Group 663">
          <path id="Path_48" data-name="Path 48" class="cls-18" d="M32.18,36.11a21.167,21.167,0,0,0,1.451,2.978"/>
        </g>
        <g id="Group_664" data-name="Group 664">
          <path id="Path_49" data-name="Path 49" class="cls-18" d="M29.757,40.508c1.037,1.022,2.136,1.149,3.236,1.654.146.067.291.177.437.259"/>
        </g>
        <g id="Group_665" data-name="Group 665">
          <path id="Path_50" data-name="Path 50" class="cls-18" d="M33.908,42.839c.253.144.263.185.307.421"/>
        </g>
        <g id="Group_666" data-name="Group 666">
          <path id="Path_51" data-name="Path 51" class="cls-18" d="M35.368,43.113c-.027-.423.792-1.034,1.328-1.622.3-.332.611-.641.917-.967"/>
        </g>
        <g id="Group_667" data-name="Group 667">
          <path id="Path_52" data-name="Path 52" class="cls-18" d="M36.682,36.991c-.032.139-.381,2.08-.381,2.19"/>
        </g>
        <g id="Group_668" data-name="Group 668">
          <path id="Path_53" data-name="Path 53" class="cls-19" d="M18.569,45.956c1.625,2.052,2.387,1.154,3.609,2.593.135.159.423.524.558.648"/>
        </g>
        <g id="Group_669" data-name="Group 669">
          <path id="Path_54" data-name="Path 54" class="cls-19" d="M23.631,50.339A10.174,10.174,0,0,1,25.578,56.8c-.012.217-.04,2.23-.034,2.272"/>
        </g>
        <g id="Group_670" data-name="Group 670">
          <path id="Path_55" data-name="Path 55" class="cls-19" d="M20.7,45.555c.262-1.46,2.428-1.14,2.809-2.685"/>
        </g>
        <g id="Group_671" data-name="Group 671">
          <path id="Path_56" data-name="Path 56" class="cls-19" d="M36.81,53.3a3.642,3.642,0,0,1-.167,2.137c-.377.933-1.317,1.808-2.025,1.752"/>
        </g>
        <g id="Group_672" data-name="Group 672">
          <path id="Path_57" data-name="Path 57" class="cls-19" d="M37.89,53.024c.565,2.676,2.084,3.985,4.852,3.278"/>
        </g>
        <g id="Group_673" data-name="Group 673">
          <path id="Path_58" data-name="Path 58" class="cls-20" d="M37.242,52.561c-.319-.248-2.584-2.993-2.562-3.519.015-.35-.114-1.593.8-1.453,1.107.17,1.142,1.418,1.206.682.093-1.063,2.772-1.667,1.134,2.623-.128.335-.576,1.667-.576,1.667Z"/>
          <path id="_1-24" data-name="1" class="cls-9" d="M37.242,52.561c-.319-.248-2.584-2.993-2.562-3.519.015-.35-.114-1.593.8-1.453,1.107.17,1.142,1.418,1.206.682.093-1.063,2.772-1.667,1.134,2.623-.128.335-.576,1.667-.576,1.667Z"/>
        </g>
        <g id="Group_674" data-name="Group 674">
          <path id="Path_59" data-name="Path 59" class="cls-21" d="M36,47.666c.219-.619-.344-.262-.211-.846"/>
        </g>
        <g id="Group_675" data-name="Group 675">
          <path id="Path_60" data-name="Path 60" class="cls-21" d="M34.987,47.694c-.363-.554-1.057-.291-.589-1.522.155-.408-.163-.214.035-.787"/>
        </g>
        <g id="Group_676" data-name="Group 676">
          <path id="Path_61" data-name="Path 61" class="cls-21" d="M34.378,45.783c-.461-.04-.186-.386-.438-.429"/>
        </g>
        <g id="Group_677" data-name="Group 677">
          <path id="Path_62" data-name="Path 62" class="cls-21" d="M34.646,48.291c-.429-.167-.3.385-.784-.1a1.879,1.879,0,0,0-.494-.17"/>
        </g>
        <g id="Group_678" data-name="Group 678">
          <path id="Path_63" data-name="Path 63" class="cls-21" d="M34.421,48.293c-.278-.419.089-.294-.493-.6-.087-.045-.094-.62-.272-.953l-.01-.031"/>
        </g>
        <g id="Group_679" data-name="Group 679">
          <path id="Path_64" data-name="Path 64" class="cls-21" d="M37.046,47.6c-.31-.126-.016-.219-.252-.563"/>
        </g>
        <g id="Group_680" data-name="Group 680">
          <path id="Path_65" data-name="Path 65" class="cls-21" d="M35.806,47.151c-.21,0-.2.036-.308-.069"/>
        </g>
        <g id="Group_681" data-name="Group 681">
          <path id="Path_66" data-name="Path 66" class="cls-21" d="M37.373,47.458c-.291-.631.251-.318-.09-.7-.07-.078.015-.261.036-.343"/>
        </g>
        <g id="Group_682" data-name="Group 682">
          <path id="Path_67" data-name="Path 67" class="cls-21" d="M38.154,47.642c-.153-.7.4-.429.369-.76-.016-.182.227-.473.355-.463"/>
        </g>
        <g id="Group_683" data-name="Group 683">
          <path id="Path_68" data-name="Path 68" class="cls-21" d="M38.633,46.6c-.389.015-.124-.231-.141-.424"/>
        </g>
        <g id="Group_684" data-name="Group 684">
          <path id="Path_69" data-name="Path 69" class="cls-21" d="M38.43,48.657c.263-.539.557-.09.54-.509-.011-.266.391-.034.494-.2"/>
        </g>
        <g id="Group_685" data-name="Group 685">
          <path id="Path_70" data-name="Path 70" class="cls-21" d="M39.027,48.028c.007-.062.04-.226.113-.251"/>
        </g>
        <g id="Group_686" data-name="Group 686">
          <path id="Path_71" data-name="Path 71" class="cls-21" d="M38.172,50.116c.633.37.215-.378.881.239a.167.167,0,0,0,.18.107"/>
        </g>
        <g id="Group_687" data-name="Group 687">
          <path id="Path_72" data-name="Path 72" class="cls-21" d="M38.725,50.109c-.021-.039-.171-.137-.263-.249-.114-.14-.093-.2-.146-.218"/>
        </g>
        <g id="Group_688" data-name="Group 688">
          <path id="Path_73" data-name="Path 73" class="cls-21" d="M37.931,50.795c.246.353.369-.131.638.161"/>
        </g>
        <g id="Group_689" data-name="Group 689">
          <path id="Path_74" data-name="Path 74" class="cls-21" d="M37.741,51.375c.485-.073.458-.141.863.148.116.083.189-.047.4.405.017.037.075.2.164.216"/>
        </g>
        <g id="Group_690" data-name="Group 690">
          <path id="Path_75" data-name="Path 75" class="cls-21" d="M38.914,51.752c.248.129.343,0,.442.006"/>
        </g>
        <g id="Group_691" data-name="Group 691">
          <path id="Path_76" data-name="Path 76" class="cls-21" d="M36.151,51.31c-.6.476-.025.912-.56,1.332a2.4,2.4,0,0,1-.339.351"/>
        </g>
        <g id="Group_692" data-name="Group 692">
          <path id="Path_77" data-name="Path 77" class="cls-21" d="M35.8,52.379a1.244,1.244,0,0,1-.611.089"/>
        </g>
        <g id="Group_693" data-name="Group 693">
          <path id="Path_78" data-name="Path 78" class="cls-21" d="M34.341,50.91c.839-.076.1-.189.995-.189a.147.147,0,0,0,.129-.167"/>
        </g>
        <g id="Group_694" data-name="Group 694">
          <path id="Path_79" data-name="Path 79" class="cls-21" d="M34.72,49.324c-.6.107-.473.317-.939-.015-.016-.011-.476.011-.552.011"/>
        </g>
        <g id="Group_695" data-name="Group 695">
          <path id="Path_80" data-name="Path 80" class="cls-21" d="M33.863,49.365c.437-.08.283-.238.741-.388"/>
        </g>
        <g id="Group_696" data-name="Group 696">
          <path id="Path_81" data-name="Path 81" class="cls-21" d="M37.314,52.573c-.2.462.189.445.04.806-.067.162-.046.674.09.751a.544.544,0,0,1,.076.144"/>
        </g>
        <g id="Group_697" data-name="Group 697">
          <path id="Path_82" data-name="Path 82" class="cls-21" d="M37.674,53.95c-.186-.154-.143.049-.353-.182"/>
        </g>
        <g id="Group_698" data-name="Group 698">
          <path id="Path_83" data-name="Path 83" class="cls-18" d="M49.511,46.851a2.326,2.326,0,0,0,.569-1.162"/>
        </g>
        <g id="Group_699" data-name="Group 699">
          <path id="Path_84" data-name="Path 84" class="cls-18" d="M48.137,46.712c.292-.429.366-.583.694-1"/>
        </g>
        <g id="Group_700" data-name="Group 700">
          <path id="Path_85" data-name="Path 85" class="cls-18" d="M48.631,50.231c.1,0,.586-.051.617-.232"/>
        </g>
        <g id="Group_701" data-name="Group 701">
          <path id="Path_86" data-name="Path 86" class="cls-18" d="M42.665,53.448c-.025.365,0,1.04-.017,1.139"/>
        </g>
        <path id="Path_87" data-name="Path 87" class="cls-8" d="M50.885,43.81c.1,0,.1-.111.187-.082.032.011-.041.014-.037-.113.01-.335.043-1.051.111-.973a8.015,8.015,0,0,1,.628,2.168.949.949,0,0,1-.889,1c-.491,0-1.148,1.33-1.009.8a3.964,3.964,0,0,1,.148-.449c.007-.017.023-.052.029-.07a1.528,1.528,0,0,0,.083-.426c.071-.862.41-1.851.749-1.851Z"/>
        <g id="Group_702" data-name="Group 702">
          <path id="Path_88" data-name="Path 88" class="cls-18" d="M37.291,24.263a4.156,4.156,0,0,0-1.788.461,2.41,2.41,0,0,1,.047-.491,2.509,2.509,0,0,1,1.741.03Z"/>
          <path id="_1-25" data-name="1" class="cls-6" d="M37.291,24.263a4.156,4.156,0,0,0-1.788.461,2.41,2.41,0,0,1,.047-.491,2.509,2.509,0,0,1,1.741.03Z"/>
        </g>
        <path id="Path_89" data-name="Path 89" class="cls-19" d="M29.115,25.9a1.8,1.8,0,0,1-.44-.241,5.005,5.005,0,0,1-.347-.394,3.34,3.34,0,0,0,1.007.134"/>
        <path id="Path_90" data-name="Path 90" class="cls-19" d="M32.336,25.907a1.075,1.075,0,0,1,.439.6c-.262-.079-.477-.1-.691-.179"/>
        <line id="Line_1" data-name="Line 1" class="cls-22" x2="0.204" y2="0.16" transform="translate(28.581 25.392)"/>
        <line id="Line_2" data-name="Line 2" class="cls-22" x2="0.204" y2="0.16" transform="translate(32.549 26.307)"/>
        <path id="Path_91" data-name="Path 91" class="cls-19" d="M28.328,25.265a1.471,1.471,0,0,0,.412.44"/>
        <path id="Path_92" data-name="Path 92" class="cls-18" d="M35.367,25.847a2.228,2.228,0,0,0-.46.7,2.087,2.087,0,0,1,.712-.236"/>
        <path id="Path_93" data-name="Path 93" class="cls-23" d="M35.242,26.128l-.138.184.2,0-.345.134"/>
        <g id="Group_703" data-name="Group 703">
          <path id="Path_94" data-name="Path 94" class="cls-18" d="M29.648,25.379c.909-.074,1.74-.324,2.28.2"/>
        </g>
        <g id="Group_704" data-name="Group 704">
          <path id="Path_95" data-name="Path 95" class="cls-18" d="M37.864,25.252a2.634,2.634,0,0,0-2.183.417"/>
        </g>
        <g id="Group_705" data-name="Group 705">
          <path id="Path_96" data-name="Path 96" class="cls-24" d="M35.18,8.375a26.64,26.64,0,1,0,26.64,26.64A26.64,26.64,0,0,0,35.18,8.375Z"/>
        </g>
        <line id="Line_3" data-name="Line 3" class="cls-25" x2="0.045" y2="0.67" transform="translate(54.113 37.941)"/>
        <path id="Path_97" data-name="Path 97" class="cls-26" d="M27.807,34.876a5.52,5.52,0,0,1,.776.077c.256.067.1.333.1.549,0,.328-.375.594-.837.594s-.837-.266-.837-.594a.716.716,0,0,1,.8-.626Z"/>
        <path id="Path_98" data-name="Path 98" class="cls-26" d="M37.593,36.138c.039.02.991.481.987.493s-.025.012-.025.084c0,.328-.375.594-.837.594s-.837-.266-.837-.594.3-.79.713-.577Z"/>
      </g>
    </g>
  </g>
</svg>
