<svg xmlns="http://www.w3.org/2000/svg" xmlns:xlink="http://www.w3.org/1999/xlink" width="128" height="128" viewBox="0 0 128 128">
  <defs>
    <style>
      .cls-1 {
        fill: #fff;
      }

      .cls-2 {
        clip-path: url(#clip-path);
      }

      .cls-11, .cls-15, .cls-17, .cls-3, .cls-5 {
        fill: none;
        stroke: #282829;
        stroke-miterlimit: 22.926;
      }

      .cls-3 {
        stroke-width: 7.407px;
      }

      .cls-10, .cls-11, .cls-12, .cls-13, .cls-14, .cls-17, .cls-3, .cls-5, .cls-6, .cls-7, .cls-8, .cls-9 {
        fill-rule: evenodd;
      }

      .cls-4 {
        fill: #b7dfe7;
      }

      .cls-5 {
        stroke-width: 0.741px;
      }

      .cls-6 {
        fill: #526c45;
      }

      .cls-7 {
        fill: #d2d4cf;
      }

      .cls-8 {
        fill: #d5c1ba;
      }

      .cls-9 {
        fill: #4b432e;
      }

      .cls-10 {
        fill: #aa5924;
      }

      .cls-11, .cls-15 {
        stroke-width: 0.37px;
      }

      .cls-12 {
        fill: #fefefe;
      }

      .cls-13 {
        fill: #71879e;
      }

      .cls-14, .cls-16 {
        fill: #282829;
      }

      .cls-17 {
        stroke-width: 3.083px;
      }
    </style>
    <clipPath id="clip-path">
      <circle id="Ellipse_1927" data-name="Ellipse 1927" class="cls-1" cx="64" cy="64" r="64" transform="translate(18856 -22607)"/>
    </clipPath>
  </defs>
  <g id="Mask_Group_347" data-name="Mask Group 347" class="cls-2" transform="translate(-18856 22607)">
    <g id="Capa_x0020_1" transform="translate(18850.061 -22613.045)">
      <g id="_1714790400640">
        <g id="Group_9898" data-name="Group 9898">
          <path id="Path_17547" data-name="Path 17547" class="cls-3" d="M69.939,11.783A58.262,58.262,0,1,0,128.2,70.045,58.262,58.262,0,0,0,69.939,11.783Z"/>
        </g>
        <circle id="Ellipse_1928" data-name="Ellipse 1928" class="cls-4" cx="59.26" cy="59.26" r="59.26" transform="matrix(0.997, 0.083, -0.083, 0.997, 15.832, 6.045)"/>
        <g id="Group_9899" data-name="Group 9899">
          <path id="Path_17548" data-name="Path 17548" class="cls-5" d="M48.226,25.781c-.656,2.068-8.035,13.731-11.442,18.187-6.082,7.955-13.922,17.475-13.8,25.368.239,15.794,9.776,25.172,24.122,16.7,7.776-4.591,4.575-4.952,7.668-13.789,3.438-9.823,2.038-13.018-1.862-22.7-3.6-8.939.108-8.221-.371-19.23-.033-.756,4.147-8.2-4.312-4.542Z"/>
          <path id="_1" data-name="1" class="cls-6" d="M48.226,25.781c-.656,2.068-8.035,13.731-11.442,18.187-6.082,7.955-13.922,17.475-13.8,25.368.239,15.794,9.776,25.172,24.122,16.7,7.776-4.591,4.575-4.952,7.668-13.789,3.438-9.823,2.038-13.018-1.862-22.7-3.6-8.939.108-8.221-.371-19.23-.033-.756,4.147-8.2-4.312-4.542Z"/>
        </g>
        <g id="Group_9900" data-name="Group 9900">
          <path id="Path_17549" data-name="Path 17549" class="cls-5" d="M29.826,87.369C36.556,85.3,33.5,86.1,39.067,82.8c1.617-.957,12.745,16.93,14.5,18.836,1.555,1.692,2.252,4.17,4.31,6.811,2.43,3.119,8.157,11.044,7.674,15.236-3.084.631-18.82-4.96-21.9-6.677-6.623-3.686-5.97-3.071-11.676-9.691-4.51-5.233-7.677-13.236-9.217-16.492-.184-.388,1.5-.2,3.113-1.066s3.278-2.18,3.963-2.39Z"/>
          <path id="_1-2" data-name="1" class="cls-7" d="M29.826,87.369C36.556,85.3,33.5,86.1,39.067,82.8c1.617-.957,12.745,16.93,14.5,18.836,1.555,1.692,2.252,4.17,4.31,6.811,2.43,3.119,8.157,11.044,7.674,15.236-3.084.631-18.82-4.96-21.9-6.677-6.623-3.686-5.97-3.071-11.676-9.691-4.51-5.233-7.677-13.236-9.217-16.492-.184-.388,1.5-.2,3.113-1.066s3.278-2.18,3.963-2.39Z"/>
        </g>
        <g id="Group_9901" data-name="Group 9901">
          <path id="Path_17550" data-name="Path 17550" class="cls-5" d="M49.564,85.295c.476,25.889,15.112,29.754,16.184,36.748.177,1.158.236,1.515.94,1.816,2.96,1.271,9.526.068,12.542-.671a49.876,49.876,0,0,0,7.394-2.3c2.689-1.3,6.842-.665,6.78-20.541-.017-5.472-.641-14.182-4.042-18.427C82.715,73.625,58.605,66.507,51.84,70.8c-3.62,2.3-2.351,10.393-2.276,14.491Z"/>
        </g>
        <g id="Group_9902" data-name="Group 9902">
          <path id="Path_17551" data-name="Path 17551" class="cls-5" d="M56.439,70.026C52.35,73.381,52.6,78.068,40.751,82.661c-3.745,1.451-3.667,4.866-.547,8.4C44.289,95.7,54.9,121.2,61.746,122.9c26.025,6.451,38.442-11.278,31.762-29.33-2.058-5.56-4.694-14.718-9.826-17.767-3.6-2.137-26.877-6.074-27.244-5.773Z"/>
          <path id="_1-3" data-name="1" class="cls-8" d="M56.439,70.026C52.35,73.381,52.6,78.068,40.751,82.661c-3.745,1.451-3.667,4.866-.547,8.4C44.289,95.7,54.9,121.2,61.746,122.9c26.025,6.451,38.442-11.278,31.762-29.33-2.058-5.56-4.694-14.718-9.826-17.767-3.6-2.137-26.877-6.074-27.244-5.773Z"/>
        </g>
        <g id="Group_9903" data-name="Group 9903">
          <path id="Path_17552" data-name="Path 17552" class="cls-5" d="M94.081,86.313c.269-.049,3.851.586,5.386.586a37.637,37.637,0,0,0,6.99-.73c1.358-.225,12.9,1.546,12.912,1.89a73.351,73.351,0,0,0-3.411,6.919c-2.424,6.05-6.619,9.6-10.92,14.421-1.627-.65-7.045-5.163-9.183-10.211a28.516,28.516,0,0,1-1.775-12.876Z"/>
          <path id="_1-4" data-name="1" class="cls-7" d="M94.081,86.313c.269-.049,3.851.586,5.386.586a37.637,37.637,0,0,0,6.99-.73c1.358-.225,12.9,1.546,12.912,1.89a73.351,73.351,0,0,0-3.411,6.919c-2.424,6.05-6.619,9.6-10.92,14.421-1.627-.65-7.045-5.163-9.183-10.211a28.516,28.516,0,0,1-1.775-12.876Z"/>
        </g>
        <g id="Group_9904" data-name="Group 9904">
          <path id="Path_17553" data-name="Path 17553" class="cls-5" d="M82,122.586a50.053,50.053,0,0,1,3.013-8.8,49.948,49.948,0,0,1,3.849-6.552,54.961,54.961,0,0,0,1.518-8.28c.055-3.22-1.859-7.685-3.879-10.232-4.336-5.469-.2-7.391.946-8.048,2.288-1.308,7.056,3.461,8.653,4.622,2.79,2.027,4.871,2.978,6.4,4.1,1.24.9,1.834,1.285.992,1.945-2.408,1.886-7.278,4.055-7.429,5.855-.078.927,1.539,2.036,3.666,3.47,4.119,2.778,7.962.883,8.1,5.068.016.47-2.164,3.173-3.317,4.088C99.294,113.955,88.543,120.9,82,122.586Z"/>
          <path id="_1-5" data-name="1" class="cls-7" d="M82,122.586a50.053,50.053,0,0,1,3.013-8.8,49.948,49.948,0,0,1,3.849-6.552,54.961,54.961,0,0,0,1.518-8.28c.055-3.22-1.859-7.685-3.879-10.232-4.336-5.469-.2-7.391.946-8.048,2.288-1.308,7.056,3.461,8.653,4.622,2.79,2.027,4.871,2.978,6.4,4.1,1.24.9,1.834,1.285.992,1.945-2.408,1.886-7.278,4.055-7.429,5.855-.078.927,1.539,2.036,3.666,3.47,4.119,2.778,7.962.883,8.1,5.068.016.47-2.164,3.173-3.317,4.088C99.294,113.955,88.543,120.9,82,122.586Z"/>
        </g>
        <g id="Group_9905" data-name="Group 9905">
          <path id="Path_17554" data-name="Path 17554" class="cls-5" d="M84.857,77.017,46.226,22.32l4.591-2.02,59.221,83.19-3.117,4.045Z"/>
          <path id="_1-6" data-name="1" class="cls-9" d="M84.857,77.017,46.226,22.32l4.591-2.02,59.221,83.19-3.117,4.045Z"/>
        </g>
        <g id="Group_9906" data-name="Group 9906">
          <path id="Path_17555" data-name="Path 17555" class="cls-5" d="M87.852,57.573c-.915-.508-1.315-.373-1.315-.373a5.2,5.2,0,0,0,.908,2.369c.311.446,1.287.619,1.287.619-.421.421-1.369.139-1.369.139a3.858,3.858,0,0,1,.128,1.412,2.082,2.082,0,0,0,1.676,2.44c-.021.119-.256.155-.848.086-.229-.027-.864-.069-.864-.069s.114.327.839.789c1.374.876,1.3,1.558,1.3,1.558a2.281,2.281,0,0,0-.986-.357,5.658,5.658,0,0,0-.964.146c-.159.565,1.9,1.368,1.9,1.368a2.084,2.084,0,0,1-1.219.672,2.352,2.352,0,0,1-1.135-.143,14.829,14.829,0,0,1,2.256,2.126A2.593,2.593,0,0,1,90,71.843a1.8,1.8,0,0,0-.513-.656,1.149,1.149,0,0,0-.684-.143c.231,0,.774,2.76.511,2.76,0,0,.106-.387-.789-.825a6.011,6.011,0,0,1,.71,2.006c0,2.743,0,3.383-.71,3.071-.027-.006-3.344-3.364-3.333-3.9.056-2.837-.288-4.353-.376-6.878-.07-2.017.2-7.129-.287-8.6-.153-.464.266-3.641.189-4.136-.2-.11.387.507,1.172,1.107.871.666,1.962,1.355,1.962,1.928Z"/>
          <path id="_1-7" data-name="1" class="cls-10" d="M87.852,57.573c-.915-.508-1.315-.373-1.315-.373a5.2,5.2,0,0,0,.908,2.369c.311.446,1.287.619,1.287.619-.421.421-1.369.139-1.369.139a3.858,3.858,0,0,1,.128,1.412,2.082,2.082,0,0,0,1.676,2.44c-.021.119-.256.155-.848.086-.229-.027-.864-.069-.864-.069s.114.327.839.789c1.374.876,1.3,1.558,1.3,1.558a2.281,2.281,0,0,0-.986-.357,5.658,5.658,0,0,0-.964.146c-.159.565,1.9,1.368,1.9,1.368a2.084,2.084,0,0,1-1.219.672,2.352,2.352,0,0,1-1.135-.143,14.829,14.829,0,0,1,2.256,2.126A2.593,2.593,0,0,1,90,71.843a1.8,1.8,0,0,0-.513-.656,1.149,1.149,0,0,0-.684-.143c.231,0,.774,2.76.511,2.76,0,0,.106-.387-.789-.825a6.011,6.011,0,0,1,.71,2.006c0,2.743,0,3.383-.71,3.071-.027-.006-3.344-3.364-3.333-3.9.056-2.837-.288-4.353-.376-6.878-.07-2.017.2-7.129-.287-8.6-.153-.464.266-3.641.189-4.136-.2-.11.387.507,1.172,1.107.871.666,1.962,1.355,1.962,1.928Z"/>
        </g>
        <g id="Group_9907" data-name="Group 9907">
          <path id="Path_17556" data-name="Path 17556" class="cls-5" d="M49.98,63.821A30.208,30.208,0,0,1,51,69.025c.243,1.951,2.67,3.44,3.706,3.932,1.474.7,1.779,2.021,2.032,3.41.577,3.165,4.982,4.016,5.509,8.3.961,7.817,20.5-.377,21.49-2.547a20.26,20.26,0,0,0,1.936-11.788c-.267-3.229,1.365-8.675.346-10.772-1.15-2.365-1.026-1.944-.51-5.1.888-5.429-.362-4.254-2.727-8.024-2.163-3.45,2.007-8.893-6.49-8.607-7.574.255-24.973,2.378-28.741,10.062C46.3,50.442,46.11,56.6,46.924,59.253c.135.441,2.943,4.177,3.056,4.568Z"/>
          <path id="_1-8" data-name="1" class="cls-8" d="M49.98,63.821A30.208,30.208,0,0,1,51,69.025c.243,1.951,2.67,3.44,3.706,3.932,1.474.7,1.779,2.021,2.032,3.41.577,3.165,4.982,4.016,5.509,8.3.961,7.817,20.5-.377,21.49-2.547a20.26,20.26,0,0,0,1.936-11.788c-.267-3.229,1.365-8.675.346-10.772-1.15-2.365-1.026-1.944-.51-5.1.888-5.429-.362-4.254-2.727-8.024-2.163-3.45,2.007-8.893-6.49-8.607-7.574.255-24.973,2.378-28.741,10.062C46.3,50.442,46.11,56.6,46.924,59.253c.135.441,2.943,4.177,3.056,4.568Z"/>
        </g>
        <g id="Group_9908" data-name="Group 9908">
          <path id="Path_17557" data-name="Path 17557" class="cls-5" d="M71.323,26.585c2.7.685,2.757.02,4.547.792,1.222.527,3.206,3.408,3.927,4.1.156.149-.055.8.091,1.394.312,1.27.937,2.953.987,3.65.389,5.386-4.4,2.021-7.648,3.051-.592.187-3.594,1.736-3.911,1.39-.181-.2.053-.534-.3-.239-.262.218-.218-.418.1-.812.7-.853,1.486-1.923,1.624-2.049,1.309-1.195,1.965-3.014,2.628-5.558.715-2.741-2.051-5.718-2.046-5.716Z"/>
          <path id="_1-9" data-name="1" class="cls-10" d="M71.323,26.585c2.7.685,2.757.02,4.547.792,1.222.527,3.206,3.408,3.927,4.1.156.149-.055.8.091,1.394.312,1.27.937,2.953.987,3.65.389,5.386-4.4,2.021-7.648,3.051-.592.187-3.594,1.736-3.911,1.39-.181-.2.053-.534-.3-.239-.262.218-.218-.418.1-.812.7-.853,1.486-1.923,1.624-2.049,1.309-1.195,1.965-3.014,2.628-5.558.715-2.741-2.051-5.718-2.046-5.716Z"/>
        </g>
        <g id="Group_9909" data-name="Group 9909">
          <path id="Path_17558" data-name="Path 17558" class="cls-5" d="M66.461,26.338A23.18,23.18,0,0,1,71,26.427c1.2.58,2.119,1.047,2.415,1.772.256.626.1,1.55.484,2.5,2.031,5-.236,5.738-3.008,7.718-2.065,1.475-1.684,1.557-2.854,2.749-.726.739-1.12,1.05-1.461-.258-.278-1.067,1.029-3.22,1.122-3.383.877-1.54.94-3.473.786-6.1a9.986,9.986,0,0,0-2.02-5.091Z"/>
          <path id="_1-10" data-name="1" class="cls-10" d="M66.461,26.338A23.18,23.18,0,0,1,71,26.427c1.2.58,2.119,1.047,2.415,1.772.256.626.1,1.55.484,2.5,2.031,5-.236,5.738-3.008,7.718-2.065,1.475-1.684,1.557-2.854,2.749-.726.739-1.12,1.05-1.461-.258-.278-1.067,1.029-3.22,1.122-3.383.877-1.54.94-3.473.786-6.1a9.986,9.986,0,0,0-2.02-5.091Z"/>
        </g>
        <g id="Group_9910" data-name="Group 9910">
          <path id="Path_17559" data-name="Path 17559" class="cls-5" d="M43.019,76.084c-.391,2.659-.725,2.529-.725,5.473,0,5.269,3.163,6.213,5.5,10.617,2.1,3.951,4.3,3.982,5.016,4.993,1.115,1.572.532,2.8,4.943,3.894a7.111,7.111,0,0,0-.337-3.6,11.181,11.181,0,0,0-2.953-3.811A67.771,67.771,0,0,1,60,97.905c1.284,1.181.558,4.56.818,4.653a3.52,3.52,0,0,0,.642.228s.551.407.9-2.447c.817-6.683-7.815-5.213-8.6-9.19-.405-2.051,1-4.546-.356-7.531-.653-1.442-2.917-2.488-3.018-5.025-.022-.557,1.034-6.43.062-7.165-.863-.653-1.237-1.807-2.48-1.554-1.393.284-4.64,4.108-4.949,6.21Z"/>
          <path id="_1-11" data-name="1" class="cls-10" d="M43.019,76.084c-.391,2.659-.725,2.529-.725,5.473,0,5.269,3.163,6.213,5.5,10.617,2.1,3.951,4.3,3.982,5.016,4.993,1.115,1.572.532,2.8,4.943,3.894a7.111,7.111,0,0,0-.337-3.6,11.181,11.181,0,0,0-2.953-3.811A67.771,67.771,0,0,1,60,97.905c1.284,1.181.558,4.56.818,4.653a3.52,3.52,0,0,0,.642.228s.551.407.9-2.447c.817-6.683-7.815-5.213-8.6-9.19-.405-2.051,1-4.546-.356-7.531-.653-1.442-2.917-2.488-3.018-5.025-.022-.557,1.034-6.43.062-7.165-.863-.653-1.237-1.807-2.48-1.554-1.393.284-4.64,4.108-4.949,6.21Z"/>
        </g>
        <g id="Group_9911" data-name="Group 9911">
          <path id="Path_17560" data-name="Path 17560" class="cls-11" d="M71.823,78.954a13.716,13.716,0,0,0,3.963-1.018,5.516,5.516,0,0,0,1.786-1.069"/>
        </g>
        <g id="Group_9912" data-name="Group 9912">
          <path id="Path_17561" data-name="Path 17561" class="cls-5" d="M62.673,26.4c2.62-.1,6.132-.049,6.132-.049,3.516.944,4.568,3.413,4.079,5.26a16.79,16.79,0,0,1-2.56,3.914,9.207,9.207,0,0,1-1.057,2.238c-1.508,2.042-1.711,1.172-2.429,3.324-.2.6-.466,1.036-.748,1.119-.423.124-.359-.568-.478-.818-.473-1,.408-3.356.469-3.533.573-1.677.273-3.587-.369-6.137a14.847,14.847,0,0,0-3.038-5.32Z"/>
          <path id="_1-12" data-name="1" class="cls-10" d="M62.673,26.4c2.62-.1,6.132-.049,6.132-.049,3.516.944,4.568,3.413,4.079,5.26a16.79,16.79,0,0,1-2.56,3.914,9.207,9.207,0,0,1-1.057,2.238c-1.508,2.042-1.711,1.172-2.429,3.324-.2.6-.466,1.036-.748,1.119-.423.124-.359-.568-.478-.818-.473-1,.408-3.356.469-3.533.573-1.677.273-3.587-.369-6.137a14.847,14.847,0,0,0-3.038-5.32Z"/>
        </g>
        <g id="Group_9913" data-name="Group 9913">
          <path id="Path_17562" data-name="Path 17562" class="cls-5" d="M42.006,71.564c-2.145,1.6-7.32,4.878-2.789,8.58,1.591,1.3-7.164,6.149-1.657,10.323,3.325,2.52-2.255,4.168,3.356,8.121,3.268,2.3-.443,5.4.349,9.291.57,2.795,6.553,3.01,6.935,5.588.115.773-.837,1.226-1.883,2.7-.2.288-.937,1.718.955,2.444a10.866,10.866,0,0,0,2.373.812c-.011-.127-1.873-1.59.309-4.681-.341,2.616.632,5.313,3.841,6.225a94.28,94.28,0,0,0,13.633,2.993c3.006.295,3.992-.922,4.566-2.14a6.731,6.731,0,0,0,.42-3.71s.529,2.207.693,2.87c.444,1.79.856,2.91,1.48,3.181.321.139.437-.136,1.186-.263a3.2,3.2,0,0,1-.922-1.9c-.179-1.09-.1-4.779-.749-5.876-2.554-4.349-5.791,1.113-6.617-4.58-.215-1.482,1.55-2.437.053-4.634a10.542,10.542,0,0,0-5.637-3.966,13.272,13.272,0,0,1-7.221-4.811,11.322,11.322,0,0,1-2.47-4.686c-.288-1.712.279-3.58-.561-4.88-.619-.956-2.427-1.979-4.545-2.523-1.82-.468-1.978-1.326-1.689-2.882.167-.9.854-2.39.5-3.244-1.061-2.572-1.082-6.156,2.982-8.534,3.325-1.945-2.829-2.338-3.491-3.324a26.669,26.669,0,0,1-3.4,3.51Z"/>
          <path id="_1-13" data-name="1" class="cls-10" d="M42.006,71.564c-2.145,1.6-7.32,4.878-2.789,8.58,1.591,1.3-7.164,6.149-1.657,10.323,3.325,2.52-2.255,4.168,3.356,8.121,3.268,2.3-.443,5.4.349,9.291.57,2.795,6.553,3.01,6.935,5.588.115.773-.837,1.226-1.883,2.7-.2.288-.937,1.718.955,2.444a10.866,10.866,0,0,0,2.373.812c-.011-.127-1.873-1.59.309-4.681-.341,2.616.632,5.313,3.841,6.225a94.28,94.28,0,0,0,13.633,2.993c3.006.295,3.992-.922,4.566-2.14a6.731,6.731,0,0,0,.42-3.71s.529,2.207.693,2.87c.444,1.79.856,2.91,1.48,3.181.321.139.437-.136,1.186-.263a3.2,3.2,0,0,1-.922-1.9c-.179-1.09-.1-4.779-.749-5.876-2.554-4.349-5.791,1.113-6.617-4.58-.215-1.482,1.55-2.437.053-4.634a10.542,10.542,0,0,0-5.637-3.966,13.272,13.272,0,0,1-7.221-4.811,11.322,11.322,0,0,1-2.47-4.686c-.288-1.712.279-3.58-.561-4.88-.619-.956-2.427-1.979-4.545-2.523-1.82-.468-1.978-1.326-1.689-2.882.167-.9.854-2.39.5-3.244-1.061-2.572-1.082-6.156,2.982-8.534,3.325-1.945-2.829-2.338-3.491-3.324a26.669,26.669,0,0,1-3.4,3.51Z"/>
        </g>
        <g id="Group_9914" data-name="Group 9914">
          <path id="Path_17563" data-name="Path 17563" class="cls-5" d="M55.457,28.189A56.61,56.61,0,0,1,62.673,26.4a4.125,4.125,0,0,1,2.567,1.191c.934.991.882,2.93.964,4.605.189,3.872,1.146,3.964.453,5.622-.387.925-1.058,1.586-1.048,2.487,0,.263.176.339.23.645a2.751,2.751,0,0,1-.086,1.68c-.14.14-.424.054-.54.052-.213,0-.2-.323.042-1.093.274-.876-1.528-2.537-1.248-3.672.57-2.31-.58-3.471-2.365-5.4-1.923-2.081-6.19-4.324-6.185-4.326Z"/>
          <path id="_1-14" data-name="1" class="cls-10" d="M55.457,28.189A56.61,56.61,0,0,1,62.673,26.4a4.125,4.125,0,0,1,2.567,1.191c.934.991.882,2.93.964,4.605.189,3.872,1.146,3.964.453,5.622-.387.925-1.058,1.586-1.048,2.487,0,.263.176.339.23.645a2.751,2.751,0,0,1-.086,1.68c-.14.14-.424.054-.54.052-.213,0-.2-.323.042-1.093.274-.876-1.528-2.537-1.248-3.672.57-2.31-.58-3.471-2.365-5.4-1.923-2.081-6.19-4.324-6.185-4.326Z"/>
        </g>
        <g id="Group_9915" data-name="Group 9915">
          <path id="Path_17564" data-name="Path 17564" class="cls-5" d="M42.4,60.684c-.219.376.26,1.816.26,2.423,0,1.992-.263,1.236.021,2.819.121.679,1.474,1.954,2.573,3.175.81.9,1.362,1.89,1.8,1.974.481.093,1.912.539,2.194-.087.335-.744,1.222-1.754,1.245-2.511.147-4.778-5.941-9.112-8.091-7.793Z"/>
          <path id="_1-15" data-name="1" class="cls-8" d="M42.4,60.684c-.219.376.26,1.816.26,2.423,0,1.992-.263,1.236.021,2.819.121.679,1.474,1.954,2.573,3.175.81.9,1.362,1.89,1.8,1.974.481.093,1.912.539,2.194-.087.335-.744,1.222-1.754,1.245-2.511.147-4.778-5.941-9.112-8.091-7.793Z"/>
        </g>
        <g id="Group_9916" data-name="Group 9916">
          <path id="Path_17565" data-name="Path 17565" class="cls-5" d="M48.92,31.232c1.116-2.092,8.395-3.379,8.395-3.379,2.493,1.971,3.954,1.722,6.084,3.531,1.42,1.206,1.243,4.329,1.045,6.116-.265,2.387.212,1.267.708,3.284a3.476,3.476,0,0,1-.015,1.848c-.095.173-.392.171-.5.2-.205.056-.282-.254-.268-1.061.016-.918-1.421-3.417-2.1-4.144-1.622-1.741-1.667-2.195-3.924-3.545-2.1-1.254-3.676-1.444-5.665-2.3-.515-.223-4.1.086-3.759-.549Z"/>
          <path id="_1-16" data-name="1" class="cls-10" d="M48.92,31.232c1.116-2.092,8.395-3.379,8.395-3.379,2.493,1.971,3.954,1.722,6.084,3.531,1.42,1.206,1.243,4.329,1.045,6.116-.265,2.387.212,1.267.708,3.284a3.476,3.476,0,0,1-.015,1.848c-.095.173-.392.171-.5.2-.205.056-.282-.254-.268-1.061.016-.918-1.421-3.417-2.1-4.144-1.622-1.741-1.667-2.195-3.924-3.545-2.1-1.254-3.676-1.444-5.665-2.3-.515-.223-4.1.086-3.759-.549Z"/>
        </g>
        <g id="Group_9917" data-name="Group 9917">
          <path id="Path_17566" data-name="Path 17566" class="cls-5" d="M46.192,33.957c.472-1.877,2-2.626,3.645-2.971a15.281,15.281,0,0,1,4.175-.221c2.653.18,3.628-.019,6.131,1.224,1.668.829,2.306,4.086,2.742,5.834.582,2.331.511,1.178,1.479,3.017.347.66.254,1.74-.073,1.923-.186.1-.271.013-.452-.774-.206-.894-2.2-2.974-3.035-3.516-1.994-1.3-2.147-1.729-4.662-2.495-2.338-.712-3.915-.515-6.053-.872-.553-.092-4.072-.452-3.9-1.149Z"/>
          <path id="_1-17" data-name="1" class="cls-10" d="M46.192,33.957c.472-1.877,2-2.626,3.645-2.971a15.281,15.281,0,0,1,4.175-.221c2.653.18,3.628-.019,6.131,1.224,1.668.829,2.306,4.086,2.742,5.834.582,2.331.511,1.178,1.479,3.017.347.66.254,1.74-.073,1.923-.186.1-.271.013-.452-.774-.206-.894-2.2-2.974-3.035-3.516-1.994-1.3-2.147-1.729-4.662-2.495-2.338-.712-3.915-.515-6.053-.872-.553-.092-4.072-.452-3.9-1.149Z"/>
        </g>
        <g id="Group_9918" data-name="Group 9918">
          <path id="Path_17567" data-name="Path 17567" class="cls-5" d="M40.867,41.842c1.93-2.649.933-3.534,2.269-4.8.549-.52,1.188-.438,1.735-1.2.443-.616.118-1.62.929-2.022,5.172-2.566,13.65-1.444,16.235,3.869a22.582,22.582,0,0,0,1.61,3.226,3.86,3.86,0,0,1,.475,1.612.767.767,0,0,1-.737.776c-.188-.033-.256-.928-.75-1.972-1.867-3.939-7.41.037-9.738-1.738-2.116-1.614-3.961-1.991-5.762-1.311-1.076.407-2.212,1.32-3.446,1.969-.539.283-2.269,1.59-2.819,1.59Z"/>
          <path id="_1-18" data-name="1" class="cls-10" d="M40.867,41.842c1.93-2.649.933-3.534,2.269-4.8.549-.52,1.188-.438,1.735-1.2.443-.616.118-1.62.929-2.022,5.172-2.566,13.65-1.444,16.235,3.869a22.582,22.582,0,0,0,1.61,3.226,3.86,3.86,0,0,1,.475,1.612.767.767,0,0,1-.737.776c-.188-.033-.256-.928-.75-1.972-1.867-3.939-7.41.037-9.738-1.738-2.116-1.614-3.961-1.991-5.762-1.311-1.076.407-2.212,1.32-3.446,1.969-.539.283-2.269,1.59-2.819,1.59Z"/>
        </g>
        <g id="Group_9919" data-name="Group 9919">
          <path id="Path_17568" data-name="Path 17568" class="cls-5" d="M85.122,39.628c-.7,1,.209,1.5.455,2.251.291.892-.437,2.2-.329,2.684.145.644.872,1.126.975,1.8.365,2.39.31,5.726-.056,5.655a4.574,4.574,0,0,0-.811-2.214c-1.216-1.738-2.176-2.768-2.572-3.371-.275-.419-.912-1.528-1.207-2.123a4.005,4.005,0,0,1-.13-2.861c.094-.368.558-.519.675-.928.522-1.821-.157-1.7-.391-3.65-.094-.781-.218-2.167-.259-2.516-.124-1.055,1.476-.4,2.418.571.418.432.184,1.669.5,2.162a5.7,5.7,0,0,1,.732,2.537Z"/>
          <path id="_1-19" data-name="1" class="cls-10" d="M85.122,39.628c-.7,1,.209,1.5.455,2.251.291.892-.437,2.2-.329,2.684.145.644.872,1.126.975,1.8.365,2.39.31,5.726-.056,5.655a4.574,4.574,0,0,0-.811-2.214c-1.216-1.738-2.176-2.768-2.572-3.371-.275-.419-.912-1.528-1.207-2.123a4.005,4.005,0,0,1-.13-2.861c.094-.368.558-.519.675-.928.522-1.821-.157-1.7-.391-3.65-.094-.781-.218-2.167-.259-2.516-.124-1.055,1.476-.4,2.418.571.418.432.184,1.669.5,2.162a5.7,5.7,0,0,1,.732,2.537Z"/>
        </g>
        <g id="Group_9920" data-name="Group 9920">
          <path id="Path_17569" data-name="Path 17569" class="cls-5" d="M82.637,34.566c-.7,1-.375,2.582-.224,3.362a5.176,5.176,0,0,1-.62,3.119c-.931,1.273-1.1.217-1.752-.069-.46-.2-.195-.762-1.273-1.065-1.307-.367.526-1.429.638-3.249.157-2.548-.157-1.7-.391-3.65a12.861,12.861,0,0,1,.386-2.252c-.012-.126.538.013,1.48.987.418.432.477.99.793,1.483.461.72,1.078,1.172.964,1.334Z"/>
          <path id="_1-20" data-name="1" class="cls-10" d="M82.637,34.566c-.7,1-.375,2.582-.224,3.362a5.176,5.176,0,0,1-.62,3.119c-.931,1.273-1.1.217-1.752-.069-.46-.2-.195-.762-1.273-1.065-1.307-.367.526-1.429.638-3.249.157-2.548-.157-1.7-.391-3.65a12.861,12.861,0,0,1,.386-2.252c-.012-.126.538.013,1.48.987.418.432.477.99.793,1.483.461.72,1.078,1.172.964,1.334Z"/>
        </g>
        <g id="Group_9921" data-name="Group 9921">
          <path id="Path_17570" data-name="Path 17570" class="cls-5" d="M39.293,44.79c-.323.175-1.337-.957-.112-2.156a4.881,4.881,0,0,1,1.686-.792c.649-.236,2.494-1.458,3.3-1.86.7-.346,1.622-1.09,2.559-1.526a5,5,0,0,1,2.346-.489c1.984.173,2.382.879,4.277,1.891,1.131.6,3.223-.05,4.317-.165,2.089-.219,3.878-.111,4.861,1.441a6.713,6.713,0,0,1,.851,2.171c-.036.573-1.4-1.3-2.76-1.593a5.185,5.185,0,0,0-1.7-.21c-1.507.178-2.892,1.648-5.558,1.736,0,0-1.653,1.213-2.619.911-.817-.255-1.343-1.12-2.081-1.858-1.231-1.231-2.278-.844-3.589-.2-.567.28-3.422.036-4.911.766-1.008.494-.566,1.932-.874,1.932Z"/>
          <path id="_1-21" data-name="1" class="cls-10" d="M39.293,44.79c-.323.175-1.337-.957-.112-2.156a4.881,4.881,0,0,1,1.686-.792c.649-.236,2.494-1.458,3.3-1.86.7-.346,1.622-1.09,2.559-1.526a5,5,0,0,1,2.346-.489c1.984.173,2.382.879,4.277,1.891,1.131.6,3.223-.05,4.317-.165,2.089-.219,3.878-.111,4.861,1.441a6.713,6.713,0,0,1,.851,2.171c-.036.573-1.4-1.3-2.76-1.593a5.185,5.185,0,0,0-1.7-.21c-1.507.178-2.892,1.648-5.558,1.736,0,0-1.653,1.213-2.619.911-.817-.255-1.343-1.12-2.081-1.858-1.231-1.231-2.278-.844-3.589-.2-.567.28-3.422.036-4.911.766-1.008.494-.566,1.932-.874,1.932Z"/>
        </g>
        <g id="Group_9922" data-name="Group 9922">
          <path id="Path_17571" data-name="Path 17571" class="cls-5" d="M39.292,47.588c-.724-.681-.387-1.237,1.059-2.231,3.956-2.72,5.509,1.874,9.154,1.717.033.352-.414,1.844-1.464,1.859-.214,0,.558.835.892.835a1.833,1.833,0,0,0-.983.075c-.341.109,1.885,1.492,1.279,1.666-.14.04-.521-.081-.7-.055,0,0,.631,1.053.416,1.112a11.609,11.609,0,0,0-2.889-1.252,15.548,15.548,0,0,1-4.533-.237c-1.658-.456-1.443-1.429-2.815-1.78-.348-.089-.615-.467-.146-.938C39.179,47.732,39.327,47.621,39.292,47.588Z"/>
          <path id="_1-22" data-name="1" class="cls-10" d="M39.292,47.588c-.724-.681-.387-1.237,1.059-2.231,3.956-2.72,5.509,1.874,9.154,1.717.033.352-.414,1.844-1.464,1.859-.214,0,.558.835.892.835a1.833,1.833,0,0,0-.983.075c-.341.109,1.885,1.492,1.279,1.666-.14.04-.521-.081-.7-.055,0,0,.631,1.053.416,1.112a11.609,11.609,0,0,0-2.889-1.252,15.548,15.548,0,0,1-4.533-.237c-1.658-.456-1.443-1.429-2.815-1.78-.348-.089-.615-.467-.146-.938C39.179,47.732,39.327,47.621,39.292,47.588Z"/>
        </g>
        <g id="Group_9923" data-name="Group 9923">
          <path id="Path_17572" data-name="Path 17572" class="cls-5" d="M38.923,45.2c.088-.151.376-.109.415-.424.17-1.376.116-1.836,1.8-2.241.823-.2,3.146-.16,3.8-.4,1.34-.484,1.967-.762,2.388-.6a8.539,8.539,0,0,1,2.862,2.3c.258.276,1.024,1.262,1.563,1.239.033.352-1.591.261-1.591.261.04.211.96.449,1.294.449.368,0-.682.928-2.065,1.324a8.657,8.657,0,0,1-3.093.313,11.557,11.557,0,0,1-2.508-1.136c-.44-.2-3.169-.845-3.645-.433-.5.436-.108.18-.387.746-.093.189-.425.287-.688-.032a1.307,1.307,0,0,1-.14-1.366Z"/>
          <path id="_1-23" data-name="1" class="cls-10" d="M38.923,45.2c.088-.151.376-.109.415-.424.17-1.376.116-1.836,1.8-2.241.823-.2,3.146-.16,3.8-.4,1.34-.484,1.967-.762,2.388-.6a8.539,8.539,0,0,1,2.862,2.3c.258.276,1.024,1.262,1.563,1.239.033.352-1.591.261-1.591.261.04.211.96.449,1.294.449.368,0-.682.928-2.065,1.324a8.657,8.657,0,0,1-3.093.313,11.557,11.557,0,0,1-2.508-1.136c-.44-.2-3.169-.845-3.645-.433-.5.436-.108.18-.387.746-.093.189-.425.287-.688-.032a1.307,1.307,0,0,1-.14-1.366Z"/>
        </g>
        <g id="Group_9924" data-name="Group 9924">
          <path id="Path_17573" data-name="Path 17573" class="cls-5" d="M39.169,52.649c-.416-.835-1.884-1.9-.438-2.894,3.956-2.72,8.348.886,9.8,3.785a1.846,1.846,0,0,1-1.248-.286c-.19-.1.481.542.723.8.14.152-.153.274-.707.128-.229-.061.094.391.3.729.1.172.178.314.133.344a2.982,2.982,0,0,1-1.491-.487s2.081,1.809,1.866,1.868l-.96.253c-.081.253.621.783.476.985-.167.231-.6-.046-.527.261.134.58,1.65,1.75,1.65,1.75-.04.42-1.107-.122-1.107-.122.58,1.2,3.033,2.872,3.033,2.872.066.332-1.159.162-1.159.162.087.508.973.728.973.728a7.21,7.21,0,0,1-4.017.017c-.573-.158-1.142-1.53-2.263-2.431-1.243-1-3.053-1.559-3.857-2.3-.328-.3-.275-.893-.426-1.253a.815.815,0,0,0-.59-.393c-.348-.089-.893-2.3-.424-2.774A1.842,1.842,0,0,0,39.169,52.649Z"/>
          <path id="_1-24" data-name="1" class="cls-10" d="M39.169,52.649c-.416-.835-1.884-1.9-.438-2.894,3.956-2.72,8.348.886,9.8,3.785a1.846,1.846,0,0,1-1.248-.286c-.19-.1.481.542.723.8.14.152-.153.274-.707.128-.229-.061.094.391.3.729.1.172.178.314.133.344a2.982,2.982,0,0,1-1.491-.487s2.081,1.809,1.866,1.868l-.96.253c-.081.253.621.783.476.985-.167.231-.6-.046-.527.261.134.58,1.65,1.75,1.65,1.75-.04.42-1.107-.122-1.107-.122.58,1.2,3.033,2.872,3.033,2.872.066.332-1.159.162-1.159.162.087.508.973.728.973.728a7.21,7.21,0,0,1-4.017.017c-.573-.158-1.142-1.53-2.263-2.431-1.243-1-3.053-1.559-3.857-2.3-.328-.3-.275-.893-.426-1.253a.815.815,0,0,0-.59-.393c-.348-.089-.893-2.3-.424-2.774A1.842,1.842,0,0,0,39.169,52.649Z"/>
        </g>
        <g id="Group_9925" data-name="Group 9925">
          <path id="Path_17574" data-name="Path 17574" class="cls-5" d="M50.259,63.618a31.4,31.4,0,0,1,.582,3.234,4.409,4.409,0,0,0,.4,1.651c.156.395-2.253-.273-2.8-.668.019-.088,1.172-.091,1.258-.4a7.7,7.7,0,0,1-1-.327,4,4,0,0,1-1-.638,2.1,2.1,0,0,0,1.418.082c.3-.065-.67-.193-.914-.277a4.361,4.361,0,0,1-1.461-1.053,12.641,12.641,0,0,0,1.524.123,9.622,9.622,0,0,1-1.785-1.158.781.781,0,0,1-.239-.48c.777,0,1.581.094,2.354.108,1.119.02,1.147-.239,1.67-.193Z"/>
          <path id="_1-25" data-name="1" class="cls-10" d="M50.259,63.618a31.4,31.4,0,0,1,.582,3.234,4.409,4.409,0,0,0,.4,1.651c.156.395-2.253-.273-2.8-.668.019-.088,1.172-.091,1.258-.4a7.7,7.7,0,0,1-1-.327,4,4,0,0,1-1-.638,2.1,2.1,0,0,0,1.418.082c.3-.065-.67-.193-.914-.277a4.361,4.361,0,0,1-1.461-1.053,12.641,12.641,0,0,0,1.524.123,9.622,9.622,0,0,1-1.785-1.158.781.781,0,0,1-.239-.48c.777,0,1.581.094,2.354.108,1.119.02,1.147-.239,1.67-.193Z"/>
        </g>
        <g id="Group_9926" data-name="Group 9926">
          <path id="Path_17575" data-name="Path 17575" class="cls-5" d="M65.693,86.8c.177-.311,1.414-1.954,1.924-2.063,0,.007.067.738.151,1.186.343,1.832-.207.355.486-1.149,0,0-.172,1.668.512,2.276-.012-.055.766-.875.7-1.648-.006-.075.242,1.682.242,1.682.382-1.418.406-1.782.752-3.327a7.664,7.664,0,0,1,.583,1.825,17.539,17.539,0,0,1,.155-2.007,3,3,0,0,0,.789,1.583c.507.655.793.86.816.758a4.7,4.7,0,0,1,.46-3.073c-.08.247.386.8.465.7a12.274,12.274,0,0,0,.491-1.327,3.977,3.977,0,0,0,1.322,1.119,10.6,10.6,0,0,1,.509-2.05c.063.1.949,1.431.949,1.255,0-.419.563-.926.563-1.255a13.569,13.569,0,0,1,1.986,1.3,2.017,2.017,0,0,0-.6-1.051,10.819,10.819,0,0,0,2.5,1.583,3,3,0,0,1-.522-1.3c.369-.07,1.726.8,1.726.8a9.9,9.9,0,0,1-.787-1.265,2.085,2.085,0,0,0,1.412.494,2.337,2.337,0,0,1-.664-.721,2.659,2.659,0,0,1-.409-1.1,9.319,9.319,0,0,0,1.392.558,9.875,9.875,0,0,1-1.467-1.591c-.532-.862-.521-1.55-.46-1.516a3.3,3.3,0,0,0,.72.549,1.354,1.354,0,0,0,.631.126c-.347-.184-1.34-1.426-1.2-2.073a6.232,6.232,0,0,1,1.78.85c3.029,2.293,4.063,8.486,6.327,10.4a.86.86,0,0,1-.606.133,3.19,3.19,0,0,1-1.2-.428c-.047-.033-.072.819,1.006,1.112.1.026-1.523-.613-1.533-.615a2.727,2.727,0,0,1,.208,2.633c-.006-.318-.741-1.187-.964-1.09a6.256,6.256,0,0,1,.27,1.261,7.789,7.789,0,0,1-.021,1.442,1.42,1.42,0,0,0-.936-1.093,4.141,4.141,0,0,1,.325,2.823,2.287,2.287,0,0,0-.963-1.123,16.016,16.016,0,0,1,.618,1.584,6.241,6.241,0,0,1,.182,1.775c-.434-1.359-3.07-1.876-3.058-1.867s.923.889.985,1c-1.539-.231-2.394-1.359-1.553-.3,1.721,2.172,4.119,1.436,2.173,1.8-1.44.267-3.2.074-4.105-1.2-.1-.141.565,1.588,1.621,1.885.2.057-2.626-.506-2.721-1.111-.233-.081.54,1.523,1.939,1.888.048.231-2.253-.2-2.4-.993-.162-.067.38,1.113,1.374,1.628a4.991,4.991,0,0,1-2.725-.954c-1.624-1.73-1.035-2.343-.815-.123.164,1.653.006.284-.872-.887-.01,0,.292,1.405.291,1.545a4.976,4.976,0,0,1-.192,1.123c-.031-.009.095-.11.012-.322-.576-1.479-3-2.932-2.608-2.363.08.115,1.016,1.051.743.949-1.275-.475-1.122.458-2.68-1.186a1.6,1.6,0,0,0,.118.684,1.881,1.881,0,0,0,.425.54c-.912,0-2.051-1.377-2.051-1.377a.782.782,0,0,0,.05.821,7.205,7.205,0,0,0,.791,1.034,2.883,2.883,0,0,1-1.071-.3c-3.8-1.493-2.238-2.412-4-5.482a6.837,6.837,0,0,1-.535-4.555,2.093,2.093,0,0,1,.239-.826Z"/>
          <path id="_1-26" data-name="1" class="cls-10" d="M65.693,86.8c.177-.311,1.414-1.954,1.924-2.063,0,.007.067.738.151,1.186.343,1.832-.207.355.486-1.149,0,0-.172,1.668.512,2.276-.012-.055.766-.875.7-1.648-.006-.075.242,1.682.242,1.682.382-1.418.406-1.782.752-3.327a7.664,7.664,0,0,1,.583,1.825,17.539,17.539,0,0,1,.155-2.007,3,3,0,0,0,.789,1.583c.507.655.793.86.816.758a4.7,4.7,0,0,1,.46-3.073c-.08.247.386.8.465.7a12.274,12.274,0,0,0,.491-1.327,3.977,3.977,0,0,0,1.322,1.119,10.6,10.6,0,0,1,.509-2.05c.063.1.949,1.431.949,1.255,0-.419.563-.926.563-1.255a13.569,13.569,0,0,1,1.986,1.3,2.017,2.017,0,0,0-.6-1.051,10.819,10.819,0,0,0,2.5,1.583,3,3,0,0,1-.522-1.3c.369-.07,1.726.8,1.726.8a9.9,9.9,0,0,1-.787-1.265,2.085,2.085,0,0,0,1.412.494,2.337,2.337,0,0,1-.664-.721,2.659,2.659,0,0,1-.409-1.1,9.319,9.319,0,0,0,1.392.558,9.875,9.875,0,0,1-1.467-1.591c-.532-.862-.521-1.55-.46-1.516a3.3,3.3,0,0,0,.72.549,1.354,1.354,0,0,0,.631.126c-.347-.184-1.34-1.426-1.2-2.073a6.232,6.232,0,0,1,1.78.85c3.029,2.293,4.063,8.486,6.327,10.4a.86.86,0,0,1-.606.133,3.19,3.19,0,0,1-1.2-.428c-.047-.033-.072.819,1.006,1.112.1.026-1.523-.613-1.533-.615a2.727,2.727,0,0,1,.208,2.633c-.006-.318-.741-1.187-.964-1.09a6.256,6.256,0,0,1,.27,1.261,7.789,7.789,0,0,1-.021,1.442,1.42,1.42,0,0,0-.936-1.093,4.141,4.141,0,0,1,.325,2.823,2.287,2.287,0,0,0-.963-1.123,16.016,16.016,0,0,1,.618,1.584,6.241,6.241,0,0,1,.182,1.775c-.434-1.359-3.07-1.876-3.058-1.867s.923.889.985,1c-1.539-.231-2.394-1.359-1.553-.3,1.721,2.172,4.119,1.436,2.173,1.8-1.44.267-3.2.074-4.105-1.2-.1-.141.565,1.588,1.621,1.885.2.057-2.626-.506-2.721-1.111-.233-.081.54,1.523,1.939,1.888.048.231-2.253-.2-2.4-.993-.162-.067.38,1.113,1.374,1.628a4.991,4.991,0,0,1-2.725-.954c-1.624-1.73-1.035-2.343-.815-.123.164,1.653.006.284-.872-.887-.01,0,.292,1.405.291,1.545a4.976,4.976,0,0,1-.192,1.123c-.031-.009.095-.11.012-.322-.576-1.479-3-2.932-2.608-2.363.08.115,1.016,1.051.743.949-1.275-.475-1.122.458-2.68-1.186a1.6,1.6,0,0,0,.118.684,1.881,1.881,0,0,0,.425.54c-.912,0-2.051-1.377-2.051-1.377a.782.782,0,0,0,.05.821,7.205,7.205,0,0,0,.791,1.034,2.883,2.883,0,0,1-1.071-.3c-3.8-1.493-2.238-2.412-4-5.482a6.837,6.837,0,0,1-.535-4.555,2.093,2.093,0,0,1,.239-.826Z"/>
        </g>
        <g id="Group_9927" data-name="Group 9927">
          <path id="Path_17576" data-name="Path 17576" class="cls-5" d="M50.493,68.478c-.5-.111-2.642,3.555-.232,5.851a2.49,2.49,0,0,1,.557,2.749c-.528,2.027-2.456,1.009-3.368-.473.74,3.074,4.407,3.647,5.535,2.013.007-.009-.789,1.075.4,3.062s.123,2.762.123,2.762a1.981,1.981,0,0,0,1.524-.861c-.043,1.529.45,2.137,1.386,3.258a1.541,1.541,0,0,1,.126-1.219A10.954,10.954,0,0,1,57.6,88.631a1.026,1.026,0,0,0,.487-.405,1.412,1.412,0,0,0,.1-.63s.229.271.006.966a1.458,1.458,0,0,1-.415.61,2,2,0,0,0,2.135-.527c.146,0-1.574,3.165,1.059,4.185a3.564,3.564,0,0,1-.583-1.666,3.664,3.664,0,0,1,.383-1.524,6.4,6.4,0,0,0,1.635,2.318,25.448,25.448,0,0,0,.71,2.886c.364.883.983,1.293,1.528,1.25a2.89,2.89,0,0,1-.725-1.287,15.974,15.974,0,0,1-.022-2.391c-.2-1.69.6-2.748-.07-4.377-.351-.851.144-4.605-1.7-4.476-.078.005.293-.842-2.687-3.724a11.183,11.183,0,0,1-2.392-2.8c-.854-1.669-.351-2.161-1.062-2.967-.51-.579-1.169-.6-2.843-2.054-.164-.143-.472-.232-.592-.476-.1-.2,0-.551-.172-.7-1.176-1.031-.946-.565-1.328-2.217-.04-.175-.472-.123-.567-.144Z"/>
          <path id="_1-27" data-name="1" class="cls-10" d="M50.493,68.478c-.5-.111-2.642,3.555-.232,5.851a2.49,2.49,0,0,1,.557,2.749c-.528,2.027-2.456,1.009-3.368-.473.74,3.074,4.407,3.647,5.535,2.013.007-.009-.789,1.075.4,3.062s.123,2.762.123,2.762a1.981,1.981,0,0,0,1.524-.861c-.043,1.529.45,2.137,1.386,3.258a1.541,1.541,0,0,1,.126-1.219A10.954,10.954,0,0,1,57.6,88.631a1.026,1.026,0,0,0,.487-.405,1.412,1.412,0,0,0,.1-.63s.229.271.006.966a1.458,1.458,0,0,1-.415.61,2,2,0,0,0,2.135-.527c.146,0-1.574,3.165,1.059,4.185a3.564,3.564,0,0,1-.583-1.666,3.664,3.664,0,0,1,.383-1.524,6.4,6.4,0,0,0,1.635,2.318,25.448,25.448,0,0,0,.71,2.886c.364.883.983,1.293,1.528,1.25a2.89,2.89,0,0,1-.725-1.287,15.974,15.974,0,0,1-.022-2.391c-.2-1.69.6-2.748-.07-4.377-.351-.851.144-4.605-1.7-4.476-.078.005.293-.842-2.687-3.724a11.183,11.183,0,0,1-2.392-2.8c-.854-1.669-.351-2.161-1.062-2.967-.51-.579-1.169-.6-2.843-2.054-.164-.143-.472-.232-.592-.476-.1-.2,0-.551-.172-.7-1.176-1.031-.946-.565-1.328-2.217-.04-.175-.472-.123-.567-.144Z"/>
        </g>
        <g id="Group_9928" data-name="Group 9928">
          <path id="Path_17577" data-name="Path 17577" class="cls-5" d="M69.132,73.724a9.391,9.391,0,0,0-2.763,2.269c-1.307,1.36-3.3,4.423-3.457,6.407-.138,1.755.7,2.648-.092,4.565-.255.618.761,1.272,1.016,2.391.119.521-.338,1.263-.42,1.93-.275,2.237,2.467,2.348,2.351,5.525,0,.026,2.821-4.393,1.075-7.021-2.061-3.1.444-2.766-.519-6.374a19.3,19.3,0,0,0,2.169-1.932c.435-.515.488-1.38.665-1.51.727-.537.861-.722,1.049-.767.44-.106.27.69.77.065.08-.1.529.229,1.488-.98.2-.255,1.186,1.444,2.649-.1,1.139-1.2,1.706-.308,1.92-.482.079-.065-.376-.367-.31-.883,0,0,1.94.091,1.641.06a1.32,1.32,0,0,1-.636-.557c-.242-.446,1.715.423,1.806-.156,0,0-1.4-.475-1.426-.656-.008-.067,1.651.6,1.876-.288.116-.457,3.522,1.837,4.257,2.9,1.9,2.748,2.091,8.577,6.466,8.055a4.584,4.584,0,0,1-1.414-1.012,2.082,2.082,0,0,1-.4-1.221,3.2,3.2,0,0,0,.86.814,1.344,1.344,0,0,0,.78.1,3.268,3.268,0,0,1-1.325-1.455,3.981,3.981,0,0,1,.085-2.159,10.1,10.1,0,0,1,1.261,2.051,10,10,0,0,0-.407-3.126,6.765,6.765,0,0,0-1.406-2.426s.2.22,1.313,1.243c.016.015-1.7-4.373-4.969-5.042-5.112-1.045-3.7-.355-8.264-2.8,0,0-1.043,3.079-2.915,3.6-1.709.474-4.668-1.1-4.778-1.036Z"/>
          <path id="_1-28" data-name="1" class="cls-10" d="M69.132,73.724a9.391,9.391,0,0,0-2.763,2.269c-1.307,1.36-3.3,4.423-3.457,6.407-.138,1.755.7,2.648-.092,4.565-.255.618.761,1.272,1.016,2.391.119.521-.338,1.263-.42,1.93-.275,2.237,2.467,2.348,2.351,5.525,0,.026,2.821-4.393,1.075-7.021-2.061-3.1.444-2.766-.519-6.374a19.3,19.3,0,0,0,2.169-1.932c.435-.515.488-1.38.665-1.51.727-.537.861-.722,1.049-.767.44-.106.27.69.77.065.08-.1.529.229,1.488-.98.2-.255,1.186,1.444,2.649-.1,1.139-1.2,1.706-.308,1.92-.482.079-.065-.376-.367-.31-.883,0,0,1.94.091,1.641.06a1.32,1.32,0,0,1-.636-.557c-.242-.446,1.715.423,1.806-.156,0,0-1.4-.475-1.426-.656-.008-.067,1.651.6,1.876-.288.116-.457,3.522,1.837,4.257,2.9,1.9,2.748,2.091,8.577,6.466,8.055a4.584,4.584,0,0,1-1.414-1.012,2.082,2.082,0,0,1-.4-1.221,3.2,3.2,0,0,0,.86.814,1.344,1.344,0,0,0,.78.1,3.268,3.268,0,0,1-1.325-1.455,3.981,3.981,0,0,1,.085-2.159,10.1,10.1,0,0,1,1.261,2.051,10,10,0,0,0-.407-3.126,6.765,6.765,0,0,0-1.406-2.426s.2.22,1.313,1.243c.016.015-1.7-4.373-4.969-5.042-5.112-1.045-3.7-.355-8.264-2.8,0,0-1.043,3.079-2.915,3.6-1.709.474-4.668-1.1-4.778-1.036Z"/>
        </g>
        <g id="Group_9929" data-name="Group 9929">
          <path id="Path_17578" data-name="Path 17578" class="cls-11" d="M66.426,70.8c-.839,1.258.277,2.379,1.45,2.438a9.519,9.519,0,0,1,3.179,1.052,5.049,5.049,0,0,0,3.157.358,3.443,3.443,0,0,0,1.34-1.266A14.121,14.121,0,0,0,76.8,70.737c.169-.409.907-.937.981-1.487.1-.727-.056-1.42-.892-1.6"/>
        </g>
        <g id="Group_9930" data-name="Group 9930">
          <path id="Path_17579" data-name="Path 17579" class="cls-5" d="M57.969,63.889a8.3,8.3,0,0,1,2.378-1.027,15.45,15.45,0,0,1,4.52-.377c.032,1.5-1.424,2.083-3.015,2.142a13.254,13.254,0,0,1-3.884-.738Z"/>
          <path id="_1-29" data-name="1" class="cls-12" d="M57.969,63.889a8.3,8.3,0,0,1,2.378-1.027,15.45,15.45,0,0,1,4.52-.377c.032,1.5-1.424,2.083-3.015,2.142a13.254,13.254,0,0,1-3.884-.738Z"/>
        </g>
        <g id="Group_9931" data-name="Group 9931">
          <path id="Path_17580" data-name="Path 17580" class="cls-5" d="M74.265,62.3c1.1-3.352,7.052-3.613,6.955-3.228a4.16,4.16,0,0,1-1.376,1.978c-1.173.941-1.651,1.112-4.409,1.389A7.222,7.222,0,0,1,74.265,62.3Z"/>
          <path id="_1-30" data-name="1" class="cls-12" d="M74.265,62.3c1.1-3.352,7.052-3.613,6.955-3.228a4.16,4.16,0,0,1-1.376,1.978c-1.173.941-1.651,1.112-4.409,1.389A7.222,7.222,0,0,1,74.265,62.3Z"/>
        </g>
        <g id="Group_9932" data-name="Group 9932">
          <path id="Path_17581" data-name="Path 17581" class="cls-5" d="M72.29,60.077c1.713.853,4.812-2.6,5.258-3.575.412-.9,3.741-3.466,4.74-3.86a1.744,1.744,0,0,0,1.284-1.716c-.186.186-1.128.953-.61.146.069-.108-1.634,1.363-2.322,1.7-2.287,1.13-3.259,3.244-4.981,4.841-.725.672-1.7.951-2.411,1.576-.374.327-.957.886-.957.886Z"/>
          <path id="_1-31" data-name="1" class="cls-10" d="M72.29,60.077c1.713.853,4.812-2.6,5.258-3.575.412-.9,3.741-3.466,4.74-3.86a1.744,1.744,0,0,0,1.284-1.716c-.186.186-1.128.953-.61.146.069-.108-1.634,1.363-2.322,1.7-2.287,1.13-3.259,3.244-4.981,4.841-.725.672-1.7.951-2.411,1.576-.374.327-.957.886-.957.886Z"/>
        </g>
        <g id="Group_9933" data-name="Group 9933">
          <path id="Path_17582" data-name="Path 17582" class="cls-5" d="M54.35,61.937c.172-3.047,2.248-.341,4.452-1.25.617-.255,1.709.255,2.948.39,3.572.39,4.7,1.169,5.286,1.153.334-.01.53-.422.243-.833-.728-1.041-3.859-.194-5.015-1.142a4.8,4.8,0,0,0-3.177-.771,5.07,5.07,0,0,0-1.341.214c-.636.3-4.008.34-4.418-.315a1.3,1.3,0,0,0,.776.654c.063.3-.938.229-.938.229.154.1.776.291.709.349-.157.135-.9-.072-.9-.072-.037.073.282.257.617.434.049.026-.513.135-.513.135-.022.236,1.129.814,1.267.825Z"/>
          <path id="_1-32" data-name="1" class="cls-10" d="M54.35,61.937c.172-3.047,2.248-.341,4.452-1.25.617-.255,1.709.255,2.948.39,3.572.39,4.7,1.169,5.286,1.153.334-.01.53-.422.243-.833-.728-1.041-3.859-.194-5.015-1.142a4.8,4.8,0,0,0-3.177-.771,5.07,5.07,0,0,0-1.341.214c-.636.3-4.008.34-4.418-.315a1.3,1.3,0,0,0,.776.654c.063.3-.938.229-.938.229.154.1.776.291.709.349-.157.135-.9-.072-.9-.072-.037.073.282.257.617.434.049.026-.513.135-.513.135-.022.236,1.129.814,1.267.825Z"/>
        </g>
        <g id="Group_9934" data-name="Group 9934">
          <path id="Path_17583" data-name="Path 17583" class="cls-11" d="M62.493,62.528a1.343,1.343,0,0,1,.063.407,1.3,1.3,0,0,1-1.381,1.254c-.742,0-1.371-1.094-1.323-1.115a7.13,7.13,0,0,1,2.641-.546Z"/>
          <path id="_1-33" data-name="1" class="cls-13" d="M62.493,62.528a1.343,1.343,0,0,1,.063.407,1.3,1.3,0,0,1-1.381,1.254c-.742,0-1.371-1.094-1.323-1.115a7.13,7.13,0,0,1,2.641-.546Z"/>
        </g>
        <g id="Group_9935" data-name="Group 9935">
          <path id="Path_17584" data-name="Path 17584" class="cls-11" d="M61.914,62.6a.706.706,0,0,1,.033.215.687.687,0,0,1-.728.661c-.391,0-.722-.576-.7-.587A3.755,3.755,0,0,1,61.914,62.6Z"/>
          <path id="_1-34" data-name="1" class="cls-14" d="M61.914,62.6a.706.706,0,0,1,.033.215.687.687,0,0,1-.728.661c-.391,0-.722-.576-.7-.587A3.755,3.755,0,0,1,61.914,62.6Z"/>
        </g>
        <g id="Group_9936" data-name="Group 9936">
          <path id="Path_17585" data-name="Path 17585" class="cls-11" d="M60.536,63.032a.316.316,0,1,1-.316.316A.316.316,0,0,1,60.536,63.032Z"/>
          <path id="_1-35" data-name="1" class="cls-12" d="M60.536,63.032a.316.316,0,1,1-.316.316A.316.316,0,0,1,60.536,63.032Z"/>
        </g>
        <g id="Group_9937" data-name="Group 9937">
          <path id="Path_17586" data-name="Path 17586" class="cls-11" d="M77.7,59.513a1.86,1.86,0,0,1,.14.463,1.3,1.3,0,0,1-1.023,1.56,1.61,1.61,0,0,1-1.224-.207.821.821,0,0,1-.337-.541A7.472,7.472,0,0,1,77.7,59.513Z"/>
          <path id="_1-36" data-name="1" class="cls-13" d="M77.7,59.513a1.86,1.86,0,0,1,.14.463,1.3,1.3,0,0,1-1.023,1.56,1.61,1.61,0,0,1-1.224-.207.821.821,0,0,1-.337-.541A7.472,7.472,0,0,1,77.7,59.513Z"/>
        </g>
        <g id="Group_9938" data-name="Group 9938">
          <path id="Path_17587" data-name="Path 17587" class="cls-11" d="M77.134,59.817a.708.708,0,0,1,.086.2.687.687,0,0,1-.539.822c-.378.1-.844-.377-.822-.394A3.756,3.756,0,0,1,77.134,59.817Z"/>
          <path id="_1-37" data-name="1" class="cls-14" d="M77.134,59.817a.708.708,0,0,1,.086.2.687.687,0,0,1-.539.822c-.378.1-.844-.377-.822-.394A3.756,3.756,0,0,1,77.134,59.817Z"/>
        </g>
        <g id="Group_9939" data-name="Group 9939">
          <path id="Path_17588" data-name="Path 17588" class="cls-11" d="M75.908,60.577a.316.316,0,1,1-.227.386A.316.316,0,0,1,75.908,60.577Z"/>
          <path id="_1-38" data-name="1" class="cls-12" d="M75.908,60.577a.316.316,0,1,1-.227.386A.316.316,0,0,1,75.908,60.577Z"/>
        </g>
        <g id="Group_9940" data-name="Group 9940">
          <path id="Path_17589" data-name="Path 17589" class="cls-11" d="M56.749,52.346c1.745-1.633,6.456-1.477,8.58-.825l.093.023"/>
        </g>
        <g id="Group_9941" data-name="Group 9941">
          <path id="Path_17590" data-name="Path 17590" class="cls-11" d="M63.972,48.8c.927.565,1.84-.52,2.407-1.142"/>
        </g>
        <g id="Group_9942" data-name="Group 9942">
          <path id="Path_17591" data-name="Path 17591" class="cls-11" d="M60.36,52.624c1.14-.018,3.787.37,4.714,1.153.025.021.032.019.07.051"/>
        </g>
        <g id="Group_9943" data-name="Group 9943">
          <path id="Path_17592" data-name="Path 17592" class="cls-11" d="M64.527,54.723c.058.739,2.49.5,2.713,2.315a3.357,3.357,0,0,0,.682,2.176"/>
        </g>
        <g id="Group_9944" data-name="Group 9944">
          <path id="Path_17593" data-name="Path 17593" class="cls-11" d="M67.428,50.062c-.4.725.145,2.55.71,3.3,1.053,1.4-.738,2.637,1.07,4.557a2.449,2.449,0,0,1,.474,2.575"/>
        </g>
        <g id="Group_9945" data-name="Group 9945">
          <path id="Path_17594" data-name="Path 17594" class="cls-11" d="M67.242,62.415c.35.569,1.993-.673,1.082-2.26"/>
        </g>
        <g id="Group_9946" data-name="Group 9946">
          <path id="Path_17595" data-name="Path 17595" class="cls-11" d="M71.472,59.291c.024-.934.438-1.141-.687-1.934a1.574,1.574,0,0,1-.455-1.307"/>
        </g>
        <g id="Group_9947" data-name="Group 9947">
          <path id="Path_17596" data-name="Path 17596" class="cls-11" d="M69.836,50.648a4.847,4.847,0,0,1,.278,2.222"/>
        </g>
        <g id="Group_9948" data-name="Group 9948">
          <path id="Path_17597" data-name="Path 17597" class="cls-11" d="M70.854,49.259c-.1-2.4,2.044-3.516,2.1-3.673"/>
        </g>
        <g id="Group_9949" data-name="Group 9949">
          <path id="Path_17598" data-name="Path 17598" class="cls-11" d="M72.675,49.352c.376.963.333,3.622-.4,4.467-1.157,1.341,1.713,2.006.033,5.957-.048.114-.295.243-.295.243-.025.171-.058.163.156.22"/>
        </g>
        <g id="Group_9950" data-name="Group 9950">
          <path id="Path_17599" data-name="Path 17599" class="cls-11" d="M74.445,58.293c-.108-.491.322-1.12.144-1.564"/>
        </g>
        <g id="Group_9951" data-name="Group 9951">
          <path id="Path_17600" data-name="Path 17600" class="cls-11" d="M74.373,55.988c-.427-1.708-1.3-2.438.317-4.11.685-.71-.381-1.728,1.165-1.661,1.212.052.542-1.748,1.939-2.657.392-.255,1.059-.8,1.549-.8"/>
        </g>
        <g id="Group_9952" data-name="Group 9952">
          <path id="Path_17601" data-name="Path 17601" class="cls-11" d="M75.33,48.148c.109-.112,1.321-1.687,1.389-1.7"/>
        </g>
        <g id="Group_9953" data-name="Group 9953">
          <path id="Path_17602" data-name="Path 17602" class="cls-11" d="M51.965,61.574a7.869,7.869,0,0,1,2.661-6.623,11.414,11.414,0,0,0,1.011-.877"/>
        </g>
        <g id="Group_9954" data-name="Group 9954">
          <path id="Path_17603" data-name="Path 17603" class="cls-11" d="M51.9,57.624c0-2.3.015-3.211,1.574-5.093"/>
        </g>
        <g id="Group_9955" data-name="Group 9955">
          <path id="Path_17604" data-name="Path 17604" class="cls-11" d="M51.5,54.229a4.069,4.069,0,0,1,1.482-2.624"/>
        </g>
        <g id="Group_9956" data-name="Group 9956">
          <path id="Path_17605" data-name="Path 17605" class="cls-11" d="M50.916,52.377c-.428-.7.959-2.441,1.481-2.963"/>
        </g>
        <g id="Group_9957" data-name="Group 9957">
          <path id="Path_17606" data-name="Path 17606" class="cls-11" d="M50.638,50.216c-.171-.522.986-1.942,1.389-2.346"/>
        </g>
        <g id="Group_9958" data-name="Group 9958">
          <path id="Path_17607" data-name="Path 17607" class="cls-11" d="M49.867,49.074a3.251,3.251,0,0,1,.617-1.636"/>
        </g>
        <g id="Group_9959" data-name="Group 9959">
          <path id="Path_17608" data-name="Path 17608" class="cls-11" d="M68.694,62.624C68.627,64.809,69.4,64.8,70.7,65.9"/>
        </g>
        <g id="Group_9960" data-name="Group 9960">
          <path id="Path_17609" data-name="Path 17609" class="cls-11" d="M60.978,67.192c2.449,0,3.146-.311,4.144-2.325.468-.945,2.6-1.409.27-1.409"/>
        </g>
        <g id="Group_9961" data-name="Group 9961">
          <path id="Path_17610" data-name="Path 17610" class="cls-11" d="M65.669,65.741c.024-.217.359-.929.617-1.019"/>
        </g>
        <g id="Group_9962" data-name="Group 9962">
          <path id="Path_17611" data-name="Path 17611" class="cls-11" d="M66.672,63.133a.946.946,0,0,1,.417.571"/>
        </g>
        <g id="Group_9963" data-name="Group 9963">
          <path id="Path_17612" data-name="Path 17612" class="cls-11" d="M54.311,65.587a1,1,0,0,0,1.173-.309"/>
        </g>
        <g id="Group_9964" data-name="Group 9964">
          <path id="Path_17613" data-name="Path 17613" class="cls-11" d="M57.824,63.793a1.327,1.327,0,0,1-1.146.443"/>
        </g>
        <g id="Group_9965" data-name="Group 9965">
          <path id="Path_17614" data-name="Path 17614" class="cls-11" d="M64.639,62.3a5.433,5.433,0,0,1,.937.047"/>
        </g>
        <g id="Group_9966" data-name="Group 9966">
          <path id="Path_17615" data-name="Path 17615" class="cls-11" d="M53.879,64.692c.764.529,1.709-.3,1.914-.278"/>
        </g>
        <g id="Group_9967" data-name="Group 9967">
          <path id="Path_17616" data-name="Path 17616" class="cls-11" d="M54.52,62.157c.012.546-.152,1.239.563,1.239"/>
        </g>
        <g id="Group_9968" data-name="Group 9968">
          <path id="Path_17617" data-name="Path 17617" class="cls-11" d="M52.366,62.007c.783-.189.87.141.957.154"/>
        </g>
        <g id="Group_9969" data-name="Group 9969">
          <path id="Path_17618" data-name="Path 17618" class="cls-11" d="M51.255,62.624a1.054,1.054,0,0,0,.648.494"/>
        </g>
        <g id="Group_9970" data-name="Group 9970">
          <path id="Path_17619" data-name="Path 17619" class="cls-11" d="M51.657,63.612c.3.5.535.494,1.019.494"/>
        </g>
        <g id="Group_9971" data-name="Group 9971">
          <path id="Path_17620" data-name="Path 17620" class="cls-11" d="M43.354,62.686c-.241-1.091.609-1.221,1.273.286.336.762,1.525,1.886,1.173,2.739-.047.114,1.78,2.1.365,2.04-.427-.018-2.22-1.73-2.225-1.731"/>
        </g>
        <g id="Group_9972" data-name="Group 9972">
          <path id="Path_17621" data-name="Path 17621" class="cls-11" d="M72.018,60.02c-.479,2.958,1.666,2.754,1.518,5.048a9.513,9.513,0,0,0,.934,3.355,1.836,1.836,0,0,0,.242.437"/>
        </g>
        <g id="Group_9973" data-name="Group 9973">
          <path id="Path_17622" data-name="Path 17622" class="cls-11" d="M74.5,63.55c1.668,0,2.2.554,3.418.5a1.145,1.145,0,0,0,.44-.25"/>
        </g>
        <g id="Group_9974" data-name="Group 9974">
          <path id="Path_17623" data-name="Path 17623" class="cls-11" d="M80.669,62.84c.365-.476,1.757-2.24,1.7-2.932"/>
        </g>
        <g id="Group_9975" data-name="Group 9975">
          <path id="Path_17624" data-name="Path 17624" class="cls-11" d="M81.225,60.772c.077-.191.16-.369.247-.556"/>
        </g>
        <g id="Group_9976" data-name="Group 9976">
          <line id="Line_266" data-name="Line 266" class="cls-15" y1="1.019" x2="0.957" transform="translate(82.706 57.716)"/>
        </g>
        <g id="Group_9977" data-name="Group 9977">
          <path id="Path_17625" data-name="Path 17625" class="cls-11" d="M73.817,60.463c.534-.113,3.469-1.825,4.038-1.945a6.932,6.932,0,0,1,1.911-.429,7.116,7.116,0,0,0,2.827-.733c.033-.033.029-.054.082-.072"/>
        </g>
        <g id="Group_9978" data-name="Group 9978">
          <path id="Path_17626" data-name="Path 17626" class="cls-11" d="M83.293,55.957c.105-.19.347-.617.432-.8"/>
        </g>
        <g id="Group_9979" data-name="Group 9979">
          <path id="Path_17627" data-name="Path 17627" class="cls-11" d="M83.6,54.692a3.507,3.507,0,0,1,.247-.432"/>
        </g>
        <g id="Group_9980" data-name="Group 9980">
          <path id="Path_17628" data-name="Path 17628" class="cls-11" d="M73.663,61.142c1.059.08,1.292-.427,1.875-.8"/>
        </g>
        <g id="Group_9981" data-name="Group 9981">
          <path id="Path_17629" data-name="Path 17629" class="cls-11" d="M80.951,58.763a1.713,1.713,0,0,0,1.231-.4"/>
        </g>
        <g id="Group_9982" data-name="Group 9982">
          <path id="Path_17630" data-name="Path 17630" class="cls-11" d="M85.269,60.772c0,2.573-2.192,1.437-1.428,4.661.032.133.131,1.059.131,1.235"/>
        </g>
        <g id="Group_9983" data-name="Group 9983">
          <path id="Path_17631" data-name="Path 17631" class="cls-11" d="M80.608,68.92c.323.646,2.128,2.2,2.315,3.148"/>
        </g>
        <g id="Group_9984" data-name="Group 9984">
          <path id="Path_17632" data-name="Path 17632" class="cls-11" d="M78.046,70.093c.784,1.448,3.456,1.315,3.92,2.654"/>
        </g>
        <g id="Group_9985" data-name="Group 9985">
          <path id="Path_17633" data-name="Path 17633" class="cls-11" d="M84.559,69.661c-.674,1.382,1.624,3.808,1.5,4.617"/>
        </g>
        <g id="Group_9986" data-name="Group 9986">
          <path id="Path_17634" data-name="Path 17634" class="cls-11" d="M60.855,75.68c.2-1.5.27-3.305,1.08-4.661"/>
        </g>
        <g id="Group_9987" data-name="Group 9987">
          <path id="Path_17635" data-name="Path 17635" class="cls-11" d="M60.423,72.964a3.528,3.528,0,0,1,.8-1.975"/>
        </g>
        <g id="Group_9988" data-name="Group 9988">
          <path id="Path_17636" data-name="Path 17636" class="cls-11" d="M58.941,71.945a2.987,2.987,0,0,1,.957-1.3"/>
        </g>
        <g id="Group_9989" data-name="Group 9989">
          <path id="Path_17637" data-name="Path 17637" class="cls-11" d="M66.155,72.059c.582,1.014-3.163,5.226-1.61,6.344"/>
        </g>
        <g id="Group_9990" data-name="Group 9990">
          <path id="Path_17638" data-name="Path 17638" class="cls-11" d="M63.2,72.932C62.215,74.9,60.774,74.946,61.475,78a5.785,5.785,0,0,0,.491,1.88"/>
        </g>
        <g id="Group_9991" data-name="Group 9991">
          <path id="Path_17639" data-name="Path 17639" class="cls-11" d="M58.664,75.278a15.535,15.535,0,0,1,.008,3.3.864.864,0,0,0-.008.216"/>
        </g>
        <g id="Group_9992" data-name="Group 9992">
          <path id="Path_17640" data-name="Path 17640" class="cls-11" d="M55.361,76.328c-1.54,2.663,1.143,4.785-.586,7.87"/>
        </g>
        <g id="Group_9993" data-name="Group 9993">
          <path id="Path_17641" data-name="Path 17641" class="cls-11" d="M56.1,77.963c-.2,1.858,1.225,4.106.864,6.265"/>
        </g>
        <g id="Group_9994" data-name="Group 9994">
          <path id="Path_17642" data-name="Path 17642" class="cls-11" d="M58.355,81.112c.08.488.2,3.705-.154,4.136"/>
        </g>
        <g id="Group_9995" data-name="Group 9995">
          <path id="Path_17643" data-name="Path 17643" class="cls-11" d="M59.528,81.852c.135.574.586,3.617-.741,5.062"/>
        </g>
        <g id="Group_9996" data-name="Group 9996">
          <path id="Path_17644" data-name="Path 17644" class="cls-11" d="M60.763,83.241a4.965,4.965,0,0,1-.71,4.444"/>
        </g>
        <g id="Group_9997" data-name="Group 9997">
          <path id="Path_17645" data-name="Path 17645" class="cls-11" d="M66.658,80.957a5.387,5.387,0,0,0,.864-1.3"/>
        </g>
        <g id="Group_9998" data-name="Group 9998">
          <path id="Path_17646" data-name="Path 17646" class="cls-11" d="M67.46,80.772a6.313,6.313,0,0,0,1.08-1.914"/>
        </g>
        <g id="Group_9999" data-name="Group 9999">
          <path id="Path_17647" data-name="Path 17647" class="cls-11" d="M70.584,74.106c.186.99-1.276,2.954-1.519,4.367"/>
        </g>
        <g id="Group_10000" data-name="Group 10000">
          <path id="Path_17648" data-name="Path 17648" class="cls-11" d="M69.947,74.685c-.064.336-.679.749-1.028,1.193a12.177,12.177,0,0,0-1.552,2.3"/>
        </g>
        <g id="Group_10001" data-name="Group 10001">
          <path id="Path_17649" data-name="Path 17649" class="cls-11" d="M66.133,78.21a2.986,2.986,0,0,1,.9-1.358"/>
        </g>
        <g id="Group_10002" data-name="Group 10002">
          <path id="Path_17650" data-name="Path 17650" class="cls-11" d="M68.834,74.584c-.015.368-1.351,1.727-1.59,2.006"/>
        </g>
        <g id="Group_10003" data-name="Group 10003">
          <path id="Path_17651" data-name="Path 17651" class="cls-11" d="M66.1,81.513c-.074.288.146,2.031.37,2.093"/>
        </g>
        <g id="Group_10004" data-name="Group 10004">
          <path id="Path_17652" data-name="Path 17652" class="cls-11" d="M64.929,84.075a13.4,13.4,0,0,1-.219,2.3c-.59,2.231.064,2.568.471,4.8l.026.087"/>
        </g>
        <g id="Group_10005" data-name="Group 10005">
          <path id="Path_17653" data-name="Path 17653" class="cls-11" d="M62.146,85.662c.1.5-.3,2.482.176,3.955.346,1.07-.333,2.16-.016,2.559"/>
        </g>
        <g id="Group_10006" data-name="Group 10006">
          <path id="Path_17654" data-name="Path 17654" class="cls-11" d="M62.281,83.35c.233,2.19-.8,4.78-1.491,6.755"/>
        </g>
        <g id="Group_10007" data-name="Group 10007">
          <path id="Path_17655" data-name="Path 17655" class="cls-11" d="M68.493,81.484c.544.353,3.718-.016,4.492-.372"/>
        </g>
        <g id="Group_10008" data-name="Group 10008">
          <path id="Path_17656" data-name="Path 17656" class="cls-11" d="M76.442,79.954a5.715,5.715,0,0,0,2.222-1.312"/>
        </g>
        <g id="Group_10009" data-name="Group 10009">
          <path id="Path_17657" data-name="Path 17657" class="cls-11" d="M80.608,73.426c.724,1.264,1.894,1.067,2.685,1.389"/>
        </g>
        <g id="Group_10010" data-name="Group 10010">
          <path id="Path_17658" data-name="Path 17658" class="cls-11" d="M77.059,72.686c.853,1.122,3.152,1.429,3.237,1.881"/>
        </g>
        <g id="Group_10011" data-name="Group 10011">
          <path id="Path_17659" data-name="Path 17659" class="cls-11" d="M72.969,74.923a2.645,2.645,0,0,0,.015,2.269"/>
        </g>
        <g id="Group_10012" data-name="Group 10012">
          <path id="Path_17660" data-name="Path 17660" class="cls-11" d="M74.219,77.716a3.3,3.3,0,0,1-.711-2.928"/>
        </g>
        <g id="Group_10013" data-name="Group 10013">
          <path id="Path_17661" data-name="Path 17661" class="cls-11" d="M74.158,75.618a4.676,4.676,0,0,0,.556.864"/>
        </g>
        <g id="Group_10014" data-name="Group 10014">
          <path id="Path_17662" data-name="Path 17662" class="cls-11" d="M74.665,74.381A3.948,3.948,0,0,0,75.732,76.2"/>
        </g>
        <g id="Group_10015" data-name="Group 10015">
          <path id="Path_17663" data-name="Path 17663" class="cls-11" d="M75.253,73.8c-.082.415,1.067,1.994,1.883,1.929"/>
        </g>
        <g id="Group_10016" data-name="Group 10016">
          <path id="Path_17664" data-name="Path 17664" class="cls-11" d="M75.848,73.118a3.633,3.633,0,0,0,1.828,1.79"/>
        </g>
        <g id="Group_10017" data-name="Group 10017">
          <path id="Path_17665" data-name="Path 17665" class="cls-11" d="M84.5,75.679c1.019.567.764,2.291,2.623,5.9"/>
        </g>
        <g id="Group_10018" data-name="Group 10018">
          <path id="Path_17666" data-name="Path 17666" class="cls-11" d="M87.691,77.672c1.213,1.443-.749,3.283.71,5.432"/>
        </g>
        <g id="Group_10019" data-name="Group 10019">
          <path id="Path_17667" data-name="Path 17667" class="cls-11" d="M86.411,72.593a10.5,10.5,0,0,0,1.111,1.574"/>
        </g>
        <g id="Group_10020" data-name="Group 10020">
          <path id="Path_17668" data-name="Path 17668" class="cls-11" d="M85.838,69.489A20.552,20.552,0,0,0,87.3,71.883a12.722,12.722,0,0,0,1.756,1.744"/>
        </g>
        <g id="Group_10021" data-name="Group 10021">
          <path id="Path_17669" data-name="Path 17669" class="cls-11" d="M85.9,67.909a13.15,13.15,0,0,0,1.585,2.238,7,7,0,0,0,1.7,1.134"/>
        </g>
        <g id="Group_10022" data-name="Group 10022">
          <path id="Path_17670" data-name="Path 17670" class="cls-11" d="M80.886,87.531c.031.059,1.171,2.066,1.206,2.08a10.507,10.507,0,0,0-.3-1.792c1.033,1.254.841.906.242-.609a6.739,6.739,0,0,1-.317-.759"/>
        </g>
        <g id="Group_10023" data-name="Group 10023">
          <path id="Path_17671" data-name="Path 17671" class="cls-11" d="M85.3,89.352a6.453,6.453,0,0,0,0-1.141,4.925,4.925,0,0,0-.608-1.321c.108.288,1.35,1.261,1.34,1.667a5.957,5.957,0,0,0-.229-1.911,12.323,12.323,0,0,0-1.826-2.511"/>
        </g>
        <g id="Group_10024" data-name="Group 10024">
          <path id="Path_17672" data-name="Path 17672" class="cls-11" d="M77.609,87.626c.6.991.623,2.092,1.765,2.751.076-.032-.886-2.328-.146-1.147.586.936,1.27,1.25,1.535,1.636"/>
        </g>
        <g id="Group_10025" data-name="Group 10025">
          <path id="Path_17673" data-name="Path 17673" class="cls-11" d="M74.189,86.359c0,.15.7,2.582.584,1-.087-1.177.223.485.959.98"/>
        </g>
        <g id="Group_10026" data-name="Group 10026">
          <path id="Path_17674" data-name="Path 17674" class="cls-11" d="M75.3,90.278c-.059.977,1.376,2.486,1.243,1.759-.456-2.491.29-.325,1.272.455a1.421,1.421,0,0,0,.386.255"/>
        </g>
        <g id="Group_10027" data-name="Group 10027">
          <path id="Path_17675" data-name="Path 17675" class="cls-11" d="M70.207,88.643c.263,1.365.552,2.817,1.947,3.467.078.037-.6-1.11-.429-1.855A13.95,13.95,0,0,0,73,92.1l.078.1"/>
        </g>
        <g id="Group_10028" data-name="Group 10028">
          <path id="Path_17676" data-name="Path 17676" class="cls-11" d="M73.787,92.377c-.3-.9-.087-1.212.556-.509"/>
        </g>
        <g id="Group_10029" data-name="Group 10029">
          <path id="Path_17677" data-name="Path 17677" class="cls-16" d="M72.506,94.462l-.154.336-.1-.049-.1-.052-.1-.054-.1-.057-.1-.059-.1-.061-.1-.063-.1-.065-.1-.067-.1-.069-.1-.07-.094-.072-.093-.073-.091-.074-.09-.075-.088-.076-.086-.077-.084-.078-.082-.079-.08-.079-.078-.079-.076-.08-.073-.08-.071-.08-.068-.08-.065-.08-.062-.079-.059-.079-.056-.079-.053-.078-.049-.078-.046-.077.319-.185.04.068.044.069.047.07.051.071.054.073.057.073.06.074.063.074.066.075.069.075.071.075.074.075.076.075.078.074.08.074.082.073.084.072.085.072.087.071.088.069.09.068.091.067.092.065.093.063.093.062.094.06.095.058.095.055.1.053.1.051.1.048Z"/>
        </g>
        <g id="Group_10030" data-name="Group 10030">
          <path id="Path_17678" data-name="Path 17678" class="cls-11" d="M73.139,93.89a3.87,3.87,0,0,0,.988,1.049"/>
        </g>
        <g id="Group_10031" data-name="Group 10031">
          <path id="Path_17679" data-name="Path 17679" class="cls-11" d="M71.719,98.581c.262,1.049,1.155,3.166,2.191,3.7"/>
        </g>
        <g id="Group_10032" data-name="Group 10032">
          <path id="Path_17680" data-name="Path 17680" class="cls-11" d="M67.213,103.766c2.35.429,5.483.575,6.227,3.326.026.1-.025.054.039.131"/>
        </g>
        <g id="Group_10033" data-name="Group 10033">
          <path id="Path_17681" data-name="Path 17681" class="cls-11" d="M77.707,107.686c-.037-1.485,1.288-3.009,2.495-3.7,1.083-.624,4.063-2.07,5.283-2.654"/>
        </g>
        <g id="Group_10034" data-name="Group 10034">
          <path id="Path_17682" data-name="Path 17682" class="cls-11" d="M84.251,110a2.106,2.106,0,0,1-.679,1.574"/>
        </g>
        <g id="Group_10035" data-name="Group 10035">
          <path id="Path_17683" data-name="Path 17683" class="cls-11" d="M83.757,113.674a1.325,1.325,0,0,1,.463-1.142"/>
        </g>
        <g id="Group_10036" data-name="Group 10036">
          <path id="Path_17684" data-name="Path 17684" class="cls-11" d="M81.041,109.013a3.035,3.035,0,0,1,0,1.049"/>
        </g>
        <g id="Group_10037" data-name="Group 10037">
          <path id="Path_17685" data-name="Path 17685" class="cls-11" d="M82.893,106.729c-.057.186-.007.772.278.772"/>
        </g>
        <g id="Group_10038" data-name="Group 10038">
          <path id="Path_17686" data-name="Path 17686" class="cls-11" d="M85.208,103.149c-.654.413-.291.991,0,1.019"/>
        </g>
        <g id="Group_10039" data-name="Group 10039">
          <path id="Path_17687" data-name="Path 17687" class="cls-11" d="M86.288,106.544c-.374-.464.228-1.243.463-1.265"/>
        </g>
        <g id="Group_10040" data-name="Group 10040">
          <path id="Path_17688" data-name="Path 17688" class="cls-11" d="M88.263,102.779a3.32,3.32,0,0,1-.432,1.482"/>
        </g>
        <g id="Group_10041" data-name="Group 10041">
          <path id="Path_17689" data-name="Path 17689" class="cls-11" d="M77.245,110.31c-.641.529-.333,1.308.154,1.3"/>
        </g>
        <g id="Group_10042" data-name="Group 10042">
          <path id="Path_17690" data-name="Path 17690" class="cls-11" d="M73.356,110.063c.425-.221.721-.525,1.2-.525"/>
        </g>
        <g id="Group_10043" data-name="Group 10043">
          <path id="Path_17691" data-name="Path 17691" class="cls-11" d="M72.214,111.266a2.085,2.085,0,0,0,1.019.247"/>
        </g>
        <g id="Group_10044" data-name="Group 10044">
          <path id="Path_17692" data-name="Path 17692" class="cls-11" d="M72.954,112.871a1.182,1.182,0,0,0,1.173.463"/>
        </g>
        <g id="Group_10045" data-name="Group 10045">
          <path id="Path_17693" data-name="Path 17693" class="cls-11" d="M74.9,112.655c.018.3.262.83.586.8"/>
        </g>
        <g id="Group_10046" data-name="Group 10046">
          <path id="Path_17694" data-name="Path 17694" class="cls-11" d="M69.5,108.612c.076.522.5,1.5,1.2,1.451"/>
        </g>
        <g id="Group_10047" data-name="Group 10047">
          <path id="Path_17695" data-name="Path 17695" class="cls-11" d="M76.164,121.02a.713.713,0,0,1-.525-.926"/>
        </g>
        <g id="Group_10048" data-name="Group 10048">
          <path id="Path_17696" data-name="Path 17696" class="cls-11" d="M76.689,118.7a2.915,2.915,0,0,1,.556-.988"/>
        </g>
        <g id="Group_10049" data-name="Group 10049">
          <path id="Path_17697" data-name="Path 17697" class="cls-11" d="M75.856,115.5c.135.3.586.5.741.71"/>
        </g>
        <g id="Group_10050" data-name="Group 10050">
          <path id="Path_17698" data-name="Path 17698" class="cls-11" d="M78.387,121.051c-.079-.264.212-.621.4-.8"/>
        </g>
        <g id="Group_10051" data-name="Group 10051">
          <path id="Path_17699" data-name="Path 17699" class="cls-11" d="M80.3,120.711a1.625,1.625,0,0,1,.309-.957"/>
        </g>
        <g id="Group_10052" data-name="Group 10052">
          <path id="Path_17700" data-name="Path 17700" class="cls-11" d="M81.442,118.273a4.287,4.287,0,0,0,.123-.926"/>
        </g>
        <g id="Group_10053" data-name="Group 10053">
          <path id="Path_17701" data-name="Path 17701" class="cls-11" d="M81.72,115.8c.374.655.164.645.123,1.08"/>
        </g>
        <g id="Group_10054" data-name="Group 10054">
          <path id="Path_17702" data-name="Path 17702" class="cls-11" d="M79.467,116.7a4.08,4.08,0,0,1,.309-1.049"/>
        </g>
        <g id="Group_10055" data-name="Group 10055">
          <path id="Path_17703" data-name="Path 17703" class="cls-11" d="M79.529,114.26c-.234-.3.049-.786.34-.957"/>
        </g>
        <g id="Group_10056" data-name="Group 10056">
          <path id="Path_17704" data-name="Path 17704" class="cls-11" d="M65.346,112.486c-.641,1.9.1,3.322,4.676,2.639"/>
        </g>
        <g id="Group_10057" data-name="Group 10057">
          <path id="Path_17705" data-name="Path 17705" class="cls-11" d="M71.133,114.986c2.645.372,2.559,3.6,2.485,5.046"/>
        </g>
        <g id="Group_10058" data-name="Group 10058">
          <path id="Path_17706" data-name="Path 17706" class="cls-11" d="M57.882,100.812c2.09,1.645,2.1,3.6,3.271,4.157,2.242,1.07,6.4.854,4.579,6.391"/>
        </g>
        <g id="Group_10059" data-name="Group 10059">
          <path id="Path_17707" data-name="Path 17707" class="cls-11" d="M57.028,101.328c.738,1.77,1.4,6.509,5.957,6.08"/>
        </g>
        <g id="Group_10060" data-name="Group 10060">
          <path id="Path_17708" data-name="Path 17708" class="cls-11" d="M51.041,90.958c-.055,2.139-2.386,4.256,3.121,8.174,4.816,3.426.431,9.21,9.124,9.066"/>
        </g>
        <g id="Group_10061" data-name="Group 10061">
          <path id="Path_17709" data-name="Path 17709" class="cls-11" d="M104.066,87.748c2.834,2.182,3.3-.017,6.076.891a6.146,6.146,0,0,0,3.06-.273"/>
        </g>
        <g id="Group_10062" data-name="Group 10062">
          <path id="Path_17710" data-name="Path 17710" class="cls-11" d="M91.411,84.106c1.712,2.686,3.574,4.8,5.278,7.315"/>
        </g>
        <g id="Group_10063" data-name="Group 10063">
          <path id="Path_17711" data-name="Path 17711" class="cls-11" d="M94.961,87.161c1.3,1.976,2.725,3.853,4.1,5.772"/>
        </g>
        <g id="Group_10064" data-name="Group 10064">
          <path id="Path_17712" data-name="Path 17712" class="cls-11" d="M93.356,83.519c1.1,1.635,2.427,3.36,3.457,4.969"/>
        </g>
        <g id="Group_10065" data-name="Group 10065">
          <path id="Path_17713" data-name="Path 17713" class="cls-11" d="M101.6,89.754c.277.218,1.64.805.556,1.389"/>
        </g>
        <g id="Group_10066" data-name="Group 10066">
          <path id="Path_17714" data-name="Path 17714" class="cls-11" d="M96.72,100.094c-1.243-1.139-3.57-3.482-.432-4.228"/>
        </g>
        <g id="Group_10067" data-name="Group 10067">
          <path id="Path_17715" data-name="Path 17715" class="cls-11" d="M95.424,95.248a1.747,1.747,0,0,1-.741-2.624"/>
        </g>
        <g id="Group_10068" data-name="Group 10068">
          <path id="Path_17716" data-name="Path 17716" class="cls-11" d="M90.918,88.921c1.222,1.556,1.389,4.965,1.389,6.914"/>
        </g>
        <g id="Group_10069" data-name="Group 10069">
          <path id="Path_17717" data-name="Path 17717" class="cls-11" d="M105.64,90.988c.568.712,2.287,2.5,3.056,3.272"/>
        </g>
        <g id="Group_10070" data-name="Group 10070">
          <path id="Path_17718" data-name="Path 17718" class="cls-11" d="M108.263,91.945a11.415,11.415,0,0,1,1.173,1.019"/>
        </g>
        <g id="Group_10071" data-name="Group 10071">
          <path id="Path_17719" data-name="Path 17719" class="cls-11" d="M100.624,87.47c.915.183,1.838-.55,3.054.075"/>
        </g>
        <g id="Group_10072" data-name="Group 10072">
          <path id="Path_17720" data-name="Path 17720" class="cls-5" d="M103.055,103.6c-1.675-.556-4.066,1.23-4.12,2.621-.095,2.426-.02,2.407,1.011,4.563.659,1.378.149,1.832,1.977.581,1.591-1.088,4.345-3.094,4.345-3.094-.059-.922-1.58-2.184-1.891-3.125C104.251,104.764,103.446,104.085,103.055,103.6Z"/>
          <path id="_1-39" data-name="1" class="cls-8" d="M103.055,103.6c-1.675-.556-4.066,1.23-4.12,2.621-.095,2.426-.02,2.407,1.011,4.563.659,1.378.149,1.832,1.977.581,1.591-1.088,4.345-3.094,4.345-3.094-.059-.922-1.58-2.184-1.891-3.125C104.251,104.764,103.446,104.085,103.055,103.6Z"/>
        </g>
        <g id="Group_10073" data-name="Group 10073">
          <path id="Path_17721" data-name="Path 17721" class="cls-5" d="M108,106.013c-1.093-.629-3.857.773-4.365,2.681-.171.641-3.011.541-3.333.3a3.379,3.379,0,0,1-1.33-2.639c0-3.95,2.493-5.607,5.347-7.67a28.874,28.874,0,0,0,4.452-4.187c2.089-2.376,8.123-1.686,8.022-1.434-2.767,6.905-2.844,5.265-7.108,10.88-.335.442-1.638,2.012-1.685,2.068Z"/>
          <path id="_1-40" data-name="1" class="cls-8" d="M108,106.013c-1.093-.629-3.857.773-4.365,2.681-.171.641-3.011.541-3.333.3a3.379,3.379,0,0,1-1.33-2.639c0-3.95,2.493-5.607,5.347-7.67a28.874,28.874,0,0,0,4.452-4.187c2.089-2.376,8.123-1.686,8.022-1.434-2.767,6.905-2.844,5.265-7.108,10.88-.335.442-1.638,2.012-1.685,2.068Z"/>
        </g>
        <g id="Group_10074" data-name="Group 10074">
          <path id="Path_17722" data-name="Path 17722" class="cls-11" d="M32.94,107.523c2.207,1.272,1.253.844,3.221,1.369.919.245,2.418,2.85,3.076,3.693"/>
        </g>
        <g id="Group_10075" data-name="Group 10075">
          <path id="Path_17723" data-name="Path 17723" class="cls-11" d="M99.577,105.393c.006.007,1.63,1.6,1.359,1.19-.006-.009-.892-1.763-.9-1.776"/>
        </g>
        <g id="Group_10076" data-name="Group 10076">
          <path id="Path_17724" data-name="Path 17724" class="cls-11" d="M103.558,101.69a2.069,2.069,0,0,0,.17.941"/>
        </g>
        <g id="Group_10077" data-name="Group 10077">
          <path id="Path_17725" data-name="Path 17725" class="cls-11" d="M104.268,102.832c-.052.113-.3.85-.079.925"/>
        </g>
        <g id="Group_10078" data-name="Group 10078">
          <path id="Path_17726" data-name="Path 17726" class="cls-11" d="M104.87,101.088a.863.863,0,0,0,.015.617"/>
        </g>
        <g id="Group_10079" data-name="Group 10079">
          <path id="Path_17727" data-name="Path 17727" class="cls-11" d="M105.3,101.8c-.019.284.023.453.015.617"/>
        </g>
        <g id="Group_10080" data-name="Group 10080">
          <path id="Path_17728" data-name="Path 17728" class="cls-11" d="M105.688,99.344c.271.412.5.613.71.926"/>
        </g>
        <g id="Group_10081" data-name="Group 10081">
          <path id="Path_17729" data-name="Path 17729" class="cls-11" d="M106,98.418a1.145,1.145,0,0,0,.8.34"/>
        </g>
        <g id="Group_10082" data-name="Group 10082">
          <path id="Path_17730" data-name="Path 17730" class="cls-11" d="M108.62,97.245A6.264,6.264,0,0,0,108.5,98.7"/>
        </g>
        <g id="Group_10083" data-name="Group 10083">
          <path id="Path_17731" data-name="Path 17731" class="cls-11" d="M109.546,97.183A3.558,3.558,0,0,0,109.7,98.2"/>
        </g>
        <g id="Group_10084" data-name="Group 10084">
          <path id="Path_17732" data-name="Path 17732" class="cls-11" d="M110.225,96.689a2.582,2.582,0,0,0,.309.772"/>
        </g>
        <g id="Group_10085" data-name="Group 10085">
          <path id="Path_17733" data-name="Path 17733" class="cls-11" d="M62.147,112.845c.285.719,1.659,3.939,3.919,4.586,1.114.319,3.26,2.4,1.486,6.71"/>
        </g>
        <g id="Group_10086" data-name="Group 10086">
          <path id="Path_17734" data-name="Path 17734" class="cls-11" d="M68.068,116.347c4.286,1.974,4.174,5.537.36,7.954"/>
        </g>
        <g id="Group_10087" data-name="Group 10087">
          <path id="Path_17735" data-name="Path 17735" class="cls-11" d="M60.5,113.461c1.285,2.678,3.779,4.425,4.687,5.412,1.189,1.292,1.018,3.351.282,4.827"/>
        </g>
        <g id="Group_10088" data-name="Group 10088">
          <path id="Path_17736" data-name="Path 17736" class="cls-11" d="M60.1,113.473c-.434,1.889,5.882,7.08,4.265,10.234"/>
        </g>
        <g id="Group_10089" data-name="Group 10089">
          <path id="Path_17737" data-name="Path 17737" class="cls-11" d="M58.984,113.331c.407,3.464,4.972,6.1,4.068,10.195"/>
        </g>
        <g id="Group_10090" data-name="Group 10090">
          <path id="Path_17738" data-name="Path 17738" class="cls-11" d="M57.535,112.953c.274,3.889,5.8,7.33,4.3,10.328"/>
        </g>
        <g id="Group_10091" data-name="Group 10091">
          <path id="Path_17739" data-name="Path 17739" class="cls-11" d="M59.453,117.955c.254.714,1.914,3.409.988,5.216"/>
        </g>
        <g id="Group_10092" data-name="Group 10092">
          <path id="Path_17740" data-name="Path 17740" class="cls-11" d="M58.311,117.8c1.037.991,1.227,3.875.183,4.622"/>
        </g>
        <g id="Group_10093" data-name="Group 10093">
          <path id="Path_17741" data-name="Path 17741" class="cls-11" d="M54.424,111.128c1.217,1.638,1.313,4.066,3.355,7.012,1.106,1.6.293,2.627-.212,4.013"/>
        </g>
        <g id="Group_10094" data-name="Group 10094">
          <path id="Path_17742" data-name="Path 17742" class="cls-11" d="M55.9,116.906a3.871,3.871,0,0,1,.1,4.77"/>
        </g>
        <g id="Group_10095" data-name="Group 10095">
          <path id="Path_17743" data-name="Path 17743" class="cls-11" d="M53.4,111.1c1.8,7.547,2.46,9.239,1.452,10.209"/>
        </g>
        <g id="Group_10096" data-name="Group 10096">
          <path id="Path_17744" data-name="Path 17744" class="cls-11" d="M51.984,109.776c2.207,3.553.358,6.148,1.79,9.136"/>
        </g>
        <g id="Group_10097" data-name="Group 10097">
          <path id="Path_17745" data-name="Path 17745" class="cls-11" d="M49.854,109.1c2.481,2.914,1.834,5.537,2.1,7.933a10.053,10.053,0,0,0,1.906,4.18"/>
        </g>
        <g id="Group_10098" data-name="Group 10098">
          <path id="Path_17746" data-name="Path 17746" class="cls-11" d="M83.094,122.506c.514-.8.1-4.99,4.847-8.749"/>
        </g>
        <g id="Group_10099" data-name="Group 10099">
          <path id="Path_17747" data-name="Path 17747" class="cls-11" d="M86.583,119.375a5.729,5.729,0,0,1,1.235-3.087"/>
        </g>
        <g id="Group_10100" data-name="Group 10100">
          <path id="Path_17748" data-name="Path 17748" class="cls-11" d="M93.867,97.4c-.562,1.1-3.814,8.367-5.386,10.135"/>
        </g>
        <g id="Group_10101" data-name="Group 10101">
          <path id="Path_17749" data-name="Path 17749" class="cls-11" d="M90.612,119.143c-.245-1.322-.357-5.97,9.333-8.359"/>
        </g>
        <g id="Group_10102" data-name="Group 10102">
          <path id="Path_17750" data-name="Path 17750" class="cls-11" d="M93.188,116.659c.516-1.031,1.108-1.19,1.543-1.667"/>
        </g>
        <g id="Group_10103" data-name="Group 10103">
          <path id="Path_17751" data-name="Path 17751" class="cls-11" d="M30.132,101.134c4.45-2.225-1-3.165,5.288-4.466a20.452,20.452,0,0,0,1.256-2.448"/>
        </g>
        <g id="Group_10104" data-name="Group 10104">
          <path id="Path_17752" data-name="Path 17752" class="cls-11" d="M39.391,91.134c1.581,2.077-1.576,4.186,1.276,5.98"/>
        </g>
        <g id="Group_10105" data-name="Group 10105">
          <path id="Path_17753" data-name="Path 17753" class="cls-11" d="M40.549,94.583c-.164.517-.31,1.1.571,1.427"/>
        </g>
        <g id="Group_10106" data-name="Group 10106">
          <path id="Path_17754" data-name="Path 17754" class="cls-11" d="M38.62,84.436c-.489.714-1.246,1.179-1.519,1.671-1.5,2.7.34,2.591,1.488,3.923"/>
        </g>
        <g id="Group_10107" data-name="Group 10107">
          <path id="Path_17755" data-name="Path 17755" class="cls-11" d="M37.756,86.458a1.568,1.568,0,0,0,0,2.1"/>
        </g>
        <g id="Group_10108" data-name="Group 10108">
          <path id="Path_17756" data-name="Path 17756" class="cls-11" d="M49.6,115.633c2.365-5.874-3.833-4.192-4.338-8.3-.326-2.65,2.013-3.853-.4-7.834-1.808-2.988-3.048-1.06-2.69-5.628.266-3.4-6.106-4.945-3.231-8.143,1.326-1.475,1.282-1.021,2.238-3.086,1.159-2.615-3.391-5.709.741-7.51A8.763,8.763,0,0,0,44.26,73.63c2.721-2.356,1.182-2.69,1.537-3.522"/>
        </g>
        <g id="Group_10109" data-name="Group 10109">
          <path id="Path_17757" data-name="Path 17757" class="cls-11" d="M45.225,69.374c-1.156,1.434-7.586,6.273-6.62,8.3a6.445,6.445,0,0,1,1.6,2.682c-.036,1.445-1.794,3.179-3.168,4.527a5.533,5.533,0,0,0-1.44,3.223"/>
        </g>
        <g id="Group_10110" data-name="Group 10110">
          <path id="Path_17758" data-name="Path 17758" class="cls-11" d="M46.823,71.25c-.875,2.973-3.758,2.7-2.447,7.136a6.221,6.221,0,0,1-.538,3.742"/>
        </g>
        <g id="Group_10111" data-name="Group 10111">
          <path id="Path_17759" data-name="Path 17759" class="cls-11" d="M43.1,74.508a2.452,2.452,0,0,0-.809,3.177c1.04,1.673.621,2.262.283,3.9a6,6,0,0,0,.291,4.024"/>
        </g>
        <g id="Group_10112" data-name="Group 10112">
          <path id="Path_17760" data-name="Path 17760" class="cls-11" d="M42.558,97.124a7.613,7.613,0,0,1,7.034,4.627c2.245,5.459,3.2,10.673,9.96,11.677,1.616.24,3.517-.443,3.261-2.526-.048-.388-.566-2.176-1-2.325"/>
        </g>
        <g id="Group_10113" data-name="Group 10113">
          <path id="Path_17761" data-name="Path 17761" class="cls-11" d="M56.459,107.724c.677,1.354,6.823,6.812,5.357.854"/>
        </g>
        <g id="Group_10114" data-name="Group 10114">
          <path id="Path_17762" data-name="Path 17762" class="cls-11" d="M45.858,97.846c5.9,2.966,7.815,7.838,7.567,12.183"/>
        </g>
        <g id="Group_10115" data-name="Group 10115">
          <path id="Path_17763" data-name="Path 17763" class="cls-11" d="M56.873,110c.27.965,4.083,4.305,5.955,1.489"/>
        </g>
        <g id="Group_10116" data-name="Group 10116">
          <path id="Path_17764" data-name="Path 17764" class="cls-11" d="M42.219,96.4c12.67,1.988,12.917,13.069,12.2,14.729"/>
        </g>
        <g id="Group_10117" data-name="Group 10117">
          <path id="Path_17765" data-name="Path 17765" class="cls-11" d="M42.113,95.255c.559.932,6.492,1.156,10.485,6.045,2.956,3.62,4.535,9.619,3.424,10.989"/>
        </g>
        <g id="Group_10118" data-name="Group 10118">
          <path id="Path_17766" data-name="Path 17766" class="cls-11" d="M46.613,95.7c-3.443-1.781,1.336-5.541-3.07-6.937-.612-.194-3.485-1.036-2.463-5.9"/>
        </g>
        <g id="Group_10119" data-name="Group 10119">
          <path id="Path_17767" data-name="Path 17767" class="cls-11" d="M39.7,84.941c-1.782,5.091,3.909,3.476,3.946,7.9a4.442,4.442,0,0,0,.211,1.258"/>
        </g>
        <g id="Group_10120" data-name="Group 10120">
          <path id="Path_17768" data-name="Path 17768" class="cls-11" d="M46.861,89.189c2.3,2.058.035,4.909,2.222,7.135"/>
        </g>
        <g id="Group_10121" data-name="Group 10121">
          <path id="Path_17769" data-name="Path 17769" class="cls-11" d="M43.809,87.712c5.353,2.8,1.491,5.289,3.145,7.079"/>
        </g>
        <g id="Group_10122" data-name="Group 10122">
          <path id="Path_17770" data-name="Path 17770" class="cls-11" d="M52.386,93.294c.75,2.07,4.871,3.659,4.182,6.512"/>
        </g>
        <g id="Group_10123" data-name="Group 10123">
          <path id="Path_17771" data-name="Path 17771" class="cls-11" d="M52.888,91.211c.049,4.017,2.342,3.466,3.171,5.154"/>
        </g>
        <g id="Group_10124" data-name="Group 10124">
          <path id="Path_17772" data-name="Path 17772" class="cls-11" d="M49.293,79.281c-.476,2.412,1.624,5.48.878,7.864"/>
        </g>
        <g id="Group_10125" data-name="Group 10125">
          <path id="Path_17773" data-name="Path 17773" class="cls-11" d="M53,90.258c.446-3.686-1.487-5.644-2.377-7.8a6.433,6.433,0,0,1-.483-2.827"/>
        </g>
        <g id="Group_10126" data-name="Group 10126">
          <path id="Path_17774" data-name="Path 17774" class="cls-11" d="M46.954,79.653c.205-1.628-2.45-3.63,2.207-6.5"/>
        </g>
        <g id="Group_10127" data-name="Group 10127">
          <path id="Path_17775" data-name="Path 17775" class="cls-11" d="M44.23,85.229c1.4,2.221,4.462,1.545,6.219,4.336"/>
        </g>
        <g id="Group_10128" data-name="Group 10128">
          <path id="Path_17776" data-name="Path 17776" class="cls-11" d="M47.286,82.7c-.116.41-.261,2.865.185,3.241"/>
        </g>
        <g id="Group_10129" data-name="Group 10129">
          <path id="Path_17777" data-name="Path 17777" class="cls-11" d="M48.027,79.967c-.283,2.56,1.038,4.848.586,6.312"/>
        </g>
        <g id="Group_10130" data-name="Group 10130">
          <path id="Path_17778" data-name="Path 17778" class="cls-11" d="M42.719,98.625c1.653,1.216,1.319,2.222,1.073,2.858-1.992,5.167-1.969,6.086,1.868,9.2.5.4,1.538,1.023,1.81,1.806"/>
        </g>
        <g id="Group_10131" data-name="Group 10131">
          <path id="Path_17779" data-name="Path 17779" class="cls-11" d="M48.756,112.29c.708,1.329-1.233,2.991-1.618,4.508-.271,1.067.961,2.264,1.248,2.344"/>
        </g>
        <g id="Group_10132" data-name="Group 10132">
          <path id="Path_17780" data-name="Path 17780" class="cls-11" d="M45.672,108.643c-.541-.309-2.016-1.708-1.15-4.732a8.109,8.109,0,0,0,.129-3.422"/>
        </g>
        <g id="Group_10133" data-name="Group 10133">
          <path id="Path_17781" data-name="Path 17781" class="cls-11" d="M46.283,105.538c.366,3.484,1.274,2.853,4,5.8"/>
        </g>
        <g id="Group_10134" data-name="Group 10134">
          <path id="Path_17782" data-name="Path 17782" class="cls-11" d="M46.114,99.273c3,3.8-1.411,5.666,2.87,9.136"/>
        </g>
        <g id="Group_10135" data-name="Group 10135">
          <path id="Path_17783" data-name="Path 17783" class="cls-11" d="M47.9,101.14c.176,8.347,2.548,6.556,3.426,7.855"/>
        </g>
        <g id="Group_10136" data-name="Group 10136">
          <path id="Path_17784" data-name="Path 17784" class="cls-11" d="M42.177,93.492c1.023-.1,1.7.764,2.937,1.4,2.427,1.247,12.259,6.341,11.862,17.855"/>
        </g>
        <g id="Group_10137" data-name="Group 10137">
          <path id="Path_17785" data-name="Path 17785" class="cls-11" d="M72.7,120.24c.065-2.8-.958-3.815-1.977-4.07-1.652-.414-4.052,1.249-5.827-.9-2.158-2.618,1.979-7-5.153-6.8-4.412.127-3.214-6.7-6.935-9.429-2-1.467-2.9-2.734-2.834-5.242.191-7.518-5.148-4.127-7.13-8.251"/>
        </g>
        <g id="Group_10138" data-name="Group 10138">
          <path id="Path_17786" data-name="Path 17786" class="cls-11" d="M39.083,53.075c1.872,1.721.687,3.515,3.806,5.225a14.9,14.9,0,0,1,3.944,2.714c.155.131,3.153,1.938,3.325,1.993"/>
        </g>
        <g id="Group_10139" data-name="Group 10139">
          <path id="Path_17787" data-name="Path 17787" class="cls-11" d="M43.738,59.673c2.679,1.352,2.629,3.46,6.167,3.608"/>
        </g>
        <g id="Group_10140" data-name="Group 10140">
          <path id="Path_17788" data-name="Path 17788" class="cls-11" d="M38.028,50.892a12.956,12.956,0,0,1,3.85,4.333c1.243,2.375,2.206,1.6,3.98,3.5.431.463.786.843,1.213,1.314"/>
        </g>
        <g id="Group_10141" data-name="Group 10141">
          <path id="Path_17789" data-name="Path 17789" class="cls-11" d="M38.166,50.2a22.763,22.763,0,0,1,3.4,2.094,34.3,34.3,0,0,1,4.084,4.6l.059.064"/>
        </g>
        <g id="Group_10142" data-name="Group 10142">
          <path id="Path_17790" data-name="Path 17790" class="cls-11" d="M42.349,52.1c.112.046,1.328,1.058,2.282,1.755A9.036,9.036,0,0,0,45.7,54.5"/>
        </g>
        <g id="Group_10143" data-name="Group 10143">
          <path id="Path_17791" data-name="Path 17791" class="cls-11" d="M45.25,52.976a8.427,8.427,0,0,0-3.3-1.911"/>
        </g>
        <g id="Group_10144" data-name="Group 10144">
          <path id="Path_17792" data-name="Path 17792" class="cls-11" d="M40.642,48.7c.422,1.391,5.768,3.556,7.356,5.072"/>
        </g>
        <g id="Group_10145" data-name="Group 10145">
          <path id="Path_17793" data-name="Path 17793" class="cls-11" d="M39.031,47.605a12.323,12.323,0,0,0,4.55.556c2.86-.814,3.55,1.149,4.84.909"/>
        </g>
        <g id="Group_10146" data-name="Group 10146">
          <path id="Path_17794" data-name="Path 17794" class="cls-16" d="M43.5,47.333l-.013.37h-.12l-.066,0-.069,0-.073.005-.076.006L43,47.727l-.08.008-.083.008-.085.008-.086.008-.088.008-.089.007-.09.006-.091.005-.092,0-.092,0h-.093l-.093,0-.093,0-.093-.007-.092-.01-.092-.013-.091-.016-.09-.02L41.3,47.7l-.087-.029-.086-.034-.084-.04-.081-.045-.079-.051-.076-.057.237-.286.054.041.057.037.059.033.062.029.065.026.068.023.071.02.073.017.075.014.078.011.08.008.081.006.082,0h.168l.085,0,.086,0,.086,0,.086-.006.086-.007.085-.007.085-.008.084-.008.083-.008.082-.008.081-.007.079-.007.077-.006.076,0,.074,0H43.5Z"/>
        </g>
        <g id="Group_10147" data-name="Group 10147">
          <path id="Path_17795" data-name="Path 17795" class="cls-11" d="M41.731,46.494a5.612,5.612,0,0,1,2.006.34"/>
        </g>
        <g id="Group_10148" data-name="Group 10148">
          <path id="Path_17796" data-name="Path 17796" class="cls-11" d="M38.737,45.013c1.628-.733,3.384-1.559,5.177-1.057A32.056,32.056,0,0,0,51.1,45.562"/>
        </g>
        <g id="Group_10149" data-name="Group 10149">
          <path id="Path_17797" data-name="Path 17797" class="cls-11" d="M45.991,43.037a2.212,2.212,0,0,0,1.636.648"/>
        </g>
        <g id="Group_10150" data-name="Group 10150">
          <path id="Path_17798" data-name="Path 17798" class="cls-11" d="M40.922,41.565c.549.179,3.918.148,4.454-.41,1.158-1.207,2.5-1.274,3.578.051,1.187,1.456,4.2,1.835,4.8,2.223"/>
        </g>
        <g id="Group_10151" data-name="Group 10151">
          <path id="Path_17799" data-name="Path 17799" class="cls-11" d="M41.26,41.544a6.912,6.912,0,0,0,3.067-.836c1.086-.442,2.283-1.217,3.6-1.2,1.975.032,3.33,1.984,5.138,2.469a9.8,9.8,0,0,0,5.553-.209"/>
        </g>
        <g id="Group_10152" data-name="Group 10152">
          <path id="Path_17800" data-name="Path 17800" class="cls-11" d="M51.917,36.834c.834,1.549,3.5.835,5.1,1.212a1.947,1.947,0,0,0,.3.054"/>
        </g>
        <g id="Group_10153" data-name="Group 10153">
          <path id="Path_17801" data-name="Path 17801" class="cls-11" d="M54.231,38.624c1.056.311,1.231.02,2.037.123"/>
        </g>
        <g id="Group_10154" data-name="Group 10154">
          <path id="Path_17802" data-name="Path 17802" class="cls-11" d="M56.515,36.71c.419.335,2.619,1.35,2.716,1.914"/>
        </g>
        <g id="Group_10155" data-name="Group 10155">
          <path id="Path_17803" data-name="Path 17803" class="cls-11" d="M56.083,35.63a12.035,12.035,0,0,1,3.047,1.7"/>
        </g>
        <g id="Group_10156" data-name="Group 10156">
          <path id="Path_17804" data-name="Path 17804" class="cls-11" d="M57.084,35.347a2.507,2.507,0,0,1,1.777.931"/>
        </g>
        <g id="Group_10157" data-name="Group 10157">
          <path id="Path_17805" data-name="Path 17805" class="cls-11" d="M57.843,34.58c.006.009.875.721,1.111.957"/>
        </g>
        <g id="Group_10158" data-name="Group 10158">
          <path id="Path_17806" data-name="Path 17806" class="cls-11" d="M45,36.494c.772.088,2.1-.227,2.778.062"/>
        </g>
        <g id="Group_10159" data-name="Group 10159">
          <path id="Path_17807" data-name="Path 17807" class="cls-11" d="M45.744,35.939c.583-.007,1.122-.123,1.574-.123"/>
        </g>
        <g id="Group_10160" data-name="Group 10160">
          <path id="Path_17808" data-name="Path 17808" class="cls-11" d="M46.114,35.383c.484-.14,1.186-.258,1.6-.4"/>
        </g>
        <g id="Group_10161" data-name="Group 10161">
          <path id="Path_17809" data-name="Path 17809" class="cls-11" d="M35.744,65.2a11.673,11.673,0,0,0,2.778,5.185"/>
        </g>
        <g id="Group_10162" data-name="Group 10162">
          <path id="Path_17810" data-name="Path 17810" class="cls-11" d="M36.361,63.346c.554,2.5,1.423,5.263,3.642,6.79"/>
        </g>
        <g id="Group_10163" data-name="Group 10163">
          <path id="Path_17811" data-name="Path 17811" class="cls-11" d="M37.163,71.248c-.392-1.067,1.205-3.862,1.914-4.691"/>
        </g>
        <g id="Group_10164" data-name="Group 10164">
          <path id="Path_17812" data-name="Path 17812" class="cls-11" d="M36.237,69.89c.226-1.158,1.492-2.993,2.1-4.136"/>
        </g>
        <g id="Group_10165" data-name="Group 10165">
          <path id="Path_17813" data-name="Path 17813" class="cls-11" d="M28.336,57.112c-.617,1.235-.375,2.957-.247,4.259"/>
        </g>
        <g id="Group_10166" data-name="Group 10166">
          <path id="Path_17814" data-name="Path 17814" class="cls-11" d="M30.188,60.383a6.067,6.067,0,0,1,.37-3.874"/>
        </g>
        <g id="Group_10167" data-name="Group 10167">
          <path id="Path_17815" data-name="Path 17815" class="cls-11" d="M29.2,61.741c-.639-2.673-.343-3.257.247-4.753"/>
        </g>
        <g id="Group_10168" data-name="Group 10168">
          <path id="Path_17816" data-name="Path 17816" class="cls-11" d="M36.052,56.865c-.064-2.266-.307-3.228.247-5.494"/>
        </g>
        <g id="Group_10169" data-name="Group 10169">
          <path id="Path_17817" data-name="Path 17817" class="cls-11" d="M37.534,56.68c-.148-1.608-.54-4.307-.185-5.926"/>
        </g>
        <g id="Group_10170" data-name="Group 10170">
          <path id="Path_17818" data-name="Path 17818" class="cls-11" d="M35,56.618a9.983,9.983,0,0,1,2.716-3.642"/>
        </g>
        <g id="Group_10171" data-name="Group 10171">
          <path id="Path_17819" data-name="Path 17819" class="cls-11" d="M34.509,55.2c.993-1.286,1.791-2.8,3.272-3.7"/>
        </g>
        <g id="Group_10172" data-name="Group 10172">
          <path id="Path_17820" data-name="Path 17820" class="cls-11" d="M25.25,74.89c.74,2.958,3.187,5.507,5.556,7.284"/>
        </g>
        <g id="Group_10173" data-name="Group 10173">
          <path id="Path_17821" data-name="Path 17821" class="cls-11" d="M27.534,76.819a11.314,11.314,0,0,0,4.4,3.92"/>
        </g>
        <g id="Group_10174" data-name="Group 10174">
          <path id="Path_17822" data-name="Path 17822" class="cls-11" d="M26.978,77.251a11.857,11.857,0,0,0,4.753,4.182"/>
        </g>
        <g id="Group_10175" data-name="Group 10175">
          <path id="Path_17823" data-name="Path 17823" class="cls-11" d="M27.163,81.063c-.274-.577.93-4.2,1.3-4.877"/>
        </g>
        <g id="Group_10176" data-name="Group 10176">
          <path id="Path_17824" data-name="Path 17824" class="cls-11" d="M28.768,82.3c-.37-1.1.419-3.061.926-4.074"/>
        </g>
        <g id="Group_10177" data-name="Group 10177">
          <path id="Path_17825" data-name="Path 17825" class="cls-11" d="M100.443,92.313c.673.689,3.605,4.726,4.213,5.286"/>
        </g>
        <g id="Group_10178" data-name="Group 10178">
          <path id="Path_17826" data-name="Path 17826" class="cls-11" d="M87.866,66.525c-.8-.2-1.6-.38-1.524-2.27"/>
        </g>
        <g id="Group_10179" data-name="Group 10179">
          <path id="Path_17827" data-name="Path 17827" class="cls-11" d="M85.275,56.706A3.712,3.712,0,0,1,86.423,58.1"/>
        </g>
        <g id="Group_10180" data-name="Group 10180">
          <path id="Path_17828" data-name="Path 17828" class="cls-11" d="M85.14,49.647c.592-.719-.257-4.388.257-5.089"/>
        </g>
        <g id="Group_10181" data-name="Group 10181">
          <path id="Path_17829" data-name="Path 17829" class="cls-11" d="M84.664,49.041c.344-.352-.3-1.563-.278-2.508.025-.886-.53-1.281-.175-3.058a12.791,12.791,0,0,1,.846-3.218.275.275,0,0,0,.008-.121"/>
        </g>
        <g id="Group_10182" data-name="Group 10182">
          <path id="Path_17830" data-name="Path 17830" class="cls-11" d="M82.924,34.173c.208.3,1.946,4.828.578,7.536-1.326,2.625-.1,5.372-.18,5.665"/>
        </g>
        <g id="Group_10183" data-name="Group 10183">
          <path id="Path_17831" data-name="Path 17831" class="cls-11" d="M79.848,41.071c1.223.108,1.472-.363,2.038-1.212"/>
        </g>
        <g id="Group_10184" data-name="Group 10184">
          <path id="Path_17832" data-name="Path 17832" class="cls-11" d="M79.363,40.46a1.935,1.935,0,0,0,2.215-1.713"/>
        </g>
        <g id="Group_10185" data-name="Group 10185">
          <path id="Path_17833" data-name="Path 17833" class="cls-11" d="M78.117,39.707c1.486.081,4.106-6.872,3.237-7.536"/>
        </g>
        <g id="Group_10186" data-name="Group 10186">
          <path id="Path_17834" data-name="Path 17834" class="cls-11" d="M73.422,39.706c.828-1.279,5.517-2.116,4.865-6.274a21.285,21.285,0,0,0-2.194-6.159"/>
        </g>
        <g id="Group_10187" data-name="Group 10187">
          <path id="Path_17835" data-name="Path 17835" class="cls-11" d="M74.743,26.894c.655,1.71,2.813,7.014,1.151,8.7a17.492,17.492,0,0,1-2.22,2.378c-1.714,1.242-4.137,2.307-4.735,2.92"/>
        </g>
        <g id="Group_10188" data-name="Group 10188">
          <path id="Path_17836" data-name="Path 17836" class="cls-11" d="M67.237,40.481c2.583-3.067,6.347-4.575,6.488-6.9a14.572,14.572,0,0,0-.853-4.357"/>
        </g>
        <g id="Group_10189" data-name="Group 10189">
          <path id="Path_17837" data-name="Path 17837" class="cls-11" d="M67.833,26.281C68.3,27.849,71.246,28.82,70,30.657c-.783,1.157-2.427,2.35-2.539,3.74a13.025,13.025,0,0,0-.376,2.4"/>
        </g>
        <g id="Group_10190" data-name="Group 10190">
          <path id="Path_17838" data-name="Path 17838" class="cls-11" d="M62.225,32.852a3.032,3.032,0,0,1,.8,2.84"/>
        </g>
        <g id="Group_10191" data-name="Group 10191">
          <path id="Path_17839" data-name="Path 17839" class="cls-11" d="M63.337,33.377c.194.357.411.937.124,1.285"/>
        </g>
        <g id="Group_10192" data-name="Group 10192">
          <path id="Path_17840" data-name="Path 17840" class="cls-11" d="M61.392,28.346c-.124.93,3.418,2.2,3.4,3.009"/>
        </g>
        <g id="Group_10193" data-name="Group 10193">
          <path id="Path_17841" data-name="Path 17841" class="cls-11" d="M62.086,27.837a13.615,13.615,0,0,0,1.3,1.591,11.458,11.458,0,0,0,1.944,1.137"/>
        </g>
        <g id="Group_10194" data-name="Group 10194">
          <path id="Path_17842" data-name="Path 17842" class="cls-11" d="M62.658,27.049A5.531,5.531,0,0,1,64.6,28.2a3.918,3.918,0,0,1,1.05,1.862"/>
        </g>
        <g id="Group_10195" data-name="Group 10195">
          <path id="Path_17843" data-name="Path 17843" class="cls-5" d="M54.5,24.8c-1.016-2.31.467-3.891,2.776-4.887,3.611-1.557,6.893.095,8.741-3.912,0,0,6.7,3.272-2.288,5.776C60.388,22.709,57.256,24.142,54.5,24.8Z"/>
          <path id="_1-41" data-name="1" class="cls-6" d="M54.5,24.8c-1.016-2.31.467-3.891,2.776-4.887,3.611-1.557,6.893.095,8.741-3.912,0,0,6.7,3.272-2.288,5.776C60.388,22.709,57.256,24.142,54.5,24.8Z"/>
        </g>
        <g id="Group_10196" data-name="Group 10196">
          <path id="Path_17844" data-name="Path 17844" class="cls-17" d="M69.939,16.766a53.28,53.28,0,1,0,53.28,53.28,53.28,53.28,0,0,0-53.28-53.28Z"/>
        </g>
        <g id="Group_10197" data-name="Group 10197">
          <path id="Path_17845" data-name="Path 17845" class="cls-16" d="M48.471,49.75l-.1.358-.056-.014-.061-.013-.065-.012-.069-.012-.072-.011-.075-.011-.078-.011-.08-.011L47.738,50l-.084-.011-.086-.012-.087-.012-.088-.013L47.3,49.94l-.09-.015-.09-.017-.09-.018-.09-.02-.09-.022-.089-.025-.089-.027-.088-.03-.086-.033-.085-.037-.083-.04-.081-.044-.079-.048L46.1,49.51l-.073-.057-.069-.062-.065-.068-.061-.073.3-.225.043.052.047.048.051.046.054.043.058.04.061.038.065.035.067.033.071.03.073.028.076.026.078.024.08.022.081.02.082.018.084.017.084.016.085.014.085.013.085.013.085.012.084.011.084.011.083.011.082.011.08.011.079.011.077.012.075.013.073.014.07.015Z"/>
        </g>
        <g id="Group_10198" data-name="Group 10198">
          <path id="Path_17846" data-name="Path 17846" class="cls-5" d="M54.184,24.894c1.575.6,2.952,1.686,4.826.9,2.567-1.08,6.415-5.949,7.676-.561a3.089,3.089,0,0,0-.36-4.728C60.443,15.461,53.4,24.6,54.184,24.894Z"/>
          <path id="_1-42" data-name="1" class="cls-6" d="M54.184,24.894c1.575.6,2.952,1.686,4.826.9,2.567-1.08,6.415-5.949,7.676-.561a3.089,3.089,0,0,0-.36-4.728C60.443,15.461,53.4,24.6,54.184,24.894Z"/>
        </g>
        <g id="Group_10199" data-name="Group 10199">
          <path id="Path_17847" data-name="Path 17847" class="cls-5" d="M54.594,25.225c-1.893.379-3.023,1.463-4.14,3.409-.076.133-2.747-.56-2.292-2.576.518-2.295.87-2.9,4.191-3.985C54.258,21.449,55.83,24.977,54.594,25.225Z"/>
          <path id="_1-43" data-name="1" class="cls-6" d="M54.594,25.225c-1.893.379-3.023,1.463-4.14,3.409-.076.133-2.747-.56-2.292-2.576.518-2.295.87-2.9,4.191-3.985C54.258,21.449,55.83,24.977,54.594,25.225Z"/>
        </g>
        <g id="Group_10200" data-name="Group 10200">
          <path id="Path_17848" data-name="Path 17848" class="cls-5" d="M49.947,28.715c1.643.269,4.787-.54,5.512-2.415s-.184-1.1-.721-1.785C52.229,21.319,47.723,28.35,49.947,28.715Z"/>
          <path id="_1-44" data-name="1" class="cls-6" d="M49.947,28.715c1.643.269,4.787-.54,5.512-2.415s-.184-1.1-.721-1.785C52.229,21.319,47.723,28.35,49.947,28.715Z"/>
        </g>
        <g id="Group_10201" data-name="Group 10201">
          <path id="Path_17849" data-name="Path 17849" class="cls-11" d="M49.983,28.19A4.587,4.587,0,0,1,53.7,25.47"/>
        </g>
        <g id="Group_10202" data-name="Group 10202">
          <path id="Path_17850" data-name="Path 17850" class="cls-11" d="M48.767,26.269c0-.834.561-1.3,1.176-1.822a3.853,3.853,0,0,1,1.869-.756c.231-.022.781-.142.879-.142"/>
        </g>
        <g id="Group_10203" data-name="Group 10203">
          <path id="Path_17851" data-name="Path 17851" class="cls-11" d="M55.254,24.528c2.71,1.1,7.892-1.011,8.086-3.514"/>
        </g>
        <g id="Group_10204" data-name="Group 10204">
          <path id="Path_17852" data-name="Path 17852" class="cls-11" d="M55.292,24.18c2.593-1.663,1.84-3.2,6.207-3.2"/>
        </g>
        <g id="Group_10205" data-name="Group 10205">
          <path id="Path_17853" data-name="Path 17853" class="cls-11" d="M48.038,28.838c-.329.9-2.82,4.1-2.778,4.63"/>
        </g>
      </g>
    </g>
  </g>
</svg>
