<svg xmlns="http://www.w3.org/2000/svg" xmlns:xlink="http://www.w3.org/1999/xlink" width="64" height="64" viewBox="0 0 64 64">
  <defs>
    <style>
      .cls-1 {
        fill: #fff;
      }

      .cls-2 {
        clip-path: url(#clip-path);
      }

      .cls-3 {
        fill: url(#linear-gradient);
      }

      .cls-4 {
        fill: url(#linear-gradient-2);
      }

      .cls-5 {
        fill: url(#linear-gradient-3);
      }

      .cls-6 {
        fill: url(#linear-gradient-4);
      }

      .cls-7 {
        fill: url(#linear-gradient-5);
      }

      .cls-8 {
        fill: url(#linear-gradient-6);
      }

      .cls-9 {
        fill: url(#linear-gradient-7);
      }

      .cls-10 {
        fill: url(#linear-gradient-8);
      }

      .cls-11 {
        clip-path: url(#clip-path-2);
      }

      .cls-12, .cls-13, .cls-15 {
        stroke: #000;
      }

      .cls-12, .cls-13, .cls-15, .cls-16, .cls-17, .cls-20, .cls-22, .cls-23 {
        stroke-miterlimit: 10;
      }

      .cls-12 {
        stroke-width: 1.418px;
      }

      .cls-13 {
        stroke-width: 1.641px;
      }

      .cls-14 {
        clip-path: url(#clip-path-4);
      }

      .cls-15 {
        stroke-width: 1.397px;
      }

      .cls-16, .cls-18 {
        fill: #c77d36;
      }

      .cls-16, .cls-17, .cls-22 {
        stroke: #8c5019;
      }

      .cls-16, .cls-17, .cls-20, .cls-22, .cls-23 {
        stroke-width: 0.31px;
      }

      .cls-17 {
        fill: #f9edc7;
      }

      .cls-19, .cls-20, .cls-22 {
        fill: #8c5019;
      }

      .cls-20, .cls-23 {
        stroke: #66330e;
      }

      .cls-21 {
        fill: #040308;
      }

      .cls-23 {
        fill: #aa6531;
      }
    </style>
    <clipPath id="clip-path">
      <circle id="Ellipse_1816" data-name="Ellipse 1816" class="cls-1" cx="32" cy="32" r="32" transform="translate(-24139 -23674)"/>
    </clipPath>
    <linearGradient id="linear-gradient" x1="0.5" y1="-8.188" x2="0.5" y2="18.616" gradientUnits="objectBoundingBox">
      <stop offset="0" stop-color="#2b388f"/>
      <stop offset="1"/>
    </linearGradient>
    <linearGradient id="linear-gradient-2" y1="-9.294" y2="15.932" xlink:href="#linear-gradient"/>
    <linearGradient id="linear-gradient-3" y1="-6.118" y2="19.109" xlink:href="#linear-gradient"/>
    <linearGradient id="linear-gradient-4" y1="-11.625" y2="15.178" xlink:href="#linear-gradient"/>
    <linearGradient id="linear-gradient-5" y1="0.711" y2="3.469" xlink:href="#linear-gradient"/>
    <linearGradient id="linear-gradient-6" y1="-2.756" y2="2.568" xlink:href="#linear-gradient"/>
    <linearGradient id="linear-gradient-7" y1="-2.429" y2="17.993" xlink:href="#linear-gradient"/>
    <linearGradient id="linear-gradient-8" y1="-4.647" y2="20.579" xlink:href="#linear-gradient"/>
    <clipPath id="clip-path-2">
      <circle id="Ellipse_1818" data-name="Ellipse 1818" class="cls-1" cx="32" cy="32" r="32" transform="translate(-24237 -23674)"/>
    </clipPath>
    <clipPath id="clip-path-4">
      <circle id="Ellipse_1817" data-name="Ellipse 1817" class="cls-1" cx="30.5" cy="30.5" r="30.5" transform="translate(-24236.566 -23673.566)"/>
    </clipPath>
  </defs>
  <g id="Group_719" data-name="Group 719" transform="translate(24237 23674)">
    <g id="Group_711" data-name="Group 711">
      <g id="Group_710" data-name="Group 710">
        <g id="Group_709" data-name="Group 709">
          <circle id="Ellipse_1807" data-name="Ellipse 1807" cx="32" cy="32" r="32" transform="translate(-24237 -23674)"/>
        </g>
        <g id="Mask_Group_7" data-name="Mask Group 7" class="cls-2" transform="translate(-98)">
          <g id="Слой_2" data-name="Слой 2" transform="translate(-24138.998 -23674)">
            <path id="Path_10048" data-name="Path 10048" class="cls-3" d="M16.262,260.589q.214,1.258.524,2.48H78.819q.31-1.223.524-2.48Z" transform="translate(-15.803 -223.173)"/>
            <path id="Path_10049" data-name="Path 10049" class="cls-4" d="M22.837,287.86q.421,1.343.958,2.634H82.943q.534-1.291.958-2.634Z" transform="translate(-21.369 -246.259)"/>
            <path id="Path_10050" data-name="Path 10050" class="cls-5" d="M13.444,233.318q.048,1.331.208,2.634H77.183q.155-1.3.208-2.634Z" transform="translate(-13.417 -200.085)"/>
            <path id="Path_10051" data-name="Path 10051" class="cls-6" d="M91.679,316.141H34.058q.62,1.273,1.342,2.48H90.338Q91.061,317.415,91.679,316.141Z" transform="translate(-30.87 -270.202)"/>
            <path id="Path_10052" data-name="Path 10052" class="cls-7" d="M81.724,40.8a32.009,32.009,0,0,0-62.028,0Z" transform="translate(-18.71 -16.706)"/>
            <path id="Path_10053" data-name="Path 10053" class="cls-8" d="M56.562,352.5a32,32,0,0,0,50.713,0Z" transform="translate(-49.92 -300.984)"/>
            <path id="Path_10054" data-name="Path 10054" class="cls-9" d="M14.686,183.041H78.252a32.1,32.1,0,0,0-.548-3.254H15.234a32.1,32.1,0,0,0-.548,3.254Z" transform="translate(-14.469 -154.766)"/>
            <path id="Path_10055" data-name="Path 10055" class="cls-10" d="M13.38,208.068c-.07.871-.108,1.751-.108,2.634h64c0-.89-.038-1.77-.108-2.634Z" transform="translate(-13.272 -178.709)"/>
          </g>
        </g>
        <g id="Mask_Group_9" data-name="Mask Group 9" class="cls-11">
          <g id="Слой_7" data-name="Слой 7" transform="translate(-24236.291 -23673.291)">
            <path id="Path_10080" data-name="Path 10080" class="cls-12" d="M33.291,2.379A31.291,31.291,0,1,0,64.581,33.67,31.291,31.291,0,0,0,33.291,2.379Zm.061,61.912A30.625,30.625,0,1,1,63.976,33.667,30.625,30.625,0,0,1,33.352,64.292Z" transform="translate(-2 -2.379)"/>
          </g>
        </g>
        <g id="Mask_Group_10" data-name="Mask Group 10" class="cls-11">
          <path id="Path_10059" data-name="Path 10059" class="cls-13" d="M64.986,42.407c-.274.014.154-4.816-1.781-8.784a17.826,17.826,0,0,0-4.227-5.532,8.2,8.2,0,0,1,2.075.922,8.417,8.417,0,0,1,2.766,2.843,18.677,18.677,0,0,0-2.612-6.07,19.014,19.014,0,0,0-7.516-6.531h0c-.252-.419-.5-.8-.744-1.148h0a7.012,7.012,0,0,1,3.06,1.306A4.917,4.917,0,0,0,54.83,17,4.785,4.785,0,0,0,53.5,15.977a7.258,7.258,0,0,1,1.947.1,7.439,7.439,0,0,1,3.33,1.589,12.549,12.549,0,0,0-4.3-4.609,12.36,12.36,0,0,0-3.842-1.589l1.638-.665a14.665,14.665,0,0,1-2.56-.257A14.8,14.8,0,0,1,46.122,9.38a5.429,5.429,0,0,0-5.276.349,23.111,23.111,0,0,1,6.777,3.228h0a30.137,30.137,0,0,0-4.318-2.228,22.311,22.311,0,0,0-6.685-2c-.506-.063-1.1-.134-1.778-.174h.011a19.64,19.64,0,0,1,4.918.824A3.124,3.124,0,0,0,40.9,8.91c.549-.372,1.016-.954.922-1.076-.058-.078-.307.069-.6.154a2.757,2.757,0,0,1-2.113-.407c.011,0,.785-.349,1.537-.768A5.09,5.09,0,0,0,42.129,5.43h0c-.018-.054-1.6.521-3.176.824A14.967,14.967,0,0,1,36.7,6.5l2.075-2.308a13.917,13.917,0,0,0-7.915,2.817,12.886,12.886,0,0,0-2.305,2.331c.461-.137,1-.275,1.592-.4-.369.089-.748.2-1.131.321-.284.094-.556.194-.819.3-.378-.114-.922-.261-1.589-.4a21.31,21.31,0,0,0-4.22-.43,22,22,0,0,0,1.632,3.3,13.646,13.646,0,0,0-2.473,2.809,18.312,18.312,0,0,1-4.134-.426,18.071,18.071,0,0,1-2.767-.847,8.286,8.286,0,0,0,4.736,5.351,20.614,20.614,0,0,0-1.048,3.562,3.567,3.567,0,0,1,2.211,1.563,1.7,1.7,0,0,0-.022.627l-3.272,1.738,2.305,1.681-2.766,4.4.054.091a3.78,3.78,0,0,0,.644.81h0c.035.034.073.068.111.1l.125.106h0a3.548,3.548,0,0,0,.994.562,3.507,3.507,0,0,0,.71.182l.068.011h.019a4.374,4.374,0,0,0,1.076.034,4.93,4.93,0,0,1,1.895.443c.67.307,1.123.716,1.614.556a.665.665,0,0,0,.112-.048,1.12,1.12,0,0,0,.426-.432l.011.028a.545.545,0,0,0,.023.128c-.014.026-.025.049-.034.069a.8.8,0,0,0,.307.409.685.685,0,0,0,.154.078,1.058,1.058,0,0,0,.226.154c.481.238.931.015,1.652-.057a4.928,4.928,0,0,1,1.96.212,17.241,17.241,0,0,1,4.842-4.685,4.848,4.848,0,0,1,1.229,1.076,5.525,5.525,0,0,1,.922,1.844,10.994,10.994,0,0,1,.538,3.3,7.39,7.39,0,0,0,.231-4.533A13.453,13.453,0,0,1,38.31,37a15.038,15.038,0,0,1,.264,1.614c0,.052.011.1.015.154a13.2,13.2,0,0,1-.808,5.686c-.073.178-.154.358-.24.538a11.944,11.944,0,0,1-4.687,4.994c-.253.154-.509.3-.768.43l-.246.123-.208.1-.244.111-.175.077c-.123.052-.244.1-.366.154h-.015a13.648,13.648,0,0,1-3.413.791A13.131,13.131,0,0,1,24.3,46.091a7.95,7.95,0,0,1-.1,1.126,7.826,7.826,0,0,1-.307,1.229,25.364,25.364,0,0,1-4.2-7.837,12.053,12.053,0,0,0,1.855,9.682,5.285,5.285,0,0,1-4.006-2.92,6.468,6.468,0,0,0,1.776,3.986l-.9-.138c-.317-.051-.657-.109-1.01-.177a4.715,4.715,0,0,1-.988-.848c0,.187,0,.407.011.652-.624-.134-1.292-.3-2-.487a24.732,24.732,0,0,1-3.9-12.741,9.517,9.517,0,0,0-1.641,6.07A10.032,10.032,0,0,1,8.009,42.2a9.825,9.825,0,0,1-.486-1.229,10.462,10.462,0,0,0,0,1.282,10.689,10.689,0,0,0,.129,1.127A11.261,11.261,0,0,1,6.32,41.665a11.39,11.39,0,0,1-1.368-3.133,23.25,23.25,0,0,1-.349-5.84,20.845,20.845,0,0,1,1.008-4.678L3.9,30.4q-.474-2.37-.474-2.382h0c-.118.484-.277,1.194-.412,2.059A26.243,26.243,0,0,0,3.5,40.154a36.709,36.709,0,0,0,9.067,17.211c9.571,9.208,21.892,8.639,23.666,8.529,1.1-.069,14.674-1.14,23.435-12.678a32,32,0,0,0,5.443-11.281C65.07,42.333,65.02,42.405,64.986,42.407ZM55.582,37.921ZM26.061,10.157l-.071-.034.025.011ZM22.877,8.891l-.1-.032ZM25.55,9.924l-.026-.011Zm-.963-.407Zm-.436-.171-.091-.035Zm-.427-.154-.114-.042ZM23.3,9.038,23.184,9Zm-2.586,7.143c-.08.137-.163.283-.249.436.307-.549.6-1.051.9-1.507C21.123,15.488,20.91,15.849,20.715,16.181Zm-.4.722c.012-.022.023-.04.034-.061l-.043.082Zm.671,8.126h0l.117.6A.717.717,0,0,1,20.982,25.029Z" transform="translate(-24238.928 -23677.027)"/>
        </g>
        <g id="Mask_Group_8" data-name="Mask Group 8" class="cls-14" transform="translate(1.566 0.566)">
          <g id="Group_12460" data-name="Group 12460" transform="translate(-24236.977 -23673.674)">
            <path id="Path_10169" data-name="Path 10169" class="cls-15" d="M3.85,24.5c-.012.037-.022.076-.034.114a1.049,1.049,0,0,0,.123-.217A.6.6,0,0,0,3.85,24.5Z" transform="translate(-1.931 -4.285)"/>
            <path id="Path_10172" data-name="Path 10172" class="cls-16" d="M16.506,31.141l3.971-6.518a3.509,3.509,0,0,0-2.7-3.072A19.673,19.673,0,0,1,20.1,15.407a14.748,14.748,0,0,1,3.222-4.046,14.505,14.505,0,0,1,4.87-2.7,16.231,16.231,0,0,1,7.417-.524,21.757,21.757,0,0,1,6.518,1.948,21.687,21.687,0,0,1,7.717,5.095A20.289,20.289,0,0,1,54.192,22.6a21.535,21.535,0,0,1,.824,9.515,24.1,24.1,0,0,1-9.665,16.932,27.752,27.752,0,0,1-5.919,3.521,30.677,30.677,0,0,1-6.668,2.173,25.275,25.275,0,0,1-14.235-.9,16.726,16.726,0,0,1-5.994-2.922,13.736,13.736,0,0,1-3.147-3.746,37.94,37.94,0,0,0,8.466,2.4c4.6.737,9.6,1.537,14.085-1.2a11.646,11.646,0,0,0,4.57-4.87,12,12,0,0,0,.749-7.792,13.117,13.117,0,0,0-1.573-3.971,7.206,7.206,0,0,1-.225,4.42,10.72,10.72,0,0,0-.524-3.222,5.388,5.388,0,0,0-.9-1.8,4.728,4.728,0,0,0-1.2-1.049,16.811,16.811,0,0,0-4.72,4.57,3.174,3.174,0,0,0-1.873-.6c-.928.028-1.582.548-2.023.225a.927.927,0,0,1-.3-.7.941.941,0,0,1-.524.548c-.414.126-.829-.178-1.274-.45a7.73,7.73,0,0,0-2.1-.856,3.093,3.093,0,0,1-1.873-.124,3.147,3.147,0,0,1-1.648-1.567Z" transform="translate(-2.123 -3.719)"/>
            <path id="Path_10173" data-name="Path 10173" class="cls-16" d="M18.972,18.252a8.08,8.08,0,0,1-4.618-5.218,17.62,17.62,0,0,0,2.7.824,17.856,17.856,0,0,0,4.031.415A21.119,21.119,0,0,0,18.972,18.252Z" transform="translate(-2.293 -3.894)"/>
            <path id="Path_10174" data-name="Path 10174" class="cls-17" d="M25.685,14.066a21.443,21.443,0,0,1-1.648-2.248A21.384,21.384,0,0,1,22.17,8.151a28.58,28.58,0,0,1,11.953,7.324c-1.816-2.134-4.31-3.174-6.443-2.571a4.782,4.782,0,0,0-1.994,1.161Z" transform="translate(-2.562 -3.726)"/>
            <path id="Path_10175" data-name="Path 10175" class="cls-18" d="M22.17,8.151a20.779,20.779,0,0,1,4.115.42,17.5,17.5,0,0,1,2.018.538,16.932,16.932,0,0,1,2.078.862,6.7,6.7,0,0,1,3.746,5.505c-.547-.559-1.157-1.137-1.836-1.72a28.572,28.572,0,0,0-10.118-5.6Z" transform="translate(-2.562 -3.726)"/>
            <path id="Path_10176" data-name="Path 10176" class="cls-19" d="M22.17,8.151l.484-.009h.483c.324,0,.646.021.968.042.644.043,1.287.115,1.927.222a18.422,18.422,0,0,1,1.9.424,15.938,15.938,0,0,1,1.837.655c.3.13.592.258.889.409a7.193,7.193,0,0,1,.847.518,6.824,6.824,0,0,1,2.847,5.047l.046.616-.427-.45a29.466,29.466,0,0,0-5.454-4.407A30.964,30.964,0,0,0,25.434,9.51,31.71,31.71,0,0,0,22.17,8.151Zm0,0A26.223,26.223,0,0,1,25.52,9.315a26.681,26.681,0,0,1,3.171,1.6,27.245,27.245,0,0,1,2.938,2.02,27.921,27.921,0,0,1,2.652,2.381l-.381.174a6.577,6.577,0,0,0-2.636-4.758,6.774,6.774,0,0,0-.79-.5c-.276-.15-.568-.286-.856-.42a17.142,17.142,0,0,0-3.632-1.185,22.466,22.466,0,0,0-3.818-.477Z" transform="translate(-2.562 -3.726)"/>
            <path id="Path_10177" data-name="Path 10177" class="cls-20" d="M28.4,8.589a12.564,12.564,0,0,1,2.248-2.273,13.564,13.564,0,0,1,7.717-2.747L36.339,5.817a14.6,14.6,0,0,0,2.2-.25c1.536-.3,3.079-.856,3.1-.8h0a4.963,4.963,0,0,1-1.448,1.349c-.733.409-1.488.749-1.5.749a2.69,2.69,0,0,0,2.06.4c.285-.079.529-.223.586-.15.091.118-.364.686-.9,1.049a3.046,3.046,0,0,1-1.1.466A19.084,19.084,0,0,0,28.4,8.589Z" transform="translate(-2.776 -3.569)"/>
            <path id="Path_10178" data-name="Path 10178" class="cls-17" d="M33.084,30.322A13.215,13.215,0,0,1,42.9,26.276a5.033,5.033,0,0,0-2.323-2.622,3.288,3.288,0,0,0,.824.075,3.458,3.458,0,0,0,1.8-.6,2.2,2.2,0,0,1-1.6-.7,1.948,1.948,0,0,1-.367-.649,8.34,8.34,0,0,0,4.295-3,9.842,9.842,0,0,1-5.544-.824l1.251-1.8c-.6.207-1.247.409-1.924.6-.728.205-1.43.378-2.1.524a2.925,2.925,0,0,0,1.272-2.657,8.982,8.982,0,0,1-1.5,1.683c-2,1.735-3.628,1.548-5.095,2.847a6.172,6.172,0,0,0-1.873,3.9L26.491,25.3l-3.3-1.5-2.586.462.114.587-4.2,6.688a3.652,3.652,0,0,0,.92,1.085,3.955,3.955,0,0,0,2.777.769,4.807,4.807,0,0,1,1.848.432c.653.3,1.1.7,1.573.542a1,1,0,0,0,.524-.468,1.483,1.483,0,0,0,.674.842c.469.232.908.015,1.611-.055a4.806,4.806,0,0,1,1.911.205,16.811,16.811,0,0,1,4.72-4.57Z" transform="translate(-2.368 -3.949)"/>
            <path id="Path_10179" data-name="Path 10179" class="cls-16" d="M16.759,31.638a3.924,3.924,0,0,0,2.1-.6c.812-.535.845-1.119,1.948-2.7.919-1.314,1.377-1.972,2.1-2.21.749-.25,1.049.087,2.547-.075a9.459,9.459,0,0,0,1.8-.375A6.675,6.675,0,0,0,30.5,23.16l-5.869-.737c-.662.244-1.217.414-1.611.524-1.04.3-1.56.354-1.985.824a1.93,1.93,0,0,0-.414.761l.114.587Z" transform="translate(-2.376 -4.217)"/>
            <path id="Path_10180" data-name="Path 10180" class="cls-21" d="M16.526,32.1A4.8,4.8,0,0,0,19.36,30.88a1.119,1.119,0,0,1,.98.7,1.178,1.178,0,0,1-.142,1.064.88.88,0,0,0-.968-.01,2.063,2.063,0,0,0,.886,1.284,3.542,3.542,0,0,1-1.716-.187A3.662,3.662,0,0,1,16.526,32.1Z" transform="translate(-2.368 -4.507)"/>
            <path id="Path_10181" data-name="Path 10181" d="M19.11,27.241,16.83,25.58l3.19-1.695a1.48,1.48,0,0,1,.178-1.011,2.125,2.125,0,0,1,2.556-.524l7.471-4.235c.069.487.139.974.208,1.462q.24,1.69.487,3.372l-5.394,2.39-2.472-1.566c-1.389-.226-2.417-.024-2.586.462a.7.7,0,0,0,.114.587Z" transform="translate(-2.378 -4.069)"/>
            <path id="Path_10183" data-name="Path 10183" class="cls-17" d="M35.686,32.587a11.175,11.175,0,0,1,6.743,3.671c3.175,3.736,2.483,8.364,2.323,9.44a11.011,11.011,0,0,1-1.124,3.521,10.593,10.593,0,0,1-4.2,4.2,29.891,29.891,0,0,1-14.913,2.658,30.262,30.262,0,0,1-11.273-3.76,13.594,13.594,0,0,1-3.859-4.293,40.421,40.421,0,0,0,8.466,2.547,25.566,25.566,0,0,0,6.816.556A14.988,14.988,0,0,0,31.264,49.6a11.049,11.049,0,0,0,5.472-5.775A12.851,12.851,0,0,0,35.686,32.587Z" transform="translate(-2.123 -4.566)"/>
            <path id="Path_10184" data-name="Path 10184" class="cls-22" d="M36.367,55.18a13.187,13.187,0,0,1-9.04-3.5,12.747,12.747,0,0,1-3.5-5.994,7.751,7.751,0,0,1-.1,1.1,7.63,7.63,0,0,1-.3,1.2,24.732,24.732,0,0,1-4.1-7.642,11.752,11.752,0,0,0,1.809,9.44,5.153,5.153,0,0,1-3.906-2.847,6.328,6.328,0,0,0,2.125,4.268,4.406,4.406,0,0,1-1.275-.222,4.516,4.516,0,0,1-1.948-1.3,6.373,6.373,0,0,0,.5,2.7,6.678,6.678,0,0,0,3.2,3.3,30.592,30.592,0,0,0,16.532-.5Z" transform="translate(-2.354 -4.832)"/>
            <path id="Path_10185" data-name="Path 10185" class="cls-22" d="M18.558,55.2a24.554,24.554,0,0,1-6.867-9.565,24.288,24.288,0,0,1-1.7-8.316,9.28,9.28,0,0,0-1.6,5.919,9.782,9.782,0,0,1-.851-1.449,9.579,9.579,0,0,1-.474-1.2,10.2,10.2,0,0,0,0,1.25,10.426,10.426,0,0,0,.126,1.1,10.981,10.981,0,0,1-1.3-1.674,11.136,11.136,0,0,1-1.447-3.521,22.477,22.477,0,0,0,1.8,6.394,19.825,19.825,0,0,0,4.81,6.855,19.245,19.245,0,0,0,7.5,4.208Z" transform="translate(-1.953 -4.729)"/>
            <path id="Path_10186" data-name="Path 10186" class="cls-19" d="M54.907,31.683l5.245,1.723,2.814,5.245.171,2.411a28.562,28.562,0,0,1-4.119,10.925c-7.829,12.2-22.37,13.459-23.815,13.561-1.482.1-14.521.8-24.425-8.991-.514-.509-7.233-7.323-8.745-17.082a34.559,34.559,0,0,1,.556-9.98,42.406,42.406,0,0,1,1.2-5.014l.542-.77a6.284,6.284,0,0,0-1.34,3.776,6,6,0,0,0,.462,2.323l1.665-2.323a20.326,20.326,0,0,0-.983,4.564A23.531,23.531,0,0,0,7.406,45.537C13.216,54.865,24.6,55.8,25.762,55.877a32.8,32.8,0,0,0,18.656-5.763,25.453,25.453,0,0,0,9.424-12.966Q54.372,34.414,54.907,31.683Z" transform="translate(-1.864 -4.261)"/>
            <path id="Path_10187" data-name="Path 10187" class="cls-19" d="M24.159,34.414a3.41,3.41,0,0,1,1.476-1.5,3.366,3.366,0,0,1,2.045-.333l-.237.2.073-1.073.013-.18H27.7l1.3.03-.15.15.03-1.274v-.12h.114l.749-.033-.1.087a3.156,3.156,0,0,1,.45-1.107,2.191,2.191,0,0,1,.9-.769c.175-.085.351-.166.514-.265a3.127,3.127,0,0,0,.463-.342,3.6,3.6,0,0,0,.733-.9,3.68,3.68,0,0,1-.7.934,3.37,3.37,0,0,1-.457.369c-.163.109-.339.2-.506.3a2.033,2.033,0,0,0-.815.76,2.941,2.941,0,0,0-.367,1.061l-.013.079h-.085l-.749.067.115-.124.03,1.274v.15H29l-1.3.03.184-.175-.025,1.074v.222l-.232-.024a2.908,2.908,0,0,0-1.746.366,2.847,2.847,0,0,0-1.176,1.3Z" transform="translate(-2.63 -4.374)"/>
            <path id="Path_10188" data-name="Path 10188" class="cls-16" d="M53.782,18.776a18.54,18.54,0,0,1,7.329,6.368,18.212,18.212,0,0,1,2.547,5.919,8.207,8.207,0,0,0-2.7-2.772,7.994,7.994,0,0,0-2.023-.9,19.661,19.661,0,0,1,6.325,13.936,16.768,16.768,0,0,0-5.5-7.118,9.99,9.99,0,0,1-.524,8.391,12.118,12.118,0,0,0-.749-5.844,11.946,11.946,0,0,0-2.1-3.446,27.979,27.979,0,0,0,.036-4.567,28.4,28.4,0,0,0-2.645-9.968Z" transform="translate(-3.648 -4.091)"/>
            <path id="Path_10189" data-name="Path 10189" class="cls-23" d="M40.811,9.125a5.294,5.294,0,0,1,5.146-.339,14.43,14.43,0,0,0,3.5,1.139,14.3,14.3,0,0,0,2.495.249l-1.6.649A12.052,12.052,0,0,1,54.1,12.372a12.236,12.236,0,0,1,4.2,4.5,7.254,7.254,0,0,0-3.247-1.549,7.077,7.077,0,0,0-1.9-.1,4.666,4.666,0,0,1,1.3,1A4.8,4.8,0,0,1,55.6,18.565a6.837,6.837,0,0,0-2.983-1.274A22.531,22.531,0,0,0,40.811,9.125Z" transform="translate(-3.202 -3.731)"/>
            <path id="Path_10190" data-name="Path 10190" class="cls-16" d="M55.4,35.163a19.094,19.094,0,0,1,.923,8.451c-1.049,8.531-7.9,13.679-10.04,15.284a27.872,27.872,0,0,1-4.8,2.9,6.734,6.734,0,0,0,2.456-5.264,14.3,14.3,0,0,1-5.2,2.3c-3.16.682-6.195.159-6.222-.241-.019-.291,1.549-.361,3.853-1.558a15.414,15.414,0,0,0,2.126-1.337,9.514,9.514,0,0,1-3.995-.737,9.728,9.728,0,0,1-4.42-3.811,24.2,24.2,0,0,0,10.813.946,9.637,9.637,0,0,1-3.16-1.136,9.52,9.52,0,0,1-1.648-1.2,17.4,17.4,0,0,0,12.137-2.847A17.579,17.579,0,0,0,55.4,35.163Z" transform="translate(-2.834 -4.654)"/>
          </g>
        </g>
      </g>
    </g>
  </g>
</svg>
