<?xml version="1.0" encoding="UTF-8" ?>
<!DOCTYPE svg PUBLIC "-//W3C//DTD SVG 1.1//EN" "http://www.w3.org/Graphics/SVG/1.1/DTD/svg11.dtd">
<svg width="115pt" height="179pt" viewBox="0 0 115 179" version="1.1" xmlns="http://www.w3.org/2000/svg">
<g id="#010101fd">
<path fill="#010101" opacity="1.00" d=" M 11.72 0.60 C 16.61 0.39 21.46 1.24 26.28 1.93 C 33.60 2.94 40.94 3.78 48.26 4.79 C 52.34 5.19 55.20 8.38 58.30 10.70 C 65.67 16.34 72.94 22.09 80.39 27.62 C 82.69 29.32 84.72 31.34 86.48 33.58 C 90.43 38.49 96.78 40.47 101.17 44.86 C 103.49 47.67 105.04 51.00 106.91 54.10 C 109.40 58.66 112.76 62.79 114.22 67.85 C 107.66 67.35 101.44 65.04 95.00 63.92 C 95.87 67.89 97.36 71.77 97.58 75.85 C 96.98 79.07 95.15 81.88 93.80 84.82 C 86.99 98.95 79.85 112.91 72.99 127.01 C 72.16 129.09 70.24 130.30 68.31 131.23 C 58.76 135.99 49.43 141.15 39.97 146.08 C 40.53 150.20 42.51 154.22 42.14 158.40 C 39.58 165.34 36.82 172.25 33.76 179.00 L 32.85 179.00 C 28.72 168.86 27.29 157.86 23.10 147.74 C 19.72 147.68 16.34 147.52 12.96 147.75 C 8.77 148.03 4.73 149.80 0.49 149.27 C 3.51 145.08 7.62 141.89 11.12 138.13 C 12.47 136.87 13.67 135.32 15.42 134.60 C 20.04 133.80 24.81 134.22 29.42 133.28 C 33.36 129.61 36.45 125.11 40.10 121.14 C 42.82 118.49 42.23 114.44 42.39 110.99 C 42.24 102.84 43.10 94.71 43.15 86.56 C 37.26 91.09 35.35 98.61 31.52 104.67 C 30.99 104.72 29.94 104.81 29.41 104.86 C 28.11 100.31 27.09 95.68 25.99 91.08 C 24.71 85.71 22.38 80.53 22.12 74.95 C 22.45 69.41 26.09 64.63 26.40 59.11 C 22.66 52.56 17.59 46.87 13.54 40.52 C 12.20 38.64 12.40 36.25 12.33 34.06 C 12.42 22.90 11.16 11.76 11.72 0.60 M 13.91 2.13 C 14.01 4.98 13.76 7.87 14.21 10.70 C 15.86 15.03 17.85 19.24 19.38 23.62 C 19.99 25.45 21.07 27.28 22.96 28.02 C 31.06 31.94 39.03 36.12 47.13 40.02 C 52.30 39.18 57.31 37.10 62.36 35.62 C 60.15 32.24 57.06 29.44 53.75 27.18 C 50.64 26.80 47.30 27.42 44.49 25.69 C 42.91 23.55 41.08 21.55 40.10 19.04 C 42.62 18.99 45.14 18.98 47.66 19.03 C 52.51 24.25 57.80 29.04 62.66 34.24 C 64.89 28.84 63.70 22.93 64.05 17.26 C 59.48 14.04 55.24 10.38 50.58 7.30 C 38.42 5.18 26.01 4.42 13.91 2.13 M 14.08 14.41 C 13.90 21.74 13.98 29.09 14.07 36.43 C 16.55 33.94 17.56 30.44 19.78 27.73 C 17.69 23.37 16.42 18.65 14.08 14.41 M 66.16 18.84 C 64.70 24.18 64.93 29.71 65.04 35.18 C 70.71 33.58 76.76 33.69 82.32 31.71 C 77.12 27.18 71.35 23.37 66.16 18.84 M 42.07 20.00 C 43.16 21.60 44.16 23.25 45.16 24.91 C 47.65 24.91 50.11 25.31 52.54 25.87 C 51.10 23.47 48.46 22.15 46.68 20.03 C 45.14 20.01 43.61 20.00 42.07 20.00 M 20.29 28.71 C 18.62 32.12 16.32 35.18 14.71 38.62 C 20.22 39.96 25.45 42.23 30.93 43.67 C 27.73 38.47 23.95 33.62 20.29 28.71 M 22.73 29.69 C 26.16 34.64 29.80 39.44 33.36 44.30 C 37.49 43.55 41.53 42.25 45.36 40.56 C 37.70 37.19 30.51 32.78 22.73 29.69 M 64.85 36.02 C 68.68 42.49 72.57 48.94 76.79 55.16 C 81.44 60.17 86.46 64.83 91.62 69.32 C 93.25 70.54 93.91 72.86 96.04 73.39 C 95.17 71.37 94.18 69.38 93.79 67.20 C 90.74 56.34 87.49 45.54 84.64 34.63 C 81.26 40.75 79.68 47.76 75.88 53.64 C 76.98 46.58 81.02 40.26 83.39 33.53 C 77.14 33.90 71.12 36.10 64.85 36.02 M 38.48 44.42 C 38.01 44.74 37.05 45.39 36.57 45.71 C 48.99 47.57 61.12 51.16 73.52 53.15 C 70.69 47.46 66.89 42.30 63.70 36.81 C 55.24 39.16 46.94 42.05 38.48 44.42 M 88.16 37.85 C 87.98 39.02 87.19 40.23 87.70 41.41 C 89.74 47.93 91.68 54.50 93.28 61.14 C 95.87 60.31 98.51 59.65 101.10 58.84 C 96.59 52.34 91.23 46.20 88.06 38.92 C 93.42 43.86 96.06 51.15 101.10 56.40 C 100.59 53.01 99.65 49.68 99.96 46.21 C 96.15 43.25 92.20 40.47 88.16 37.85 M 15.58 40.03 C 23.58 52.13 32.63 63.60 40.52 75.81 C 40.91 76.17 41.69 76.88 42.08 77.23 C 41.96 73.55 40.02 70.31 39.15 66.79 C 37.61 60.57 35.10 54.64 33.62 48.40 C 33.15 47.29 32.93 45.77 31.55 45.42 C 26.19 43.74 20.90 41.84 15.58 40.03 M 34.54 46.15 C 42.21 57.80 49.33 69.82 57.12 81.39 C 62.71 72.59 68.47 63.90 74.12 55.14 C 61.05 51.64 47.62 49.63 34.54 46.15 M 101.85 49.29 C 102.01 52.45 102.02 55.62 102.01 58.78 C 104.85 60.49 107.56 62.40 110.32 64.25 C 108.29 58.89 104.60 54.31 101.85 49.29 M 35.86 51.45 C 38.86 61.66 42.39 71.74 45.24 82.00 C 48.88 81.99 52.51 82.00 56.14 82.00 C 52.08 75.70 47.97 69.42 43.82 63.17 C 41.18 59.26 39.19 54.84 35.86 51.45 M 75.31 55.81 C 69.82 64.53 63.79 72.91 58.55 81.80 C 62.02 81.10 65.46 80.20 68.99 79.97 C 77.84 78.92 86.42 75.88 95.39 75.86 C 94.17 72.88 91.33 71.07 89.25 68.75 C 84.63 64.41 80.53 59.46 75.31 55.81 M 95.87 61.45 C 99.87 63.52 104.52 63.70 108.79 65.02 C 106.68 63.11 104.20 61.67 102.03 59.83 C 100.02 60.53 97.96 61.06 95.87 61.45 M 29.02 61.56 C 28.98 66.97 29.00 72.37 28.99 77.77 C 33.73 78.94 38.31 81.02 43.25 81.18 C 38.50 74.64 33.75 68.11 29.02 61.56 M 23.91 73.95 C 24.43 75.69 26.30 76.75 27.93 77.34 C 28.01 72.72 28.11 68.09 27.91 63.47 C 26.03 66.71 24.95 70.36 23.91 73.95 M 23.89 75.77 C 25.79 81.95 26.60 88.48 28.88 94.51 C 29.36 89.43 28.95 84.33 27.77 79.37 C 26.70 77.95 25.29 76.84 23.89 75.77 M 42.13 77.13 C 42.75 77.75 42.75 77.75 42.13 77.13 M 81.01 79.03 C 73.25 80.02 65.65 82.03 57.91 83.11 C 62.61 89.97 66.47 97.40 71.21 104.24 C 74.08 99.53 78.86 96.46 81.89 91.88 C 86.38 86.85 90.57 81.61 95.36 76.85 C 90.48 76.81 85.87 78.79 81.01 79.03 M 30.73 79.85 C 32.71 83.42 34.81 86.94 37.27 90.19 C 39.56 88.10 41.81 85.89 43.16 83.05 C 39.24 81.22 34.83 81.11 30.73 79.85 M 30.02 81.59 C 30.11 85.51 29.54 89.54 30.65 93.36 C 31.28 96.03 30.85 98.79 31.05 101.49 C 33.18 98.31 34.27 94.51 36.73 91.54 C 34.47 88.24 32.20 84.94 30.02 81.59 M 86.56 88.51 C 84.41 91.62 81.18 93.79 79.05 96.92 C 77.11 99.75 74.49 102.01 72.02 104.36 C 71.93 111.08 71.93 117.80 72.05 124.52 C 75.13 119.24 77.65 113.65 80.12 108.07 C 84.31 99.14 88.96 90.43 93.14 81.50 C 90.74 83.62 88.38 85.85 86.56 88.51 M 46.21 83.08 C 45.93 83.36 45.36 83.93 45.08 84.21 C 44.78 90.50 45.23 96.81 44.90 103.10 C 44.20 106.87 43.64 110.69 44.09 114.53 C 48.26 104.09 52.47 93.64 56.21 83.03 C 52.88 83.02 49.54 82.85 46.21 83.08 M 57.23 84.55 C 52.51 95.27 48.95 106.45 44.70 117.35 C 53.36 113.65 61.65 109.10 70.08 104.88 C 65.42 98.34 62.06 90.96 57.23 84.55 M 46.27 118.40 C 46.13 118.71 45.83 119.32 45.69 119.63 C 53.92 121.71 61.75 125.10 69.95 127.28 C 70.04 120.42 70.06 113.55 69.93 106.69 C 61.94 110.37 54.14 114.46 46.27 118.40 M 38.23 126.21 C 35.72 128.57 33.65 131.31 31.74 134.18 C 33.49 133.73 35.20 133.11 37.01 132.99 C 47.06 131.74 56.96 129.40 67.08 128.72 C 66.70 128.37 65.96 127.68 65.59 127.34 C 58.37 124.95 51.15 122.59 43.96 120.10 C 41.30 120.95 40.19 124.30 38.23 126.21 M 30.58 135.37 C 33.90 137.89 35.75 141.77 38.84 144.54 C 43.28 142.55 47.23 139.67 51.66 137.67 C 56.56 135.06 61.75 132.97 66.44 130.00 C 54.47 131.36 42.56 133.80 30.58 135.37 M 19.26 136.29 C 19.16 137.76 22.82 137.65 22.75 136.25 C 21.58 135.62 20.41 135.63 19.26 136.29 M 21.80 138.37 C 22.03 140.60 23.22 142.52 24.33 144.41 C 25.76 141.60 27.19 138.80 28.46 135.92 C 26.30 136.87 24.11 137.81 21.80 138.37 M 25.06 146.17 C 29.06 145.17 33.13 144.75 37.25 145.00 C 34.93 141.89 31.70 139.15 30.58 135.37 C 28.43 138.80 26.71 142.48 25.06 146.17 M 14.41 137.14 C 11.07 140.38 7.71 143.61 4.65 147.12 C 6.72 147.04 8.69 146.40 10.61 145.67 C 13.44 143.10 16.80 141.14 19.25 138.16 C 17.69 137.75 16.07 136.47 14.41 137.14 M 12.62 145.97 C 16.18 146.03 19.75 146.03 23.31 145.93 C 22.45 143.73 21.37 141.63 20.20 139.59 C 17.70 141.75 14.75 143.39 12.62 145.97 M 25.60 147.00 C 28.44 148.85 30.62 151.51 33.46 153.34 C 34.55 150.75 35.93 148.31 37.21 145.82 C 33.42 146.91 29.52 147.19 25.60 147.00 M 37.59 147.68 C 36.60 149.91 35.50 152.09 33.93 153.97 C 35.95 154.88 38.07 155.57 40.18 156.22 C 39.42 153.36 39.50 150.08 37.59 147.68 M 25.79 148.63 C 27.77 154.97 29.76 161.33 31.14 167.84 C 31.41 169.19 32.23 170.35 32.91 171.52 C 33.11 166.14 32.97 160.74 32.97 155.35 C 30.54 153.14 28.39 150.64 25.79 148.63 M 34.05 155.78 C 34.02 161.68 33.90 167.59 34.07 173.50 C 36.40 168.48 38.19 163.24 40.23 158.11 C 38.29 157.03 36.30 155.98 34.05 155.78 Z" />
</g>
<g id="#ffffffff">
<path fill="#ffffff" opacity="1.00" d=" M 13.91 2.13 C 26.01 4.42 38.42 5.18 50.58 7.30 C 55.24 10.38 59.48 14.04 64.05 17.26 C 63.70 22.93 64.89 28.84 62.66 34.24 C 57.80 29.04 52.51 24.25 47.66 19.03 C 45.14 18.98 42.62 18.99 40.10 19.04 C 41.08 21.55 42.91 23.55 44.49 25.69 C 47.30 27.42 50.64 26.80 53.75 27.18 C 57.06 29.44 60.15 32.24 62.36 35.62 C 57.31 37.10 52.30 39.18 47.13 40.02 C 39.03 36.12 31.06 31.94 22.96 28.02 C 21.07 27.28 19.99 25.45 19.38 23.62 C 17.85 19.24 15.86 15.03 14.21 10.70 C 13.76 7.87 14.01 4.98 13.91 2.13 Z" />
<path fill="#ffffff" opacity="1.00" d=" M 14.08 14.41 C 16.42 18.65 17.69 23.37 19.78 27.73 C 17.56 30.44 16.55 33.94 14.07 36.43 C 13.98 29.09 13.90 21.74 14.08 14.41 Z" />
<path fill="#ffffff" opacity="1.00" d=" M 66.16 18.84 C 71.35 23.37 77.12 27.18 82.32 31.71 C 76.76 33.69 70.71 33.58 65.04 35.18 C 64.93 29.71 64.70 24.18 66.16 18.84 Z" />
<path fill="#ffffff" opacity="1.00" d=" M 42.07 20.00 C 43.61 20.00 45.14 20.01 46.68 20.03 C 48.46 22.15 51.10 23.47 52.54 25.87 C 50.11 25.31 47.65 24.91 45.16 24.91 C 44.16 23.25 43.16 21.60 42.07 20.00 Z" />
<path fill="#ffffff" opacity="1.00" d=" M 20.29 28.71 C 23.95 33.62 27.73 38.47 30.93 43.67 C 25.45 42.23 20.22 39.96 14.71 38.62 C 16.32 35.18 18.62 32.12 20.29 28.71 Z" />
<path fill="#ffffff" opacity="1.00" d=" M 22.73 29.69 C 30.51 32.78 37.70 37.19 45.36 40.56 C 41.53 42.25 37.49 43.55 33.36 44.30 C 29.80 39.44 26.16 34.64 22.73 29.69 Z" />
<path fill="#ffffff" opacity="1.00" d=" M 64.85 36.02 C 71.12 36.10 77.14 33.90 83.39 33.53 C 81.02 40.26 76.98 46.58 75.88 53.64 C 79.68 47.76 81.26 40.75 84.64 34.63 C 87.49 45.54 90.74 56.34 93.79 67.20 C 94.18 69.38 95.17 71.37 96.04 73.39 C 93.91 72.86 93.25 70.54 91.62 69.32 C 86.46 64.83 81.44 60.17 76.79 55.16 C 72.57 48.94 68.68 42.49 64.85 36.02 Z" />
<path fill="#ffffff" opacity="1.00" d=" M 38.48 44.42 C 46.94 42.05 55.24 39.16 63.70 36.81 C 66.89 42.30 70.69 47.46 73.52 53.15 C 61.12 51.16 48.99 47.57 36.57 45.71 C 37.05 45.39 38.01 44.74 38.48 44.42 Z" />
<path fill="#ffffff" opacity="1.00" d=" M 88.16 37.85 C 92.20 40.47 96.15 43.25 99.96 46.21 C 99.65 49.68 100.59 53.01 101.10 56.40 C 96.06 51.15 93.42 43.86 88.06 38.92 C 91.23 46.20 96.59 52.34 101.10 58.84 C 98.51 59.65 95.87 60.31 93.28 61.14 C 91.68 54.50 89.74 47.93 87.70 41.41 C 87.19 40.23 87.98 39.02 88.16 37.85 Z" />
<path fill="#ffffff" opacity="1.00" d=" M 15.58 40.03 C 20.90 41.84 26.19 43.74 31.55 45.42 C 32.93 45.77 33.15 47.29 33.62 48.40 C 35.10 54.64 37.61 60.57 39.15 66.79 C 40.02 70.31 41.96 73.55 42.08 77.23 C 41.69 76.88 40.91 76.17 40.52 75.81 C 32.63 63.60 23.58 52.13 15.58 40.03 Z" />
<path fill="#ffffff" opacity="1.00" d=" M 34.54 46.15 C 47.62 49.63 61.05 51.64 74.12 55.14 C 68.47 63.90 62.71 72.59 57.12 81.39 C 49.33 69.82 42.21 57.80 34.54 46.15 Z" />
<path fill="#ffffff" opacity="1.00" d=" M 101.85 49.29 C 104.60 54.31 108.29 58.89 110.32 64.25 C 107.56 62.40 104.85 60.49 102.01 58.78 C 102.02 55.62 102.01 52.45 101.85 49.29 Z" />
<path fill="#ffffff" opacity="1.00" d=" M 35.86 51.45 C 39.19 54.84 41.18 59.26 43.82 63.17 C 47.97 69.42 52.08 75.70 56.14 82.00 C 52.51 82.00 48.88 81.99 45.24 82.00 C 42.39 71.74 38.86 61.66 35.86 51.45 Z" />
<path fill="#ffffff" opacity="1.00" d=" M 75.31 55.81 C 80.53 59.46 84.63 64.41 89.25 68.75 C 91.33 71.07 94.17 72.88 95.39 75.86 C 86.42 75.88 77.84 78.92 68.99 79.97 C 65.46 80.20 62.02 81.10 58.55 81.80 C 63.79 72.91 69.82 64.53 75.31 55.81 Z" />
<path fill="#ffffff" opacity="1.00" d=" M 95.87 61.45 C 97.96 61.06 100.02 60.53 102.03 59.83 C 104.20 61.67 106.68 63.11 108.79 65.02 C 104.52 63.70 99.87 63.52 95.87 61.45 Z" />
<path fill="#ffffff" opacity="1.00" d=" M 29.02 61.56 C 33.75 68.11 38.50 74.64 43.25 81.18 C 38.31 81.02 33.73 78.94 28.99 77.77 C 29.00 72.37 28.98 66.97 29.02 61.56 Z" />
<path fill="#ffffff" opacity="1.00" d=" M 23.91 73.95 C 24.95 70.36 26.03 66.71 27.91 63.47 C 28.11 68.09 28.01 72.72 27.93 77.34 C 26.30 76.75 24.43 75.69 23.91 73.95 Z" />
<path fill="#ffffff" opacity="1.00" d=" M 23.89 75.77 C 25.29 76.84 26.70 77.95 27.77 79.37 C 28.95 84.33 29.36 89.43 28.88 94.51 C 26.60 88.48 25.79 81.95 23.89 75.77 Z" />
<path fill="#ffffff" opacity="1.00" d=" M 42.13 77.13 C 42.75 77.75 42.75 77.75 42.13 77.13 Z" />
<path fill="#ffffff" opacity="1.00" d=" M 81.01 79.03 C 85.87 78.79 90.48 76.81 95.36 76.85 C 90.57 81.61 86.38 86.85 81.89 91.88 C 78.86 96.46 74.08 99.53 71.21 104.24 C 66.47 97.40 62.61 89.97 57.91 83.11 C 65.65 82.03 73.25 80.02 81.01 79.03 Z" />
<path fill="#ffffff" opacity="1.00" d=" M 30.73 79.85 C 34.83 81.11 39.24 81.22 43.16 83.05 C 41.81 85.89 39.56 88.10 37.27 90.19 C 34.81 86.94 32.71 83.42 30.73 79.85 Z" />
<path fill="#ffffff" opacity="1.00" d=" M 30.02 81.59 C 32.20 84.94 34.47 88.24 36.73 91.54 C 34.27 94.51 33.18 98.31 31.05 101.49 C 30.85 98.79 31.28 96.03 30.65 93.36 C 29.54 89.54 30.11 85.51 30.02 81.59 Z" />
<path fill="#ffffff" opacity="1.00" d=" M 86.56 88.51 C 88.38 85.85 90.74 83.62 93.14 81.50 C 88.96 90.43 84.31 99.14 80.12 108.07 C 77.65 113.65 75.13 119.24 72.05 124.52 C 71.93 117.80 71.93 111.08 72.02 104.36 C 74.49 102.01 77.11 99.75 79.05 96.92 C 81.18 93.79 84.41 91.62 86.56 88.51 Z" />
<path fill="#ffffff" opacity="1.00" d=" M 46.21 83.08 C 49.54 82.85 52.88 83.02 56.21 83.03 C 52.47 93.64 48.26 104.09 44.09 114.53 C 43.64 110.69 44.20 106.87 44.90 103.10 C 45.23 96.81 44.78 90.50 45.08 84.21 C 45.36 83.93 45.93 83.36 46.21 83.08 Z" />
<path fill="#ffffff" opacity="1.00" d=" M 57.23 84.55 C 62.06 90.96 65.42 98.34 70.08 104.88 C 61.65 109.10 53.36 113.65 44.70 117.35 C 48.95 106.45 52.51 95.27 57.23 84.55 Z" />
<path fill="#ffffff" opacity="1.00" d=" M 46.27 118.40 C 54.14 114.46 61.94 110.37 69.93 106.69 C 70.06 113.55 70.04 120.42 69.95 127.28 C 61.75 125.10 53.92 121.71 45.69 119.63 C 45.83 119.32 46.13 118.71 46.27 118.40 Z" />
<path fill="#ffffff" opacity="1.00" d=" M 38.23 126.21 C 40.19 124.30 41.30 120.95 43.96 120.10 C 51.15 122.59 58.37 124.95 65.59 127.34 C 65.96 127.68 66.70 128.37 67.08 128.72 C 56.96 129.40 47.06 131.74 37.01 132.99 C 35.20 133.11 33.49 133.73 31.74 134.18 C 33.65 131.31 35.72 128.57 38.23 126.21 Z" />
<path fill="#ffffff" opacity="1.00" d=" M 30.58 135.37 C 42.56 133.80 54.47 131.36 66.44 130.00 C 61.75 132.97 56.56 135.06 51.66 137.67 C 47.23 139.67 43.28 142.55 38.84 144.54 C 35.75 141.77 33.90 137.89 30.58 135.37 Z" />
<path fill="#ffffff" opacity="1.00" d=" M 19.26 136.29 C 20.41 135.63 21.58 135.62 22.75 136.25 C 22.82 137.65 19.16 137.76 19.26 136.29 Z" />
<path fill="#ffffff" opacity="1.00" d=" M 21.80 138.37 C 24.11 137.81 26.30 136.87 28.46 135.92 C 27.19 138.80 25.76 141.60 24.33 144.41 C 23.22 142.52 22.03 140.60 21.80 138.37 Z" />
<path fill="#ffffff" opacity="1.00" d=" M 25.06 146.17 C 26.71 142.48 28.43 138.80 30.58 135.37 C 31.70 139.15 34.93 141.89 37.25 145.00 C 33.13 144.75 29.06 145.17 25.06 146.17 Z" />
<path fill="#ffffff" opacity="1.00" d=" M 14.41 137.14 C 16.07 136.47 17.69 137.75 19.25 138.16 C 16.80 141.14 13.44 143.10 10.61 145.67 C 8.69 146.40 6.72 147.04 4.65 147.12 C 7.71 143.61 11.07 140.38 14.41 137.14 Z" />
<path fill="#ffffff" opacity="1.00" d=" M 12.62 145.97 C 14.75 143.39 17.70 141.75 20.20 139.59 C 21.37 141.63 22.45 143.73 23.31 145.93 C 19.75 146.03 16.18 146.03 12.62 145.97 Z" />
<path fill="#ffffff" opacity="1.00" d=" M 25.60 147.00 C 29.52 147.19 33.42 146.91 37.21 145.82 C 35.93 148.31 34.55 150.75 33.46 153.34 C 30.62 151.51 28.44 148.85 25.60 147.00 Z" />
<path fill="#ffffff" opacity="1.00" d=" M 37.59 147.68 C 39.50 150.08 39.42 153.36 40.18 156.22 C 38.07 155.57 35.95 154.88 33.93 153.97 C 35.50 152.09 36.60 149.91 37.59 147.68 Z" />
<path fill="#ffffff" opacity="1.00" d=" M 25.79 148.63 C 28.39 150.64 30.54 153.14 32.97 155.35 C 32.97 160.74 33.11 166.14 32.91 171.52 C 32.23 170.35 31.41 169.19 31.14 167.84 C 29.76 161.33 27.77 154.97 25.79 148.63 Z" />
<path fill="#ffffff" opacity="1.00" d=" M 34.05 155.78 C 36.30 155.98 38.29 157.03 40.23 158.11 C 38.19 163.24 36.40 168.48 34.07 173.50 C 33.90 167.59 34.02 161.68 34.05 155.78 Z" />
</g>
</svg>
