<svg xmlns="http://www.w3.org/2000/svg" xmlns:xlink="http://www.w3.org/1999/xlink" width="64" height="64" viewBox="0 0 64 64">
  <defs>
    <style>
      .cls-1 {
        fill: #fff;
      }

      .cls-2 {
        fill: #b4832d;
      }

      .cls-3 {
        clip-path: url(#clip-path);
      }

      .cls-4 {
        fill: #835a25;
      }

      .cls-5 {
        fill: #8a6026;
      }

      .cls-6 {
        fill: #906528;
      }

      .cls-7 {
        fill: #966b29;
      }

      .cls-8 {
        fill: #d39a2b;
      }

      .cls-9 {
        fill: #fec631;
      }

      .cls-10 {
        fill: #c7912d;
      }

      .cls-11 {
        fill: #fecf42;
      }

      .cls-12 {
        fill: #e8a627;
      }

      .cls-13 {
        fill: #fbbe2b;
      }

      .cls-14 {
        fill: #f2af27;
      }

      .cls-15 {
        fill: #9e712a;
      }

      .cls-16 {
        fill: #fab729;
      }

      .cls-17 {
        fill: #a5792e;
      }

      .cls-18 {
        fill: #ffd454;
      }

      .cls-19 {
        fill: #ab7d2d;
      }

      .cls-20 {
        fill: #7d5523;
      }

      .cls-21 {
        fill: #6d6d6d;
      }

      .cls-22 {
        fill: #858585;
      }

      .cls-23 {
        fill: #d1d1d1;
      }

      .cls-24 {
        fill: #aaabac;
      }

      .cls-25 {
        fill: #504f4e;
      }

      .cls-26 {
        fill: #c3c3c3;
      }

      .cls-27 {
        fill: #f3f2f1;
      }

      .cls-28 {
        fill: #5f5f60;
      }

      .cls-29 {
        fill: #e8e8e8;
      }

      .cls-30 {
        fill: #757576;
      }

      .cls-31 {
        fill: #fffdfb;
      }

      .cls-32 {
        fill: #d8d8d7;
      }
    </style>
    <clipPath id="clip-path">
      <circle id="Ellipse_2169" data-name="Ellipse 2169" class="cls-1" cx="32" cy="32" r="32" transform="translate(-22127 -23193)"/>
    </clipPath>
  </defs>
  <g id="Group_1024" data-name="Group 1024" transform="translate(22146 23122)">
    <circle id="Ellipse_2172" data-name="Ellipse 2172" class="cls-2" cx="32" cy="32" r="32" transform="translate(-22146 -23122)"/>
    <g id="Mask_Group_345" data-name="Mask Group 345" class="cls-3" transform="translate(-19 71)">
      <g id="KM905m.tif" transform="translate(-22126.982 -23192.977)">
        <path id="Path_26716" data-name="Path 26716" class="cls-4" d="M332.181,194.439l-7.4-2.5c.435-.588.78-1.385,1.372-1.742,2.308-1.354,2.67-2.661.9-4.529-1.842-1.947-3.815-3.763-5.735-5.661l4.39-2.922c.122.518.087,1.18.4,1.529,1.833,2.051,3.645,4.137,5.661,6a31.853,31.853,0,0,0,4.329,2.866l.322.435-.6.457.666.4.435.4a12.883,12.883,0,0,0,.954,2.008c.784,1.115,1.685,2.147,2.535,3.214h-8.218Z" transform="translate(-304.906 -130.482)"/>
        <path id="Path_26717" data-name="Path 26717" class="cls-5" d="M305.228,166.794l-.17.065-.152-.1v-3.048c.636-.388,1.576-1.263,1.86-1.089,2.613,1.611,5.6,2.983,7.464,5.256,2.217,2.7,5.548,3.083,7.935,5.161l-1.607,2.469a8.345,8.345,0,0,1-1.668-.649c-2.221-1.446-4.355-3.022-6.615-4.407S308.263,166.693,305.228,166.794Z" transform="translate(-304.906 -130.482)"/>
        <path id="Path_26718" data-name="Path 26718" class="cls-6" d="M322.164,173.047c-2.386-2.077-5.718-2.465-7.935-5.161-1.868-2.273-4.869-3.645-7.464-5.256-.283-.174-1.224.7-1.86,1.089v-5.635c2.069-.165,2.744,1.542,3.946,2.7s2.835,1.685,4.285,2.5h.871c1.9,1.742,3.758,3.527,5.714,5.226,1.137.98,2.43,1.777,3.654,2.652l-1.111,1.738-.27-.174.2.27Z" transform="translate(-304.906 -130.482)"/>
        <path id="Path_26719" data-name="Path 26719" class="cls-7" d="M313.119,163.284c-1.45-.81-3.122-1.385-4.285-2.5s-1.877-2.861-3.946-2.7v-.436c.231-.6.462-1.2.688-1.794q3.989,2.992,7.978,5.988c.039.03.022.135.035.209a2.041,2.041,0,0,1,0,.283Z" transform="translate(-304.906 -130.482)"/>
        <path id="Path_26720" data-name="Path 26720" class="cls-6" d="M340.407,194.439c-.849-1.067-1.742-2.1-2.535-3.214a12.878,12.878,0,0,1-.954-2.008c.187-.435.37-.849.553-1.276l5.226,5.931-1.415.566Z" transform="translate(-304.906 -130.482)"/>
        <path id="Path_26721" data-name="Path 26721" class="cls-6" d="M334.781,194.439Z" transform="translate(-304.906 -130.482)"/>
        <path id="Path_26722" data-name="Path 26722" class="cls-2" d="M308.1,148.577q1.607-2.613,3.218-5.226c.723.627,1.433,1.267,2.177,1.877.967.8,1.842,1.912,2.953,2.273a3.14,3.14,0,0,1,2.365,2.143c.139.436.749.679,1.141,1.01l.562-1.245a8.327,8.327,0,0,1,1.241,1.681c1.306,3.027,3.484,4.224,6.694,3.484l.727.026c0,.3-.022.592-.035.871H324.59l-.052.518,2.874,2.5-5.187,1.306a33.023,33.023,0,0,1-3.014-1.986c-1.15-.945-2.121-2.1-3.258-3.048-1.855-1.555-3.78-3.018-5.661-4.516Q309.182,149.422,308.1,148.577Z" transform="translate(-304.906 -130.482)"/>
        <path id="Path_26723" data-name="Path 26723" class="cls-8" d="M365.744,176.322l-3.227,5.2a19.694,19.694,0,0,0-2.238-1.873c-2.308-1.42-4.673-2.744-7.016-4.1l.022-.039-.871-1.359.035.039-.893-1.346.035.039-.871-1.359.026.035-.627-.871c-1.672-1.951-3.858-.623-5.8-.9l-2.713-1.333.087-1.206,7.778-1.825a10.933,10.933,0,0,1,2.469,1.032c3.6,2.678,7.112,5.47,10.7,8.152a24.876,24.876,0,0,0,3.1,1.707Z" transform="translate(-304.906 -130.482)"/>
        <path id="Path_26724" data-name="Path 26724" class="cls-8" d="M329.132,155.5c0-.3.026-.592.035-.871-.113-2.147.941-4.66-1.846-5.984-.257-1.82-.435-3.658-.81-5.448a3.824,3.824,0,0,0-1.167-1.873c-2.021-1.838-4.12-3.584-6.188-5.365l2.9-1.742c4.137,3.2,9.041,5.413,12.385,9.633q-1.306,6.872-2.648,13.74l-.9.091C331.58,155.906,330.848,155.31,329.132,155.5Z" transform="translate(-304.906 -130.482)"/>
        <path id="Path_26725" data-name="Path 26725" class="cls-9" d="M330.016,131.275l6.916-.784c.4.753.61,1.829,1.241,2.212,2.935,1.794,6.123,3.205,8.967,5.13a92.178,92.178,0,0,1,7.125,5.936l-.9.753-.505.5h-.044l-1.694.719c-2.726,0-4.451-1.873-6.406-3.388-2.086-1.616-4.307-3.048-6.471-4.568l-1.093-2.151-.727.871c-1.494-1.154-3-2.3-4.481-3.484C331.275,132.451,330.656,131.85,330.016,131.275Z" transform="translate(-304.906 -130.482)"/>
        <path id="Path_26726" data-name="Path 26726" class="cls-10" d="M319.155,135.939c2.069,1.781,4.168,3.527,6.188,5.365a3.824,3.824,0,0,1,1.167,1.873c.374,1.79.553,3.628.81,5.448l-5.492-3.2-3.453-1.742-1.742-1.124-.732-.61-.248.327.832.705.527.871.3.383.152.4.348.466.057.07.279.353.174.435.331.436.531.871.309.436.544.915.309.383a.8.8,0,0,1,.148.392l-.562,1.245c-.392-.331-1-.592-1.141-1.01a3.125,3.125,0,0,0-2.365-2.143c-1.111-.361-1.986-1.472-2.953-2.273-.736-.61-1.446-1.25-2.177-1.877Z" transform="translate(-304.906 -130.482)"/>
        <path id="Path_26727" data-name="Path 26727" class="cls-11" d="M354.264,143.769a88.387,88.387,0,0,0-7.125-5.936c-2.844-1.925-6.032-3.336-8.967-5.13-.631-.383-.836-1.459-1.241-2.212a29.365,29.365,0,0,1,18.613,6.01q.658,2.826,1.307,5.661Z" transform="translate(-304.906 -130.482)"/>
        <path id="Path_26728" data-name="Path 26728" class="cls-12" d="M365.744,176.322a24.875,24.875,0,0,1-3.079-1.716c-3.593-2.683-7.107-5.474-10.7-8.152a10.933,10.933,0,0,0-2.469-1.032l8.431-2.526,1.868-.078c.048.052.118.1.139.157a.576.576,0,0,1,0,.2c-.436.213-.871.414-1.337.618l-.344.666c3.532-.51,3.593,2.177,4.79,4,1.036,1.559,2.8,2.635,4.233,3.919Z" transform="translate(-304.906 -130.482)"/>
        <path id="Path_26729" data-name="Path 26729" class="cls-13" d="M367.9,154.561q.492,4.355.976,8.71c-1.537-1.42-3.009-2.922-4.634-4.229-2.177-1.742-4.459-3.332-6.689-5-1.685-1.254-3.358-2.522-5.034-3.784l1.829-3a9,9,0,0,1,2.7.6c2.286,1.337,4.442,2.892,6.689,4.3C365.086,153.032,366.511,153.772,367.9,154.561Z" transform="translate(-304.906 -130.482)"/>
        <path id="Path_26730" data-name="Path 26730" class="cls-14" d="M367.255,172.377c-1.437-1.306-3.2-2.365-4.233-3.919-1.2-1.8-1.263-4.507-4.79-4l.344-.666c.436-.2.9-.405,1.337-.618.035,0,.044-.139,0-.2s-.091-.1-.139-.157a1.156,1.156,0,0,0,0-.3,2.01,2.01,0,0,0,.209-.3.187.187,0,0,0-.083-.148c-1.328-.37-2.661-.732-3.993-1.093a19.492,19.492,0,0,0-1.163-2.243c-1.306-1.9-2.861-3.545-5.4-3.728l.666-1.646.788-.605c2.382,1.359,4.838,2.613,7.138,4.1,3.588,2.317,5.857,5.836,7.865,9.468.658,1.18,1.259,1.838,2.582,1.742Q367.839,170.217,367.255,172.377Z" transform="translate(-304.906 -130.482)"/>
        <path id="Path_26731" data-name="Path 26731" class="cls-15" d="M351.225,190.894l-3.889,1.742c-.209-.492-.283-1.141-.649-1.45a29.254,29.254,0,0,1-2.739-1.938c-1.833-1.934-5.108-2.421-5.661-5.618L339.554,178c2.021,1.877,4.059,3.741,6.062,5.635.98.932,1.742,2.177,2.883,2.831A5.36,5.36,0,0,1,351.225,190.894Z" transform="translate(-304.906 -130.482)"/>
        <path id="Path_26732" data-name="Path 26732" class="cls-2" d="M359.969,184.527,357.1,187.14a6.87,6.87,0,0,1-1.359-.57c-3.728-2.613-7.521-5.148-11.114-7.93a36.92,36.92,0,0,1-4.237-4.547l.4-1.742c1.259.588,1.742,2.857,3.789,1.742.1.266.118.658.309.78q5.5,3.6,11.048,7.112c.144.091.592-.3.9-.475.044-.057.074-.131.131-.165a.749.749,0,0,1,.2-.061C357.352,183,358.611,183.8,359.969,184.527Z" transform="translate(-304.906 -130.482)"/>
        <path id="Path_26733" data-name="Path 26733" class="cls-16" d="M368.427,168.052c-1.306.109-1.925-.549-2.582-1.742-2.008-3.632-4.277-7.151-7.865-9.468-2.3-1.489-4.756-2.739-7.138-4.094l1.69-2.482c1.677,1.263,3.349,2.53,5.034,3.784,2.23,1.664,4.525,3.249,6.689,5,1.624,1.306,3.1,2.809,4.634,4.229Q368.644,165.666,368.427,168.052Z" transform="translate(-304.906 -130.482)"/>
        <path id="Path_26734" data-name="Path 26734" class="cls-17" d="M351.225,190.894a5.366,5.366,0,0,0-2.744-4.433c-1.132-.636-1.9-1.9-2.883-2.831-2-1.894-4.041-3.758-6.062-5.635.144-.719.292-1.441.435-2.177a17.132,17.132,0,0,0,1.942,2.134c1.372,1.1,3.048,1.864,4.255,3.109a31.586,31.586,0,0,0,9.894,6.9Z" transform="translate(-304.906 -130.482)"/>
        <path id="Path_26735" data-name="Path 26735" class="cls-18" d="M356.869,142.162q-.658-2.826-1.306-5.661a28.1,28.1,0,0,1,10.369,12.512c-2.635-1.742-5.283-3.436-7.882-5.226-.222-.152-.048-.814-.2-1.18-.087-.209-.462-.3-.705-.457a.257.257,0,0,1-.274.013Z" transform="translate(-304.906 -130.482)"/>
        <path id="Path_26736" data-name="Path 26736" class="cls-19" d="M308.1,148.577c.723.562,1.455,1.119,2.177,1.685,1.9,1.5,3.828,2.961,5.661,4.516,1.137.954,2.108,2.112,3.257,3.048a33.021,33.021,0,0,0,3.014,1.986l-1.742.435a18.726,18.726,0,0,1-6.911-4.412c-1.925-1.842-4.355-3.149-6.567-4.69Z" transform="translate(-304.906 -130.482)"/>
        <path id="Path_26737" data-name="Path 26737" class="cls-7" d="M338.269,183.621c.57,3.2,3.845,3.684,5.661,5.618a32.442,32.442,0,0,0,2.739,1.938c.366.309.435.958.649,1.45l-4.647,1.245-5.226-5.931-.17-.03Z" transform="translate(-304.906 -130.482)"/>
        <path id="Path_26738" data-name="Path 26738" class="cls-10" d="M359.969,184.527c-1.359-.723-2.613-1.524-2.787-3.262a.749.749,0,0,0-.2.061c-.057.035-.087.109-.131.165l-1.306-1.328-2.26-4.612c2.343,1.359,4.708,2.683,7.016,4.1a19.689,19.689,0,0,1,2.238,1.873Z" transform="translate(-304.906 -130.482)"/>
        <path id="Path_26739" data-name="Path 26739" class="cls-12" d="M334.458,143.843c-3.345-4.22-8.248-6.432-12.385-9.633l2.051-.98,11.175,7.983c-.083.47-.17.941-.257,1.407l-.183.414Z" transform="translate(-304.906 -130.482)"/>
        <path id="Path_26740" data-name="Path 26740" class="cls-17" d="M306.992,151.146c2.212,1.542,4.642,2.848,6.567,4.69a18.726,18.726,0,0,0,6.937,4.425l-.6.061-.7.318-.762.928-.989-.044-.5-.331v.074c-1.263-1.119-2.443-2.343-3.8-3.327-2.225-1.611-4.564-3.048-6.85-4.581Z" transform="translate(-304.906 -130.482)"/>
        <path id="Path_26741" data-name="Path 26741" class="cls-15" d="M306.282,153.337c2.286,1.52,4.625,2.97,6.85,4.581,1.359.984,2.539,2.208,3.8,3.327l-3.327.819c0-.074,0-.179-.035-.209q-3.985-3-7.978-5.988Z" transform="translate(-304.906 -130.482)"/>
        <path id="Path_26742" data-name="Path 26742" class="cls-19" d="M356.067,187.976a31.586,31.586,0,0,1-9.894-6.9c-1.2-1.245-2.883-2.012-4.255-3.109a17.128,17.128,0,0,1-1.942-2.134l.435-1.742a36.266,36.266,0,0,0,4.237,4.547c3.593,2.783,7.4,5.317,11.114,7.93a6.875,6.875,0,0,0,1.359.571Z" transform="translate(-304.906 -130.482)"/>
        <path id="Path_26743" data-name="Path 26743" class="cls-9" d="M367.9,154.561c-1.389-.788-2.813-1.529-4.168-2.378-2.247-1.411-4.4-2.966-6.689-4.3a9.276,9.276,0,0,0-2.7-.6l1.346-2.177c1.241.636,2.513,1.219,3.719,1.921,2.539,1.468,5.043,3,7.56,4.5Z" transform="translate(-304.906 -130.482)"/>
        <path id="Path_26744" data-name="Path 26744" class="cls-14" d="M335.277,141.213,324.1,133.23l1.96-.827c.152.235.253.566.47.684,2.674,1.468,5.361,2.922,8.061,4.333a6,6,0,0,0,1.42.348Q335.647,139.488,335.277,141.213Z" transform="translate(-304.906 -130.482)"/>
        <path id="Path_26745" data-name="Path 26745" class="cls-13" d="M336.013,137.768a6,6,0,0,1-1.42-.348c-2.7-1.411-5.387-2.866-8.061-4.333-.218-.118-.318-.435-.47-.684l3.954-1.128c.64.575,1.259,1.176,1.929,1.711,1.481,1.18,2.987,2.326,4.481,3.484-.1.435-.2.871-.3,1.285Z" transform="translate(-304.906 -130.482)"/>
        <path id="Path_26746" data-name="Path 26746" class="cls-11" d="M366.972,151.551c-2.517-1.507-5.021-3.048-7.56-4.5-1.206-.7-2.478-1.285-3.719-1.921l-.118-.518,1.55-2.443c.244.152.618.248.706.457.152.366,0,1.028.2,1.18,2.613,1.781,5.226,3.484,7.882,5.226Z" transform="translate(-304.906 -130.482)"/>
        <path id="Path_26747" data-name="Path 26747" class="cls-20" d="M321.319,180.033c1.921,1.877,3.893,3.693,5.735,5.661,1.772,1.868,1.411,3.175-.9,4.529-.592.348-.919,1.145-1.372,1.742a30.294,30.294,0,0,1-17.825-18.447c.475-.152,1.063-.562,1.407-.409a31.257,31.257,0,0,1,3.771,2c2.23,1.363,4.416,2.792,6.619,4.194l-1.394,2.238.436.2Z" transform="translate(-304.906 -130.482)"/>
        <path id="Path_26748" data-name="Path 26748" class="cls-4" d="M318.781,179.275c-2.2-1.4-4.39-2.831-6.62-4.194a31.261,31.261,0,0,0-3.771-2c-.344-.152-.932.257-1.407.409q-.871-3.345-1.742-6.7c3.048-.1,4.79,2.3,7.046,3.676s4.394,2.961,6.615,4.407a8.344,8.344,0,0,0,1.668.649c-.322.993-.64,1.986-.962,2.979Z" transform="translate(-304.906 -130.482)"/>
        <path id="Path_26749" data-name="Path 26749" class="cls-6" d="M336.1,187.5a33.266,33.266,0,0,1-4.329-2.866c-2.021-1.86-3.832-3.946-5.661-6-.309-.348-.274-1.01-.4-1.529l3.384-2.238c1.063,1.485,2.116,2.974,3.183,4.455.827,1.145,1.664,2.286,2.5,3.427l.414.457c.287,1.154.575,2.312.871,3.484,0,.148.022.3.035.435a1.108,1.108,0,0,0,0,.37Z" transform="translate(-304.906 -130.482)"/>
        <path id="Path_26750" data-name="Path 26750" class="cls-21" d="M329.093,174.872l-3.384,2.238-4.39,2.922-3.536,1.677-.435-.2,1.394-2.238.836-.775,2.639-1.794a.213.213,0,0,0,.126-.335h-.022c.488-.379,1.01-.723,1.463-1.145,1.79-1.677,3.562-3.379,5.339-5.073l.131,2.234C329.232,173.217,329.154,174.045,329.093,174.872Z" transform="translate(-304.906 -130.482)"/>
        <path id="Path_26751" data-name="Path 26751" class="cls-22" d="M336.1,187.5a1.111,1.111,0,0,1,0-.379l.388-.436a1.883,1.883,0,0,1,.3-.091l.523,1.328.17.03c-.183.435-.366.849-.553,1.276l-.435-.4-.065-.871Z" transform="translate(-304.906 -130.482)"/>
        <path id="Path_26752" data-name="Path 26752" class="cls-6" d="M336.422,187.954l.065.871-.666-.405Z" transform="translate(-304.906 -130.482)"/>
        <path id="Path_26753" data-name="Path 26753" class="cls-23" d="M322.234,176.705l-2.639,1.794c.322-.993.64-1.986.962-2.979l1.607-2.474v-.083l.1-.074,1.128-1.72.553-.518c1.873.688.435,1.781.17,2.53a19.514,19.514,0,0,1-1.742,3.214h.022l-.34.065Z" transform="translate(-304.906 -130.482)"/>
        <path id="Path_26754" data-name="Path 26754" class="cls-7" d="M323.924,170.63l-.553.518c-1.224-.871-2.517-1.672-3.654-2.652-1.955-1.677-3.815-3.484-5.714-5.226l4.79.919a5.127,5.127,0,0,0,.819,1.215c1.59,1.346,3.706,2.151,4.385,4.4Z" transform="translate(-304.906 -130.482)"/>
        <path id="Path_26755" data-name="Path 26755" class="cls-4" d="M318.781,164.211l-4.79-.9h-.871c.157-.314.318-.623.479-.936a.492.492,0,0,1,.331.065l5.291,1.742Z" transform="translate(-304.906 -130.482)"/>
        <path id="Path_26756" data-name="Path 26756" class="cls-5" d="M322.264,172.891l-.07.1-.2-.27Z" transform="translate(-304.906 -130.482)"/>
        <path id="Path_26757" data-name="Path 26757" class="cls-24" d="M313.947,162.413a.492.492,0,0,0-.331-.065v-.283l3.327-.819v-.074l.5.331.989.044.784.71Z" transform="translate(-304.906 -130.482)"/>
        <path id="Path_26758" data-name="Path 26758" class="cls-25" d="M318.345,145.968c-.057-.139-.113-.283-.174-.435l-.279-.353-.057-.07c-.113-.157-.231-.309-.348-.466l-.152-.405-.3-.383-.527-.871.148-.436,1.742,1.124q4.486,4.542,8.98,9.076l1.071,1.82c-3.223.727-5.409-.47-6.694-3.484a8.854,8.854,0,0,0-1.241-1.681.8.8,0,0,0-.148-.392l-.309-.383c-.179-.3-.361-.61-.544-.915l-.309-.436-.531-.871Z" transform="translate(-304.906 -130.482)"/>
        <path id="Path_26759" data-name="Path 26759" class="cls-23" d="M319.216,162.256l-.784-.71c.253-.3.509-.6.762-.906l.7-.318.6-.061,1.742-.436,5.187-1.306,3.484-.84.9-.091.435.344c-.165.627-.327,1.25-.492,1.873-2.208.436-4.429.871-6.62,1.389-.3.07-.479.7-.714,1.067Z" transform="translate(-304.906 -130.482)"/>
        <path id="Path_26760" data-name="Path 26760" class="cls-23" d="M328.44,154.6l-1.071-1.82c.361-1.851-.435-2.992-1.995-4.011a26.169,26.169,0,0,1-3.532-3.327l5.478,3.2c2.787,1.306,1.742,3.837,1.846,5.984Z" transform="translate(-304.906 -130.482)"/>
        <path id="Path_26761" data-name="Path 26761" class="cls-10" d="M330.892,157.674l-3.484.84-2.874-2.5.052-.518h4.542C330.848,155.31,331.58,155.906,330.892,157.674Z" transform="translate(-304.906 -130.482)"/>
        <path id="Path_26762" data-name="Path 26762" class="cls-26" d="M337.3,187.911l-.523-1.328q.044-3.419.087-6.829l.871-.688-.9-.666-.266-.353c.091-.436.179-.871.266-1.306,1.929.074,1.468-1.594,1.781-2.587.819-2.578,1.481-5.226,2.208-7.817l.871.919c-.03.4-.057.806-.087,1.206q-.409,1.947-.827,3.9l-.4,1.742-.435,1.742c-.148.719-.3,1.441-.435,2.177l-1.267,5.627Z" transform="translate(-304.906 -130.482)"/>
        <path id="Path_26763" data-name="Path 26763" class="cls-27" d="M353.263,175.551l2.26,4.612a8.709,8.709,0,0,1-1.555-.984c-2.521-2.461-4.986-4.978-7.508-7.434a11.491,11.491,0,0,0-1.694-1.154l-.435-.806c1.938.274,4.124-1.054,5.8.9l.623.871-.026-.035.871,1.359-.035-.039.893,1.346-.035-.039.871,1.359Z" transform="translate(-304.906 -130.482)"/>
        <path id="Path_26764" data-name="Path 26764" class="cls-28" d="M341.714,167.229c-.292-.3-.588-.61-.871-.919l-.174-.436c2.3-.819,4.59-1.629,6.863-2.491.152-.057.157-.5.231-.762l9.067-.057,1.1.322-8.431,2.526Z" transform="translate(-304.906 -130.482)"/>
        <path id="Path_26765" data-name="Path 26765" class="cls-10" d="M344.34,169.785l.435.806c-.061,1.163-.122,2.321-.179,3.484-2.042,1.132-2.53-1.137-3.789-1.742q.435-1.955.827-3.9Z" transform="translate(-304.906 -130.482)"/>
        <path id="Path_26766" data-name="Path 26766" class="cls-10" d="M352.457,174.2l-.893-1.346C351.878,173.3,352.157,173.762,352.457,174.2Z" transform="translate(-304.906 -130.482)"/>
        <path id="Path_26767" data-name="Path 26767" class="cls-10" d="M351.6,172.891l-.871-1.359Z" transform="translate(-304.906 -130.482)"/>
        <path id="Path_26768" data-name="Path 26768" class="cls-10" d="M353.285,175.5l-.871-1.359Z" transform="translate(-304.906 -130.482)"/>
        <path id="Path_26769" data-name="Path 26769" class="cls-10" d="M350.763,171.584l-.623-.871Z" transform="translate(-304.906 -130.482)"/>
        <path id="Path_26770" data-name="Path 26770" class="cls-21" d="M332.233,157.927l-.435-.344q1.306-6.872,2.648-13.74c.131-.27.266-.54.4-.81l.183-.414c.087-.466.174-.936.257-1.407q.374-1.742.736-3.445h.605v9.921l-1.363,2.657-.052,2.552-.436,1.306v.871l-2.138,2.944Z" transform="translate(-304.906 -130.482)"/>
        <path id="Path_26771" data-name="Path 26771" class="cls-16" d="M337.154,135.6q.549,1.071,1.093,2.151a4.334,4.334,0,0,0,2.447,3.68,8.923,8.923,0,0,1,2.648,2.125c1.306,1.52,2.434,3.188,3.641,4.79l-2.243,1.459a9.206,9.206,0,0,0-5.683-5.57l-1.62-4.011-.5-4.455a.632.632,0,0,0,.213-.17Z" transform="translate(-304.906 -130.482)"/>
        <path id="Path_26772" data-name="Path 26772" class="cls-13" d="M346.983,148.351c-1.206-1.6-2.339-3.271-3.641-4.79a8.922,8.922,0,0,0-2.648-2.125,4.317,4.317,0,0,1-2.447-3.68c2.177,1.516,4.385,2.953,6.471,4.568,1.955,1.516,3.68,3.371,6.406,3.388Z" transform="translate(-304.906 -130.482)"/>
        <path id="Path_26773" data-name="Path 26773" class="cls-26" d="M346.983,148.351l4.142-2.639,1.69-.719-1.568,3.323-1.111.967c-.231-.322-.435-.919-.688-.919-1.4,0-2.613,2.147-2.147,3.654a1.384,1.384,0,0,0,0,.3l-2.439,1.646c-.1-1.132-.192-2.177-.287-3.2l-.118-.47.279-.488Z" transform="translate(-304.906 -130.482)"/>
        <path id="Path_26774" data-name="Path 26774" class="cls-29" d="M351.247,148.316l1.568-3.323h.048l.505-.488.9-.753,2.613-1.607a.257.257,0,0,0,.257,0l-1.559,2.439Z" transform="translate(-304.906 -130.482)"/>
        <path id="Path_26775" data-name="Path 26775" class="cls-24" d="M337.154,135.6a.632.632,0,0,1-.213.187c-.109.658-.218,1.306-.322,1.968h-.488c.1-.435.2-.871.3-1.285Z" transform="translate(-304.906 -130.482)"/>
        <path id="Path_26776" data-name="Path 26776" class="cls-26" d="M353.367,144.523l-.505.5Z" transform="translate(-304.906 -130.482)"/>
        <path id="Path_26777" data-name="Path 26777" class="cls-29" d="M321.829,145.424a26.172,26.172,0,0,0,3.532,3.327c1.563,1.019,2.356,2.177,1.995,4.011q-4.494-4.533-8.98-9.076Z" transform="translate(-304.906 -130.482)"/>
        <path id="Path_26778" data-name="Path 26778" class="cls-2" d="M316.642,142.563l-.148.436-.832-.705.248-.327Z" transform="translate(-304.906 -130.482)"/>
        <path id="Path_26779" data-name="Path 26779" class="cls-2" d="M317.879,145.193l.279.353Z" transform="translate(-304.906 -130.482)"/>
        <path id="Path_26780" data-name="Path 26780" class="cls-2" d="M318.345,145.968l.331.435Z" transform="translate(-304.906 -130.482)"/>
        <path id="Path_26781" data-name="Path 26781" class="cls-2" d="M317.474,144.658c.118.157.235.309.348.466Z" transform="translate(-304.906 -130.482)"/>
        <path id="Path_26782" data-name="Path 26782" class="cls-2" d="M317.039,143.869l.3.383Z" transform="translate(-304.906 -130.482)"/>
        <path id="Path_26783" data-name="Path 26783" class="cls-2" d="M319.216,147.284l.309.435Z" transform="translate(-304.906 -130.482)"/>
        <path id="Path_26784" data-name="Path 26784" class="cls-2" d="M320.048,148.629l.309.383Z" transform="translate(-304.906 -130.482)"/>
        <path id="Path_26785" data-name="Path 26785" class="cls-22" d="M357.923,162.9l-1.1-.322,2.979-.057a1.158,1.158,0,0,1,0,.3Z" transform="translate(-304.906 -130.482)"/>
        <path id="Path_26786" data-name="Path 26786" class="cls-30" d="M351.247,148.316l4.329-3.715.118.518-1.346,2.177-1.829,3-1.69,2.482-.788.6c-.919-.331-2.36.7-2.735-1.045a1.383,1.383,0,0,1,0-.3l2.835-2.735Z" transform="translate(-304.906 -130.482)"/>
        <path id="Path_26787" data-name="Path 26787" class="cls-31" d="M359.8,162.517l-2.979.057-9.067.057-10.365-.165v-.9c1.55-.871,2.413-2.042,1.742-3.919l1.742-.435h.392l6.1,1.629,8.605,2.121c1.333.361,2.665.723,3.993,1.093a.187.187,0,0,1,.083.148A2.019,2.019,0,0,1,359.8,162.517Z" transform="translate(-304.906 -130.482)"/>
        <path id="Path_26788" data-name="Path 26788" class="cls-12" d="M355.932,160.98l-8.605-2.121a12.077,12.077,0,0,1-1.637-1.812,6.969,6.969,0,0,1-.514-1.921l4.2-.118c2.535.183,4.072,1.825,5.4,3.728a19.5,19.5,0,0,1,1.163,2.243Z" transform="translate(-304.906 -130.482)"/>
        <path id="Path_26789" data-name="Path 26789" class="cls-28" d="M349.374,155.009l-4.2.113-.793-.1-.061-.832c.087-1.141.17-2.282.257-3.423.1,1.032.187,2.069.287,3.2l2.439-1.646c.375,1.742,1.816.714,2.735,1.045Z" transform="translate(-304.906 -130.482)"/>
        <path id="Path_26790" data-name="Path 26790" class="cls-25" d="M344.588,174.075c.057-1.163.118-2.321.179-3.484a11.491,11.491,0,0,1,1.694,1.154c2.522,2.456,4.986,4.973,7.508,7.434a8.709,8.709,0,0,0,1.555.984l1.306,1.328c-.309.17-.758.566-.9.475q-5.557-3.484-11.048-7.112C344.705,174.733,344.684,174.341,344.588,174.075Z" transform="translate(-304.906 -130.482)"/>
        <path id="Path_26791" data-name="Path 26791" class="cls-14" d="M335.02,142.619l-.183.414Z" transform="translate(-304.906 -130.482)"/>
        <path id="Path_26792" data-name="Path 26792" class="cls-15" d="M317.474,161.5l-.5-.331Z" transform="translate(-304.906 -130.482)"/>
        <path id="Path_26793" data-name="Path 26793" class="cls-19" d="M319.9,160.322l-.7.318Z" transform="translate(-304.906 -130.482)"/>
        <path id="Path_26794" data-name="Path 26794" class="cls-7" d="M329.093,174.872c.061-.827.118-1.655.179-2.482l3.353,1.716.871,1.285h0l.435,1.742h0l.435,1.772a.757.757,0,0,1,.03.314l.409,1.851a1.1,1.1,0,0,1,.03.314l-.044,1.381c-.832-1.141-1.668-2.282-2.5-3.427C331.21,177.846,330.156,176.374,329.093,174.872Z" transform="translate(-304.906 -130.482)"/>
        <path id="Path_26795" data-name="Path 26795" class="cls-4" d="M336.052,186.678c-.292-1.154-.579-2.312-.871-3.484l.078-.057.871,3.449Z" transform="translate(-304.906 -130.482)"/>
        <path id="Path_26796" data-name="Path 26796" class="cls-4" d="M334.772,182.754c0-.462.026-.923.044-1.381l.436,1.781-.078.057Z" transform="translate(-304.906 -130.482)"/>
        <path id="Path_26797" data-name="Path 26797" class="cls-4" d="M336.475,186.674l-.388.435c0-.148-.026-.3-.035-.435l.074-.074a3.083,3.083,0,0,1,.348.074Z" transform="translate(-304.906 -130.482)"/>
        <path id="Path_26798" data-name="Path 26798" class="cls-17" d="M332.625,174.106l-3.353-1.716-.131-2.234-2.613-.54c-.435-.753-.871-1.524-1.363-2.247-.361-.531-.814-1-1.228-1.5l4.355.845,3.841.932.483,5.526Z" transform="translate(-304.906 -130.482)"/>
        <path id="Path_26799" data-name="Path 26799" class="cls-29" d="M326.545,169.616l2.613.54c-1.777,1.694-3.549,3.4-5.339,5.073a15,15,0,0,1-1.463,1.145,17.738,17.738,0,0,0,1.742-3.214c.248-.749,1.7-1.842-.17-2.53.022-.27.044-.536.061-.806Z" transform="translate(-304.906 -130.482)"/>
        <path id="Path_26800" data-name="Path 26800" class="cls-29" d="M322.234,176.705l-.213-.27.34-.065a.213.213,0,0,1-.126.335Z" transform="translate(-304.906 -130.482)"/>
        <path id="Path_26801" data-name="Path 26801" class="cls-28" d="M332.647,173.174l-.483-5.509,1.2-.932.157.435c.706,3.323,1.394,6.646,2.151,9.955.087.366.6.636.91.949l.266.353v1.354q-.044,3.41-.087,6.829a1.887,1.887,0,0,0-.3.091,3.077,3.077,0,0,0-.348-.07l-.871-3.449L334.8,181.4a1.1,1.1,0,0,0-.031-.314c-.135-.618-.274-1.232-.409-1.851a.759.759,0,0,0-.03-.314c-.139-.592-.283-1.185-.435-1.772h0c-.144-.584-.283-1.163-.436-1.742h0Z" transform="translate(-304.906 -130.482)"/>
        <path id="Path_26802" data-name="Path 26802" class="cls-15" d="M326.545,169.616l-2.539.226c-.679-2.247-2.8-3.048-4.385-4.4a5.126,5.126,0,0,1-.819-1.215l.435-.07a1.944,1.944,0,0,1,.357.03l1.363.383.788.091,2.208,1.224a15.141,15.141,0,0,1,1.228,1.5C325.674,168.1,326.1,168.862,326.545,169.616Z" transform="translate(-304.906 -130.482)"/>
        <path id="Path_26803" data-name="Path 26803" class="cls-25" d="M321.746,164.647l-.788-.091-1.363-.383a1.946,1.946,0,0,0-.357-.03l-5.291-1.742,5.278-.157h5.182l1.716.157c.81.436,1.611.871,2.439,1.306,1.507.745,3.027,1.463,4.542,2.177l.257.81-1.2.971-3.841-.932Z" transform="translate(-304.906 -130.482)"/>
        <path id="Path_26804" data-name="Path 26804" class="cls-29" d="M326.123,162.413l-1.716-.157c.235-.37.409-1,.714-1.067,2.177-.527,4.412-.941,6.619-1.389l.941.575-3.048.941.083.409,5.849-.592.144.026h.144l.24.379-.057.758c-.131.03-.261.07-.392.113h-9.52Z" transform="translate(-304.906 -130.482)"/>
        <path id="Path_26805" data-name="Path 26805" class="cls-32" d="M335.564,161.132l-5.84.575-.083-.409,3.048-.941-.941-.575c.165-.623.327-1.245.492-1.873l.375.07.388.331Z" transform="translate(-304.906 -130.482)"/>
        <path id="Path_26806" data-name="Path 26806" class="cls-32" d="M340.66,165.883l.174.435c-.727,2.613-1.389,5.226-2.208,7.817-.314.993.148,2.661-1.781,2.587l.039-1.742c1.742-1.42,1.742-3.854.061-4.769V164.15l1.537-.026Z" transform="translate(-304.906 -130.482)"/>
        <path id="Path_26807" data-name="Path 26807" class="cls-21" d="M336.884,174.981l-.039,1.742c-.087.435-.174.871-.266,1.306-.314-.314-.823-.584-.91-.949-.758-3.31-1.446-6.633-2.156-9.955.287.348.719.653.832,1.05.47,1.7.793,3.449,1.306,5.143.139.475.71.819,1.084,1.219Z" transform="translate(-304.906 -130.482)"/>
        <path id="Path_26808" data-name="Path 26808" class="cls-32" d="M336.867,179.754V178.4l.9.666Z" transform="translate(-304.906 -130.482)"/>
        <path id="Path_26809" data-name="Path 26809" class="cls-22" d="M340.66,165.883l-2.177-1.742-1.093-1.659,10.365.165c-.074.261-.078.706-.231.762C345.25,164.255,342.955,165.052,340.66,165.883Z" transform="translate(-304.906 -130.482)"/>
        <path id="Path_26810" data-name="Path 26810" class="cls-27" d="M340.843,157.243l-1.742.436-1.742-3.048V153.8l.435-.457-.906-1.742q-.152-1.964-.3-3.919v-9.921c.1-.653.213-1.306.322-1.968l.531,4.433c.287,3.771.353,7.573.954,11.288C338.713,153.524,338.643,155.95,340.843,157.243Z" transform="translate(-304.906 -130.482)"/>
        <path id="Path_26811" data-name="Path 26811" class="cls-22" d="M335.564,161.132,333,158.31l1.742-3.275v-.871c.139-.435.283-.871.435-1.306l.052-2.552c.279.549.78,1.089.806,1.655.1,2.134,0,4.277.07,6.41a7.159,7.159,0,0,0,.605,1.846l.192.436a1.964,1.964,0,0,0-.091.383l-.292.07-.675.039H335.7Z" transform="translate(-304.906 -130.482)"/>
        <path id="Path_26812" data-name="Path 26812" class="cls-30" d="M336.719,160.261a7.162,7.162,0,0,1-.605-1.846c-.074-2.134.026-4.277-.07-6.41-.026-.566-.527-1.106-.806-1.655l1.363-2.657q.157,1.96.3,3.919l-.039,3.048Q336.8,157.448,336.719,160.261Z" transform="translate(-304.906 -130.482)"/>
        <path id="Path_26813" data-name="Path 26813" class="cls-30" d="M334.746,155.035,333,158.31l-.388-.331Z" transform="translate(-304.906 -130.482)"/>
        <path id="Path_26814" data-name="Path 26814" class="cls-30" d="M335.186,152.888c-.139.435-.283.871-.436,1.306C334.894,153.764,335.046,153.328,335.186,152.888Z" transform="translate(-304.906 -130.482)"/>
        <path id="Path_26815" data-name="Path 26815" class="cls-23" d="M340.843,157.243c-2.177-1.306-2.13-3.719-2.452-5.709-.6-3.715-.666-7.517-.954-11.288l1.62,3.989q.483,2.391.962,4.79l1.215,8.187C341.1,157.213,340.991,157.235,340.843,157.243Z" transform="translate(-304.906 -130.482)"/>
        <path id="Path_26816" data-name="Path 26816" class="cls-12" d="M340.02,149.012q-.483-2.391-.962-4.79a9.206,9.206,0,0,1,5.683,5.57c-.091.165-.187.327-.279.488-.287.584-.57,1.167-.618,1.259Z" transform="translate(-304.906 -130.482)"/>
        <path id="Path_26817" data-name="Path 26817" class="cls-8" d="M340.02,149.012l3.824,2.539c.048-.091.331-.675.618-1.259l.118.47c-.087,1.141-.17,2.282-.257,3.423l-.679.57.74.261.793.1a6.958,6.958,0,0,0,.514,1.925,12.078,12.078,0,0,0,1.637,1.812l-6.1-1.629Z" transform="translate(-304.906 -130.482)"/>
        <path id="Path_26818" data-name="Path 26818" class="cls-32" d="M350.136,149.283l-2.835,2.735c-.483-1.507.745-3.667,2.147-3.654C349.7,148.364,349.905,148.96,350.136,149.283Z" transform="translate(-304.906 -130.482)"/>
        <path id="Path_26819" data-name="Path 26819" class="cls-32" d="M336.719,160.261q.07-2.8.148-5.6l.518-.035,1.742,3.048c.679,1.86-.183,3.048-1.742,3.919l-.466-.893Z" transform="translate(-304.906 -130.482)"/>
        <path id="Path_26820" data-name="Path 26820" class="cls-29" d="M336.91,160.671l.466.9v.9q.549.827,1.093,1.659l-1.537.026-.1-.827-.026-2.269a1.965,1.965,0,0,1,.1-.388Z" transform="translate(-304.906 -130.482)"/>
        <path id="Path_26821" data-name="Path 26821" class="cls-12" d="M344.383,155.035l-.74-.261.679-.57C344.34,154.461,344.361,154.739,344.383,155.035Z" transform="translate(-304.906 -130.482)"/>
        <path id="Path_26822" data-name="Path 26822" class="cls-4" d="M332.647,173.174l.871,2.217-.871-1.285C332.629,173.792,332.638,173.483,332.647,173.174Z" transform="translate(-304.906 -130.482)"/>
        <path id="Path_26823" data-name="Path 26823" class="cls-4" d="M333.5,175.382c.144.584.283,1.163.435,1.742C333.788,176.544,333.644,175.965,333.5,175.382Z" transform="translate(-304.906 -130.482)"/>
        <path id="Path_26824" data-name="Path 26824" class="cls-4" d="M333.923,177.124c.139.588.283,1.18.436,1.772C334.206,178.3,334.062,177.711,333.923,177.124Z" transform="translate(-304.906 -130.482)"/>
        <path id="Path_26825" data-name="Path 26825" class="cls-4" d="M334.376,179.21c.135.618.274,1.232.409,1.851C334.65,180.446,334.511,179.828,334.376,179.21Z" transform="translate(-304.906 -130.482)"/>
        <path id="Path_26826" data-name="Path 26826" class="cls-4" d="M321.746,164.647l6.576,2.069-4.355-.845Z" transform="translate(-304.906 -130.482)"/>
        <path id="Path_26827" data-name="Path 26827" class="cls-22" d="M336.845,163.31l.1.827V170.2q-.1,2.169-.218,4.355c-.375-.4-.945-.745-1.084-1.219-.505-1.694-.827-3.44-1.306-5.143-.113-.4-.544-.7-.832-1.05-.048-.139-.1-.283-.152-.436-.087-.27-.17-.54-.257-.81l2.987-3.027.379-.065Z" transform="translate(-304.906 -130.482)"/>
        <path id="Path_26828" data-name="Path 26828" class="cls-4" d="M319.595,164.181l1.363.383Z" transform="translate(-304.906 -130.482)"/>
        <path id="Path_26829" data-name="Path 26829" class="cls-21" d="M336.091,162.874l-2.987,3.048c-1.516-.732-3.048-1.45-4.542-2.177-.827-.409-1.629-.871-2.439-1.306h9.52Z" transform="translate(-304.906 -130.482)"/>
        <path id="Path_26830" data-name="Path 26830" class="cls-25" d="M334.776,162.413Z" transform="translate(-304.906 -130.482)"/>
        <path id="Path_26831" data-name="Path 26831" class="cls-24" d="M336.845,163.31l-.375-.51-.435-.514.057-.758.435-.435.292-.07Z" transform="translate(-304.906 -130.482)"/>
        <path id="Path_26832" data-name="Path 26832" class="cls-25" d="M336.035,162.3l.435.514-.379.065-.435-.466A2.784,2.784,0,0,1,336.035,162.3Z" transform="translate(-304.906 -130.482)"/>
        <path id="Path_26833" data-name="Path 26833" class="cls-30" d="M336.527,161.132l-.435.436-.24-.379Z" transform="translate(-304.906 -130.482)"/>
        <path id="Path_26834" data-name="Path 26834" class="cls-29" d="M336.727,174.554q.111-2.169.218-4.355c1.694.915,1.664,3.349-.061,4.769Z" transform="translate(-304.906 -130.482)"/>
        <path id="Path_26835" data-name="Path 26835" class="cls-29" d="M337.385,154.6l-.518.035.039-3.048.906,1.742-.435.457Z" transform="translate(-304.906 -130.482)"/>
        <path id="Path_26836" data-name="Path 26836" class="cls-32" d="M337.376,153.79l.435-.457Z" transform="translate(-304.906 -130.482)"/>
      </g>
    </g>
  </g>
</svg>
