<svg xmlns="http://www.w3.org/2000/svg" xmlns:xlink="http://www.w3.org/1999/xlink" width="64" height="64" viewBox="0 0 64 64">
  <defs>
    <style>
      .cls-1 {
        fill: #fff;
      }

      .cls-2 {
        fill: #21b9a2;
      }

      .cls-3 {
        clip-path: url(#clip-path);
      }

      .cls-4 {
        fill: #00b698;
      }

      .cls-5 {
        fill: #67c5ae;
      }

      .cls-6 {
        fill: #42beaf;
      }

      .cls-7 {
        fill: #00b79d;
      }

      .cls-8 {
        fill: #2fbba7;
      }

      .cls-9 {
        fill: #22b9a3;
      }

      .cls-10 {
        fill: #3dbdad;
      }

      .cls-11 {
        fill: #35bcab;
      }

      .cls-12 {
        fill: #22b39f;
      }

      .cls-13 {
        fill: #3abdac;
      }

      .cls-14 {
        fill: #000b07;
      }

      .cls-15 {
        fill: #31baaa;
      }

      .cls-16 {
        fill: #33bbb3;
      }

      .cls-17 {
        fill: #00b69c;
      }

      .cls-18 {
        fill: #35bfc0;
      }

      .cls-19 {
        fill: #2cbcb3;
      }

      .cls-20 {
        fill: #2bbba8;
      }
    </style>
    <clipPath id="clip-path">
      <circle id="Ellipse_2170" data-name="Ellipse 2170" class="cls-1" cx="32" cy="32" r="32" transform="translate(-21963 -23193)"/>
    </clipPath>
  </defs>
  <g id="Group_1025" data-name="Group 1025" transform="translate(21943 23110)">
    <circle id="Ellipse_2173" data-name="Ellipse 2173" class="cls-2" cx="32" cy="32" r="32" transform="translate(-21943 -23110)"/>
    <g id="Mask_Group_346" data-name="Mask Group 346" class="cls-3" transform="translate(20 83)">
      <g id="vRcvMC.tif" transform="translate(-21962.885 -23192.988)">
        <path id="Path_26837" data-name="Path 26837" class="cls-4" d="M323.18,196.135l-1.372.64h-8.228a14.568,14.568,0,0,0-1.921-.745c-13.434-3.149-21.727-11.46-25.025-24.829a20.442,20.442,0,0,0-.771-2.13v-8.647c.658-2.126,1.307-4.264,1.982-6.377a22.347,22.347,0,0,1,1.037-2.287,11.821,11.821,0,0,1,2.1,1.651c3.611,4.487,7.057,9.117,10.79,13.5,1.2,1.407,1.564,2.291.131,3.533-.3.287-.54.714-.893.849-2.178.823-3.088,2.3-2.614,4.6a2.087,2.087,0,0,1,0,.871c-.436,1.969.636,2.884,2.217,3.768,4.095,2.3,8.1,4.757,12.136,7.152l-.166.331.592.091h-.026l.937.4h0c.562.462,1.124,1.307,1.686,1.307C320.161,189.762,321.777,192.8,323.18,196.135Z" transform="translate(-285.863 -132.786)"/>
        <path id="Path_26838" data-name="Path 26838" class="cls-5" d="M285.863,163.021Z" transform="translate(-285.863 -132.786)"/>
        <path id="Path_26839" data-name="Path 26839" class="cls-6" d="M324.835,133.675c12.889,2.5,23.583,14.248,24.707,27.251.2,2.269,0,4.569,0,6.856a7.7,7.7,0,0,1-1.869-1.307c-2.648-3.363-5.184-6.813-7.841-10.171a6.25,6.25,0,0,0-1.925-1.089c.209-3.258.139-6.355-4.051-7.113.436-.662,1.15-1.141.213-2.117A62.729,62.729,0,0,1,328.943,140C327.436,138,326.19,135.792,324.835,133.675Z" transform="translate(-285.863 -132.786)"/>
        <path id="Path_26840" data-name="Path 26840" class="cls-7" d="M301.906,170.443c1.433-1.241,1.067-2.126-.131-3.533-3.733-4.382-7.179-9.012-10.79-13.5a11.821,11.821,0,0,0-2.1-1.651l5.946-8.93c4.892,6.312,9.753,12.632,14.693,18.909,1.211,1.533,1.969,2.9.24,4.5Z" transform="translate(-285.863 -132.786)"/>
        <path id="Path_26841" data-name="Path 26841" class="cls-8" d="M345.378,180.837l-4.687,6.1a5.376,5.376,0,0,1-1.2-.871c-4.6-5.924-9.147-11.887-13.791-17.79-1.329-1.69-2.879-3.21-4.325-4.792V151.77l4.6,4.173-1.024,1.6-.1-.048.109.031-.932.823v5.946l4.97-2.64c.623.227,1.494.27,1.838.719,2.875,3.733,5.593,7.588,8.485,11.325C341.231,176.15,343.348,178.458,345.378,180.837Z" transform="translate(-285.863 -132.786)"/>
        <path id="Path_26842" data-name="Path 26842" class="cls-2" d="M309.759,166.236c1.742-1.6.971-2.962-.24-4.5-4.94-6.268-9.8-12.6-14.693-18.909l6.1-4.948a10.49,10.49,0,0,1,2.143,1.62c3.245,4.173,6.39,8.42,9.631,12.593.37.479,1.133.653,1.716.967q0,5.192.035,10.38l-.026,3.485h-2.566l-.24-1.551Z" transform="translate(-285.863 -132.786)"/>
        <path id="Path_26843" data-name="Path 26843" class="cls-9" d="M321.377,163.452c1.446,1.6,3,3.119,4.325,4.792,4.635,5.9,9.187,11.866,13.791,17.79a5.377,5.377,0,0,0,1.2.871l-6.9,5.279c-2.422-2.979-4.792-5.994-7.287-8.917-1.625-1.912-3.411-3.689-5.123-5.532V170.8Q321.377,167.133,321.377,163.452Z" transform="translate(-285.863 -132.786)"/>
        <path id="Path_26844" data-name="Path 26844" class="cls-7" d="M321.377,177.722c1.712,1.843,3.485,3.62,5.123,5.532,2.487,2.923,4.866,5.937,7.287,8.917a23.416,23.416,0,0,1-10.607,3.951c-1.4-3.337-3.019-6.373-7.379-6.351-.562,0-1.124-.871-1.686-1.307l6.4.706V186.12q.026-19.349.061-38.694l.514-.366a.292.292,0,0,1,.2.113,16.119,16.119,0,0,0-.34,2.3v38.99h.436Z" transform="translate(-285.863 -132.786)"/>
        <path id="Path_26845" data-name="Path 26845" class="cls-10" d="M324.835,133.675c1.355,2.117,2.614,4.321,4.1,6.334A62.729,62.729,0,0,0,334.065,146c.937.976.222,1.455-.213,2.117l-1.742-1.072-1.329-.784.113-.03-.109.044-1.189-.627-9.108-5.227-5.179.052-.052.026h-.832a12.4,12.4,0,0,1-1.742-1.372c-1.385-1.564-2.7-3.2-4.038-4.792a27.8,27.8,0,0,1,16.191-.658Z" transform="translate(-285.863 -132.786)"/>
        <path id="Path_26846" data-name="Path 26846" class="cls-11" d="M345.378,180.837c-2.03-2.378-4.147-4.687-6.063-7.157-2.892-3.72-5.61-7.575-8.485-11.325-.344-.436-1.215-.492-1.838-.719l6.612-3.568a19.128,19.128,0,0,0,1.816,4.212c3.358,4.5,6.9,8.869,10.376,13.286Z" transform="translate(-285.863 -132.786)"/>
        <path id="Path_26847" data-name="Path 26847" class="cls-12" d="M308.657,134.341c1.342,1.607,2.653,3.241,4.038,4.792a12.4,12.4,0,0,0,1.742,1.372V153.05c-.584-.314-1.346-.488-1.716-.967-3.241-4.173-6.386-8.42-9.631-12.593a10.49,10.49,0,0,0-2.143-1.62Z" transform="translate(-285.863 -132.786)"/>
        <path id="Path_26848" data-name="Path 26848" class="cls-13" d="M347.8,175.583c-3.485-4.417-7.017-8.786-10.376-13.286a20.217,20.217,0,0,1-1.816-4.212c1.08-.7,2.474-1.15,2.3-2.857.653.357,1.5.553,1.925,1.089,2.657,3.358,5.192,6.808,7.841,10.171a7.808,7.808,0,0,0,1.869,1.307Q348.671,171.685,347.8,175.583Z" transform="translate(-285.863 -132.786)"/>
        <path id="Path_26849" data-name="Path 26849" class="cls-14" d="M337.9,155.228c.174,1.708-1.22,2.156-2.3,2.857l-6.612,3.568-4.97,2.64v-5.946l.932-.823-.109-.03.1.048,6.939-4.086-9.23-5.515-1.359-.758a.314.314,0,0,0-.2-.113l-.514.366q-.035,19.345-.061,38.694v3.049l-6.4-.706h0l-.937-.4h.026l-.436-.436c-4.038-2.4-8.041-4.857-12.136-7.152-1.581-.871-2.666-1.8-2.217-3.768a2.087,2.087,0,0,0,0-.871c-.483-2.3.436-3.777,2.614-4.6.353-.135.6-.562.893-.849l7.841-4.208,1.864-.871c.087.579.166,1.063.24,1.551a7.892,7.892,0,0,0-.078,1.716c.37,2.1-.54,3.263-2.439,4.121a66.732,66.732,0,0,0-5.8,3.345l11.325,6.32a13.366,13.366,0,0,0,.3-1.969q.057-19.968.083-39.927l.052-.026,5.179-.052,9.108,5.227,1.189.627.109-.044-.113.031,1.329.784,1.742,1.072C338.042,148.873,338.112,151.97,337.9,155.228Z" transform="translate(-285.863 -132.786)"/>
        <path id="Path_26850" data-name="Path 26850" class="cls-7" d="M312.756,187.667l.436.436-.592-.091Z" transform="translate(-285.863 -132.786)"/>
        <path id="Path_26851" data-name="Path 26851" class="cls-7" d="M313.161,188.072l.937.4Z" transform="translate(-285.863 -132.786)"/>
        <path id="Path_26852" data-name="Path 26852" class="cls-15" d="M322.653,147.941l9.23,5.515-6.93,4.086,1.032-1.607-4.6-4.164a11.488,11.488,0,0,0-.026-2.087C321.146,148.564,321.729,148.154,322.653,147.941Z" transform="translate(-285.863 -132.786)"/>
        <path id="Path_26853" data-name="Path 26853" class="cls-16" d="M322.653,147.941c-.923.213-1.507.623-1.307,1.742a11.488,11.488,0,0,1,.026,2.087V170.8h-.409c0-7.109-.026-14.213,0-21.318a16.128,16.128,0,0,1,.34-2.3Z" transform="translate(-285.863 -132.786)"/>
        <path id="Path_26854" data-name="Path 26854" class="cls-15" d="M324.953,157.524l-.932.823Z" transform="translate(-285.863 -132.786)"/>
        <path id="Path_26855" data-name="Path 26855" class="cls-17" d="M314.891,182.409l-11.325-6.32a65.933,65.933,0,0,1,5.8-3.345c1.912-.862,2.81-2.021,2.439-4.121a7.892,7.892,0,0,1,.078-1.716h2.566v14.274Z" transform="translate(-285.863 -132.786)"/>
        <path id="Path_26856" data-name="Path 26856" class="cls-18" d="M314.42,153.063V140.518h.4q0,11.447-.044,22.9a2.664,2.664,0,0,1-.322,0Q314.442,158.255,314.42,153.063Z" transform="translate(-285.863 -132.786)"/>
        <path id="Path_26857" data-name="Path 26857" class="cls-19" d="M314.455,163.443a2.669,2.669,0,0,0,.322,0c.022,5.532.052,11.064.048,16.6a4.128,4.128,0,0,1-.379,1.172V166.937Z" transform="translate(-285.863 -132.786)"/>
        <path id="Path_26858" data-name="Path 26858" class="cls-20" d="M320.958,170.8h.409v17.668h-.436Z" transform="translate(-285.863 -132.786)"/>
        <path id="Path_26859" data-name="Path 26859" class="cls-16" d="M320.6,147.435l.514-.366Z" transform="translate(-285.863 -132.786)"/>
        <path id="Path_26860" data-name="Path 26860" class="cls-12" d="M314.446,181.207a4.129,4.129,0,0,0,.379-1.172c0-5.532-.026-11.064-.048-16.6q0-11.447.044-22.9h.436q-.031,19.959-.083,39.926a13.37,13.37,0,0,1-.3,1.969Z" transform="translate(-285.863 -132.786)"/>
        <path id="Path_26861" data-name="Path 26861" class="cls-12" d="M320.505,140.435l-5.179.052Z" transform="translate(-285.863 -132.786)"/>
        <path id="Path_26862" data-name="Path 26862" class="cls-6" d="M332.127,147.043l-1.329-.784Z" transform="translate(-285.863 -132.786)"/>
        <path id="Path_26863" data-name="Path 26863" class="cls-6" d="M330.8,146.272l-1.189-.627Z" transform="translate(-285.863 -132.786)"/>
      </g>
    </g>
  </g>
</svg>
