<?xml version="1.0" encoding="utf-8"?>
<!-- Generator: Adobe Illustrator 24.3.0, SVG Export Plug-In . SVG Version: 6.00 Build 0)  -->
<svg version="1.1" id="Layer_1" xmlns="http://www.w3.org/2000/svg" xmlns:xlink="http://www.w3.org/1999/xlink" x="0px" y="0px"
	 viewBox="0 0 35 35" style="enable-background:new 0 0 35 35;" xml:space="preserve">
<style type="text/css">
	.st0{fill:url(#SVGID_1_);}
	.st1{display:none;}
	.st2{display:inline;fill:url(#SVGID_2_);}
	.st3{display:inline;fill:#231F20;}
	.st4{fill:#FFFFFF;stroke:#473980;stroke-width:0.2;stroke-miterlimit:10;}
	.st5{display:inline;}
	.st6{fill:#8247E5;}
	.st7{fill:#FFFFFF;}
</style>
<g transform="translate(-2472 -40)">
	
		<linearGradient id="SVGID_1_" gradientUnits="userSpaceOnUse" x1="4944" y1="18.3898" x2="4979" y2="18.3898" gradientTransform="matrix(1 0 0 -1 -2472 75.8898)">
		<stop  offset="0" style="stop-color:#FF00CD"/>
		<stop  offset="1" style="stop-color:#00FFFF"/>
	</linearGradient>
	<circle class="st0" cx="2489.5" cy="57.5" r="17.5"/>
	<g>
		<g class="st1">
			
				<linearGradient id="SVGID_2_" gradientUnits="userSpaceOnUse" x1="4948.1133" y1="17.3898" x2="4975.7822" y2="17.3898" gradientTransform="matrix(1 0 0 -1 -2472 75.8898)">
				<stop  offset="0" style="stop-color:#B8529E"/>
				<stop  offset="1" style="stop-color:#7ECFDF"/>
			</linearGradient>
			<path class="st2" d="M2489.9,73.8c-0.7,0-1.4-0.2-2.1-0.6c-3-1.7-6.3-3.5-9.5-5.5c-1.4-0.8-2.1-2.1-2.1-3.8c0-3.6,0-7.2,0-10.8
				c0-1.6,0.8-2.9,2.2-3.8c3.2-1.9,6.3-3.7,9.4-5.5c0.7-0.4,1.5-0.6,2.2-0.6s1.5,0.2,2.2,0.6c3.6,2,6.6,3.8,9.4,5.4
				c1.5,0.9,2.2,2.2,2.2,4c0,1.2,0,2.5,0,3.7v1.5v0.1v5.2c0,1.8-0.8,3.2-2.3,4.1c-3.4,2-6.8,3.9-9.3,5.3
				C2491.4,73.6,2490.7,73.8,2489.9,73.8z"/>
			<path class="st3" d="M2489.9,43.4L2489.9,43.4c0.7,0,1.4,0.2,2.1,0.6c3.6,2,6.6,3.8,9.4,5.4c1.4,0.8,2.2,2.1,2.2,3.9
				c0,1.2,0,2.4,0,3.7v1.4l0,0v0.2v1.6v3.6c0,1.8-0.7,3.1-2.2,4c-3.3,1.9-6.6,3.8-9.3,5.3c-0.7,0.4-1.5,0.6-2.2,0.6
				s-1.4-0.2-2.1-0.6c-3-1.7-6.3-3.5-9.5-5.5c-1.4-0.8-2.1-2.1-2.1-3.7c0-3.3,0-6.8,0-10.8c0-1.6,0.7-2.9,2.1-3.7
				c3.2-1.9,6.3-3.7,9.4-5.5C2488.5,43.6,2489.2,43.4,2489.9,43.4 M2489.9,43.1c-0.8,0-1.5,0.2-2.3,0.6c-3.1,1.8-6.3,3.6-9.4,5.5
				c-1.5,0.9-2.2,2.2-2.3,3.9c0,3.6,0,7.2,0,10.8c0,1.7,0.7,3.1,2.2,3.9c3.1,1.9,6.3,3.7,9.5,5.5c0.7,0.4,1.5,0.6,2.2,0.6
				c0.8,0,1.6-0.2,2.3-0.6c3.1-1.8,6.2-3.5,9.3-5.3c1.6-0.9,2.3-2.4,2.3-4.2c0-1.7,0-3.4,0-5.2l0,0c0-1.8,0-3.5,0-5.3
				s-0.8-3.2-2.3-4.1c-3.1-1.8-6.3-3.6-9.4-5.4C2491.4,43.3,2490.7,43.1,2489.9,43.1L2489.9,43.1z"/>
		</g>
		<path class="st4" d="M2491.1,56c0-1.7,0-3.3,0-4.8c0-0.9-0.3-1.6-1.2-1.6s-1.2,0.7-1.2,1.5c0,1.6,0,3.1,0,4.9
			c-1.5-0.8-2.8-1.6-4.1-2.4c-0.7-0.4-1.4-0.6-1.9,0.2s0,1.4,0.7,1.8c1.2,0.7,2.3,1.4,3.5,2c0.7,0.4,0.6,0.6,0,0.9
			c-2.6,1.5-5.1,2.9-7.7,4.4c-0.4,0.2-0.7,0.4-0.7-0.4c0-3.3,0-6.5,0-9.8c0-1,0.5-1.7,1.3-2.2c3-1.7,5.9-3.3,8.9-5
			c0.9-0.5,1.8-0.5,2.7,0c2.9,1.7,5.8,3.4,8.7,5.1c0.9,0.5,1.3,1.3,1.3,2.3c0,3.4,0,6.8,0,10.2c0,1-0.4,1.7-1.3,2.2
			c-2.9,1.7-5.8,3.4-8.7,5.1c-1,0.6-1.9,0.5-2.9,0c-2.6-1.6-5.3-3.1-8-4.6c-0.8-0.5-0.6-0.7,0-1c2.4-1.4,4.8-2.8,7.2-4.2
			c0.8-0.5,1.1-0.4,1,0.6c-0.1,1.1,0,2.1,0,3.2c0,0.3,0,0.7,0.1,1c0.1,0.6,0.5,1.1,1.1,1.1c0.7,0,1.1-0.5,1.1-1.2
			c0-1.4,0.1-2.7,0-4.1c0-0.8,0.1-1.1,0.9-0.6c1.2,0.7,2.4,1.3,3.5,2c0.7,0.4,1.3,0.3,1.7-0.4c0.5-0.7,0.1-1.3-0.5-1.6
			c-1.2-0.7-2.4-1.4-3.6-2.1c-0.7-0.4-0.6-0.7,0-1c1.1-0.7,2.3-1.3,3.4-1.9c0.7-0.4,1.2-0.9,0.7-1.8c-0.5-0.8-1.2-0.7-1.9-0.3
			C2494,54.3,2492.7,55.1,2491.1,56z"/>
	</g>
</g>
<g class="st1">
	<g class="st5">
		<path class="st6" d="M26,17c5,0,9,4,9,9s-4,9-9,9s-9-4-9-9S21,17,26,17"/>
	</g>
	<g class="st5">
		<path class="st7" d="M29.2,23.9c-0.2-0.1-0.5-0.1-0.8,0L26.6,25l-1.2,0.7l-1.8,1.1c-0.2,0.1-0.5,0.1-0.8,0L21.4,26
			c-0.2-0.1-0.4-0.4-0.4-0.7v-1.6c0-0.3,0.1-0.5,0.4-0.7l1.4-0.8c0.2-0.1,0.5-0.1,0.8,0L25,23c0.2,0.1,0.4,0.4,0.4,0.7v1.1l1.2-0.7
			V23c0-0.3-0.1-0.5-0.4-0.7l-2.6-1.5c-0.2-0.1-0.5-0.1-0.8,0l-2.7,1.6c-0.3,0.1-0.4,0.4-0.4,0.7v3.1c0,0.3,0.1,0.5,0.4,0.7l2.6,1.5
			c0.2,0.1,0.5,0.1,0.8,0l1.8-1l1.2-0.7l1.8-1c0.2-0.1,0.5-0.1,0.8,0l1.4,0.8c0.2,0.1,0.4,0.4,0.4,0.7v1.6c0,0.3-0.1,0.5-0.4,0.7
			l-1.4,0.8c-0.2,0.1-0.5,0.1-0.8,0L27,29.1c-0.2-0.1-0.4-0.4-0.4-0.7v-1l-1.2,0.7v1.1c0,0.3,0.1,0.5,0.4,0.7l2.6,1.5
			c0.2,0.1,0.5,0.1,0.8,0l2.6-1.5c0.2-0.1,0.4-0.4,0.4-0.7v-3.1c0-0.3-0.1-0.5-0.4-0.7L29.2,23.9z"/>
	</g>
</g>
<image style="display:none;overflow:visible;" width="65" height="65" xlink:href="../../../../../../../coinlogo.png"  transform="matrix(0.4741 0 0 0.4741 -32.1936 5.6774)">
</image>
</svg>
