<svg xmlns="http://www.w3.org/2000/svg" width="64" height="64" viewBox="0 0 64 64">
  <defs>
    <style>
      .cls-1 {
        fill: #fff;
      }

      .cls-2 {
        fill: #486cb4;
      }

      .cls-3 {
        fill: #cdd8ef;
      }

      .cls-4 {
        fill: #4e89c7;
      }

      .cls-5 {
        fill: #41bbec;
      }

      .cls-6 {
        fill: #43b9ea;
      }

      .cls-7 {
        fill: #45b5e8;
      }

      .cls-8 {
        fill: #47b0e4;
      }

      .cls-9 {
        fill: #4876ba;
      }

      .cls-10 {
        fill: #47abe0;
      }

      .cls-11 {
        fill: #4a7dc0;
      }

      .cls-12 {
        fill: #4c89c8;
      }

      .cls-13 {
        fill: #4a82c3;
      }

      .cls-14 {
        fill: #4c8ecc;
      }

      .cls-15 {
        fill: #4d93cf;
      }

      .cls-16 {
        fill: #7bc8f0;
      }

      .cls-17 {
        fill: #ccd8ee;
      }

      .cls-18 {
        fill: #4aa2da;
      }

      .cls-19 {
        fill: #4d98d3;
      }

      .cls-20 {
        fill: #4b9dd6;
      }

      .cls-21 {
        fill: #49a7dd;
      }
    </style>
  </defs>
  <g id="Group_1028" data-name="Group 1028" transform="translate(21471 23107)">
    <g id="Group_1027" data-name="Group 1027">
      <g id="Group_1026" data-name="Group 1026" transform="translate(0 86)">
        <g id="Group_879" data-name="Group 879" transform="translate(1154 1720)">
          <circle id="Ellipse_1805" data-name="Ellipse 1805" class="cls-1" cx="32" cy="32" r="32" transform="translate(-22625 -24913)"/>
          <g id="KOM" transform="translate(-22613.188 -24904.48)">
            <path id="Path_17616" data-name="Path 17616" class="cls-2" d="M-596.212,392.015l-2.215,1.3q-1.586.933-3.172,1.871a.975.975,0,0,0-.1.072h-.028a.348.348,0,0,0-.048-.045l-5.516-3.2v-.056l.033-.027a.436.436,0,0,0,.077-.029l1.938-1.121,3.208-1.865a3.737,3.737,0,0,1,.36-.169.351.351,0,0,0,.033.024l3.2,1.885,2.215,1.3Z" transform="translate(607.24 -348.309)"/>
            <path id="Path_17617" data-name="Path 17617" class="cls-3" d="M-607.247,112.375l-.033.027V72.3h.027v39.867C-607.247,112.237-607.247,112.305-607.247,112.375Z" transform="translate(607.231 -68.75)"/>
            <path id="Path_17618" data-name="Path 17618" class="cls-4" d="M-607,85.546V45.475l2.235-1.282,3.182-1.822a1.808,1.808,0,0,1,.178-.083q-.014,3.786-.025,7.577-.008,4.362,0,8.723c0,.1-.012.2-.017.309a.409.409,0,0,0,.069-.023l2.017-1.166,2.8-1.622c.217-.126.428-.26.641-.391l1.756-1.007,9.78-5.657q4.176-2.417,8.355-4.829,1.923-1.109,3.853-2.208c.043-.024.091-.043.136-.065q-.012,3.683-.024,7.364-.007,2.839,0,5.675v3.173a.879.879,0,0,0-.156.052c-.248.135-.5.275-.741.415l-2.18,1.239-1.73.986c-.251.141-.5.276-.757.414q0-.629-.006-1.258V57.978l.007-.027V51.572a.406.406,0,0,0-.072.024l-1.742,1-2.318,1.337c-.861.494-1.728.984-2.589,1.479q-1.692.972-3.381,1.951-1.737,1.007-3.469,2.017-1.4.816-2.8,1.638-1.119.654-2.241,1.3c-.746.436-1.49.875-2.236,1.31-.933.543-1.865,1.082-2.8,1.632a1.283,1.283,0,0,0-.181.16c.008,1.736.021,3.473.024,5.21v8.16c0,1.191.014,2.383.021,3.574-.117.056-.246.1-.36.169q-1.608.933-3.208,1.865-.975.555-1.942,1.117A.438.438,0,0,1-607,85.546Z" transform="translate(606.984 -41.92)"/>
            <path id="Path_17619" data-name="Path 17619" class="cls-2" d="M-559.51,138.422a1.281,1.281,0,0,1,.176-.162c.933-.544,1.865-1.083,2.8-1.632.746-.435,1.49-.874,2.236-1.31s1.495-.867,2.241-1.3q1.4-.816,2.8-1.638,1.733-1.011,3.469-2.017,1.688-.977,3.381-1.951c.862-.5,1.728-.985,2.589-1.479q1.166-.667,2.318-1.337l1.742-1a.409.409,0,0,1,.072-.024v6.378l-.035.019-1.707.976-7.586,4.377-3.283,1.9-.117.071,1.594.907,2.448,1.4a.39.39,0,0,1,.044.031c.019.213.052.428.054.642v4.021c0,.5-.009,1.006.006,1.507a.45.45,0,0,0,.142.324c.321.211.663.389,1,.583l1.315.754,1.426.81c.168.1.335.2.5.291.251.139.5.273.753.409a.679.679,0,0,0,.088.068q.507.292,1.016.583a2.8,2.8,0,0,0,.265.117.7.7,0,0,0,.1.1c.1.063.206.117.311.178.254.141.508.28.762.418.012.014.021.033.036.041l1.049.6,1.146.647,1.174.671,1.282.746.9.507,1.282.731,1.566.9,1.595.916,1.9,1.1c-.307.181-.613.363-.921.54q-.963.556-1.929,1.109L-530,161.365a.2.2,0,0,1-.233,0q-1.5-.853-3.015-1.7c-1.01-.568-2.023-1.131-3.031-1.7-.92-.52-1.833-1.049-2.75-1.571l-5.493-3.122-3.264-1.852-3.514-2q-1.348-.765-2.7-1.524v-6.248a.193.193,0,0,0-.108-.2c-.521-.287-1.038-.583-1.556-.87l-2.019-1.128Z" transform="translate(565.03 -114.926)"/>
            <path id="Path_17620" data-name="Path 17620" class="cls-5" d="M-559.51,243.39l1.851,1.026q1.011.563,2.019,1.128c.519.289,1.035.583,1.556.87a.192.192,0,0,1,.112.195v16.934H-554l-2.215-1.3-3.215-1.873a.327.327,0,0,1-.033-.024c-.007-1.191-.02-2.383-.021-3.574v-8.16Q-559.494,245.991-559.51,243.39Z" transform="translate(565.03 -219.895)"/>
            <path id="Path_17621" data-name="Path 17621" class="cls-5" d="M-307.41,58.142V49.294q.008-3.68.024-7.364c.372.212.744.423,1.115.638,1.416.816,2.832,1.648,4.25,2.467a.214.214,0,0,1,.117.223q0,6.346,0,12.692v3.264a.193.193,0,0,1-.02.023c-.262-.148-.526-.295-.788-.444l-3.416-1.942C-306.559,58.614-306.986,58.375-307.41,58.142Z" transform="translate(342.319 -41.92)"/>
            <path id="Path_17622" data-name="Path 17622" class="cls-5" d="M-553.865,58.389c-.213.131-.424.265-.641.391q-1.4.816-2.8,1.622l-2.017,1.166a.4.4,0,0,1-.069.023c.006-.117.018-.211.018-.309V52.557q0-3.786.024-7.577c.147.077.3.149.44.233l4.914,2.851a.233.233,0,0,1,.127.233Q-553.873,53.344-553.865,58.389Z" transform="translate(564.924 -44.614)"/>
            <path id="Path_17623" data-name="Path 17623" class="cls-4" d="M-355.231,248.229v-3.941a.269.269,0,0,1,.155-.273q2.614-1.532,5.224-3.074c.043-.026.09-.048.135-.071.014,3.5.028,7,.043,10.544l-.824-.466c-.033-.019-.064-.038-.1-.056l-.827-.451c-.012-.014-.02-.033-.035-.041-.293-.167-.583-.335-.881-.5a3.1,3.1,0,0,0-.312-.133c-.021-.028-.036-.068-.064-.083-.379-.217-.759-.429-1.14-.642l-1.174-.671-.2-.117Z" transform="translate(384.567 -217.668)"/>
            <path id="Path_17624" data-name="Path 17624" class="cls-2" d="M-349.558,181c.424.233.851.473,1.275.713l3.416,1.942c.262.149.526.3.788.444a.058.058,0,0,0,.022.012c-.34.2-.68.4-1.022.595l-4.376,2.492a.24.24,0,0,1-.275,0q-2.636-1.505-5.273-3a1.248,1.248,0,0,1-.117-.089c.253-.138.506-.273.757-.414q.867-.492,1.73-.986l2.18-1.239c.246-.14.493-.28.741-.415A.878.878,0,0,1-349.558,181Z" transform="translate(384.467 -164.778)"/>
            <path id="Path_17625" data-name="Path 17625" class="cls-6" d="M-275.028,276.979l-1.9-1.1c-.009-.1-.027-.192-.027-.289V259.173a1.746,1.746,0,0,1,.028-.233l1.516.891c.135.08.323.135.388.255a1.148,1.148,0,0,1,.025.479v16.24A1.239,1.239,0,0,1-275.028,276.979Z" transform="translate(315.419 -233.632)"/>
            <path id="Path_17626" data-name="Path 17626" class="cls-7" d="M-288.814,251.908a1.751,1.751,0,0,0-.028.233v16.421c0,.1.017.192.027.289l-1.595-.916V251.2a1.541,1.541,0,0,1,.03-.217l1.177.7C-289.071,251.751-288.943,251.83-288.814,251.908Z" transform="translate(327.301 -226.6)"/>
            <path id="Path_17627" data-name="Path 17627" class="cls-8" d="M-302.224,243.888a1.545,1.545,0,0,0-.03.217v16.738l-1.566-.9a1.04,1.04,0,0,0,.028-.177V242.95Z" transform="translate(339.147 -219.506)"/>
            <path id="Path_17628" data-name="Path 17628" class="cls-9" d="M-426.771,270.122l-1.32-.754c-.335-.191-.677-.37-1-.583a.45.45,0,0,1-.142-.324c-.015-.5-.006-1-.006-1.507v-4.021c0-.215-.035-.429-.054-.642l1.527.859c.331.187.659.379.989.569Q-426.772,266.919-426.771,270.122Z" transform="translate(449.99 -236.591)"/>
            <path id="Path_17629" data-name="Path 17629" class="cls-10" d="M-313.52,241.111v16.82a1.042,1.042,0,0,1-.028.177l-1.282-.731a1.71,1.71,0,0,0,.026-.219V250.95l.824.466c-.015-3.54-.029-7.042-.043-10.544a.332.332,0,0,1,.117.012C-313.774,240.957-313.648,241.036-313.52,241.111Z" transform="translate(348.874 -217.67)"/>
            <path id="Path_17630" data-name="Path 17630" class="cls-11" d="M-407.68,280.961v-6.4l1.453.824c-.015.03-.041.059-.041.089,0,.073.014.148.014.221v6.077Z" transform="translate(430.9 -247.431)"/>
            <path id="Path_17631" data-name="Path 17631" class="cls-12" d="M-383.3,294.83a2.832,2.832,0,0,1-.265-.117q-.511-.285-1.017-.583a.672.672,0,0,1-.087-.068V287.69c.139.072.279.14.415.217.319.179.637.363.955.544v3.018Q-383.3,293.153-383.3,294.83Z" transform="translate(410.572 -259.03)"/>
            <path id="Path_17632" data-name="Path 17632" class="cls-13" d="M-394.29,282.345v6.373c-.251-.136-.5-.27-.753-.409-.169-.094-.336-.194-.5-.291V281.94c0-.073-.015-.148-.014-.221,0-.029.026-.058.041-.089Z" transform="translate(420.193 -253.677)"/>
            <path id="Path_17633" data-name="Path 17633" class="cls-14" d="M-372.93,300.661V294.29l1.174.669c-.009.117-.026.239-.026.359v5.569c0,.157.016.314.026.466-.254-.139-.508-.277-.762-.418-.1-.057-.21-.117-.311-.178A.7.7,0,0,1-372.93,300.661Z" transform="translate(400.201 -264.861)"/>
            <path id="Path_17634" data-name="Path 17634" class="cls-15" d="M-363.034,306.464c-.009-.157-.026-.314-.026-.466v-5.569c0-.117.016-.24.026-.359l.863.473.03.022.2.117V307.1l-1.049-.6C-363.013,306.5-363.023,306.474-363.034,306.464Z" transform="translate(391.481 -269.967)"/>
            <path id="Path_17635" data-name="Path 17635" class="cls-16" d="M-512.29,416.31h.025l-.021.055Z" transform="translate(523.315 -372.656)"/>
            <path id="Path_17636" data-name="Path 17636" class="cls-17" d="M-355.47,179.369l.035-.019-.007.027Z" transform="translate(384.776 -163.32)"/>
            <path id="Path_17637" data-name="Path 17637" class="cls-16" d="M-260.388,207.415a.058.058,0,0,1-.022-.012l.02-.023C-260.389,207.392-260.389,207.4-260.388,207.415Z" transform="translate(300.798 -188.083)"/>
            <path id="Path_17638" data-name="Path 17638" class="cls-3" d="M-355.41,304.059l-.03-.022a.092.092,0,0,1,.026-.007C-355.413,304.039-355.411,304.05-355.41,304.059Z" transform="translate(384.75 -273.465)"/>
            <path id="Path_17639" data-name="Path 17639" class="cls-18" d="M-333.486,317.23a3.092,3.092,0,0,1,.312.133c.3.162.583.33.881.5.015.008.023.027.035.041v6.427l-1.282-.746v-6.166a.7.7,0,0,1,.054-.185Z" transform="translate(365.403 -285.127)"/>
            <path id="Path_17640" data-name="Path 17640" class="cls-19" d="M-353.48,311.679V305.25l1.174.671v6.213a1.344,1.344,0,0,1-.027.191Z" transform="translate(383.018 -274.543)"/>
            <path id="Path_17641" data-name="Path 17641" class="cls-20" d="M-343.65,317.465a1.334,1.334,0,0,0,.027-.191V311.06c.381.213.761.426,1.14.642.028.015.043.055.064.083a.7.7,0,0,0-.055.185v6.166Z" transform="translate(374.334 -279.676)"/>
            <path id="Path_17642" data-name="Path 17642" class="cls-21" d="M-322.54,329.424V323l.827.451c.033.018.064.037.1.056v6.208a1.729,1.729,0,0,1-.026.219Z" transform="translate(355.685 -290.224)"/>
          </g>
        </g>
      </g>
    </g>
  </g>
</svg>
