<svg xmlns:xlink="http://www.w3.org/1999/xlink" xmlns="http://www.w3.org/2000/svg" width="64" height="64" viewBox="0 0 18 18" fill="none">
<path d="M1 7.4L3.66667 5.8L6.33333 7.4V10.6L3.66667 12.2L1 10.6V7.4Z" fill="white"/>
<path d="M11.6667 7.4L14.3333 5.8L17 7.4V10.6L14.3333 12.2L11.6667 10.6V7.4Z" fill="white"/>
<path d="M9 2.6L11.6667 1L14.3333 2.6V5.8L11.6667 7.4L9 5.8V2.6Z" fill="white"/>
<path d="M3.66667 2.6L6.33333 1L9 2.6V5.8L6.33333 7.4L3.66667 5.8V2.6Z" fill="white"/>
<path d="M6.33333 7.4L9 5.8L11.6667 7.4V10.6L14.3333 12.2V15.4L11.6667 17L9 15.4L6.33333 17L3.66667 15.4V12.2L6.33333 10.6V7.4Z" fill="white"/>
<path d="M3.66667 5.8L1 7.4V10.6L3.66667 12.2M3.66667 5.8L6.33333 7.4M3.66667 5.8V2.6L6.33333 1L9 2.6M3.66667 12.2L6.33333 10.6V7.4M3.66667 12.2V15.4L6.33333 17L9 15.4L11.6667 17L14.3333 15.4V12.2M6.33333 7.4L9 5.8M14.3333 5.8L11.6667 7.4M14.3333 5.8L17 7.4V10.6L14.3333 12.2M14.3333 5.8V2.6L11.6667 1L9 2.6M11.6667 7.4V10.6L14.3333 12.2M11.6667 7.4L9 5.8M9 2.6V5.8" stroke="black"/>
</svg>