<svg version="1.2" baseProfile="tiny-ps" xmlns="http://www.w3.org/2000/svg" viewBox="0 0 2600 2600" width="2600" height="2600">
	<title>the gas station logo</title>
	<style>
		tspan { white-space:pre }
		.shp0 { fill: #fefeff } 
		.shp1 { fill: #42454d } 
		.shp2 { fill: #e13f61 } 
		.shp3 { fill: #ffc437 } 
	</style>
	<g id="Background">
		<path id="Path 1" class="shp1" d="M1261 408.59C1256.33 408.77 1244.85 409.42 1235.5 410.02C1226.15 410.63 1213.78 411.56 1208 412.09C1202.22 412.63 1188.72 414.15 1178 415.48C1167.28 416.81 1154.45 418.58 1149.5 419.4C1144.55 420.23 1133.97 422.05 1126 423.46C1118.03 424.87 1109.7 426.46 1107.5 427C1105.3 427.53 1099.45 428.89 1094.5 430.02C1089.55 431.15 1082.58 432.74 1079 433.56C1075.42 434.38 1069.8 435.75 1066.5 436.61C1063.2 437.47 1051.95 440.59 1041.5 443.55C1031.05 446.51 1012.6 452.28 1000.5 456.38C988.4 460.48 971.52 466.59 963 469.97C954.48 473.34 943.67 477.71 939 479.68C934.33 481.65 927.58 484.61 924 486.24C920.42 487.88 913.23 491.14 908 493.49C902.77 495.85 889.95 502.17 879.5 507.54C869.05 512.91 857.58 518.96 854 520.99C850.42 523.02 840.98 528.42 833 533C825.02 537.58 816.02 542.98 813 544.99C809.98 547.01 803.32 551.32 798.2 554.58C793.09 557.83 783.19 564.51 776.2 569.41C769.22 574.31 761.02 580.05 758 582.16C754.98 584.27 744.86 591.96 735.52 599.25C726.19 606.54 709.09 620.6 697.54 630.5C685.84 640.52 665.01 660.03 650.52 674.52C636.03 689.01 616.52 709.84 606.5 721.54C596.6 733.09 582.42 750.33 575 759.84C567.58 769.35 560.37 778.79 558.99 780.82C557.61 782.84 552.63 789.9 547.93 796.5C543.22 803.1 533.74 817.27 526.86 828C519.98 838.73 512.33 851.1 509.85 855.5C507.37 859.9 502.63 868.23 499.32 874C496 879.77 489 892.83 483.75 903C478.51 913.17 472.19 926 469.72 931.5C467.24 937 463.88 944.42 462.24 948C460.61 951.58 457.65 958.33 455.67 963C453.7 967.67 449.17 978.92 445.62 988C442.07 997.08 436.17 1013.27 432.53 1024C428.88 1034.72 424.37 1048.67 422.51 1055C420.65 1061.33 417.36 1073.03 415.2 1081C413.04 1088.97 410.55 1098.65 409.67 1102.5C408.8 1106.35 407.16 1113.55 406.03 1118.5C404.9 1123.45 403.53 1129.3 403 1131.5C402.46 1133.7 400.87 1142.03 399.46 1150C398.05 1157.97 396.23 1168.55 395.41 1173.5C394.59 1178.45 393.07 1189.25 392.03 1197.5C390.99 1205.75 389.68 1216.55 389.11 1221.5C388.54 1226.45 387.3 1240.4 386.36 1252.5C385.12 1268.49 384.65 1286.11 384.65 1317C384.65 1347.89 385.12 1365.51 386.36 1381.5C387.3 1393.6 388.54 1407.55 389.11 1412.5C389.68 1417.45 390.99 1428.25 392.03 1436.5C393.07 1444.75 394.59 1455.55 395.41 1460.5C396.23 1465.45 398.05 1476.03 399.46 1484C400.87 1491.97 402.46 1500.3 403 1502.5C403.53 1504.7 404.9 1510.55 406.03 1515.5C407.16 1520.45 408.8 1527.65 409.67 1531.5C410.55 1535.35 413.04 1545.03 415.2 1553C417.36 1560.97 420.65 1572.67 422.51 1579C424.37 1585.33 428.88 1599.28 432.53 1610C436.17 1620.72 442.07 1636.92 445.62 1646C449.17 1655.08 453.7 1666.33 455.67 1671C457.65 1675.67 460.61 1682.42 462.24 1686C463.88 1689.58 467.24 1697 469.72 1702.5C472.2 1708 478.52 1720.83 483.78 1731C489.04 1741.17 494.99 1752.42 497.01 1756C499.02 1759.58 504.04 1768.35 508.14 1775.5C512.25 1782.65 520.96 1796.83 527.49 1807C534.03 1817.17 543.23 1830.9 547.93 1837.5C552.64 1844.1 557.61 1851.16 558.99 1853.18C560.37 1855.21 567.58 1864.65 575 1874.16C582.42 1883.67 596.6 1900.91 606.5 1912.46C616.52 1924.16 636.03 1944.99 650.52 1959.48C665.01 1973.97 685.84 1993.48 697.54 2003.5C709.09 2013.4 726.19 2027.46 735.52 2034.75C744.86 2042.04 754.98 2049.73 758 2051.84C761.02 2053.95 769.21 2059.69 776.18 2064.59C783.16 2069.49 792.39 2075.71 796.68 2078.42C800.98 2081.13 807.65 2085.44 811.5 2088C815.35 2090.56 825.02 2096.4 833 2100.99C840.98 2105.57 850.42 2110.98 854 2113.01C857.58 2115.04 869.05 2121.09 879.5 2126.46C889.95 2131.83 902.77 2138.15 908 2140.51C913.23 2142.86 920.42 2146.12 924 2147.76C927.58 2149.39 934.33 2152.35 939 2154.33C943.67 2156.31 955.15 2160.91 964.5 2164.55C973.85 2168.19 990.73 2174.3 1002 2178.13C1013.27 2181.95 1031.05 2187.5 1041.5 2190.45C1051.95 2193.41 1063.2 2196.53 1066.5 2197.39C1069.8 2198.25 1075.42 2199.62 1079 2200.44C1082.58 2201.26 1089.55 2202.85 1094.5 2203.98C1099.45 2205.11 1105.3 2206.47 1107.5 2207C1109.7 2207.54 1118.03 2209.13 1126 2210.54C1133.97 2211.95 1144.55 2213.77 1149.5 2214.59C1154.45 2215.41 1165.25 2216.93 1173.5 2217.97C1181.75 2219.01 1192.55 2220.32 1197.5 2220.89C1202.45 2221.46 1216.4 2222.7 1228.5 2223.64C1244.49 2224.88 1262.11 2225.35 1293 2225.35C1323.89 2225.35 1341.51 2224.88 1357.5 2223.64C1369.6 2222.7 1383.55 2221.46 1388.5 2220.89C1393.45 2220.32 1404.25 2219.01 1412.5 2217.97C1420.75 2216.93 1431.55 2215.41 1436.5 2214.59C1441.45 2213.77 1452.03 2211.95 1460 2210.54C1467.97 2209.13 1476.3 2207.54 1478.5 2207C1480.7 2206.47 1486.55 2205.1 1491.5 2203.97C1496.45 2202.84 1503.65 2201.2 1507.5 2200.33C1511.35 2199.45 1521.03 2196.96 1529 2194.8C1536.97 2192.64 1548.67 2189.34 1555 2187.48C1561.33 2185.62 1575.72 2180.96 1587 2177.13C1598.28 2173.3 1614.47 2167.4 1623 2164.03C1631.53 2160.66 1642.33 2156.29 1647 2154.32C1651.67 2152.35 1658.42 2149.39 1662 2147.76C1665.58 2146.12 1673 2142.76 1678.5 2140.28C1684 2137.81 1696.83 2131.49 1707 2126.25C1717.17 2121 1730.22 2114 1736 2110.68C1741.78 2107.37 1750.1 2102.64 1754.5 2100.17C1758.9 2097.7 1771.28 2090.05 1782 2083.15C1792.72 2076.26 1806.9 2066.77 1813.5 2062.07C1820.1 2057.36 1827.16 2052.39 1829.18 2051.01C1831.21 2049.63 1840.65 2042.42 1850.16 2035C1859.67 2027.58 1876.91 2013.4 1888.46 2003.5C1900.16 1993.48 1920.99 1973.97 1935.48 1959.48C1949.97 1944.99 1969.48 1924.16 1979.5 1912.46C1989.4 1900.91 2003.46 1883.81 2010.75 1874.48C2018.03 1865.14 2029.08 1850.3 2035.3 1841.5C2041.52 1832.7 2052.25 1816.72 2059.14 1806C2066.04 1795.28 2073.7 1782.9 2076.17 1778.5C2078.64 1774.1 2083.37 1765.78 2086.68 1760C2090 1754.22 2097 1741.17 2102.25 1731C2107.49 1720.83 2113.81 1708 2116.28 1702.5C2118.76 1697 2122.13 1689.58 2123.77 1686C2125.41 1682.42 2128 1676.58 2129.51 1673C2131.03 1669.42 2135.4 1658.63 2139.23 1649C2143.06 1639.38 2149.32 1622.28 2153.14 1611C2156.97 1599.72 2161.62 1585.33 2163.48 1579C2165.34 1572.67 2168.64 1560.97 2170.8 1553C2172.96 1545.03 2175.45 1535.35 2176.33 1531.5C2177.2 1527.65 2178.84 1520.45 2179.97 1515.5C2181.1 1510.55 2182.47 1504.7 2183 1502.5C2183.54 1500.3 2185.13 1491.97 2186.53 1484C2187.93 1476.03 2189.71 1465.9 2190.49 1461.5C2191.26 1457.1 2193.27 1442.25 2194.94 1428.5C2196.61 1414.75 2198.44 1397.65 2198.99 1390.5C2199.54 1383.35 2200.52 1363.78 2201.17 1347C2202.07 1323.62 2202.07 1309.5 2201.17 1286.5C2200.52 1270 2199.54 1250.65 2198.99 1243.5C2198.44 1236.35 2196.61 1219.25 2194.94 1205.5C2193.27 1191.75 2191.26 1176.9 2190.49 1172.5C2189.71 1168.1 2187.93 1157.97 2186.53 1150C2185.13 1142.03 2183.54 1133.7 2183 1131.5C2182.47 1129.3 2181.1 1123.45 2179.97 1118.5C2178.84 1113.55 2177.2 1106.35 2176.33 1102.5C2175.45 1098.65 2172.96 1088.97 2170.8 1081C2168.64 1073.03 2165.34 1061.33 2163.48 1055C2161.62 1048.67 2156.97 1034.28 2153.14 1023C2149.32 1011.73 2143.06 994.63 2139.23 985C2135.4 975.38 2131.03 964.58 2129.51 961C2128 957.42 2125.41 951.58 2123.77 948C2122.13 944.42 2118.76 937 2116.28 931.5C2113.81 926 2107.49 913.17 2102.25 903C2097 892.83 2090 879.77 2086.68 874C2083.37 868.23 2078.64 859.9 2076.17 855.5C2073.7 851.1 2066.04 838.73 2059.14 828C2052.25 817.27 2041.52 801.3 2035.3 792.5C2029.08 783.7 2018.03 768.86 2010.75 759.52C2003.46 750.19 1989.4 733.1 1979.5 721.55C1969.6 710 1950.02 689.06 1936 675.02C1921.97 660.99 1902.2 642.3 1892.05 633.5C1881.91 624.7 1864.58 610.4 1853.55 601.73C1842.52 593.05 1831.71 584.73 1829.53 583.23C1827.35 581.73 1820.15 576.64 1813.53 571.93C1806.91 567.22 1792.72 557.72 1782 550.84C1771.28 543.95 1758.9 536.3 1754.5 533.83C1750.1 531.36 1741.78 526.63 1736 523.32C1730.22 520 1717.17 513 1707 507.75C1696.83 502.51 1684 496.19 1678.5 493.72C1673 491.24 1665.8 487.98 1662.5 486.46C1659.2 484.95 1652.9 482.17 1648.5 480.29C1644.1 478.41 1632.4 473.69 1622.5 469.81C1612.6 465.92 1595.95 459.86 1585.5 456.33C1575.05 452.8 1561.33 448.39 1555 446.52C1548.67 444.66 1536.97 441.36 1529 439.2C1521.03 437.04 1511.35 434.55 1507.5 433.67C1503.65 432.8 1496.45 431.16 1491.5 430.03C1486.55 428.9 1480.7 427.53 1478.5 427C1476.3 426.46 1467.97 424.87 1460 423.46C1452.03 422.05 1441.45 420.23 1436.5 419.41C1431.55 418.59 1420.75 417.07 1412.5 416.03C1404.25 414.99 1393.22 413.65 1388 413.07C1382.78 412.48 1369.28 411.31 1358 410.48C1346.72 409.64 1322.2 408.8 1303.5 408.6C1284.8 408.41 1265.67 408.4 1261 408.59Z" />
		<path id="Path 2" fill-rule="evenodd" class="shp0" d="M1144.25 497.14C1145.21 497.06 1146.22 497.45 1146.5 498C1146.78 498.55 1142.61 501.56 1137.25 504.69C1131.89 507.82 1120.3 515.2 1111.5 521.1C1102.7 526.99 1089.2 536.41 1081.5 542.03C1073.8 547.66 1060.08 558.23 1051 565.52C1041.92 572.82 1028.65 583.95 1021.5 590.25C1014.35 596.55 1001.06 609.08 991.97 618.1C982.88 627.12 970.53 639.9 964.54 646.5C958.54 653.1 948 665.25 941.12 673.5C934.24 681.75 922.91 696.15 915.94 705.5C908.96 714.85 897.86 730.6 891.28 740.5C884.69 750.4 875.02 765.7 869.8 774.5C864.57 783.3 856.22 798.15 851.24 807.5C846.26 816.85 839.18 831.02 835.49 839C831.81 846.98 826.87 858 824.53 863.5C822.19 869 817.34 881.15 813.76 890.5C810.18 899.85 804.51 915.83 801.16 926C797.82 936.17 793.5 949.9 791.58 956.5C789.65 963.1 786.29 975.7 784.11 984.5C781.92 993.3 779.01 1005.9 777.64 1012.5C776.26 1019.1 774.01 1031.47 772.62 1040C771.23 1048.53 769.18 1062.92 768.06 1072C766.94 1081.08 765.35 1096.83 764.53 1107C763.71 1117.17 762.55 1136.97 761.94 1151C761.34 1165.03 761.14 1184.83 761.49 1195C761.85 1205.17 763 1225.65 764.06 1240.5C765.12 1255.35 766.67 1274.25 767.52 1282.5C768.37 1290.75 770.15 1308.3 771.47 1321.5C772.8 1334.7 774.84 1352.03 776 1360C777.17 1367.97 779.46 1381.03 781.11 1389C782.75 1396.97 785.83 1410.25 787.95 1418.5C790.06 1426.75 792.78 1438.67 793.97 1445C795.17 1451.33 797.71 1463.03 799.61 1471C801.52 1478.97 804.46 1490.22 806.15 1496C807.84 1501.78 811.91 1513.92 815.21 1523C818.51 1532.08 822.13 1541.3 823.27 1543.5C824.4 1545.7 828.53 1554.92 832.44 1564C836.36 1573.08 843.17 1587.03 847.59 1595C852.01 1602.97 857.43 1612.2 859.63 1615.5C861.83 1618.8 866.06 1625.1 869.04 1629.5C872.01 1633.9 876.7 1639.85 879.47 1642.73C882.24 1645.61 885.4 1647.98 886.5 1648.01C887.6 1648.03 896.38 1645.07 906 1641.44C915.63 1637.8 923.95 1634.4 924.5 1633.88C925.16 1633.25 924.73 1626.82 923.22 1614.72C921.96 1604.7 920.51 1586.15 919.99 1573.5C919.47 1560.85 919.03 1536.33 919.02 1519C919.01 1501.67 919.46 1478.95 920.01 1468.5C920.57 1458.05 921.71 1441.17 922.54 1431C923.38 1420.83 924.97 1404.4 926.09 1394.5C927.2 1384.6 929.46 1367.28 931.11 1356C932.76 1344.72 936.12 1325.38 938.57 1313C941.03 1300.63 945.25 1281.95 947.94 1271.5C950.64 1261.05 955.17 1244.85 958.01 1235.5C960.86 1226.15 965.44 1212.2 968.19 1204.5C970.95 1196.8 976.37 1182.63 980.24 1173C984.12 1163.38 989.86 1149.88 993.01 1143C996.16 1136.13 1002.23 1123.53 1006.5 1115C1010.77 1106.47 1016.51 1095.45 1019.25 1090.5C1021.98 1085.55 1028.1 1074.97 1032.83 1067C1037.57 1059.03 1045.98 1045.75 1051.52 1037.5C1057.06 1029.25 1066.15 1016.42 1071.71 1009C1077.27 1001.58 1086.69 989.65 1092.65 982.5C1098.6 975.35 1111.58 961.22 1121.49 951.1C1131.39 940.98 1145.8 927.07 1153.5 920.2C1161.2 913.32 1175.43 901.35 1185.11 893.6C1194.8 885.84 1209.2 874.78 1217.11 869.02C1225.03 863.26 1239.6 853.13 1249.5 846.52C1259.4 839.91 1274.03 830.61 1282 825.85C1289.98 821.1 1302.13 814.07 1309 810.23C1315.88 806.4 1329.15 799.42 1338.5 794.73C1347.85 790.04 1360 784.28 1365.5 781.94C1371 779.6 1384.72 774.13 1396 769.78C1407.28 765.43 1421.67 759.68 1428 757.01C1434.33 754.34 1440.74 751.89 1442.25 751.57C1443.76 751.26 1445 750.55 1445 750C1445 749.45 1453.21 746.32 1463.25 743.05C1473.29 739.77 1489.15 734.8 1498.5 731.99C1507.85 729.18 1525.17 724.24 1537 721.01C1548.83 717.77 1565.03 713.49 1573 711.49C1580.97 709.49 1596.95 705.67 1608.5 703.01C1620.05 700.34 1637.83 696.52 1648 694.52C1658.17 692.52 1674.6 689.58 1684.5 687.97C1694.4 686.37 1709.92 684.16 1719 683.05C1728.08 681.94 1742.7 680.36 1751.5 679.54C1760.3 678.71 1777.17 677.54 1789 676.93C1800.83 676.33 1814.1 676.12 1826.5 677.11L1843 691.37C1852.08 699.21 1869.59 715.73 1881.93 728.06C1894.27 740.4 1911.93 759.27 1921.18 770C1930.43 780.73 1937.89 789.63 1937.75 789.78C1937.61 789.94 1924.67 790.29 1909 790.56C1893.33 790.83 1870.6 791.51 1858.5 792.07C1846.4 792.63 1825.92 793.97 1813 795.05C1800.08 796.13 1776.45 798.38 1760.5 800.06C1744.55 801.73 1721.6 804.42 1709.5 806.03C1697.4 807.64 1678.05 810.53 1666.5 812.44C1654.95 814.35 1636.5 817.77 1625.5 820.05C1614.5 822.33 1597.63 826.15 1588 828.53C1578.38 830.91 1561.95 835.34 1551.5 838.37C1541.05 841.4 1522.38 847.31 1510 851.51C1497.63 855.71 1478.05 862.9 1466.5 867.49C1454.95 872.08 1438.97 878.74 1431 882.29C1423.03 885.83 1407.28 893.35 1396 899C1384.72 904.65 1370.1 912.3 1363.5 916C1356.9 919.7 1345.65 926.22 1338.5 930.49C1331.35 934.77 1315.83 944.67 1304 952.51C1292.17 960.34 1275.97 971.6 1268 977.54C1260.03 983.47 1248.1 992.68 1241.5 998C1234.9 1003.32 1225.67 1010.95 1221 1014.96C1216.33 1018.96 1203.79 1030.39 1193.14 1040.37C1182.48 1050.34 1168.3 1064.35 1161.61 1071.5C1154.92 1078.65 1145.81 1088.55 1141.37 1093.5C1136.92 1098.45 1128.86 1107.9 1123.45 1114.5C1118.04 1121.1 1108.24 1133.7 1101.68 1142.5C1095.11 1151.3 1083.78 1167.5 1076.51 1178.5C1069.24 1189.5 1059.55 1204.8 1054.99 1212.5C1050.42 1220.2 1043.7 1231.9 1040.04 1238.5C1036.38 1245.1 1029.75 1257.7 1025.3 1266.5C1020.86 1275.3 1013.84 1289.92 1009.72 1299C1005.59 1308.08 998.63 1324.5 994.25 1335.5C989.86 1346.5 983.31 1364.5 979.67 1375.5C976.04 1386.5 971.5 1401.13 969.59 1408C967.68 1414.88 964.77 1426.13 963.12 1433C961.48 1439.88 959.01 1451.13 957.63 1458C956.25 1464.88 954.43 1474.55 953.58 1479.5C952.74 1484.45 951.17 1495.7 950.09 1504.5C949.01 1513.3 947.63 1528.83 947.03 1539C946.28 1551.79 946.24 1566.14 946.91 1585.5C947.45 1600.9 948.36 1615.64 948.94 1618.25C949.93 1622.71 950.23 1623.04 953.75 1623.62C956.35 1624.05 961.47 1623.24 970.5 1620.99C977.65 1619.21 985.52 1617.04 988 1616.18C990.48 1615.32 994.45 1612.79 996.83 1610.56C999.67 1607.89 1002.97 1602.91 1006.46 1596C1009.38 1590.22 1014.35 1578.75 1017.5 1570.5C1020.66 1562.25 1025.82 1548.97 1028.97 1541C1032.12 1533.03 1035.51 1524.92 1036.49 1523C1037.47 1521.08 1046.15 1506.22 1055.77 1490C1065.4 1473.78 1079.23 1451.5 1086.49 1440.5C1093.76 1429.5 1104.56 1414.2 1110.48 1406.5C1116.41 1398.8 1126.49 1386.45 1132.88 1379.06C1139.27 1371.67 1150.82 1359.29 1158.55 1351.56C1166.28 1343.83 1178.43 1332.38 1185.55 1326.12C1192.67 1319.86 1204.35 1310.13 1211.5 1304.5C1218.65 1298.87 1231.25 1289.44 1239.5 1283.54C1247.75 1277.65 1261.7 1268.22 1270.5 1262.58C1279.3 1256.94 1294.15 1247.89 1303.5 1242.47C1312.85 1237.04 1329.5 1228.06 1340.5 1222.5C1351.5 1216.95 1366.13 1209.87 1373 1206.79C1379.88 1203.7 1393.38 1198.03 1403 1194.18C1412.63 1190.33 1429.95 1183.97 1441.5 1180.05C1453.05 1176.13 1471.05 1170.47 1481.5 1167.49C1491.95 1164.5 1507.92 1160.27 1517 1158.09C1526.08 1155.9 1542.5 1152.27 1553.5 1150.02C1564.5 1147.77 1581.38 1144.62 1591 1143.03C1600.63 1141.44 1617.72 1139 1629 1137.59C1640.28 1136.19 1656.92 1134.37 1666 1133.55C1675.08 1132.72 1690.83 1131.59 1701 1131.03C1711.17 1130.46 1735.47 1130 1755 1130C1774.53 1130.01 1795.67 1130.48 1802 1131.05C1808.33 1131.62 1822.28 1133.19 1833 1134.53C1843.72 1135.88 1862.17 1138.57 1874 1140.52C1885.83 1142.46 1901.58 1145.18 1909 1146.56C1916.42 1147.94 1929.25 1150.44 1937.5 1152.11C1945.75 1153.78 1960.6 1156.88 1970.5 1159C1980.4 1161.12 1990.75 1163.61 1993.5 1164.54C1996.25 1165.47 2004.13 1168.47 2011 1171.21C2017.88 1173.94 2030.47 1179.33 2039 1183.18C2047.53 1187.03 2061.25 1193.78 2069.5 1198.19C2077.75 1202.59 2092.91 1211.21 2121.86 1228.5L2122.5 1239C2122.86 1244.78 2123.57 1253.55 2124.08 1258.5C2124.59 1263.45 2125.29 1282.58 2125.63 1301C2126 1321.51 2125.8 1342.84 2125.1 1356C2124.47 1367.83 2123.3 1384.92 2122.5 1394C2121.7 1403.08 2120.37 1415.45 2119.56 1421.5C2118.75 1427.55 2117.6 1436.33 2117 1441C2116.41 1445.67 2115.72 1450.17 2115.46 1451C2115.21 1451.83 2114.33 1456.44 2113.5 1461.25C2112.68 1466.06 2111.34 1473.71 2110.52 1478.25C2109.71 1482.79 2108.42 1489.2 2107.65 1492.5C2106.88 1495.8 2105.06 1503.67 2103.59 1510C2102.13 1516.33 2099.77 1525.78 2098.33 1531C2096.9 1536.22 2094.24 1545.67 2092.43 1552C2090.61 1558.33 2086.44 1571.6 2083.15 1581.5C2079.86 1591.4 2076 1602.65 2074.57 1606.5C2073.15 1610.35 2071.54 1614.4 2071.01 1615.5C2070.47 1616.6 2068.51 1621.55 2066.65 1626.5C2064.78 1631.45 2059.77 1643.38 2055.52 1653C2051.26 1662.63 2043.04 1679.95 2037.26 1691.5C2031.47 1703.05 2021.8 1721.05 2015.76 1731.5C2009.72 1741.95 2000 1757.92 1994.16 1767C1988.33 1776.08 1978.27 1790.92 1971.81 1800C1965.35 1809.08 1954.53 1823.5 1947.78 1832.05C1941.03 1840.61 1928.49 1855.68 1919.93 1865.55C1911.37 1875.42 1894.27 1893.59 1881.93 1905.93C1869.59 1918.27 1851.42 1935.37 1841.55 1943.93C1831.68 1952.49 1816.61 1965.03 1808.05 1971.78C1799.5 1978.53 1785.08 1989.35 1776 1995.81C1766.92 2002.27 1752.08 2012.33 1743 2018.16C1733.92 2024 1719.53 2032.81 1711 2037.73C1702.47 2042.65 1693.03 2048.05 1690 2049.72C1686.97 2051.39 1676.4 2056.82 1666.5 2061.78C1656.6 2066.75 1640.17 2074.52 1630 2079.04C1619.83 2083.57 1607 2088.97 1601.5 2091.05C1596 2093.13 1589.47 2095.71 1587 2096.78C1584.53 2097.86 1572.83 2101.98 1561 2105.94C1549.17 2109.9 1534.33 2114.63 1528 2116.44C1521.67 2118.24 1512.22 2120.9 1507 2122.34C1501.78 2123.77 1487.6 2127.16 1475.5 2129.86C1463.4 2132.56 1449 2135.53 1443.5 2136.45C1438 2137.38 1431.47 2138.57 1429 2139.09C1426.53 2139.61 1421.13 2140.46 1417 2140.99C1412.88 2141.51 1402.53 2142.83 1394 2143.92C1385.47 2145.01 1372.2 2146.4 1364.5 2147.01C1356.8 2147.62 1342.85 2148.52 1333.5 2149.01C1324.15 2149.5 1305.92 2149.9 1293 2149.9C1280.08 2149.9 1261.85 2149.5 1252.5 2149.01C1243.15 2148.52 1229.2 2147.62 1221.5 2147.01C1213.8 2146.4 1200.53 2145 1192 2143.91C1183.47 2142.81 1173.13 2141.49 1169 2140.97C1164.88 2140.46 1159.47 2139.61 1157 2139.09C1154.53 2138.57 1148 2137.38 1142.5 2136.45C1137 2135.53 1122.6 2132.56 1110.5 2129.86C1098.4 2127.16 1084.22 2123.77 1079 2122.34C1073.78 2120.9 1064.33 2118.24 1058 2116.44C1051.67 2114.63 1036.83 2109.9 1025 2105.94C1013.17 2101.98 1001.48 2097.86 999 2096.78C996.52 2095.71 990 2093.13 984.5 2091.05C979 2088.97 966.17 2083.57 956 2079.04C945.83 2074.52 929.4 2066.75 919.5 2061.78C909.6 2056.82 899.02 2051.4 896 2049.74C892.98 2048.08 886.45 2044.37 881.5 2041.49C876.55 2038.6 868.23 2033.7 863 2030.59C857.77 2027.48 847.4 2021.02 839.94 2016.22C832.49 2011.42 818.99 2002.22 809.94 1995.77C800.9 1989.32 786.5 1978.52 777.95 1971.77C769.39 1965.02 754.32 1952.49 744.45 1943.93C734.58 1935.37 716.41 1918.27 704.07 1905.93C691.73 1893.59 674.63 1875.42 666.07 1865.55C657.51 1855.68 644.98 1840.61 638.23 1832.05C631.48 1823.5 620.83 1809.3 614.55 1800.5C608.28 1791.7 598.78 1777.75 593.46 1769.5C588.13 1761.25 581.8 1751.24 579.39 1747.25C576.97 1743.26 575 1739.78 575 1739.5C575 1739.22 575.45 1739 576 1739C576.55 1739 579.59 1740.94 582.75 1743.32C585.91 1745.69 591.88 1749.72 596 1752.27C600.13 1754.81 608.45 1759.18 614.5 1761.96C620.55 1764.75 626.85 1767.75 628.5 1768.63C630.15 1769.51 636.45 1772.85 642.5 1776.06C648.55 1779.28 658.9 1784.23 665.5 1787.07C672.1 1789.92 684.02 1794.39 692 1797.02C699.98 1799.64 713.7 1803.39 722.5 1805.34C731.3 1807.3 744.58 1809.79 752 1810.89C759.42 1811.99 771.8 1813.42 779.5 1814.06C788.07 1814.78 803.97 1815.04 820.5 1814.73C837.46 1814.42 851.96 1813.62 859.5 1812.58C866.1 1811.66 878.02 1809.59 886 1807.98C893.98 1806.36 906.69 1803.23 914.25 1801.02C921.81 1798.81 933.51 1795.01 940.25 1792.57C946.99 1790.13 957.67 1785.92 964 1783.21C970.33 1780.5 980.23 1775.91 986 1773.01C991.77 1770.12 999.88 1765.79 1004 1763.4C1008.13 1761.01 1011.84 1759.04 1012.25 1759.02C1012.66 1759.01 1013 1811.88 1013 1994L1018.25 1999.61C1021.14 2002.69 1024.74 2005.84 1026.25 2006.61C1028.44 2007.71 1033.66 2007.92 1051.75 2007.6C1064.26 2007.38 1078.1 2006.68 1082.5 2006.06C1086.9 2005.43 1099.5 2003.31 1110.5 2001.36C1121.5 1999.4 1138.6 1995.79 1148.5 1993.33C1158.4 1990.87 1176.4 1985.56 1188.5 1981.53C1200.6 1977.5 1219.95 1970.4 1231.5 1965.74C1243.05 1961.08 1260.38 1953.79 1270 1949.53C1279.63 1945.28 1296.95 1937.15 1308.5 1931.48C1320.05 1925.8 1335.35 1917.94 1342.5 1914C1349.65 1910.06 1360.45 1903.89 1366.5 1900.28C1372.55 1896.68 1383.08 1889.85 1389.9 1885.11C1396.73 1880.38 1407.98 1871.79 1414.9 1866.03C1421.83 1860.28 1431.27 1851.95 1435.87 1847.53C1440.48 1843.12 1449.05 1833.2 1454.92 1825.5C1460.79 1817.8 1467.48 1808.8 1469.8 1805.5C1472.19 1802.08 1475.94 1794.34 1478.52 1787.5C1482.18 1777.75 1483.4 1772.78 1484.98 1761C1486.05 1753.03 1487.61 1739.97 1488.46 1732C1489.3 1724.03 1490.88 1706.25 1491.96 1692.5C1493.03 1678.75 1494.43 1656.25 1495.07 1642.5C1495.77 1627.32 1495.95 1607.48 1495.53 1592C1495.15 1577.97 1494.65 1559.97 1494.42 1552C1494.19 1544.03 1493.53 1533.67 1492.95 1529C1492.37 1524.33 1491.01 1514.42 1489.93 1507C1488.84 1499.58 1485.92 1482.47 1483.43 1469C1480.94 1455.53 1475.74 1429.2 1471.88 1410.5C1468.01 1391.8 1463.13 1369.75 1461.03 1361.5C1458.93 1353.25 1455.1 1339.53 1452.52 1331C1449.95 1322.47 1446.81 1313.7 1445.55 1311.5C1444.29 1309.3 1440.84 1305.31 1437.88 1302.63C1434.92 1299.95 1429.91 1296.47 1426.75 1294.88C1423.59 1293.3 1418.97 1291.55 1416.5 1291C1412.43 1290.09 1410.46 1290.47 1395.75 1294.93C1386.81 1297.64 1375.45 1301.29 1370.5 1303.04C1365.55 1304.79 1356.1 1308.38 1349.5 1311.02C1342.9 1313.66 1331.88 1318.36 1325 1321.48C1318.13 1324.6 1308.22 1329.45 1303 1332.26C1297.78 1335.07 1289.45 1339.82 1284.5 1342.8C1279.55 1345.79 1270.55 1351.62 1264.5 1355.77C1258.45 1359.92 1249.22 1366.72 1244 1370.88C1238.78 1375.04 1230.7 1381.84 1226.06 1385.98C1221.42 1390.11 1213.55 1398.02 1208.56 1403.53C1203.58 1409.05 1196.77 1417.15 1193.43 1421.53C1188.64 1427.81 1186.8 1431.3 1184.74 1438C1183.3 1442.67 1180.27 1453.92 1178 1463C1175.74 1472.08 1171.86 1486.7 1169.4 1495.5C1166.93 1504.3 1162.62 1518.7 1159.8 1527.5C1156.99 1536.3 1153.08 1549.52 1147.5 1570.25L1117 1586.44C1100.22 1595.34 1071.42 1610.61 1053 1620.36C1034.58 1630.12 1018.68 1639.09 1017.68 1640.3C1016.68 1641.51 1015.59 1643.63 1015.26 1645C1014.92 1646.38 1014.06 1648.06 1013.33 1648.75C1012.6 1649.44 1012 1651.69 1012.01 1653.75C1012.01 1657.47 1011.94 1657.54 1001.76 1663.17C996.12 1666.28 987.79 1670.67 983.25 1672.92C978.71 1675.16 969.49 1679.2 962.75 1681.88C956.01 1684.56 943.52 1689.05 935 1691.86C926.48 1694.66 913.88 1698.5 907 1700.37C900.13 1702.25 887.52 1705.18 879 1706.89C870.48 1708.6 856.52 1710.93 848 1712.07C837.02 1713.53 824.33 1714.3 804.5 1714.69C786.99 1715.04 771.26 1714.82 762.5 1714.1C754.8 1713.46 742.65 1712.02 735.5 1710.89C728.35 1709.76 717.77 1707.73 712 1706.38C706.23 1705.02 697.67 1702.76 693 1701.35C688.33 1699.93 679.33 1696.75 673 1694.26C666.67 1691.78 656.21 1687.1 649.75 1683.87C643.29 1680.64 633.39 1675.15 627.75 1671.67C622.11 1668.19 614.13 1662.95 610 1660.01C605.88 1657.08 598.9 1651.8 594.5 1648.28C590.1 1644.77 580.72 1636.63 573.66 1630.19C566.6 1623.76 555.04 1612.2 547.98 1604.5C540.92 1596.8 531.27 1585.78 526.52 1580C521.78 1574.22 514.11 1564.1 509.49 1557.5C504.86 1550.9 498.02 1540.43 494.29 1534.23C490.56 1528.03 487.05 1522.97 486.5 1522.99C485.95 1523 483.16 1512.55 480.3 1499.76C477.43 1486.97 474.39 1472.45 473.53 1467.5C472.68 1462.55 471.53 1456.25 470.98 1453.5C470.44 1450.75 469.56 1445.13 469.04 1441C468.51 1436.88 467.19 1426.53 466.09 1418C465 1409.47 463.6 1396.2 462.99 1388.5C462.38 1380.8 461.48 1366.85 460.99 1357.5C460.5 1348.15 460.08 1331.5 460.05 1320.5C460.02 1309.5 460.33 1292.29 460.75 1282.25C461.2 1271.24 461.9 1263.99 462.5 1264C463.05 1264 465 1269.96 466.84 1277.25C468.67 1284.54 474.59 1303.78 479.98 1320C485.37 1336.22 493.85 1359.63 498.82 1372C503.78 1384.38 510.85 1401.25 514.53 1409.5C518.2 1417.75 524.08 1429.56 527.6 1435.75C531.12 1441.94 538.09 1453.41 543.09 1461.25C548.09 1469.09 556.58 1481.8 561.96 1489.5C567.34 1497.2 577.27 1510.7 584.04 1519.5C590.81 1528.3 599.74 1539.55 603.89 1544.5C608.04 1549.45 616.69 1559.35 623.12 1566.5C629.55 1573.65 637.44 1582.03 640.66 1585.13C643.87 1588.22 656.63 1599.24 669 1609.61C681.38 1619.99 695.1 1631.2 699.5 1634.53C703.9 1637.86 711.77 1643.15 717 1646.28C722.23 1649.41 731.45 1654.19 737.5 1656.9C743.55 1659.6 756.6 1664.53 766.5 1667.84C776.4 1671.15 788.1 1674.62 792.5 1675.56C796.9 1676.5 804.1 1677.25 808.5 1677.24C815.7 1677.23 817.82 1676.71 829.75 1672.11C837.04 1669.3 842.99 1666.66 842.97 1666.25C842.96 1665.84 845.27 1664.38 848.11 1663C850.94 1661.63 854.33 1659.26 855.63 1657.75C856.93 1656.24 858 1653.88 858 1652.5C858 1650.73 856.64 1648.91 853.33 1646.25C850.76 1644.19 841.65 1635.06 833.08 1625.97C824.51 1616.87 814.76 1606.07 811.4 1601.97C808.05 1597.86 800.3 1587.53 794.18 1579C788.06 1570.47 779.7 1557.88 775.61 1551C771.52 1544.13 765.48 1533.1 762.19 1526.5C758.91 1519.9 752.17 1505.72 747.22 1495C742.27 1484.28 736.31 1471 733.98 1465.5C731.64 1460 728.62 1452.58 727.26 1449C725.9 1445.42 723.33 1438.45 721.55 1433.5C719.77 1428.55 716.02 1417.08 713.22 1408C710.42 1398.92 706.32 1384.75 704.11 1376.5C701.9 1368.25 698.31 1353.4 696.13 1343.5C693.95 1333.6 691.01 1318.75 689.6 1310.5C688.18 1302.25 686.1 1287.63 684.98 1278C683.85 1268.38 682.07 1253.75 681.01 1245.5C679.95 1237.25 678.55 1224.2 677.89 1216.5C677.24 1208.8 676.7 1190.58 676.68 1176C676.67 1161.42 677.08 1120.25 677.58 1084.5C678.09 1048.75 678.84 1018.94 679.25 1018.25C679.66 1017.56 680.45 1005.64 681.01 991.75C681.56 977.86 682.71 959.08 683.56 950C684.42 940.92 686 926.75 687.08 918.5C688.17 910.25 690.64 894.27 692.58 883C694.52 871.73 697.67 855.08 699.58 846C701.5 836.92 704.86 822.08 707.07 813C709.27 803.92 713.56 787.73 716.6 777C719.64 766.27 724.3 750.98 726.96 743C729.62 735.02 734.71 721.08 738.26 712C741.81 702.92 745.86 693.25 747.25 690.5C748.77 687.49 752.28 683.31 756.08 680C759.55 676.98 769.39 668.98 777.95 662.23C786.5 655.48 800.9 644.68 809.94 638.23C818.99 631.78 832.49 622.58 839.94 617.78C847.4 612.98 857.77 606.52 863 603.41C868.23 600.3 876.55 595.4 881.5 592.51C886.45 589.63 892.98 585.92 896 584.26C899.02 582.6 909.6 577.18 919.5 572.22C929.4 567.25 945.83 559.48 956 554.96C966.17 550.43 979 545.03 984.5 542.95C990 540.87 996.52 538.29 999 537.22C1001.48 536.14 1013.17 532.02 1025 528.06C1036.83 524.1 1051.67 519.37 1058 517.56C1064.33 515.76 1073.78 513.1 1079 511.66C1084.22 510.23 1098.4 506.84 1110.5 504.15C1122.6 501.45 1134.75 498.8 1137.5 498.26C1140.25 497.72 1143.29 497.21 1144.25 497.14ZM1322.75 539.01C1322.89 539.01 1326.04 541.39 1329.75 544.31C1333.46 547.24 1344.38 555.46 1354 562.6C1363.63 569.73 1372.96 576.56 1374.75 577.78C1376.54 579 1378.01 580.34 1378.02 580.75C1378.03 581.16 1374.55 583.04 1370.27 584.92C1366 586.81 1356.65 591.25 1349.5 594.79C1342.35 598.34 1330.2 604.88 1322.5 609.34C1314.8 613.8 1301.75 621.95 1293.5 627.47C1285.25 632.99 1271.53 642.76 1263 649.19C1254.47 655.62 1241.65 665.64 1234.5 671.47C1227.35 677.29 1221.28 682.05 1221 682.04C1220.72 682.03 1216.45 679.49 1211.5 676.4C1206.55 673.3 1197.33 667.71 1191 663.97C1182.68 659.06 1178.81 656.13 1177 653.37C1175.63 651.27 1172.7 648.59 1166.5 645.27L1175 638.28C1179.67 634.44 1189.8 626.38 1197.5 620.38C1205.2 614.38 1217.35 605.23 1224.5 600.04C1231.65 594.85 1245.83 585.13 1256 578.44C1266.17 571.75 1281.25 562.33 1289.5 557.5C1297.75 552.67 1308.55 546.54 1313.5 543.88C1318.45 541.21 1322.61 539.02 1322.75 539.01ZM1029.94 785.47C1030.8 785.72 1033.64 786.39 1036.25 786.96C1038.86 787.53 1047.19 790.64 1054.75 793.86C1062.31 797.08 1072.21 800.91 1076.75 802.36C1084.36 804.8 1084.9 805.14 1083.75 806.86C1083.06 807.89 1079.58 812.22 1076 816.49C1072.42 820.75 1065.78 829.03 1061.23 834.87C1056.69 840.72 1046.74 854.05 1039.14 864.5C1031.54 874.95 1021.06 889.8 1015.86 897.5C1010.65 905.2 1005.97 912.28 1005.45 913.23C1004.57 914.82 1002.41 914.52 976.72 909.23C953.84 904.51 949.05 903.24 949.54 902C949.86 901.17 954.45 893.3 959.74 884.5C965.03 875.7 973.6 861.98 978.8 854C984 846.02 992.56 833.42 997.81 826C1003.06 818.58 1012.09 806.31 1017.87 798.75C1025.12 789.29 1028.87 785.15 1029.94 785.47ZM1798.82 931.13C1823.94 931.22 1852.83 931.85 1863 932.52C1873.17 933.2 1884.65 934.06 1888.5 934.43C1892.35 934.79 1901.58 935.77 1909 936.59C1916.42 937.41 1931.05 939.44 1941.5 941.1C1951.95 942.76 1964.71 944.87 1979.21 947.5L1986.54 973C1990.58 987.02 1995.67 1004.35 1997.87 1011.5C2000.07 1018.65 2001.78 1024.63 2001.68 1024.78C2001.58 1024.93 1992.28 1023.27 1981 1021.08C1969.72 1018.89 1952.4 1015.74 1942.5 1014.08C1932.6 1012.43 1917.53 1010.16 1909 1009.05C1900.47 1007.93 1884.28 1006.13 1873 1005.03C1861.72 1003.93 1841.92 1002.35 1829 1001.52C1816.08 1000.68 1801.9 1000.01 1797.5 1000.02C1792.5 1000.03 1788.91 999.56 1787.94 998.77C1787.08 998.07 1784.16 992.55 1781.46 986.5C1778.75 980.45 1773.11 969.2 1768.92 961.5C1764.74 953.8 1759.26 944.13 1756.74 940C1754.22 935.88 1752.38 932.15 1752.65 931.73C1752.91 931.31 1773.69 931.04 1798.82 931.13ZM1579.5 953.05C1580.05 952.97 1582.58 955.29 1585.13 958.21C1587.67 961.12 1591.44 966.42 1593.5 970C1595.56 973.58 1599.3 979.88 1601.81 984C1604.31 988.13 1609.43 995.89 1613.18 1001.25C1616.93 1006.61 1620 1011.34 1620.01 1011.75C1620.01 1012.16 1615.85 1012.86 1610.76 1013.3C1605.67 1013.74 1596.33 1014.75 1590 1015.56C1583.67 1016.36 1571.75 1018.16 1563.5 1019.54C1555.25 1020.92 1539.28 1024.12 1528 1026.65C1516.72 1029.17 1499.4 1033.46 1489.5 1036.18C1479.6 1038.9 1470.98 1040.98 1470.34 1040.81C1469.7 1040.64 1460.36 1031.84 1449.59 1021.25C1438.81 1010.66 1430.11 1001.81 1430.25 1001.58C1430.39 1001.35 1435.45 999.15 1441.5 996.68C1447.55 994.21 1460.38 989.26 1470 985.69C1479.63 982.11 1496.72 976.26 1508 972.67C1519.28 969.09 1536.15 964.14 1545.5 961.68C1554.85 959.21 1566.1 956.29 1570.5 955.19C1574.9 954.09 1578.95 953.13 1579.5 953.05ZM571.62 1018.29C571.77 1018.4 572.38 1029.75 572.97 1043.5C573.57 1057.25 574.72 1078.17 575.53 1090C576.34 1101.83 578.39 1124.1 580.07 1139.5C581.76 1154.9 582.95 1167.95 582.71 1168.5C582.48 1169.05 573.67 1175.46 563.14 1182.75C552.61 1190.04 543.55 1196 543 1196C542.45 1196 541.79 1195.21 541.53 1194.25C541.28 1193.29 539.46 1183.95 537.49 1173.5C535.53 1163.05 533.05 1149.1 532 1142.5C530.94 1135.9 529.17 1123.97 528.07 1116C526.97 1108.03 525.14 1093.85 521.96 1067.5L546.65 1042.79C560.22 1029.2 571.46 1018.17 571.62 1018.29ZM892.42 1019.78L895.95 1020.33C897.89 1020.63 908.25 1021.65 918.99 1022.6C929.72 1023.55 938.61 1024.47 938.75 1024.66C938.89 1024.85 935.66 1033.44 931.58 1043.75C927.5 1054.06 921.86 1069.03 919.04 1077C916.22 1084.97 910.89 1100.05 900.45 1129.5L880.22 1130C862.69 1130.43 860 1130.3 859.99 1129C859.98 1128.17 862.03 1119.17 864.53 1109C867.03 1098.83 871.07 1083.75 873.51 1075.5C875.94 1067.25 879.7 1055.33 881.86 1049C884.01 1042.67 887.27 1033.51 889.1 1028.64L892.42 1019.78ZM1327.97 1053C1328.26 1053 1333.25 1057.39 1339.05 1062.75C1344.85 1068.11 1351.72 1074.41 1354.3 1076.75C1356.89 1079.09 1359 1081.22 1359 1081.5C1359 1081.78 1354.95 1084.03 1350 1086.5C1345.05 1088.97 1335.94 1094 1329.75 1097.67C1323.56 1101.33 1313.1 1107.93 1306.5 1112.33C1299.9 1116.73 1290 1123.71 1284.5 1127.84C1279 1131.97 1270.79 1138.42 1258 1149L1243.23 1139.25C1235.11 1133.89 1228.4 1129.05 1228.31 1128.5C1228.23 1127.95 1232.29 1123.87 1237.33 1119.43C1242.37 1114.99 1252.8 1106.3 1260.5 1100.13C1268.2 1093.96 1281.03 1084.27 1289 1078.59C1296.97 1072.91 1308.88 1064.83 1315.47 1060.63C1322.05 1056.44 1327.67 1053 1327.97 1053ZM1166.22 1191.2L1175.86 1197.78C1181.16 1201.39 1187.64 1205.85 1195 1211L1185.37 1221.25C1180.07 1226.89 1169.65 1239.38 1162.21 1249C1154.78 1258.63 1148.2 1267.07 1147.6 1267.77C1146.74 1268.76 1143.7 1267.41 1133.5 1261.5C1126.35 1257.36 1120.16 1253.98 1119.75 1253.99C1119.34 1253.99 1119 1253.55 1119 1253C1119 1252.45 1124.08 1245.14 1130.28 1236.75C1136.49 1228.36 1145.6 1216.54 1150.53 1210.47C1155.46 1204.4 1161.01 1197.59 1162.86 1195.32L1166.22 1191.2Z" />
		<path id="Path 3" class="shp2" d="M1693 1210.08C1690.53 1211.71 1681.75 1217.25 1673.5 1222.41C1665.25 1227.57 1651.97 1235.71 1644 1240.52C1636.03 1245.32 1615.55 1257.35 1598.5 1267.25C1581.45 1277.15 1560.53 1289.42 1552 1294.53C1543.47 1299.63 1534.8 1304.64 1532.73 1305.65C1530.65 1306.67 1528.95 1307.72 1528.95 1308C1528.94 1308.28 1530.05 1310.53 1531.4 1313C1532.75 1315.47 1536.42 1323.13 1539.55 1330C1542.68 1336.88 1548.29 1350.15 1552.02 1359.5C1555.74 1368.85 1561.25 1384.15 1564.26 1393.5C1567.28 1402.85 1570.81 1414.41 1572.12 1419.18L1574.5 1427.87C1579.15 1424.51 1614.25 1398.86 1655.5 1368.7C1696.75 1338.53 1731.4 1313.69 1732.5 1313.49C1733.6 1313.29 1791.88 1312.4 1862 1311.52C1932.13 1310.63 1991.3 1309.71 1993.5 1309.47C1995.7 1309.24 1998.74 1308.13 2000.25 1307.02C2001.76 1305.91 2003.4 1303.54 2003.9 1301.75C2004.43 1299.81 2004.41 1294.27 2003.85 1288C2003.33 1282.22 2001.81 1264 2000.48 1247.5C1998.7 1225.4 1997.66 1216.91 1996.53 1215.25C1995.69 1214.01 1993.54 1212.39 1991.75 1211.65C1989.15 1210.57 1961.95 1209.96 1856.5 1208.62C1783.9 1207.69 1718.42 1206.98 1711 1207.03C1697.8 1207.13 1697.4 1207.2 1693 1210.08Z" />
		<path id="Path 4" class="shp3" d="M1999.46 1223.5C1999.05 1224.6 1999.7 1237.88 2000.91 1253C2002.12 1268.13 2003.53 1284.44 2004.05 1289.25C2004.76 1295.77 2004.68 1298.93 2003.75 1301.65C2003.06 1303.66 2001.23 1306.25 1999.68 1307.4C1997.06 1309.35 1995.35 1309.52 1975.18 1309.82L1953.5 1310.14C1950.92 1315.84 1948.28 1321.78 1945.97 1327C1943.66 1332.22 1940.4 1341.67 1938.72 1348C1935.85 1358.85 1935.67 1360.6 1935.59 1379C1935.52 1394.26 1935.86 1399.8 1937.15 1404.5C1938.06 1407.8 1940.19 1414.1 1941.89 1418.5C1943.58 1422.9 1946.73 1429.2 1948.88 1432.5C1951.03 1435.8 1954.98 1440.92 1957.65 1443.88C1960.32 1446.83 1965.65 1451.36 1969.5 1453.93C1973.35 1456.5 1979.42 1459.63 1983 1460.87C1986.58 1462.12 1992.88 1463.38 1997 1463.67C2002.18 1464.04 2006.66 1463.69 2011.5 1462.54C2015.35 1461.63 2021.65 1459.23 2025.5 1457.22C2030.19 1454.76 2035.14 1450.9 2040.5 1445.52C2045.75 1440.26 2050.04 1434.75 2052.98 1429.5C2055.44 1425.1 2058.68 1417.9 2060.17 1413.5C2061.66 1409.1 2063.58 1401.45 2064.44 1396.5C2065.29 1391.55 2066 1384.13 2066.01 1380C2066.02 1375.88 2065.08 1367.78 2063.92 1362C2062.76 1356.22 2060.35 1347.22 2058.55 1342C2056.76 1336.78 2053.02 1327.55 2050.25 1321.5C2047.48 1315.45 2040.38 1301.28 2034.47 1290C2028.56 1278.72 2019.16 1260.28 2013.57 1249C2007.98 1237.72 2002.69 1226.92 2001.81 1225C2000.38 1221.88 2000.12 1221.72 1999.46 1223.5Z" />
		<path id="Path 5" class="shp0" d="M852.25 1234.7L844 1235C843.2 1246.24 842.52 1256.7 841.98 1265.5C841.45 1274.3 841 1288.92 840.99 1298L840.98 1314.5C850.68 1313.33 857.44 1312.99 862.25 1312.99L871 1313C871.67 1304.86 872.36 1291.25 872.96 1277.5C873.56 1263.75 874.7 1248.67 875.5 1244C876.3 1239.33 876.97 1235.16 876.98 1234.75C876.99 1234.34 873.29 1234.09 868.75 1234.2C864.21 1234.32 856.79 1234.54 852.25 1234.7Z" />
		<path id="Path 6" class="shp2" d="M1405 1292.1C1401.42 1293.19 1392.65 1295.91 1385.5 1298.13C1378.35 1300.36 1365.97 1304.67 1358 1307.71C1350.03 1310.76 1336.97 1316.16 1329 1319.71C1321.03 1323.26 1309.78 1328.68 1304 1331.76C1298.22 1334.84 1289.45 1339.81 1284.5 1342.8C1279.55 1345.79 1270.55 1351.62 1264.5 1355.77C1258.45 1359.92 1249.22 1366.72 1244 1370.88C1238.78 1375.04 1230.7 1381.84 1226.06 1385.98C1221.42 1390.11 1213.55 1398.02 1208.56 1403.53C1203.58 1409.05 1196.77 1417.15 1193.43 1421.53C1188.64 1427.81 1186.8 1431.3 1184.74 1438C1183.3 1442.67 1180.27 1453.92 1178 1463C1175.74 1472.08 1171.86 1486.7 1169.4 1495.5C1166.93 1504.3 1162.62 1518.7 1159.8 1527.5C1156.99 1536.3 1153.08 1549.52 1151.1 1556.88L1147.5 1570.25C1100.22 1595.34 1071.42 1610.61 1053 1620.36C1034.58 1630.12 1018.68 1639.09 1017.68 1640.3C1016.68 1641.51 1015.6 1643.63 1015.28 1645C1014.95 1646.38 1014.2 1647.82 1013.6 1648.21C1012.82 1648.72 1012.58 1664.82 1012.77 1703.71C1012.92 1733.85 1013.03 1811.49 1013.02 1876.25L1013 1994C1021.14 2002.69 1024.74 2005.84 1026.25 2006.61C1028.44 2007.71 1033.66 2007.92 1051.75 2007.6C1064.26 2007.38 1078.1 2006.68 1082.5 2006.06C1086.9 2005.43 1099.5 2003.31 1110.5 2001.36C1121.5 1999.4 1138.6 1995.79 1148.5 1993.33C1158.4 1990.87 1176.4 1985.56 1188.5 1981.53C1200.6 1977.5 1219.95 1970.4 1231.5 1965.74C1243.05 1961.08 1260.38 1953.79 1270 1949.53C1279.63 1945.28 1296.95 1937.15 1308.5 1931.48C1320.05 1925.8 1335.35 1917.94 1342.5 1914C1349.65 1910.06 1360.45 1903.89 1366.5 1900.28C1372.55 1896.68 1383.08 1889.85 1389.9 1885.11C1396.73 1880.38 1407.98 1871.79 1414.9 1866.03C1421.83 1860.28 1431.27 1851.95 1435.87 1847.53C1440.48 1843.12 1449.05 1833.2 1454.92 1825.5C1460.79 1817.8 1467.48 1808.8 1469.8 1805.5C1472.19 1802.08 1475.94 1794.34 1478.52 1787.5C1482.18 1777.75 1483.4 1772.78 1484.98 1761C1486.05 1753.03 1487.61 1739.97 1488.46 1732C1489.3 1724.03 1490.88 1706.25 1491.96 1692.5C1493.03 1678.75 1494.43 1656.25 1495.07 1642.5C1495.77 1627.32 1495.95 1607.48 1495.53 1592C1495.15 1577.97 1494.65 1559.97 1494.42 1552C1494.19 1544.03 1493.53 1533.67 1492.95 1529C1492.37 1524.33 1491.01 1514.42 1489.93 1507C1488.84 1499.58 1485.92 1482.47 1483.43 1469C1480.94 1455.53 1475.74 1429.2 1471.88 1410.5C1468.01 1391.8 1463.13 1369.75 1461.03 1361.5C1458.93 1353.25 1455.1 1339.53 1452.52 1331C1449.95 1322.47 1446.81 1313.7 1445.55 1311.5C1444.29 1309.3 1440.84 1305.29 1437.88 1302.6C1434.92 1299.9 1429.35 1296.23 1425.5 1294.44C1421.65 1292.65 1416.92 1290.94 1415 1290.65C1412.9 1290.33 1408.9 1290.91 1405 1292.1ZM1489 1296.44C1483.78 1298.24 1475.22 1301.74 1470 1304.21C1464.78 1306.68 1459.49 1309.78 1458.25 1311.1L1455.99 1313.5C1462.05 1329.78 1465.63 1340.58 1467.85 1348C1470.07 1355.42 1473.7 1368.47 1475.91 1377C1478.12 1385.53 1482.16 1402.63 1484.89 1415C1487.62 1427.38 1491.45 1445.6 1493.39 1455.5C1495.33 1465.4 1497.81 1480.47 1498.91 1489C1500.01 1497.53 1501.16 1508.1 1501.48 1512.5C1501.79 1516.9 1502.29 1523.42 1502.57 1527L1503.09 1533.5C1506.51 1530.27 1514.25 1525.15 1522.5 1520.04C1530.75 1514.92 1541.55 1507.7 1546.5 1503.98C1551.45 1500.26 1557.06 1495.26 1558.97 1492.86C1560.88 1490.46 1563.81 1485.13 1565.47 1481C1568.35 1473.86 1568.49 1472.85 1568.38 1460C1568.32 1452.58 1567.76 1443.8 1567.14 1440.5C1566.52 1437.2 1564.03 1427.97 1561.62 1420C1559.2 1412.03 1550.83 1388.63 1543.01 1368C1535.2 1347.38 1527.57 1326.9 1526.06 1322.5C1524.56 1318.1 1521.66 1310.9 1519.62 1306.5C1516.65 1300.08 1515.09 1297.96 1511.71 1295.74C1508.59 1293.69 1506.33 1293 1503 1293.06C1500.53 1293.11 1494.22 1294.63 1489 1296.44Z" />
		<path id="Path 7" class="shp0" d="M583.75 1303.05C572.85 1308.56 570.09 1310.36 570.44 1311.75C570.68 1312.71 571.88 1316.88 573.1 1321C574.31 1325.13 579.9 1340.42 585.52 1355C591.13 1369.58 596.3 1383.3 596.99 1385.5C597.69 1387.7 598.65 1390.29 599.13 1391.25C599.91 1392.82 601.28 1392.39 612.75 1386.89C619.76 1383.53 625.6 1380.72 625.71 1380.64C625.83 1380.56 623.18 1373.3 619.82 1364.5C616.47 1355.7 612.2 1343.55 610.33 1337.5C608.46 1331.45 605.37 1319.64 603.47 1311.25C601.23 1301.38 599.57 1296.02 598.76 1296.05C598.07 1296.08 591.31 1299.23 583.75 1303.05ZM1069.27 1333.23C1064.8 1341.63 1058.19 1354.46 1054.57 1361.75C1050.96 1369.04 1048.22 1375.45 1048.5 1376C1048.78 1376.55 1049.9 1377 1051 1377C1052.1 1377 1056.6 1378.35 1061 1380C1065.4 1381.65 1069.45 1383 1070 1383C1070.55 1383 1076.57 1374.34 1083.37 1363.75C1090.18 1353.16 1097.38 1341.91 1099.37 1338.75L1103 1333C1084.13 1321.76 1078.37 1318.38 1078.02 1318.23C1077.67 1318.09 1073.74 1324.84 1069.27 1333.23Z" />
		<path id="Path 8" class="shp3" d="M1727.6 1414.73C1724.43 1421.2 1717.94 1433.66 1713.17 1442.41C1708.4 1451.15 1703.81 1459.48 1702.97 1460.91C1702.14 1462.33 1700.13 1465.75 1698.52 1468.5C1696.91 1471.25 1692.24 1478.9 1688.14 1485.5C1684.05 1492.1 1670.98 1512.09 1659.1 1529.91C1647.22 1547.74 1636.82 1562.82 1636 1563.41C1635.17 1564.01 1632.81 1567.31 1630.75 1570.75C1628.69 1574.19 1627 1577.34 1627.01 1577.75C1627.01 1578.16 1624.91 1581.88 1622.34 1586C1619.77 1590.13 1615.04 1598.11 1611.83 1603.75C1608.62 1609.39 1603.33 1619.51 1600.06 1626.25C1596.8 1632.99 1593.37 1640.53 1592.45 1643C1591.53 1645.47 1588.76 1653.35 1586.29 1660.5C1583.83 1667.65 1580.93 1677.55 1579.85 1682.5C1578.78 1687.45 1577.02 1697.24 1575.95 1704.25C1574.47 1713.89 1574 1722.18 1574.01 1738.25C1574.02 1754.92 1574.44 1761.87 1575.98 1770.5C1577.06 1776.55 1578.44 1783.3 1579.05 1785.5C1579.66 1787.7 1581.21 1792.88 1582.5 1797C1583.79 1801.13 1586.28 1807.88 1588.03 1812C1589.79 1816.13 1592.82 1822.42 1594.78 1826C1596.74 1829.58 1601.03 1836.55 1604.31 1841.5C1607.6 1846.45 1613.03 1853.66 1616.39 1857.53C1619.75 1861.39 1626.55 1868.29 1631.5 1872.85C1636.45 1877.42 1644.78 1883.97 1650 1887.41C1655.22 1890.85 1662.65 1895.28 1666.5 1897.24C1670.35 1899.21 1677.78 1902.42 1683 1904.39C1688.22 1906.36 1696.78 1908.97 1702 1910.2C1710.29 1912.15 1714.31 1912.44 1733.5 1912.47C1752.7 1912.5 1756.77 1912.22 1765.5 1910.26C1771 1909.04 1780.22 1906.17 1786 1903.89C1791.78 1901.61 1800.33 1897.69 1805 1895.17C1809.67 1892.65 1815.75 1889.02 1818.5 1887.09C1821.25 1885.17 1826.88 1880.8 1831 1877.38C1835.13 1873.96 1840.79 1868.77 1843.58 1865.83C1846.37 1862.9 1850.68 1858.03 1853.15 1855C1855.61 1851.97 1859.67 1846.58 1862.15 1843C1864.64 1839.42 1868.43 1833.35 1870.58 1829.5C1872.73 1825.65 1876.18 1818.67 1878.27 1814C1880.35 1809.33 1883.12 1802.35 1884.42 1798.5C1885.73 1794.65 1887.49 1789.03 1888.34 1786C1889.2 1782.97 1890.82 1775.1 1891.96 1768.5C1893.57 1759.11 1894.02 1752.2 1894.01 1736.75C1894 1723.08 1893.52 1714.46 1892.44 1708.75C1891.58 1704.21 1890.17 1697.35 1889.29 1693.5C1888.42 1689.65 1886 1681.33 1883.9 1675C1881.81 1668.67 1878.24 1659 1875.98 1653.5C1873.71 1648 1868.79 1637.2 1865.05 1629.5C1861.3 1621.8 1854.43 1608.75 1849.79 1600.5C1845.14 1592.25 1840.31 1583.7 1839.05 1581.5C1837.8 1579.3 1836.03 1576.37 1835.13 1575C1834.23 1573.62 1832.96 1571.59 1832.29 1570.5C1831.63 1569.4 1829.63 1566.03 1827.84 1563C1826.05 1559.97 1823.89 1556.31 1823.04 1554.85C1822.2 1553.39 1817.98 1546.42 1813.67 1539.35C1809.37 1532.28 1804.04 1523.58 1801.83 1520C1799.62 1516.42 1794.67 1508.33 1790.82 1502C1786.98 1495.67 1783.31 1489.6 1782.67 1488.5C1782.03 1487.41 1780.77 1485.38 1779.87 1484C1778.97 1482.63 1777.22 1479.7 1775.98 1477.5C1774.73 1475.3 1772.58 1471.47 1771.2 1469C1769.82 1466.53 1767.71 1462.92 1766.51 1461C1765.32 1459.08 1760.48 1450.53 1755.76 1442C1751.05 1433.47 1744.47 1421.33 1741.14 1415C1737.82 1408.67 1734.71 1403.38 1734.23 1403.23C1733.76 1403.07 1730.77 1408.25 1727.6 1414.73Z" />
		<path id="Path 9" class="shp0" d="M862 1407.05C859.52 1407.49 854.8 1407.88 851.5 1407.92L845.5 1407.98C846.66 1419.23 848.46 1432.74 850.25 1445.26C852.04 1457.79 853.74 1467.91 854.03 1467.76C854.32 1467.62 858.08 1466.15 862.38 1464.5C870.09 1461.55 870.2 1461.45 869.6 1458.5C869.27 1456.85 868.72 1444.36 868.37 1430.75C868.03 1417.14 867.47 1406.06 867.12 1406.13C866.78 1406.19 864.48 1406.61 862 1407.05ZM1014.67 1443.75C1014.43 1444.16 1012.44 1449 1010.23 1454.5C1008.03 1460 1004.79 1469.45 1003.05 1475.5C1001.3 1481.55 999 1488.53 997.93 1491C996.87 1493.47 996.26 1495.72 996.59 1496C996.91 1496.28 999.05 1496.58 1001.34 1496.68C1003.63 1496.77 1006.85 1497.12 1008.5 1497.45C1011.46 1498.04 1011.54 1497.94 1014.71 1489.77C1016.47 1485.22 1020.33 1476.55 1023.3 1470.5C1026.26 1464.45 1029.88 1457.59 1031.34 1455.25C1033.79 1451.34 1033.86 1450.93 1032.25 1450.16C1031.29 1449.7 1027.63 1448.24 1024.12 1446.91C1020.61 1445.58 1017.57 1444.16 1017.37 1443.75C1017.17 1443.34 1016.57 1443 1016.05 1443C1015.53 1443 1014.9 1443.34 1014.67 1443.75ZM656 1467.03C654.63 1468.13 650.91 1470.48 647.74 1472.26C644.58 1474.04 642 1475.95 642.01 1476.5C642.03 1477.05 645.22 1483.58 649.1 1491C652.98 1498.42 659.84 1510.47 664.33 1517.76C668.82 1525.06 672.84 1531.02 673.25 1531.01C673.66 1531.01 677.83 1527.96 682.51 1524.25L691.02 1517.5C686.85 1510.53 681.87 1502.42 677.28 1495C672.68 1487.58 667.02 1477.79 664.71 1473.25C662.39 1468.72 660.05 1465.02 659.5 1465.03C658.95 1465.04 657.38 1465.94 656 1467.03ZM870.5 1518.25C867.2 1518.77 863.89 1519.34 863.14 1519.51C862.06 1519.76 862.57 1523.7 865.64 1538.8C867.76 1549.24 869.73 1558.03 870 1558.32C870.27 1558.62 873.99 1557.77 878.25 1556.43C885.67 1554.1 885.98 1553.88 885.61 1551.25C885.4 1549.74 883.82 1542.42 882.09 1535C880.37 1527.58 878.74 1520.49 878.48 1519.25C878.22 1518.01 877.66 1517.07 877.25 1517.15C876.84 1517.23 873.8 1517.72 870.5 1518.25Z" />
		<path id="Path 10" class="shp3" d="M1946.5 1524.83C1942.1 1526.37 1936.47 1528.91 1934 1530.49C1931.53 1532.07 1927.47 1535.42 1925 1537.95C1922.53 1540.48 1918.85 1545.24 1916.83 1548.52C1914.8 1551.81 1912.22 1557.88 1911.07 1562C1909.87 1566.34 1909 1572.45 1909.01 1576.5C1909.01 1580.35 1909.74 1586.42 1910.62 1590C1911.5 1593.58 1913.52 1598.97 1915.1 1602C1916.68 1605.03 1920.15 1609.97 1922.81 1613C1925.47 1616.03 1930.09 1620.11 1933.08 1622.07C1936.06 1624.04 1940.86 1626.63 1943.75 1627.82C1946.64 1629.02 1952.26 1630.46 1956.25 1631.01C1960.84 1631.65 1966.07 1631.69 1970.5 1631.11C1974.35 1630.62 1979.97 1629.28 1983 1628.14C1986.03 1627 1990.75 1624.6 1993.5 1622.81C1996.25 1621.02 2000.75 1617.25 2003.5 1614.44C2006.25 1611.62 2010.15 1606.21 2012.17 1602.41C2014.45 1598.12 2016.49 1592.28 2017.54 1587C2018.71 1581.16 2019.03 1576.62 2018.56 1572.5C2018.18 1569.2 2017.17 1564.03 2016.31 1561C2015.45 1557.97 2013.06 1552.58 2011 1549C2008.93 1545.42 2004.49 1539.91 2001.12 1536.75C1997.43 1533.28 1992.12 1529.63 1987.75 1527.56C1983.76 1525.66 1978.47 1523.65 1976 1523.08C1973.53 1522.51 1967.67 1522.04 1963 1522.04C1956.24 1522.03 1952.86 1522.6 1946.5 1524.83Z" />
		<path id="Path 11" class="shp0" d="M975.03 1569.25C973.27 1576.54 971.6 1584.53 971.31 1587L970.79 1591.5C978.93 1591 979.06 1590.88 982.1 1584.25C983.8 1580.54 986.5 1574.24 988.1 1570.25L991 1563C982.09 1557.63 979.22 1556.05 978.87 1556.03C978.52 1556.02 976.79 1561.96 975.03 1569.25ZM718.22 1573.85L710.94 1578.5C716.8 1584.46 722.55 1589.55 727.5 1593.67C732.45 1597.78 738.7 1603.03 741.38 1605.32L746.26 1609.5C753.08 1601.75 755.83 1598.48 756.78 1597.22C757.73 1595.97 758.27 1594.81 758 1594.64C757.73 1594.48 754.35 1592.25 750.5 1589.71C746.65 1587.16 739.56 1581.46 734.75 1577.04C729.94 1572.62 725.89 1569.04 725.75 1569.1C725.61 1569.15 722.22 1571.29 718.22 1573.85ZM881.25 1594.66C879.18 1594.88 878 1595.54 878 1596.5C878 1597.33 879.4 1603.74 881.11 1610.75C882.82 1617.76 884.5 1623.79 884.86 1624.15C885.21 1624.51 887.87 1624.29 890.76 1623.65C893.65 1623.02 896.02 1622.28 896.03 1622C896.03 1621.72 895.12 1618.8 894 1615.5C892.88 1612.2 891.41 1606.01 890.73 1601.75C889.56 1594.39 889.37 1594 887 1594.16C885.63 1594.25 883.04 1594.47 881.25 1594.66ZM1319 1633.34C1293.42 1646.12 1267.55 1659.22 1261.5 1662.46C1255.45 1665.7 1239.92 1674.27 1227 1681.5C1214.08 1688.74 1196.3 1698.62 1187.5 1703.46C1178.7 1708.29 1167.67 1714.53 1163 1717.31C1158.33 1720.09 1149.33 1725.8 1143 1730.01C1136.67 1734.21 1130.71 1737.95 1129.75 1738.32C1128.16 1738.94 1127.94 1741.56 1127.38 1766.25C1127.05 1781.24 1127.08 1817.58 1127.45 1847C1128.13 1900.41 1128.13 1900.51 1130.43 1904.5C1132.5 1908.09 1133.4 1908.68 1139.37 1910.25L1146 1912C1329.49 1821.88 1333.71 1819.69 1338.34 1814.71C1341 1811.84 1346.03 1805.22 1349.53 1800C1353.02 1794.78 1357.42 1787.13 1359.3 1783C1361.18 1778.88 1363.94 1772.13 1365.43 1768C1366.92 1763.88 1369.23 1756.22 1370.55 1751C1371.87 1745.78 1373.88 1735.65 1375 1728.5C1376.13 1721.35 1377.33 1709.2 1377.68 1701.5C1378.03 1693.58 1377.79 1679.9 1377.11 1670C1376.45 1660.38 1375.23 1647.33 1374.4 1641C1373.57 1634.67 1372.16 1626.58 1371.26 1623C1370.37 1619.42 1368.9 1615.04 1368 1613.25C1367.1 1611.46 1366.17 1610.03 1365.93 1610.06C1365.69 1610.1 1344.58 1620.57 1319 1633.34Z" />
		<path id="Path 12" class="shp2" d="M1351.92 1627.1C1346.74 1630.87 1336.88 1636.87 1330 1640.42C1323.13 1643.97 1315.25 1648.46 1312.5 1650.39C1309.75 1652.32 1307.16 1653.7 1306.75 1653.45C1306.34 1653.2 1295.76 1658.79 1283.25 1665.87C1270.74 1672.95 1250.83 1684.04 1239 1690.51C1227.17 1696.97 1202.42 1710.03 1184 1719.52C1165.58 1729.01 1147.35 1738.53 1143.5 1740.68C1136.83 1744.42 1136.51 1744.76 1136.69 1748.05C1136.79 1749.95 1137.13 1756.34 1137.44 1762.25L1138 1773C1149.24 1772.17 1158.35 1771.47 1165.5 1770.91C1172.65 1770.35 1185.92 1769 1195 1767.91C1204.08 1766.82 1216.67 1765 1223 1763.87C1229.33 1762.74 1239.45 1760.73 1245.5 1759.4C1251.55 1758.07 1262.13 1755.43 1269 1753.53C1275.88 1751.63 1288.25 1747.78 1296.5 1744.98C1304.75 1742.18 1315.1 1738.16 1319.5 1736.05C1323.9 1733.94 1329.92 1730.03 1332.88 1727.36C1335.84 1724.69 1339.99 1719.58 1342.11 1716C1344.22 1712.42 1348.04 1704.78 1350.58 1699C1353.12 1693.22 1356.68 1683.33 1358.49 1677C1360.3 1670.67 1362.53 1660.33 1363.46 1654C1365.02 1643.33 1365.02 1641.71 1363.52 1631.5C1362.63 1625.45 1361.77 1620.44 1361.62 1620.37C1361.47 1620.3 1357.1 1623.32 1351.92 1627.1Z" />
		<path id="Path 13" class="shp0" d="M785.25 1630.6C782.91 1631.92 781 1633.45 781 1634C781 1634.55 782.91 1635.96 785.25 1637.13C787.59 1638.3 793.21 1641.67 797.75 1644.63C805.01 1649.36 806.21 1649.84 807.75 1648.64C808.71 1647.89 811.64 1646.09 814.25 1644.64L819 1642C797.69 1631.16 791.05 1628.05 790.5 1628.11C789.95 1628.16 787.59 1629.28 785.25 1630.6Z" />
		<path id="Path 14" class="shp3" d="M903.08 1840.75C901.84 1843.36 898.79 1849.1 896.29 1853.5C893.79 1857.9 885.99 1870.28 878.96 1881C871.92 1891.72 864.36 1904.1 862.15 1908.5C859.95 1912.9 857.22 1919.42 856.1 1923C854.98 1926.58 853.6 1932.42 853.04 1936C852.47 1939.58 852.01 1945.09 852.01 1948.25C852 1951.41 852.48 1956.36 853.06 1959.25C853.65 1962.14 855.1 1966.97 856.28 1970C857.46 1973.03 859.55 1977.53 860.92 1980C862.29 1982.47 865.9 1987.02 868.95 1990.1C872 1993.18 876.75 1997.13 879.5 1998.89C882.25 2000.64 887.42 2002.97 891 2004.06C895.36 2005.39 900.3 2006.03 906 2006.02C910.67 2006 916.3 2005.49 918.5 2004.89C920.7 2004.29 925.42 2002.38 928.99 2000.65C933.2 1998.61 937.85 1995.13 942.24 1990.75C947.22 1985.78 950.06 1981.82 953 1975.75C955.2 1971.21 957.73 1963.9 958.63 1959.5C959.69 1954.28 960.07 1948.89 959.74 1944C959.43 1939.47 958 1932.84 956.11 1927.25C954.4 1922.16 951.02 1914.06 948.59 1909.25C946.17 1904.44 937.28 1889.03 928.84 1875C920.4 1860.97 912.12 1846.46 910.45 1842.75C908.77 1839.04 906.93 1836 906.36 1836C905.79 1836 904.31 1838.14 903.08 1840.75ZM762.43 1845.78C759.65 1846.73 755.37 1849.12 752.93 1851.1C750.5 1853.09 747.18 1857.14 745.57 1860.1C743.37 1864.15 742.52 1867.25 742.18 1872.5C741.87 1877.26 742.23 1881.1 743.31 1884.5C744.28 1887.55 746.77 1891.6 749.7 1894.88C752.34 1897.84 756.3 1901.16 758.5 1902.25C760.7 1903.35 764.75 1904.6 767.5 1905.03C770.3 1905.46 774.92 1905.38 778 1904.83C781.02 1904.29 785.3 1902.82 787.5 1901.56C789.7 1900.3 793.44 1897.07 795.81 1894.39C798.66 1891.17 800.66 1887.62 801.69 1884C802.7 1880.45 803.1 1876.19 802.8 1872C802.47 1867.35 801.51 1863.96 799.42 1860.08C797.66 1856.81 794.51 1853.1 791.5 1850.76C788.75 1848.61 784.25 1846.21 781.5 1845.42C778.75 1844.63 774.48 1844 772 1844.02C769.52 1844.05 765.22 1844.84 762.43 1845.78ZM1512 1894.11C1508.42 1894.58 1502.58 1895.94 1499 1897.12C1495.42 1898.31 1490.25 1900.4 1487.5 1901.77C1484.75 1903.15 1480.47 1905.65 1478 1907.34C1475.53 1909.03 1471.3 1912.46 1468.62 1914.96C1465.94 1917.46 1461.84 1921.97 1459.52 1925C1457.19 1928.03 1453.66 1933.65 1451.68 1937.5C1449.69 1941.35 1446.92 1949.11 1445.53 1954.75C1443.73 1962.04 1443.01 1967.67 1443.02 1974.25C1443.03 1980.75 1443.77 1986.33 1445.48 1993C1446.83 1998.22 1449.49 2005.65 1451.39 2009.5C1453.3 2013.35 1457.07 2019.42 1459.77 2023C1462.48 2026.58 1467.12 2031.57 1470.1 2034.11C1473.07 2036.64 1477.97 2040.28 1481 2042.19C1484.03 2044.1 1489.88 2047.04 1494 2048.73C1498.13 2050.41 1504.65 2052.34 1508.5 2053.02C1512.88 2053.8 1519.99 2054.07 1527.5 2053.73C1535.93 2053.36 1541.58 2052.54 1546.5 2050.98C1550.35 2049.76 1555.97 2047.56 1559 2046.09C1562.03 2044.62 1566.53 2042 1569 2040.25C1571.47 2038.51 1575.6 2035.15 1578.16 2032.79C1580.72 2030.43 1584.95 2025.8 1587.56 2022.5C1590.16 2019.2 1593.96 2012.9 1596.01 2008.5C1598.05 2004.1 1600.55 1997.58 1601.56 1994C1602.94 1989.14 1603.4 1984.09 1603.4 1974C1603.4 1964.39 1602.9 1958.63 1601.67 1954C1600.72 1950.42 1598.47 1944.35 1596.66 1940.5C1594.86 1936.65 1591.86 1931.25 1589.99 1928.5C1588.12 1925.75 1584.32 1921.09 1581.55 1918.15C1578.77 1915.2 1574.47 1911.31 1572 1909.5C1569.53 1907.69 1565.03 1904.85 1562 1903.19C1558.97 1901.53 1553.58 1899.06 1550 1897.71C1546.42 1896.35 1539.45 1894.74 1534.5 1894.12C1529.55 1893.51 1523.92 1893.06 1522 1893.13C1520.08 1893.2 1515.58 1893.64 1512 1894.11ZM1289.5 1995.83C1285.1 1997.37 1279.47 1999.91 1277 2001.49C1274.53 2003.07 1270.47 2006.42 1268 2008.95C1265.53 2011.48 1261.85 2016.24 1259.83 2019.52C1257.8 2022.81 1255.22 2028.88 1254.07 2033C1252.87 2037.34 1252 2043.45 1252.01 2047.5C1252.01 2051.35 1252.74 2057.43 1253.62 2061C1254.5 2064.57 1256.52 2069.97 1258.1 2073C1259.68 2076.03 1263.15 2080.97 1265.81 2084C1268.47 2087.03 1273.09 2091.11 1276.08 2093.07C1279.06 2095.04 1283.86 2097.63 1286.75 2098.82C1289.64 2100.02 1295.26 2101.46 1299.25 2102.01C1303.84 2102.65 1309.07 2102.69 1313.5 2102.11C1317.35 2101.62 1322.97 2100.28 1326 2099.14C1329.03 2098 1333.75 2095.6 1336.5 2093.81C1339.25 2092.02 1343.75 2088.25 1346.5 2085.44C1349.25 2082.62 1353.15 2077.21 1355.17 2073.41C1357.45 2069.12 1359.49 2063.28 1360.54 2058C1361.71 2052.16 1362.03 2047.62 1361.56 2043.5C1361.18 2040.2 1360.17 2035.03 1359.31 2032C1358.45 2028.97 1356.06 2023.58 1354 2020C1351.93 2016.42 1347.49 2010.91 1344.12 2007.75C1340.43 2004.28 1335.12 2000.63 1330.75 1998.56C1326.76 1996.66 1321.47 1994.65 1319 1994.08C1316.53 1993.51 1310.67 1993.04 1306 1993.04C1299.24 1993.03 1295.86 1993.6 1289.5 1995.83ZM1081.5 2030.98C1078.2 2032 1073.47 2034.37 1071 2036.23C1068.53 2038.09 1065.13 2041.39 1063.45 2043.56C1061.77 2045.73 1059.37 2050.2 1058.1 2053.5C1056.22 2058.42 1055.87 2060.94 1056.19 2067.5C1056.49 2073.78 1057.2 2076.79 1059.49 2081.5C1061.1 2084.8 1064.35 2089.41 1066.71 2091.75C1069.07 2094.09 1073.36 2097.23 1076.25 2098.74C1081 2101.22 1082.5 2101.49 1092 2101.49C1101.39 2101.5 1103.08 2101.21 1108 2098.8C1111.03 2097.32 1115.48 2094.17 1117.89 2091.8C1120.31 2089.44 1123.65 2084.57 1125.32 2081C1127.38 2076.58 1128.5 2072.42 1128.81 2068C1129.1 2063.83 1128.7 2059.53 1127.7 2056C1126.84 2052.97 1124.6 2048.25 1122.73 2045.5C1120.86 2042.75 1117.12 2038.81 1114.42 2036.73C1111.71 2034.66 1106.58 2032.06 1103 2030.96C1099.42 2029.86 1094.47 2028.99 1092 2029.03C1089.53 2029.08 1084.8 2029.95 1081.5 2030.98Z" />
	</g>
</svg>