<?xml version="1.0" encoding="UTF-8"?>
<svg xmlns="http://www.w3.org/2000/svg" xmlns:xlink="http://www.w3.org/1999/xlink" width="150pt" height="149.999998pt" viewBox="0 0 150 149.999998" version="1.2">
<defs>
<clipPath id="clip1">
  <path d="M 16.90625 20 L 133.15625 20 L 133.15625 130.898438 L 16.90625 130.898438 Z M 16.90625 20 "/>
</clipPath>
<clipPath id="clip2">
  <path d="M 16.90625 18.628906 L 133.15625 18.628906 L 133.15625 130.898438 L 16.90625 130.898438 Z M 16.90625 18.628906 "/>
</clipPath>
<clipPath id="clip3">
  <path d="M 82 18.628906 L 131 18.628906 L 131 49 L 82 49 Z M 82 18.628906 "/>
</clipPath>
<clipPath id="clip4">
  <path d="M 16.90625 18.628906 L 57 18.628906 L 57 55 L 16.90625 55 Z M 16.90625 18.628906 "/>
</clipPath>
<clipPath id="clip5">
  <path d="M 16.90625 20 L 133.15625 20 L 133.15625 130.898438 L 16.90625 130.898438 Z M 16.90625 20 "/>
</clipPath>
<clipPath id="clip6">
  <path d="M 16.90625 18.628906 L 133.15625 18.628906 L 133.15625 130.898438 L 16.90625 130.898438 Z M 16.90625 18.628906 "/>
</clipPath>
<clipPath id="clip7">
  <path d="M 82 18.628906 L 131 18.628906 L 131 49 L 82 49 Z M 82 18.628906 "/>
</clipPath>
<clipPath id="clip8">
  <path d="M 16.90625 18.628906 L 57 18.628906 L 57 55 L 16.90625 55 Z M 16.90625 18.628906 "/>
</clipPath>
</defs>
<g id="surface1">
<path style=" stroke:none;fill-rule:nonzero;fill:rgb(94.898987%,43.139648%,14.509583%);fill-opacity:1;" d="M 75 0 C 73.773438 0 72.546875 0.03125 71.320312 0.0898438 C 70.09375 0.152344 68.871094 0.242188 67.648438 0.359375 C 66.425781 0.480469 65.210938 0.632812 63.996094 0.8125 C 62.78125 0.992188 61.570312 1.203125 60.367188 1.441406 C 59.164062 1.679688 57.96875 1.949219 56.777344 2.246094 C 55.585938 2.546875 54.402344 2.875 53.230469 3.230469 C 52.054688 3.585938 50.890625 3.96875 49.734375 4.382812 C 48.578125 4.796875 47.433594 5.238281 46.296875 5.710938 C 45.164062 6.179688 44.042969 6.675781 42.933594 7.199219 C 41.824219 7.726562 40.726562 8.277344 39.644531 8.855469 C 38.5625 9.433594 37.496094 10.039062 36.441406 10.671875 C 35.390625 11.300781 34.351562 11.957031 33.332031 12.640625 C 32.3125 13.320312 31.308594 14.027344 30.324219 14.757812 C 29.335938 15.492188 28.371094 16.246094 27.421875 17.023438 C 26.472656 17.804688 25.542969 18.605469 24.632812 19.429688 C 23.722656 20.253906 22.835938 21.097656 21.96875 21.96875 C 21.097656 22.835938 20.253906 23.722656 19.429688 24.632812 C 18.605469 25.542969 17.804688 26.472656 17.023438 27.421875 C 16.246094 28.371094 15.492188 29.335938 14.757812 30.324219 C 14.027344 31.308594 13.320312 32.3125 12.640625 33.332031 C 11.957031 34.351562 11.300781 35.390625 10.671875 36.441406 C 10.039062 37.496094 9.433594 38.5625 8.855469 39.644531 C 8.277344 40.726562 7.726562 41.824219 7.199219 42.933594 C 6.675781 44.042969 6.179688 45.164062 5.710938 46.296875 C 5.238281 47.433594 4.796875 48.578125 4.382812 49.734375 C 3.96875 50.890625 3.585938 52.054688 3.230469 53.230469 C 2.875 54.402344 2.546875 55.585938 2.246094 56.777344 C 1.949219 57.96875 1.679688 59.164062 1.441406 60.367188 C 1.203125 61.570312 0.992188 62.78125 0.8125 63.996094 C 0.632812 65.210938 0.480469 66.425781 0.359375 67.648438 C 0.242188 68.871094 0.152344 70.09375 0.0898438 71.320312 C 0.03125 72.546875 0 73.773438 0 75 C 0 76.226562 0.03125 77.453125 0.0898438 78.679688 C 0.152344 79.90625 0.242188 81.128906 0.359375 82.351562 C 0.480469 83.574219 0.632812 84.789062 0.8125 86.003906 C 0.992188 87.21875 1.203125 88.429688 1.441406 89.632812 C 1.679688 90.835938 1.949219 92.03125 2.246094 93.222656 C 2.546875 94.414062 2.875 95.597656 3.230469 96.769531 C 3.585938 97.945312 3.96875 99.109375 4.382812 100.265625 C 4.796875 101.421875 5.238281 102.566406 5.710938 103.703125 C 6.179688 104.835938 6.675781 105.957031 7.199219 107.066406 C 7.726562 108.175781 8.277344 109.273438 8.855469 110.355469 C 9.433594 111.4375 10.039062 112.503906 10.671875 113.558594 C 11.300781 114.609375 11.957031 115.648438 12.640625 116.667969 C 13.320312 117.6875 14.027344 118.691406 14.757812 119.675781 C 15.492188 120.664062 16.246094 121.628906 17.023438 122.578125 C 17.804688 123.527344 18.605469 124.457031 19.429688 125.367188 C 20.253906 126.277344 21.097656 127.164062 21.96875 128.03125 C 22.835938 128.902344 23.722656 129.746094 24.632812 130.570312 C 25.542969 131.394531 26.472656 132.195312 27.421875 132.976562 C 28.371094 133.753906 29.335938 134.507812 30.324219 135.242188 C 31.308594 135.972656 32.3125 136.679688 33.332031 137.359375 C 34.351562 138.042969 35.390625 138.699219 36.441406 139.328125 C 37.496094 139.960938 38.5625 140.566406 39.644531 141.144531 C 40.726562 141.722656 41.824219 142.273438 42.933594 142.800781 C 44.042969 143.324219 45.164062 143.820312 46.296875 144.289062 C 47.433594 144.761719 48.578125 145.203125 49.734375 145.617188 C 50.890625 146.027344 52.054688 146.414062 53.230469 146.769531 C 54.402344 147.125 55.585938 147.453125 56.777344 147.753906 C 57.96875 148.050781 59.164062 148.320312 60.367188 148.558594 C 61.570312 148.796875 62.78125 149.007812 63.996094 149.1875 C 65.210938 149.367188 66.425781 149.519531 67.648438 149.640625 C 68.871094 149.757812 70.09375 149.847656 71.320312 149.910156 C 72.546875 149.96875 73.773438 150 75 150 C 76.226562 150 77.453125 149.96875 78.679688 149.910156 C 79.90625 149.847656 81.128906 149.757812 82.351562 149.640625 C 83.574219 149.519531 84.789062 149.367188 86.003906 149.1875 C 87.21875 149.007812 88.429688 148.796875 89.632812 148.558594 C 90.835938 148.320312 92.03125 148.050781 93.222656 147.753906 C 94.414062 147.453125 95.597656 147.125 96.769531 146.769531 C 97.945312 146.414062 99.109375 146.027344 100.265625 145.617188 C 101.421875 145.203125 102.566406 144.761719 103.703125 144.289062 C 104.835938 143.820312 105.957031 143.324219 107.066406 142.800781 C 108.175781 142.273438 109.273438 141.722656 110.355469 141.144531 C 111.4375 140.566406 112.503906 139.960938 113.558594 139.328125 C 114.609375 138.699219 115.648438 138.042969 116.667969 137.359375 C 117.6875 136.679688 118.691406 135.972656 119.675781 135.242188 C 120.664062 134.507812 121.628906 133.753906 122.578125 132.976562 C 123.527344 132.195312 124.457031 131.394531 125.367188 130.570312 C 126.277344 129.746094 127.164062 128.902344 128.03125 128.03125 C 128.902344 127.164062 129.746094 126.277344 130.570312 125.367188 C 131.394531 124.457031 132.195312 123.527344 132.976562 122.578125 C 133.753906 121.628906 134.507812 120.664062 135.242188 119.675781 C 135.972656 118.691406 136.679688 117.6875 137.359375 116.667969 C 138.042969 115.648438 138.699219 114.609375 139.328125 113.558594 C 139.960938 112.503906 140.566406 111.4375 141.144531 110.355469 C 141.722656 109.273438 142.273438 108.175781 142.800781 107.066406 C 143.324219 105.957031 143.820312 104.835938 144.289062 103.703125 C 144.761719 102.566406 145.203125 101.421875 145.617188 100.265625 C 146.027344 99.109375 146.414062 97.945312 146.769531 96.769531 C 147.125 95.597656 147.453125 94.414062 147.753906 93.222656 C 148.050781 92.03125 148.320312 90.835938 148.558594 89.632812 C 148.796875 88.429688 149.007812 87.21875 149.1875 86.003906 C 149.367188 84.789062 149.519531 83.574219 149.640625 82.351562 C 149.757812 81.128906 149.847656 79.90625 149.910156 78.679688 C 149.96875 77.453125 150 76.226562 150 75 C 150 73.773438 149.96875 72.546875 149.910156 71.320312 C 149.847656 70.09375 149.757812 68.871094 149.640625 67.648438 C 149.519531 66.425781 149.367188 65.210938 149.1875 63.996094 C 149.007812 62.78125 148.796875 61.570312 148.558594 60.367188 C 148.320312 59.164062 148.050781 57.96875 147.753906 56.777344 C 147.453125 55.585938 147.125 54.402344 146.769531 53.230469 C 146.414062 52.054688 146.027344 50.890625 145.617188 49.734375 C 145.203125 48.578125 144.761719 47.433594 144.289062 46.296875 C 143.820312 45.164062 143.324219 44.042969 142.800781 42.933594 C 142.273438 41.824219 141.722656 40.726562 141.144531 39.644531 C 140.566406 38.5625 139.960938 37.496094 139.328125 36.441406 C 138.699219 35.390625 138.042969 34.351562 137.359375 33.332031 C 136.679688 32.3125 135.972656 31.308594 135.242188 30.324219 C 134.507812 29.335938 133.753906 28.371094 132.976562 27.421875 C 132.195312 26.472656 131.394531 25.542969 130.570312 24.632812 C 129.746094 23.722656 128.902344 22.835938 128.03125 21.96875 C 127.164062 21.097656 126.277344 20.253906 125.367188 19.429688 C 124.457031 18.605469 123.527344 17.804688 122.578125 17.023438 C 121.628906 16.246094 120.664062 15.492188 119.675781 14.757812 C 118.691406 14.027344 117.6875 13.320312 116.667969 12.640625 C 115.648438 11.957031 114.609375 11.300781 113.558594 10.671875 C 112.503906 10.039062 111.4375 9.433594 110.355469 8.855469 C 109.273438 8.277344 108.175781 7.726562 107.066406 7.199219 C 105.957031 6.675781 104.835938 6.179688 103.703125 5.710938 C 102.566406 5.238281 101.421875 4.796875 100.265625 4.382812 C 99.109375 3.96875 97.945312 3.585938 96.769531 3.230469 C 95.597656 2.875 94.414062 2.546875 93.222656 2.246094 C 92.03125 1.949219 90.835938 1.679688 89.632812 1.441406 C 88.429688 1.203125 87.21875 0.992188 86.003906 0.8125 C 84.789062 0.632812 83.574219 0.480469 82.351562 0.359375 C 81.128906 0.242188 79.90625 0.152344 78.679688 0.0898438 C 77.453125 0.03125 76.226562 0 75 0 Z M 75 0 "/>
<path style=" stroke:none;fill-rule:nonzero;fill:rgb(100%,100%,100%);fill-opacity:1;" d="M 56.949219 81.394531 C 57.542969 83.894531 58.210938 86.824219 59.273438 89.121094 C 60.332031 91.414062 61.839844 93.992188 63.414062 95.898438 C 65.003906 97.785156 66.898438 99.394531 69.09375 100.347656 C 71.246094 101.320312 73.773438 101.695312 76.03125 101.332031 C 78.371094 100.957031 80.738281 99.808594 82.488281 98.152344 C 84.269531 96.519531 85.519531 94.808594 86.671875 92.605469 C 87.804688 90.382812 88.855469 87.097656 89.601562 84.675781 C 90.011719 83.339844 90.191406 82.046875 90.390625 80.667969 C 90.480469 80.039062 90.496094 79.3125 90.589844 78.679688 C 90.667969 78.054688 90.828125 77.40625 90.707031 76.789062 C 90.933594 77.394531 90.882812 78.066406 90.910156 78.703125 C 90.90625 79.351562 90.875 79.996094 90.828125 80.640625 C 90.738281 81.933594 90.554688 83.214844 90.332031 84.492188 C 89.851562 87.042969 89.140625 89.570312 88.074219 91.984375 C 87.035156 94.402344 85.59375 96.707031 83.664062 98.644531 C 81.734375 100.574219 79.164062 102 76.398438 102.480469 C 76.058594 102.539062 75.703125 102.582031 75.335938 102.617188 C 74.976562 102.648438 74.632812 102.625 74.277344 102.625 C 73.925781 102.632812 73.578125 102.605469 73.234375 102.566406 C 72.894531 102.527344 72.546875 102.519531 72.207031 102.445312 C 70.835938 102.246094 69.488281 101.828125 68.246094 101.222656 C 65.753906 100.007812 63.664062 98.140625 62.109375 95.980469 C 60.523438 93.828125 59.382812 91.433594 58.523438 88.976562 C 57.703125 86.507812 57.082031 83.972656 56.949219 81.394531 Z M 56.949219 81.394531 "/>
<path style=" stroke:none;fill-rule:nonzero;fill:rgb(100%,100%,100%);fill-opacity:1;" d="M 60.40625 118.929688 C 22.980469 123.59375 25.546875 102.820312 25.546875 102.820312 L 24.238281 106.976562 C 22.542969 102.675781 22.21875 98.761719 22.21875 98.761719 L 20.691406 101.335938 C 20.578125 100.234375 19.839844 95.71875 21.226562 90.0625 C 19.917969 92.90625 17.871094 96.828125 17.871094 96.828125 C 17.871094 96.828125 14.628906 73.871094 28.289062 59.71875 C 28.289062 59.71875 37.507812 51.800781 54.796875 59.359375 C 63.730469 29.179688 84.875 30.035156 90.34375 57.785156 C 90.34375 57.785156 100.003906 46.589844 115.851562 53.625 C 139.136719 66.359375 131.269531 101.15625 131.269531 101.15625 C 131.269531 101.15625 129.421875 96.65625 128.453125 94.152344 C 129.394531 99.898438 128.3125 104.34375 128.109375 105.4375 L 126.789062 102.753906 C 126.789062 102.753906 125.742188 107.765625 124.140625 110.789062 L 123.15625 106.542969 C 123.15625 106.542969 123.996094 127.566406 87.152344 119.949219 "/>
<g clip-path="url(#clip1)" clip-rule="nonzero">
<path style="fill:none;stroke-width:2;stroke-linecap:butt;stroke-linejoin:miter;stroke:rgb(94.898987%,43.139648%,14.509583%);stroke-opacity:1;stroke-miterlimit:10;" d="M 75.543597 175.111236 C 10.550608 183.254402 15.007387 146.985262 15.007387 146.985262 L 12.734904 154.241818 C 9.790853 146.732919 9.22782 139.899207 9.22782 139.899207 L 6.57546 144.393634 C 6.378738 142.470374 5.096651 134.586372 7.504804 124.710908 C 5.232322 129.67592 1.677753 136.523272 1.677753 136.523272 C 1.677753 136.523272 -3.952576 96.441712 19.769424 71.732593 C 19.769424 71.732593 35.778551 57.908308 65.802449 71.105146 C 81.31638 18.413274 118.03562 19.90687 127.532561 68.356657 C 127.532561 68.356657 144.308227 48.810333 171.829003 61.093281 C 212.265618 83.326714 198.603591 144.079911 198.603591 144.079911 C 198.603591 144.079911 195.394982 136.223189 193.712667 131.851523 C 195.347497 141.883848 193.46846 149.645089 193.115716 151.554709 L 190.822883 146.86932 C 190.822883 146.86932 189.004898 155.619472 186.223651 160.898207 L 184.514202 153.48479 C 184.514202 153.48479 185.97266 190.190414 121.990418 176.891275 " transform="matrix(0.575843,0,0,0.572758,16.904971,18.633339)"/>
</g>
<path style=" stroke:none;fill-rule:nonzero;fill:rgb(100%,100%,100%);fill-opacity:1;" d="M 88.1875 29.515625 C 96.589844 13.09375 114.570312 21.214844 114.570312 21.214844 C 114.726562 26.503906 119.109375 30.824219 119.109375 30.824219 C 126.09375 42.753906 115.851562 53.621094 115.851562 53.621094 C 139.125 66.171875 131.269531 101.15625 131.269531 101.15625 C 131.269531 101.15625 129.621094 97.285156 128.453125 94.152344 C 129.339844 101.320312 128.324219 104.070312 128.109375 105.4375 L 126.789062 102.753906 C 126.789062 102.753906 125.855469 107.394531 124.140625 110.789062 L 123.15625 106.542969 C 123.15625 106.542969 124.089844 127.488281 87.152344 119.949219 C 85.484375 123.574219 80.417969 129.710938 74.46875 129.808594 C 68.882812 129.898438 62.417969 124.238281 60.410156 118.929688 C 23 123.632812 25.546875 102.820312 25.546875 102.820312 L 24.238281 106.976562 C 22.789062 103.460938 22.21875 98.765625 22.21875 98.765625 L 20.691406 101.339844 C 20.589844 99.960938 19.785156 97.136719 21.226562 90.0625 C 19.816406 93.097656 17.875 96.828125 17.875 96.828125 C 17.875 96.828125 14.371094 74.464844 28.289062 59.71875 C 28.289062 59.71875 13.816406 47.8125 22.394531 32.957031 C 22.394531 32.957031 26.65625 29.222656 27.277344 23.417969 C 27.277344 23.417969 42.832031 17.527344 53.507812 30.3125 C 53.507812 30.3125 59.320312 28.171875 65.472656 28.828125 C 65.472656 28.828125 63.277344 27.753906 59.628906 23.628906 L 70.714844 29.089844 C 70.714844 29.089844 67.925781 26.175781 65.011719 23.414062 L 74.070312 28.28125 C 74.070312 28.28125 71.972656 25.476562 69.113281 22.570312 C 69.113281 22.570312 77.570312 24.796875 80.527344 30.152344 C 80.527344 30.152344 82.453125 28.355469 88.1875 29.515625 Z M 88.1875 29.515625 "/>
<g clip-path="url(#clip2)" clip-rule="nonzero">
<path style="fill:none;stroke-width:2;stroke-linecap:butt;stroke-linejoin:miter;stroke:rgb(94.898987%,43.139648%,14.509583%);stroke-opacity:1;stroke-miterlimit:10;" d="M 123.788053 18.9998 C 138.379423 -9.67178 169.604006 4.507148 169.604006 4.507148 C 169.875347 13.741525 177.486466 21.284524 177.486466 21.284524 C 189.615415 42.113022 171.829003 61.086461 171.829003 61.086461 C 212.245267 82.999351 198.603591 144.079911 198.603591 144.079911 C 198.603591 144.079911 195.740942 137.32122 193.712667 131.851523 C 195.252528 144.366354 193.48881 149.167684 193.115716 151.554709 L 190.822883 146.86932 C 190.822883 146.86932 189.20162 154.971565 186.223651 160.898207 L 184.514202 153.48479 C 184.514202 153.48479 186.135465 190.054013 121.990418 176.891275 C 119.093851 183.220301 110.295614 193.934634 99.9643 194.105135 C 90.263854 194.261997 79.037114 184.379714 75.55038 175.111236 C 10.584526 183.322602 15.007387 146.985262 15.007387 146.985262 L 12.734904 154.241818 C 10.218215 148.103753 9.22782 139.906027 9.22782 139.906027 L 6.57546 144.400454 C 6.399089 141.992969 5.001682 137.062058 7.504804 124.710908 C 5.05595 130.010104 1.684536 136.523272 1.684536 136.523272 C 1.684536 136.523272 -4.400289 97.478363 19.769424 71.732593 C 19.769424 71.732593 -5.36355 50.945015 9.533079 25.008283 C 9.533079 25.008283 16.933909 18.488295 18.01249 8.353669 C 18.01249 8.353669 45.024501 -1.930999 63.563885 20.391095 C 63.563885 20.391095 73.657776 16.653696 84.341833 17.799468 C 84.341833 17.799468 80.52949 15.923948 74.193674 8.721952 L 93.445329 18.256412 C 93.445329 18.256412 88.601889 13.168639 83.541377 8.346849 L 99.27238 16.844658 C 99.27238 16.844658 95.629625 11.947846 90.664082 6.873713 C 90.664082 6.873713 105.350422 10.761154 110.485553 20.111472 C 110.485553 20.111472 113.829833 16.974239 123.788053 18.9998 Z M 123.788053 18.9998 " transform="matrix(0.575843,0,0,0.572758,16.904971,18.633339)"/>
</g>
<path style=" stroke:none;fill-rule:nonzero;fill:rgb(100%,100%,100%);fill-opacity:1;" d="M 89.230469 29.222656 C 92.222656 29.617188 95.167969 30.414062 97.992188 31.523438 C 100.816406 32.625 103.539062 34.054688 105.992188 35.902344 C 108.433594 37.738281 110.585938 40.046875 112.027344 42.773438 C 112.730469 44.144531 113.230469 45.605469 113.535156 47.097656 C 113.796875 48.601562 113.847656 50.121094 113.703125 51.605469 C 113.546875 50.117188 113.363281 48.648438 112.902344 47.25 C 112.460938 45.851562 111.859375 44.523438 111.121094 43.273438 C 109.585938 40.8125 107.539062 38.691406 105.183594 36.949219 C 102.863281 35.164062 100.261719 33.730469 97.582031 32.460938 C 94.886719 31.222656 92.109375 30.113281 89.230469 29.222656 Z M 89.230469 29.222656 "/>
<path style=" stroke:none;fill-rule:nonzero;fill:rgb(100%,100%,100%);fill-opacity:1;" d="M 50.816406 31.335938 L 50.929688 31.261719 L 50.972656 31.226562 C 51 31.277344 50.949219 31.253906 50.941406 31.273438 L 50.703125 31.398438 L 50.242188 31.671875 L 49.328125 32.222656 C 48.726562 32.597656 48.128906 32.988281 47.546875 33.394531 C 46.367188 34.183594 45.21875 35.015625 44.097656 35.871094 C 41.867188 37.59375 39.738281 39.441406 37.863281 41.511719 C 35.976562 43.558594 34.339844 45.839844 33.175781 48.351562 C 32.027344 50.863281 31.382812 53.628906 31.449219 56.480469 C 30.863281 53.6875 31.164062 50.675781 32.21875 47.957031 C 33.246094 45.21875 34.933594 42.773438 36.878906 40.625 C 38.851562 38.488281 41.089844 36.628906 43.496094 35.035156 C 44.695312 34.234375 45.9375 33.507812 47.214844 32.84375 C 47.859375 32.519531 48.507812 32.207031 49.164062 31.914062 L 50.152344 31.492188 L 50.660156 31.308594 L 50.921875 31.226562 C 50.949219 31.234375 50.949219 31.179688 51.003906 31.242188 C 50.976562 31.269531 50.960938 31.269531 50.941406 31.28125 Z M 50.816406 31.335938 "/>
<path style=" stroke:none;fill-rule:nonzero;fill:rgb(100%,100%,100%);fill-opacity:1;" d="M 114.570312 21.214844 C 114.570312 21.214844 104.601562 18.203125 98.378906 32.519531 Z M 114.570312 21.214844 "/>
<g clip-path="url(#clip3)" clip-rule="nonzero">
<path style="fill:none;stroke-width:2;stroke-linecap:butt;stroke-linejoin:miter;stroke:rgb(94.898987%,43.139648%,14.509583%);stroke-opacity:1;stroke-miterlimit:10;" d="M 169.604006 4.507148 C 169.604006 4.507148 152.29244 -0.751127 141.486279 24.244435 " transform="matrix(0.575843,0,0,0.572758,16.904971,18.633339)"/>
</g>
<path style=" stroke:none;fill-rule:nonzero;fill:rgb(100%,100%,100%);fill-opacity:1;" d="M 27.265625 23.53125 C 27.265625 23.53125 35.160156 20.570312 40.40625 38.085938 Z M 27.265625 23.53125 "/>
<g clip-path="url(#clip4)" clip-rule="nonzero">
<path style="fill:none;stroke-width:2;stroke-linecap:butt;stroke-linejoin:miter;stroke:rgb(94.898987%,43.139648%,14.509583%);stroke-opacity:1;stroke-miterlimit:10;" d="M 17.992139 8.551451 C 17.992139 8.551451 31.701651 3.381837 40.81193 33.963037 " transform="matrix(0.575843,0,0,0.572758,16.904971,18.633339)"/>
</g>
<path style=" stroke:none;fill-rule:nonzero;fill:rgb(100%,100%,100%);fill-opacity:1;" d="M 92.878906 67.183594 C 93.667969 67.046875 94.480469 67.183594 95.234375 67.46875 C 95.988281 67.761719 96.695312 68.238281 97.238281 68.871094 C 97.785156 69.492188 98.183594 70.261719 98.328125 71.0625 C 98.515625 71.855469 98.441406 72.671875 98.207031 73.417969 C 97.890625 72.683594 97.675781 72.003906 97.347656 71.390625 C 97.054688 70.769531 96.664062 70.234375 96.238281 69.734375 C 95.382812 68.722656 94.234375 67.972656 92.878906 67.183594 Z M 92.878906 67.183594 "/>
<path style="fill-rule:nonzero;fill:rgb(100%,100%,100%);fill-opacity:1;stroke-width:2;stroke-linecap:butt;stroke-linejoin:miter;stroke:rgb(94.898987%,43.139648%,14.509583%);stroke-opacity:1;stroke-miterlimit:10;" d="M 57.167017 90.637831 C 57.167017 90.637831 73.271115 111.57545 100.059269 94.259289 C 100.059269 94.259289 116.176934 109.358927 137.958844 87.67792 " transform="matrix(0.575843,0,0,0.572758,16.904971,18.633339)"/>
<path style=" stroke:none;fill-rule:nonzero;fill:rgb(100%,100%,100%);fill-opacity:1;" d="M 47.117188 73.6875 C 47.046875 72.894531 47.257812 72.101562 47.613281 71.382812 C 47.972656 70.664062 48.511719 70.007812 49.195312 69.523438 C 49.867188 69.035156 50.675781 68.710938 51.492188 68.640625 C 52.300781 68.523438 53.117188 68.667969 53.847656 68.96875 C 53.078125 69.214844 52.378906 69.367188 51.734375 69.636719 C 51.082031 69.871094 50.511719 70.214844 49.972656 70.589844 C 48.882812 71.347656 48.027344 72.417969 47.117188 73.6875 Z M 47.117188 73.6875 "/>
<path style="fill-rule:nonzero;fill:rgb(100%,100%,100%);fill-opacity:1;stroke-width:2;stroke-linecap:butt;stroke-linejoin:miter;stroke:rgb(94.898987%,43.139648%,14.509583%);stroke-opacity:1;stroke-miterlimit:10;" d="M 77.992451 101.549945 C 78.976062 111.657291 80.787264 123.790198 88.642591 131.039934 C 90.080699 132.369848 91.661261 133.542901 93.330009 134.572731 C 95.392202 135.854905 97.691818 136.946116 100.127105 136.946116 C 106.625725 136.959757 110.254913 130.214706 112.581663 125.113292 C 114.704908 120.462004 116.122665 115.490171 116.997741 110.456959 C 117.099493 109.863613 118.456199 99.763087 118.001703 99.722166 C 118.001703 99.722166 102.209648 98.364972 99.591206 94.40251 C 98.953554 94.218369 90.48771 101.283963 77.992451 101.549945 Z M 77.992451 101.549945 " transform="matrix(0.575843,0,0,0.572758,16.904971,18.633339)"/>
<path style=" stroke:none;fill-rule:nonzero;fill:rgb(100%,100%,100%);fill-opacity:1;" d="M 54.363281 45.515625 C 52.199219 44.5 49.300781 46.09375 47.882812 49.070312 C 46.46875 52.050781 47.070312 55.285156 49.234375 56.296875 C 51.394531 57.3125 54.296875 55.71875 55.714844 52.738281 C 57.128906 49.761719 56.527344 46.527344 54.363281 45.515625 Z M 54.148438 52.460938 C 54.011719 53.382812 53.457031 54.066406 52.90625 53.988281 C 52.351562 53.910156 52.015625 53.097656 52.148438 52.175781 C 52.285156 51.253906 52.839844 50.570312 53.390625 50.648438 C 53.945312 50.726562 54.28125 51.539062 54.148438 52.460938 Z M 54.148438 52.460938 "/>
<path style=" stroke:none;fill-rule:nonzero;fill:rgb(100%,100%,100%);fill-opacity:1;" d="M 96.808594 45.378906 C 95.417969 42.390625 92.527344 40.773438 90.355469 41.769531 C 88.1875 42.765625 87.554688 45.992188 88.945312 48.980469 C 90.339844 51.972656 93.226562 53.589844 95.398438 52.59375 C 97.570312 51.601562 98.199219 48.371094 96.808594 45.378906 Z M 92.105469 49.824219 C 91.625 50.109375 90.847656 49.6875 90.367188 48.886719 C 89.886719 48.085938 89.886719 47.207031 90.367188 46.925781 C 90.847656 46.640625 91.621094 47.0625 92.101562 47.863281 C 92.582031 48.664062 92.582031 49.542969 92.105469 49.824219 Z M 92.105469 49.824219 "/>
<path style="fill-rule:nonzero;fill:rgb(100%,100%,100%);fill-opacity:1;stroke-width:1.374;stroke-linecap:butt;stroke-linejoin:miter;stroke:rgb(94.898987%,43.139648%,14.509583%);stroke-opacity:1;stroke-miterlimit:10;" d="M 95.324366 46.559709 C 85.216909 48.107865 80.52949 61.89123 81.051822 70.593641 C 81.397782 76.342961 84.070492 81.97634 88.649374 85.563698 C 93.336792 89.232896 100.072836 91.415319 105.458958 88.475868 C 111.754073 85.038552 115.830974 78.811827 116.461842 71.657572 C 117.045225 65.055743 114.284329 58.222031 110.166727 53.141078 C 106.544323 48.673931 101.219253 45.65946 95.324366 46.559709 Z M 95.324366 46.559709 " transform="matrix(0.575843,0,0,0.572758,16.904971,18.633339)"/>
<path style=" stroke:none;fill-rule:nonzero;fill:rgb(100%,100%,100%);fill-opacity:1;" d="M 80.34375 49.070312 C 78.257812 46.511719 75.191406 44.785156 71.796875 45.300781 C 65.976562 46.1875 63.277344 54.082031 63.578125 59.066406 C 63.777344 62.359375 65.316406 65.585938 67.953125 67.640625 C 70.652344 69.742188 74.53125 70.992188 77.632812 69.308594 C 81.257812 67.339844 83.605469 63.773438 83.96875 59.675781 C 84.304688 55.894531 82.714844 51.980469 80.34375 49.070312 Z M 68.941406 58.011719 C 68.695312 59.605469 67.761719 60.789062 66.859375 60.652344 C 65.953125 60.515625 65.421875 59.109375 65.667969 57.515625 C 65.914062 55.921875 66.84375 54.738281 67.75 54.875 C 68.652344 55.011719 69.183594 56.417969 68.941406 58.011719 Z M 81.992188 58.25 C 81.148438 58.597656 79.960938 57.667969 79.339844 56.179688 C 78.71875 54.6875 78.898438 53.195312 79.746094 52.851562 C 80.589844 52.503906 81.777344 53.433594 82.398438 54.925781 C 83.019531 56.414062 82.835938 57.90625 81.992188 58.25 Z M 81.992188 58.25 "/>
<path style=" stroke:none;fill-rule:nonzero;fill:rgb(100%,100%,100%);fill-opacity:1;" d="M 84.855469 75.75 C 84.855469 75.75 75.761719 74.972656 74.253906 72.707031 C 73.886719 72.597656 69.011719 76.644531 61.816406 76.796875 C 62.382812 82.585938 63.425781 89.535156 67.949219 93.6875 C 68.777344 94.449219 69.6875 95.121094 70.648438 95.710938 C 71.835938 96.445312 73.160156 97.070312 74.558594 97.070312 C 78.304688 97.078125 80.394531 93.214844 81.734375 90.292969 C 82.957031 87.628906 83.773438 84.78125 84.277344 81.894531 C 84.335938 81.5625 85.117188 75.773438 84.855469 75.75 Z M 78.84375 90.929688 C 78.300781 91.824219 77.628906 92.640625 76.863281 93.359375 C 76.132812 94.039062 75.167969 94.945312 74.125 95.03125 C 73.988281 95.039062 73.851562 95.039062 73.71875 95.019531 C 73.238281 94.957031 72.804688 94.714844 72.402344 94.453125 C 70.660156 93.320312 69.222656 91.734375 68.242188 89.910156 C 67.523438 88.578125 67.117188 87.324219 66.660156 85.898438 C 66.617188 85.773438 66.421875 84.675781 66.636719 84.335938 C 66.835938 84.015625 66.867188 84.089844 67.167969 83.851562 C 68 83.1875 69.082031 82.777344 70.261719 82.746094 C 71.453125 82.710938 72.546875 83.054688 73.410156 83.664062 C 74.246094 83.007812 75.316406 82.601562 76.5 82.566406 C 77.761719 82.53125 80.300781 83.125 80.414062 84.53125 C 80.433594 84.738281 80.441406 84.945312 80.445312 85.148438 C 80.488281 87.179688 79.90625 89.199219 78.84375 90.929688 Z M 78.84375 90.929688 "/>
<path style="fill-rule:nonzero;fill:rgb(100%,100%,100%);fill-opacity:1;stroke-width:2;stroke-linecap:butt;stroke-linejoin:miter;stroke:rgb(94.898987%,43.139648%,14.509583%);stroke-opacity:1;stroke-miterlimit:10;" d="M 110.343099 116.131258 C 110.417718 119.677695 109.406972 123.203672 107.561852 126.224964 C 106.618942 127.78676 105.452175 129.212155 104.122603 130.467048 C 102.854083 131.653741 101.178552 133.235997 99.367349 133.386039 C 99.129926 133.399679 98.892502 133.399679 98.661862 133.365579 C 97.827488 133.256458 97.074517 132.833613 96.375813 132.376668 C 93.350359 130.398848 90.854021 127.629899 89.151355 124.444925 C 87.903186 122.119281 87.143431 119.759536 86.349758 117.27021 C 86.281923 117.051968 86.275139 114.828625 86.424377 114.644483 C 86.824605 114.126157 86.770337 114.283019 87.285885 113.866994 C 88.730776 112.700762 90.609814 111.991475 92.65844 111.930094 C 94.727416 111.868714 96.626804 112.4757 98.125964 113.532811 C 99.577639 112.393859 101.436326 111.677752 103.491735 111.623191 C 105.682815 111.56181 110.092108 112.598461 110.288831 115.053687 C 110.315965 115.415151 110.336315 115.769794 110.343099 116.131258 Z M 110.343099 116.131258 " transform="matrix(0.575843,0,0,0.572758,16.904971,18.633339)"/>
<path style=" stroke:none;fill-rule:nonzero;fill:rgb(94.898987%,43.139648%,14.509583%);fill-opacity:1;" d="M 56.949219 81.394531 C 57.542969 83.894531 58.210938 86.824219 59.273438 89.121094 C 60.332031 91.414062 61.839844 93.992188 63.414062 95.898438 C 65.003906 97.785156 66.898438 99.394531 69.09375 100.347656 C 71.246094 101.320312 73.773438 101.695312 76.03125 101.332031 C 78.371094 100.957031 80.738281 99.808594 82.488281 98.152344 C 84.269531 96.519531 85.519531 94.808594 86.671875 92.605469 C 87.804688 90.382812 88.855469 87.097656 89.601562 84.675781 C 90.011719 83.339844 90.191406 82.046875 90.390625 80.667969 C 90.480469 80.039062 90.496094 79.3125 90.589844 78.679688 C 90.667969 78.054688 90.828125 77.40625 90.707031 76.789062 C 90.933594 77.394531 90.882812 78.066406 90.910156 78.703125 C 90.90625 79.351562 90.875 79.996094 90.828125 80.640625 C 90.738281 81.933594 90.554688 83.214844 90.332031 84.492188 C 89.851562 87.042969 89.140625 89.570312 88.074219 91.984375 C 87.035156 94.402344 85.59375 96.707031 83.664062 98.644531 C 81.734375 100.574219 79.164062 102 76.398438 102.480469 C 76.058594 102.539062 75.703125 102.582031 75.335938 102.617188 C 74.976562 102.648438 74.632812 102.625 74.277344 102.625 C 73.925781 102.632812 73.578125 102.605469 73.234375 102.566406 C 72.894531 102.527344 72.546875 102.519531 72.207031 102.445312 C 70.835938 102.246094 69.488281 101.828125 68.246094 101.222656 C 65.753906 100.007812 63.664062 98.140625 62.109375 95.980469 C 60.523438 93.828125 59.382812 91.433594 58.523438 88.976562 C 57.703125 86.507812 57.082031 83.972656 56.949219 81.394531 Z M 56.949219 81.394531 "/>
<g clip-path="url(#clip5)" clip-rule="nonzero">
<path style="fill:none;stroke-width:2;stroke-linecap:butt;stroke-linejoin:miter;stroke:rgb(94.898987%,43.139648%,14.509583%);stroke-opacity:1;stroke-miterlimit:10;" d="M 75.543597 175.111236 C 10.550608 183.254402 15.007387 146.985262 15.007387 146.985262 L 12.734904 154.241818 C 9.790853 146.732919 9.22782 139.899207 9.22782 139.899207 L 6.57546 144.393634 C 6.378738 142.470374 5.096651 134.586372 7.504804 124.710908 C 5.232322 129.67592 1.677753 136.523272 1.677753 136.523272 C 1.677753 136.523272 -3.952576 96.441712 19.769424 71.732593 C 19.769424 71.732593 35.778551 57.908308 65.802449 71.105146 C 81.31638 18.413274 118.03562 19.90687 127.532561 68.356657 C 127.532561 68.356657 144.308227 48.810333 171.829003 61.093281 C 212.265618 83.326714 198.603591 144.079911 198.603591 144.079911 C 198.603591 144.079911 195.394982 136.223189 193.712667 131.851523 C 195.347497 141.883848 193.46846 149.645089 193.115716 151.554709 L 190.822883 146.86932 C 190.822883 146.86932 189.004898 155.619472 186.223651 160.898207 L 184.514202 153.48479 C 184.514202 153.48479 185.97266 190.190414 121.990418 176.891275 " transform="matrix(0.575843,0,0,0.572758,16.904971,18.633339)"/>
</g>
<g clip-path="url(#clip6)" clip-rule="nonzero">
<path style="fill:none;stroke-width:2;stroke-linecap:butt;stroke-linejoin:miter;stroke:rgb(94.898987%,43.139648%,14.509583%);stroke-opacity:1;stroke-miterlimit:10;" d="M 123.788053 18.9998 C 138.379423 -9.67178 169.604006 4.507148 169.604006 4.507148 C 169.875347 13.741525 177.486466 21.284524 177.486466 21.284524 C 189.615415 42.113022 171.829003 61.086461 171.829003 61.086461 C 212.245267 82.999351 198.603591 144.079911 198.603591 144.079911 C 198.603591 144.079911 195.740942 137.32122 193.712667 131.851523 C 195.252528 144.366354 193.48881 149.167684 193.115716 151.554709 L 190.822883 146.86932 C 190.822883 146.86932 189.20162 154.971565 186.223651 160.898207 L 184.514202 153.48479 C 184.514202 153.48479 186.135465 190.054013 121.990418 176.891275 C 119.093851 183.220301 110.295614 193.934634 99.9643 194.105135 C 90.263854 194.261997 79.037114 184.379714 75.55038 175.111236 C 10.584526 183.322602 15.007387 146.985262 15.007387 146.985262 L 12.734904 154.241818 C 10.218215 148.103753 9.22782 139.906027 9.22782 139.906027 L 6.57546 144.400454 C 6.399089 141.992969 5.001682 137.062058 7.504804 124.710908 C 5.05595 130.010104 1.684536 136.523272 1.684536 136.523272 C 1.684536 136.523272 -4.400289 97.478363 19.769424 71.732593 C 19.769424 71.732593 -5.36355 50.945015 9.533079 25.008283 C 9.533079 25.008283 16.933909 18.488295 18.01249 8.353669 C 18.01249 8.353669 45.024501 -1.930999 63.563885 20.391095 C 63.563885 20.391095 73.657776 16.653696 84.341833 17.799468 C 84.341833 17.799468 80.52949 15.923948 74.193674 8.721952 L 93.445329 18.256412 C 93.445329 18.256412 88.601889 13.168639 83.541377 8.346849 L 99.27238 16.844658 C 99.27238 16.844658 95.629625 11.947846 90.664082 6.873713 C 90.664082 6.873713 105.350422 10.761154 110.485553 20.111472 C 110.485553 20.111472 113.829833 16.974239 123.788053 18.9998 Z M 123.788053 18.9998 " transform="matrix(0.575843,0,0,0.572758,16.904971,18.633339)"/>
</g>
<path style=" stroke:none;fill-rule:nonzero;fill:rgb(94.898987%,43.139648%,14.509583%);fill-opacity:1;" d="M 89.230469 29.222656 C 92.222656 29.617188 95.167969 30.414062 97.992188 31.523438 C 100.816406 32.625 103.539062 34.054688 105.992188 35.902344 C 108.433594 37.738281 110.585938 40.046875 112.027344 42.773438 C 112.730469 44.144531 113.230469 45.605469 113.535156 47.097656 C 113.796875 48.601562 113.847656 50.121094 113.703125 51.605469 C 113.546875 50.117188 113.363281 48.648438 112.902344 47.25 C 112.460938 45.851562 111.859375 44.523438 111.121094 43.273438 C 109.585938 40.8125 107.539062 38.691406 105.183594 36.949219 C 102.863281 35.164062 100.261719 33.730469 97.582031 32.460938 C 94.886719 31.222656 92.109375 30.113281 89.230469 29.222656 Z M 89.230469 29.222656 "/>
<path style=" stroke:none;fill-rule:nonzero;fill:rgb(94.898987%,43.139648%,14.509583%);fill-opacity:1;" d="M 50.816406 31.335938 L 50.929688 31.261719 L 50.972656 31.226562 C 51 31.277344 50.949219 31.253906 50.941406 31.273438 L 50.703125 31.398438 L 50.242188 31.671875 L 49.328125 32.222656 C 48.726562 32.597656 48.128906 32.988281 47.546875 33.394531 C 46.367188 34.183594 45.21875 35.015625 44.097656 35.871094 C 41.867188 37.59375 39.738281 39.441406 37.863281 41.511719 C 35.976562 43.558594 34.339844 45.839844 33.175781 48.351562 C 32.027344 50.863281 31.382812 53.628906 31.449219 56.480469 C 30.863281 53.6875 31.164062 50.675781 32.21875 47.957031 C 33.246094 45.21875 34.933594 42.773438 36.878906 40.625 C 38.851562 38.488281 41.089844 36.628906 43.496094 35.035156 C 44.695312 34.234375 45.9375 33.507812 47.214844 32.84375 C 47.859375 32.519531 48.507812 32.207031 49.164062 31.914062 L 50.152344 31.492188 L 50.660156 31.308594 L 50.921875 31.226562 C 50.949219 31.234375 50.949219 31.179688 51.003906 31.242188 C 50.976562 31.269531 50.960938 31.269531 50.941406 31.28125 Z M 50.816406 31.335938 "/>
<g clip-path="url(#clip7)" clip-rule="nonzero">
<path style="fill:none;stroke-width:2;stroke-linecap:butt;stroke-linejoin:miter;stroke:rgb(94.898987%,43.139648%,14.509583%);stroke-opacity:1;stroke-miterlimit:10;" d="M 169.604006 4.507148 C 169.604006 4.507148 152.29244 -0.751127 141.486279 24.244435 " transform="matrix(0.575843,0,0,0.572758,16.904971,18.633339)"/>
</g>
<g clip-path="url(#clip8)" clip-rule="nonzero">
<path style="fill:none;stroke-width:2;stroke-linecap:butt;stroke-linejoin:miter;stroke:rgb(94.898987%,43.139648%,14.509583%);stroke-opacity:1;stroke-miterlimit:10;" d="M 17.992139 8.551451 C 17.992139 8.551451 31.701651 3.381837 40.81193 33.963037 " transform="matrix(0.575843,0,0,0.572758,16.904971,18.633339)"/>
</g>
<path style=" stroke:none;fill-rule:nonzero;fill:rgb(94.898987%,43.139648%,14.509583%);fill-opacity:1;" d="M 92.878906 67.183594 C 93.667969 67.046875 94.480469 67.183594 95.234375 67.46875 C 95.988281 67.761719 96.695312 68.238281 97.238281 68.871094 C 97.785156 69.492188 98.183594 70.261719 98.328125 71.0625 C 98.515625 71.855469 98.441406 72.671875 98.207031 73.417969 C 97.890625 72.683594 97.675781 72.003906 97.347656 71.390625 C 97.054688 70.769531 96.664062 70.234375 96.238281 69.734375 C 95.382812 68.722656 94.234375 67.972656 92.878906 67.183594 Z M 92.878906 67.183594 "/>
<path style="fill:none;stroke-width:2;stroke-linecap:butt;stroke-linejoin:miter;stroke:rgb(94.898987%,43.139648%,14.509583%);stroke-opacity:1;stroke-miterlimit:10;" d="M 57.167017 90.637831 C 57.167017 90.637831 73.271115 111.57545 100.059269 94.259289 C 100.059269 94.259289 116.176934 109.358927 137.958844 87.67792 " transform="matrix(0.575843,0,0,0.572758,16.904971,18.633339)"/>
<path style=" stroke:none;fill-rule:nonzero;fill:rgb(94.898987%,43.139648%,14.509583%);fill-opacity:1;" d="M 47.117188 73.6875 C 47.046875 72.894531 47.257812 72.101562 47.613281 71.382812 C 47.972656 70.664062 48.511719 70.007812 49.195312 69.523438 C 49.867188 69.035156 50.675781 68.710938 51.492188 68.640625 C 52.300781 68.523438 53.117188 68.667969 53.847656 68.96875 C 53.078125 69.214844 52.378906 69.367188 51.734375 69.636719 C 51.082031 69.871094 50.511719 70.214844 49.972656 70.589844 C 48.882812 71.347656 48.027344 72.417969 47.117188 73.6875 Z M 47.117188 73.6875 "/>
<path style="fill:none;stroke-width:2;stroke-linecap:butt;stroke-linejoin:miter;stroke:rgb(94.898987%,43.139648%,14.509583%);stroke-opacity:1;stroke-miterlimit:10;" d="M 77.992451 101.549945 C 78.976062 111.657291 80.787264 123.790198 88.642591 131.039934 C 90.080699 132.369848 91.661261 133.542901 93.330009 134.572731 C 95.392202 135.854905 97.691818 136.946116 100.127105 136.946116 C 106.625725 136.959757 110.254913 130.214706 112.581663 125.113292 C 114.704908 120.462004 116.122665 115.490171 116.997741 110.456959 C 117.099493 109.863613 118.456199 99.763087 118.001703 99.722166 C 118.001703 99.722166 102.209648 98.364972 99.591206 94.40251 C 98.953554 94.218369 90.48771 101.283963 77.992451 101.549945 Z M 77.992451 101.549945 " transform="matrix(0.575843,0,0,0.572758,16.904971,18.633339)"/>
<path style=" stroke:none;fill-rule:nonzero;fill:rgb(94.898987%,43.139648%,14.509583%);fill-opacity:1;" d="M 54.363281 45.515625 C 52.199219 44.5 49.300781 46.09375 47.882812 49.070312 C 46.46875 52.050781 47.070312 55.285156 49.234375 56.296875 C 51.394531 57.3125 54.296875 55.71875 55.714844 52.738281 C 57.128906 49.761719 56.527344 46.527344 54.363281 45.515625 Z M 54.148438 52.460938 C 54.011719 53.382812 53.457031 54.066406 52.90625 53.988281 C 52.351562 53.910156 52.015625 53.097656 52.148438 52.175781 C 52.285156 51.253906 52.839844 50.570312 53.390625 50.648438 C 53.945312 50.726562 54.28125 51.539062 54.148438 52.460938 Z M 54.148438 52.460938 "/>
<path style=" stroke:none;fill-rule:nonzero;fill:rgb(94.898987%,43.139648%,14.509583%);fill-opacity:1;" d="M 96.808594 45.378906 C 95.417969 42.390625 92.527344 40.773438 90.355469 41.769531 C 88.1875 42.765625 87.554688 45.992188 88.945312 48.980469 C 90.339844 51.972656 93.226562 53.589844 95.398438 52.59375 C 97.570312 51.601562 98.199219 48.371094 96.808594 45.378906 Z M 92.105469 49.824219 C 91.625 50.109375 90.847656 49.6875 90.367188 48.886719 C 89.886719 48.085938 89.886719 47.207031 90.367188 46.925781 C 90.847656 46.640625 91.621094 47.0625 92.101562 47.863281 C 92.582031 48.664062 92.582031 49.542969 92.105469 49.824219 Z M 92.105469 49.824219 "/>
<path style="fill:none;stroke-width:1.374;stroke-linecap:butt;stroke-linejoin:miter;stroke:rgb(94.898987%,43.139648%,14.509583%);stroke-opacity:1;stroke-miterlimit:10;" d="M 95.324366 46.559709 C 85.216909 48.107865 80.52949 61.89123 81.051822 70.593641 C 81.397782 76.342961 84.070492 81.97634 88.649374 85.563698 C 93.336792 89.232896 100.072836 91.415319 105.458958 88.475868 C 111.754073 85.038552 115.830974 78.811827 116.461842 71.657572 C 117.045225 65.055743 114.284329 58.222031 110.166727 53.141078 C 106.544323 48.673931 101.219253 45.65946 95.324366 46.559709 Z M 95.324366 46.559709 " transform="matrix(0.575843,0,0,0.572758,16.904971,18.633339)"/>
<path style=" stroke:none;fill-rule:nonzero;fill:rgb(94.898987%,43.139648%,14.509583%);fill-opacity:1;" d="M 80.34375 49.070312 C 78.257812 46.511719 75.191406 44.785156 71.796875 45.300781 C 65.976562 46.1875 63.277344 54.082031 63.578125 59.066406 C 63.777344 62.359375 65.316406 65.585938 67.953125 67.640625 C 70.652344 69.742188 74.53125 70.992188 77.632812 69.308594 C 81.257812 67.339844 83.605469 63.773438 83.96875 59.675781 C 84.304688 55.894531 82.714844 51.980469 80.34375 49.070312 Z M 68.941406 58.011719 C 68.695312 59.605469 67.761719 60.789062 66.859375 60.652344 C 65.953125 60.515625 65.421875 59.109375 65.667969 57.515625 C 65.914062 55.921875 66.84375 54.738281 67.75 54.875 C 68.652344 55.011719 69.183594 56.417969 68.941406 58.011719 Z M 81.992188 58.25 C 81.148438 58.597656 79.960938 57.667969 79.339844 56.179688 C 78.71875 54.6875 78.898438 53.195312 79.746094 52.851562 C 80.589844 52.503906 81.777344 53.433594 82.398438 54.925781 C 83.019531 56.414062 82.835938 57.90625 81.992188 58.25 Z M 81.992188 58.25 "/>
<path style=" stroke:none;fill-rule:nonzero;fill:rgb(94.898987%,43.139648%,14.509583%);fill-opacity:1;" d="M 84.855469 75.75 C 84.855469 75.75 75.761719 74.972656 74.253906 72.707031 C 73.886719 72.597656 69.011719 76.644531 61.816406 76.796875 C 62.382812 82.585938 63.425781 89.535156 67.949219 93.6875 C 68.777344 94.449219 69.6875 95.121094 70.648438 95.710938 C 71.835938 96.445312 73.160156 97.070312 74.558594 97.070312 C 78.304688 97.078125 80.394531 93.214844 81.734375 90.292969 C 82.957031 87.628906 83.773438 84.78125 84.277344 81.894531 C 84.335938 81.5625 85.117188 75.773438 84.855469 75.75 Z M 78.84375 90.929688 C 78.300781 91.824219 77.628906 92.640625 76.863281 93.359375 C 76.132812 94.039062 75.167969 94.945312 74.125 95.03125 C 73.988281 95.039062 73.851562 95.039062 73.71875 95.019531 C 73.238281 94.957031 72.804688 94.714844 72.402344 94.453125 C 70.660156 93.320312 69.222656 91.734375 68.242188 89.910156 C 67.523438 88.578125 67.117188 87.324219 66.660156 85.898438 C 66.617188 85.773438 66.421875 84.675781 66.636719 84.335938 C 66.835938 84.015625 66.867188 84.089844 67.167969 83.851562 C 68 83.1875 69.082031 82.777344 70.261719 82.746094 C 71.453125 82.710938 72.546875 83.054688 73.410156 83.664062 C 74.246094 83.007812 75.316406 82.601562 76.5 82.566406 C 77.761719 82.53125 80.300781 83.125 80.414062 84.53125 C 80.433594 84.738281 80.441406 84.945312 80.445312 85.148438 C 80.488281 87.179688 79.90625 89.199219 78.84375 90.929688 Z M 78.84375 90.929688 "/>
<path style="fill:none;stroke-width:2;stroke-linecap:butt;stroke-linejoin:miter;stroke:rgb(94.898987%,43.139648%,14.509583%);stroke-opacity:1;stroke-miterlimit:10;" d="M 110.343099 116.131258 C 110.417718 119.677695 109.406972 123.203672 107.561852 126.224964 C 106.618942 127.78676 105.452175 129.212155 104.122603 130.467048 C 102.854083 131.653741 101.178552 133.235997 99.367349 133.386039 C 99.129926 133.399679 98.892502 133.399679 98.661862 133.365579 C 97.827488 133.256458 97.074517 132.833613 96.375813 132.376668 C 93.350359 130.398848 90.854021 127.629899 89.151355 124.444925 C 87.903186 122.119281 87.143431 119.759536 86.349758 117.27021 C 86.281923 117.051968 86.275139 114.828625 86.424377 114.644483 C 86.824605 114.126157 86.770337 114.283019 87.285885 113.866994 C 88.730776 112.700762 90.609814 111.991475 92.65844 111.930094 C 94.727416 111.868714 96.626804 112.4757 98.125964 113.532811 C 99.577639 112.393859 101.436326 111.677752 103.491735 111.623191 C 105.682815 111.56181 110.092108 112.598461 110.288831 115.053687 C 110.315965 115.415151 110.336315 115.769794 110.343099 116.131258 Z M 110.343099 116.131258 " transform="matrix(0.575843,0,0,0.572758,16.904971,18.633339)"/>
</g>
</svg>
