<svg id="Layer_x0020_1" xmlns="http://www.w3.org/2000/svg" width="49.816" height="49.816" viewBox="0 0 49.816 49.816">
  <defs>
    <style>
      .cls-1 {
        fill: #7f46f0;
      }

      .cls-1, .cls-2, .cls-3, .cls-4 {
        fill-rule: evenodd;
      }

      .cls-2 {
        fill: #d34fa0;
      }

      .cls-3 {
        fill: #0aa5e8;
      }

      .cls-4 {
        fill: #38e4de;
      }
    </style>
  </defs>
  <g id="_2302127387760">
    <path id="Path_17415" data-name="Path 17415" class="cls-1" d="M75.509,178.873v6.961a12.1,12.1,0,0,1-12.082,12.082H55.183v-9.163h8.08a3.089,3.089,0,0,0,3.083-3.083v-8.08h9.163Z" transform="translate(-46.019 -148.1)"/>
    <path id="Path_17416" data-name="Path 17416" class="cls-2" d="M19.043,122.408H12.082A12.1,12.1,0,0,0,0,134.49v8.244H9.164v-8.08a3.089,3.089,0,0,1,3.083-3.083h8.08v-9.163Z" transform="translate(0 -102.082)"/>
    <path id="Path_17417" data-name="Path 17417" class="cls-3" d="M178.873,75.509h6.961a12.1,12.1,0,0,0,12.082-12.082V55.183h-9.163v8.08a3.089,3.089,0,0,1-3.083,3.083h-8.08v9.163Z" transform="translate(-148.1 -46.019)"/>
    <path id="Path_17418" data-name="Path 17418" class="cls-4" d="M122.408,19.043V12.082A12.1,12.1,0,0,1,134.49,0h8.244V9.164h-8.08a3.089,3.089,0,0,0-3.083,3.083v8.08h-9.163Z" transform="translate(-102.082)"/>
  </g>
</svg>
