<?xml version="1.0" encoding="UTF-8"?>
<!DOCTYPE svg PUBLIC "-//W3C//DTD SVG 1.1//EN" "http://www.w3.org/Graphics/SVG/1.1/DTD/svg11.dtd">
<!-- Creator: CorelDRAW 2019 (64-Bit) -->
<svg xmlns="http://www.w3.org/2000/svg" xml:space="preserve" width="200mm" height="200mm" version="1.1" style="shape-rendering:geometricPrecision; text-rendering:geometricPrecision; image-rendering:optimizeQuality; fill-rule:evenodd; clip-rule:evenodd"
viewBox="0 0 20000 20000"
 xmlns:xlink="http://www.w3.org/1999/xlink">
 <defs>
  <style type="text/css">
   <![CDATA[
    .str3 {stroke:#282829;stroke-width:105.83;stroke-miterlimit:22.9256}
    .str1 {stroke:#ED3237;stroke-width:423.33;stroke-miterlimit:22.9256}
    .str11 {stroke:#282829;stroke-width:423.33;stroke-miterlimit:22.9256}
    .str0 {stroke:#282829;stroke-width:1058.33;stroke-miterlimit:22.9256}
    .str8 {stroke:#373435;stroke-width:70.56;stroke-miterlimit:22.9256}
    .str7 {stroke:#A7C4D2;stroke-width:20;stroke-miterlimit:22.9256}
    .str2 {stroke:#282829;stroke-width:20;stroke-miterlimit:22.9256}
    .str4 {stroke:#282829;stroke-width:20;stroke-miterlimit:22.9256}
    .str9 {stroke:#282829;stroke-width:20;stroke-miterlimit:22.9256}
    .str10 {stroke:#282829;stroke-width:20;stroke-miterlimit:22.9256}
    .str6 {stroke:#282829;stroke-width:20;stroke-miterlimit:22.9256}
    .str5 {stroke:#282829;stroke-width:52.92;stroke-linecap:round;stroke-miterlimit:22.9256}
    .fil0 {fill:none}
    .fil3 {fill:#FEFEFE}
    .fil1 {fill:#ED3237}
    .fil2 {fill:#282829}
    .fil4 {fill:#282829}
    .fil5 {fill:#282829;fill-rule:nonzero}
   ]]>
  </style>
 </defs>
 <g id="Capa_x0020_1">
  <metadata id="CorelCorpID_0Corel-Layer"/>
  <g id="_2178721586848">
   <g>
    <path class="fil0 str0" d="M9992.4 1683.49c4597.28,0 8324.11,3726.83 8324.11,8324.11 0,4597.28 -3726.83,8324.11 -8324.11,8324.11 -4597.28,0 -8324.11,-3726.83 -8324.11,-8324.11 0,-4597.28 3726.83,-8324.11 8324.11,-8324.11z"/>
    <path id="1" class="fil1" d="M9992.4 1683.49c4597.28,0 8324.11,3726.83 8324.11,8324.11 0,4597.28 -3726.83,8324.11 -8324.11,8324.11 -4597.28,0 -8324.11,-3726.83 -8324.11,-8324.11 0,-4597.28 3726.83,-8324.11 8324.11,-8324.11z"/>
   </g>
   <g>
    <path class="fil0 str1" d="M9992.4 2692.42c4040.06,0 7315.18,3275.12 7315.18,7315.18 0,4040.06 -3275.12,7315.18 -7315.18,7315.18 -4040.06,0 -7315.18,-3275.12 -7315.18,-7315.18 0,-4040.06 3275.12,-7315.18 7315.18,-7315.18z"/>
    <path id="1" class="fil1" d="M9992.4 2692.42c4040.06,0 7315.18,3275.12 7315.18,7315.18 0,4040.06 -3275.12,7315.18 -7315.18,7315.18 -4040.06,0 -7315.18,-3275.12 -7315.18,-7315.18 0,-4040.06 3275.12,-7315.18 7315.18,-7315.18z"/>
   </g>
   <g>
    <path class="fil0 str2" d="M8753.47 14163.58c-102.47,365.05 525.02,1512.67 476.25,1322.92 -184.68,-718.39 -193.89,-965.43 -108.74,-1658.05 6.55,-53.36 15.66,193.75 75.71,439.86 46.27,189.6 138.94,375.96 184.47,440.43 -46.22,-261.79 -41.16,-560.88 -41.16,-560.88 19.92,28.91 209.98,621.38 553.94,868.31 -214.49,-267.2 -471.12,-1042.09 -323.85,-1381.74 0,0 -9.53,137.22 21.22,255.79 33.56,129.41 107.98,240.43 115.64,221.75 0,0 -27.66,-68.9 -15.22,-239.49 13.45,-184.3 70.33,-286.32 70.33,-286.32 -6.6,468.77 237.33,614.44 237.33,614.44 0,0 -26.27,-80.89 -26.99,-158.29 -0.74,-80.32 31.88,-157.55 29.83,-135.43 -14.78,158.85 237.72,492.63 254.38,499.93 2.27,0 -105.57,-171.54 -156.26,-316.53 -40.11,-114.72 -27.78,-288.23 -20.95,-245.71 0,0 49.82,195.56 145.43,348.11 93.94,149.9 214.93,280.37 351.35,374.27 2.45,1.68 -176.24,-273.95 -268.19,-628.86 -48.7,-187.95 -72.86,-471.1 -39.78,-596.92 0,0 37.15,517.23 499.93,941.36 0,0 -131.68,-255.31 -176.33,-570.89 -31.87,-225.27 46.26,-406.62 91.04,-493.81 3,-5.84 148.93,951.6 513.47,1519.14 0,0 -158.35,-249.84 -148.49,-602.33 12.59,-449.65 164.75,-685.43 164.75,-685.43 9.75,121.31 88,484.22 210.53,742.12 133.29,280.54 311.33,452.23 311.33,452.23 -36.52,-38.49 -242.54,-462.78 -242.54,-1075.98 0,-203.47 257.23,-1246.09 256.34,-1201.21 -2.58,129.3 84.2,508.12 204.74,771.83 113.48,248.27 318.88,466 295.78,420.77 -424.27,-830.53 27.95,-2008.72 27.95,-2008.72 -115.04,776.95 -64.19,1523.43 220.61,2242.92 1.65,4.17 -88.15,-808.96 -40.44,-1461.71 27.68,-378.75 205.32,-762.99 206.66,-747.96 25.82,289.82 27.07,2027.3 -141.84,2436.76 0,0 252.85,-358.66 238,-546.8 0,276.24 25.89,534.78 32.14,594.84 5.5,52.85 47.36,-113.94 74.99,-645.8 12.15,-233.99 8.24,-329.97 54.76,-544.78 123.11,-568.51 179.25,-1111.35 103.39,-1819.97 254.63,516.57 93.79,1861.29 50.15,2470.96 -1.94,27.21 92.24,-301.45 164.13,-728.14 44.94,-266.78 77.04,-577.94 96.57,-724.56 3.07,-23.03 141.71,869.48 204.27,1073.47 134.96,440.1 334.94,616.99 355.79,659.83 31.73,65.22 -178.57,-263.45 -268.41,-520.14 -86.29,-246.58 -86.64,-432.25 -80.77,-417.64 291.33,723.86 683.98,932.2 720.55,939.15 6.2,1.18 -551.82,-479.16 -652.07,-1419.93 -8.34,-78.25 -24.39,-1083.02 -24.39,-1083.02 37.98,187.74 204.16,1198.6 395.63,1307.1 -53.98,-54.61 -162.64,-373.79 -178.47,-647.25 -17.14,-295.92 -18.58,-640.45 -18.58,-769.53 0,683.75 478.32,1324.43 478.32,1324.43 -66.81,-97.24 -194.55,-1242.94 -160.7,-1305.02 16.47,32.93 75.99,375.13 186.41,621.29 98.05,218.6 249.33,346.13 249.33,346.13 -213.87,-331.65 -321.38,-913.36 -167.01,-1672.55 116.31,-572.04 258.78,-1081.75 360.46,-1644.91 39,-216.01 34.41,-488.8 75.6,-703.75 0,0 40.23,89.38 44.73,544.46 6.69,676.01 -289.38,1992.77 -621.77,2562.67 464.11,-657.52 921.64,-1881.51 921.64,-2751.66 0,520.1 -95.8,1184.83 -282.09,1667 -5.11,1.7 398.03,-804.8 383.51,-1318.76 -22.08,-781.49 -22.26,-635.87 -102.94,-1291.92 -4.15,-33.77 713.19,1597.54 -179,3200.05 -115.15,206.82 -324.87,478.26 -480.95,557.03 21.35,15.4 429.59,-186.6 721.56,-749.85 248.89,-480.16 443.14,-1359.62 427.96,-1947.58 0,0 107.65,739.44 73.49,998.06 -114.63,867.92 -443.63,1703.77 -1002.39,2256.63 -5.2,5.14 576.88,-484.3 952.5,-1407.07 402.65,-989.16 290.91,-1466.59 238,-2126.75 124.25,403.13 432.03,777.68 251.22,1630.21 -164.17,774.08 -438.19,1138.54 -438.19,1138.54 940.91,-745.23 797.45,-1833.13 803.5,-1798.75 52.81,299.76 91.64,929.15 -7.19,1356.18 -164.67,711.51 -610.86,1329.49 -610.86,1329.49 -8.06,8.43 212.22,-214.85 439.36,-636.75 286.61,-532.35 526.43,-1206.42 9.18,-3130.8 -229.24,-852.89 -746.64,-1806.7 -742.34,-1801.94 235.16,260.4 384.64,622.32 394.67,628.23 0,0 -88.61,-463.42 -256.91,-856.46 -86.42,-201.84 -223.11,-388.4 -318.69,-477.32 272.35,208.38 520.61,518.19 720.01,888.34 388.33,720.85 699.91,2086.93 567.62,2934.89 -13.63,87.4 178.57,-429.77 206.12,-1288.87 52.23,-1628.24 -1377.83,-3179.99 -2193.85,-3837.6 -2046.52,-1649.21 -4572.52,-2107.19 -6776.32,-1453 -1542.5,457.88 -2949.3,1486.92 -3988.93,2881.7 -1048.82,1407.11 -1393.01,3511.24 -1276.47,4545.53 158.12,1403.2 134.32,1217.22 296.08,1703.12 248.05,745.05 664.3,1636.3 722.25,1640.3 0,0 -20.59,-660.07 -20.59,-660.07 70.8,117.72 128.46,362.95 147.89,567.38 16.55,174.05 -1.86,316.75 14.85,345.53 15.89,27.36 101.12,243.9 111.51,-166.46 4.98,-196.55 -20.05,-498.44 -20.05,-498.44 0,0 98.85,224.38 154.76,509.58 82.96,423.23 105.31,625.03 113.56,637.92 132.98,207.74 277.79,98.2 714.57,432.57 1106.03,846.69 1768.24,894.06 3107.47,585.11 282.36,-65.14 755.18,-1066.36 723.2,-1340.56z"/>
    <path id="1" class="fil2" d="M8753.47 14163.58c-102.47,365.05 525.02,1512.67 476.25,1322.92 -184.68,-718.39 -193.89,-965.43 -108.74,-1658.05 6.55,-53.36 15.66,193.75 75.71,439.86 46.27,189.6 138.94,375.96 184.47,440.43 -46.22,-261.79 -41.16,-560.88 -41.16,-560.88 19.92,28.91 209.98,621.38 553.94,868.31 -214.49,-267.2 -471.12,-1042.09 -323.85,-1381.74 0,0 -9.53,137.22 21.22,255.79 33.56,129.41 107.98,240.43 115.64,221.75 0,0 -27.66,-68.9 -15.22,-239.49 13.45,-184.3 70.33,-286.32 70.33,-286.32 -6.6,468.77 237.33,614.44 237.33,614.44 0,0 -26.27,-80.89 -26.99,-158.29 -0.74,-80.32 31.88,-157.55 29.83,-135.43 -14.78,158.85 237.72,492.63 254.38,499.93 2.27,0 -105.57,-171.54 -156.26,-316.53 -40.11,-114.72 -27.78,-288.23 -20.95,-245.71 0,0 49.82,195.56 145.43,348.11 93.94,149.9 214.93,280.37 351.35,374.27 2.45,1.68 -176.24,-273.95 -268.19,-628.86 -48.7,-187.95 -72.86,-471.1 -39.78,-596.92 0,0 37.15,517.23 499.93,941.36 0,0 -131.68,-255.31 -176.33,-570.89 -31.87,-225.27 46.26,-406.62 91.04,-493.81 3,-5.84 148.93,951.6 513.47,1519.14 0,0 -158.35,-249.84 -148.49,-602.33 12.59,-449.65 164.75,-685.43 164.75,-685.43 9.75,121.31 88,484.22 210.53,742.12 133.29,280.54 311.33,452.23 311.33,452.23 -36.52,-38.49 -242.54,-462.78 -242.54,-1075.98 0,-203.47 257.23,-1246.09 256.34,-1201.21 -2.58,129.3 84.2,508.12 204.74,771.83 113.48,248.27 318.88,466 295.78,420.77 -424.27,-830.53 27.95,-2008.72 27.95,-2008.72 -115.04,776.95 -64.19,1523.43 220.61,2242.92 1.65,4.17 -88.15,-808.96 -40.44,-1461.71 27.68,-378.75 205.32,-762.99 206.66,-747.96 25.82,289.82 27.07,2027.3 -141.84,2436.76 0,0 252.85,-358.66 238,-546.8 0,276.24 25.89,534.78 32.14,594.84 5.5,52.85 47.36,-113.94 74.99,-645.8 12.15,-233.99 8.24,-329.97 54.76,-544.78 123.11,-568.51 179.25,-1111.35 103.39,-1819.97 254.63,516.57 93.79,1861.29 50.15,2470.96 -1.94,27.21 92.24,-301.45 164.13,-728.14 44.94,-266.78 77.04,-577.94 96.57,-724.56 3.07,-23.03 141.71,869.48 204.27,1073.47 134.96,440.1 334.94,616.99 355.79,659.83 31.73,65.22 -178.57,-263.45 -268.41,-520.14 -86.29,-246.58 -86.64,-432.25 -80.77,-417.64 291.33,723.86 683.98,932.2 720.55,939.15 6.2,1.18 -551.82,-479.16 -652.07,-1419.93 -8.34,-78.25 -24.39,-1083.02 -24.39,-1083.02 37.98,187.74 204.16,1198.6 395.63,1307.1 -53.98,-54.61 -162.64,-373.79 -178.47,-647.25 -17.14,-295.92 -18.58,-640.45 -18.58,-769.53 0,683.75 478.32,1324.43 478.32,1324.43 -66.81,-97.24 -194.55,-1242.94 -160.7,-1305.02 16.47,32.93 75.99,375.13 186.41,621.29 98.05,218.6 249.33,346.13 249.33,346.13 -213.87,-331.65 -321.38,-913.36 -167.01,-1672.55 116.31,-572.04 258.78,-1081.75 360.46,-1644.91 39,-216.01 34.41,-488.8 75.6,-703.75 0,0 40.23,89.38 44.73,544.46 6.69,676.01 -289.38,1992.77 -621.77,2562.67 464.11,-657.52 921.64,-1881.51 921.64,-2751.66 0,520.1 -95.8,1184.83 -282.09,1667 -5.11,1.7 398.03,-804.8 383.51,-1318.76 -22.08,-781.49 -22.26,-635.87 -102.94,-1291.92 -4.15,-33.77 713.19,1597.54 -179,3200.05 -115.15,206.82 -324.87,478.26 -480.95,557.03 21.35,15.4 429.59,-186.6 721.56,-749.85 248.89,-480.16 443.14,-1359.62 427.96,-1947.58 0,0 107.65,739.44 73.49,998.06 -114.63,867.92 -443.63,1703.77 -1002.39,2256.63 -5.2,5.14 576.88,-484.3 952.5,-1407.07 402.65,-989.16 290.91,-1466.59 238,-2126.75 124.25,403.13 432.03,777.68 251.22,1630.21 -164.17,774.08 -438.19,1138.54 -438.19,1138.54 940.91,-745.23 797.45,-1833.13 803.5,-1798.75 52.81,299.76 91.64,929.15 -7.19,1356.18 -164.67,711.51 -610.86,1329.49 -610.86,1329.49 -8.06,8.43 212.22,-214.85 439.36,-636.75 286.61,-532.35 526.43,-1206.42 9.18,-3130.8 -229.24,-852.89 -746.64,-1806.7 -742.34,-1801.94 235.16,260.4 384.64,622.32 394.67,628.23 0,0 -88.61,-463.42 -256.91,-856.46 -86.42,-201.84 -223.11,-388.4 -318.69,-477.32 272.35,208.38 520.61,518.19 720.01,888.34 388.33,720.85 699.91,2086.93 567.62,2934.89 -13.63,87.4 178.57,-429.77 206.12,-1288.87 52.23,-1628.24 -1377.83,-3179.99 -2193.85,-3837.6 -2046.52,-1649.21 -4572.52,-2107.19 -6776.32,-1453 -1542.5,457.88 -2949.3,1486.92 -3988.93,2881.7 -1048.82,1407.11 -1393.01,3511.24 -1276.47,4545.53 158.12,1403.2 134.32,1217.22 296.08,1703.12 248.05,745.05 664.3,1636.3 722.25,1640.3 0,0 -20.59,-660.07 -20.59,-660.07 70.8,117.72 128.46,362.95 147.89,567.38 16.55,174.05 -1.86,316.75 14.85,345.53 15.89,27.36 101.12,243.9 111.51,-166.46 4.98,-196.55 -20.05,-498.44 -20.05,-498.44 0,0 98.85,224.38 154.76,509.58 82.96,423.23 105.31,625.03 113.56,637.92 132.98,207.74 277.79,98.2 714.57,432.57 1106.03,846.69 1768.24,894.06 3107.47,585.11 282.36,-65.14 755.18,-1066.36 723.2,-1340.56z"/>
   </g>
   <g>
    <path class="fil0 str3" d="M4209.8 13269.93c52,683.31 76.67,696.35 128.67,1379.66 70.07,106.94 483.89,705.29 1436.48,1335.78 805.4,533.07 1787.53,1117.27 3423,1294.77 79.02,-307.62 198.98,-699.61 278,-1007.23 -457.2,-245.53 -533.4,-465.67 -626.53,-601.13 -33.87,-855.14 144.57,-1704.23 216.85,-2556.34 -1605.95,86.95 -3250.52,67.54 -4856.47,154.49z"/>
    <path id="1" class="fil3" d="M4209.8 13269.93c52,683.31 76.67,696.35 128.67,1379.66 70.07,106.94 483.89,705.29 1436.48,1335.78 805.4,533.07 1787.53,1117.27 3423,1294.77 79.02,-307.62 198.98,-699.61 278,-1007.23 -457.2,-245.53 -533.4,-465.67 -626.53,-601.13 -33.87,-855.14 144.57,-1704.23 216.85,-2556.34 -1605.95,86.95 -3250.52,67.54 -4856.47,154.49z"/>
   </g>
   <g>
    <path class="fil0 str3" d="M5291.49 14674.1c-177.8,-169.33 -227.27,-216.46 -405.07,-385.79 -372.43,-483.52 -553.95,-615.29 -693.67,-1071.87 -152.28,-272.06 -257,-431.94 -211.67,-550.33 -262.46,-440.27 -423.42,-667.2 -296.33,-1219.2 -84.67,-129.82 -169.33,-259.65 -254,-389.47 -330.65,-635.87 -93.97,-1238.29 -143.93,-1896.53 2075.08,-7435.48 9093.57,-3284.07 6341.53,2463.8 0,567.27 -123.37,549.52 -397.93,1126.07 -8.47,169.33 -129.83,282.22 -245.54,508 -42.33,245.53 -159.75,330.9 -263.55,522.7 -193.65,357.83 -533.88,598.48 -743.98,857.36 -439.66,989.77 -2209.29,1104.47 -2685.86,35.26z"/>
    <path id="1" class="fil3" d="M5291.49 14674.1c-177.8,-169.33 -227.27,-216.46 -405.07,-385.79 -372.43,-483.52 -553.95,-615.29 -693.67,-1071.87 -152.28,-272.06 -257,-431.94 -211.67,-550.33 -262.46,-440.27 -423.42,-667.2 -296.33,-1219.2 -84.67,-129.82 -169.33,-259.65 -254,-389.47 -330.65,-635.87 -93.97,-1238.29 -143.93,-1896.53 2075.08,-7435.48 9093.57,-3284.07 6341.53,2463.8 0,567.27 -123.37,549.52 -397.93,1126.07 -8.47,169.33 -129.83,282.22 -245.54,508 -42.33,245.53 -159.75,330.9 -263.55,522.7 -193.65,357.83 -533.88,598.48 -743.98,857.36 -439.66,989.77 -2209.29,1104.47 -2685.86,35.26z"/>
   </g>
   <g>
    <path class="fil0 str2" d="M9197.95 17280.14c112.89,-369.71 165.11,-637.52 278,-1007.23 -61.13,-36.64 -115.41,-83.12 -176.54,-119.76 50.69,-76.92 114.96,-79.69 168.07,-74.97 66.48,5.91 116.99,46.68 203.2,110.06 436.78,-146.39 470.68,-32.85 855.14,245.54 262.46,169.33 626.53,234.24 939.8,338.66 141.11,47.98 299.15,95.96 440.26,143.94 117.04,26.67 169.99,42.96 287.03,69.63 -888.16,294.43 -1980.36,396.03 -2994.96,294.13z"/>
    <path id="1" class="fil2" d="M9197.95 17280.14c112.89,-369.71 165.11,-637.52 278,-1007.23 -61.13,-36.64 -115.41,-83.12 -176.54,-119.76 50.69,-76.92 114.96,-79.69 168.07,-74.97 66.48,5.91 116.99,46.68 203.2,110.06 436.78,-146.39 470.68,-32.85 855.14,245.54 262.46,169.33 626.53,234.24 939.8,338.66 141.11,47.98 299.15,95.96 440.26,143.94 117.04,26.67 169.99,42.96 287.03,69.63 -888.16,294.43 -1980.36,396.03 -2994.96,294.13z"/>
   </g>
   <g>
    <path class="fil0 str4" d="M6968.34 13241.84c230.54,23.75 454.3,45.85 677.34,67.74 20.46,17.81 25.48,37.84 -9.18,79.9 45.02,-18.46 110.65,-56.01 161.58,-139.17 -281.62,-74.1 -639.38,-117.22 -889,-228.6 -209.18,64.37 -409.64,69.98 -616.6,0 -249.62,111.38 -607.38,154.5 -889,228.6 50.93,83.16 116.56,120.71 161.58,139.17 -34.66,-42.06 -29.64,-62.09 -9.18,-79.9 223.04,-21.89 446.8,-43.99 677.34,-67.74 282.96,168.83 454.22,167.6 735.12,0z"/>
    <path id="1" class="fil4" d="M6968.34 13241.84c230.54,23.75 454.3,45.85 677.34,67.74 20.46,17.81 25.48,37.84 -9.18,79.9 45.02,-18.46 110.65,-56.01 161.58,-139.17 -281.62,-74.1 -639.38,-117.22 -889,-228.6 -209.18,64.37 -409.64,69.98 -616.6,0 -249.62,111.38 -607.38,154.5 -889,228.6 50.93,83.16 116.56,120.71 161.58,139.17 -34.66,-42.06 -29.64,-62.09 -9.18,-79.9 223.04,-21.89 446.8,-43.99 677.34,-67.74 282.96,168.83 454.22,167.6 735.12,0z"/>
   </g>
   <g>
    <path class="fil5" d="M5717.17 13521.19c-9.74,-10.89 -8.8,-27.63 2.09,-37.37 10.89,-9.74 27.63,-8.8 37.37,2.09l-39.46 35.28zm931.6 93.78l0.92 52.92 0 0 -52.83 0.96 -50.63 0.97 -48.51 0.95 -46.45 0.88 -44.46 0.79 -42.53 0.67 -40.68 0.49 -38.88 0.3 -37.16 0.06 -35.52 -0.2 -33.92 -0.53 -32.41 -0.85 -30.96 -1.25 -29.59 -1.66 -28.28 -2.13 -27.05 -2.62 -25.88 -3.15 -24.79 -3.75 -23.74 -4.38 -22.79 -5.05 -21.86 -5.77 -21.02 -6.53 -20.21 -7.35 -19.44 -8.19 -18.73 -9.08 -18.05 -10 -17.39 -10.94 -16.78 -11.88 -16.22 -12.87 -15.7 -13.86 -15.23 -14.86 -14.83 -15.87 39.46 -35.28 13.21 14.15 13.41 13.08 13.66 12.06 14 11.11 14.42 10.22 14.91 9.38 15.49 8.58 16.17 7.84 16.94 7.13 17.79 6.47 18.72 5.81 19.74 5.21 20.83 4.63 21.98 4.04 23.19 3.51 24.48 2.99 25.83 2.5 27.22 2.05 28.67 1.6 30.18 1.21 31.75 0.85 33.38 0.51 35.06 0.2 36.8 -0.06 38.62 -0.3 40.46 -0.49 42.39 -0.67 44.36 -0.79 46.41 -0.88 48.51 -0.95 50.67 -0.97 52.89 -0.96 0 0zm809.33 -134.57l41.32 33.06 -16.95 19.65 -18.06 18.07 -19.1 16.5 -20.09 14.99 -21 13.54 -21.83 12.13 -22.63 10.82 -23.35 9.57 -24.05 8.38 -24.68 7.29 -25.27 6.26 -25.84 5.32 -26.38 4.44 -26.86 3.64 -27.34 2.91 -27.79 2.26 -28.19 1.65 -28.55 1.13 -28.92 0.67 -29.23 0.27 -29.51 -0.07 -29.77 -0.33 -29.99 -0.55 -30.18 -0.69 -30.33 -0.77 -30.46 -0.8 -30.54 -0.76 -30.6 -0.65 -30.62 -0.51 -30.6 -0.28 -30.54 0.01 -30.48 0.34 -0.92 -52.92 31.1 -0.34 31.08 -0.01 31.04 0.28 30.94 0.51 30.82 0.67 30.68 0.76 30.46 0.8 30.25 0.77 29.98 0.69 29.69 0.53 29.35 0.33 28.97 0.07 28.55 -0.27 28.12 -0.65 27.63 -1.09 27.09 -1.59 26.53 -2.14 25.92 -2.77 25.28 -3.42 24.6 -4.14 23.86 -4.92 23.13 -5.72 22.32 -6.59 21.51 -7.5 20.65 -8.45 19.79 -9.46 18.91 -10.51 18.02 -11.6 17.11 -12.79 16.22 -14 15.32 -15.31 14.41 -16.71zm0 0c9.12,-11.41 25.78,-13.25 37.19,-4.13 11.41,9.12 13.25,25.78 4.13,37.19l-41.32 -33.06z"/>
   </g>
   <g>
    <path class="fil5" d="M5760.32 13916.61c-14.43,2.26 -27.98,-7.61 -30.24,-22.04 -2.26,-14.43 7.61,-27.98 22.04,-30.24l8.2 52.28zm1694.23 -34.48l-9.98 51.96 -57.42 -10.67 -57.01 -9.88 -56.63 -9.11 -56.25 -8.35 -55.88 -7.6 -55.52 -6.87 -55.17 -6.16 -54.83 -5.43 -54.49 -4.76 -54.17 -4.06 -53.85 -3.41 -53.53 -2.76 -53.24 -2.11 -52.95 -1.48 -52.67 -0.87 -52.4 -0.28 -52.12 0.32 -51.89 0.88 -51.62 1.45 -51.4 1.98 -51.15 2.53 -50.94 3.04 -50.72 3.56 -50.53 4.05 -50.33 4.51 -50.14 5 -49.95 5.44 -49.8 5.88 -49.64 6.31 -49.47 6.73 -49.34 7.13 -49.2 7.51 -8.2 -52.28 49.62 -7.57 49.76 -7.19 49.93 -6.79 50.1 -6.37 50.26 -5.94 50.45 -5.5 50.64 -5.04 50.83 -4.57 51.05 -4.09 51.26 -3.58 51.48 -3.08 51.71 -2.55 51.96 -2.02 52.2 -1.45 52.45 -0.9 52.72 -0.32 53 0.28 53.27 0.89 53.55 1.5 53.86 2.13 54.17 2.78 54.47 3.45 54.79 4.12 55.13 4.8 55.45 5.51 55.81 6.22 56.16 6.95 56.52 7.68 56.89 8.45 57.25 9.21 57.65 10 58.04 10.79zm0 0c14.34,2.75 23.74,16.63 20.99,30.97 -2.75,14.34 -16.63,23.74 -30.97,20.99l9.98 -51.96z"/>
   </g>
   <g>
    <path class="fil5" d="M5757.17 14375.84c-12.33,7.83 -28.69,4.17 -36.52,-8.16 -7.83,-12.33 -4.17,-28.69 8.16,-36.52l28.36 44.68zm608.04 -358.29l9.24 52.1 0 0 -29.45 5.55 -28.24 5.94 -27.07 6.34 -25.96 6.71 -24.9 7.06 -23.91 7.41 -22.97 7.73 -22.09 8.03 -21.27 8.34 -20.49 8.61 -19.8 8.88 -19.13 9.14 -18.55 9.37 -17.99 9.61 -17.54 9.83 -17.1 10.03 -16.75 10.22 -16.42 10.4 -16.17 10.57 -15.98 10.75 -15.83 10.87 -15.74 11.01 -15.69 11.12 -15.71 11.23 -15.78 11.31 -15.9 11.38 -16.08 11.43 -16.3 11.47 -16.57 11.49 -16.9 11.48 -17.29 11.47 -17.71 11.41 -28.36 -44.68 17.11 -11.03 16.75 -11.11 16.46 -11.18 16.21 -11.23 16.04 -11.29 15.9 -11.31 15.82 -11.32 15.8 -11.33 15.83 -11.31 15.91 -11.28 16.06 -11.23 16.23 -11.15 16.48 -11.07 16.77 -10.97 17.12 -10.84 17.51 -10.7 17.96 -10.53 18.46 -10.35 19.01 -10.13 19.59 -9.91 20.25 -9.66 20.94 -9.4 21.67 -9.11 22.47 -8.8 23.31 -8.49 24.19 -8.13 25.13 -7.79 26.12 -7.4 27.14 -7.01 28.23 -6.62 29.38 -6.18 30.55 -5.75 0 0zm1025.49 97.76l-32.2 42 -17.99 -12.83 -19.58 -12.12 -21.13 -11.42 -22.57 -10.7 -23.95 -9.98 -25.27 -9.26 -26.49 -8.53 -27.63 -7.81 -28.7 -7.11 -29.66 -6.4 -30.58 -5.71 -31.39 -5.02 -32.12 -4.36 -32.79 -3.7 -33.37 -3.06 -33.87 -2.43 -34.29 -1.84 -34.64 -1.22 -34.91 -0.65 -35.1 -0.1 -35.21 0.46 -35.25 0.98 -35.21 1.5 -35.09 1.99 -34.89 2.47 -34.62 2.93 -34.28 3.37 -33.85 3.8 -33.35 4.21 -32.77 4.6 -32.12 4.96 -31.38 5.32 -9.24 -52.1 32.16 -5.46 32.86 -5.08 33.51 -4.7 34.07 -4.29 34.57 -3.88 35 -3.45 35.34 -2.99 35.63 -2.53 35.83 -2.03 35.97 -1.52 36.03 -1 36.01 -0.48 35.94 0.1 35.77 0.67 35.56 1.26 35.25 1.88 34.89 2.51 34.43 3.16 33.93 3.82 33.34 4.52 32.69 5.24 31.96 5.97 31.18 6.72 30.32 7.51 29.37 8.31 28.39 9.15 27.33 10.02 26.19 10.9 24.99 11.86 23.71 12.82 22.36 13.84 20.91 14.91zm0 0c11.59,8.89 13.79,25.51 4.9,37.1 -8.89,11.59 -25.51,13.79 -37.1,4.9l32.2 -42z"/>
   </g>
   <g>
    <path class="fil0 str5" d="M6169.78 12084.63c-295.98,-218.06 -56.73,-438.36 119.07,-686.82"/>
   </g>
   <g>
    <path class="fil0 str4" d="M6948.9 11097.51c-39.46,223.57 -61.98,350.21 -9.02,430.19 54.46,82.27 274.37,178.2 246.34,334.86 -26.69,149.18 -143.56,226.76 -158.48,237.18 -1.46,1.01 291.62,-106.81 159.38,-457.23 -42.38,-112.35 -146.89,-164.65 -202.38,-296.98 -39.66,-94.57 -36.42,-152.29 -35.84,-248.02z"/>
    <path id="1" class="fil4" d="M6948.9 11097.51c-39.46,223.57 -61.98,350.21 -9.02,430.19 54.46,82.27 274.37,178.2 246.34,334.86 -26.69,149.18 -143.56,226.76 -158.48,237.18 -1.46,1.01 291.62,-106.81 159.38,-457.23 -42.38,-112.35 -146.89,-164.65 -202.38,-296.98 -39.66,-94.57 -36.42,-152.29 -35.84,-248.02z"/>
   </g>
   <g>
    <path class="fil0 str5" d="M6160.96 11956.75c65.85,-75.59 126.65,-89.38 248.05,50.72 157.98,147.97 235.69,123.62 338.31,45.74 120.21,-91.22 199.15,-255.93 304.41,-58.97"/>
   </g>
   <g>
    <path class="fil0 str4" d="M6035.57 9480.33c-49.08,-82 -156.51,-182.27 -240.46,-247.53 -496.03,-385.61 -1098.68,-725.85 -1753.27,-602.15 -164.41,31.07 -298.04,90.84 -402.95,185.88 -3.73,106.08 -11.44,165.47 46.06,238.28 168.88,213.83 415.68,308.67 624.92,363.46 252.04,66.01 569.97,105.56 1022.36,50.9 251.36,-1.47 471.82,30.27 703.34,11.16z"/>
    <path id="1" class="fil4" d="M6035.57 9480.33c-49.08,-82 -156.51,-182.27 -240.46,-247.53 -496.03,-385.61 -1098.68,-725.85 -1753.27,-602.15 -164.41,31.07 -298.04,90.84 -402.95,185.88 -3.73,106.08 -11.44,165.47 46.06,238.28 168.88,213.83 415.68,308.67 624.92,363.46 252.04,66.01 569.97,105.56 1022.36,50.9 251.36,-1.47 471.82,30.27 703.34,11.16z"/>
   </g>
   <g>
    <path class="fil0 str6" d="M7185.01 9480.33c49.08,-82 156.51,-182.27 240.46,-247.53 496.03,-385.61 1098.69,-725.85 1753.27,-602.15 164.41,31.06 575.85,152.58 680.76,247.62 -7.54,22.23 -167.44,124.11 -355.43,233.67 -234.33,136.56 -512.36,285.12 -593.36,306.33 -252.04,65.99 -569.97,105.56 -1022.36,50.9 -251.36,-1.47 -471.82,30.27 -703.34,11.16z"/>
    <path id="1" class="fil4" d="M7185.01 9480.33c49.08,-82 156.51,-182.27 240.46,-247.53 496.03,-385.61 1098.69,-725.85 1753.27,-602.15 164.41,31.06 575.85,152.58 680.76,247.62 -7.54,22.23 -167.44,124.11 -355.43,233.67 -234.33,136.56 -512.36,285.12 -593.36,306.33 -252.04,65.99 -569.97,105.56 -1022.36,50.9 -251.36,-1.47 -471.82,30.27 -703.34,11.16z"/>
   </g>
   <g>
    <path class="fil0 str7" d="M5153.72 15325.44c4.39,74.77 20.92,150.63 52.87,224.3"/>
   </g>
   <g>
    <path class="fil0 str8" d="M8072.99 15325.44c-175.36,525.64 -101.04,718.96 -739.06,1473.91"/>
   </g>
   <g>
    <path class="fil0 str8" d="M8125.91 16304.4c-89.88,291.16 -188.59,456.65 -335.8,688.29"/>
   </g>
   <g>
    <path class="fil0 str2" d="M4889.82 6493.49c0.78,-1.23 -175.85,778.45 -206.83,1183.24 -40.15,524.54 126.99,1046.95 264.67,1184.64 -53.81,-190.96 -251.86,-890.67 38.32,-1616.11 2.1,-5.27 -49.27,362.83 53.57,1042.01 25.94,171.29 234.62,579.24 213.57,539.58 -78.98,-148.82 -231.4,-869.55 -102.35,-1199.34 15.43,15.43 111.31,788.03 535.72,1240.66 77.97,83.16 446.72,399.95 558.37,420.77 0,0 -264.91,-198.29 -423.62,-511.66 -163.58,-322.98 -221.68,-763.85 -257.59,-935.96 0,0 311.3,713.14 652.03,1015.97 575.51,511.51 1484.97,837.09 1479.38,833.99 -183.21,-101.5 -493.74,-256.53 -748.11,-499.69 -400.84,-383.2 -531.54,-727.1 -531.54,-727.1 55.91,116.88 412.51,376.47 441.67,393.73 -120.51,-106.78 -573.06,-557.04 -597.33,-706.7 0,0 214.73,252.38 390.93,377.81 217.21,154.61 401.38,201.57 442.47,202.42 0,0 -264.47,-193.83 -472.67,-397.75 -163.5,-160.13 -298.64,-347.58 -298.64,-347.58 0.18,-2.58 110.44,111.3 261.99,214.8 157.42,107.51 370.92,186.42 370.92,186.42 -15.83,1.21 -398.97,-328.14 -586.77,-548.59 -314.88,-369.61 -492.33,-726.24 -548.45,-825.24 -0.03,-0.07 906.12,1412.03 1985.64,1568.48 0,0 -228.62,-101.33 -378.32,-197.95 -270.37,-174.49 -556.21,-415.59 -564.47,-515.67 365.54,389.23 1559.1,452.23 1880.8,1586.95 60.7,214.1 33.51,553.28 25.71,845.46 -5.6,210.11 -85.97,471.56 -206.45,639.64 -144.49,201.57 -338.21,340.45 -338.21,340.45 0,0 173.76,-28.24 385.05,-224.26 143.34,-132.99 304.78,-483.7 303.71,-472.79 -6.18,63.07 -33.13,272.34 -98.63,486.5 -85.2,278.53 -191.65,568.34 -191.65,568.34 0,0 424.15,-745.55 499.61,-1163.92 114.72,-636.02 26.91,-1066.16 -57.98,-1399.73 -9.02,-35.47 148.66,168.05 246.32,541.8 96.57,369.59 98.62,1105.48 -3.15,1302.98 -5.75,1.19 239.63,-779.4 239.63,-956.04 0,-448.89 -237.58,-1108.98 -500.4,-1590.5 -230.16,-421.7 -277.19,-497.48 -266.14,-490.26 479.99,313.39 1077.33,756.81 1066.95,1411.97 -5.87,370.88 -135.56,828.63 -135.56,828.63 0,0 77.4,-122.95 119.72,-266.32 40.4,-136.85 45.75,-296.05 50.09,-231.75 2.49,36.95 -10.61,252.31 -10.61,252.31 -41.19,281.86 -234.34,900.09 -234.34,900.09 162.66,-297.73 234.4,-554.84 382.13,-997.87 0,262.14 -18.53,611.66 -109.86,920.46 -122.23,413.26 -326.04,757.11 -322.15,754.52 0,0 465.11,-688.07 490.86,-814.42 1.17,-5.75 -200.05,885.71 -195.54,881.94 762.46,-636.9 1397.22,-2131.56 1427.24,-3114.52 52.26,-1711.29 -62.3,-2687.95 -1332.99,-3928.95 -1126.94,-1100.61 -2615.33,-645.53 -3981.86,93.74 -1089.45,589.38 -1646.15,676.95 -2197.81,1885.85 -119.65,262.2 -244.87,530.58 -364.38,802.71 -496.53,1130.56 -894.85,2325.92 -388.04,3411.48 45.36,97.18 243.93,615 221.75,385.03 -93.55,-969.68 -21.32,-455.65 201.59,148.67 5.61,15.2 -101.7,-297.89 -92.64,-646 7.87,-302.2 71.26,-544.73 119.07,-571.29 -33.19,416.51 221.01,1188.96 195.48,1061.7 -40.23,-200.57 -108.31,-673.29 -80.87,-1248.24 38.9,-815.26 258.35,-1891.94 540.82,-2232.8 -283.34,315.98 -231,1872.42 -123.47,2341.94 220.72,963.67 786.15,1479.83 782.16,1474.55 -468.66,-618.69 -470.46,-1014.1 -568.98,-1752.74 -5.11,-38.3 363.76,1013.78 611.31,1207.01 8.89,6.94 -863.82,-926.84 -542.14,-2717.91 126.58,-704.77 216.55,-1056.39 581.29,-1629.59z"/>
    <path id="1" class="fil2" d="M4889.82 6493.49c0.78,-1.23 -175.85,778.45 -206.83,1183.24 -40.15,524.54 126.99,1046.95 264.67,1184.64 -53.81,-190.96 -251.86,-890.67 38.32,-1616.11 2.1,-5.27 -49.27,362.83 53.57,1042.01 25.94,171.29 234.62,579.24 213.57,539.58 -78.98,-148.82 -231.4,-869.55 -102.35,-1199.34 15.43,15.43 111.31,788.03 535.72,1240.66 77.97,83.16 446.72,399.95 558.37,420.77 0,0 -264.91,-198.29 -423.62,-511.66 -163.58,-322.98 -221.68,-763.85 -257.59,-935.96 0,0 311.3,713.14 652.03,1015.97 575.51,511.51 1484.97,837.09 1479.38,833.99 -183.21,-101.5 -493.74,-256.53 -748.11,-499.69 -400.84,-383.2 -531.54,-727.1 -531.54,-727.1 55.91,116.88 412.51,376.47 441.67,393.73 -120.51,-106.78 -573.06,-557.04 -597.33,-706.7 0,0 214.73,252.38 390.93,377.81 217.21,154.61 401.38,201.57 442.47,202.42 0,0 -264.47,-193.83 -472.67,-397.75 -163.5,-160.13 -298.64,-347.58 -298.64,-347.58 0.18,-2.58 110.44,111.3 261.99,214.8 157.42,107.51 370.92,186.42 370.92,186.42 -15.83,1.21 -398.97,-328.14 -586.77,-548.59 -314.88,-369.61 -492.33,-726.24 -548.45,-825.24 -0.03,-0.07 906.12,1412.03 1985.64,1568.48 0,0 -228.62,-101.33 -378.32,-197.95 -270.37,-174.49 -556.21,-415.59 -564.47,-515.67 365.54,389.23 1559.1,452.23 1880.8,1586.95 60.7,214.1 33.51,553.28 25.71,845.46 -5.6,210.11 -85.97,471.56 -206.45,639.64 -144.49,201.57 -338.21,340.45 -338.21,340.45 0,0 173.76,-28.24 385.05,-224.26 143.34,-132.99 304.78,-483.7 303.71,-472.79 -6.18,63.07 -33.13,272.34 -98.63,486.5 -85.2,278.53 -191.65,568.34 -191.65,568.34 0,0 424.15,-745.55 499.61,-1163.92 114.72,-636.02 26.91,-1066.16 -57.98,-1399.73 -9.02,-35.47 148.66,168.05 246.32,541.8 96.57,369.59 98.62,1105.48 -3.15,1302.98 -5.75,1.19 239.63,-779.4 239.63,-956.04 0,-448.89 -237.58,-1108.98 -500.4,-1590.5 -230.16,-421.7 -277.19,-497.48 -266.14,-490.26 479.99,313.39 1077.33,756.81 1066.95,1411.97 -5.87,370.88 -135.56,828.63 -135.56,828.63 0,0 77.4,-122.95 119.72,-266.32 40.4,-136.85 45.75,-296.05 50.09,-231.75 2.49,36.95 -10.61,252.31 -10.61,252.31 -41.19,281.86 -234.34,900.09 -234.34,900.09 162.66,-297.73 234.4,-554.84 382.13,-997.87 0,262.14 -18.53,611.66 -109.86,920.46 -122.23,413.26 -326.04,757.11 -322.15,754.52 0,0 465.11,-688.07 490.86,-814.42 1.17,-5.75 -200.05,885.71 -195.54,881.94 762.46,-636.9 1397.22,-2131.56 1427.24,-3114.52 52.26,-1711.29 -62.3,-2687.95 -1332.99,-3928.95 -1126.94,-1100.61 -2615.33,-645.53 -3981.86,93.74 -1089.45,589.38 -1646.15,676.95 -2197.81,1885.85 -119.65,262.2 -244.87,530.58 -364.38,802.71 -496.53,1130.56 -894.85,2325.92 -388.04,3411.48 45.36,97.18 243.93,615 221.75,385.03 -93.55,-969.68 -21.32,-455.65 201.59,148.67 5.61,15.2 -101.7,-297.89 -92.64,-646 7.87,-302.2 71.26,-544.73 119.07,-571.29 -33.19,416.51 221.01,1188.96 195.48,1061.7 -40.23,-200.57 -108.31,-673.29 -80.87,-1248.24 38.9,-815.26 258.35,-1891.94 540.82,-2232.8 -283.34,315.98 -231,1872.42 -123.47,2341.94 220.72,963.67 786.15,1479.83 782.16,1474.55 -468.66,-618.69 -470.46,-1014.1 -568.98,-1752.74 -5.11,-38.3 363.76,1013.78 611.31,1207.01 8.89,6.94 -863.82,-926.84 -542.14,-2717.91 126.58,-704.77 216.55,-1056.39 581.29,-1629.59z"/>
   </g>
   <g>
    <path class="fil0 str4" d="M3742.56 8282.56c295.42,-24.12 508.02,-72.42 707.78,-42.13 783.01,118.76 989.31,621.85 1596.56,681.07 90.17,8.79 256.31,10.17 390,-39.22 -149.93,140.37 -404.89,345.55 -620.97,278.66 -630.89,-235.35 -1392.79,-552.52 -2045.18,-767.09 -48.46,-15.94 17.58,-90.48 -28.19,-111.29z"/>
    <path id="1" class="fil4" d="M3742.56 8282.56c295.42,-24.12 508.02,-72.42 707.78,-42.13 783.01,118.76 989.31,621.85 1596.56,681.07 90.17,8.79 256.31,10.17 390,-39.22 -149.93,140.37 -404.89,345.55 -620.97,278.66 -630.89,-235.35 -1392.79,-552.52 -2045.18,-767.09 -48.46,-15.94 17.58,-90.48 -28.19,-111.29z"/>
   </g>
   <g>
    <path class="fil0 str9" d="M9503.92 8282.56c-295.42,-24.12 -508.02,-72.42 -707.78,-42.13 -783.01,118.76 -989.31,621.85 -1596.56,681.07 -90.17,8.79 -256.31,10.17 -390,-39.22 149.93,140.37 404.89,345.55 620.97,278.66 600.03,-223.84 1378.83,-690.39 2081.39,-765.37 84.64,-9.03 -83.74,-78.59 -8.02,-113.01z"/>
    <path id="1" class="fil4" d="M9503.92 8282.56c-295.42,-24.12 -508.02,-72.42 -707.78,-42.13 -783.01,118.76 -989.31,621.85 -1596.56,681.07 -90.17,8.79 -256.31,10.17 -390,-39.22 149.93,140.37 404.89,345.55 620.97,278.66 600.03,-223.84 1378.83,-690.39 2081.39,-765.37 84.64,-9.03 -83.74,-78.59 -8.02,-113.01z"/>
   </g>
   <g>
    <path class="fil0 str4" d="M6060.6 11733.23c179.08,-132.27 358.15,-264.54 537.23,-396.81 -30.87,-33.81 -61.73,-67.61 -92.6,-101.42 47.04,-149.93 94.07,-299.86 141.11,-449.79 -10.27,-604.14 27.97,-1208.27 17.7,-1812.41 -399.82,483.6 -861.37,995.86 -1261.19,1479.46 171.98,-88.19 207.99,-128.54 379.97,-216.73 -121.47,177.21 -144.79,369.6 -331.47,565.1 214.61,-91.13 263.85,-140.38 396.88,-235.92 -98.48,180.07 -204.68,351.31 -395.77,564.45 157.28,-125.31 220.85,-172.36 380.34,-293.25 -144.78,238.5 -274.14,430.68 -535.78,683.51 212.4,-133.03 356.45,-217.54 610.74,-330.72 -116.85,234.46 -249.14,413.77 -438.76,632.79 199.91,-116.12 399.81,-232.25 599.72,-348.37 -141.11,158.75 -282.22,317.5 -423.33,476.25 138.4,-72.05 276.81,-144.09 415.21,-216.14z"/>
    <path id="1" class="fil4" d="M6060.6 11733.23c179.08,-132.27 358.15,-264.54 537.23,-396.81 -30.87,-33.81 -61.73,-67.61 -92.6,-101.42 47.04,-149.93 94.07,-299.86 141.11,-449.79 -10.27,-604.14 27.97,-1208.27 17.7,-1812.41 -399.82,483.6 -861.37,995.86 -1261.19,1479.46 171.98,-88.19 207.99,-128.54 379.97,-216.73 -121.47,177.21 -144.79,369.6 -331.47,565.1 214.61,-91.13 263.85,-140.38 396.88,-235.92 -98.48,180.07 -204.68,351.31 -395.77,564.45 157.28,-125.31 220.85,-172.36 380.34,-293.25 -144.78,238.5 -274.14,430.68 -535.78,683.51 212.4,-133.03 356.45,-217.54 610.74,-330.72 -116.85,234.46 -249.14,413.77 -438.76,632.79 199.91,-116.12 399.81,-232.25 599.72,-348.37 -141.11,158.75 -282.22,317.5 -423.33,476.25 138.4,-72.05 276.81,-144.09 415.21,-216.14z"/>
   </g>
   <g>
    <path class="fil0 str4" d="M6149.01 15373.44c182.56,-127.86 303.37,-255.71 455.06,-383.57 142.64,128.12 285.28,256.24 427.92,384.36 -145.58,38.44 -306.58,55.44 -458.77,55.32 -142.11,-0.12 -274.92,-13.91 -424.21,-56.11z"/>
    <path id="1" class="fil4" d="M6149.01 15373.44c182.56,-127.86 303.37,-255.71 455.06,-383.57 142.64,128.12 285.28,256.24 427.92,384.36 -145.58,38.44 -306.58,55.44 -458.77,55.32 -142.11,-0.12 -274.92,-13.91 -424.21,-56.11z"/>
   </g>
   <g>
    <path class="fil0 str5" d="M5165.42 14456.23c29.05,30.09 53.71,66.82 72.8,101.28 19.14,34.55 35.88,129.23 52.17,175.01"/>
   </g>
   <g>
    <path class="fil0 str5" d="M7986.17 14680.73c11.32,-32.02 -1.59,-100.45 9.68,-132.43 11.2,-31.75 33.5,-64.68 75.6,-92.06"/>
   </g>
   <g>
    <path class="fil0 str4" d="M3336.65 10717.83c524.76,386.59 1049.51,773.17 1574.27,1159.76 76.95,12.15 155.51,34.8 233.8,41.71 79.71,7.03 155.08,-7.95 229.23,-2.02 -67.27,47.66 -132.36,104.14 -168.74,167.22 -29.73,51.55 -44.05,114.15 -51.75,172.33 88.19,136.7 143.32,273.4 264.58,410.1 -116.12,-88.19 -232.25,-176.39 -348.37,-264.58 69.09,115.38 155.47,186.99 218.28,262.38 -152.87,-88.92 -299.12,-246.22 -429.94,-368.22 6.46,106.89 23.95,198.37 63.47,314.05 41.31,120.94 137.77,274.97 179.09,395.92 -273.4,-311.62 -571.06,-610.01 -844.46,-921.63 2.94,85.26 21.31,152.87 61.73,238.13 -104.67,-127.36 -233.6,-334.13 -338.25,-461.47 -139.32,-169.54 -278.68,-284 -418.02,-453.56 -73.5,-239.6 -151.42,-450.52 -224.92,-690.12z"/>
    <path id="1" class="fil4" d="M3336.65 10717.83c524.76,386.59 1049.51,773.17 1574.27,1159.76 76.95,12.15 155.51,34.8 233.8,41.71 79.71,7.03 155.08,-7.95 229.23,-2.02 -67.27,47.66 -132.36,104.14 -168.74,167.22 -29.73,51.55 -44.05,114.15 -51.75,172.33 88.19,136.7 143.32,273.4 264.58,410.1 -116.12,-88.19 -232.25,-176.39 -348.37,-264.58 69.09,115.38 155.47,186.99 218.28,262.38 -152.87,-88.92 -299.12,-246.22 -429.94,-368.22 6.46,106.89 23.95,198.37 63.47,314.05 41.31,120.94 137.77,274.97 179.09,395.92 -273.4,-311.62 -571.06,-610.01 -844.46,-921.63 2.94,85.26 21.31,152.87 61.73,238.13 -104.67,-127.36 -233.6,-334.13 -338.25,-461.47 -139.32,-169.54 -278.68,-284 -418.02,-453.56 -73.5,-239.6 -151.42,-450.52 -224.92,-690.12z"/>
   </g>
   <g>
    <path class="fil0 str4" d="M3612.36 12042.95c301.34,468.16 600.45,788.61 961.32,1060.55 -264.58,-127.88 -504.91,-257.97 -771.7,-465.23 -49.98,-183.74 -139.64,-411.58 -189.62,-595.32z"/>
    <path id="1" class="fil4" d="M3612.36 12042.95c301.34,468.16 600.45,788.61 961.32,1060.55 -264.58,-127.88 -504.91,-257.97 -771.7,-465.23 -49.98,-183.74 -139.64,-411.58 -189.62,-595.32z"/>
   </g>
   <g>
    <path class="fil0 str10" d="M9609.76 12042.95c-301.34,468.16 -600.45,788.61 -961.32,1060.55 264.58,-127.88 504.91,-257.97 771.7,-465.23 49.98,-183.74 139.64,-411.58 189.62,-595.32z"/>
    <path id="1" class="fil2" d="M9609.76 12042.95c-301.34,468.16 -600.45,788.61 -961.32,1060.55 264.58,-127.88 504.91,-257.97 771.7,-465.23 49.98,-183.74 139.64,-411.58 189.62,-595.32z"/>
   </g>
   <g>
    <path class="fil0 str2" d="M10231.42 10347.4c-398.98,317.52 -847.72,631.17 -1236.27,968.28 -298.55,259.04 -523.11,575.88 -829.68,819.86 127.82,-81.16 345.43,-263.85 518.15,-434.36 -205.05,316.76 -471.85,562.98 -745.25,842.26 267.52,-173.45 429.22,-324.84 696.74,-498.29 -82.31,178.59 -111.72,235.91 -229.31,403.48 255.76,-232.24 361.59,-338.81 606.33,-606.33 -138.17,246.94 -236.65,425.54 -374.82,672.48 -150.67,258.71 -343.22,501.97 -566.65,725.4 352.81,-222.32 546.89,-444.64 888.67,-680.19 163.02,-254.36 406.35,-528.44 544.49,-797.07 112.93,-81.49 265.54,-158.58 378.47,-240.07 116.38,-391.82 232.75,-783.63 349.13,-1175.45z"/>
    <path id="1" class="fil2" d="M10231.42 10347.4c-398.98,317.52 -847.72,631.17 -1236.27,968.28 -298.55,259.04 -523.11,575.88 -829.68,819.86 127.82,-81.16 345.43,-263.85 518.15,-434.36 -205.05,316.76 -471.85,562.98 -745.25,842.26 267.52,-173.45 429.22,-324.84 696.74,-498.29 -82.31,178.59 -111.72,235.91 -229.31,403.48 255.76,-232.24 361.59,-338.81 606.33,-606.33 -138.17,246.94 -236.65,425.54 -374.82,672.48 -150.67,258.71 -343.22,501.97 -566.65,725.4 352.81,-222.32 546.89,-444.64 888.67,-680.19 163.02,-254.36 406.35,-528.44 544.49,-797.07 112.93,-81.49 265.54,-158.58 378.47,-240.07 116.38,-391.82 232.75,-783.63 349.13,-1175.45z"/>
   </g>
   <g>
    <path class="fil0 str11" d="M9992.4 2692.42c4040.06,0 7315.18,3275.12 7315.18,7315.18 0,4040.06 -3275.12,7315.18 -7315.18,7315.18 -4040.06,0 -7315.18,-3275.12 -7315.18,-7315.18 0,-4040.06 3275.12,-7315.18 7315.18,-7315.18z"/>
   </g>
  </g>
 </g>
</svg>
