<svg xmlns="http://www.w3.org/2000/svg" xmlns:xlink="http://www.w3.org/1999/xlink" width="64" height="64" viewBox="0 0 64 64">
  <defs>
    <style>
      .cls-1 {
        fill: #fff;
      }

      .cls-2 {
        clip-path: url(#clip-path);
      }

      .cls-3 {
        fill: #785ca7;
      }

      .cls-4 {
        fill: #161414;
      }

      .cls-5 {
        fill: #1c1a1d;
      }
    </style>
    <clipPath id="clip-path">
      <circle id="Ellipse_2069" data-name="Ellipse 2069" class="cls-1" cx="32" cy="32" r="32" transform="translate(-24820 -23135)"/>
    </clipPath>
  </defs>
  <g id="Group_1012" data-name="Group 1012" transform="translate(24955 23119)">
    <g id="Group_1011" data-name="Group 1011" transform="translate(-135 16)">
      <circle id="Ellipse_2068" data-name="Ellipse 2068" class="cls-1" cx="32" cy="32" r="32" transform="translate(-24820 -23135)"/>
      <g id="Mask_Group_274" data-name="Mask Group 274" class="cls-2">
        <g id="_0DncyJ.tif" data-name="0DncyJ.tif" transform="translate(-24802.285 -23132.02)">
          <path id="Path_20982" data-name="Path 20982" class="cls-3" d="M198.388,93.7c3.553,2,7.087,4.036,10.667,5.985a3.892,3.892,0,0,1,2.251,3.756c0,3.766.082,7.534.176,11.3a3.8,3.8,0,0,1-2.043,3.758c-3.367,1.932-6.686,3.947-10.012,5.952a3.449,3.449,0,0,1-3.742.065c-3.411-1.932-6.836-3.836-10.241-5.773a3.728,3.728,0,0,1-2.027-3.432q-.048-5.891-.193-11.783a3.857,3.857,0,0,1,1.785-3.278c2.382-1.932,4.6-2.138,6.976-.111a11.063,11.063,0,0,0,1.546.9c-1.208.744-2.21,1.449-3.287,2a3.419,3.419,0,0,0-1.932,3.324c.014,2.123.082,4.246.135,6.37a3.022,3.022,0,0,0,1.671,2.727c1.932,1.063,3.843,2.138,5.783,3.179a3.217,3.217,0,0,0,3.321-.072q2.688-1.582,5.362-3.193a3.3,3.3,0,0,0,1.727-2.966c0-2.174-.017-4.331-.075-6.5a3.448,3.448,0,0,0-1.954-3.08c-2.691-1.488-5.353-3.034-8.026-4.556a3.9,3.9,0,0,1,.71-.022c1.092.181,1.471-.242,1.382-1.357C198.262,95.837,198.366,94.765,198.388,93.7Z" transform="translate(-182.914 -66.99)"/>
          <path id="Path_20983" data-name="Path 20983" class="cls-3" d="M196.231,95.538c-3.865-2.147-7.766-4.275-11.625-6.454a3.179,3.179,0,0,1-1.585-2.923c-.043-4.046-.07-8.094-.135-12.14a3.165,3.165,0,0,1,1.737-3.034q5.239-3.051,10.415-6.2a3.106,3.106,0,0,1,3.4-.065q5.326,3,10.657,6a3.279,3.279,0,0,1,1.761,3.056q.031,5.891.13,11.78A3.855,3.855,0,0,1,209.2,88.84c-2.365,1.874-4.589,2.227-6.985.179a11.907,11.907,0,0,0-1.56-.92c1.164-.7,2.08-1.314,3.053-1.816a3.686,3.686,0,0,0,2.15-3.8c-.1-1.879-.082-3.766-.075-5.65a3.346,3.346,0,0,0-1.775-3.167q-2.773-1.558-5.531-3.14a3.159,3.159,0,0,0-3.408.046c-1.855,1.106-3.717,2.2-5.57,3.316a3.007,3.007,0,0,0-1.529,2.691c0,2.283-.092,4.577.1,6.845a3.685,3.685,0,0,0,1.309,2.514c2.1,1.362,4.4,2.43,6.613,3.623.053.42.14.841.152,1.261C196.19,92.391,196.2,93.966,196.231,95.538Z" transform="translate(-182.883 -64.252)"/>
          <path id="Path_20984" data-name="Path 20984" class="cls-4" d="M197.754,108.933c-1.85-1.138-2.273-2.737-1.713-4.766a8,8,0,0,0,.041-2.271c-.019-.838.3-1.234,1.188-1.234,2.568-.053,2.575-.072,2.56,2.553v1.1h2.9A1.571,1.571,0,0,1,204.483,106c.041,1.558.094,3.126,0,4.679-.242,3.729-2.592,6-5.647,7.616a2.776,2.776,0,0,1-2.237-.242c-3.35-1.985-5.454-4.746-5.087-8.911.092-1.031-.082-2.092.053-3.116.072-.551.428-1.343.853-1.5a5.449,5.449,0,0,1,2.328-.068c.116,0,.29.63.242.94a4.017,4.017,0,0,0,1.691,3.812c.242.193.662.14,1,.2Z" transform="translate(-183.681 -67.636)"/>
          <path id="Path_20985" data-name="Path 20985" class="cls-5" d="M197.232,96.931c-.027-1.572-.041-3.14-.082-4.72A10.2,10.2,0,0,0,197,90.95c0-1.4-.022-2.807.048-4.208a1.029,1.029,0,0,0-.862-1.208c-.384-.1-.756-.268-1.145-.355a1.629,1.629,0,0,1-1.379-1.92c.046-.841,0-1.691.017-2.527a1.386,1.386,0,0,1,1.51-1.5c2.041-.019,4.082-.022,6.123.031a1.269,1.269,0,0,1,1.355,1.476c-.017.36,0,.725,0,1.082-.058,3.155.42,2.843-2.575,3.77a1.469,1.469,0,0,0-.725,1.106c-.068,1.882-.019,3.766-.012,5.65a31.328,31.328,0,0,0-.039,3.193c.089,1.114-.29,1.539-1.382,1.357a3.9,3.9,0,0,0-.71.022Zm-1.36-15.309c.169.582.164,1.232.483,1.507a3.438,3.438,0,0,0,3.691.017c.328-.273.353-.915.56-1.524Z" transform="translate(-183.885 -65.644)"/>
        </g>
      </g>
    </g>
  </g>
</svg>
