<svg xmlns="http://www.w3.org/2000/svg" xmlns:xlink="http://www.w3.org/1999/xlink" width="64" height="64" viewBox="0 0 64 64">
  <defs>
    <style>
      .cls-1 {
        fill: #fff;
      }

      .cls-2 {
        clip-path: url(#clip-path);
      }

      .cls-3 {
        fill: #9a9a9a;
      }

      .cls-4 {
        fill: #238261;
      }
    </style>
    <clipPath id="clip-path">
      <circle id="Ellipse_2158" data-name="Ellipse 2158" class="cls-1" cx="32" cy="32" r="32" transform="translate(-24751 -23193)"/>
    </clipPath>
  </defs>
  <g id="Group_1013" data-name="Group 1013" transform="translate(24751 23129)">
    <g id="Mask_Group_337" data-name="Mask Group 337" class="cls-2" transform="translate(0 64)">
      <g id="Group_893" data-name="Group 893" transform="translate(-978 1568)">
        <g id="Group_761" data-name="Group 761" transform="translate(-1312 152)">
          <circle id="Ellipse_1805" data-name="Ellipse 1805" class="cls-1" cx="32" cy="32" r="32" transform="translate(-22461 -24913)"/>
          <g id="SX" transform="translate(-22457.852 -24909.84)">
            <path id="Path_17647" data-name="Path 17647" class="cls-3" d="M906.557,383.469l-4.215,5.2c-2.951,3.64-5.888,7.3-8.862,10.909a.843.843,0,0,0,0,1.3q5.533,6.8,11.024,13.628c.131.162.24.342.423.6-.315.023-.538.052-.764.052-3.019,0-6.038-.018-9.055.023a1.852,1.852,0,0,1-1.633-.793c-1.907-2.4-3.849-4.778-5.776-7.161-1.579,1.2-8.521,15.052-9.267,18.453,6.133,2.964,18.283,2.518,27.086-5.139a27.406,27.406,0,0,0,9.29-16.918,29.5,29.5,0,0,0-3.567-19.066,6.275,6.275,0,0,1,.589.626A25.209,25.209,0,0,1,916.53,397a28.13,28.13,0,0,1-30.155,32.016,29.663,29.663,0,0,1-8.431-1.96c-.36.841-.708,1.654-1.057,2.466l-.188-.06a13.626,13.626,0,0,1,.313-1.924c.195-.648-.07-.916-.563-1.222-1.67-1.036-3.315-2.108-4.968-3.179-.248-.162-.473-.36-.708-.54l.136-.23,6.427,3.006c.637-2.27,1.271-4.428,1.853-6.6a77.5,77.5,0,0,1,13.722-27.681c1.892-2.445,3.987-4.736,6.034-7.057a1.876,1.876,0,0,1,1.237-.535C902.217,383.438,904.258,383.469,906.557,383.469Z" transform="translate(-859.097 -371.851)"/>
            <path id="Path_17648" data-name="Path 17648" class="cls-4" d="M843.24,313.436l-1.916,2.463,3.223,2.471c-.06.089-.12.178-.178.267l-3.659-2.018c-1.419,1.564-2.878,3.108-4.262,4.713a89.789,89.789,0,0,0-14.815,24.327c-1.171,2.808-2.322,5.626-3.429,8.458a1.384,1.384,0,0,1-1.548,1.042c-1.928-.063-3.859-.021-5.937-.021.433-.733.789-1.354,1.161-1.965,2.7-4.444,5.379-8.9,8.118-13.315a1.185,1.185,0,0,0-.123-1.6q-5.444-7.133-10.844-14.291c-.092-.122-.172-.255-.324-.472.324-.018.551-.042.778-.042,2.72,0,5.443.026,8.165-.019a2.07,2.07,0,0,1,1.8.83c1.753,2.108,3.536,4.206,5.311,6.305.208.246.425.486.725.822l14-15.2c-5.062-3.022-15.078-3.891-23.8.574A27.194,27.194,0,0,0,801.6,333.933c-2.279,7.683-1.185,15.05,2.455,22.133a20.4,20.4,0,0,1-3.586-6.3c-4.423-12.493-.173-27.438,13.012-34.421a26.736,26.736,0,0,1,19.473-2.712,54.865,54.865,0,0,1,6.725,2.48c.486.19.811.256,1.2-.149.529-.535,1.125-1.005,1.7-1.488a2.849,2.849,0,0,1,.486-.269Z" transform="translate(-798.78 -311.86)"/>
          </g>
        </g>
      </g>
    </g>
  </g>
</svg>
