<svg xmlns="http://www.w3.org/2000/svg" xmlns:xlink="http://www.w3.org/1999/xlink" width="64" height="64" viewBox="0 0 64 64">
  <defs>
    <style>
      .cls-1 {
        fill: #fff;
      }

      .cls-2 {
        clip-path: url(#clip-path);
      }

      .cls-3 {
        fill: #372f28;
      }

      .cls-4 {
        fill: #f7f4ee;
      }

      .cls-5 {
        fill: #d7d2c9;
      }

      .cls-6 {
        fill: #edeae4;
      }

      .cls-7 {
        fill: #372e26;
      }

      .cls-8 {
        fill: #e8e5e4;
      }

      .cls-9 {
        fill: #dfdad2;
      }

      .cls-10 {
        fill: #403931;
      }

      .cls-11 {
        fill: #3f372f;
      }

      .cls-12 {
        fill: #341e15;
      }

      .cls-13 {
        fill: #242424;
      }
    </style>
    <clipPath id="clip-path">
      <circle id="Ellipse_2071" data-name="Ellipse 2071" class="cls-1" cx="32" cy="32" r="32" transform="translate(-24651 -23108)"/>
    </clipPath>
  </defs>
  <g id="Group_1015" data-name="Group 1015" transform="translate(24601 23114)">
    <g id="Group_1014" data-name="Group 1014" transform="translate(50 -6)">
      <circle id="Ellipse_2070" data-name="Ellipse 2070" class="cls-1" cx="32" cy="32" r="32" transform="translate(-24651 -23108)"/>
      <g id="Mask_Group_275" data-name="Mask Group 275" class="cls-2">
        <g id="Kj0NuH.tif" transform="translate(-24639.871 -23100.715)">
          <path id="Path_20986" data-name="Path 20986" class="cls-3" d="M325.929,171.555c1.126-1.48,2.072-2.859,3.159-4.119a6.6,6.6,0,0,1,7.4-2.166c3.372.985,7.22-2.014,6.963-4.974-1.365,0-3.057.516-3.924-.112a23.471,23.471,0,0,1-4.133-4.628c-.148-.184.13-.931.415-1.2a55.88,55.88,0,0,1,4.483-3.837,1.881,1.881,0,0,1,1.8.079,31.125,31.125,0,0,1,3.249,3.563,2.7,2.7,0,0,1-.285,3.848,1.877,1.877,0,0,0-.675,2.148,4.5,4.5,0,0,1-2.574,4.855,30.3,30.3,0,0,1-3.249,1.328c1.776,2.6,1.8,4.3.144,5.678a3.411,3.411,0,0,1-4.415-.245q-2.166-2.231.982-5.686c-3.039-1.17-6.083,1.841-8.3,6.036a11.665,11.665,0,0,1,1.043.671c1.224.971,3.083,1.736,3.509,2.989.931,2.762,1.664,5.718.415,8.721-1.855,4.444-3.61,8.934-5.368,13.411-.466,1.17-1.235,1.35-2.5,1.642-4.079.946-6.721-1.668-9.747-3.321-2.765-1.513-5.382-3.3-8.064-4.964-2.188-1.357-2.628-2.718-1.336-4.935,2.7-4.631,5.415-9.241,8.252-13.8,1.8-2.888,7.249-4.13,10.183-2.444C324.2,170.573,325.027,171.028,325.929,171.555Zm3.249,16.49.383-.112-.361-.61-.787-.022,1.494-2.491,1.271.487-.2-1.863c.224-.4.679-.83.635-1.2-.264-2.166-.592-4.357-1.025-6.5-.083-.4-.722-.758-1.148-1.018-2.1-1.249-4.223-2.458-6.342-3.678-2.451-1.415-7.31-.574-8.887,1.747s-2.946,4.891-4.4,7.346c-1.4,2.332-2.812,4.657-4.195,7a2,2,0,0,0,.722,3.047c4.581,2.74,9.133,5.53,13.786,8.144,2.166,1.209,2.725.8,3.321-1.668l1.04,2.119.578.184,1.22-2.722c.563-1.538,1.141-3.068,1.686-4.61.422-1.191.809-2.4,1.209-3.61Zm7.093-32.784c.527.661,1,1.263,1.487,1.855,2.794,3.368,3.505,3.382,6.552.289a1.832,1.832,0,0,0,.2-2.7c-1.036-1.271-2.195-2.44-3.35-3.7Zm3.1,13.753c-.837-.794-1.549-1.9-2.527-2.285s-2.574,1.588-2.556,2.74a2.494,2.494,0,0,0,2.437,2.364c1.238-.014,2.325-1.166,2.642-2.819Z" transform="translate(-304.239 -150.33)"/>
          <path id="Path_20987" data-name="Path 20987" class="cls-4" d="M331.567,190.7l-1.494,2.491-2.047,3.267c-1.469-.722-2.985-1.346-4.393-2.166a12.342,12.342,0,0,1-3.653-2.624,10.386,10.386,0,0,0-4.613-3.133,24.634,24.634,0,0,1-3.9-2.527c1.444-2.455,2.8-4.989,4.4-7.346s6.436-3.162,8.887-1.747c2.119,1.22,4.242,2.429,6.342,3.678.44.26,1.065.614,1.148,1.018.433,2.166.762,4.332,1.025,6.5.043.361-.411.8-.635,1.2Zm-5.523-3.888-.689-.076a4.476,4.476,0,0,0-.087,1.776,1.509,1.509,0,0,0,1.26.722c.538-.076,1.014-.588,1.516-.91l-.274-.466-1.6.379Zm-7.516-4.332-.628-.069c-.054.531-.321,1.17-.112,1.556a1.8,1.8,0,0,0,1.361.841c.448,0,.884-.581,1.325-.9l-.238-.383-1.48.31Zm2.166,2.682c-.361,1.989.112,2.913,1.3,2.993a4.555,4.555,0,0,0,1.628-.567v-.8c-1.758,1.155-2.209-.123-2.931-1.632Z" transform="translate(-305.892 -156.222)"/>
          <path id="Path_20988" data-name="Path 20988" class="cls-5" d="M310.107,188.9a24.634,24.634,0,0,0,3.9,2.527,10.307,10.307,0,0,1,4.613,3.133,12.342,12.342,0,0,0,3.653,2.624c1.408.816,2.924,1.444,4.393,2.166l-2.913,6.086c-.6,2.466-1.17,2.888-3.321,1.668-4.653-2.614-9.205-5.415-13.786-8.144a1.982,1.982,0,0,1-.722-3.047C307.3,193.557,308.707,191.232,310.107,188.9Z" transform="translate(-304.535 -159.109)"/>
          <path id="Path_20989" data-name="Path 20989" class="cls-6" d="M345.717,155.459l4.891-4.256c1.155,1.263,2.314,2.433,3.35,3.7a1.835,1.835,0,0,1-.2,2.7c-3.047,3.094-3.758,3.079-6.552-.289C346.717,156.723,346.244,156.12,345.717,155.459Zm2.144.112c.9.884,1.628,1.855,1.837,1.754a12.389,12.389,0,0,0,2.281-1.765c-.632-.495-1.224-1.307-1.906-1.39C349.518,154.1,348.854,154.9,347.861,155.571Z" transform="translate(-313.688 -150.529)"/>
          <path id="Path_20990" data-name="Path 20990" class="cls-7" d="M329.135,207.557l2.913-6.075,2.047-3.267.787.022-.033.722v-.025c-1.379,2.339-2.783,4.66-4.086,7.039-.126.227.361.791.556,1.2l-.191.213.484-.134.361-.112-1.22,2.722-.578-.184Z" transform="translate(-309.914 -161.229)"/>
          <path id="Path_20991" data-name="Path 20991" class="cls-8" d="M348.229,173.833c-.318,1.653-1.4,2.8-2.66,2.819a2.494,2.494,0,0,1-2.437-2.364c-.018-1.152,1.606-3.112,2.556-2.74S347.392,173.039,348.229,173.833Zm-2-.928-1.083-.148-.495,2.166,1.592.227Z" transform="translate(-313.1 -155.149)"/>
          <path id="Path_20992" data-name="Path 20992" class="cls-9" d="M332.446,207.331l-.361.112a.5.5,0,0,0-.292-.079c-.2-.408-.682-.971-.556-1.2,1.3-2.379,2.707-4.693,4.086-7.039-.4,1.2-.787,2.4-1.209,3.61C333.587,204.263,333.009,205.793,332.446,207.331Z" transform="translate(-310.388 -161.436)"/>
          <path id="Path_20993" data-name="Path 20993" class="cls-7" d="M337.491,194.566l1.083-1.375.2,1.863Z" transform="translate(-311.816 -160.085)"/>
          <path id="Path_20994" data-name="Path 20994" class="cls-9" d="M336.533,198.946l.033-.722.361.61Z" transform="translate(-311.598 -161.231)"/>
          <path id="Path_20995" data-name="Path 20995" class="cls-10" d="M330.09,189.921l.13,1.444,1.6-.379.274.466c-.5.321-.978.834-1.516.91a1.509,1.509,0,0,1-1.26-.722,4.478,4.478,0,0,1,.087-1.776Z" transform="translate(-309.938 -159.328)"/>
          <path id="Path_20996" data-name="Path 20996" class="cls-11" d="M320.364,184.3l.227,1.354,1.48-.31.238.383c-.44.321-.877.892-1.325.9a1.8,1.8,0,0,1-1.361-.841c-.209-.386.058-1.025.112-1.556Z" transform="translate(-307.731 -158.046)"/>
          <path id="Path_20997" data-name="Path 20997" class="cls-3" d="M323.378,187.793c.7,1.516,1.166,2.787,2.935,1.624v.8a4.506,4.506,0,0,1-1.628.567C323.5,190.706,323.038,189.782,323.378,187.793Z" transform="translate(-308.579 -158.857)"/>
          <path id="Path_20998" data-name="Path 20998" class="cls-12" d="M348.493,156.445c.993-.668,1.657-1.469,2.213-1.4.682.083,1.274.9,1.906,1.39a12.765,12.765,0,0,1-2.281,1.765C350.121,158.3,349.4,157.329,348.493,156.445Z" transform="translate(-314.32 -151.402)"/>
          <path id="Path_20999" data-name="Path 20999" class="cls-3" d="M331.929,209.791a.5.5,0,0,1,.292.079l-.484.134Z" transform="translate(-310.507 -163.864)"/>
          <path id="Path_21000" data-name="Path 21000" class="cls-13" d="M346.673,173.268v2.22l-1.592-.227.495-2.166Z" transform="translate(-313.543 -155.511)"/>
        </g>
      </g>
    </g>
  </g>
</svg>
