<svg xmlns="http://www.w3.org/2000/svg" xmlns:xlink="http://www.w3.org/1999/xlink" width="64" height="64" viewBox="0 0 64 64">
  <defs>
    <style>
      .cls-1 {
        fill: #fff;
      }

      .cls-2 {
        clip-path: url(#clip-path);
      }

      .cls-3 {
        fill: #53ae94;
      }
    </style>
    <clipPath id="clip-path">
      <circle id="Ellipse_1825" data-name="Ellipse 1825" class="cls-1" cx="32" cy="32" r="32" transform="translate(-23439 -23605)"/>
    </clipPath>
  </defs>
  <g id="Mask_Group_19" data-name="Mask Group 19" class="cls-2" transform="translate(23439 23605)">
    <g id="tether-seeklogo.com" transform="translate(-23439 -23605)">
      <path id="Path_17428" data-name="Path 17428" class="cls-3" d="M32,0A32,32,0,1,1,0,32,32,32,0,0,1,32,0"/>
      <path id="Path_17429" data-name="Path 17429" class="cls-1" d="M35.949,27.736v-4.76H46.835V15.723H17.193v7.253H28.08v4.756c-8.848.406-15.5,2.159-15.5,4.258s6.656,3.852,15.5,4.26V51.5h7.872V36.25c8.832-.408,15.471-2.159,15.471-4.256s-6.639-3.848-15.471-4.256m0,7.22v0c-.222.014-1.363.083-3.9.083-2.031,0-3.46-.058-3.964-.084v.006c-7.817-.346-13.652-1.708-13.652-3.336s5.836-2.988,13.652-3.335V33.6c.512.035,1.976.122,4,.122,2.428,0,3.648-.1,3.872-.122V28.288c7.8.348,13.623,1.71,13.623,3.333s-5.824,2.986-13.623,3.334"/>
    </g>
  </g>
</svg>
