<svg xmlns="http://www.w3.org/2000/svg" xmlns:xlink="http://www.w3.org/1999/xlink" width="64" height="64" viewBox="0 0 64 64">
  <defs>
    <style>
      .cls-1 {
        fill: #fff;
      }

      .cls-2 {
        clip-path: url(#clip-path);
      }

      .cls-3 {
        fill: #342e22;
      }

      .cls-4 {
        fill: #2b281f;
      }

      .cls-5 {
        fill: #feee52;
      }

      .cls-6 {
        fill: #cf9d56;
      }

      .cls-7 {
        fill: #fbd150;
      }

      .cls-8 {
        fill: #b08348;
      }

      .cls-9 {
        fill: #e9dc4c;
      }

      .cls-10 {
        fill: #af8247;
      }

      .cls-11 {
        fill: #e4d84c;
      }

      .cls-12 {
        fill: #fefdfd;
      }

      .cls-13 {
        fill: #e6da4d;
      }
    </style>
    <clipPath id="clip-path">
      <circle id="Ellipse_2160" data-name="Ellipse 2160" class="cls-1" cx="32" cy="32" r="32" transform="translate(-24259 -23106)"/>
    </clipPath>
  </defs>
  <g id="Group_1017" data-name="Group 1017" transform="translate(24281 23116)">
    <g id="Group_1016" data-name="Group 1016">
      <circle id="Ellipse_2159" data-name="Ellipse 2159" class="cls-1" cx="32" cy="32" r="32" transform="translate(-24281 -23116)"/>
      <g id="Mask_Group_338" data-name="Mask Group 338" class="cls-2" transform="translate(-22 -10)">
        <g id="wqv8Qj.tif" transform="translate(-24247.537 -23098.137)">
          <path id="Path_25516" data-name="Path 25516" class="cls-3" d="M333.711,154.285c.291.126.832.258.829.38a4.511,4.511,0,0,0,1.06,3.611,8.142,8.142,0,0,1-1.321.71c-.512.162-1.087.112-1.605.254a9.461,9.461,0,0,0-1.354.6c-.079-.542-.165-1.08-.235-1.622a4.039,4.039,0,0,1,.023-.614c-.991.595-1.982,1.473-2.735.02a25.473,25.473,0,0,1-1.126-3.125c-.459.436-.859.8-1.239,1.176L304.467,177.2c-3,3-3.178,3-5.966-.056v-1.321L317.776,156.8a24.136,24.136,0,0,1-2.5-1.067,5.729,5.729,0,0,1-1.05-1.047c.377-.264.743-.74,1.13-.753a2.508,2.508,0,0,0,2.643-2.368c.063-.353.621-.618.951-.925a3.756,3.756,0,0,1,.75.991,21.132,21.132,0,0,1,.5,2.4L323,150.6a6.1,6.1,0,0,1-1.354-.453,24.56,24.56,0,0,1-2.068-1.411,13.478,13.478,0,0,1,1.453-1.982,12.673,12.673,0,0,1,2.4-1.7,3,3,0,0,0,1.695-3.217,28.682,28.682,0,0,1-.033-3.769c.05-1.668,1.11-2.22,2.481-1.285a26.381,26.381,0,0,1,2.874,2.167,3.244,3.244,0,0,0,3.891.558,24.946,24.946,0,0,1,3.4-1.143c1.523-.429,2.312.387,1.9,1.89a6.46,6.46,0,0,1-.5,1.553c-1.721,2.907-.905,5.3,1.259,7.6a3.6,3.6,0,0,1,1.1,2.643c-.33,1.394-1.81.76-2.828.829a23.4,23.4,0,0,0-2.94.053,10.384,10.384,0,0,0-2.345,1.093l-.168.4ZM317.855,159.4l-.733-1.113-16.6,16.682c-1.5,1.51-1.483,1.685.274,3.151,1.054.915,1.562-.1,2.124-.661q11.4-11.363,22.76-22.757c.33-.33.628-.74.941-1.113a7.389,7.389,0,0,0-1.2-2.164c-.8-.707-1.473.033-2.025.661-.33.36-.621.733-.928,1.1l-.813.439,1.384,1.738a6.079,6.079,0,0,1-1.582.846,2.245,2.245,0,0,0-2.061,1.982C319.266,159,318.9,159.659,317.855,159.4Zm14.016-4.912c1.2-2.217,3.072-2.871,5.483-2.54a29.071,29.071,0,0,0,3.713.026,7.146,7.146,0,0,0-.78-1.374c-2.973-2.821-3.885-6.005-1.8-9.755.023-.043,0-.109,0-.165l.436-1.837a32.882,32.882,0,0,0-3.6,1.212,4.99,4.99,0,0,1-6.118-.955,12.914,12.914,0,0,0-2.861-1.549,14.3,14.3,0,0,0-.307,3.125,4.988,4.988,0,0,1-2.8,5.533,29.757,29.757,0,0,0-2.973,2.068l.152.509c1.529.486,3.049,1.014,4.6,1.447a3.525,3.525,0,0,1,2.692,2.745c.4,1.546.965,3.052,1.457,4.575l.459.026c.192-.33.621-.743.535-.945-.5-1.163,0-1.473,1.06-1.523C331.455,155.107,331.657,154.711,331.871,154.489Zm-13.438,2.834,2.487-2.088-2.15-2.514-2.511,2.141Zm15.7.611-.714-1.982-1.909.585.661,1.678Z" transform="translate(-298.501 -131.825)"/>
          <path id="Path_25517" data-name="Path 25517" class="cls-4" d="M346.434,130.277c.119.482.231.968.363,1.447q.248.922.522,1.833c.112.383.241.76.363,1.136-.423.116-.846.221-1.265.33-.614.172-1.226.353-1.84.525-.38.109-.859.4-1.11.261a1.178,1.178,0,0,1-.33-1.067,1.6,1.6,0,0,0-.555-1.982,1.153,1.153,0,0,1-.264-1.084,1.173,1.173,0,0,1,1.09-.33c1.249.558,1.78-.254,2.352-1.067Zm-2.121,4.165,1.738-.7c-.132-.585-.258-1.143-.383-1.691l-1.962.387C343.893,133.068,344.092,133.715,344.313,134.442Z" transform="translate(-309.707 -130.277)"/>
          <path id="Path_25518" data-name="Path 25518" class="cls-5" d="M348.375,142.177c0,.056.02.122,0,.165-2.081,3.749-1.16,6.937,1.8,9.755a7.148,7.148,0,0,1,.78,1.374,29.074,29.074,0,0,1-3.713-.026c-2.411-.33-4.294.33-5.483,2.54-1.275-1.288-2.834-2.4-3.762-3.9-1.708-2.775-.866-5.662,1.774-7.558A13.024,13.024,0,0,1,348.375,142.177Z" transform="translate(-308.388 -133.318)"/>
          <path id="Path_25519" data-name="Path 25519" class="cls-6" d="M327.378,159.275c-.33.373-.6.773-.941,1.113q-11.37,11.387-22.76,22.757c-.562.558-1.07,1.572-2.124.661-.363-2.233.086-3.138,2.144-4.35a6.033,6.033,0,0,0,1.209-.819q6.868-6.759,13.7-13.544c1.034.258,1.411-.4,1.546-1.216a2.257,2.257,0,0,1,2.061-1.982,6.079,6.079,0,0,0,1.582-.846l-1.384-1.738.813-.439C324.649,158.6,326.1,158.039,327.378,159.275Z" transform="translate(-299.253 -137.506)"/>
          <path id="Path_25520" data-name="Path 25520" class="cls-7" d="M345.989,141.109a12.968,12.968,0,0,0-8.589,2.345c-2.643,1.9-3.482,4.783-1.774,7.558.928,1.5,2.487,2.616,3.762,3.9-.215.218-.42.614-.641.624-1.07.05-1.556.36-1.06,1.523.086.2-.33.624-.535.945l-.459-.026c-.492-1.523-1.057-3.029-1.457-4.575a3.525,3.525,0,0,0-2.692-2.745c-1.549-.433-3.069-.961-4.6-1.447l-.152-.509a27.972,27.972,0,0,1,2.973-2.068,4.989,4.989,0,0,0,2.8-5.533,14.294,14.294,0,0,1,.307-3.125,12.913,12.913,0,0,1,2.861,1.549,4.994,4.994,0,0,0,6.118.955,32.885,32.885,0,0,1,3.6-1.212Z" transform="translate(-306.002 -132.25)"/>
          <path id="Path_25521" data-name="Path 25521" class="cls-8" d="M318.178,166.96q-6.848,6.782-13.7,13.544a6.032,6.032,0,0,1-1.209.819c-2.058,1.212-2.507,2.117-2.144,4.35-1.757-1.467-1.774-1.652-.274-3.151l16.6-16.682Z" transform="translate(-298.824 -139.383)"/>
          <path id="Path_25522" data-name="Path 25522" class="cls-9" d="M324.546,162.973l-2.174-2.464,2.52-2.137,2.15,2.514Z" transform="translate(-304.614 -137.471)"/>
          <path id="Path_25523" data-name="Path 25523" class="cls-10" d="M334.877,158.695c-1.278-1.235-2.729-.661-4.152-.406.307-.367.608-.74.928-1.1.552-.624,1.229-1.364,2.025-.661A7.493,7.493,0,0,1,334.877,158.695Z" transform="translate(-306.753 -136.926)"/>
          <path id="Path_25524" data-name="Path 25524" class="cls-11" d="M345.49,164.7l-1.982.281-.661-1.678,1.909-.585Z" transform="translate(-309.857 -138.583)"/>
          <path id="Path_25525" data-name="Path 25525" class="cls-12" d="M345.654,160.366l-.515.109.168-.4Z" transform="translate(-310.444 -137.906)"/>
          <path id="Path_25526" data-name="Path 25526" class="cls-13" d="M344.809,135.052c-.218-.72-.416-1.368-.608-2.008l1.962-.386c.126.548.251,1.107.383,1.691Z" transform="translate(-310.204 -130.886)"/>
        </g>
      </g>
    </g>
  </g>
</svg>
