<svg xmlns="http://www.w3.org/2000/svg" xmlns:xlink="http://www.w3.org/1999/xlink" width="64" height="64" viewBox="0 0 64 64">
  <defs>
    <style>
      .cls-1 {
        fill: #fff;
      }

      .cls-2 {
        clip-path: url(#clip-path);
      }

      .cls-3 {
        fill: #5a5564;
      }

      .cls-4 {
        fill: #f09242;
      }

      .cls-5 {
        fill: #282138;
      }
    </style>
    <clipPath id="clip-path">
      <circle id="Ellipse_1850" data-name="Ellipse 1850" class="cls-1" cx="32" cy="32" r="32" transform="translate(-24807 -23472)"/>
    </clipPath>
  </defs>
  <g id="Mask_Group_72" data-name="Mask Group 72" class="cls-2" transform="translate(24807 23472)">
    <g id="Layer_2" data-name="Layer 2" transform="translate(-24807 -23472)">
      <g id="Layer_1" data-name="Layer 1">
        <g id="Page-1">
          <g id="wbtc_colour" data-name="wbtc colour">
            <path id="Shape" class="cls-3" d="M52.185,13.431l-1.757,1.757a24.877,24.877,0,0,1,0,33.576l1.757,1.757a27.39,27.39,0,0,0,0-37.131Z"/>
            <path id="Shape-2" data-name="Shape" class="cls-3" d="M15.23,13.584a24.877,24.877,0,0,1,33.576,0l1.757-1.757a27.39,27.39,0,0,0-37.131,0Z"/>
            <path id="Shape-3" data-name="Shape" class="cls-3" d="M13.584,48.782a24.877,24.877,0,0,1,0-33.558l-1.757-1.757a27.39,27.39,0,0,0,0,37.131Z"/>
            <path id="Shape-4" data-name="Shape" class="cls-3" d="M48.782,50.4a24.877,24.877,0,0,1-33.576,0l-1.757,1.757a27.39,27.39,0,0,0,37.131,0Z"/>
            <path id="Shape-5" data-name="Shape" class="cls-4" d="M43.094,26.137c-.351-3.667-3.515-4.9-7.515-5.272V15.815H32.486v4.956H30.014V15.815H26.945V20.9H20.671v3.31s2.284-.041,2.249,0a1.6,1.6,0,0,1,1.757,1.359V39.486a1.084,1.084,0,0,1-.375.756,1.072,1.072,0,0,1-.8.269c.041.035-2.249,0-2.249,0l-.586,3.7h6.215v5.166h3.093v-5.09h2.472V49.35h3.1V44.242c5.225-.316,8.868-1.6,9.325-6.5.369-3.936-1.482-5.694-4.44-6.4C42.233,30.459,43.346,28.819,43.094,26.137Zm-4.335,11c0,3.843-6.584,3.4-8.681,3.4V33.722C32.176,33.728,38.76,33.125,38.76,37.137Zm-1.435-9.606c0,3.515-5.494,3.087-7.24,3.087v-6.2C31.83,24.42,37.325,23.87,37.325,27.531Z"/>
            <path id="Shape-6" data-name="Shape" class="cls-5" d="M31.994,64A32,32,0,1,1,64,32,32,32,0,0,1,31.994,64Zm0-61.5a29.487,29.487,0,1,0,20.87,8.632A29.487,29.487,0,0,0,31.994,2.5Z"/>
          </g>
        </g>
      </g>
    </g>
  </g>
</svg>
