<svg xmlns="http://www.w3.org/2000/svg" xmlns:xlink="http://www.w3.org/1999/xlink" width="170.538" height="154.436" viewBox="0 0 170.538 154.436">
  <defs>
    <linearGradient id="linear-gradient" x2="1" gradientUnits="objectBoundingBox">
      <stop offset="0" stop-color="#c74d97"/>
      <stop offset="1" stop-color="#6e86c3"/>
    </linearGradient>
  </defs>
  <g id="xDollar" transform="translate(0 0.009)">
    <path id="Path_4560" data-name="Path 4560" d="M169.515,131.661l-48.6-51.889,4.178-4.329L121.221,71.4l49.317-51.832-6.552-3.944L115.881,65.83l-3.612-3.768,46.041-48.387-.054-.032,1.1-.809-5.961-3.59L107.526,57.116l-3.621-3.775L147.715,7.3l-.054-.032,1.1-.81L142.8,2.869,99.17,48.4l-3.626-3.785L137.122.921l-.054-.033.391-.29a20.122,20.122,0,0,0-5.938-.581A19.894,19.894,0,0,0,120.8,3.776L88.969,37.759l-3.7-3.863-3.7,3.863L49.741,3.777A20.146,20.146,0,0,0,33.078.6l.391.29-.053.033L74.991,44.617,71.365,48.4,27.737,2.869l-5.96,3.589,1.1.81-.053.032L66.63,53.341l-3.619,3.775L17.146,9.247l-5.964,3.59,1.1.809-.054.031L58.268,62.063l-3.612,3.768L6.55,15.625,0,19.568,49.317,71.4l-3.874,4.042,4.179,4.329-48.6,51.889c.067-.107-.171.043-.6.515L7.268,136.3l1.9-1.4A10.253,10.253,0,0,0,10.3,134.2L55.9,86.281l3.5,3.626L13.194,138.132a13,13,0,0,1-1.409.884l6.076,3.657,1.9-1.4a10.444,10.444,0,0,0,1.132-.693l43.4-45.606,3.491,3.619-44,45.917a13.106,13.106,0,0,1-1.4.888l6.07,3.654,1.9-1.4a10.334,10.334,0,0,0,1.132-.695l41.19-43.288,3.484,3.609L34.378,150.886a12.731,12.731,0,0,1-1.413.883l2.479,1.491a6.97,6.97,0,0,0,8.276-.416l37.938-39.869,3.608,3.739,3.608-3.739,37.938,39.869a6.97,6.97,0,0,0,8.276.416l2.477-1.491a12.586,12.586,0,0,1-1.412-.883L94.373,107.278l3.484-3.609,41.19,43.288a10.2,10.2,0,0,0,1.132.695l1.906,1.4,6.067-3.654a13.247,13.247,0,0,1-1.4-.888l-44-45.915,3.492-3.619,43.4,45.606a10.186,10.186,0,0,0,1.132.693l1.906,1.4,6.073-3.657a13.207,13.207,0,0,1-1.409-.884L111.135,89.907l3.5-3.626,45.6,47.922a10.418,10.418,0,0,0,1.132.695l1.9,1.4,6.846-4.122C169.686,131.7,169.449,131.554,169.515,131.661ZM110.847,82.3l-3.487,3.665-4.845,5.09-3.481,3.657-4.849,5.1-3.47,3.65-5.447,5.722-5.446-5.722-3.47-3.65-4.85-5.1-3.48-3.657-4.845-5.09L59.69,82.3l-6.268-6.585,5.292-5.651,3.555-3.8,4.7-5.02,3.563-3.8,4.694-5.012,3.57-3.814,6.47-6.907,6.47,6.907,3.57,3.814L100,57.443l3.563,3.8,4.7,5.02,3.555,3.8,5.293,5.651Z" transform="translate(0 0)" fill="url(#linear-gradient)"/>
    <path id="Path_4561" data-name="Path 4561" d="M180.727,132.343,153.7,159.373l-27.031-27.03L153.7,105.312Z" transform="translate(-68.428 -56.898)" fill="url(#linear-gradient)"/>
  </g>
</svg>
