<?xml version="1.0" encoding="UTF-8" standalone="no"?><!DOCTYPE svg PUBLIC "-//W3C//DTD SVG 1.1//EN" "http://www.w3.org/Graphics/SVG/1.1/DTD/svg11.dtd"><svg width="100%" height="100%" viewBox="0 0 256 256" version="1.1" xmlns="http://www.w3.org/2000/svg" xmlns:xlink="http://www.w3.org/1999/xlink" xml:space="preserve" xmlns:serif="http://www.serif.com/" style="fill-rule:evenodd;clip-rule:evenodd;stroke-linejoin:round;stroke-miterlimit:2;"><rect id="Logo_white_center_gradient" x="0" y="0" width="256" height="256" style="fill:none;"/><g><circle cx="128" cy="128.022" r="125" style="fill:url(#_Linear1);"/><g><g><path d="M118.816,179.178l0,1.866l-11.068,-0.175c0,0 11.214,18.478 20.252,33.044l20.395,-32.869l-11.211,0l0,-61.318c15.805,13.5 46.455,42.53 46.455,64.647c0,30.707 -24.931,55.638 -55.639,55.638c-30.708,0 -55.639,-24.931 -55.639,-55.638c0,-14.513 13.198,-32.003 26.741,-46.131c17.78,9.908 19.572,34.046 19.714,40.936Z" style="fill:#fff;"/><path d="M137.184,76.866l0,-1.866l11.068,0.174c0,0 -11.214,-18.477 -20.252,-33.043l-20.395,32.869l11.211,0l0,61.318c-15.805,-13.501 -46.455,-42.53 -46.455,-64.647c0,-30.708 24.931,-55.638 55.639,-55.638c30.708,0 55.639,24.93 55.639,55.638c0,14.513 -13.198,32.003 -26.741,46.131c-17.78,-9.908 -19.572,-34.046 -19.714,-40.936Z" style="fill:#fff;"/></g><g><path d="M132.999,82.006l-4.999,-7.011l-4.999,7.011l0,54.456l9.998,0l0,-54.456Z" style="fill:#fff;"/><path d="M132.999,174.038l-4.999,7.011l-4.999,-7.011l0,-61.007l9.998,0l0,61.007Z" style="fill:#fff;"/></g></g></g><defs><linearGradient id="_Linear1" x1="0" y1="0" x2="1" y2="0" gradientUnits="userSpaceOnUse" gradientTransform="matrix(1.53081e-14,-250,250,1.53081e-14,128,253.022)"><stop offset="0" style="stop-color:#5027b4;stop-opacity:1"/><stop offset="1" style="stop-color:#9d54c9;stop-opacity:1"/></linearGradient></defs></svg>