<svg xmlns="http://www.w3.org/2000/svg" xmlns:xlink="http://www.w3.org/1999/xlink" width="927" height="519" viewBox="0 0 927 519">
  <defs>
    <linearGradient id="linear-gradient" x1="0.331" y1="0.014" x2="0.734" y2="0.4" gradientUnits="objectBoundingBox">
      <stop offset="0" stop-color="#b997ee"/>
      <stop offset="1" stop-color="#add4f5"/>
    </linearGradient>
  </defs>
  <g id="Group_4583" data-name="Group 4583" transform="translate(2491 8189)">
    <g id="Group_4414" data-name="Group 4414">
      <g id="TreasureKey_Logo" data-name="TreasureKey Logo" transform="translate(-2248.271 -8149.227)">
        <path id="Path_9153" data-name="Path 9153" d="M112.3,60.978a11.549,11.549,0,0,0,16.326,0l8.163-8.163a11.549,11.549,0,0,0,0-16.326L112.3,12,47,77.3l24.489,24.489a11.549,11.549,0,0,0,16.326,0l8.163-8.163a11.549,11.549,0,0,0,0-16.326A11.544,11.544,0,0,1,112.3,60.978Z" transform="translate(295.641 43.845)" stroke="#fff" stroke-width="4"/>
        <path id="Path_9154" data-name="Path 9154" d="M0,0H92.357V18.31H0Z" transform="translate(342.586 121.174) rotate(-45)" stroke="#fff" stroke-width="4"/>
        <g id="Group_4288" data-name="Group 4288" transform="translate(5.727 5.879)">
          <path id="Path_9155" data-name="Path 9155" d="M52.3,253.309,270.171,35.437a17.316,17.316,0,1,0-24.489-24.489L27.81,228.82" transform="translate(152.455 -5.879)" stroke="#fff" stroke-width="4"/>
          <path id="Path_9156" data-name="Path 9156" d="M67.8,39.936a23.082,23.082,0,0,0-32.652,0L24.723,50.361,57.375,83.013,67.8,72.589A23.082,23.082,0,0,0,67.8,39.936Z" transform="translate(130.342 189.617)" stroke="#fff" stroke-width="4"/>
          <path id="Path_9157" data-name="Path 9157" d="M163.054,89.456l-8.163-8.163L138.564,64.967,130.4,56.8A69.266,69.266,0,0,0,32.445,154.76l2.269,2.269c-.139,0-.269-.041-.416-.041A28.571,28.571,0,1,0,62.868,185.56c0-.139-.041-.269-.041-.416l2.269,2.269a69.266,69.266,0,1,0,97.957-97.957ZM34.3,197.8a12.245,12.245,0,1,1,12.245-12.245A12.26,12.26,0,0,1,34.3,197.8Zm87.941-26.71A24.421,24.421,0,0,1,99.333,155.03a24.42,24.42,0,1,1-34.505-34.505A24.439,24.439,0,1,1,96.166,89.187a24.42,24.42,0,1,1,34.505,34.505,24.439,24.439,0,0,1-8.432,47.395Z" transform="translate(-5.727 213.565)" stroke="#fff" stroke-width="4"/>
          <path id="Path_9158" data-name="Path 9158" d="M27.936,41.863a23.082,23.082,0,0,0,0,32.652L44.263,90.841A23.089,23.089,0,1,0,76.915,58.189L60.589,41.863a23.34,23.34,0,0,0-32.652,0Z" transform="translate(104.901 204.017)" stroke="#fff" stroke-width="4"/>
        </g>
        <path id="Path_9159" data-name="Path 9159" d="M64.484,76.091l-8.163-8.163L39.995,51.6l-8.163-8.163a70.315,70.315,0,0,0-7.967-6.751,23.01,23.01,0,0,0,4.008,27.036L44.2,80.05a23.01,23.01,0,0,0,27.036,4.008A69.486,69.486,0,0,0,64.484,76.091Z" transform="translate(110.692 220.687)" stroke="#fff" stroke-width="4"/>
      </g>
      <g id="Group_4317" data-name="Group 4317">
        <g id="Rectangle_3298" data-name="Rectangle 3298" transform="translate(-2491 -7967)" stroke="#000" stroke-width="10" fill="url(#linear-gradient)">
          <rect width="927" height="75" rx="20" stroke="none"/>
          <rect x="5" y="5" width="917" height="65" rx="15" fill="none"/>
        </g>
        <g id="Rectangle_3299" data-name="Rectangle 3299" transform="translate(-2384 -7756) rotate(-90)" stroke="#000" stroke-width="10" fill="url(#linear-gradient)">
          <rect width="336" height="80" rx="20" stroke="none"/>
          <rect x="5" y="5" width="326" height="70" rx="15" fill="none"/>
        </g>
        <g id="Rectangle_3300" data-name="Rectangle 3300" transform="translate(-2332 -7670) rotate(-90)" stroke="#000" stroke-width="10" fill="url(#linear-gradient)">
          <rect width="518" height="80" rx="20" stroke="none"/>
          <rect x="5" y="5" width="508" height="70" rx="15" fill="none"/>
        </g>
        <g id="Rectangle_3301" data-name="Rectangle 3301" transform="translate(-1751 -7757) rotate(-90)" stroke="#000" stroke-width="10" fill="url(#linear-gradient)">
          <rect width="336" height="80" rx="20" stroke="none"/>
          <rect x="5" y="5" width="326" height="70" rx="15" fill="none"/>
        </g>
        <g id="Rectangle_3302" data-name="Rectangle 3302" transform="translate(-1803 -7671) rotate(-90)" stroke="#000" stroke-width="10" fill="url(#linear-gradient)">
          <rect width="518" height="80" rx="20" stroke="none"/>
          <rect x="5" y="5" width="508" height="70" rx="15" fill="none"/>
        </g>
      </g>
    </g>
  </g>
</svg>
