<svg xmlns="http://www.w3.org/2000/svg" xmlns:xlink="http://www.w3.org/1999/xlink" width="1103.102" height="927.001" viewBox="0 0 1103.102 927.001">
  <defs>
    <linearGradient id="linear-gradient" x1="0.331" y1="0.014" x2="0.734" y2="0.4" gradientUnits="objectBoundingBox">
      <stop offset="0" stop-color="#b997ee"/>
      <stop offset="1" stop-color="#add4f5"/>
    </linearGradient>
  </defs>
  <g id="Group_4581" data-name="Group 4581" transform="translate(5011.975 8393.209)">
    <g id="Exclusion_3" data-name="Exclusion 3" transform="translate(-4630.253 -8406.679)" fill="url(#linear-gradient)">
      <path d="M 197.6808624267578 716.3770141601562 C 191.6910400390625 716.377197265625 185.7669525146484 715.3963623046875 180.0733032226562 713.4619140625 C 174.4660339355469 711.556884765625 169.2255859375 708.777099609375 164.497314453125 705.1996459960938 C 159.7239532470703 701.5878295898438 155.6029510498047 697.2598876953125 152.2491302490234 692.3363647460938 C 148.7794036865234 687.2426147460938 146.2030334472656 681.6106567382812 144.5915832519531 675.5967407226562 L 20.35912895202637 211.9527282714844 C 18.43667411804199 204.7785491943359 17.97649192810059 197.4452819824219 18.99131011962891 190.1566467285156 C 19.47903823852539 186.6534576416016 20.31340217590332 183.1762847900391 21.47112846374512 179.8220062255859 C 22.61831092834473 176.4985504150391 24.09276580810547 173.2670135498047 25.85340118408203 170.21728515625 C 27.61458396911621 167.1669158935547 29.67594718933105 164.2742767333984 31.98012924194336 161.6198272705078 C 34.30603790283203 158.9400939941406 36.90003967285156 156.47900390625 39.69040298461914 154.3047332763672 C 45.49494552612305 149.7816467285156 52.07558441162109 146.5137329101562 59.24949264526367 144.591552734375 L 522.8935546875 20.35827827453613 C 527.5715942382812 19.10491561889648 532.3736572265625 18.46936988830566 537.1661987304688 18.46936988830566 C 543.1563110351562 18.46936988830566 549.0805053710938 19.45018768310547 554.7742309570312 21.38464164733887 C 560.381591796875 23.28991508483887 565.6220092773438 26.06964302062988 570.3501586914062 29.6467342376709 C 575.1231079101562 33.25827789306641 579.2439575195312 37.58609771728516 582.5978393554688 42.50982284545898 C 586.0673828125 47.60354995727539 588.6436767578125 53.23554992675781 590.2549438476562 59.24954986572266 L 714.4882202148438 522.8935546875 C 716.410400390625 530.0674438476562 716.8704833984375 537.4005737304688 715.8556518554688 544.6892700195312 C 715.3678588867188 548.1924438476562 714.5335083007812 551.66943359375 713.3758544921875 555.0237426757812 C 712.2288818359375 558.346923828125 710.75439453125 561.5784301757812 708.9934692382812 564.6285400390625 C 707.2326049804688 567.6785278320312 705.171142578125 570.5711669921875 702.86669921875 573.22607421875 C 700.5408325195312 575.90576171875 697.9468383789062 578.3668212890625 695.1565551757812 580.5410766601562 C 689.3517456054688 585.0643920898438 682.7709350585938 588.3325805664062 675.5968627929688 590.2548217773438 L 211.9528503417969 714.4880981445312 C 207.2762145996094 715.7413940429688 202.4744873046875 716.3768310546875 197.6808624267578 716.3770141601562 Z M 523.004150390625 62.97182464599609 C 519.9530639648438 62.97191619873047 516.8992919921875 63.37555313110352 513.9276733398438 64.17137145996094 L 88.92012786865234 178.0520935058594 C 84.35794830322266 179.2747344970703 80.16976165771484 181.3558197021484 76.47167205810547 184.237548828125 C 72.90158081054688 187.0194549560547 69.93958282470703 190.4251861572266 67.66794586181641 194.3599090576172 C 65.39630889892578 198.2945556640625 63.92794799804688 202.5625457763672 63.30385589599609 207.0451812744141 C 62.65721893310547 211.6889190673828 62.94921875 216.3565521240234 64.17158508300781 220.91845703125 L 178.0513153076172 645.9253540039062 C 179.0756683349609 649.7483520507812 180.7158508300781 653.3319091796875 182.9262237548828 656.5763549804688 C 185.0625 659.7123413085938 187.68603515625 662.4678955078125 190.7238616943359 664.7662963867188 C 193.7288513183594 667.0397338867188 197.0598602294922 668.8065795898438 200.6243133544922 670.017822265625 C 204.2492218017578 671.2495727539062 208.0227661132812 671.874267578125 211.8401336669922 671.874755859375 C 214.8921356201172 671.874755859375 217.946044921875 671.4710083007812 220.9174957275391 670.6748046875 L 645.9254150390625 556.7942504882812 C 650.4876098632812 555.571533203125 654.67578125 553.490478515625 658.3738403320312 550.6087036132812 C 661.94384765625 547.8268432617188 664.9059448242188 544.4212036132812 667.1776123046875 540.4864501953125 C 669.4493408203125 536.5517578125 670.9176635742188 532.2837524414062 671.541748046875 527.8012084960938 C 672.1882934570312 523.1576538085938 671.8963012695312 518.4899291992188 670.6739501953125 513.927978515625 L 556.7933349609375 88.92100524902344 C 555.7692260742188 85.09854888916016 554.1292114257812 81.51500701904297 551.9188842773438 78.26991271972656 C 549.7825927734375 75.13346099853516 547.1591186523438 72.37773132324219 544.1213989257812 70.07936859130859 C 541.1171264648438 67.80609893798828 537.7860107421875 66.03927612304688 534.2210083007812 64.8280029296875 C 530.5953979492188 63.59618759155273 526.8214721679688 62.97173309326172 523.004150390625 62.97182464599609 Z" stroke="none"/>
      <path d="M 197.6806945800781 711.376953125 L 197.6805877685547 711.376953125 C 202.0374908447266 711.3767700195312 206.4039916992188 710.7987060546875 210.6587982177734 709.6585083007812 L 674.3026733398438 585.42529296875 C 680.8269653320312 583.677001953125 686.8092041015625 580.706787109375 692.0833740234375 576.5969848632812 C 694.6187744140625 574.6214599609375 696.976318359375 572.3847045898438 699.0908203125 569.948486328125 C 701.1865844726562 567.5340576171875 703.0614624023438 564.9029541015625 704.6632690429688 562.128662109375 C 706.2650756835938 559.3541870117188 707.606201171875 556.414794921875 708.6494140625 553.392578125 C 709.7017822265625 550.3432006835938 710.460205078125 547.1829833984375 710.9033813476562 543.999755859375 C 711.8255004882812 537.3772583007812 711.4066772460938 530.7114868164062 709.6585693359375 524.1876831054688 L 585.42529296875 60.5435791015625 C 583.959716796875 55.07337951660156 581.6181030273438 49.95307922363281 578.4652709960938 45.32457733154297 C 575.41796875 40.85057830810547 571.6724853515625 36.91727828979492 567.33349609375 33.63427734375 C 563.0325927734375 30.38037872314453 558.2658081054688 27.85177803039551 553.165771484375 26.1188793182373 C 543.8490600585938 22.95351600646973 533.7606811523438 22.62299156188965 524.1876831054688 25.18787956237793 L 60.54349136352539 149.4212799072266 C 54.01949310302734 151.1691741943359 48.03749084472656 154.1391754150391 42.76359176635742 158.248779296875 C 40.22799301147461 160.2245788574219 37.87039184570312 162.4613800048828 35.7559928894043 164.8974761962891 C 33.66039276123047 167.3115844726562 31.78549194335938 169.9426727294922 30.18359184265137 172.7170715332031 C 28.58199310302734 175.4912719726562 27.24079322814941 178.4306793212891 26.1974925994873 181.4532775878906 C 25.14509201049805 184.502685546875 24.38679313659668 187.6628723144531 23.9435920715332 190.8462829589844 C 23.02149200439453 197.4683837890625 23.44049263000488 204.13427734375 25.18879318237305 210.6586761474609 L 149.4211883544922 674.3025512695312 C 150.8869934082031 679.772705078125 153.2287902832031 684.89306640625 156.3814849853516 689.5213623046875 C 159.42919921875 693.9954833984375 163.1748962402344 697.928955078125 167.5141906738281 701.21240234375 C 171.8149871826172 704.4663696289062 176.5815887451172 706.994873046875 181.6819000244141 708.7276611328125 C 186.8561859130859 710.4857788085938 192.2388916015625 711.377197265625 197.6806945800781 711.376953125 M 523.00390625 57.97177886962891 L 523.0039672851562 57.97177886962891 C 527.3695678710938 57.9716796875 531.6846923828125 58.68557739257812 535.8294677734375 60.09378051757812 C 539.9016723632812 61.47737884521484 543.7064819335938 63.49547958374023 547.1383056640625 66.09207916259766 C 550.6096801757812 68.71858215332031 553.6085205078125 71.86867523193359 556.05126953125 75.455078125 C 558.5784912109375 79.16548156738281 560.4530639648438 83.26068115234375 561.6229858398438 87.62697601318359 L 675.5034790039062 512.6337890625 C 676.9000854492188 517.8455810546875 677.2332763671875 523.1806640625 676.4940185546875 528.490478515625 C 675.7807006835938 533.6141967773438 674.1029663085938 538.4913940429688 671.5078125 542.9862060546875 C 668.9127197265625 547.4815063476562 665.5277099609375 551.3731079101562 661.4470825195312 554.5527954101562 C 657.218505859375 557.847900390625 652.431884765625 560.2269897460938 647.219482421875 561.6239624023438 L 222.2116851806641 675.50439453125 C 214.5731506347656 677.55126953125 206.4718475341797 677.2857666015625 199.0156860351562 674.751953125 C 194.9439849853516 673.3684692382812 191.1392974853516 671.3504028320312 187.7070922851562 668.753662109375 C 184.2353973388672 666.126953125 181.2364959716797 662.9769897460938 178.7938995361328 659.391357421875 C 176.2664947509766 655.681396484375 174.3916931152344 651.5860595703125 173.2216949462891 647.219482421875 L 59.34189224243164 222.2124786376953 C 57.94539260864258 217.0003814697266 57.6121940612793 211.665283203125 58.35159301757812 206.3557739257812 C 59.06499099731445 201.2319793701172 60.74269104003906 196.3548736572266 63.33769226074219 191.8602752685547 C 65.93279266357422 187.3650817871094 69.31769561767578 183.4733734130859 73.39829254150391 180.2936859130859 C 77.62699127197266 176.9983825683594 82.41368865966797 174.619384765625 87.62599182128906 173.2224731445312 L 512.6339111328125 59.34177780151367 C 516.0272827148438 58.43288040161133 519.5162963867188 57.97187805175781 523.00390625 57.97177886962891 M 197.6809997558594 721.376953125 C 191.1426849365234 721.377197265625 184.6773986816406 720.3070068359375 178.4647979736328 718.1961059570312 C 172.3499908447266 716.1185913085938 166.6355895996094 713.08740234375 161.4804992675781 709.1869506835938 C 156.2733917236328 705.2470092773438 151.7771911621094 700.5247802734375 148.1167907714844 695.1513061523438 C 144.3300933837891 689.5921020507812 141.5191955566406 683.448486328125 139.7619934082031 676.8909912109375 L 15.52949237823486 213.2468719482422 C 13.43299198150635 205.4228820800781 12.93149280548096 197.4222717285156 14.03909206390381 189.46728515625 C 14.57139205932617 185.6438751220703 15.48179244995117 181.8499755859375 16.74469184875488 178.1907806396484 C 17.99569320678711 174.5664825439453 19.60339164733887 171.0426788330078 21.523193359375 167.71728515625 C 23.44339179992676 164.3915863037109 25.69119262695312 161.2372741699219 28.20429229736328 158.3421783447266 C 30.74179267883301 155.4186859130859 33.57229232788086 152.7333831787109 36.61709213256836 150.3607788085938 C 42.95229339599609 145.4241790771484 50.131591796875 141.8581848144531 57.95549392700195 139.7619781494141 L 521.5994873046875 15.52857875823975 C 533.0753784179688 12.45400428771973 545.2008056640625 12.85143184661865 556.3826904296875 16.65047836303711 C 562.4974975585938 18.72817802429199 568.2117919921875 21.75927925109863 573.3668823242188 25.65937805175781 C 578.573974609375 29.59927940368652 583.070068359375 34.32147979736328 586.7301635742188 39.6950798034668 C 590.5167846679688 45.25407791137695 593.3275756835938 51.39777755737305 595.0845947265625 57.9555778503418 L 719.31787109375 521.5994873046875 C 721.414306640625 529.4234008789062 721.9154663085938 537.4237670898438 720.8079223632812 545.3787841796875 C 720.2755737304688 549.2015991210938 719.3652954101562 552.995361328125 718.102294921875 556.6549682617188 C 716.851318359375 560.279296875 715.2434692382812 563.8031005859375 713.3236694335938 567.1284790039062 C 711.403564453125 570.4541015625 709.1558227539062 573.6083984375 706.642578125 576.503662109375 C 704.1054077148438 579.4268798828125 701.2749633789062 582.1123046875 698.2297973632812 584.485107421875 C 691.894287109375 589.421875 684.7149658203125 592.9879760742188 676.8909912109375 595.08447265625 L 213.2469940185547 719.3177490234375 C 208.1484985351562 720.6839599609375 202.9113922119141 721.3767700195312 197.6809997558594 721.376953125 Z M 523.0042724609375 67.97177886962891 C 520.3897094726562 67.97187805175781 517.7711181640625 68.31827545166016 515.22119140625 69.00128173828125 L 90.21419525146484 182.8817749023438 C 86.30209350585938 183.93017578125 82.71239471435547 185.7132720947266 79.54508972167969 188.1814727783203 C 76.48538970947266 190.565673828125 73.94618988037109 193.4854736328125 71.99819183349609 196.8598785400391 C 70.04999542236328 200.2341766357422 68.79099273681641 203.8930816650391 68.25609588623047 207.7347717285156 C 67.70219421386719 211.7121734619141 67.95299530029297 215.7122802734375 69.00119018554688 219.6242828369141 L 182.8809967041016 644.6312866210938 C 183.7595977783203 647.910400390625 185.1650848388672 650.9820556640625 187.0583953857422 653.7612915039062 C 188.8884887695312 656.44775390625 191.1367950439453 658.8088989257812 193.7406921386719 660.7789916992188 C 196.3183898925781 662.7291870117188 199.1755981445312 664.2447509765625 202.2329864501953 665.28369140625 C 207.8236389160156 667.1832275390625 213.8865814208984 667.3824462890625 219.6233978271484 665.8451538085938 L 644.6312866210938 551.9646606445312 C 648.5433959960938 550.9161987304688 652.1331176757812 549.133056640625 655.3004760742188 546.6648559570312 C 658.360107421875 544.28076171875 660.8992919921875 541.3609619140625 662.847412109375 537.9864501953125 C 664.7957153320312 534.612060546875 666.0546875 530.9533081054688 666.5894775390625 527.1116943359375 C 667.143310546875 523.1343994140625 666.892578125 519.1341552734375 665.8442993164062 515.2221069335938 L 551.9636840820312 90.21517944335938 C 551.085205078125 86.936279296875 549.6798095703125 83.8643798828125 547.786376953125 81.08457946777344 C 545.956298828125 78.39778137207031 543.7081909179688 76.03657531738281 541.1046142578125 74.06668090820312 C 538.527099609375 72.11647796630859 535.669921875 70.60097503662109 532.6124877929688 69.56217956542969 C 529.506103515625 68.50678253173828 526.2734985351562 67.9716796875 523.0042724609375 67.97177886962891 Z" stroke="none" fill="#000"/>
    </g>
    <rect id="Rectangle_3296" data-name="Rectangle 3296" width="500" height="500" rx="30" transform="matrix(0.966, -0.259, 0.259, 0.966, -4569.017, -8216.032)" fill="#fff"/>
    <g id="Exclusion_4" data-name="Exclusion 4" transform="translate(-5025.441 -8187.585)" fill="url(#linear-gradient)">
      <path d="M 537.1663818359375 716.3770141601562 C 532.3750610351562 716.3773193359375 527.5732421875 715.7417602539062 522.8944091796875 714.4882202148438 L 59.24958419799805 590.2549438476562 C 52.07540130615234 588.3327026367188 45.49476623535156 585.064697265625 39.69040298461914 580.541748046875 C 36.90012741088867 578.3674926757812 34.30603790283203 575.9064331054688 31.98031044006348 573.2268676757812 C 29.67594718933105 570.5721435546875 27.61458396911621 567.6793823242188 25.85321998596191 564.6290283203125 C 24.09258270263672 561.5792236328125 22.61812973022461 558.3475952148438 21.47103881835938 555.0242919921875 C 20.31340217590332 551.6702880859375 19.47912788391113 548.193115234375 18.99122047424316 544.6895751953125 C 17.97649192810059 537.4010620117188 18.43667411804199 530.06787109375 20.35912895202637 522.8936767578125 L 144.5924987792969 59.24967575073242 C 146.2036743164062 53.23631286621094 148.7798614501953 47.60467529296875 152.2494964599609 42.51122283935547 C 155.6032257080078 37.58776473999023 159.7241363525391 33.26004028320312 164.4976806640625 29.64813041687012 C 169.2254028320312 26.0710391998291 174.4658508300781 23.29113006591797 180.0733947753906 21.38567543029785 C 185.7664947509766 19.45094871520996 191.6902160644531 18.47003936767578 197.6798553466797 18.47003936767578 C 202.4729461669922 18.47003936767578 207.2750396728516 19.10567474365234 211.9526672363281 20.359130859375 L 675.5977783203125 144.5915832519531 C 682.7716674804688 146.5139465332031 689.352294921875 149.7821350097656 695.1568603515625 154.3053131103516 C 697.947021484375 156.4794921875 700.541015625 158.9405822753906 702.86669921875 161.6201324462891 C 705.1715698242188 164.2755889892578 707.2329711914062 167.1683044433594 708.9935913085938 170.2179412841797 C 710.7545166015625 173.2680358886719 712.2288818359375 176.4994964599609 713.3757934570312 179.8226776123047 C 714.5333862304688 183.1764068603516 715.3677368164062 186.6533966064453 715.8557739257812 190.1574096679688 C 716.8704833984375 197.446044921875 716.410400390625 204.7791290283203 714.4882202148438 211.9528503417969 L 590.2549438476562 675.5968627929688 C 588.6435546875 681.6106567382812 586.0673828125 687.2423095703125 582.5978393554688 692.3353881835938 C 579.2439575195312 697.2588500976562 575.1229248046875 701.5866088867188 570.3494262695312 705.1984252929688 C 565.62158203125 708.7753295898438 560.3810424804688 711.5552368164062 554.7733154296875 713.4608764648438 C 549.0799560546875 715.3955688476562 543.1561279296875 716.3766479492188 537.1663818359375 716.3770141601562 Z M 211.840576171875 62.97240447998047 C 208.023681640625 62.97249221801758 204.2500305175781 63.59722137451172 200.6245880126953 64.82913208007812 C 197.0598602294922 66.04049682617188 193.7290344238281 67.80740356445312 190.7243957519531 70.08076477050781 C 187.686767578125 72.37912750244141 185.0634002685547 75.13467407226562 182.9272155761719 78.27076721191406 C 180.7169494628906 81.51567840576172 179.0770416259766 85.09894561767578 178.0529479980469 88.92121887207031 L 64.17249298095703 513.927978515625 C 62.95013046264648 518.4901123046875 62.65813064575195 523.1578369140625 63.30476379394531 527.8015747070312 C 63.92876434326172 532.2842407226562 65.39712524414062 536.55224609375 67.6689453125 540.487060546875 C 69.94049072265625 544.4215087890625 72.90248870849609 547.8270263671875 76.47267150878906 550.6090087890625 C 80.17094421386719 553.4908447265625 84.35922241210938 555.5718383789062 88.92094421386719 556.7943115234375 L 513.928955078125 670.6748657226562 C 516.8999633789062 671.4710693359375 519.9540405273438 671.8748779296875 523.0062255859375 671.8750610351562 C 526.8243408203125 671.8750610351562 530.59814453125 671.2506103515625 534.2230224609375 670.0189208984375 C 537.7877807617188 668.8077392578125 541.11865234375 667.0409545898438 544.123291015625 664.7673950195312 C 547.16015625 662.4696044921875 549.7833862304688 659.7140502929688 551.9201049804688 656.5773315429688 C 554.130126953125 653.3325805664062 555.77001953125 649.7490234375 556.794189453125 645.9262084960938 L 670.6748657226562 220.9183959960938 C 671.3814697265625 218.2817687988281 671.8012084960938 215.4539489746094 671.8565673828125 212.9563140869141 L 671.8563842773438 212.9619445800781 C 671.9486083984375 209.0022277832031 671.3932495117188 205.0907592773438 670.20556640625 201.3361358642578 C 669.0382080078125 197.6459503173828 667.290283203125 194.1990356445312 665.010498046875 191.0912170410156 C 662.7099609375 187.9553070068359 659.9293823242188 185.2493133544922 656.7461547851562 183.0484008789062 C 653.4612426757812 180.7772216796875 649.8208618164062 179.0964965820312 645.9261474609375 178.0531311035156 L 220.9183959960938 64.17249298095703 C 217.946044921875 63.37603759765625 214.8918609619141 62.97231292724609 211.840576171875 62.97240447998047 Z" stroke="none"/>
      <path d="M 537.1660766601562 711.3770751953125 C 542.607666015625 711.3767700195312 547.9902954101562 710.4850463867188 553.1644897460938 708.7266845703125 C 558.2653198242188 706.9933471679688 563.0321044921875 704.4647827148438 567.33251953125 701.2110595703125 C 571.6723022460938 697.9275512695312 575.4179077148438 693.9942626953125 578.465576171875 689.520263671875 C 581.6181030273438 684.8927001953125 583.959716796875 679.7727661132812 585.42529296875 674.3027954101562 L 709.6585693359375 210.6587829589844 C 711.4066772460938 204.1349792480469 711.8255004882812 197.4692687988281 710.9035034179688 190.8468780517578 C 710.4600830078125 187.6624755859375 709.7017211914062 184.5024719238281 708.6494750976562 181.4540710449219 C 707.6062622070312 178.4314727783203 706.2651977539062 175.4922790527344 704.6633911132812 172.7178802490234 C 703.06201171875 169.9439697265625 701.1870727539062 167.3129730224609 699.090576171875 164.8975830078125 C 696.9765625 162.4618682861328 694.6190795898438 160.2249755859375 692.08349609375 158.2491760253906 C 686.8096923828125 154.1395721435547 680.8276977539062 151.1693725585938 674.3037109375 149.4212799072266 L 210.6585998535156 25.18877601623535 C 201.0864715576172 22.62385940551758 190.9979553222656 22.95404624938965 181.6820983886719 26.11977577209473 C 176.581787109375 27.85287475585938 171.8150939941406 30.3815746307373 167.5146942138672 33.6353759765625 C 163.1748962402344 36.91897583007812 159.4292907714844 40.85237503051758 156.3817901611328 45.32617568969727 C 153.2291870117188 49.95427703857422 150.8875885009766 55.07417678833008 149.4221954345703 60.54377365112305 L 25.18869209289551 524.1876831054688 C 23.44049263000488 530.712158203125 23.02149200439453 537.3780517578125 23.9435920715332 544.0001831054688 C 24.38679313659668 547.1838989257812 25.14519309997559 550.3440551757812 26.1974925994873 553.39306640625 C 27.24069213867188 556.4155883789062 28.5817928314209 559.3548583984375 30.18329238891602 562.1288452148438 C 31.78559303283691 564.9038696289062 33.66049194335938 567.5350952148438 35.75619125366211 569.9494018554688 C 37.87039184570312 572.3850708007812 40.22809219360352 574.6219482421875 42.76359176635742 576.5977783203125 C 48.03739166259766 580.707275390625 54.01949310302734 583.67724609375 60.54369354248047 585.42529296875 L 524.1884155273438 709.6585693359375 C 528.4453735351562 710.7991943359375 532.811767578125 711.3772583007812 537.1660766601562 711.3770751953125 M 211.8404998779297 57.97237396240234 L 211.8407897949219 57.97237396240234 C 215.3291931152344 57.97237396240234 218.8187866210938 58.43347549438477 222.2124938964844 59.34287643432617 L 647.2199096679688 173.2233734130859 C 651.6699829101562 174.4155731201172 655.831787109375 176.3374786376953 659.5897216796875 178.9357757568359 C 663.2313842773438 181.4536743164062 666.41162109375 184.5482788085938 669.0421142578125 188.1338806152344 C 671.645263671875 191.6824798583984 673.6406860351562 195.6170806884766 674.9727783203125 199.8281707763672 C 676.326904296875 204.1090698242188 676.960205078125 208.5670776367188 676.8552856445312 213.0668792724609 C 676.7904663085938 215.9946746826172 676.3233032226562 219.1573791503906 675.5045166015625 222.2124786376953 L 561.6239624023438 647.219970703125 C 560.4541015625 651.586669921875 558.5797119140625 655.681884765625 556.0526123046875 659.39208984375 C 553.609619140625 662.9784545898438 550.6109619140625 666.1286010742188 547.1401977539062 668.7546997070312 C 543.7081909179688 671.3515014648438 539.9035034179688 673.3696899414062 535.8316040039062 674.753173828125 C 528.3770751953125 677.2860717773438 520.2752685546875 677.5517578125 512.634765625 675.5045776367188 L 87.62669372558594 561.6239013671875 C 82.41519165039062 560.227294921875 77.62849426269531 557.848388671875 73.3992919921875 554.552978515625 C 69.31859588623047 551.373046875 65.93369293212891 547.481689453125 63.33889389038086 542.9871826171875 C 60.74349212646484 538.4918823242188 59.06579208374023 533.6145629882812 58.35259246826172 528.4913940429688 C 57.61309432983398 523.181396484375 57.94629287719727 517.84619140625 59.34289169311523 512.6338500976562 L 173.2232971191406 87.62757873535156 C 174.3928985595703 83.26157379150391 176.2673950195312 79.16637420654297 178.7948913574219 75.45577239990234 C 181.2373962402344 71.87017822265625 184.2359924316406 68.72027587890625 187.7075958251953 66.09347534179688 C 191.1392974853516 63.49697494506836 194.9438934326172 61.47887420654297 199.0156860351562 60.09507369995117 C 203.1603851318359 58.68667602539062 207.4752960205078 57.97247695922852 211.8404998779297 57.97237396240234 M 537.1666870117188 721.3770751953125 C 531.9382934570312 721.3773803710938 526.7011108398438 720.6844482421875 521.6004028320312 719.31787109375 L 57.95549392700195 595.0845947265625 C 50.131591796875 592.98828125 42.95229339599609 589.4223022460938 36.61709213256836 584.4857788085938 C 33.57229232788086 582.1130981445312 30.74179267883301 579.4277954101562 28.20429229736328 576.50439453125 C 25.69119262695312 573.6091918945312 23.44339179992676 570.4547729492188 21.523193359375 567.129150390625 C 19.60329246520996 563.8035888671875 17.99559211730957 560.2798461914062 16.74469184875488 556.6557006835938 C 15.48169231414795 552.9963989257812 14.57139205932617 549.202392578125 14.03909206390381 545.379150390625 C 12.93149280548096 537.4241943359375 13.43299198150635 529.423583984375 15.52949237823486 521.5994873046875 L 139.7628936767578 57.95557403564453 C 141.5197906494141 51.39837646484375 144.3305969238281 45.25507736206055 148.1170959472656 39.69637680053711 C 151.7772979736328 34.32307434082031 156.2735900878906 29.60087585449219 161.4807891845703 25.66087532043457 C 166.6357879638672 21.76047515869141 172.35009765625 18.72927474975586 178.4646911621094 16.65147590637207 C 189.6463470458984 12.85165596008301 201.7718200683594 12.45456314086914 213.2469940185547 15.52957534790039 L 676.8919067382812 139.7619781494141 C 684.7156982421875 141.8584747314453 691.8948974609375 145.4245758056641 698.2301025390625 150.3612823486328 C 701.2749633789062 152.7339782714844 704.1054077148438 155.4192810058594 706.642822265625 158.3427734375 C 709.1560668945312 161.2383728027344 711.4039916992188 164.3926696777344 713.3237915039062 167.7180786132812 C 715.2437133789062 171.0434722900391 716.8513793945312 174.5671691894531 718.102294921875 178.1914825439453 C 719.3652954101562 181.8503723144531 720.2755126953125 185.6442718505859 720.8079223632812 189.4677734375 C 721.9154663085938 197.4227752685547 721.414306640625 205.4231719970703 719.31787109375 213.2469787597656 L 595.0845947265625 676.8909912109375 C 593.3275756835938 683.448486328125 590.5167846679688 689.5918579101562 586.7301025390625 695.150390625 C 583.0698852539062 700.5235595703125 578.573486328125 705.2457885742188 573.3662109375 709.1856689453125 C 568.2113037109375 713.0858764648438 562.4967651367188 716.1170654296875 556.3820190429688 718.1949462890625 C 550.169677734375 720.3060913085938 543.7047729492188 721.3766479492188 537.1666870117188 721.3770751953125 Z M 211.8407897949219 67.97237396240234 C 208.5720977783203 67.97247314453125 205.339599609375 68.50777435302734 202.2331848144531 69.56337738037109 C 199.1757965087891 70.60237884521484 196.3186950683594 72.11797332763672 193.7412872314453 74.06807708740234 C 191.1376953125 76.03807830810547 188.8895874023438 78.39907836914062 187.0595855712891 81.08557891845703 C 185.1663970947266 83.86497497558594 183.760986328125 86.93647766113281 182.8826904296875 90.21517181396484 L 69.00218963623047 515.2220458984375 C 67.95389556884766 519.1343994140625 67.70309448242188 523.1347045898438 68.25699615478516 527.112060546875 C 68.79179382324219 530.9537963867188 70.05078887939453 534.612548828125 71.99909210205078 537.9869995117188 C 73.94709014892578 541.3612060546875 76.48628997802734 544.2808837890625 79.54589080810547 546.6651000976562 C 82.71349334716797 549.13330078125 86.30319213867188 550.9163818359375 90.21509552001953 551.9646606445312 L 515.2230224609375 665.8452758789062 C 520.9596557617188 667.3824462890625 527.0248413085938 667.1839599609375 532.6145629882812 665.2847900390625 C 535.671875 664.2459716796875 538.5288696289062 662.7303466796875 541.1062622070312 660.7801513671875 C 543.7095947265625 658.8104858398438 545.95751953125 656.4494018554688 547.7877807617188 653.7623901367188 C 549.6807861328125 650.983154296875 551.0861206054688 647.911376953125 551.964599609375 644.6322021484375 L 665.84521484375 219.6242828369141 C 666.4514770507812 217.3622741699219 666.8110961914062 214.9548797607422 666.8577880859375 212.8455810546875 C 666.9371948242188 209.4374694824219 666.4595947265625 206.0724792480469 665.4384155273438 202.8440704345703 C 664.4359741210938 199.6751708984375 662.9356079101562 196.7159729003906 660.97900390625 194.0487823486328 C 659.0081176757812 191.3622741699219 656.627197265625 189.0449829101562 653.902587890625 187.1611785888672 C 651.090576171875 185.2168731689453 647.9716186523438 183.7773742675781 644.6322021484375 182.8827819824219 L 219.6242980957031 69.00217437744141 C 217.0739898681641 68.31877899169922 214.4550933837891 67.97237396240234 211.8407897949219 67.97237396240234 Z" stroke="none" fill="#000"/>
    </g>
    <rect id="Rectangle_3297" data-name="Rectangle 3297" width="500" height="500" rx="30" transform="matrix(0.966, 0.259, -0.259, 0.966, -4834.794, -8126.348)" fill="#fff"/>
    <g id="TreasureKey_Logo" data-name="TreasureKey Logo" transform="translate(-4309.788 -8102.873)">
      <path id="Path_9153" data-name="Path 9153" d="M64.632,25.224a3.118,3.118,0,0,0,4.408,0l2.2-2.2a3.118,3.118,0,0,0,0-4.408L64.632,12,47,29.632l6.612,6.612a3.118,3.118,0,0,0,4.408,0l2.2-2.2a3.118,3.118,0,0,0,0-4.408,3.117,3.117,0,0,1,4.408-4.408Z" transform="translate(49.693 7.37)"/>
      <path id="Path_9154" data-name="Path 9154" d="M0,0H24.936V4.944H0Z" transform="translate(96.678 37.008) rotate(-45)"/>
      <g id="Group_4288" data-name="Group 4288" transform="translate(5.727 5.879)">
        <path id="Path_9155" data-name="Path 9155" d="M34.422,72.685,93.247,13.86a4.675,4.675,0,0,0-6.612-6.612L27.81,66.073" transform="translate(20.861 -5.879)"/>
        <path id="Path_9156" data-name="Path 9156" d="M36.354,35a6.232,6.232,0,0,0-8.816,0l-2.815,2.815,8.816,8.816,2.815-2.815A6.232,6.232,0,0,0,36.354,35Z" transform="translate(17.144 26.981)"/>
        <path id="Path_9157" data-name="Path 9157" d="M48.2,50.809,46,48.6,41.593,44.2l-2.2-2.2A18.7,18.7,0,0,0,12.941,68.441l.613.613c-.037,0-.073-.011-.112-.011a7.714,7.714,0,1,0,7.714,7.714c0-.037-.011-.073-.011-.112l.613.613A18.7,18.7,0,0,0,48.2,50.809ZM13.441,80.06a3.306,3.306,0,1,1,3.306-3.306A3.31,3.31,0,0,1,13.441,80.06Zm23.744-7.212A6.594,6.594,0,0,1,31,68.513,6.593,6.593,0,1,1,21.684,59.2a6.6,6.6,0,1,1,8.461-8.461,6.593,6.593,0,1,1,9.316,9.316,6.6,6.6,0,0,1-2.277,12.8Z" transform="translate(-5.727 31.006)"/>
        <path id="Path_9158" data-name="Path 9158" d="M23,36.985A6.232,6.232,0,0,0,23,45.8l4.408,4.408a6.234,6.234,0,0,0,8.816-8.816l-4.408-4.408a6.3,6.3,0,0,0-8.816,0Z" transform="translate(12.868 29.401)"/>
      </g>
      <path id="Path_9159" data-name="Path 9159" d="M32.872,47.327l-2.2-2.2L26.26,40.715l-2.2-2.2A18.985,18.985,0,0,0,21.9,36.688a6.213,6.213,0,0,0,1.082,7.3L27.4,48.4a6.213,6.213,0,0,0,7.3,1.082A18.761,18.761,0,0,0,32.872,47.327Z" transform="translate(18.606 37.094)"/>
    </g>
    <g id="TreasureKey_Logo-2" data-name="TreasureKey Logo" transform="matrix(0.966, 0.259, -0.259, 0.966, -4825.149, -8087.214)">
      <path id="Path_9153-2" data-name="Path 9153" d="M64.632,25.224a3.118,3.118,0,0,0,4.408,0l2.2-2.2a3.118,3.118,0,0,0,0-4.408L64.632,12,47,29.632l6.612,6.612a3.118,3.118,0,0,0,4.408,0l2.2-2.2a3.118,3.118,0,0,0,0-4.408,3.117,3.117,0,0,1,4.408-4.408Z" transform="translate(49.693 7.37)"/>
      <path id="Path_9154-2" data-name="Path 9154" d="M0,0H24.936V4.944H0Z" transform="translate(96.678 37.008) rotate(-45)"/>
      <g id="Group_4288-2" data-name="Group 4288" transform="translate(5.727 5.879)">
        <path id="Path_9155-2" data-name="Path 9155" d="M34.422,72.685,93.247,13.86a4.675,4.675,0,0,0-6.612-6.612L27.81,66.073" transform="translate(20.861 -5.879)"/>
        <path id="Path_9156-2" data-name="Path 9156" d="M36.354,35a6.232,6.232,0,0,0-8.816,0l-2.815,2.815,8.816,8.816,2.815-2.815A6.232,6.232,0,0,0,36.354,35Z" transform="translate(17.144 26.981)"/>
        <path id="Path_9157-2" data-name="Path 9157" d="M48.2,50.809,46,48.6,41.593,44.2l-2.2-2.2A18.7,18.7,0,0,0,12.941,68.441l.613.613c-.037,0-.073-.011-.112-.011a7.714,7.714,0,1,0,7.714,7.714c0-.037-.011-.073-.011-.112l.613.613A18.7,18.7,0,0,0,48.2,50.809ZM13.441,80.06a3.306,3.306,0,1,1,3.306-3.306A3.31,3.31,0,0,1,13.441,80.06Zm23.744-7.212A6.594,6.594,0,0,1,31,68.513,6.593,6.593,0,1,1,21.684,59.2a6.6,6.6,0,1,1,8.461-8.461,6.593,6.593,0,1,1,9.316,9.316,6.6,6.6,0,0,1-2.277,12.8Z" transform="translate(-5.727 31.006)"/>
        <path id="Path_9158-2" data-name="Path 9158" d="M23,36.985A6.232,6.232,0,0,0,23,45.8l4.408,4.408a6.234,6.234,0,0,0,8.816-8.816l-4.408-4.408a6.3,6.3,0,0,0-8.816,0Z" transform="translate(12.868 29.401)"/>
      </g>
      <path id="Path_9159-2" data-name="Path 9159" d="M32.872,47.327l-2.2-2.2L26.26,40.715l-2.2-2.2A18.985,18.985,0,0,0,21.9,36.688a6.213,6.213,0,0,0,1.082,7.3L27.4,48.4a6.213,6.213,0,0,0,7.3,1.082A18.761,18.761,0,0,0,32.872,47.327Z" transform="translate(18.606 37.094)"/>
    </g>
    <g id="TreasureKey_Logo-3" data-name="TreasureKey Logo" transform="matrix(0.966, 0.259, -0.259, 0.966, -4592.149, -7705.522)">
      <path id="Path_9153-3" data-name="Path 9153" d="M64.632,25.224a3.118,3.118,0,0,0,4.408,0l2.2-2.2a3.118,3.118,0,0,0,0-4.408L64.632,12,47,29.632l6.612,6.612a3.118,3.118,0,0,0,4.408,0l2.2-2.2a3.118,3.118,0,0,0,0-4.408,3.117,3.117,0,0,1,4.408-4.408Z" transform="translate(49.693 7.37)"/>
      <path id="Path_9154-3" data-name="Path 9154" d="M0,0H24.936V4.944H0Z" transform="translate(96.678 37.008) rotate(-45)"/>
      <g id="Group_4288-3" data-name="Group 4288" transform="translate(5.727 5.879)">
        <path id="Path_9155-3" data-name="Path 9155" d="M34.422,72.685,93.247,13.86a4.675,4.675,0,0,0-6.612-6.612L27.81,66.073" transform="translate(20.861 -5.879)"/>
        <path id="Path_9156-3" data-name="Path 9156" d="M36.354,35a6.232,6.232,0,0,0-8.816,0l-2.815,2.815,8.816,8.816,2.815-2.815A6.232,6.232,0,0,0,36.354,35Z" transform="translate(17.144 26.981)"/>
        <path id="Path_9157-3" data-name="Path 9157" d="M48.2,50.809,46,48.6,41.593,44.2l-2.2-2.2A18.7,18.7,0,0,0,12.941,68.441l.613.613c-.037,0-.073-.011-.112-.011a7.714,7.714,0,1,0,7.714,7.714c0-.037-.011-.073-.011-.112l.613.613A18.7,18.7,0,0,0,48.2,50.809ZM13.441,80.06a3.306,3.306,0,1,1,3.306-3.306A3.31,3.31,0,0,1,13.441,80.06Zm23.744-7.212A6.594,6.594,0,0,1,31,68.513,6.593,6.593,0,1,1,21.684,59.2a6.6,6.6,0,1,1,8.461-8.461,6.593,6.593,0,1,1,9.316,9.316,6.6,6.6,0,0,1-2.277,12.8Z" transform="translate(-5.727 31.006)"/>
        <path id="Path_9158-3" data-name="Path 9158" d="M23,36.985A6.232,6.232,0,0,0,23,45.8l4.408,4.408a6.234,6.234,0,0,0,8.816-8.816l-4.408-4.408a6.3,6.3,0,0,0-8.816,0Z" transform="translate(12.868 29.401)"/>
      </g>
      <path id="Path_9159-3" data-name="Path 9159" d="M32.872,47.327l-2.2-2.2L26.26,40.715l-2.2-2.2A18.985,18.985,0,0,0,21.9,36.688a6.213,6.213,0,0,0,1.082,7.3L27.4,48.4a6.213,6.213,0,0,0,7.3,1.082A18.761,18.761,0,0,0,32.872,47.327Z" transform="translate(18.606 37.094)"/>
    </g>
  </g>
</svg>
