<svg xmlns="http://www.w3.org/2000/svg" xmlns:xlink="http://www.w3.org/1999/xlink" width="927.001" height="927.001" viewBox="0 0 927.001 927.001">
  <defs>
    <linearGradient id="linear-gradient" x1="0.331" y1="0.014" x2="0.734" y2="0.4" gradientUnits="objectBoundingBox">
      <stop offset="0" stop-color="#b997ee"/>
      <stop offset="1" stop-color="#add4f5"/>
    </linearGradient>
  </defs>
  <g id="Group_4582" data-name="Group 4582" transform="translate(3602.975 8393.209)">
    <g id="Group_4413" data-name="Group 4413">
      <g id="Group_4313" data-name="Group 4313" transform="translate(2606)">
        <g id="Group_4287" data-name="Group 4287" transform="translate(-6208.975 -8393.209)">
          <g id="Exclusion_2" data-name="Exclusion 2" transform="translate(-9481.188 -10555.578)" fill="url(#linear-gradient)">
            <path d="M 9944.6875 11472.5791015625 C 9929.2177734375 11472.5791015625 9913.6123046875 11471.791015625 9898.306640625 11470.2373046875 C 9883.23046875 11468.7060546875 9868.0810546875 11466.3935546875 9853.2802734375 11463.365234375 C 9838.67578125 11460.376953125 9824.0556640625 11456.6171875 9809.826171875 11452.1923828125 C 9795.7568359375 11447.81640625 9781.7412109375 11442.6865234375 9768.1689453125 11436.9443359375 C 9754.7216796875 11431.2578125 9741.3857421875 11424.833984375 9728.529296875 11417.849609375 C 9715.76953125 11410.9189453125 9703.189453125 11403.2763671875 9691.1376953125 11395.1337890625 C 9667.12109375 11378.9091796875 9644.5380859375 11360.275390625 9624.013671875 11339.7509765625 C 9603.4912109375 11319.2275390625 9584.8583984375 11296.64453125 9568.6318359375 11272.626953125 C 9560.48828125 11260.572265625 9552.845703125 11247.9921875 9545.916015625 11235.236328125 C 9538.931640625 11222.37890625 9532.5078125 11209.04296875 9526.8212890625 11195.59765625 C 9521.0810546875 11182.0263671875 9515.951171875 11168.009765625 9511.57421875 11153.9384765625 C 9507.150390625 11139.7158203125 9503.3916015625 11125.0966796875 9500.4013671875 11110.484375 C 9497.373046875 11095.685546875 9495.060546875 11080.5361328125 9493.529296875 11065.45703125 C 9491.9755859375 11050.162109375 9491.1875 11034.55859375 9491.1875 11019.078125 C 9491.1875 11003.5986328125 9491.9755859375 10987.994140625 9493.529296875 10972.6982421875 C 9495.060546875 10957.62109375 9497.373046875 10942.4716796875 9500.4013671875 10927.6708984375 C 9503.392578125 10913.0546875 9507.1513671875 10898.4345703125 9511.57421875 10884.216796875 C 9515.9501953125 10870.1494140625 9521.080078125 10856.1328125 9526.8212890625 10842.55859375 C 9532.509765625 10829.107421875 9538.9345703125 10815.771484375 9545.916015625 10802.919921875 C 9552.8447265625 10790.1650390625 9560.48828125 10777.5849609375 9568.6328125 10765.52734375 C 9584.8583984375 10741.5107421875 9603.4912109375 10718.927734375 9624.013671875 10698.404296875 C 9644.537109375 10677.8818359375 9667.1201171875 10659.2490234375 9691.1376953125 10643.0224609375 C 9703.1943359375 10634.87890625 9715.7744140625 10627.2353515625 9728.529296875 10620.306640625 C 9741.380859375 10613.3251953125 9754.716796875 10606.900390625 9768.16796875 10601.2119140625 C 9781.7421875 10595.470703125 9795.7587890625 10590.3408203125 9809.826171875 10585.96484375 C 9824.0439453125 10581.5419921875 9838.6640625 10577.783203125 9853.2802734375 10574.7919921875 C 9868.0810546875 10571.763671875 9883.23046875 10569.451171875 9898.3076171875 10567.919921875 C 9913.603515625 10566.3662109375 9929.2080078125 10565.578125 9944.6875 10565.578125 C 9960.16796875 10565.578125 9975.771484375 10566.3662109375 9991.06640625 10567.919921875 C 10006.1455078125 10569.451171875 10021.294921875 10571.763671875 10036.09375 10574.7919921875 C 10050.7060546875 10577.7822265625 10065.3251953125 10581.541015625 10079.546875 10585.96484375 C 10093.619140625 10590.341796875 10107.6357421875 10595.4716796875 10121.20703125 10601.2119140625 C 10134.65234375 10606.8984375 10147.98828125 10613.322265625 10160.845703125 10620.306640625 C 10173.6015625 10627.236328125 10186.181640625 10634.87890625 10198.2373046875 10643.0224609375 C 10222.25390625 10659.2490234375 10244.8369140625 10677.8818359375 10265.3603515625 10698.404296875 C 10285.884765625 10718.9287109375 10304.5185546875 10741.51171875 10320.7431640625 10765.5283203125 C 10328.8857421875 10777.580078125 10336.5283203125 10790.16015625 10343.458984375 10802.919921875 C 10350.443359375 10815.7763671875 10356.8671875 10829.1123046875 10362.5537109375 10842.55859375 C 10368.2958984375 10856.1318359375 10373.42578125 10870.1474609375 10377.8017578125 10884.216796875 C 10382.2265625 10898.4462890625 10385.986328125 10913.06640625 10388.974609375 10927.6708984375 C 10392.0029296875 10942.4716796875 10394.3154296875 10957.62109375 10395.8466796875 10972.6982421875 C 10397.400390625 10988.0029296875 10398.1884765625 11003.6083984375 10398.1884765625 11019.078125 C 10398.1884765625 11034.548828125 10397.400390625 11050.15234375 10395.8466796875 11065.4580078125 C 10394.3154296875 11080.537109375 10392.0029296875 11095.685546875 10388.974609375 11110.484375 C 10385.9873046875 11125.0859375 10382.228515625 11139.7060546875 10377.8017578125 11153.9384765625 C 10373.427734375 11168.001953125 10368.296875 11182.0185546875 10362.5537109375 11195.59765625 C 10356.86328125 11209.0517578125 10350.4384765625 11222.388671875 10343.458984375 11235.236328125 C 10336.5234375 11248.001953125 10328.880859375 11260.5830078125 10320.7431640625 11272.626953125 C 10304.517578125 11296.6435546875 10285.884765625 11319.2275390625 10265.3603515625 11339.7509765625 C 10244.8369140625 11360.275390625 10222.2529296875 11378.908203125 10198.2373046875 11395.1337890625 C 10186.1923828125 11403.271484375 10173.611328125 11410.9140625 10160.845703125 11417.849609375 C 10147.998046875 11424.8291015625 10134.6611328125 11431.25390625 10121.20703125 11436.9443359375 C 10107.6279296875 11442.6875 10093.611328125 11447.818359375 10079.5478515625 11452.1923828125 C 10065.3154296875 11456.619140625 10050.6953125 11460.3779296875 10036.09375 11463.365234375 C 10021.294921875 11466.3935546875 10006.146484375 11468.7060546875 9991.06640625 11470.2373046875 C 9975.76171875 11471.791015625 9960.158203125 11472.5791015625 9944.6875 11472.5791015625 Z M 9944.68359375 10638.578125 C 9931.7099609375 10638.578125 9918.6259765625 10639.2392578125 9905.794921875 10640.54296875 C 9893.140625 10641.8271484375 9880.4287109375 10643.767578125 9868.013671875 10646.30859375 C 9843.5732421875 10651.310546875 9819.5380859375 10658.771484375 9796.576171875 10668.484375 C 9774.0263671875 10678.021484375 9752.279296875 10689.8251953125 9731.939453125 10703.5673828125 C 9711.7890625 10717.1806640625 9692.8447265625 10732.8115234375 9675.6337890625 10750.025390625 C 9658.4208984375 10767.2353515625 9642.7900390625 10786.1796875 9629.1767578125 10806.3310546875 C 9615.4345703125 10826.669921875 9603.630859375 10848.4169921875 9594.09375 10870.966796875 C 9584.380859375 10893.9287109375 9576.919921875 10917.9638671875 9571.91796875 10942.404296875 C 9569.376953125 10954.8193359375 9567.4365234375 10967.53125 9566.1513671875 10980.185546875 C 9564.8486328125 10993.017578125 9564.1875 11006.103515625 9564.1875 11019.078125 C 9564.1875 11032.052734375 9564.8486328125 11045.138671875 9566.15234375 11057.970703125 C 9567.4365234375 11070.625 9569.376953125 11083.3369140625 9571.91796875 11095.751953125 C 9576.9189453125 11120.1904296875 9584.3798828125 11144.2255859375 9594.09375 11167.189453125 C 9603.630859375 11189.73828125 9615.4345703125 11211.4853515625 9629.1767578125 11231.826171875 C 9642.791015625 11251.9775390625 9658.4208984375 11270.921875 9675.634765625 11288.1328125 C 9692.849609375 11305.349609375 9711.7939453125 11320.9794921875 9731.9404296875 11334.5888671875 C 9752.2802734375 11348.33203125 9774.02734375 11360.13671875 9796.576171875 11369.6728515625 C 9819.537109375 11379.384765625 9843.5712890625 11386.845703125 9868.013671875 11391.8486328125 C 9880.4287109375 11394.3896484375 9893.140625 11396.330078125 9905.794921875 11397.615234375 C 9918.6259765625 11398.91796875 9931.7109375 11399.5791015625 9944.6875 11399.5791015625 C 9957.6640625 11399.5791015625 9970.7490234375 11398.91796875 9983.580078125 11397.615234375 C 9996.234375 11396.330078125 10008.9462890625 11394.3896484375 10021.361328125 11391.8486328125 C 10045.80078125 11386.8466796875 10069.8359375 11379.3857421875 10092.798828125 11369.6728515625 C 10115.349609375 11360.1357421875 10137.0966796875 11348.3310546875 10157.4365234375 11334.5888671875 C 10177.5849609375 11320.9765625 10196.5283203125 11305.3466796875 10213.7421875 11288.1328125 C 10230.9560546875 11270.9189453125 10246.5859375 11251.9755859375 10260.1982421875 11231.826171875 C 10273.9404296875 11211.4873046875 10285.7451171875 11189.740234375 10295.2822265625 11167.189453125 C 10304.9951171875 11144.2265625 10312.4560546875 11120.19140625 10317.4580078125 11095.751953125 C 10319.9990234375 11083.3369140625 10321.939453125 11070.625 10323.224609375 11057.970703125 C 10324.52734375 11045.1396484375 10325.1884765625 11032.0546875 10325.1884765625 11019.078125 C 10325.1884765625 11006.1015625 10324.52734375 10993.0166015625 10323.224609375 10980.185546875 C 10321.939453125 10967.53125 10319.9990234375 10954.8193359375 10317.4580078125 10942.404296875 C 10312.455078125 10917.9619140625 10304.994140625 10893.927734375 10295.2822265625 10870.966796875 C 10285.74609375 10848.41796875 10273.94140625 10826.6708984375 10260.1982421875 10806.330078125 C 10246.5888671875 10786.1845703125 10230.958984375 10767.240234375 10213.7421875 10750.0244140625 C 10196.53125 10732.8115234375 10177.5869140625 10717.181640625 10157.435546875 10703.5673828125 C 10137.0947265625 10689.8251953125 10115.34765625 10678.021484375 10092.798828125 10668.484375 C 10069.8349609375 10658.7705078125 10045.7998046875 10651.3095703125 10021.361328125 10646.30859375 C 10008.9462890625 10643.767578125 9996.234375 10641.8271484375 9983.580078125 10640.5419921875 C 9970.748046875 10639.2392578125 9957.662109375 10638.578125 9944.6875 10638.578125 L 9944.68359375 10638.578125 Z" stroke="none"/>
            <path d="M 9944.6875 11462.5791015625 C 9959.822265625 11462.5791015625 9975.0869140625 11461.80859375 9990.0556640625 11460.2890625 C 10004.8037109375 11458.791015625 10019.6181640625 11456.529296875 10034.08984375 11453.568359375 C 10048.3671875 11450.646484375 10062.6630859375 11446.9716796875 10076.5771484375 11442.6435546875 C 10090.330078125 11438.3662109375 10104.03515625 11433.349609375 10117.3115234375 11427.734375 C 10130.4677734375 11422.169921875 10143.5078125 11415.8876953125 10156.072265625 11409.0625 C 10168.5556640625 11402.28125 10180.8583984375 11394.806640625 10192.638671875 11386.84765625 C 10216.1279296875 11370.978515625 10238.2158203125 11352.75390625 10258.2890625 11332.6796875 C 10278.36328125 11312.6064453125 10296.587890625 11290.5185546875 10312.45703125 11267.029296875 C 10320.416015625 11255.2490234375 10327.890625 11242.9462890625 10334.671875 11230.462890625 C 10341.4970703125 11217.8984375 10347.779296875 11204.8583984375 10353.34375 11191.7021484375 C 10358.958984375 11178.42578125 10363.9755859375 11164.720703125 10368.2529296875 11150.96875 C 10372.5810546875 11137.0537109375 10376.255859375 11122.7578125 10379.177734375 11108.4794921875 C 10382.138671875 11094.0087890625 10384.400390625 11079.1943359375 10385.8984375 11064.4482421875 C 10387.41796875 11049.4775390625 10388.1884765625 11034.212890625 10388.1884765625 11019.078125 C 10388.1884765625 11003.943359375 10387.41796875 10988.6787109375 10385.8984375 10973.708984375 C 10384.400390625 10958.9638671875 10382.138671875 10944.1484375 10379.177734375 10929.67578125 C 10376.2548828125 10915.3955078125 10372.580078125 10901.099609375 10368.2529296875 10887.1875 C 10363.9736328125 10873.4296875 10358.9580078125 10859.7255859375 10353.3427734375 10846.453125 C 10347.783203125 10833.3056640625 10341.5009765625 10820.265625 10334.671875 10807.6923828125 C 10327.8935546875 10795.21484375 10320.419921875 10782.912109375 10312.45703125 10771.1259765625 C 10296.587890625 10747.63671875 10278.36328125 10725.548828125 10258.2900390625 10705.4755859375 C 10238.2158203125 10685.40234375 10216.1279296875 10667.1787109375 10192.6396484375 10651.3095703125 C 10180.8486328125 10643.3447265625 10168.5458984375 10635.8701171875 10156.072265625 10629.09375 C 10143.5 10622.2646484375 10130.458984375 10615.982421875 10117.3115234375 10610.421875 C 10104.041015625 10604.8095703125 10090.3359375 10599.79296875 10076.5771484375 10595.513671875 C 10062.6708984375 10591.1875 10048.3759765625 10587.5126953125 10034.0888671875 10584.5888671875 C 10019.6162109375 10581.626953125 10004.8017578125 10579.3662109375 9990.0556640625 10577.8681640625 C 9975.095703125 10576.3486328125 9959.83203125 10575.578125 9944.6875 10575.578125 C 9929.5439453125 10575.578125 9914.279296875 10576.3486328125 9899.318359375 10577.8681640625 C 9884.57421875 10579.3662109375 9869.7587890625 10581.6279296875 9855.28515625 10584.5888671875 C 9840.9931640625 10587.513671875 9826.6982421875 10591.189453125 9812.796875 10595.513671875 C 9799.041015625 10599.7919921875 9785.3369140625 10604.8076171875 9772.0625 10610.4228515625 C 9758.9091796875 10615.9853515625 9745.8681640625 10622.267578125 9733.302734375 10629.09375 C 9720.830078125 10635.869140625 9708.5263671875 10643.34375 9696.7353515625 10651.30859375 C 9673.24609375 10667.1787109375 9651.1572265625 10685.4033203125 9631.0849609375 10705.474609375 C 9611.0126953125 10725.5478515625 9592.7880859375 10747.63671875 9576.9189453125 10771.125 C 9568.953125 10782.9169921875 9561.478515625 10795.220703125 9554.703125 10807.6943359375 C 9547.876953125 10820.2587890625 9541.5947265625 10833.2998046875 9536.03125 10846.4541015625 C 9530.4169921875 10859.7275390625 9525.4013671875 10873.431640625 9521.123046875 10887.1875 C 9516.798828125 10901.0888671875 9513.123046875 10915.3837890625 9510.1982421875 10929.67578125 C 9507.2373046875 10944.1494140625 9504.9755859375 10958.96484375 9503.4775390625 10973.708984375 C 9501.9580078125 10988.669921875 9501.1875 11003.9345703125 9501.1875 11019.078125 C 9501.1875 11034.22265625 9501.9580078125 11049.486328125 9503.4775390625 11064.4462890625 C 9504.9755859375 11079.1923828125 9507.236328125 11094.0068359375 9510.1982421875 11108.48046875 C 9513.1220703125 11122.7666015625 9516.796875 11137.0615234375 9521.123046875 11150.9677734375 C 9525.40234375 11164.7265625 9530.4189453125 11178.431640625 9536.0322265625 11191.703125 C 9541.591796875 11204.849609375 9547.8740234375 11217.890625 9554.703125 11230.462890625 C 9561.4794921875 11242.9365234375 9568.9541015625 11255.2392578125 9576.91796875 11267.029296875 C 9592.7880859375 11290.5185546875 9611.01171875 11312.6064453125 9631.0849609375 11332.6796875 C 9651.158203125 11352.75390625 9673.24609375 11370.978515625 9696.7353515625 11386.84765625 C 9708.521484375 11394.810546875 9720.82421875 11402.2841796875 9733.302734375 11409.0625 C 9745.875 11415.8916015625 9758.9150390625 11422.173828125 9772.064453125 11427.734375 C 9785.3349609375 11433.3486328125 9799.0390625 11438.3642578125 9812.7958984375 11442.6435546875 C 9826.708984375 11446.970703125 9841.0048828125 11450.6455078125 9855.28515625 11453.568359375 C 9869.7578125 11456.529296875 9884.5732421875 11458.791015625 9899.31640625 11460.2890625 C 9914.2880859375 11461.80859375 9929.552734375 11462.5791015625 9944.6875 11462.5791015625 M 9944.68359375 10628.578125 L 9944.6875 10628.578125 C 9957.9990234375 10628.578125 9971.423828125 10629.255859375 9984.58984375 10630.59375 C 9997.5771484375 10631.912109375 10010.623046875 10633.9033203125 10023.3662109375 10636.51171875 C 10048.451171875 10641.6455078125 10073.123046875 10649.3037109375 10096.6943359375 10659.2744140625 C 10119.837890625 10669.0625 10142.158203125 10681.177734375 10163.0341796875 10695.28125 C 10183.7119140625 10709.2509765625 10203.15234375 10725.2900390625 10220.8125 10742.953125 C 10238.4794921875 10760.619140625 10254.5185546875 10780.05859375 10268.484375 10800.7314453125 C 10282.58984375 10821.6083984375 10294.7041015625 10843.9287109375 10304.4921875 10867.0703125 C 10314.4619140625 10890.6396484375 10322.1201171875 10915.310546875 10327.2548828125 10940.3984375 C 10329.86328125 10953.142578125 10331.8544921875 10966.1884765625 10333.1728515625 10979.1748046875 C 10334.5107421875 10992.33984375 10335.1884765625 11005.765625 10335.1884765625 11019.078125 C 10335.1884765625 11032.390625 10334.5107421875 11045.81640625 10333.1728515625 11058.98046875 C 10331.8544921875 11071.9677734375 10329.86328125 11085.013671875 10327.2548828125 11097.7568359375 C 10322.12109375 11122.841796875 10314.462890625 11147.513671875 10304.4921875 11171.0849609375 C 10294.703125 11194.23046875 10282.5888671875 11216.5498046875 10268.484375 11237.4248046875 C 10254.5166015625 11258.1005859375 10238.4765625 11277.541015625 10220.8134765625 11295.203125 C 10203.150390625 11312.8671875 10183.7099609375 11328.9072265625 10163.03515625 11342.875 C 10142.1591796875 11356.9794921875 10119.83984375 11369.09375 10096.6943359375 11378.8828125 C 10073.123046875 11388.853515625 10048.451171875 11396.51171875 10023.3671875 11401.6455078125 C 10010.623046875 11404.25390625 9997.5771484375 11406.2451171875 9984.5908203125 11407.5634765625 C 9971.42578125 11408.9013671875 9958 11409.5791015625 9944.6875 11409.5791015625 C 9931.375 11409.5791015625 9917.94921875 11408.9013671875 9904.78515625 11407.5634765625 C 9891.7978515625 11406.2451171875 9878.751953125 11404.25390625 9866.0078125 11401.6455078125 C 9840.919921875 11396.5107421875 9816.2490234375 11388.8525390625 9792.6806640625 11378.8828125 C 9769.5380859375 11369.0947265625 9747.2177734375 11356.98046875 9726.3427734375 11342.8759765625 C 9705.66796875 11328.9091796875 9686.228515625 11312.8701171875 9668.5634765625 11295.2041015625 C 9650.8994140625 11277.54296875 9634.8603515625 11258.1025390625 9620.890625 11237.4248046875 C 9606.787109375 11216.548828125 9594.671875 11194.228515625 9584.8837890625 11171.0859375 C 9574.9130859375 11147.513671875 9567.2548828125 11122.841796875 9562.12109375 11097.7568359375 C 9559.5126953125 11085.013671875 9557.521484375 11071.9677734375 9556.203125 11058.9814453125 C 9554.865234375 11045.814453125 9554.1875 11032.3896484375 9554.1875 11019.078125 C 9554.1875 11005.7666015625 9554.865234375 10992.341796875 9556.203125 10979.17578125 C 9557.521484375 10966.1884765625 9559.5126953125 10953.142578125 9562.12109375 10940.3994140625 C 9567.255859375 10915.3115234375 9574.9140625 10890.640625 9584.8837890625 10867.0712890625 C 9594.6728515625 10843.9267578125 9606.787109375 10821.6064453125 9620.890625 10800.732421875 C 9634.8603515625 10780.0537109375 9650.900390625 10760.6142578125 9668.5625 10742.9541015625 C 9686.2236328125 10725.291015625 9705.6630859375 10709.2509765625 9726.341796875 10695.28125 C 9747.2158203125 10681.177734375 9769.5361328125 10669.0634765625 9792.6796875 10659.2744140625 C 9816.25 10649.3046875 9840.9208984375 10641.646484375 9866.0087890625 10636.51171875 C 9878.751953125 10633.9033203125 9891.7978515625 10631.912109375 9904.7841796875 10630.59375 C 9917.9501953125 10629.255859375 9931.3740234375 10628.578125 9944.68359375 10628.578125 M 9944.6875 11482.5791015625 C 9928.8837890625 11482.5791015625 9912.939453125 11481.7744140625 9897.296875 11480.1865234375 C 9881.8876953125 11478.62109375 9866.404296875 11476.2578125 9851.275390625 11473.162109375 C 9836.34375 11470.1064453125 9821.3994140625 11466.263671875 9806.8564453125 11461.7412109375 C 9792.4736328125 11457.267578125 9778.146484375 11452.0234375 9764.2724609375 11446.154296875 C 9750.5234375 11440.33984375 9736.8916015625 11433.7724609375 9723.755859375 11426.63671875 C 9710.708984375 11419.5498046875 9697.8515625 11411.73828125 9685.5390625 11403.419921875 C 9660.99609375 11386.8388671875 9637.9169921875 11367.796875 9616.9423828125 11346.822265625 C 9595.970703125 11325.849609375 9576.9287109375 11302.7705078125 9560.345703125 11278.2255859375 C 9552.0244140625 11265.9072265625 9544.212890625 11253.0498046875 9537.12890625 11240.009765625 C 9529.9951171875 11226.876953125 9523.427734375 11213.24609375 9517.611328125 11199.4931640625 C 9511.740234375 11185.6123046875 9506.4970703125 11171.2841796875 9502.025390625 11156.908203125 C 9497.50390625 11142.373046875 9493.6611328125 11127.4287109375 9490.6044921875 11112.4892578125 C 9487.5087890625 11097.3623046875 9485.1455078125 11081.87890625 9483.580078125 11066.4677734375 C 9481.9921875 11050.8359375 9481.1875 11034.8916015625 9481.1875 11019.078125 C 9481.1875 11003.2646484375 9481.9921875 10987.3203125 9483.580078125 10971.6875 C 9485.1455078125 10956.2783203125 9487.5087890625 10940.794921875 9490.6044921875 10925.666015625 C 9493.662109375 10910.7255859375 9497.5048828125 10895.7802734375 9502.025390625 10881.2470703125 C 9506.498046875 10866.8671875 9511.7421875 10852.5390625 9517.611328125 10838.6630859375 C 9523.42578125 10824.9150390625 9529.9921875 10811.283203125 9537.12890625 10798.146484375 C 9544.212890625 10785.1064453125 9552.0244140625 10772.2490234375 9560.345703125 10759.9296875 C 9576.9267578125 10735.3876953125 9595.9677734375 10712.30859375 9616.9423828125 10691.3330078125 C 9637.91796875 10670.3583984375 9660.9970703125 10651.3173828125 9685.5390625 10634.736328125 C 9697.8583984375 10626.4150390625 9710.7158203125 10618.603515625 9723.755859375 10611.51953125 C 9736.892578125 10604.3828125 9750.5244140625 10597.81640625 9764.2724609375 10592.001953125 C 9778.1484375 10586.1328125 9792.4765625 10580.888671875 9806.8564453125 10576.416015625 C 9821.3896484375 10571.8955078125 9836.3349609375 10568.052734375 9851.275390625 10564.9951171875 C 9866.404296875 10561.8994140625 9881.8876953125 10559.5361328125 9897.296875 10557.970703125 C 9912.9296875 10556.3828125 9928.8740234375 10555.578125 9944.6875 10555.578125 C 9960.5009765625 10555.578125 9976.4453125 10556.3828125 9992.0771484375 10557.970703125 C 10007.48828125 10559.5361328125 10022.9716796875 10561.8994140625 10038.0986328125 10564.9951171875 C 10053.0380859375 10568.0517578125 10067.982421875 10571.89453125 10082.517578125 10576.416015625 C 10096.8935546875 10580.8876953125 10111.2216796875 10586.130859375 10125.1025390625 10592.001953125 C 10138.85546875 10597.818359375 10152.486328125 10604.3857421875 10165.619140625 10611.51953125 C 10178.6591796875 10618.603515625 10191.5166015625 10626.4150390625 10203.8349609375 10634.736328125 C 10228.3798828125 10651.3193359375 10251.458984375 10670.361328125 10272.431640625 10691.3330078125 C 10293.40625 10712.3076171875 10312.4482421875 10735.38671875 10329.029296875 10759.9296875 C 10337.34765625 10772.2421875 10345.1591796875 10785.099609375 10352.24609375 10798.146484375 C 10359.3818359375 10811.2822265625 10365.94921875 10824.9140625 10371.763671875 10838.6630859375 C 10377.6328125 10852.537109375 10382.876953125 10866.8642578125 10387.3505859375 10881.2470703125 C 10391.873046875 10895.7900390625 10395.7158203125 10910.734375 10398.771484375 10925.666015625 C 10401.8671875 10940.794921875 10404.23046875 10956.2783203125 10405.7958984375 10971.6875 C 10407.3837890625 10987.330078125 10408.1884765625 11003.2744140625 10408.1884765625 11019.078125 C 10408.1884765625 11034.8828125 10407.3837890625 11050.826171875 10405.7958984375 11066.4677734375 C 10404.23046875 11081.8779296875 10401.8671875 11097.3623046875 10398.771484375 11112.4892578125 C 10395.716796875 11127.4189453125 10391.8740234375 11142.36328125 10387.3505859375 11156.908203125 C 10382.8779296875 11171.287109375 10377.6337890625 11185.6142578125 10371.763671875 11199.4931640625 C 10365.9462890625 11213.2470703125 10359.3798828125 11226.8779296875 10352.24609375 11240.009765625 C 10345.15625 11253.060546875 10337.3447265625 11265.91796875 10329.029296875 11278.2255859375 C 10312.4462890625 11302.771484375 10293.4033203125 11325.8505859375 10272.431640625 11346.822265625 C 10251.4599609375 11367.7939453125 10228.380859375 11386.8369140625 10203.8349609375 11403.419921875 C 10191.52734375 11411.7353515625 10178.669921875 11419.546875 10165.619140625 11426.63671875 C 10152.4873046875 11433.7705078125 10138.8564453125 11440.3369140625 10125.1025390625 11446.154296875 C 10111.2236328125 11452.0244140625 10096.896484375 11457.2685546875 10082.517578125 11461.7412109375 C 10067.97265625 11466.2646484375 10053.0283203125 11470.107421875 10038.0986328125 11473.162109375 C 10022.9716796875 11476.2578125 10007.4873046875 11478.62109375 9992.0771484375 11480.1865234375 C 9976.435546875 11481.7744140625 9960.4921875 11482.5791015625 9944.6875 11482.5791015625 Z M 9944.68359375 10648.578125 C 9932.0458984375 10648.578125 9919.302734375 10649.2216796875 9906.8056640625 10650.4912109375 C 9894.486328125 10651.7421875 9882.109375 10653.630859375 9870.0185546875 10656.10546875 C 9846.2275390625 10660.974609375 9822.8291015625 10668.2373046875 9800.4716796875 10677.6943359375 C 9778.5185546875 10686.9794921875 9757.3447265625 10698.4716796875 9737.5380859375 10711.853515625 C 9717.9169921875 10725.109375 9699.4677734375 10740.3310546875 9682.705078125 10757.095703125 C 9665.9404296875 10773.8583984375 9650.71875 10792.3076171875 9637.462890625 10811.9287109375 C 9624.0810546875 10831.7353515625 9612.5888671875 10852.9091796875 9603.3037109375 10874.8623046875 C 9593.8466796875 10897.2197265625 9586.583984375 10920.6181640625 9581.71484375 10944.4091796875 C 9579.240234375 10956.5 9577.3515625 10968.876953125 9576.1005859375 10981.1962890625 C 9574.8310546875 10993.6943359375 9574.1875 11006.439453125 9574.1875 11019.078125 C 9574.1875 11031.716796875 9574.8310546875 11044.4619140625 9576.1005859375 11056.9599609375 C 9577.3515625 11069.279296875 9579.240234375 11081.65625 9581.71484375 11093.7470703125 C 9586.583984375 11117.5400390625 9593.84765625 11140.9384765625 9603.3037109375 11163.2939453125 C 9612.5888671875 11185.2470703125 9624.0810546875 11206.4208984375 9637.462890625 11226.228515625 C 9650.720703125 11245.8525390625 9665.9423828125 11264.30078125 9682.705078125 11281.0615234375 C 9699.4716796875 11297.8291015625 9717.919921875 11313.0498046875 9737.5380859375 11326.302734375 C 9757.34375 11339.6845703125 9778.517578125 11351.177734375 9800.4716796875 11360.462890625 C 9822.8291015625 11369.919921875 9846.228515625 11377.1826171875 9870.0185546875 11382.0517578125 C 9882.109375 11384.5263671875 9894.486328125 11386.4150390625 9906.8056640625 11387.666015625 C 9919.3037109375 11388.935546875 9932.048828125 11389.5791015625 9944.6875 11389.5791015625 C 9957.326171875 11389.5791015625 9970.0712890625 11388.935546875 9982.5693359375 11387.666015625 C 9994.888671875 11386.4150390625 10007.265625 11384.5263671875 10019.3564453125 11382.0517578125 C 10043.1484375 11377.1826171875 10066.5478515625 11369.9189453125 10088.9033203125 11360.462890625 C 10110.857421875 11351.177734375 10132.0322265625 11339.6845703125 10151.837890625 11326.302734375 C 10171.4580078125 11313.0478515625 10189.90625 11297.8271484375 10206.6708984375 11281.0615234375 C 10223.4365234375 11264.296875 10238.6572265625 11245.8486328125 10251.912109375 11226.228515625 C 10265.2939453125 11206.4228515625 10276.787109375 11185.248046875 10286.072265625 11163.2939453125 C 10295.5283203125 11140.9384765625 10302.7919921875 11117.5390625 10307.6611328125 11093.7470703125 C 10310.1357421875 11081.65625 10312.0244140625 11069.279296875 10313.275390625 11056.9599609375 C 10314.544921875 11044.4619140625 10315.1884765625 11031.716796875 10315.1884765625 11019.078125 C 10315.1884765625 11006.439453125 10314.544921875 10993.6943359375 10313.275390625 10981.1962890625 C 10312.0244140625 10968.876953125 10310.1357421875 10956.5 10307.6611328125 10944.4091796875 C 10302.7919921875 10920.619140625 10295.529296875 10897.2197265625 10286.072265625 10874.8623046875 C 10276.787109375 10852.908203125 10265.2939453125 10831.734375 10251.912109375 10811.9287109375 C 10238.6591796875 10792.310546875 10223.4384765625 10773.8623046875 10206.6708984375 10757.095703125 C 10189.91015625 10740.3330078125 10171.4619140625 10725.111328125 10151.837890625 10711.853515625 C 10132.0302734375 10698.4716796875 10110.8564453125 10686.9794921875 10088.9033203125 10677.6943359375 C 10066.5478515625 10668.23828125 10043.1494140625 10660.974609375 10019.3564453125 10656.10546875 C 10007.265625 10653.630859375 9994.888671875 10651.7421875 9982.5693359375 10650.4912109375 C 9970.0712890625 10649.2216796875 9957.326171875 10648.578125 9944.6875 10648.578125 C 9944.6865234375 10648.578125 9944.6845703125 10648.578125 9944.68359375 10648.578125 Z" stroke="none" fill="#000"/>
          </g>
        </g>
        <circle id="Ellipse_827" data-name="Ellipse 827" cx="369" cy="369" r="369" transform="translate(-6114 -8299.423)" fill="#fff"/>
      </g>
      <g id="Ellipse_844" data-name="Ellipse 844" transform="translate(-3339 -8130)" stroke="#000" stroke-width="10" fill="url(#linear-gradient)">
        <circle cx="200" cy="200" r="200" stroke="none"/>
        <circle cx="200" cy="200" r="195" fill="none"/>
      </g>
      <line id="Line_295" data-name="Line 295" y1="188" transform="translate(-3133.5 -8313.5)" fill="none" stroke="#000" stroke-width="10"/>
      <line id="Line_296" data-name="Line 296" y1="188" transform="translate(-3139.474 -7730)" fill="none" stroke="#000" stroke-width="10"/>
      <line id="Line_297" data-name="Line 297" y1="188" transform="translate(-3525.224 -7938.737) rotate(-90)" fill="none" stroke="#000" stroke-width="10"/>
      <line id="Line_298" data-name="Line 298" y1="188" transform="translate(-2941.724 -7932.763) rotate(-90)" fill="none" stroke="#000" stroke-width="10"/>
      <line id="Line_299" data-name="Line 299" y1="188" transform="translate(-2861.608 -8198.404) rotate(45)" fill="none" stroke="#000" stroke-width="10"/>
      <line id="Line_300" data-name="Line 300" y1="188" transform="translate(-3278.43 -7790.032) rotate(45)" fill="none" stroke="#000" stroke-width="10"/>
      <line id="Line_301" data-name="Line 301" y1="188" transform="translate(-3407.141 -8202.629) rotate(-45)" fill="none" stroke="#000" stroke-width="10"/>
      <line id="Line_302" data-name="Line 302" y1="188" transform="translate(-2998.769 -7785.808) rotate(-45)" fill="none" stroke="#000" stroke-width="10"/>
      <g id="Ellipse_845" data-name="Ellipse 845" transform="translate(-3039 -7830) rotate(180)" stroke="#000" stroke-width="10" fill="url(#linear-gradient)">
        <circle cx="100" cy="100" r="100" stroke="none"/>
        <circle cx="100" cy="100" r="95" fill="none"/>
      </g>
      <line id="Line_303" data-name="Line 303" y1="188" transform="translate(-3133.5 -8211.5)" fill="none" stroke="#000" stroke-width="10"/>
      <line id="Line_304" data-name="Line 304" y1="188" transform="translate(-3139.474 -7839.872)" fill="none" stroke="#000" stroke-width="10"/>
      <line id="Line_305" data-name="Line 305" y1="188" transform="translate(-3042.724 -7932.763) rotate(-90)" fill="none" stroke="#000" stroke-width="10"/>
      <line id="Line_306" data-name="Line 306" y1="188" transform="translate(-3416.224 -7938.737) rotate(-90)" fill="none" stroke="#000" stroke-width="10"/>
    </g>
    <g id="TreasureKey_Logo" data-name="TreasureKey Logo" transform="translate(-3308.788 -8275.873)">
      <path id="Path_9153" data-name="Path 9153" d="M64.632,25.224a3.118,3.118,0,0,0,4.408,0l2.2-2.2a3.118,3.118,0,0,0,0-4.408L64.632,12,47,29.632l6.612,6.612a3.118,3.118,0,0,0,4.408,0l2.2-2.2a3.118,3.118,0,0,0,0-4.408,3.117,3.117,0,0,1,4.408-4.408Z" transform="translate(49.693 7.37)"/>
      <path id="Path_9154" data-name="Path 9154" d="M0,0H24.936V4.944H0Z" transform="translate(96.678 37.008) rotate(-45)"/>
      <g id="Group_4288" data-name="Group 4288" transform="translate(5.727 5.879)">
        <path id="Path_9155" data-name="Path 9155" d="M34.422,72.685,93.247,13.86a4.675,4.675,0,0,0-6.612-6.612L27.81,66.073" transform="translate(20.861 -5.879)"/>
        <path id="Path_9156" data-name="Path 9156" d="M36.354,35a6.232,6.232,0,0,0-8.816,0l-2.815,2.815,8.816,8.816,2.815-2.815A6.232,6.232,0,0,0,36.354,35Z" transform="translate(17.144 26.981)"/>
        <path id="Path_9157" data-name="Path 9157" d="M48.2,50.809,46,48.6,41.593,44.2l-2.2-2.2A18.7,18.7,0,0,0,12.941,68.441l.613.613c-.037,0-.073-.011-.112-.011a7.714,7.714,0,1,0,7.714,7.714c0-.037-.011-.073-.011-.112l.613.613A18.7,18.7,0,0,0,48.2,50.809ZM13.441,80.06a3.306,3.306,0,1,1,3.306-3.306A3.31,3.31,0,0,1,13.441,80.06Zm23.744-7.212A6.594,6.594,0,0,1,31,68.513,6.593,6.593,0,1,1,21.684,59.2a6.6,6.6,0,1,1,8.461-8.461,6.593,6.593,0,1,1,9.316,9.316,6.6,6.6,0,0,1-2.277,12.8Z" transform="translate(-5.727 31.006)"/>
        <path id="Path_9158" data-name="Path 9158" d="M23,36.985A6.232,6.232,0,0,0,23,45.8l4.408,4.408a6.234,6.234,0,0,0,8.816-8.816l-4.408-4.408a6.3,6.3,0,0,0-8.816,0Z" transform="translate(12.868 29.401)"/>
      </g>
      <path id="Path_9159" data-name="Path 9159" d="M32.872,47.327l-2.2-2.2L26.26,40.715l-2.2-2.2A18.985,18.985,0,0,0,21.9,36.688a6.213,6.213,0,0,0,1.082,7.3L27.4,48.4a6.213,6.213,0,0,0,7.3,1.082A18.761,18.761,0,0,0,32.872,47.327Z" transform="translate(18.606 37.094)"/>
    </g>
  </g>
</svg>
