<svg xmlns="http://www.w3.org/2000/svg" xmlns:xlink="http://www.w3.org/1999/xlink" width="114" height="64" viewBox="0 0 114 64">
  <defs>
    <clipPath id="clip-path">
      <circle id="Ellipse_1421" data-name="Ellipse 1421" cx="32" cy="32" r="32" transform="translate(-24240 -10914)" fill="#fff"/>
    </clipPath>
    <clipPath id="clip-path-2">
      <ellipse id="Ellipse_892" data-name="Ellipse 892" cx="26.5" cy="25.5" rx="26.5" ry="25.5" transform="translate(-24483 -11213.874)" fill="#fff"/>
    </clipPath>
  </defs>
  <g id="Group_9087" data-name="Group 9087" transform="translate(24230 8935)">
    <g id="Mask_Group_209" data-name="Mask Group 209" transform="translate(10 1979)" clip-path="url(#clip-path)">
      <g id="Layer_x0020_1" transform="translate(-24240 -10914)">
        <path id="Path_16340" data-name="Path 16340" d="M32,0A32,32,0,1,1,0,32,32,32,0,0,1,32,0Z" fill="#f5ac37"/>
        <path id="Path_16341" data-name="Path 16341" d="M33.179,34.259H45.339c.259,0,.382,0,.4-.34a23.244,23.244,0,0,0,0-3.72c0-.24-.12-.34-.38-.34H21.16c-.3,0-.38.1-.38.38V33.8c0,.459,0,.459.48.459Zm11.2-8.559a.389.389,0,0,0,0-.279,7.908,7.908,0,0,0-.723-1.26,10.2,10.2,0,0,0-1.48-1.86,4.907,4.907,0,0,0-.92-.9,14.376,14.376,0,0,0-6-3.04,14.916,14.916,0,0,0-3.4-.36H21.118c-.3,0-.34.12-.34.38v7.1c0,.3,0,.38.38.38H44.237s.2-.04.24-.16h-.1Zm0,12.72a4.667,4.667,0,0,0-1.022,0H21.18c-.3,0-.4,0-.4.4v6.941c0,.32,0,.4.4.4H31.42a5.115,5.115,0,0,0,1.459-.1,15.244,15.244,0,0,0,4.342-.96,7.946,7.946,0,0,0,1.459-.68h.14A12.993,12.993,0,0,0,44.4,38.8s.14-.3-.017-.382ZM16.76,49.76V38.7c0-.261,0-.3-.32-.3H12.1c-.24,0-.34,0-.34-.32v-3.8H16.4c.259,0,.36,0,.36-.34v-3.76c0-.24,0-.3-.32-.3H12.1c-.24,0-.34,0-.34-.32V26.043c0-.22,0-.279.32-.279h4.3c.3,0,.38,0,.38-.38V14.6c0-.32,0-.4.4-.4h15a22.853,22.853,0,0,1,3.24.36,19.549,19.549,0,0,1,6.26,2.32,17.641,17.641,0,0,1,3.519,2.72,19.272,19.272,0,0,1,2.14,2.66,16.041,16.041,0,0,1,1.562,3.06.521.521,0,0,0,.6.42h3.58c.459,0,.459,0,.48.441v3.28c0,.32-.12.4-.441.4H50.337c-.279,0-.36,0-.34.36a20.431,20.431,0,0,1,0,3.659c0,.34,0,.38.382.38h3.158c.14.18,0,.36,0,.541a4.039,4.039,0,0,1,0,.7v2.421c0,.34-.1.441-.4.441h-3.78a.5.5,0,0,0-.58.38,15.993,15.993,0,0,1-4.2,6.12,24.089,24.089,0,0,1-2.14,1.719c-.8.461-1.58.94-2.4,1.32a21.624,21.624,0,0,1-4.72,1.5,24.609,24.609,0,0,1-4.68.38H16.755v-.02Z" fill="#fefefd"/>
      </g>
    </g>
    <g id="Group_9085" data-name="Group 9085" transform="translate(-147 534)">
      <circle id="Ellipse_830" data-name="Ellipse 830" cx="32" cy="32" r="32" transform="translate(-24033 -9469)" fill="#fff"/>
      <g id="Mask_Group_97" data-name="Mask Group 97" transform="translate(456 1751.874)" clip-path="url(#clip-path-2)">
        <g id="polygon-matic-logo" transform="translate(-24476.975 -11206.542)">
          <path id="Path_9616" data-name="Path 9616" d="M30.434,10.808a2.646,2.646,0,0,0-2.519,0l-5.877,3.5-3.988,2.23-5.772,3.5a2.646,2.646,0,0,1-2.519,0L5.247,17.286a2.594,2.594,0,0,1-1.259-2.23V9.746a2.626,2.626,0,0,1,1.259-2.23L9.76,4.861a2.646,2.646,0,0,1,2.519,0l4.513,2.761a2.594,2.594,0,0,1,1.259,2.23v3.5l3.988-2.336V7.409a2.626,2.626,0,0,0-1.259-2.23L12.383.188a2.646,2.646,0,0,0-2.519,0l-8.605,5.1A2.34,2.34,0,0,0,0,7.409v9.982a2.626,2.626,0,0,0,1.259,2.23l8.5,4.991a2.646,2.646,0,0,0,2.519,0l5.772-3.4,3.988-2.336,5.772-3.4a2.646,2.646,0,0,1,2.519,0l4.513,2.655a2.594,2.594,0,0,1,1.259,2.23v5.31a2.626,2.626,0,0,1-1.259,2.23L30.434,30.56a2.646,2.646,0,0,1-2.519,0L23.4,27.905a2.594,2.594,0,0,1-1.259-2.23v-3.4l-3.988,2.336v3.5a2.626,2.626,0,0,0,1.259,2.23l8.5,4.991a2.646,2.646,0,0,0,2.519,0l8.5-4.991a2.594,2.594,0,0,0,1.259-2.23V18.029a2.626,2.626,0,0,0-1.259-2.23Z" transform="translate(0 0.131)" fill="#8247e5"/>
        </g>
      </g>
    </g>
  </g>
</svg>
