<svg xmlns="http://www.w3.org/2000/svg" xmlns:xlink="http://www.w3.org/1999/xlink" width="114" height="64" viewBox="0 0 114 64">
  <defs>
    <style>
      .cls-1 {
        fill: #fff;
      }

      .cls-2 {
        clip-path: url(#clip-path);
      }

      .cls-11, .cls-13, .cls-17, .cls-23, .cls-3, .cls-9 {
        fill: none;
        stroke-miterlimit: 22.926;
      }

      .cls-17, .cls-23, .cls-3, .cls-9 {
        stroke: #282829;
      }

      .cls-3 {
        stroke-width: 3.825px;
      }

      .cls-10, .cls-11, .cls-12, .cls-13, .cls-14, .cls-15, .cls-17, .cls-18, .cls-19, .cls-20, .cls-21, .cls-22, .cls-23, .cls-3, .cls-4, .cls-5, .cls-6, .cls-7, .cls-8, .cls-9 {
        fill-rule: evenodd;
      }

      .cls-4 {
        fill: #6b809b;
      }

      .cls-5 {
        fill: #565c83;
      }

      .cls-6 {
        fill: #99bccc;
      }

      .cls-7 {
        fill: #536d8f;
      }

      .cls-8 {
        fill: #7c94b4;
      }

      .cls-11, .cls-9 {
        stroke-width: 0.383px;
      }

      .cls-10 {
        fill: #fffbf2;
      }

      .cls-11 {
        stroke: #95585d;
      }

      .cls-12 {
        fill: #221f20;
      }

      .cls-13 {
        stroke: #808184;
      }

      .cls-13, .cls-17 {
        stroke-width: 0.191px;
      }

      .cls-14, .cls-16 {
        fill: #282829;
      }

      .cls-15 {
        fill: #fefefe;
      }

      .cls-18 {
        fill: #a3cbc8;
      }

      .cls-19 {
        fill: #f5f5f5;
      }

      .cls-20 {
        fill: #95585d;
      }

      .cls-21 {
        fill: #808184;
      }

      .cls-22 {
        fill: #c3c3c3;
      }

      .cls-23 {
        stroke-width: 1.592px;
      }

      .cls-24 {
        clip-path: url(#clip-path-2);
      }

      .cls-25 {
        fill: #2775ca;
      }
    </style>
    <clipPath id="clip-path">
      <circle id="Ellipse_1805" data-name="Ellipse 1805" class="cls-1" cx="32" cy="32" r="32" transform="translate(-21641 -24761)"/>
    </clipPath>
    <clipPath id="clip-path-2">
      <circle id="Ellipse_2532" data-name="Ellipse 2532" class="cls-1" cx="32" cy="32" r="32" transform="translate(-21805 -24913)"/>
    </clipPath>
  </defs>
  <g id="Group_13382" data-name="Group 13382" transform="translate(21641 24761)">
    <g id="Mask_Group_537" data-name="Mask Group 537" class="cls-2">
      <g id="Capa_x0020_1" transform="translate(-21645.117 -24765.172)">
        <g id="_1887493122992">
          <g id="Group_13164" data-name="Group 13164">
            <path id="Path_30851" data-name="Path 30851" class="cls-3" d="M36.117,6.085A30.087,30.087,0,1,0,66.2,36.172,30.087,30.087,0,0,0,36.117,6.085Z"/>
            <path id="_1" data-name="1" class="cls-4" d="M36.117,6.085A30.087,30.087,0,1,0,66.2,36.172,30.087,30.087,0,0,0,36.117,6.085Z"/>
          </g>
          <path id="Path_30852" data-name="Path 30852" class="cls-5" d="M17.449,59.769,7.308,44.446,34.239,57.859,25.549,7.993,62.6,50.6,50.9,10.132Z"/>
          <path id="Path_30853" data-name="Path 30853" class="cls-6" d="M66.086,38.531,6.157,33.389,53.8,60.518,35.982,59.7l.851-53.237L13.946,32.167l.5-16.869Z"/>
          <path id="Path_30854" data-name="Path 30854" class="cls-7" d="M7.765,26.079l32.453.5,2.953,38.846,5.022-56.5,7.924,49.745Z"/>
          <path id="Path_30855" data-name="Path 30855" class="cls-8" d="M53.435,45.08l6.487-26.786L29.44,38.346,17.052,13.066Z"/>
          <g id="Group_13165" data-name="Group 13165">
            <path id="Path_30856" data-name="Path 30856" class="cls-9" d="M54.284,50.678c-.893,2.614-1.773,5.6-2.666,8.213a26.286,26.286,0,0,0,7.161-8.272C58.07,50.1,56.317,50.314,54.284,50.678Z"/>
            <path id="_1-2" data-name="1" class="cls-10" d="M54.284,50.678c-.893,2.614-1.773,5.6-2.666,8.213a26.286,26.286,0,0,0,7.161-8.272C58.07,50.1,56.317,50.314,54.284,50.678Z"/>
          </g>
          <g id="Group_13166" data-name="Group 13166">
            <path id="Path_30857" data-name="Path 30857" class="cls-9" d="M24.781,47.474a35.108,35.108,0,0,0,1.151-4.625c.518-1.871,1.854-2.234,4.635-5.321A73.333,73.333,0,0,1,29.8,49.865l-5.021-2.391Z"/>
            <path id="_1-3" data-name="1" class="cls-10" d="M24.781,47.474a35.108,35.108,0,0,0,1.151-4.625c.518-1.871,1.854-2.234,4.635-5.321A73.333,73.333,0,0,1,29.8,49.865l-5.021-2.391Z"/>
          </g>
          <g id="Group_13167" data-name="Group 13167">
            <path id="Path_30858" data-name="Path 30858" class="cls-11" d="M30.687,29.806c1.246,3.662.905,4.255.81,7.79.781.459,5.458.814,5.406-1.024-.035-.9-.44-1.558-.475-2.463-.045-1.167.281-2.586.236-3.753C34.464,29.957,32.886,30.2,30.687,29.806Z"/>
            <path id="_1-4" data-name="1" class="cls-10" d="M30.687,29.806c1.246,3.662.905,4.255.81,7.79.781.459,5.458.814,5.406-1.024-.035-.9-.44-1.558-.475-2.463-.045-1.167.281-2.586.236-3.753C34.464,29.957,32.886,30.2,30.687,29.806Z"/>
          </g>
          <g id="Group_13168" data-name="Group 13168">
            <path id="Path_30859" data-name="Path 30859" class="cls-9" d="M36.69,32.7c.39-.015.685-.441,1.125-1.176a9.137,9.137,0,0,0,1-1.9,9.848,9.848,0,0,0,.676-3.866,14.128,14.128,0,0,0-1.4-6.883c-2.732.02-5.226-.049-7.026,1.308-2.135,1.61-3.187,4.9-.99,8.2,2.132,3.2,4.587,4.394,6.608,4.314Z"/>
            <path id="_1-5" data-name="1" class="cls-10" d="M36.69,32.7c.39-.015.685-.441,1.125-1.176a9.137,9.137,0,0,0,1-1.9,9.848,9.848,0,0,0,.676-3.866,14.128,14.128,0,0,0-1.4-6.883c-2.732.02-5.226-.049-7.026,1.308-2.135,1.61-3.187,4.9-.99,8.2,2.132,3.2,4.587,4.394,6.608,4.314Z"/>
          </g>
          <g id="Group_13169" data-name="Group 13169">
            <path id="Path_30860" data-name="Path 30860" class="cls-9" d="M29.89,38.134c.461,5.142-.2,8.752-2.23,12.173.845,1.546,1.69,2.471,2.534,4.017,1.247.964,2.351.924,3.706,1.052,4.375,1.763,7.54,4.293,11.595,6.923,2.231-1.371,5.085-2.875,7.317-4.245,1.25-2.567,2.106-4.456,1.473-7.375a8.986,8.986,0,0,1-5.575-1.113c-2.677-1.542-4.362-3.527-7.039-5.069a13.283,13.283,0,0,1-2.3-8.487c-.548.046-2.511.163-2.6.239a4.444,4.444,0,0,1-5.256.661,4.174,4.174,0,0,0-1.63,1.224Z"/>
            <path id="_1-6" data-name="1" class="cls-12" d="M29.89,38.134c.461,5.142-.2,8.752-2.23,12.173.845,1.546,1.69,2.471,2.534,4.017,1.247.964,2.351.924,3.706,1.052,4.375,1.763,7.54,4.293,11.595,6.923,2.231-1.371,5.085-2.875,7.317-4.245,1.25-2.567,2.106-4.456,1.473-7.375a8.986,8.986,0,0,1-5.575-1.113c-2.677-1.542-4.362-3.527-7.039-5.069a13.283,13.283,0,0,1-2.3-8.487c-.548.046-2.511.163-2.6.239a4.444,4.444,0,0,1-5.256.661,4.174,4.174,0,0,0-1.63,1.224Z"/>
          </g>
          <g id="Group_13170" data-name="Group 13170">
            <path id="Path_30861" data-name="Path 30861" class="cls-13" d="M31.513,37.086c1.126,3.706,2.452,5.527,3.024,5.49.281-.018,1.552-1.8,1.731-5.931"/>
          </g>
          <g id="Group_13171" data-name="Group 13171">
            <path id="Path_30862" data-name="Path 30862" class="cls-9" d="M35.955,19.955c-1.969-1.1-3.485.726-4.589,2.377-.75,1.122-.859,3.828.213,5.023a1.458,1.458,0,0,1-1.052-1.363c-.425,3.19,1.294,4.855,3.084,3.526a1.711,1.711,0,0,1-2.646.555c.861,2.076.735,4.816.556,6.761-2.036,2.655-2.9.922-3.995-1.483.092,2.308.627,3.639,2.25,3.023a1.069,1.069,0,0,1-1.048,1.036c-3.108-.586-2.74-5.948-2.577-8.219a3.746,3.746,0,0,1-2.917,2.391c1.974-.909,3.876-5.035,2.358-9.993-.512-1.673,3.83-8.348,8.521-7.927,5.138-2.945,6.522,4.3,13.221,4.77-2.024.119-3.5.218-5.523-1.339,1.552,2.412,1.671,4.856,4.471,5.977,4.986,2.432,5.683,1.695,6.982,4.513.244.529-.241,1.506.143,2.3a1.44,1.44,0,0,0,.908.5,1.37,1.37,0,0,1-1.424-.91,5.213,5.213,0,0,0-1.946-3.021c-1.72-1.376-4.412-1.513-6.48-2.573a7.065,7.065,0,0,0,2.292,1.494,25.008,25.008,0,0,1,3.3,1.492c2.548,1.717,4.265,4.3,2.632,7.438.582-3.4-1.446-5.153-2.989-6.168,1.627,1.654,3.02,4.116,2.128,6.216.227-3.167-.96-3.789-2.869-4.829,1.212,1.962,2.594,4.39,2.714,6.8,3.321,3.155,4.36-.84,6.8-2.5.87-.593,2.527-.807,3.043-.046a1.626,1.626,0,0,0-2.226.38c-2.227,3.365-7.655,10.477-11.175,3.446.835,2.874,1.028,5.308,3.108,5.292,1.044-.008,2.227-1.94,3.516-2.081.49-.054,1.114.047,1.924,1.045-4.679-3.378-2,9.658-11.141-1.817-1.482-2.329-5.332-7.186-5.625-6-.149.6-1.033,1.067-1.033,1.067-3.261.866-3.272-2.133-2.389-4.148a.971.971,0,0,0,.63-.32c.169-.262.415-.676.659-1.028a10.5,10.5,0,0,0,1.463-3.325,12.2,12.2,0,0,0,.266-3.744c-.381-1.037-1.814-6.437-3.534-4.593Z"/>
            <path id="_1-7" data-name="1" class="cls-14" d="M35.955,19.955c-1.969-1.1-3.485.726-4.589,2.377-.75,1.122-.859,3.828.213,5.023a1.458,1.458,0,0,1-1.052-1.363c-.425,3.19,1.294,4.855,3.084,3.526a1.711,1.711,0,0,1-2.646.555c.861,2.076.735,4.816.556,6.761-2.036,2.655-2.9.922-3.995-1.483.092,2.308.627,3.639,2.25,3.023a1.069,1.069,0,0,1-1.048,1.036c-3.108-.586-2.74-5.948-2.577-8.219a3.746,3.746,0,0,1-2.917,2.391c1.974-.909,3.876-5.035,2.358-9.993-.512-1.673,3.83-8.348,8.521-7.927,5.138-2.945,6.522,4.3,13.221,4.77-2.024.119-3.5.218-5.523-1.339,1.552,2.412,1.671,4.856,4.471,5.977,4.986,2.432,5.683,1.695,6.982,4.513.244.529-.241,1.506.143,2.3a1.44,1.44,0,0,0,.908.5,1.37,1.37,0,0,1-1.424-.91,5.213,5.213,0,0,0-1.946-3.021c-1.72-1.376-4.412-1.513-6.48-2.573a7.065,7.065,0,0,0,2.292,1.494,25.008,25.008,0,0,1,3.3,1.492c2.548,1.717,4.265,4.3,2.632,7.438.582-3.4-1.446-5.153-2.989-6.168,1.627,1.654,3.02,4.116,2.128,6.216.227-3.167-.96-3.789-2.869-4.829,1.212,1.962,2.594,4.39,2.714,6.8,3.321,3.155,4.36-.84,6.8-2.5.87-.593,2.527-.807,3.043-.046a1.626,1.626,0,0,0-2.226.38c-2.227,3.365-7.655,10.477-11.175,3.446.835,2.874,1.028,5.308,3.108,5.292,1.044-.008,2.227-1.94,3.516-2.081.49-.054,1.114.047,1.924,1.045-4.679-3.378-2,9.658-11.141-1.817-1.482-2.329-5.332-7.186-5.625-6-.149.6-1.033,1.067-1.033,1.067-3.261.866-3.272-2.133-2.389-4.148a.971.971,0,0,0,.63-.32c.169-.262.415-.676.659-1.028a10.5,10.5,0,0,0,1.463-3.325,12.2,12.2,0,0,0,.266-3.744c-.381-1.037-1.814-6.437-3.534-4.593Z"/>
          </g>
          <g id="Group_13172" data-name="Group 13172">
            <path id="Path_30863" data-name="Path 30863" class="cls-9" d="M34.962,25.915a3.343,3.343,0,0,0-3.253-1.182C33.09,26.393,32.939,25.9,34.962,25.915Z"/>
            <path id="_1-8" data-name="1" class="cls-15" d="M34.962,25.915a3.343,3.343,0,0,0-3.253-1.182C33.09,26.393,32.939,25.9,34.962,25.915Z"/>
          </g>
          <g id="Group_13173" data-name="Group 13173">
            <path id="Path_30864" data-name="Path 30864" class="cls-16" d="M39.137,24.987l.162.223L39.23,25.2l-.066-.006-.062,0h-.059l-.057,0-.054,0-.051.006-.049.008-.047.011-.046.013-.044.015-.043.017-.042.019-.041.021-.041.024-.04.026-.04.029-.04.031-.04.034-.04.036-.041.039-.041.042-.041.044-.042.047-.042.05-.043.052-.044.055-.045.058-.046.06L37.9,26l-.048.065-.049.067-.31-.225.05-.069.049-.067.049-.065.048-.063.047-.061.047-.059.047-.057.047-.055.047-.053.048-.051.048-.049.049-.047.05-.045.051-.043.052-.04.053-.038.055-.036.056-.033.058-.03.06-.027.061-.024.063-.021.065-.018.066-.015.068-.012.07-.008.071-.005.073,0h.075l.077,0,.079.007.081.01.162.223-.377-.067Zm.215-.156.2.027-.035.2Zm-1.553,1.3-.157-.3h.115l.109,0,.1,0,.1,0,.092.005.086.006.08.006.075.005.069,0,.064,0h.11l.046,0,.04,0,.034-.006.029-.008.024-.009.021-.011.019-.013.019-.016.019-.021.02-.027.021-.035.022-.043.022-.052L39,25.558l.022-.07.022-.08.022-.09.022-.1.022-.11.022-.121.377.067-.023.126-.023.117-.024.108-.025.1-.026.092-.027.085-.029.079-.032.073-.035.067-.038.062-.043.057-.048.051-.053.045-.057.038-.06.031-.062.023-.063.017-.064.011-.064.007-.065,0h-.067l-.068,0-.07,0-.073,0-.076-.005-.08-.006-.084-.005-.088-.005-.093,0-.1,0-.1,0h-.108l-.157-.3.31.225Zm-.152.079-.381,0,.224-.308Z"/>
            <path id="_1-9" data-name="1" class="cls-15" d="M37.644,26.016c.536-.738.867-1.109,1.681-1C39.082,26.39,38.864,26,37.644,26.016Z"/>
          </g>
          <path id="Path_30865" data-name="Path 30865" class="cls-14" d="M35.157,24.127c0-1.184-1.679-1.251-2.636-1.177A5.564,5.564,0,0,1,35.157,24.127Z"/>
          <g id="Group_13174" data-name="Group 13174">
            <path id="Path_30866" data-name="Path 30866" class="cls-17" d="M35.067,25.1a2.6,2.6,0,0,0-1.494-1.064"/>
          </g>
          <path id="Path_30867" data-name="Path 30867" class="cls-14" d="M37.8,24.274c0-.8.991-.784,1.555-.7A2.961,2.961,0,0,0,37.8,24.274Z"/>
          <g id="Group_13175" data-name="Group 13175">
            <path id="Path_30868" data-name="Path 30868" class="cls-17" d="M37.912,25.051A1.052,1.052,0,0,1,39,24.46"/>
          </g>
          <path id="Path_30869" data-name="Path 30869" class="cls-14" d="M33.5,24.869A2.727,2.727,0,0,1,32.862,24a2.955,2.955,0,0,0,.168.738Z"/>
          <path id="Path_30870" data-name="Path 30870" class="cls-14" d="M32.883,24.674a2.726,2.726,0,0,1-.784-.744,2.954,2.954,0,0,0,.3.7Z"/>
          <path id="Path_30871" data-name="Path 30871" class="cls-14" d="M32.238,24.67a2.8,2.8,0,0,1-.92-.579,2.955,2.955,0,0,0,.4.643c.163-.008.358-.056.521-.064Z"/>
          <path id="Path_30872" data-name="Path 30872" class="cls-14" d="M38.259,25.34a2.482,2.482,0,0,0,.391-.816,2.508,2.508,0,0,1-.078.6A1.8,1.8,0,0,0,38.259,25.34Z"/>
          <g id="Group_13176" data-name="Group 13176">
            <path id="Path_30873" data-name="Path 30873" class="cls-9" d="M39.174,35.395c-.594,3.193,1.216,11.093,4.208,10.119.622,2.646,1.7,5.579,1.769,8.392-3.817.665-7.011,2.326-10.565,3.2-.863.212-1.812-.211-2.681.029l.383,2.2c1.647.093,3.273-.439,4.851-.342,5.362.33,9.271-.355,12.746-2.766.37-.13.475-1.015.427-1.52A23.273,23.273,0,0,0,49.2,50.76c-.628-2.233-1.873-5.274-2.157-7.05-1.107-6.93-3.457-12.872-7.868-8.315Z"/>
            <path id="_1-10" data-name="1" class="cls-10" d="M39.174,35.395c-.594,3.193,1.216,11.093,4.208,10.119.622,2.646,1.7,5.579,1.769,8.392-3.817.665-7.011,2.326-10.565,3.2-.863.212-1.812-.211-2.681.029l.383,2.2c1.647.093,3.273-.439,4.851-.342,5.362.33,9.271-.355,12.746-2.766.37-.13.475-1.015.427-1.52A23.273,23.273,0,0,0,49.2,50.76c-.628-2.233-1.873-5.274-2.157-7.05-1.107-6.93-3.457-12.872-7.868-8.315Z"/>
          </g>
          <path id="Path_30874" data-name="Path 30874" class="cls-14" d="M38.678,25.063a2.171,2.171,0,0,0,.536-.65,2.486,2.486,0,0,1-.178.574Z"/>
          <path id="Path_30875" data-name="Path 30875" class="cls-14" d="M39.158,25.011a2.15,2.15,0,0,0,.649-.53,2.637,2.637,0,0,1-.246.57C39.439,25.057,39.28,25,39.158,25.011Z"/>
          <g id="Group_13177" data-name="Group 13177">
            <path id="Path_30876" data-name="Path 30876" class="cls-9" d="M32.361,24.667c-.252,1.464,1.505,1.24,1.206.228A2.887,2.887,0,0,0,32.361,24.667Z"/>
            <path id="_1-11" data-name="1" class="cls-18" d="M32.361,24.667c-.252,1.464,1.505,1.24,1.206.228A2.887,2.887,0,0,0,32.361,24.667Z"/>
          </g>
          <g id="Group_13178" data-name="Group 13178">
            <path id="Path_30877" data-name="Path 30877" class="cls-9" d="M38.86,25.048c.166,1.259-1.011,1.047-.8.479A1.719,1.719,0,0,1,38.86,25.048Z"/>
            <path id="_1-12" data-name="1" class="cls-18" d="M38.86,25.048c.166,1.259-1.011,1.047-.8.479A1.719,1.719,0,0,1,38.86,25.048Z"/>
          </g>
          <path id="Path_30878" data-name="Path 30878" class="cls-14" d="M31.825,24.871c-.007.483-.282,1.19-.3,1.69s.679,1.1.965.308c-.809.74-1.083-.437.072-1.21A5.715,5.715,0,0,1,31.825,24.871Z"/>
          <g id="Group_13179" data-name="Group 13179">
            <path id="Path_30879" data-name="Path 30879" class="cls-9" d="M17.865,57.33c1.4-1.711.546-2.129.7-3.251a5.382,5.382,0,0,1,3.89-4.817,6.536,6.536,0,0,1,8.01,3.476c.257.661-.4,3.456-.7,4.305-6.795,4.06-5.867,4.826-11.895.287Z"/>
            <path id="_1-13" data-name="1" class="cls-19" d="M17.865,57.33c1.4-1.711.546-2.129.7-3.251a5.382,5.382,0,0,1,3.89-4.817,6.536,6.536,0,0,1,8.01,3.476c.257.661-.4,3.456-.7,4.305-6.795,4.06-5.867,4.826-11.895.287Z"/>
          </g>
          <g id="Group_13180" data-name="Group 13180">
            <path id="Path_30880" data-name="Path 30880" class="cls-17" d="M37.568,28.575a.532.532,0,0,0,.167-.669"/>
          </g>
          <g id="Group_13181" data-name="Group 13181">
            <path id="Path_30881" data-name="Path 30881" class="cls-17" d="M36.319,28.36a.7.7,0,0,1,.433.182"/>
          </g>
          <g id="Group_13182" data-name="Group 13182">
            <path id="Path_30882" data-name="Path 30882" class="cls-9" d="M35.608,29.895c.557-.226.65-.418,1.178-.176.547-.172.43-.249.747.2a4.687,4.687,0,0,1-1.925-.027Z"/>
            <path id="_1-14" data-name="1" class="cls-14" d="M35.608,29.895c.557-.226.65-.418,1.178-.176.547-.172.43-.249.747.2a4.687,4.687,0,0,1-1.925-.027Z"/>
          </g>
          <g id="Group_13183" data-name="Group 13183">
            <path id="Path_30883" data-name="Path 30883" class="cls-9" d="M35.5,30.162c.2.246.193.329.336.479.525.549,1.2.471,1.672-.471a7.749,7.749,0,0,1-2.007-.009Z"/>
            <path id="_1-15" data-name="1" class="cls-20" d="M35.5,30.162c.2.246.193.329.336.479.525.549,1.2.471,1.672-.471a7.749,7.749,0,0,1-2.007-.009Z"/>
          </g>
          <g id="Group_13184" data-name="Group 13184">
            <path id="Path_30884" data-name="Path 30884" class="cls-17" d="M34.771,29.932a8.591,8.591,0,0,0,3.114.078"/>
          </g>
          <g id="Group_13185" data-name="Group 13185">
            <path id="Path_30885" data-name="Path 30885" class="cls-17" d="M36.353,31.449a.7.7,0,0,0,.47-.022"/>
          </g>
          <g id="Group_13186" data-name="Group 13186">
            <path id="Path_30886" data-name="Path 30886" class="cls-9" d="M33.973,48.628c-.19,2.053-.872,3.582-.506,4.408.22.5,2.434.088,2.557-.181.372-.816-.392-2.3-.856-4.346a3.3,3.3,0,0,0,1.649.456c.258-.041.4-1.695.11-1.792a3.426,3.426,0,0,0-1.591.068c1.786-2.877.484-4.377-.811-4.263-1.272.113-2.538,1.792-.862,4.334a6.827,6.827,0,0,0-1.976.188,4.276,4.276,0,0,0,.461,1.713c.415.147.973-.232,1.826-.587Z"/>
            <path id="_1-16" data-name="1" class="cls-21" d="M33.973,48.628c-.19,2.053-.872,3.582-.506,4.408.22.5,2.434.088,2.557-.181.372-.816-.392-2.3-.856-4.346a3.3,3.3,0,0,0,1.649.456c.258-.041.4-1.695.11-1.792a3.426,3.426,0,0,0-1.591.068c1.786-2.877.484-4.377-.811-4.263-1.272.113-2.538,1.792-.862,4.334a6.827,6.827,0,0,0-1.976.188,4.276,4.276,0,0,0,.461,1.713c.415.147.973-.232,1.826-.587Z"/>
          </g>
          <g id="Group_13187" data-name="Group 13187">
            <path id="Path_30887" data-name="Path 30887" class="cls-16" d="M35.708,45.361h-.381v-.075l0-.074-.006-.073-.008-.072L35.3,45l-.012-.069-.014-.067-.016-.065-.017-.064-.019-.062-.021-.06-.022-.057-.024-.055-.025-.053-.026-.05-.027-.048-.028-.045-.029-.042-.03-.04-.031-.037-.031-.034-.032-.031-.032-.027-.032-.024-.032-.021-.032-.018-.032-.015L34.7,44l-.032-.01-.032-.007-.032,0h-.033V43.6l.065,0,.064.008.062.013.061.018.059.023.058.027.055.031.053.035.051.039.049.042.047.045.045.048.043.051.041.054.039.056.037.059.035.062.033.064.031.066.029.068.027.07.025.072.023.074.021.076.018.077.016.079.014.081.011.082.009.083.006.085,0,.086v.087h0Zm-1.136,1.765v-.383h.033l.032,0,.032-.007.032-.01.032-.012.032-.015.032-.018.032-.021.032-.024L34.9,46.6l.032-.031.031-.034.031-.037.03-.04.029-.042.028-.045.027-.048.026-.05.025-.053.024-.055.022-.057.021-.06.019-.062.017-.064.016-.065.014-.067.012-.069.01-.07.008-.072.006-.073,0-.074v-.075h.381v.087l0,.086-.006.085-.009.083-.011.082-.014.081-.016.079-.018.077-.021.076-.023.074-.025.072-.027.07-.029.068-.031.066-.033.064-.035.062-.037.059-.039.056-.041.054-.043.051-.045.048-.047.045-.049.042-.051.039L35,47l-.055.031-.058.027-.059.023-.061.018-.062.013-.064.008-.065,0h0Zm-1.136-1.765h.381v.075l0,.074.006.073.008.072.01.07.012.069.014.067.016.065.017.064.019.062.021.06.022.057.024.055.025.053.026.05.027.048.028.045.029.042.03.04.031.037.031.034.032.031.032.027.032.024.032.021.032.018.032.015.032.012.032.01.032.007.032,0h.033v.383l-.065,0-.064-.008-.062-.013-.061-.018-.059-.023-.057-.027L34.149,47l-.053-.035-.051-.039-.049-.042-.047-.045-.045-.048-.043-.051-.041-.054-.039-.056-.037-.059-.035-.062-.033-.064-.031-.066-.029-.068-.027-.07-.025-.072-.023-.074-.021-.076-.018-.077-.016-.079-.014-.081-.011-.082-.009-.083-.006-.085,0-.086v-.087h0ZM34.572,43.6v.383H34.54l-.032,0-.032.007-.032.01-.032.012-.032.015-.032.018-.032.021-.032.024-.032.027-.032.031-.031.034-.031.037-.03.04L34.1,44.3l-.028.045-.027.048-.026.05-.025.053-.024.055-.022.057-.021.06-.019.062-.017.064-.016.065-.014.067L33.845,45l-.01.07-.008.072-.006.073,0,.074v.075h-.381v-.087l0-.086.006-.085.009-.083.011-.082.014-.081.016-.079.018-.077.021-.076.023-.074.025-.072.027-.07.029-.068.031-.066.033-.064.035-.062.037-.059.039-.056.041-.054.043-.051.045-.048.047-.045.049-.042.051-.039.053-.035.055-.031.057-.027.059-.023.061-.018.062-.013.064-.008.065,0h0Z"/>
            <path id="_1-17" data-name="1" class="cls-12" d="M34.572,43.787c.522,0,.945.7.945,1.574s-.423,1.574-.945,1.574-.945-.7-.945-1.574S34.05,43.787,34.572,43.787Z"/>
          </g>
          <g id="Group_13188" data-name="Group 13188">
            <path id="Path_30888" data-name="Path 30888" class="cls-17" d="M34.543,42.461a.2.2,0,1,1-.2.2A.2.2,0,0,1,34.543,42.461Z"/>
            <path id="_1-18" data-name="1" class="cls-21" d="M34.543,42.461a.2.2,0,1,1-.2.2A.2.2,0,0,1,34.543,42.461Z"/>
          </g>
          <g id="Group_13189" data-name="Group 13189">
            <path id="Path_30889" data-name="Path 30889" class="cls-9" d="M20.733,49.879a10.694,10.694,0,0,1,1.13-2.694c.222-.229.655.015,1.138-.01.345-.3.489-.7.71-.765.313-.1.706.248,1.376.645a3.84,3.84,0,0,1,1.18-.162,1.22,1.22,0,0,1,.721.429c.151.144.329.291.329.291a17.361,17.361,0,0,0,3.145,1.331c-.106.443-.364.617-.789.5-.534,1.332-1.992-.162-3.939-.932.1.638.392,1.586.5,2.223-.375.321-1.09.033-1.464-.538-.771-.336-.756-.546-1.273-1.152A8.439,8.439,0,0,0,20.733,49.879Z"/>
            <path id="_1-19" data-name="1" class="cls-12" d="M20.733,49.879a10.694,10.694,0,0,1,1.13-2.694c.222-.229.655.015,1.138-.01.345-.3.489-.7.71-.765.313-.1.706.248,1.376.645a3.84,3.84,0,0,1,1.18-.162,1.22,1.22,0,0,1,.721.429c.151.144.329.291.329.291a17.361,17.361,0,0,0,3.145,1.331c-.106.443-.364.617-.789.5-.534,1.332-1.992-.162-3.939-.932.1.638.392,1.586.5,2.223-.375.321-1.09.033-1.464-.538-.771-.336-.756-.546-1.273-1.152A8.439,8.439,0,0,0,20.733,49.879Z"/>
          </g>
          <g id="Group_13190" data-name="Group 13190">
            <path id="Path_30890" data-name="Path 30890" class="cls-9" d="M34.2,60.684a5.64,5.64,0,0,0,.189-2.135l-1.14-.413c.454-.088.664-.156,1.118-.244a7.425,7.425,0,0,0-.646-1.686c-.646.311-1.518.652-2.265.926-4.654-2.113-3.265-.014-6.277,1.752a12.068,12.068,0,0,1-2.252.819c-.547.365-.4.192-.243.652.391.1.928.559,1.319.663.717.4,1.506.745,2.224,1.143l4.136-2.291c1.331.391,2.506.422,3.837.813Z"/>
            <path id="_1-20" data-name="1" class="cls-12" d="M34.2,60.684a5.64,5.64,0,0,0,.189-2.135l-1.14-.413c.454-.088.664-.156,1.118-.244a7.425,7.425,0,0,0-.646-1.686c-.646.311-1.518.652-2.265.926-4.654-2.113-3.265-.014-6.277,1.752a12.068,12.068,0,0,1-2.252.819c-.547.365-.4.192-.243.652.391.1.928.559,1.319.663.717.4,1.506.745,2.224,1.143l4.136-2.291c1.331.391,2.506.422,3.837.813Z"/>
          </g>
          <g id="Group_13191" data-name="Group 13191">
            <path id="Path_30891" data-name="Path 30891" class="cls-17" d="M35.955,19.955c1.427,1.1.515,5.035,1.841,7.1.607.761,1.114.924,1.554.673"/>
          </g>
          <g id="Group_13192" data-name="Group 13192">
            <path id="Path_30892" data-name="Path 30892" class="cls-17" d="M37.8,27.057c-1.948.153-1.914-2.3-1.461-5.532a2.364,2.364,0,0,0-.38-1.57"/>
          </g>
          <g id="Group_13193" data-name="Group 13193">
            <path id="Path_30893" data-name="Path 30893" class="cls-17" d="M35.618,19.793c-2.419,3-1.453,4.163-4.878,5.073"/>
          </g>
          <g id="Group_13194" data-name="Group 13194">
            <path id="Path_30894" data-name="Path 30894" class="cls-17" d="M36.825,36.98c.658,2.939,2.322,3.921,2.1.1"/>
          </g>
          <g id="Group_13195" data-name="Group 13195">
            <path id="Path_30895" data-name="Path 30895" class="cls-17" d="M35.991,35.045c-.236,2.217.187,5.335,2.468,2.157"/>
          </g>
          <g id="Group_13196" data-name="Group 13196">
            <path id="Path_30896" data-name="Path 30896" class="cls-17" d="M29.25,38.039c.3,2.545,1.509,3.313,1.84,2.782s.223-2.346.461-3.894"/>
          </g>
          <g id="Group_13197" data-name="Group 13197">
            <path id="Path_30897" data-name="Path 30897" class="cls-17" d="M30.092,38.1c.689,1.516.637,2.531,1.367,2.409.633-.106.29-1.617.091-3.584"/>
          </g>
          <g id="Group_13198" data-name="Group 13198">
            <path id="Path_30898" data-name="Path 30898" class="cls-17" d="M26.049,33.743c-.368,4.611-.3,8.853,2.681,5.668"/>
          </g>
          <g id="Group_13199" data-name="Group 13199">
            <path id="Path_30899" data-name="Path 30899" class="cls-17" d="M55.862,45.614c-.187-1.695-1.295-2.329-2.256-1.506"/>
          </g>
          <g id="Group_13200" data-name="Group 13200">
            <path id="Path_30900" data-name="Path 30900" class="cls-17" d="M56.275,26.618C54.1,24.9,52.812,25.241,49,25.817A4.592,4.592,0,0,1,46.54,25.2"/>
          </g>
          <g id="Group_13201" data-name="Group 13201">
            <path id="Path_30901" data-name="Path 30901" class="cls-17" d="M25.727,22.126c-1.032,3.471-3.342,5.541-5.2,2.651"/>
          </g>
          <g id="Group_13202" data-name="Group 13202">
            <path id="Path_30902" data-name="Path 30902" class="cls-17" d="M24.65,50.251a.8.8,0,0,0,.825-.034,4.632,4.632,0,0,1-.9-1.4c-.879-1.439-.588-1.9-1.632-1.744"/>
          </g>
          <g id="Group_13203" data-name="Group 13203">
            <path id="Path_30903" data-name="Path 30903" class="cls-17" d="M25.864,48.694c-.138-.782-.115-1.388-.777-1.754"/>
          </g>
          <g id="Group_13204" data-name="Group 13204">
            <path id="Path_30904" data-name="Path 30904" class="cls-17" d="M29.7,49.566a9.532,9.532,0,0,1-2.505-2.194"/>
          </g>
          <g id="Group_13205" data-name="Group 13205">
            <path id="Path_30905" data-name="Path 30905" class="cls-17" d="M23.521,49.242a2.413,2.413,0,0,0-.514-.821"/>
          </g>
          <g id="Group_13206" data-name="Group 13206">
            <path id="Path_30906" data-name="Path 30906" class="cls-9" d="M23.412,56.574c1.644,1.4,3.089.829,3.431-.9C26.35,52.919,23.926,53.59,23.412,56.574Z"/>
            <path id="_1-21" data-name="1" class="cls-22" d="M23.412,56.574c1.644,1.4,3.089.829,3.431-.9C26.35,52.919,23.926,53.59,23.412,56.574Z"/>
          </g>
          <g id="Group_13207" data-name="Group 13207">
            <path id="Path_30907" data-name="Path 30907" class="cls-9" d="M24.075,57.01c1.046.721,2.425.393,2.767-1.333C26.685,53.684,24.59,54.026,24.075,57.01Z"/>
            <path id="_1-22" data-name="1" class="cls-14" d="M24.075,57.01c1.046.721,2.425.393,2.767-1.333C26.685,53.684,24.59,54.026,24.075,57.01Z"/>
          </g>
          <g id="Group_13208" data-name="Group 13208">
            <path id="Path_30908" data-name="Path 30908" class="cls-16" d="M20.668,56.416l.136.357h0l-.029.011-.03.011-.032.012-.034.012-.036.011-.038.011-.039.01-.041.009-.043.008-.045.007-.046.006-.048,0-.049,0h-.051l-.052,0-.054,0-.055-.007-.057-.01-.058-.013-.059-.016-.06-.019-.062-.023-.063-.026-.064-.03L19.6,56.7l-.066-.037-.068-.041-.069-.045-.07-.049-.072-.053-.073-.058-.074-.062.249-.29.067.056.065.051.062.046.06.042.058.038.056.034.054.03.052.027.05.023.048.02.047.017.045.014.043.012.041.009.04.007.038.005.037,0,.036,0h.068l.032,0,.032,0,.031,0,.03-.006.029-.007.029-.008.028-.008.028-.009.027-.009.027-.01.027-.01.027-.01h0Zm.35-1.251.377-.067,0,.02,0,.074,0,.073v.212l0,.068,0,.067-.006.066-.007.065-.009.064-.01.062-.011.061-.013.059-.014.058-.016.056-.017.055-.018.053-.02.052-.021.05-.023.048-.024.046-.026.045-.027.043-.029.041-.031.039-.033.037-.035.034-.037.032-.039.029-.041.026-.043.023-.045.019-.136-.357.015-.007L20.7,56.4l.016-.01.017-.013.017-.015.017-.017.018-.02L20.8,56.3l.018-.025.017-.027.017-.03.017-.032.016-.035.016-.037.015-.039.014-.041L20.944,56l.013-.045.011-.047.011-.049.01-.051L21,55.75,21,55.7l.006-.056.005-.057,0-.059,0-.06v-.188l0-.065,0-.066Zm.377-.067,0,.01v.01l0-.02Zm-2.042.97-.249.29-.056-.082L18.96,56l-.067-.261-.048-.248-.029-.235-.012-.222.005-.209.021-.2.037-.182.051-.168.065-.154.079-.14.091-.124.1-.109.113-.092.122-.074.129-.056.134-.037.138-.018h.14l.14.02.138.038.135.057.131.075.126.092.119.109.112.126.1.143.094.159.084.175.073.192.061.208.048.224-.377.067-.042-.2-.053-.18-.062-.163-.07-.146-.076-.129-.082-.113-.086-.1-.089-.082-.091-.067-.092-.052-.092-.039-.091-.025L20,53.862h-.088l-.085.011-.083.023-.08.035-.077.047-.073.06-.069.073-.063.087-.057.1-.049.116-.04.131-.03.147-.018.162,0,.178.01.193.026.208.043.224.062.239.081.254-.056-.082Zm-.249.29-.039-.033-.017-.048Z"/>
            <path id="_1-23" data-name="1" class="cls-22" d="M19.228,56.213c.761.654,1.218.492,1.508.382.325-.124.524-.715.471-1.464C20.789,52.8,18.217,53.329,19.228,56.213Z"/>
          </g>
          <g id="Group_13209" data-name="Group 13209">
            <path id="Path_30909" data-name="Path 30909" class="cls-16" d="M21.016,55.147l.381-.03v.007l0,.149v.141l0,.134-.008.127-.012.121-.017.114-.021.108-.026.1-.03.1-.035.09-.041.084-.046.078-.052.072-.057.065-.063.058-.068.05-.073.042-.077.034-.08.026-.082.018-.084.01-.086,0-.087,0-.089-.01-.091-.016-.092-.021-.094-.026-.1-.031-.1-.036-.1-.041-.1-.045-.1-.05.17-.343.095.046.091.041.088.036.085.031.081.027.077.022.073.017.069.012.064.007.06,0,.055,0,.051-.006.046-.01.043-.014.039-.017.036-.021.034-.025.033-.03.032-.036.03-.042.029-.049.027-.057.025-.064.023-.072.02-.08.017-.089.014-.1.011-.105.007-.113,0-.122v-.13l0-.138v.007Zm.381-.03v0Zm-1.739,1.1-.17.343-.106-.167V56.14l.009-.241.017-.227.025-.213.033-.2.04-.186.047-.173.054-.159.06-.146.065-.134.071-.121.076-.108.082-.1.087-.082.092-.068.1-.054.1-.038.105-.022.107,0,.105.014.1.032.1.048.089.063.081.076.074.089.066.1.058.111.051.122.043.132.035.143.026.154.018.164-.381.03L21,55.005l-.022-.129-.028-.117-.034-.1-.038-.092-.041-.079-.044-.067-.045-.054-.045-.042-.044-.031-.043-.021-.041-.013-.041-.006h-.042l-.044.009-.048.018-.051.028-.054.04-.056.053-.057.066-.057.08-.055.094-.053.109-.05.123-.046.138-.042.152-.036.167-.03.182-.023.2-.016.212-.008.226v.242Zm-.17.343-.1-.052,0-.116.106.167Z"/>
            <path id="_1-24" data-name="1" class="cls-14" d="M19.573,56.392c1.072.532,1.7.312,1.633-1.26C21.073,53.444,19.519,53.662,19.573,56.392Z"/>
          </g>
          <g id="Group_13210" data-name="Group 13210">
            <path id="Path_30910" data-name="Path 30910" class="cls-9" d="M22.326,56.566c-1.1,2.018.351,2.675.422,1.316C22.767,57.528,22.437,57.15,22.326,56.566Z"/>
            <path id="_1-25" data-name="1" class="cls-14" d="M22.326,56.566c-1.1,2.018.351,2.675.422,1.316C22.767,57.528,22.437,57.15,22.326,56.566Z"/>
          </g>
          <g id="Group_13211" data-name="Group 13211">
            <path id="Path_30911" data-name="Path 30911" class="cls-9" d="M21.677,56.373c-.026,2.3-1.456,2.248-.855,1.026C20.979,57.081,21.367,57,21.677,56.373Z"/>
            <path id="_1-26" data-name="1" class="cls-14" d="M21.677,56.373c-.026,2.3-1.456,2.248-.855,1.026C20.979,57.081,21.367,57,21.677,56.373Z"/>
          </g>
          <g id="Group_13212" data-name="Group 13212">
            <path id="Path_30912" data-name="Path 30912" class="cls-17" d="M25.056,53.029a2.284,2.284,0,0,1,2.463.885"/>
          </g>
          <g id="Group_13213" data-name="Group 13213">
            <path id="Path_30913" data-name="Path 30913" class="cls-17" d="M19.724,52.515a1.666,1.666,0,0,1,1.65.49"/>
          </g>
          <g id="Group_13214" data-name="Group 13214">
            <path id="Path_30914" data-name="Path 30914" class="cls-17" d="M22.941,60.648c.9-.173,2.358-.046,3.262-.219,1.036-.63,1.08-1.271,2.116-1.9"/>
          </g>
          <g id="Group_13215" data-name="Group 13215">
            <path id="Path_30915" data-name="Path 30915" class="cls-17" d="M43.279,45.544c-.571-2.36-1.559-3.259-2.562-4.8"/>
          </g>
          <g id="Group_13216" data-name="Group 13216">
            <path id="Path_30916" data-name="Path 30916" class="cls-17" d="M29.04,47.076a11.231,11.231,0,0,0-.033-3.724"/>
          </g>
          <g id="Group_13217" data-name="Group 13217">
            <path id="Path_30917" data-name="Path 30917" class="cls-23" d="M57.666,19.063A27.514,27.514,0,1,0,53.226,57.72,27.514,27.514,0,0,0,57.666,19.063Z"/>
          </g>
        </g>
      </g>
    </g>
    <g id="Mask_Group_543" data-name="Mask Group 543" class="cls-24" transform="translate(214 152)">
      <g id="usd-coin-usdc-logo" transform="translate(-21805 -24913)">
        <path id="Path_31121" data-name="Path 31121" class="cls-25" d="M32,64A32,32,0,1,0,0,32,31.923,31.923,0,0,0,32,64Z"/>
        <path id="Path_31122" data-name="Path 31122" class="cls-1" d="M40.8,37.067c0-4.667-2.8-6.267-8.4-6.933-4-.533-4.8-1.6-4.8-3.467s1.333-3.067,4-3.067c2.4,0,3.733.8,4.4,2.8a1,1,0,0,0,.933.667h2.133A.911.911,0,0,0,40,26.133V26a6.661,6.661,0,0,0-6-5.467v-3.2c0-.533-.4-.933-1.067-1.067h-2c-.533,0-.933.4-1.067,1.067V20.4c-4,.533-6.533,3.2-6.533,6.533,0,4.4,2.667,6.133,8.267,6.8,3.733.667,4.933,1.467,4.933,3.6s-1.867,3.6-4.4,3.6c-3.467,0-4.667-1.467-5.067-3.467a.974.974,0,0,0-.933-.8H23.867a.911.911,0,0,0-.933.933v.133c.533,3.333,2.667,5.733,7.067,6.4v3.2c0,.533.4.933,1.067,1.067h2c.533,0,.933-.4,1.067-1.067v-3.2c4-.667,6.667-3.467,6.667-7.067Z"/>
        <path id="Path_31123" data-name="Path 31123" class="cls-1" d="M25.2,51.067a19.952,19.952,0,0,1,0-37.467,1.338,1.338,0,0,0,.8-1.333V10.4a1.013,1.013,0,0,0-.8-1.067.8.8,0,0,0-.533.133,23.994,23.994,0,0,0,0,45.733.811.811,0,0,0,1.2-.533C26,54.533,26,54.4,26,54.133V52.267A1.776,1.776,0,0,0,25.2,51.067Zm14.133-41.6a.811.811,0,0,0-1.2.533c-.133.133-.133.267-.133.533V12.4a1.769,1.769,0,0,0,.8,1.333,19.952,19.952,0,0,1,0,37.467,1.338,1.338,0,0,0-.8,1.333V54.4a1.013,1.013,0,0,0,.8,1.067.8.8,0,0,0,.533-.133,24.1,24.1,0,0,0,0-45.867Z"/>
      </g>
    </g>
  </g>
</svg>
