<svg xmlns="http://www.w3.org/2000/svg" xmlns:xlink="http://www.w3.org/1999/xlink" width="114" height="64" viewBox="0 0 114 64">
  <defs>
    <style>
      .cls-1 {
        fill: #fff;
      }

      .cls-2 {
        clip-path: url(#clip-path);
      }

      .cls-3 {
        fill: #49474a;
      }

      .cls-4 {
        fill: #ede5db;
      }

      .cls-5 {
        fill: #87c76c;
      }

      .cls-6 {
        fill: #c5dbb9;
      }

      .cls-7 {
        fill: #679e52;
      }

      .cls-8 {
        fill: #a7c399;
      }

      .cls-9 {
        fill: #86c56b;
      }

      .cls-10 {
        fill: #6c9b5e;
      }

      .cls-11 {
        fill: #f9eac9;
      }

      .cls-12 {
        fill: #a1cd8c;
      }

      .cls-13 {
        fill: #f8e9c8;
      }

      .cls-14 {
        fill: #76af63;
      }

      .cls-15 {
        fill: #f5e6c6;
      }

      .cls-16 {
        fill: #ddceb4;
      }

      .cls-17 {
        fill: #74ac62;
      }

      .cls-18 {
        fill: #85c26a;
      }

      .cls-19 {
        fill: #eae7e5;
      }

      .cls-20 {
        fill: #edebe9;
      }

      .cls-21 {
        fill: #dacbb1;
      }

      .cls-22 {
        fill: #ec9193;
      }

      .cls-23 {
        fill: #f1efed;
      }

      .cls-24 {
        fill: #b4a997;
      }

      .cls-25 {
        fill: #e6a2a4;
      }

      .cls-26 {
        fill: #93bd85;
      }

      .cls-27 {
        fill: #e0dfe0;
      }

      .cls-28 {
        fill: #454448;
      }

      .cls-29 {
        fill: #494e4a;
      }

      .cls-30 {
        fill: #f3f3f1;
      }

      .cls-31 {
        clip-path: url(#clip-path-2);
      }

      .cls-32 {
        fill: #2775ca;
      }
    </style>
    <clipPath id="clip-path">
      <circle id="Ellipse_1941" data-name="Ellipse 1941" class="cls-1" cx="32" cy="32" r="32" transform="translate(-22783 -23193)"/>
    </clipPath>
    <clipPath id="clip-path-2">
      <circle id="Ellipse_1942" data-name="Ellipse 1942" class="cls-1" cx="32" cy="32" r="32" transform="translate(-22733 -21653)"/>
    </clipPath>
  </defs>
  <g id="Group_877" data-name="Group 877" transform="translate(22783 23193)">
    <g id="Mask_Group_261" data-name="Mask Group 261" class="cls-2">
      <g id="ANEmA9.tif" transform="translate(-22782.963 -23193)">
        <path id="Path_20923" data-name="Path 20923" class="cls-3" d="M206.629,62.364c0,.513.011,1.027.018,1.54l-1.9-.516h.008l-.641-.258-2.4-.433c-.16.074-.468.128-.481.224a6.268,6.268,0,0,1-3.453,4.619.739.739,0,0,0-.3.6,2.886,2.886,0,0,1-1.426,3.144,21.3,21.3,0,0,1-3.772,1.674,27.471,27.471,0,0,1-3.157.735c.828,2.636-.8,3.969-3.062,3.788-.655-.051-1.309-.127-1.936-.187-.543,1.364-1.069,2.685-1.6,4.006a.909.909,0,0,0-.018.13l-.135.187c-.021.139-.1.308-.053.412.529,1.077,1.08,2.142,1.625,3.2-.037.111-.133.248-.1.33,1.211,2.826,1.259,5.81,1.2,8.813q-3.11.719-6.22,1.442a3.322,3.322,0,0,0-.466.186H175a5.059,5.059,0,0,0-.719-.3c-.772-.2-1.578-.288-2.322-.556-1.291-.463-1.5-1.122-1.412-2.476.135-1.955.082-3.922.095-5.884,0-.457-.3-.562-.718-.671-1.642-.437-3.262-.961-4.9-1.41a3.257,3.257,0,0,0-1.234-.119c-1.819.229-3.629.532-5.448.758a3.285,3.285,0,0,1-3.806-3.251,7.586,7.586,0,0,1,.008-1.514,1.808,1.808,0,0,0-1.372-2.243,2.343,2.343,0,0,0-2.65.344,7.836,7.836,0,0,0-.925.989c-.7.848-1.245.784-1.692-.244a10.074,10.074,0,0,1,.309-9.293.984.984,0,0,0-.082-1.266c-1.051-1.372-2.083-2.761-3.054-4.192a1.462,1.462,0,0,1-.139-1.227c.1-.21.747-.269,1.122-.22a14.121,14.121,0,0,1,5.648,1.974l2.915-4.56a34.859,34.859,0,0,1-6.542-9.976,6.373,6.373,0,0,1-.721-3.391v-.014c.061-.152.122-.3.184-.455l.135-.175h0l.16-.16h0a2.122,2.122,0,0,1,2.564.437c.461.4.872.86,1.311,1.282a19.24,19.24,0,0,0,10.316,5.339,1.7,1.7,0,0,0,0-.276,38.693,38.693,0,0,1-.566-9.7,7.063,7.063,0,0,1,.71-2.657,1.346,1.346,0,0,1,2.277-.293,3.862,3.862,0,0,1,.761,1.2c.32.759.5,1.577.83,2.33.556,1.274,1.183,2.516,1.779,3.772a1.287,1.287,0,0,0,.45-.723c.232-1.282.5-2.554.659-3.846a2.864,2.864,0,0,1,2.452-2.743,1.567,1.567,0,0,0,.835-.609A16.522,16.522,0,0,1,176,35.913c1.718-1.218,3.788-1.564,5.033-.361,1.218,1.179,2.287.952,3.66.641a5.155,5.155,0,0,1,6.347,3.474c.24.63.538.684,1.122.6a5.22,5.22,0,0,1,6.193,4.39c.183.933.24,1.891.361,2.875a.985.985,0,0,0,.258.1,3.926,3.926,0,0,1,3.355,4.269,13.078,13.078,0,0,1-1.269,5.236,3.717,3.717,0,0,0-.114,3.453.868.868,0,0,0,.715.574C203.334,61.529,204.978,61.96,206.629,62.364Zm-35.64-19.946-.264.21a2.137,2.137,0,0,0-.215.5c-.223,1.426-.429,2.854-.641,4.281-.183.465-.338.945-.558,1.392a.91.91,0,0,0,.205,1.194c.676.633,1.269,1.365,1.99,1.939a5.909,5.909,0,0,1,2.4,3.963,5.671,5.671,0,0,1-1.181,3.407c-2.152,2.943-5.651,3.073-7.893.212a26.687,26.687,0,0,1-1.9-3.2l-.377-1.15c-1.98,1.863-3.858,3.536-5.624,5.32a16.493,16.493,0,0,0-3.479,5.009c-.731.766-.037,1.165.418,1.625a2.246,2.246,0,0,1,.192,2.993,9.639,9.639,0,0,1-1.538,1.591,1.963,1.963,0,0,1-2.1.32l-.886-1.082c-1.335,2.2-1.538,5.488-.455,7.007l1.181-.921a4.015,4.015,0,0,1,3.874.135,10.405,10.405,0,0,0,3.349.88,4.083,4.083,0,0,0,4.128-2.472l-.769-.344c1.779-.409,2.985.53,2.873,2.051l-.764-.532-3,5.805-1.122,1.034.144.226c1.138-.16,2.28-.3,3.413-.481a6.561,6.561,0,0,1,4.025.332,16.412,16.412,0,0,0,3.9,1.091,12.281,12.281,0,0,0,5.84-.212c3.3-1,5.065-3.432,6.156-6.512.417-1.178.42-1.179-.788-1.591-.25-.085-.506-.152-.761-.226a4.45,4.45,0,0,0-3.469-.436c-.519.135-1.009.144-1.155-.471-.16-.665.341-.873.872-1a7.031,7.031,0,0,1,3.846.258,28.014,28.014,0,0,0,4.993,1.309c2.067.276,2.416-.333,1.618-2.253-.356-.856-.141-1.231.779-1.37.763-.115,1.533-.2,2.283-.372a11.275,11.275,0,0,0,4.717-1.839,1.426,1.426,0,0,0,.466-2.144.764.764,0,0,1,.37-1.181c.213-.111.436-.2.651-.308,2.9-1.455,3.711-3.775,2.3-6.7a1.7,1.7,0,0,1-.014-1.509c.511-1.282.95-2.589,1.418-3.887.119-.54.269-1.075.351-1.62.38-2.564-.886-3.737-2.87-3.632-.6.03-.865-.288-.854-.884.014-.771.037-1.543,0-2.312-.135-2.5-1.415-3.9-3.786-4.116a6.435,6.435,0,0,0-1.583.117c-1.442.229-1.434.242-1.835-1.147-.668-2.32-2.322-3.475-4.579-3.113a10.97,10.97,0,0,0-2.362.683,1.078,1.078,0,0,1-1.5-.364c-1.351-1.8-2.671-2.014-4.519-.75a14.119,14.119,0,0,0-3.9,4.486c-.128.207-.034.55-.043.83.051,1.291.2,2.588.13,3.873a6.829,6.829,0,0,1-1.2,3.91L172,49.2a17.723,17.723,0,0,0,.562-6.57c-.151-.686-.84-.772-1.573-.2Zm-22.663,25.3c.756,1.085,1.493,2.184,2.285,3.241a1.019,1.019,0,0,0,.8.333,3.251,3.251,0,0,0,2.253-2.655,2.9,2.9,0,0,0-.255-.641c-1.862-2.629-4.647-3.487-7.837-4.049l.481.74Zm9.454,15.222c1.6-.918,2.288-2.492,3.068-4.18l-1.817.683c-1.372.25-2.1,1.99-1.567,3.943Zm7-25.616.171.3,1.7,1.961a6.131,6.131,0,0,0,1.088.615,3.864,3.864,0,0,0,4.237-1.947,3.653,3.653,0,0,0-.434-4.68c-.41-.413-.878-.769-1.314-1.157a22.54,22.54,0,0,1-4.615-6.132c-.463-1.272-.905-2.552-1.4-3.81a6.026,6.026,0,0,0-.676-1.033c-.518.191-.715.466-.814,1.49A35.14,35.14,0,0,0,163,51.59a14.759,14.759,0,0,0,1.785,5.738Zm-4.77-1.886,1.074-.8c-.865-.264-1.6-.481-2.32-.713a23.169,23.169,0,0,1-5.965-3.139c-.941-.889-1.873-1.787-2.826-2.66a6.4,6.4,0,0,0-.836-.561c-.532-.341-.641.051-.591.415a4.818,4.818,0,0,0,.385,1.532c.929,1.878,1.815,3.789,2.913,5.566a52.366,52.366,0,0,0,3.254,4.317c.179.231.434.591.681.024ZM171.9,86.418V92.7c1.381-.992,1.615-.973,2.8.216,1.525-.923,1.716-.91,3,.229.122-.075.252-.16.386-.237,1.054-.606,1.6-.481,2.275.524a3.087,3.087,0,0,0,.336.538.987.987,0,0,0,.561.306,2,2,0,0,0,2.157-1.681,5.448,5.448,0,0,0,.1-1.189,16.492,16.492,0,0,0-1.442-6.57c-.256-.59-.537-1.168-.844-1.836-2.609,2.788-5.791,3.6-9.332,3.416Zm2.774,8.188a10.687,10.687,0,0,0,1.5.114c.284-.014.748-.175.8-.354a1.213,1.213,0,0,0-.237-.973,1.029,1.029,0,0,0-.9-.16,1.544,1.544,0,0,0-1.171,1.368Zm5.272-.026.131-.223c-.32-.33-.631-.921-.971-.939-.707-.038-1.134.526-1.41,1.352Zm-6.451.048c.232-.32.556-.583.51-.732a5.292,5.292,0,0,0-.623-1.082l-1.122.961Z" transform="translate(-142.731 -32.01)"/>
        <path id="Path_20924" data-name="Path 20924" class="cls-4" d="M147.381,47.268a6.374,6.374,0,0,0,.721,3.391,34.825,34.825,0,0,0,6.542,9.976L151.73,65.2a14.121,14.121,0,0,0-5.648-1.974c-.378-.05-1.025.01-1.122.22a1.439,1.439,0,0,0,.139,1.227c.969,1.431,2,2.82,3.054,4.192a.984.984,0,0,1,.082,1.266,10.075,10.075,0,0,0-.309,9.293c.447,1.027.99,1.091,1.692.244a7.835,7.835,0,0,1,.925-.989,2.342,2.342,0,0,1,2.65-.345,1.813,1.813,0,0,1,1.372,2.243,7.586,7.586,0,0,0-.008,1.514,3.285,3.285,0,0,0,3.806,3.251c1.82-.226,3.631-.529,5.448-.758a3.258,3.258,0,0,1,1.234.119c1.638.455,3.258.973,4.9,1.41.413.109.721.215.718.671-.013,1.961.04,3.929-.095,5.884-.093,1.352.12,2.013,1.412,2.476.743.268,1.549.361,2.322.556a5.062,5.062,0,0,1,.719.3h-4.475c-1.665-.375-3.349-.684-4.993-1.138a31.967,31.967,0,0,1-21.846-21.894c-.375-1.311-.641-2.652-.961-3.979v-9.9c.32-1.322.609-2.652.961-3.966a30.4,30.4,0,0,1,3.283-7.541C147.058,47.446,147.253,47.376,147.381,47.268Z" transform="translate(-142.731 -32.01)"/>
        <path id="Path_20925" data-name="Path 20925" class="cls-4" d="M206.629,62.364c-1.65-.4-3.293-.833-4.953-1.192a.868.868,0,0,1-.715-.574,3.718,3.718,0,0,1,.114-3.453,13.078,13.078,0,0,0,1.269-5.236,3.926,3.926,0,0,0-3.355-4.269.985.985,0,0,1-.258-.1c-.12-.984-.178-1.942-.361-2.875a5.222,5.222,0,0,0-6.193-4.39c-.578.082-.876.027-1.122-.6a5.155,5.155,0,0,0-6.347-3.474c-1.373.3-2.442.532-3.66-.641-1.245-1.2-3.315-.857-5.033.361A16.4,16.4,0,0,0,172.233,40a1.567,1.567,0,0,1-.835.609,2.864,2.864,0,0,0-2.452,2.743c-.16,1.29-.426,2.564-.659,3.846a1.287,1.287,0,0,1-.45.723c-.6-1.256-1.223-2.5-1.779-3.772-.33-.753-.514-1.57-.83-2.33a3.862,3.862,0,0,0-.761-1.2,1.346,1.346,0,0,0-2.277.293,7.063,7.063,0,0,0-.71,2.657,38.691,38.691,0,0,0,.566,9.7,1.7,1.7,0,0,1,0,.276,19.24,19.24,0,0,1-10.316-5.339c-.439-.428-.849-.886-1.311-1.282a2.119,2.119,0,0,0-2.564-.437,25.763,25.763,0,0,1,1.432-2.317,30.687,30.687,0,0,1,7.257-6.754,33.216,33.216,0,0,1,11.678-4.881,37.706,37.706,0,0,1,9.684-.405,27.078,27.078,0,0,1,9.7,2.564,32.426,32.426,0,0,1,7.553,4.692,31.949,31.949,0,0,1,7.515,9.181A32.3,32.3,0,0,1,206.3,59.207C206.462,60.257,206.523,61.313,206.629,62.364Z" transform="translate(-142.731 -32.01)"/>
        <path id="Path_20926" data-name="Path 20926" class="cls-5" d="M183.956,85.243c-.545-1.069-1.1-2.134-1.625-3.2-.05-.1.032-.272.053-.412l.135-.187a.9.9,0,0,1,.018-.13,2.294,2.294,0,0,0,.429-.413c.4-.655.78-1.325,1.163-1.992a.76.76,0,0,1,.912-.385,6.337,6.337,0,0,0,4.152-.71,1.756,1.756,0,0,0,1.014-1.75c-.054-.62-.072-1.242-.109-1.947.665,0,1.271.008,1.878,0a8.489,8.489,0,0,0,4.113-1.035,3.743,3.743,0,0,0,2.083-3.341,2.017,2.017,0,0,1,1.184-2.221c1.86-.953,2.331-2.83,2.362-4.807l2.4.433.641.258h-.008l1.854.835q-.125,1.908-.248,3.818l-.651.481.5.641a26.721,26.721,0,0,1-2.29,7.851,31.689,31.689,0,0,1-18.005,17.042,33.3,33.3,0,0,0-.4-4.56A32.148,32.148,0,0,0,183.956,85.243Zm7.326,4.341-.923-.716c-.2.276-.551.546-.566.833-.011.218.4.633.628.641s.469-.391.86-.755ZM188.4,88.3l-.851-.751c-.226.26-.569.494-.628.785-.032.16.389.545.649.591.194.046.452-.308.836-.614Zm3.99-1.679c-.389-.253-.662-.542-.79-.481a.985.985,0,0,0-.545.625c-.024.16.356.529.534.516.231-.013.433-.324.808-.649Z" transform="translate(-142.731 -32.01)"/>
        <path id="Path_20927" data-name="Path 20927" class="cls-6" d="M183.956,85.243a32.183,32.183,0,0,1,1.549,4.261,33.614,33.614,0,0,1,.4,4.56l-.844.32c.054-3,0-5.981-1.2-8.813C183.823,85.495,183.919,85.357,183.956,85.243Z" transform="translate(-142.731 -32.01)"/>
        <path id="Path_20928" data-name="Path 20928" class="cls-7" d="M206.2,69.174l-.5-.641.651-.481Z" transform="translate(-142.731 -32.01)"/>
        <path id="Path_20929" data-name="Path 20929" class="cls-8" d="M206.6,64.223l-1.854-.835,1.9.516Z" transform="translate(-142.731 -32.01)"/>
        <path id="Path_20930" data-name="Path 20930" class="cls-4" d="M147.574,46.812l-.192.457Z" transform="translate(-142.731 -32.01)"/>
        <path id="Path_20931" data-name="Path 20931" class="cls-4" d="M147.86,46.478l-.16.16Z" transform="translate(-142.731 -32.01)"/>
        <path id="Path_20932" data-name="Path 20932" class="cls-4" d="M147.7,46.637l-.135.173Z" transform="translate(-142.731 -32.01)"/>
        <path id="Path_20933" data-name="Path 20933" class="cls-9" d="M162.927,56.3a26.867,26.867,0,0,0,1.9,3.2c2.243,2.862,5.741,2.724,7.893-.212A5.692,5.692,0,0,0,173.9,55.89a1.907,1.907,0,0,0,.3-.622,7.723,7.723,0,0,0-1.328-4.636,1.282,1.282,0,0,1-.111-.933,13.831,13.831,0,0,0,.493-7.238,13.44,13.44,0,0,1,3.483-3.562c1.618-1.019,3.094-1.085,4.442-.035a1.177,1.177,0,0,0,1.426.139c1.514-.686,3.068-1.077,4.647-.173a5.062,5.062,0,0,1,2.146,2.778c.247.641.511,1.019,1.391.9a4.261,4.261,0,0,1,4.536,1.977,7.122,7.122,0,0,1,.785,4.006,1.474,1.474,0,0,0,1.133,1.617c2.208.543,3.032,1.961,3.185,4.188-.468,1.3-.907,2.607-1.418,3.887a1.7,1.7,0,0,0,.014,1.509c1.41,2.924.6,5.244-2.3,6.7-.215.107-.437.2-.651.308a.769.769,0,0,0-.37,1.181,1.427,1.427,0,0,1-.466,2.144,11.275,11.275,0,0,1-4.717,1.839c-.75.175-1.521.256-2.283.372-.92.139-1.134.514-.779,1.37.8,1.923.449,2.528-1.618,2.253a27.908,27.908,0,0,1-4.993-1.309A6.97,6.97,0,0,0,177,74.3c-.53.122-1.03.33-.872,1,.146.615.641.606,1.155.471a4.45,4.45,0,0,1,3.469.436,6.848,6.848,0,0,1-4.067,6.089c-2.769,1.282-5.683,1.045-8.588.671-1.412-.181-2.8-.577-4.216-.659a19.872,19.872,0,0,0-3.141.364,3.164,3.164,0,0,1-.8-.125l3.011-5.8.764.532c.112-1.521-1.094-2.46-2.873-2.051l.769.344a4.094,4.094,0,0,1-4.128,2.472,10.405,10.405,0,0,1-3.346-.886,4.02,4.02,0,0,0-3.874-.135,5.571,5.571,0,0,1-.332-3.338c.16-.556.32-1.11.492-1.666a1.963,1.963,0,0,0,2.1-.32,9.639,9.639,0,0,0,1.538-1.591,2.245,2.245,0,0,0-.192-2.993l.38-.814a5.881,5.881,0,0,0,.426-.556,32.015,32.015,0,0,1,5.217-6.768C160.857,58.034,161.913,57.19,162.927,56.3Zm5.187,8.43a1.109,1.109,0,0,0-1.442.425,1.351,1.351,0,0,0,.194,1.668,5.56,5.56,0,0,0,.529,4.951,1.666,1.666,0,0,0,2.9.253,6.116,6.116,0,0,0,.014-6.861A1.624,1.624,0,0,0,168.114,64.734Zm10.21-3.846a3.111,3.111,0,0,0,.756-.253,20.144,20.144,0,0,0,8.917-12,6.8,6.8,0,0,0,.21-3.594,21.675,21.675,0,0,1-3.429,8.779,36.212,36.212,0,0,1-6.454,7.073Zm16.462-5.208-.192-.16c-.2.181-.4.357-.588.545-1.6,1.593-3.142,3.262-4.828,4.762A20.928,20.928,0,0,1,179.7,66.08a2.029,2.029,0,0,0,1.035.144,28.735,28.735,0,0,0,4.5-1.559,25.9,25.9,0,0,0,9.023-8.172c.191-.252.351-.53.526-.8Zm-18.978-.942c2.692-.463,5.962-10.7,4.394-13.52-.729,4.741-1.306,9.515-4.394,13.528Zm6.033,15.283c-.4-.332-.641-.679-.835-.654a.969.969,0,0,0-.665.57c-.046.147.32.588.519.607C181.107,70.571,181.383,70.287,181.841,70.021Z" transform="translate(-142.731 -32.01)"/>
        <path id="Path_20934" data-name="Path 20934" class="cls-10" d="M171.9,86.413c3.541.181,6.73-.628,9.324-3.421.308.668.588,1.247.844,1.836a16.2,16.2,0,0,1,1.442,6.57,5.447,5.447,0,0,1-.1,1.189,2,2,0,0,1-2.157,1.681.987.987,0,0,1-.561-.306,3.085,3.085,0,0,1-.336-.538c-.67-1-1.221-1.122-2.275-.524-.135.077-.264.16-.386.237-1.282-1.139-1.477-1.152-3-.229-1.187-1.189-1.421-1.208-2.8-.216Z" transform="translate(-142.731 -32.01)"/>
        <path id="Path_20935" data-name="Path 20935" class="cls-11" d="M163.539,41.449a6.027,6.027,0,0,1,.676,1.033c.5,1.258.937,2.538,1.4,3.81-.037.16-.151.354-.1.481a12.6,12.6,0,0,0,1.234,2.645c1.227,1.65,2.586,3.2,3.932,4.764a2.553,2.553,0,0,1-.056,3.8,4.839,4.839,0,0,1-3.974,1.617l-1.7-1.961-.171-.3v.01a20.74,20.74,0,0,1-.618-2.367c-.32-2.187-.566-4.384-.825-6.579A21.879,21.879,0,0,1,163.539,41.449Z" transform="translate(-142.731 -32.01)"/>
        <path id="Path_20936" data-name="Path 20936" class="cls-12" d="M200.44,54.3c-.16-2.227-.977-3.645-3.185-4.188a1.474,1.474,0,0,1-1.133-1.617,7.143,7.143,0,0,0-.785-4.006A4.261,4.261,0,0,0,190.8,42.51c-.88.117-1.144-.268-1.391-.9a5.062,5.062,0,0,0-2.146-2.778c-1.586-.9-3.141-.513-4.647.173a1.177,1.177,0,0,1-1.426-.139c-1.348-1.05-2.823-.984-4.442.035a13.539,13.539,0,0,0-3.483,3.562h-.3c.01-.28-.085-.623.043-.83a14.258,14.258,0,0,1,3.9-4.486c1.847-1.264,3.168-1.05,4.519.75a1.078,1.078,0,0,0,1.5.364,10.972,10.972,0,0,1,2.362-.683c2.258-.362,3.911.793,4.579,3.113.4,1.389.4,1.376,1.835,1.147a6.435,6.435,0,0,1,1.583-.117c2.371.22,3.652,1.62,3.786,4.116.04.769.018,1.541,0,2.312-.011.6.253.915.854.884,1.984-.1,3.249,1.062,2.87,3.632C200.71,53.223,200.559,53.758,200.44,54.3Z" transform="translate(-142.731 -32.01)"/>
        <path id="Path_20937" data-name="Path 20937" class="cls-13" d="M149.134,47.563a6.4,6.4,0,0,1,.836.561c.953.873,1.886,1.771,2.826,2.66.216.343.353.8.66,1.006,1.335.876,2.7,1.708,4.094,2.495.784.444,1.636.771,2.458,1.15l-4.233,3.982a2.219,2.219,0,0,1-.5-.37,42.162,42.162,0,0,1-2.589-3.695c-1.232-2.16-2.333-4.4-3.445-6.624A3.352,3.352,0,0,1,149.134,47.563Z" transform="translate(-142.731 -32.01)"/>
        <path id="Path_20938" data-name="Path 20938" class="cls-14" d="M159.96,82.54a2.809,2.809,0,0,0,.8.125A19.765,19.765,0,0,1,163.9,82.3c1.412.082,2.8.481,4.216.659,2.9.373,5.82.612,8.588-.671a6.859,6.859,0,0,0,4.067-6.089c.255.074.511.141.761.226,1.208.412,1.2.413.788,1.591-1.091,3.08-2.852,5.517-6.156,6.512a12.281,12.281,0,0,1-5.84.212,16.412,16.412,0,0,1-3.9-1.091,6.56,6.56,0,0,0-4.025-.332c-1.133.187-2.275.32-3.413.481l-.144-.226Z" transform="translate(-142.731 -32.01)"/>
        <path id="Path_20939" data-name="Path 20939" class="cls-14" d="M201.714,62.7c-.03,1.98-.5,3.857-2.362,4.807a2.009,2.009,0,0,0-1.184,2.221,3.713,3.713,0,0,1-2.083,3.341,8.4,8.4,0,0,1-4.113,1.035c-.607.01-1.213,0-1.878,0,.037.705.054,1.327.109,1.947a1.756,1.756,0,0,1-1.014,1.75,6.339,6.339,0,0,1-4.152.71.76.76,0,0,0-.912.385c-.383.667-.761,1.336-1.163,1.992a2.293,2.293,0,0,1-.429.413c.526-1.322,1.051-2.644,1.6-4.006.627.061,1.282.136,1.936.187,2.262.181,3.89-1.152,3.062-3.788a27.467,27.467,0,0,0,3.157-.735,21.3,21.3,0,0,0,3.767-1.67,2.884,2.884,0,0,0,1.426-3.144.739.739,0,0,1,.3-.6,6.268,6.268,0,0,0,3.453-4.619C201.251,62.83,201.548,62.776,201.714,62.7Z" transform="translate(-142.731 -32.01)"/>
        <path id="Path_20940" data-name="Path 20940" class="cls-15" d="M146.051,64.686l-.481-.74c3.2.562,5.975,1.42,7.837,4.049a2.9,2.9,0,0,1,.255.641c-.32.346-.641.708-.981,1.033a1.3,1.3,0,0,1-2.016-.019q-1.168-1.139-2.328-2.282Z" transform="translate(-142.731 -32.01)"/>
        <path id="Path_20941" data-name="Path 20941" class="cls-16" d="M166.654,59.593a4.839,4.839,0,0,0,3.974-1.617,2.553,2.553,0,0,0,.056-3.8c-1.346-1.557-2.7-3.113-3.932-4.764a12.6,12.6,0,0,1-1.234-2.645c-.053-.122.061-.32.1-.481a22.41,22.41,0,0,0,4.615,6.132c.436.388.9.743,1.314,1.157a3.653,3.653,0,0,1,.434,4.68,3.872,3.872,0,0,1-4.237,1.947A5.559,5.559,0,0,1,166.654,59.593Z" transform="translate(-142.731 -32.01)"/>
        <path id="Path_20942" data-name="Path 20942" class="cls-17" d="M172.958,42.461h.3a13.831,13.831,0,0,1-.493,7.238,1.282,1.282,0,0,0,.111.933,7.726,7.726,0,0,1,1.328,4.636,1.907,1.907,0,0,1-.3.622,5.851,5.851,0,0,0-2.4-3.963c-.721-.574-1.314-1.306-1.99-1.939a.894.894,0,0,1-.205-1.194c.231-.469.375-.928.558-1.392.255.22.506.444.764.66.452.375.907.745,1.36,1.122l-.107,1.067a6.77,6.77,0,0,0,1.2-3.91C173.153,45.056,173.009,43.759,172.958,42.461Z" transform="translate(-142.731 -32.01)"/>
        <path id="Path_20943" data-name="Path 20943" class="cls-12" d="M162.927,56.3c-1.014.886-2.07,1.731-3.044,2.665a32.014,32.014,0,0,0-5.217,6.768,5.88,5.88,0,0,1-.426.556l-.8-.811a16.492,16.492,0,0,1,3.479-5.009c1.763-1.783,3.644-3.456,5.624-5.32Z" transform="translate(-142.731 -32.01)"/>
        <path id="Path_20944" data-name="Path 20944" class="cls-18" d="M171.993,49.191c-.453-.372-.909-.742-1.36-1.122-.258-.216-.51-.441-.764-.66.211-1.428.418-2.855.641-4.281a2.137,2.137,0,0,1,.215-.5l.264-.21h0l1.573.2A17.909,17.909,0,0,1,171.993,49.191Z" transform="translate(-142.731 -32.01)"/>
        <path id="Path_20945" data-name="Path 20945" class="cls-12" d="M150.421,72.011c-.16.556-.333,1.11-.492,1.666a5.626,5.626,0,0,0,.332,3.338l-1.181.921c-1.083-1.519-.88-4.807.455-7.007Z" transform="translate(-142.731 -32.01)"/>
        <path id="Path_20946" data-name="Path 20946" class="cls-19" d="M163.539,41.449a21.713,21.713,0,0,0-.2,6.943c.26,2.2.51,4.392.825,6.579a20.74,20.74,0,0,0,.618,2.367A14.776,14.776,0,0,1,163,51.6a35.141,35.141,0,0,1-.277-8.653C162.824,41.915,163.022,41.639,163.539,41.449Z" transform="translate(-142.731 -32.01)"/>
        <path id="Path_20947" data-name="Path 20947" class="cls-20" d="M149.134,47.563a3.352,3.352,0,0,0,.112,1.165c1.112,2.227,2.213,4.464,3.445,6.624a42.161,42.161,0,0,0,2.589,3.695,1.932,1.932,0,0,0,.5.37c-.247.567-.5.207-.681-.024a51.049,51.049,0,0,1-3.254-4.317c-1.1-1.777-1.984-3.685-2.913-5.566a4.818,4.818,0,0,1-.385-1.532C148.5,47.615,148.6,47.222,149.134,47.563Z" transform="translate(-142.731 -32.01)"/>
        <path id="Path_20948" data-name="Path 20948" class="cls-21" d="M160.009,55.44c-.822-.38-1.674-.707-2.458-1.15-1.391-.787-2.759-1.618-4.094-2.495-.308-.2-.444-.663-.66-1.006a23.12,23.12,0,0,0,5.965,3.139c.724.232,1.455.449,2.32.713Z" transform="translate(-142.731 -32.01)"/>
        <path id="Path_20949" data-name="Path 20949" class="cls-22" d="M159.033,79.446l1.817-.683c-.78,1.689-1.466,3.262-3.07,4.18a4.382,4.382,0,0,1,1.253-3.5Z" transform="translate(-142.731 -32.01)"/>
        <path id="Path_20950" data-name="Path 20950" class="cls-23" d="M148.333,67.373q1.163,1.142,2.328,2.282a1.3,1.3,0,0,0,2.016.019c.346-.32.655-.687.981-1.034A3.251,3.251,0,0,1,151.4,71.3a1.019,1.019,0,0,1-.8-.333c-.792-1.058-1.529-2.157-2.285-3.241Z" transform="translate(-142.731 -32.01)"/>
        <path id="Path_20951" data-name="Path 20951" class="cls-24" d="M174.674,94.6a1.565,1.565,0,0,1,1.163-1.376,1.055,1.055,0,0,1,.9.16,1.213,1.213,0,0,1,.237.973c-.045.179-.51.34-.8.354A10.187,10.187,0,0,1,174.674,94.6Z" transform="translate(-142.731 -32.01)"/>
        <path id="Path_20952" data-name="Path 20952" class="cls-25" d="M159.033,79.446a4.382,4.382,0,0,0-1.253,3.5c-.09.128-.179.256-.32.445C156.934,81.436,157.668,79.7,159.033,79.446Z" transform="translate(-142.731 -32.01)"/>
        <path id="Path_20953" data-name="Path 20953" class="cls-24" d="M179.94,94.575l-2.243.191c.276-.827.7-1.391,1.41-1.352.34.018.641.609.971.939Z" transform="translate(-142.731 -32.01)"/>
        <path id="Path_20954" data-name="Path 20954" class="cls-24" d="M173.494,94.623l-1.239-.849,1.122-.961A5.291,5.291,0,0,1,174,93.894C174.05,94.04,173.727,94.3,173.494,94.623Z" transform="translate(-142.731 -32.01)"/>
        <path id="Path_20955" data-name="Path 20955" class="cls-26" d="M153.448,65.482l.8.811-.38.814C153.411,66.647,152.717,66.248,153.448,65.482Z" transform="translate(-142.731 -32.01)"/>
        <path id="Path_20956" data-name="Path 20956" class="cls-27" d="M148.333,67.373v.348l-2.282-3.035Z" transform="translate(-142.731 -32.01)"/>
        <path id="Path_20957" data-name="Path 20957" class="cls-26" d="M172.555,42.612l-1.573-.2C171.716,41.84,172.41,41.926,172.555,42.612Z" transform="translate(-142.731 -32.01)"/>
        <path id="Path_20958" data-name="Path 20958" class="cls-8" d="M204.757,63.393l-.641-.258Z" transform="translate(-142.731 -32.01)"/>
        <path id="Path_20959" data-name="Path 20959" class="cls-26" d="M170.988,42.418l-.264.21Z" transform="translate(-142.731 -32.01)"/>
        <path id="Path_20960" data-name="Path 20960" class="cls-19" d="M164.782,57.328l.171.3Z" transform="translate(-142.731 -32.01)"/>
        <path id="Path_20961" data-name="Path 20961" class="cls-14" d="M182.519,81.436l-.135.187Z" transform="translate(-142.731 -32.01)"/>
        <path id="Path_20962" data-name="Path 20962" class="cls-7" d="M191.282,89.587c-.391.364-.628.755-.86.753a.876.876,0,0,1-.628-.641c.014-.287.362-.558.566-.833Z" transform="translate(-142.731 -32.01)"/>
        <path id="Path_20963" data-name="Path 20963" class="cls-7" d="M188.4,88.313c-.385.306-.641.66-.83.625-.26-.046-.681-.429-.649-.591.059-.292.4-.526.628-.785Z" transform="translate(-142.731 -32.01)"/>
        <path id="Path_20964" data-name="Path 20964" class="cls-7" d="M192.394,86.634c-.375.32-.577.641-.8.652-.178.013-.558-.362-.534-.516a.985.985,0,0,1,.545-.625C191.732,86.093,192,86.381,192.394,86.634Z" transform="translate(-142.731 -32.01)"/>
        <path id="Path_20965" data-name="Path 20965" class="cls-28" d="M168.114,64.734a1.612,1.612,0,0,1,2.192.434,6.116,6.116,0,0,1-.014,6.861,1.666,1.666,0,0,1-2.9-.253,5.56,5.56,0,0,1-.529-4.951,1.48,1.48,0,0,0,1.6.085c-.014.1-.07.215-.037.29.127.271.284.527.429.788l.6-.383c-.173-.245-.335-.5-.527-.727-.064-.077-.205-.088-.311-.13A1.663,1.663,0,0,0,168.114,64.734Z" transform="translate(-142.731 -32.01)"/>
        <path id="Path_20966" data-name="Path 20966" class="cls-29" d="M178.324,60.9a36.045,36.045,0,0,0,6.454-7.065,21.637,21.637,0,0,0,3.429-8.779,6.8,6.8,0,0,1-.21,3.594,20.144,20.144,0,0,1-8.917,12A3.11,3.11,0,0,1,178.324,60.9Z" transform="translate(-142.731 -32.01)"/>
        <path id="Path_20967" data-name="Path 20967" class="cls-29" d="M194.786,55.689c-.175.274-.335.559-.526.82a25.9,25.9,0,0,1-9.023,8.172,28.735,28.735,0,0,1-4.5,1.559A2.029,2.029,0,0,1,179.7,66.1a20.953,20.953,0,0,0,9.478-5.252c1.686-1.5,3.222-3.169,4.828-4.762.189-.187.391-.364.588-.545Z" transform="translate(-142.731 -32.01)"/>
        <path id="Path_20968" data-name="Path 20968" class="cls-29" d="M175.808,54.746c3.088-4.014,3.665-8.787,4.394-13.52C181.77,44.049,178.5,54.283,175.808,54.746Z" transform="translate(-142.731 -32.01)"/>
        <path id="Path_20969" data-name="Path 20969" class="cls-30" d="M168.468,66.913a1.479,1.479,0,0,1-1.6-.085,1.351,1.351,0,0,1-.194-1.668,1.112,1.112,0,0,1,1.442-.425,1.671,1.671,0,0,1,.5,2.016h0l-.17.173Z" transform="translate(-142.731 -32.01)"/>
        <path id="Path_20970" data-name="Path 20970" class="cls-7" d="M181.841,70.021c-.458.264-.734.548-.981.524-.205-.019-.566-.46-.519-.607a.969.969,0,0,1,.665-.57C181.2,69.344,181.44,69.691,181.841,70.021Z" transform="translate(-142.731 -32.01)"/>
        <path id="Path_20971" data-name="Path 20971" class="cls-27" d="M168.618,66.751c.106.042.247.053.311.13.192.229.354.481.527.727l-.6.383c-.146-.261-.3-.518-.429-.788-.034-.075.022-.192.037-.29l-.014.01.17-.173Z" transform="translate(-142.731 -32.01)"/>
        <path id="Path_20972" data-name="Path 20972" class="cls-28" d="M168.623,66.749l-.17.173Z" transform="translate(-142.731 -32.01)"/>
      </g>
    </g>
    <g id="Mask_Group_183" data-name="Mask Group 183" class="cls-31" transform="translate(0 -1540)">
      <g id="usd-coin-usdc-logo" transform="translate(-22733 -21653)">
        <path id="Path_19722" data-name="Path 19722" class="cls-32" d="M32,64A32,32,0,1,0,0,32,31.923,31.923,0,0,0,32,64Z"/>
        <path id="Path_19723" data-name="Path 19723" class="cls-1" d="M40.8,37.067c0-4.667-2.8-6.267-8.4-6.933-4-.533-4.8-1.6-4.8-3.467s1.333-3.067,4-3.067c2.4,0,3.733.8,4.4,2.8a1,1,0,0,0,.933.667h2.133A.911.911,0,0,0,40,26.133V26a6.661,6.661,0,0,0-6-5.467v-3.2c0-.533-.4-.933-1.067-1.067h-2c-.533,0-.933.4-1.067,1.067V20.4c-4,.533-6.533,3.2-6.533,6.533,0,4.4,2.667,6.133,8.267,6.8,3.733.667,4.933,1.467,4.933,3.6s-1.867,3.6-4.4,3.6c-3.467,0-4.667-1.467-5.067-3.467a.974.974,0,0,0-.933-.8H23.867a.911.911,0,0,0-.933.933v.133c.533,3.333,2.667,5.733,7.067,6.4v3.2c0,.533.4.933,1.067,1.067h2c.533,0,.933-.4,1.067-1.067v-3.2c4-.667,6.667-3.467,6.667-7.067Z"/>
        <path id="Path_19724" data-name="Path 19724" class="cls-1" d="M25.2,51.067a19.952,19.952,0,0,1,0-37.467,1.338,1.338,0,0,0,.8-1.333V10.4a1.013,1.013,0,0,0-.8-1.067.8.8,0,0,0-.533.133,23.994,23.994,0,0,0,0,45.733.811.811,0,0,0,1.2-.533C26,54.533,26,54.4,26,54.133V52.267A1.776,1.776,0,0,0,25.2,51.067Zm14.133-41.6a.811.811,0,0,0-1.2.533c-.133.133-.133.267-.133.533V12.4a1.769,1.769,0,0,0,.8,1.333,19.952,19.952,0,0,1,0,37.467,1.338,1.338,0,0,0-.8,1.333V54.4a1.013,1.013,0,0,0,.8,1.067.8.8,0,0,0,.533-.133,24.1,24.1,0,0,0,0-45.867Z"/>
      </g>
    </g>
  </g>
</svg>
