<svg xmlns="http://www.w3.org/2000/svg" xmlns:xlink="http://www.w3.org/1999/xlink" width="114" height="64" viewBox="0 0 114 64">
  <defs>
    <style>
      .cls-1 {
        fill: #fff;
      }

      .cls-2 {
        clip-path: url(#clip-path);
      }

      .cls-3 {
        fill: #8247e5;
      }

      .cls-4 {
        clip-path: url(#clip-path-2);
      }

      .cls-5 {
        fill: #9298a0;
      }

      .cls-6 {
        fill: #0b4267;
      }

      .cls-7 {
        fill: #015b8c;
      }

      .cls-8 {
        fill: #4d4f50;
      }

      .cls-9 {
        fill: #b088bd;
      }

      .cls-10 {
        fill: #0e546a;
      }

      .cls-11 {
        fill: #0a323e;
      }

      .cls-12 {
        fill: #64478b;
      }

      .cls-13 {
        fill: #066eb0;
      }

      .cls-14 {
        fill: #465b89;
      }

      .cls-15 {
        fill: #014f81;
      }

      .cls-16 {
        fill: #6876ab;
      }

      .cls-17 {
        fill: #43547d;
      }

      .cls-18 {
        fill: #6c7eb8;
      }

      .cls-19 {
        fill: #134979;
      }

      .cls-20 {
        fill: #8979ae;
      }

      .cls-21 {
        fill: #0892c9;
      }

      .cls-22 {
        fill: #2e2d73;
      }

      .cls-23 {
        fill: #795ea2;
      }

      .cls-24 {
        fill: #504577;
      }

      .cls-25 {
        fill: #8fcfdf;
      }

      .cls-26 {
        fill: #6674af;
      }

      .cls-27 {
        fill: #ddb6d6;
      }

      .cls-28 {
        fill: #926caa;
      }

      .cls-29 {
        fill: #9d75b1;
      }

      .cls-30 {
        fill: #c69bc8;
      }

      .cls-31 {
        fill: #d0b9da;
      }

      .cls-32 {
        fill: #bdb5cb;
      }
    </style>
    <clipPath id="clip-path">
      <circle id="Ellipse_1871" data-name="Ellipse 1871" class="cls-1" cx="32" cy="32" r="32" transform="translate(-22405 -21653)"/>
    </clipPath>
    <clipPath id="clip-path-2">
      <circle id="Ellipse_2079" data-name="Ellipse 2079" class="cls-1" cx="32" cy="32" r="32" transform="translate(-22455 -23193)"/>
    </clipPath>
  </defs>
  <g id="Group_904" data-name="Group 904" transform="translate(22455 23193)">
    <circle id="Ellipse_1870" data-name="Ellipse 1870" class="cls-1" cx="32" cy="32" r="32" transform="translate(-22455 -23193)"/>
    <g id="Mask_Group_187" data-name="Mask Group 187" class="cls-2" transform="translate(0 -1540)">
      <g id="matic-token-inverted-icon" transform="translate(-22405 -21653)">
        <circle id="Ellipse_2037" data-name="Ellipse 2037" class="cls-1" cx="32" cy="32" r="32"/>
        <path id="Path_19725" data-name="Path 19725" class="cls-3" d="M42.592,25.153a2.708,2.708,0,0,0-2.61,0L34,28.577l-4.068,2.233-5.987,3.423a2.708,2.708,0,0,1-2.61,0l-4.759-2.679a2.554,2.554,0,0,1-1.3-2.158V24.112a2.4,2.4,0,0,1,1.3-2.158l4.682-2.6a2.708,2.708,0,0,1,2.61,0l4.682,2.6a2.554,2.554,0,0,1,1.3,2.158v3.423l4.068-2.307V21.8a2.4,2.4,0,0,0-1.3-2.158l-8.673-4.912a2.708,2.708,0,0,0-2.61,0L12.5,19.646A2.4,2.4,0,0,0,11.2,21.8v9.9a2.4,2.4,0,0,0,1.3,2.158l8.827,4.912a2.708,2.708,0,0,0,2.61,0l5.987-3.349L34,33.116l5.987-3.349a2.708,2.708,0,0,1,2.61,0l4.682,2.6a2.554,2.554,0,0,1,1.3,2.158v5.284a2.4,2.4,0,0,1-1.3,2.158l-4.682,2.679a2.708,2.708,0,0,1-2.61,0l-4.682-2.6A2.554,2.554,0,0,1,34,39.888V36.465l-4.068,2.307V42.2a2.4,2.4,0,0,0,1.3,2.158l8.827,4.912a2.708,2.708,0,0,0,2.61,0L51.5,44.354A2.554,2.554,0,0,0,52.8,42.2V32.3a2.4,2.4,0,0,0-1.3-2.158Z"/>
      </g>
    </g>
    <g id="Mask_Group_283" data-name="Mask Group 283" class="cls-4">
      <g id="elixir" transform="translate(-22441.699 -23193)">
        <path id="Path_21423" data-name="Path 21423" class="cls-1" d="M92.061,8.441a1.759,1.759,0,0,0,1.317-.876c.558-.931,1.132-1.853,1.706-2.772a1.559,1.559,0,0,0-.026-1.83,4.246,4.246,0,0,0-1.309-1.149,33.659,33.659,0,0,0-4.5-2.349,53.109,53.109,0,0,0-7.166-2.686,8.4,8.4,0,0,0-2.7-.452,1.617,1.617,0,0,0-1.545,1.266c-.254,1.071-.5,2.144-.764,3.212a1.728,1.728,0,0,0,.3,1.535.443.443,0,0,1,.1.219c.02.375.026.753.038,1.172.036-.023.01,0-.02.011a1.8,1.8,0,0,0-1.266,1.907c.009.079-.092.2-.172.254a1.672,1.672,0,0,0-.827,1.485A9.913,9.913,0,0,0,75.4,8.546c-.126.132-.282.305-.452.466a.4.4,0,0,1-.212.1c-.579.076-1.163.114-1.736.218a18.148,18.148,0,0,0-9.7,5.024,17.243,17.243,0,0,0-2.554,3.207,18.244,18.244,0,0,0-2.766,9.012,16.806,16.806,0,0,0,.384,4.327A18.709,18.709,0,0,0,63.8,40.714a17.392,17.392,0,0,0,6.143,3.731,19.183,19.183,0,0,0,5.626,1.074,11.16,11.16,0,0,0,1.771-.05,26.884,26.884,0,0,0,3.138-.458A17.3,17.3,0,0,0,91.32,37.543a18.534,18.534,0,0,0,2.961-12.624,16.545,16.545,0,0,0-1.64-5.511,18.262,18.262,0,0,0-2.86-4.185c-.054-.06-.106-.193-.077-.246a2.345,2.345,0,0,0,.221-1.669,2.166,2.166,0,0,0,1.1-2.675A2.113,2.113,0,0,0,92.061,8.441ZM85.293-8.6a2.86,2.86,0,0,0,.838,2.041,2.86,2.86,0,0,0,2.041.838A2.9,2.9,0,0,0,91.061-8.6a2.885,2.885,0,0,0-.85-2.049,2.885,2.885,0,0,0-2.053-.839A2.858,2.858,0,0,0,85.293-8.6ZM81.251-13.09a2.665,2.665,0,0,0,2.695-2.654,2.671,2.671,0,0,0-2.655-2.719,2.664,2.664,0,0,0-2.718,2.682A2.652,2.652,0,0,0,81.251-13.09ZM91.373-.652a2.322,2.322,0,0,0,1.653-.661,2.322,2.322,0,0,0,.7-1.637A2.337,2.337,0,0,0,91.4-5.308,2.346,2.346,0,0,0,89.065-3.04,2.317,2.317,0,0,0,91.373-.652ZM81.252-9.685A2.314,2.314,0,0,0,79.61-9a2.314,2.314,0,0,0-.675,1.644,2.3,2.3,0,0,0,2.292,2.325,2.3,2.3,0,0,0,2.358-2.338A2.317,2.317,0,0,0,81.252-9.685Z" transform="translate(-57.969 18.463)"/>
        <path id="Path_21424" data-name="Path 21424" class="cls-5" d="M92.061,8.441a2.12,2.12,0,0,1-1.033,2.194,2.168,2.168,0,0,1-1.1,2.675,2.345,2.345,0,0,1-.221,1.669c-.029.054.023.187.077.246a18.262,18.262,0,0,1,2.86,4.185,16.545,16.545,0,0,1,1.64,5.511,18.518,18.518,0,0,1-2.961,12.624,17.3,17.3,0,0,1-10.844,7.469,26.885,26.885,0,0,1-3.138.458,11.159,11.159,0,0,1-1.771.05,19.168,19.168,0,0,1-5.626-1.074A17.392,17.392,0,0,1,63.8,40.717,18.709,18.709,0,0,1,58.365,30.9a16.806,16.806,0,0,1-.384-4.327,18.166,18.166,0,0,1,2.766-9.012A17.243,17.243,0,0,1,63.3,14.357,18.069,18.069,0,0,1,73,9.333c.573-.1,1.158-.142,1.736-.218a.4.4,0,0,0,.212-.1c.168-.161.324-.334.452-.466a9.913,9.913,0,0,1-.176-1.159,1.677,1.677,0,0,1,.827-1.485c.08-.056.181-.176.172-.254a1.8,1.8,0,0,1,1.266-1.907c.03-.01.056-.034.02-.011-.012-.422-.018-.8-.038-1.172a.443.443,0,0,0-.1-.219,1.734,1.734,0,0,1-.3-1.535c.267-1.067.51-2.141.764-3.212A1.617,1.617,0,0,1,79.376-3.67a8.341,8.341,0,0,1,2.7.452A53.109,53.109,0,0,1,89.244-.532a33.543,33.543,0,0,1,4.5,2.349,4.246,4.246,0,0,1,1.309,1.149,1.559,1.559,0,0,1,.026,1.83c-.577.919-1.15,1.842-1.706,2.772A1.755,1.755,0,0,1,92.061,8.441ZM63.283,37.861h0l.1.053h0a.608.608,0,0,0,.085.191c.67.675,1.3,1.405,2.026,2.007a16.571,16.571,0,0,0,12.178,3.872,15.9,15.9,0,0,0,3.932-.809,16.305,16.305,0,0,0,7.287-4.861,16.549,16.549,0,0,0,4.091-12.375A16.212,16.212,0,0,0,91.8,20.971a16.884,16.884,0,0,0-4.444-6.284c.216,0,.433.005.648,0a.705.705,0,0,0,.753-.815.907.907,0,0,0-.919-.839l.307-.791c.341-.019.681-.046,1.022-.055a.73.73,0,0,0,.716-.957c-.134-.478-.382-.636-1.032-.656l.3-.828c.32-.039.639-.083.959-.116a.8.8,0,0,0,.749-1.014.776.776,0,0,0-.953-.6l.3-.74,1.154-.148c.057.008.115.012.172.022a.717.717,0,0,0,.932-.4c.133-.212.263-.426.393-.64q.592-.971,1.182-1.945c.187-.187.074-.357-.068-.471a11.315,11.315,0,0,0-1.165-.86A38.494,38.494,0,0,0,87.749.318a46.592,46.592,0,0,0-6.3-2.254,5.875,5.875,0,0,0-1.821-.283c-.17.009-.3.054-.3.255-.251,1.042-.493,2.086-.76,3.124a.49.49,0,0,0,.165.554c.262.218.54.417.808.629.076.06.143.132.213.2a1.12,1.12,0,0,0-.434.05.822.822,0,0,0-.351.376c-.07.191.088.34.251.443a2.871,2.871,0,0,0,.278.136c-.068.165-.133.317-.193.471-.146.379-.289.759-.434,1.139a1.18,1.18,0,0,0-.853-.015c-.326.151-.386.447-.109.669a2.749,2.749,0,0,0,.526.26L77.98,7.254a3.716,3.716,0,0,0-.627-.145.861.861,0,0,0-.5.113c-.175.116-.158.328-.1.524a1.121,1.121,0,0,0,.72.672l-.51,1.254h-.2c-.565,0-.766.34-.5.839a16.763,16.763,0,0,0-16.741,15.8,16.426,16.426,0,0,0,.344,4.477,16.665,16.665,0,0,0,3.356,7.022Z" transform="translate(-57.969 18.463)"/>
        <path id="Path_21425" data-name="Path 21425" class="cls-5" d="M85.293-8.6a2.859,2.859,0,0,1,2.865-2.889,2.885,2.885,0,0,1,2.054.84,2.885,2.885,0,0,1,.85,2.049,2.9,2.9,0,0,1-2.89,2.879,2.86,2.86,0,0,1-2.041-.838A2.86,2.86,0,0,1,85.293-8.6Zm2.89-2.192a1.78,1.78,0,0,0-1.828,1.788,1.812,1.812,0,0,0,1.806,1.823A1.792,1.792,0,0,0,89.437-7.7a1.792,1.792,0,0,0,.531-1.27,1.762,1.762,0,0,0-1.785-1.822Z" transform="translate(-57.969 18.463)"/>
        <path id="Path_21426" data-name="Path 21426" class="cls-5" d="M81.251-13.09a2.653,2.653,0,0,1-2.678-2.691,2.667,2.667,0,0,1,2.719-2.682,2.67,2.67,0,0,1,2.655,2.719A2.665,2.665,0,0,1,81.251-13.09Zm.033-4.68a1.6,1.6,0,0,0-1.646,1.591,1.621,1.621,0,0,0,1.585,1.632,1.617,1.617,0,0,0,1.659-1.609,1.587,1.587,0,0,0-1.6-1.614Z" transform="translate(-57.969 18.463)"/>
        <path id="Path_21427" data-name="Path 21427" class="cls-5" d="M91.373-.652a2.319,2.319,0,0,1-2.308-2.39A2.345,2.345,0,0,1,91.4-5.311,2.342,2.342,0,0,1,93.724-2.95a2.322,2.322,0,0,1-.7,1.636,2.322,2.322,0,0,1-1.652.661Zm.022-3.572a1.262,1.262,0,0,0-1.267,1.249,1.289,1.289,0,0,0,1.267,1.259,1.283,1.283,0,0,0,1.266-1.258,1.254,1.254,0,0,0-.373-.888,1.255,1.255,0,0,0-.892-.362Z" transform="translate(-57.969 18.463)"/>
        <path id="Path_21428" data-name="Path 21428" class="cls-5" d="M81.252-9.685a2.318,2.318,0,0,1,2.334,2.312,2.3,2.3,0,0,1-2.358,2.338,2.3,2.3,0,0,1-2.292-2.325A2.314,2.314,0,0,1,79.61-9a2.314,2.314,0,0,1,1.642-.681Zm0,3.566a1.222,1.222,0,0,0,1.267-1.266,1.271,1.271,0,0,0-1.254-1.242,1.291,1.291,0,0,0-1.271,1.254,1.247,1.247,0,0,0,.369.888,1.247,1.247,0,0,0,.891.362Z" transform="translate(-57.969 18.463)"/>
        <path id="Path_21429" data-name="Path 21429" class="cls-6" d="M87.359,14.686A16.863,16.863,0,0,1,91.8,20.97a16.212,16.212,0,0,1,1.175,4.968,16.551,16.551,0,0,1-4.091,12.375A16.308,16.308,0,0,1,81.6,43.173a15.9,15.9,0,0,1-3.932.809,16.555,16.555,0,0,1-12.178-3.872c-.73-.6-1.355-1.332-2.026-2.007a.608.608,0,0,1-.085-.191,1.337,1.337,0,0,1,.185.064c.589.308,1.17.632,1.768.923.341.166.708.278,1.063.414l.253.144a.583.583,0,0,0,.1.105c.56.359,1.111.732,1.684,1.067a14.822,14.822,0,0,0,3.331,1.385l.251.054.1.046.251.053.1.046.1,0,.1.046.351.056.1.045.151.006.1.044.151.006.1.044.2.008.1.042.248.009.1.043.251.006.151.044.351.006.3.045.8.005h.3l.753-.005.3-.045.351-.006.151-.044.251-.006.1-.043.248-.009.1-.043c.22-.037.442-.062.658-.112A16.148,16.148,0,0,0,84.3,40.319l.1-.054h0l.053-.05h0l.1-.05h0l.05-.05h0l.1-.05h0l.05-.05h0l.1-.05h0l.05-.05h0l.1-.05h0l.05-.05h0l.1-.053h0l.1-.1.05-.047.2-.106.05-.046.151-.1.1-.1.151-.107.05-.092.151-.1h0l.1-.054.1-.1.05-.053h0l.1-.1h0l.05-.05h0l.05-.05.048-.047.1-.054h0l.05-.05h0l.05-.05h0l.05-.05h0l.05-.05h0l.05-.05h0l.05-.05h0l.053-.05,1.455-1.656c.181-.251.376-.488.541-.747a16.2,16.2,0,0,0,1.547-3.077,15.5,15.5,0,0,0,.963-4.943,12.236,12.236,0,0,0-.05-1.422c-.047-.57-.106-1.14-.2-1.706a14.706,14.706,0,0,0-1.227-3.831,15.1,15.1,0,0,0-2.031-3.2c-.156-.188-.338-.354-.508-.53l-.24-.36a3.08,3.08,0,0,0-.151-.417c-.275-.517-.561-1.029-.853-1.556l.148-.031Z" transform="translate(-57.969 18.463)"/>
        <path id="Path_21430" data-name="Path 21430" class="cls-7" d="M66.393,39.314c-.355-.136-.722-.251-1.063-.414-.6-.291-1.179-.615-1.768-.923a1.338,1.338,0,0,0-.185-.064h0l-.1-.053h0l-.05-.054A16.758,16.758,0,0,1,71.591,11.18a16.842,16.842,0,0,1,4.683-.669l.765.326.735.509a.147.147,0,0,0,0,.042,1.583,1.583,0,0,1-.273.546c-.095.082-.329,0-.5,0h-.1c-.567.016-1.136,0-1.7.056a23.136,23.136,0,0,0-2.313.336,14.393,14.393,0,0,0-4.25,1.642A15.3,15.3,0,0,0,62.92,19.7c-.242.435-.432.9-.645,1.351l-.246.555-.053.151h0l-.046.107-.006.04-.045.107h0l-.3.8-.3,1.254c-.117.818-.287,1.632-.339,2.454a13.692,13.692,0,0,0,.347,4.065c.146.611.361,1.2.545,1.806h0l.05.151h0a.205.205,0,0,0,0,.05c.05.13.1.262.155.391q.393.911.79,1.82a.552.552,0,0,0,.028.1,12.272,12.272,0,0,0,2.111,3.056C65.419,38.428,65.915,38.862,66.393,39.314Z" transform="translate(-57.969 18.463)"/>
        <path id="Path_21431" data-name="Path 21431" class="cls-8" d="M94.042,4.156,92.86,6.1c-.13.214-.26.428-.393.64a.714.714,0,0,1-.932.4c-.057-.01-.114-.015-.172-.022-.733-.18-1.473-.337-2.2-.546-.741-.214-1.466-.479-2.2-.722l-.119-.05c-.332-.131-.667-.255-1-.4-1.172-.5-2.341-1.01-3.513-1.515-.628-.335-1.254-.67-1.885-1-.231-.122-.468-.233-.7-.351-.071-.067-.137-.139-.213-.2-.268-.211-.545-.411-.808-.629a.488.488,0,0,1-.165-.552c.266-1.038.509-2.082.76-3.124a3.54,3.54,0,0,0,.552.542c.715.457,1.429.924,2.182,1.313,1.067.552,2.161,1.05,3.257,1.54a48.006,48.006,0,0,0,5.941,2.225A7.915,7.915,0,0,0,94.042,4.156Z" transform="translate(-57.969 18.463)"/>
        <path id="Path_21432" data-name="Path 21432" class="cls-9" d="M89.909,8.01a.773.773,0,0,1,.953.6.8.8,0,0,1-.749,1.014c-.32.033-.639.077-.959.116l-1.346.088H85.847a28.006,28.006,0,0,1-4.516-.537c-.834-.162-1.662-.351-2.493-.531l-1.36-.343a1.122,1.122,0,0,1-.72-.672c-.06-.2-.077-.407.1-.524a.861.861,0,0,1,.5-.113,3.621,3.621,0,0,1,.627.145l1.4.265a.455.455,0,0,0,.091.037,51.318,51.318,0,0,0,5.871.649c.985.059,1.979-.025,2.968-.044Z" transform="translate(-57.969 18.463)"/>
        <path id="Path_21433" data-name="Path 21433" class="cls-10" d="M94.042,4.156a8,8,0,0,1-2.784-.5,48.006,48.006,0,0,1-5.941-2.225c-1.1-.49-2.19-.991-3.257-1.54-.753-.388-1.467-.853-2.182-1.313a3.774,3.774,0,0,1-.552-.542c0-.2.125-.246.3-.255a5.875,5.875,0,0,1,1.821.283,46.543,46.543,0,0,1,6.3,2.254,38.872,38.872,0,0,1,5.061,2.509,11.384,11.384,0,0,1,1.165.86C94.116,3.8,94.229,3.969,94.042,4.156ZM91.669,3l.065.019L91.668,3a.652.652,0,0,0-.1-.074c-.994-.491-1.979-1-2.985-1.465a52.61,52.61,0,0,0-6.214-2.4c-.173-.055-.355-.081-.532-.12L81.783-1.1l-.013.019.066.019a5.129,5.129,0,0,0,.446.269c1.181.564,2.354,1.144,3.55,1.674a48.815,48.815,0,0,0,5.255,1.98c.19.059.39.093.581.138Z" transform="translate(-57.969 18.463)"/>
        <path id="Path_21434" data-name="Path 21434" class="cls-9" d="M77.039,10.839l-.766-.328c-.269-.5-.068-.839.5-.839h.2l1.408.254a1.379,1.379,0,0,0,.167.044c.891.125,1.779.273,2.674.366,1.142.118,2.288.193,3.432.282.233.018.467.011.7.016.213.014.426.04.639.039.423,0,.845-.021,1.267-.033l.05-.016.05.016.1-.008,1.4-.064c.649.02.9.178,1.032.656a.73.73,0,0,1-.716.957c-.341.009-.681.036-1.022.055l-1.1-.015c-.072-.011-.143-.027-.215-.033-1.313-.108-2.633-.158-3.936-.337-1.666-.229-3.317-.564-4.975-.853Z" transform="translate(-57.969 18.463)"/>
        <path id="Path_21435" data-name="Path 21435" class="cls-9" d="M86.967,5.853c.732.243,1.458.508,2.2.722.725.209,1.464.367,2.2.546l-1.154.148-1.556.053c-.989-.053-1.979-.1-2.968-.162-.414-.027-.825-.09-1.237-.137-.336-.508-.8-.57-1.162-.155l-1.768-.284-1.642-.27-1.442-.247a2.665,2.665,0,0,1-.526-.26c-.277-.222-.216-.519.109-.669a1.178,1.178,0,0,1,.853.016l1.411.206c.081.017.162.039.243.05.479.061.957.134,1.438.175.978.084,1.957.151,2.935.221.233.017.467.011.7.015Z" transform="translate(-57.969 18.463)"/>
        <path id="Path_21436" data-name="Path 21436" class="cls-9" d="M87.359,14.686l-.849-.055-.856-.09a1.345,1.345,0,0,0-.148-.039c-.864-.156-1.729-.306-2.591-.467-.594-.111-1.185-.237-1.778-.357v.005l-.1-.04-.5-.21-.054-.05h0a.661.661,0,0,1-.144-.586c.2-.393.564-.351.9-.308,1.054.141,2.1.327,3.161.459.616.077,1.24.083,1.861.121.206,0,.413.018.619.012.31-.009.619-.031.928-.047l.035-.006a.906.906,0,0,1,.919.839.705.705,0,0,1-.753.815C87.791,14.691,87.575,14.685,87.359,14.686Z" transform="translate(-57.969 18.463)"/>
        <path id="Path_21437" data-name="Path 21437" class="cls-11" d="M80.282,5.359l-1.411-.206c.145-.38.288-.76.434-1.139.059-.154.125-.306.193-.471a2.87,2.87,0,0,1-.277-.136c-.162-.1-.32-.251-.251-.443a.8.8,0,0,1,.351-.376,1.161,1.161,0,0,1,.435-.05c.234.116.471.228.7.351q.945.5,1.885,1c-.395-.03-.791-.05-1.185-.091a.269.269,0,0,0-.316.2C80.662,4.459,80.469,4.908,80.282,5.359Z" transform="translate(-57.969 18.463)"/>
        <path id="Path_21438" data-name="Path 21438" class="cls-11" d="M78.376,9.927l-1.408-.254.51-1.254,1.362.342Z" transform="translate(-57.969 18.463)"/>
        <path id="Path_21439" data-name="Path 21439" class="cls-11" d="M78.436,6.068l1.442.247-.5,1.2-1.4-.265Z" transform="translate(-57.969 18.463)"/>
        <path id="Path_21440" data-name="Path 21440" class="cls-11" d="M87.355,10.641l-.05-.016.26-.744.242-.05,1.346-.088-.3.828-1.4.064Z" transform="translate(-57.969 18.463)"/>
        <path id="Path_21441" data-name="Path 21441" class="cls-11" d="M88.656,7.323l1.556-.053-.3.74-1.6.151Z" transform="translate(-57.969 18.463)"/>
        <path id="Path_21442" data-name="Path 21442" class="cls-11" d="M87.841,13.028l-.035.006H86.3a3.476,3.476,0,0,0,.133-.373c.078-.325.251-.509.608-.437l1.1.015Z" transform="translate(-57.969 18.463)"/>
        <path id="Path_21443" data-name="Path 21443" class="cls-6" d="M63.28,37.859l.1.053Z" transform="translate(-57.969 18.463)"/>
        <path id="Path_21444" data-name="Path 21444" class="cls-6" d="M63.233,37.807l.05.054Z" transform="translate(-57.969 18.463)"/>
        <path id="Path_21445" data-name="Path 21445" class="cls-12" d="M88.183-10.794a1.763,1.763,0,0,1,1.785,1.822,1.792,1.792,0,0,1-.531,1.27,1.792,1.792,0,0,1-1.275.519,1.808,1.808,0,0,1-1.806-1.823A1.78,1.78,0,0,1,88.183-10.794Z" transform="translate(-57.969 18.463)"/>
        <path id="Path_21446" data-name="Path 21446" class="cls-12" d="M81.284-17.77a1.587,1.587,0,0,1,1.6,1.614,1.617,1.617,0,0,1-1.659,1.609,1.621,1.621,0,0,1-1.587-1.632A1.6,1.6,0,0,1,81.284-17.77Z" transform="translate(-57.969 18.463)"/>
        <path id="Path_21447" data-name="Path 21447" class="cls-12" d="M91.394-4.224a1.255,1.255,0,0,1,.892.362,1.255,1.255,0,0,1,.373.888,1.282,1.282,0,0,1-1.266,1.258,1.286,1.286,0,0,1-1.267-1.259,1.262,1.262,0,0,1,1.267-1.249Zm.286.4a.811.811,0,0,0-.864.781.848.848,0,0,0,.816.872.848.848,0,0,0,.839-.824.8.8,0,0,0-.222-.58.8.8,0,0,0-.57-.248Z" transform="translate(-57.969 18.463)"/>
        <path id="Path_21448" data-name="Path 21448" class="cls-12" d="M81.254-6.122a1.247,1.247,0,0,1-.891-.363A1.247,1.247,0,0,1,80-7.374a1.29,1.29,0,0,1,1.271-1.254A1.269,1.269,0,0,1,82.52-7.386,1.219,1.219,0,0,1,81.254-6.122Zm-.031-2.315a.824.824,0,0,0-.586.24.824.824,0,0,0-.243.584.857.857,0,0,0,.835.83.822.822,0,0,0,.815-.86.8.8,0,0,0-.244-.569.8.8,0,0,0-.577-.224Z" transform="translate(-57.969 18.463)"/>
        <path id="Path_21449" data-name="Path 21449" class="cls-13" d="M81.141,13.677c.593.119,1.184.246,1.778.357.863.161,1.728.311,2.591.467a1.346,1.346,0,0,1,.145.041,1.291,1.291,0,0,1-.06.163.321.321,0,0,0,.106.474c.537.444,1.042.927,1.561,1.393a.832.832,0,0,0,.1.066l.24.36a2.391,2.391,0,0,0,.071.237,16.768,16.768,0,0,1,1.274,6.172,19.893,19.893,0,0,1-.143,2.315A14.732,14.732,0,0,1,88.056,29a17.385,17.385,0,0,1-2.007,4.046c-.015,0-.03,0-.045,0a38.017,38.017,0,0,0-3.054-3.389,7.459,7.459,0,0,0-1.756-1.382c-.514-.261-1.07-.44-1.606-.652a.254.254,0,0,0-.008-.05,2.243,2.243,0,0,0-.337-1.281.982.982,0,0,1,.351-1.331,1.481,1.481,0,0,1,.972-.243.939.939,0,0,0,.959-.539,5.419,5.419,0,0,0,.614-1.78c.056-.331.1-.664.156-1a1.328,1.328,0,0,1,.19.05c.543.235,1.079.487,1.627.708a6.351,6.351,0,0,0,2.535.592,1.333,1.333,0,0,0,1.467-1.2,5.5,5.5,0,0,0,.042-.9,3.914,3.914,0,0,0-.629-2.075,9.717,9.717,0,0,0-1.857-2.048,16.487,16.487,0,0,0-2.938-2.022C82.207,14.219,81.67,13.954,81.141,13.677Z" transform="translate(-57.969 18.463)"/>
        <path id="Path_21450" data-name="Path 21450" class="cls-14" d="M86,33.05l.045,0a.943.943,0,0,0,.079.151c.583.753,1.174,1.5,1.75,2.258.243.321.456.666.682,1l-1.455,1.656-.053.05h0l-.05.05h0l-.05.05h0l-.05.05h0c-.017.017-.034.033-.05.05h0l-.05.05h0l-.05.05h0l-.1.054-.048.047-.05.05h0l-.05.05h0l-.1.1h0l-.05.053-.1.1-.1.054h0l-.151.1-.05.092-.151.107-.1.1-.151.1-.05.046-.2.106-.05.047-.1.1h0l-.1.053h0l-.05.05h0l-.1.05h0l-.05.05h0l-.1.05h0l-.05.05h0l-.1.05h0l-.05.05h0l-.1.05h0l-.053.05h0l-.1.054a16.148,16.148,0,0,1-4.958,2.042c-.217.05-.439.076-.658.112l-.1.043-.248.009-.1.043-.251.006-.151.044-.351.006c-.112-.058-.224-.119-.3.045l-.753.005h-.3l-.8-.005c-.079-.165-.191-.1-.3-.045l-.351-.006-.151-.044-.251-.006-.1-.043-.248-.009-.1-.042-.2-.008-.1-.044-.151-.006-.1-.044-.151-.006-.1-.045-.351-.056-.1-.046-.1,0-.1-.046-.251-.053-.1-.046-.251-.054a.763.763,0,0,0-.19-.131,14.846,14.846,0,0,1-3.412-1.571,10.077,10.077,0,0,1-.863-.652.458.458,0,0,1,.1.009,17.536,17.536,0,0,0,2.976.6,18.913,18.913,0,0,0,3.442.032c.187-.013.372-.061.558-.092l.2,0c.02.014.038.036.06.042a6.892,6.892,0,0,0,3.5-.011,3.621,3.621,0,0,0,1.787-.893,3.755,3.755,0,0,0,.816-1.3.173.173,0,0,1,.005-.05l.05-.047v0c.167-.091.34-.173.5-.275a16.2,16.2,0,0,0,3.732-3.293C85.372,33.966,85.677,33.5,86,33.05Z" transform="translate(-57.969 18.463)"/>
        <path id="Path_21451" data-name="Path 21451" class="cls-15" d="M88.562,36.454c-.227-.334-.439-.679-.682-1-.576-.759-1.167-1.505-1.75-2.258a.943.943,0,0,1-.079-.151A17.384,17.384,0,0,0,88.057,29a14.758,14.758,0,0,0,.748-3.277,19.891,19.891,0,0,0,.143-2.315,16.768,16.768,0,0,0-1.274-6.172A2.387,2.387,0,0,1,87.6,17c.17.176.351.343.508.53a15.1,15.1,0,0,1,2.03,3.2,14.706,14.706,0,0,1,1.22,3.839c.1.564.155,1.134.2,1.706a12.236,12.236,0,0,1,.05,1.422,15.5,15.5,0,0,1-.963,4.943A16.2,16.2,0,0,1,89.1,35.711C88.938,35.966,88.743,36.206,88.562,36.454Z" transform="translate(-57.969 18.463)"/>
        <path id="Path_21452" data-name="Path 21452" class="cls-7" d="M87.363,16.637a.831.831,0,0,1-.1-.066c-.519-.466-1.024-.949-1.561-1.393A.321.321,0,0,1,85.6,14.7a1.292,1.292,0,0,0,.06-.163l.856.09-.148.031c.29.528.576,1.04.853,1.556A4.341,4.341,0,0,1,87.363,16.637Z" transform="translate(-57.969 18.463)"/>
        <path id="Path_21453" data-name="Path 21453" class="cls-16" d="M66.393,39.314c-.478-.452-.975-.886-1.429-1.361A12.227,12.227,0,0,1,62.853,34.9a.552.552,0,0,1-.028-.1.834.834,0,0,1,.151.142c.187.295.355.6.552.889a15.477,15.477,0,0,0,3.042,3.335,2.8,2.8,0,0,1,.273.3l-.2-.01Z" transform="translate(-57.969 18.463)"/>
        <path id="Path_21454" data-name="Path 21454" class="cls-17" d="M66.646,39.457l.2.01.452.2c.287.218.557.463.863.652a14.8,14.8,0,0,0,3.412,1.571.763.763,0,0,1,.19.131,14.822,14.822,0,0,1-3.331-1.385c-.573-.336-1.124-.709-1.684-1.067A.583.583,0,0,1,66.646,39.457Z" transform="translate(-57.969 18.463)"/>
        <path id="Path_21455" data-name="Path 21455" class="cls-17" d="M76.123,42.673Z" transform="translate(-57.969 18.463)"/>
        <path id="Path_21456" data-name="Path 21456" class="cls-17" d="M77.173,42.668c.079-.165.191-.1.3-.045Z" transform="translate(-57.969 18.463)"/>
        <path id="Path_21457" data-name="Path 21457" class="cls-17" d="M75.019,42.623c.111-.057.224-.12.3.045Z" transform="translate(-57.969 18.463)"/>
        <path id="Path_21458" data-name="Path 21458" class="cls-17" d="M77.825,42.617l.151-.044Z" transform="translate(-57.969 18.463)"/>
        <path id="Path_21459" data-name="Path 21459" class="cls-17" d="M74.517,42.573l.151.044Z" transform="translate(-57.969 18.463)"/>
        <path id="Path_21460" data-name="Path 21460" class="cls-15" d="M85.3,39.617l.2-.106Z" transform="translate(-57.969 18.463)"/>
        <path id="Path_21461" data-name="Path 21461" class="cls-15" d="M85.549,39.464l.151-.1Z" transform="translate(-57.969 18.463)"/>
        <path id="Path_21462" data-name="Path 21462" class="cls-15" d="M85.8,39.265l.151-.107Z" transform="translate(-57.969 18.463)"/>
        <path id="Path_21463" data-name="Path 21463" class="cls-15" d="M86,39.065l.151-.1Z" transform="translate(-57.969 18.463)"/>
        <path id="Path_21464" data-name="Path 21464" class="cls-17" d="M78.226,42.567l.1-.043Z" transform="translate(-57.969 18.463)"/>
        <path id="Path_21465" data-name="Path 21465" class="cls-17" d="M74.166,42.524l.1.043Z" transform="translate(-57.969 18.463)"/>
        <path id="Path_21466" data-name="Path 21466" class="cls-17" d="M78.577,42.515l.1-.043Z" transform="translate(-57.969 18.463)"/>
        <path id="Path_21467" data-name="Path 21467" class="cls-17" d="M73.815,42.473l.1.042Z" transform="translate(-57.969 18.463)"/>
        <path id="Path_21468" data-name="Path 21468" class="cls-17" d="M73.514,42.422l.1.044Z" transform="translate(-57.969 18.463)"/>
        <path id="Path_21469" data-name="Path 21469" class="cls-17" d="M73.263,42.372l.1.044Z" transform="translate(-57.969 18.463)"/>
        <path id="Path_21470" data-name="Path 21470" class="cls-17" d="M73.012,42.321l.1.045Z" transform="translate(-57.969 18.463)"/>
        <path id="Path_21471" data-name="Path 21471" class="cls-17" d="M72.56,42.219l.1.046Z" transform="translate(-57.969 18.463)"/>
        <path id="Path_21472" data-name="Path 21472" class="cls-17" d="M72.359,42.169l.1.046Z" transform="translate(-57.969 18.463)"/>
        <path id="Path_21473" data-name="Path 21473" class="cls-17" d="M72.008,42.07l.1.046Z" transform="translate(-57.969 18.463)"/>
        <path id="Path_21474" data-name="Path 21474" class="cls-15" d="M85.147,39.763l.1-.1Z" transform="translate(-57.969 18.463)"/>
        <path id="Path_21475" data-name="Path 21475" class="cls-15" d="M86.4,38.761l.1-.1Z" transform="translate(-57.969 18.463)"/>
        <path id="Path_21476" data-name="Path 21476" class="cls-15" d="M86.152,38.963l.1-.054Z" transform="translate(-57.969 18.463)"/>
        <path id="Path_21477" data-name="Path 21477" class="cls-15" d="M86.653,38.513l.1-.054Z" transform="translate(-57.969 18.463)"/>
        <path id="Path_21478" data-name="Path 21478" class="cls-15" d="M85.048,39.815l.1-.053Z" transform="translate(-57.969 18.463)"/>
        <path id="Path_21479" data-name="Path 21479" class="cls-15" d="M84.9,39.916l.1-.05Z" transform="translate(-57.969 18.463)"/>
        <path id="Path_21480" data-name="Path 21480" class="cls-15" d="M84.3,40.318l.1-.054Z" transform="translate(-57.969 18.463)"/>
        <path id="Path_21481" data-name="Path 21481" class="cls-15" d="M84.748,40.016l.1-.05Z" transform="translate(-57.969 18.463)"/>
        <path id="Path_21482" data-name="Path 21482" class="cls-15" d="M84.447,40.217l.1-.05Z" transform="translate(-57.969 18.463)"/>
        <path id="Path_21483" data-name="Path 21483" class="cls-15" d="M84.6,40.116l.1-.05Z" transform="translate(-57.969 18.463)"/>
        <path id="Path_21484" data-name="Path 21484" class="cls-15" d="M84.546,40.165l.05-.05Z" transform="translate(-57.969 18.463)"/>
        <path id="Path_21485" data-name="Path 21485" class="cls-15" d="M84.7,40.065l.05-.05Z" transform="translate(-57.969 18.463)"/>
        <path id="Path_21486" data-name="Path 21486" class="cls-15" d="M84.4,40.265l.053-.05Z" transform="translate(-57.969 18.463)"/>
        <path id="Path_21487" data-name="Path 21487" class="cls-15" d="M84.847,39.965l.05-.05Z" transform="translate(-57.969 18.463)"/>
        <path id="Path_21488" data-name="Path 21488" class="cls-15" d="M86.8,38.409l.05-.05Z" transform="translate(-57.969 18.463)"/>
        <path id="Path_21489" data-name="Path 21489" class="cls-15" d="M86.853,38.359l.05-.05Z" transform="translate(-57.969 18.463)"/>
        <path id="Path_21490" data-name="Path 21490" class="cls-15" d="M86.9,38.309l.05-.05Z" transform="translate(-57.969 18.463)"/>
        <path id="Path_21491" data-name="Path 21491" class="cls-15" d="M86.953,38.259l.05-.05Z" transform="translate(-57.969 18.463)"/>
        <path id="Path_21492" data-name="Path 21492" class="cls-15" d="M87,38.209l.05-.05Z" transform="translate(-57.969 18.463)"/>
        <path id="Path_21493" data-name="Path 21493" class="cls-15" d="M87.054,38.159l.053-.05Z" transform="translate(-57.969 18.463)"/>
        <path id="Path_21494" data-name="Path 21494" class="cls-15" d="M85,39.864l.05-.05Z" transform="translate(-57.969 18.463)"/>
        <path id="Path_21495" data-name="Path 21495" class="cls-15" d="M86.752,38.459l.05-.05Z" transform="translate(-57.969 18.463)"/>
        <path id="Path_21496" data-name="Path 21496" class="cls-15" d="M86.554,38.612l.05-.05Z" transform="translate(-57.969 18.463)"/>
        <path id="Path_21497" data-name="Path 21497" class="cls-15" d="M86.5,38.662l.05-.05Z" transform="translate(-57.969 18.463)"/>
        <path id="Path_21498" data-name="Path 21498" class="cls-15" d="M86.352,38.813l.05-.053Z" transform="translate(-57.969 18.463)"/>
        <path id="Path_21499" data-name="Path 21499" class="cls-18" d="M67.3,39.664l-.452-.2a2.948,2.948,0,0,0-.273-.3,15.478,15.478,0,0,1-3.042-3.334c-.195-.289-.363-.595-.552-.889a.834.834,0,0,0-.151-.142l-.79-1.82c-.056-.128-.1-.26-.155-.391.006-.005.018-.012.017-.015a.212.212,0,0,0-.018-.035h0l-.05-.151h0a1.6,1.6,0,0,0-.031-.246,17.068,17.068,0,0,1-.67-4.942c.02-1.046.1-2.091.151-3.137l.3-1.254.3-.8h0l.045-.107.006-.04.046-.107h0l.053-.151.246-.555c.466.574.907,1.169,1.405,1.714A14.958,14.958,0,0,0,65.018,24c.288.246.616.447.926.667a.207.207,0,0,0,0,.043,3.472,3.472,0,0,0-.7.616,2.98,2.98,0,0,0-.065,3.154A6.421,6.421,0,0,0,66.7,30.2a8.528,8.528,0,0,1,1.9,2.3.835.835,0,0,0,.853.445.773.773,0,0,0,.662-.563,9.159,9.159,0,0,0,.481-3.386,1.4,1.4,0,0,0-.237-.665,1.233,1.233,0,0,1-.163-.446,2.354,2.354,0,0,0-.6-1.455c.673.087,1.345.186,2.021.258s1.369.122,2.054.182v.005c0,.33,0,.66-.009.99a9.445,9.445,0,0,1-.547,2.724c-.237.753-.478,1.505-.717,2.258a.751.751,0,0,0,.287.9.8.8,0,0,0,.933.093c.238-.135.464-.292.692-.444a17.786,17.786,0,0,0,2.977-2.417c.576-.6,1.072-1.268,1.595-1.913a2.977,2.977,0,0,0,.7-1.442c.538.215,1.094.393,1.606.652a7.418,7.418,0,0,1,1.756,1.382A38.017,38.017,0,0,1,86,33.044c-.328.452-.633.917-.987,1.344a16.2,16.2,0,0,1-3.726,3.3c-.16.1-.333.184-.5.275a1.694,1.694,0,0,1,.031-.221,1.944,1.944,0,0,0-1.577-2.388,6.041,6.041,0,0,0-1,.034,1.786,1.786,0,0,0-.3-.416.955.955,0,0,0-1.1-.006A20.385,20.385,0,0,1,73.423,36.3c-.858.222-1.731.393-2.6.552-.494.089-.839.32-.914.719A.877.877,0,0,0,70.5,38.6c.507.233,1.024.445,1.54.658.776.321,1.556.636,2.331.953-.186.032-.371.079-.558.092a18.733,18.733,0,0,1-3.442-.032,17.536,17.536,0,0,1-2.976-.6.458.458,0,0,0-.1-.01Z" transform="translate(-57.969 18.463)"/>
        <path id="Path_21500" data-name="Path 21500" class="cls-13" d="M73.674,26.864c-.685-.059-1.371-.108-2.054-.182s-1.347-.171-2.021-.258l-.246-.1a.971.971,0,0,0-.092-1.162,1.656,1.656,0,0,0-1.5-.874,18.1,18.1,0,0,0-1.82.387c-.31-.221-.638-.421-.926-.667a14.957,14.957,0,0,1-1.335-1.24c-.5-.544-.939-1.14-1.405-1.714.214-.452.4-.916.645-1.351a15.3,15.3,0,0,1,5.721-5.736,14.409,14.409,0,0,1,4.25-1.642,23.138,23.138,0,0,1,2.313-.336c.563-.057,1.132-.04,1.7-.056H77c.172.006.405.084.5,0a1.583,1.583,0,0,0,.273-.546c.362.216.719.445,1.088.647.486.265.984.51,1.476.764a.666.666,0,0,0,.144.586l-.9-.3a15.607,15.607,0,0,0-3.2-.759,7.906,7.906,0,0,0-2.506.045,20.9,20.9,0,0,0-3.809,1.188,1.23,1.23,0,0,0-.233.168c-.238.075-.481.139-.715.227a6.08,6.08,0,0,0-3.645,3.362,3.921,3.921,0,0,0-.2,2.964,1.309,1.309,0,0,0,1.652.958,6.661,6.661,0,0,0,2.372-1.023c.885-.549,1.76-1.113,2.639-1.671.379.04.761.065,1.138.121,1.057.157,2.113.318,3.166.5.43.073.85.2,1.274.3a3.648,3.648,0,0,0-.971,1.656c-.084.317-.432.433-.829.391a3.23,3.23,0,0,0-.864.008,2.279,2.279,0,0,0-1.706,3.052A7.1,7.1,0,0,1,73.674,26.864Z" transform="translate(-57.969 18.463)"/>
        <path id="Path_21501" data-name="Path 21501" class="cls-19" d="M80.343,12.8c-.493-.251-.99-.5-1.476-.764-.37-.2-.726-.431-1.088-.647,0-.014,0-.028,0-.042L77.92,11c1.656.289,3.312.623,4.975.853,1.3.18,2.623.229,3.936.337.072.006.143.022.215.033-.36-.072-.53.112-.608.437a3.475,3.475,0,0,1-.133.373l-.046.037c-.621-.038-1.245-.044-1.861-.121-1.054-.131-2.1-.318-3.161-.459C80.907,12.445,80.539,12.4,80.343,12.8Z" transform="translate(-57.969 18.463)"/>
        <path id="Path_21502" data-name="Path 21502" class="cls-13" d="M61.279,24.066c-.05,1.046-.128,2.09-.151,3.137a17.142,17.142,0,0,0,.67,4.942,1.6,1.6,0,0,1,.031.246c-.184-.6-.4-1.2-.545-1.806a13.692,13.692,0,0,1-.347-4.065C60.992,25.7,61.162,24.884,61.279,24.066Z" transform="translate(-57.969 18.463)"/>
        <path id="Path_21503" data-name="Path 21503" class="cls-11" d="M77.92,11l-.146.346-.735-.507Z" transform="translate(-57.969 18.463)"/>
        <path id="Path_21504" data-name="Path 21504" class="cls-13" d="M61.881,22.011l-.3.8Z" transform="translate(-57.969 18.463)"/>
        <path id="Path_21505" data-name="Path 21505" class="cls-13" d="M61.831,32.39l.05.151Z" transform="translate(-57.969 18.463)"/>
        <path id="Path_21506" data-name="Path 21506" class="cls-13" d="M62.03,21.607l-.053.151Z" transform="translate(-57.969 18.463)"/>
        <path id="Path_21507" data-name="Path 21507" class="cls-13" d="M61.926,21.905l-.045.107Z" transform="translate(-57.969 18.463)"/>
        <path id="Path_21508" data-name="Path 21508" class="cls-13" d="M61.978,21.758l-.046.107Z" transform="translate(-57.969 18.463)"/>
        <path id="Path_21509" data-name="Path 21509" class="cls-13" d="M61.88,32.541a.212.212,0,0,1,.018.035l-.017.015a.206.206,0,0,1,0-.05Z" transform="translate(-57.969 18.463)"/>
        <path id="Path_21510" data-name="Path 21510" class="cls-19" d="M80.282,5.359c.187-.452.38-.9.559-1.355a.266.266,0,0,1,.316-.2c.394.038.79.061,1.185.091,1.17.505,2.339,1.014,3.513,1.515.328.141.664.265,1,.4L85.6,5.821c-.234,0-.468,0-.7-.015-.979-.069-1.957-.137-2.935-.221-.481-.041-.959-.114-1.438-.175C80.444,5.4,80.363,5.376,80.282,5.359Z" transform="translate(-57.969 18.463)"/>
        <path id="Path_21511" data-name="Path 21511" class="cls-20" d="M85.6,5.821l1.248-.015.119.05Z" transform="translate(-57.969 18.463)"/>
        <path id="Path_21512" data-name="Path 21512" class="cls-19" d="M88.656,7.323l-.344.839c-.99.019-1.983.1-2.968.044a51.244,51.244,0,0,1-5.871-.649.455.455,0,0,1-.091-.037l.5-1.2,1.642.27,1.768.284a.645.645,0,0,0,.16.935.606.606,0,0,0,.89-.171,1.759,1.759,0,0,0,.112-.609c.412.047.823.111,1.237.137C86.677,7.226,87.667,7.27,88.656,7.323Z" transform="translate(-57.969 18.463)"/>
        <path id="Path_21513" data-name="Path 21513" class="cls-19" d="M87.567,9.881l-.26.744-.05.016-1.907-.007c-.234,0-.468,0-.7-.016-1.144-.088-2.29-.164-3.432-.282-.894-.093-1.783-.241-2.674-.366a1.378,1.378,0,0,1-.167-.044l.464-1.167c.831.178,1.659.37,2.493.531a27.743,27.743,0,0,0,4.516.537,1.549,1.549,0,0,0,.237.039C86.578,9.875,87.073,9.877,87.567,9.881Z" transform="translate(-57.969 18.463)"/>
        <path id="Path_21514" data-name="Path 21514" class="cls-16" d="M87.567,9.881c-.494,0-.989-.006-1.482-.014a1.549,1.549,0,0,1-.237-.039h1.962Z" transform="translate(-57.969 18.463)"/>
        <path id="Path_21515" data-name="Path 21515" class="cls-8" d="M81.839-1.06c.178.04.359.066.532.12a52.61,52.61,0,0,1,6.214,2.4c1,.466,1.991.974,2.985,1.465a.652.652,0,0,1,.1.074h0c-.193-.046-.39-.08-.579-.138A48.812,48.812,0,0,1,85.835.883c-1.2-.532-2.369-1.11-3.55-1.674a5.131,5.131,0,0,1-.446-.269Z" transform="translate(-57.969 18.463)"/>
        <path id="Path_21516" data-name="Path 21516" class="cls-8" d="M81.839-1.06l-.066-.019.013-.019.053.038Z" transform="translate(-57.969 18.463)"/>
        <path id="Path_21517" data-name="Path 21517" class="cls-8" d="M91.668,3l.066.018L91.669,3Z" transform="translate(-57.969 18.463)"/>
        <path id="Path_21518" data-name="Path 21518" class="cls-20" d="M85.349,10.634l1.907.007c-.423.012-.845.03-1.267.033C85.775,10.674,85.562,10.648,85.349,10.634Z" transform="translate(-57.969 18.463)"/>
        <path id="Path_21519" data-name="Path 21519" class="cls-20" d="M87.355,10.641l.1-.008Z" transform="translate(-57.969 18.463)"/>
        <path id="Path_21520" data-name="Path 21520" class="cls-12" d="M84.453,7.025a1.792,1.792,0,0,1-.112.609.606.606,0,0,1-.89.171.645.645,0,0,1-.16-.935C83.654,6.454,84.115,6.516,84.453,7.025Z" transform="translate(-57.969 18.463)"/>
        <path id="Path_21521" data-name="Path 21521" class="cls-21" d="M77.528,19.456c-.425-.1-.845-.227-1.274-.3-1.054-.179-2.108-.34-3.166-.5-.377-.056-.759-.081-1.138-.12l.53-.375a5.9,5.9,0,0,0,1.662-1.535,2.559,2.559,0,0,0,.365-.864,1.19,1.19,0,0,0-.488-1.1,4.238,4.238,0,0,0-3.283-1.048c-.3.017-.594.066-.89.1a1.23,1.23,0,0,1,.233-.168,20.9,20.9,0,0,1,3.809-1.188,7.906,7.906,0,0,1,2.506-.045,15.64,15.64,0,0,1,3.2.759l.9.3h0l.054.05.5.21.1.04v-.005c.531.276,1.068.542,1.592.832a16.487,16.487,0,0,1,2.938,2.022,9.69,9.69,0,0,1,1.857,2.048,3.914,3.914,0,0,1,.629,2.075,5.5,5.5,0,0,1-.042.9,1.332,1.332,0,0,1-1.467,1.2,6.351,6.351,0,0,1-2.535-.592c-.548-.221-1.084-.473-1.627-.708a1.328,1.328,0,0,0-.19-.05,9.875,9.875,0,0,0-.084-1.092A2.474,2.474,0,0,0,80.76,18.6a1.945,1.945,0,0,0-2.043.025C78.3,18.878,77.923,19.179,77.528,19.456Zm1.255-4.835a.7.7,0,1,0-.683.716A.714.714,0,0,0,78.782,14.621Zm6.9,6.236a.539.539,0,0,0,.567-.507.552.552,0,1,0-1.1-.032.534.534,0,0,0,.535.538Z" transform="translate(-57.969 18.463)"/>
        <path id="Path_21522" data-name="Path 21522" class="cls-10" d="M86.259,13.069l.046-.037h1.5c-.309.016-.619.038-.928.047C86.672,13.087,86.465,13.074,86.259,13.069Z" transform="translate(-57.969 18.463)"/>
        <path id="Path_21523" data-name="Path 21523" class="cls-13" d="M81.141,13.682l-.1-.04Z" transform="translate(-57.969 18.463)"/>
        <path id="Path_21524" data-name="Path 21524" class="cls-13" d="M80.539,13.432l-.054-.05Z" transform="translate(-57.969 18.463)"/>
        <path id="Path_21525" data-name="Path 21525" class="cls-9" d="M91.679-3.823a.8.8,0,0,1,.569.248.8.8,0,0,1,.222.58.848.848,0,0,1-.839.824.848.848,0,0,1-.816-.872A.812.812,0,0,1,91.679-3.823Z" transform="translate(-57.969 18.463)"/>
        <path id="Path_21526" data-name="Path 21526" class="cls-9" d="M81.223-8.436a.8.8,0,0,1,.578.224.8.8,0,0,1,.243.57.822.822,0,0,1-.815.86.857.857,0,0,1-.834-.83.824.824,0,0,1,.243-.584A.824.824,0,0,1,81.223-8.436Z" transform="translate(-57.969 18.463)"/>
        <path id="Path_21527" data-name="Path 21527" class="cls-22" d="M77.528,19.456c.4-.277.776-.578,1.189-.826a1.942,1.942,0,0,1,2.043-.025,2.478,2.478,0,0,1,1.451,1.706A9.87,9.87,0,0,1,82.3,21.4c-.05.332-.1.665-.156,1a5.419,5.419,0,0,1-.614,1.78.941.941,0,0,1-.959.539,1.481,1.481,0,0,0-.972.243.978.978,0,0,0-.351,1.331,2.239,2.239,0,0,1,.337,1.281l-.987-.209c-.064-.232-.135-.462-.19-.7a2.294,2.294,0,0,1,.767-2.47c.064-.053.119-.115.179-.173.288-.04.581-.059.863-.124a.762.762,0,0,0,.611-.5,7.158,7.158,0,0,0,.474-2.763,1.344,1.344,0,0,0-1.037-1.355,4.168,4.168,0,0,0-.723-.02,3.575,3.575,0,0,0-.57.156,3.011,3.011,0,0,0-1.65,1.845c-.151.44-.324.875-.516,1.3a.391.391,0,0,1-.6.193,1.6,1.6,0,0,1-.215-.126,1.225,1.225,0,0,0-1.47.061,1.209,1.209,0,0,0-.57,1.334c.078.374.174.745.254,1.12.127.593.247,1.187.37,1.781l-.889-.05v-.005a7.1,7.1,0,0,0-.514-2.3,2.276,2.276,0,0,1,1.706-3.052,3.23,3.23,0,0,1,.864-.008c.4.042.746-.075.829-.391A3.552,3.552,0,0,1,77.528,19.456Z" transform="translate(-57.969 18.463)"/>
        <path id="Path_21528" data-name="Path 21528" class="cls-23" d="M78.591,27.365l.987.209a.5.5,0,0,1,.008.05,2.986,2.986,0,0,1-.7,1.442c-.523.645-1.019,1.318-1.595,1.913A17.791,17.791,0,0,1,74.314,33.4c-.228.151-.455.309-.692.444a.8.8,0,0,1-.933-.093.756.756,0,0,1-.287-.9c.239-.753.48-1.505.717-2.258a9.445,9.445,0,0,0,.547-2.724c0-.33.006-.659.009-.99l.889.05q.026.277.054.555c-.016.028-.043.055-.046.084a20.239,20.239,0,0,1-.829,3.914c-.143.465-.3.924-.468,1.416a2.022,2.022,0,0,0,.2-.086,11.937,11.937,0,0,0,3.943-3.358c.319-.433.573-.913.856-1.371A.715.715,0,0,0,78.591,27.365Z" transform="translate(-57.969 18.463)"/>
        <path id="Path_21529" data-name="Path 21529" class="cls-23" d="M74.37,40.216c-.777-.318-1.556-.632-2.331-.953-.516-.213-1.033-.425-1.54-.658a.877.877,0,0,1-.59-1.035c.075-.4.42-.63.914-.719.873-.158,1.745-.329,2.6-.552a20.385,20.385,0,0,0,3.417-1.334.955.955,0,0,1,1.1.006,1.828,1.828,0,0,1,.3.416,6.048,6.048,0,0,1,1-.034,1.944,1.944,0,0,1,1.577,2.388,1.7,1.7,0,0,0-.031.221v0l-.05.047c0,.017,0,.033-.005.05-.294.154-.584.314-.883.458-.221.106-.452.19-.68.284l.459-.838a1.025,1.025,0,0,0-.415-1.587c-.042-.026-.089-.046-.133-.068-.2-.184-.351-.2-.511-.05-.11.106-.2.231-.3.348-.1.068-.2.131-.29.2s-.188.2-.3.241A.456.456,0,0,1,77.319,37c-.074-.055-.089-.207-.1-.32a2.574,2.574,0,0,1,.013-.3.251.251,0,0,0-.321-.272c-.314.069-.622.161-.933.244-.08.024-.16.045-.239.071-1,.322-1.992.657-3,.959-.473.143-.965.224-1.448.333l-.034.071a1.9,1.9,0,0,0,.384.266c1.185.444,2.369.889,3.566,1.3a6.99,6.99,0,0,0,1.119.2l1.21-.09a1.969,1.969,0,0,1-.318.135c-.882.209-1.765.41-2.648.614Z" transform="translate(-57.969 18.463)"/>
        <path id="Path_21530" data-name="Path 21530" class="cls-24" d="M74.567,40.218c.883-.2,1.766-.405,2.648-.614a1.968,1.968,0,0,0,.318-.135.27.27,0,0,0,.04-.008l.154-.046,1.154-.448.19-.106.1-.058,0-.007c.227-.093.459-.177.68-.284.3-.144.589-.3.883-.458a3.756,3.756,0,0,1-.816,1.3,3.621,3.621,0,0,1-1.787.893,6.892,6.892,0,0,1-3.5.011C74.606,40.254,74.588,40.232,74.567,40.218Z" transform="translate(-57.969 18.463)"/>
        <path id="Path_21531" data-name="Path 21531" class="cls-18" d="M80.739,38.005l.05-.047Z" transform="translate(-57.969 18.463)"/>
        <path id="Path_21532" data-name="Path 21532" class="cls-23" d="M69.352,26.322l.246.1a2.361,2.361,0,0,1,.6,1.455,1.217,1.217,0,0,0,.163.446,1.405,1.405,0,0,1,.237.665,9.159,9.159,0,0,1-.481,3.386.773.773,0,0,1-.662.563.835.835,0,0,1-.853-.445,8.52,8.52,0,0,0-1.9-2.3,6.348,6.348,0,0,1-1.518-1.709,2.98,2.98,0,0,1,.065-3.154,3.456,3.456,0,0,1,.7-.616l.756.5c-.093.035-.186.072-.28.1a1.131,1.131,0,0,0-.76.741,2.464,2.464,0,0,0,.94,2.926c.234.259.465.521.7.777.492.53,1,1.049,1.477,1.591a7.089,7.089,0,0,1,.522.778,1.114,1.114,0,0,0,.18-.272,9.614,9.614,0,0,0,.369-2.679c-.012-.29-.137-.418-.424-.507-.332-.1-.656-.229-.984-.345.015-.225.168-.31.36-.351.113-.023.23-.03.344-.05.338-.056.362-.125.146-.4-.09-.381-.164-.461-.452-.494l-.644-.074c-.028-.086-.107-.208-.076-.251.145-.207.32-.392.485-.586Z" transform="translate(-57.969 18.463)"/>
        <path id="Path_21533" data-name="Path 21533" class="cls-22" d="M69.352,26.322l-.744-.2c.022-.156.108-.342.05-.462a.89.89,0,0,0-.853-.587,6.629,6.629,0,0,0-.83.138l-.277.005-.756-.5a.207.207,0,0,1,0-.043,18.1,18.1,0,0,1,1.82-.387,1.656,1.656,0,0,1,1.5.874A.968.968,0,0,1,69.352,26.322Z" transform="translate(-57.969 18.463)"/>
        <path id="Path_21534" data-name="Path 21534" class="cls-25" d="M69.846,13.722c.3-.035.592-.084.89-.1a4.238,4.238,0,0,1,3.283,1.048,1.19,1.19,0,0,1,.488,1.1,2.559,2.559,0,0,1-.365.864,5.889,5.889,0,0,1-1.662,1.535l-.53.375c-.88.557-1.756,1.122-2.639,1.67a6.634,6.634,0,0,1-2.372,1.023,1.311,1.311,0,0,1-1.652-.958,3.927,3.927,0,0,1,.2-2.964,6.081,6.081,0,0,1,3.645-3.362C69.365,13.861,69.608,13.8,69.846,13.722Z" transform="translate(-57.969 18.463)"/>
        <path id="Path_21535" data-name="Path 21535" class="cls-26" d="M78.782,14.621a.7.7,0,1,1-.691-.731A.72.72,0,0,1,78.782,14.621Z" transform="translate(-57.969 18.463)"/>
        <path id="Path_21536" data-name="Path 21536" class="cls-26" d="M85.685,20.858a.534.534,0,0,1-.536-.538.552.552,0,1,1,1.1.032A.539.539,0,0,1,85.685,20.858Z" transform="translate(-57.969 18.463)"/>
        <path id="Path_21537" data-name="Path 21537" class="cls-9" d="M74.618,27.477q-.027-.277-.054-.555c-.123-.594-.243-1.188-.37-1.781-.08-.374-.176-.745-.254-1.12a1.209,1.209,0,0,1,.57-1.334,1.223,1.223,0,0,1,1.47-.061,1.6,1.6,0,0,0,.215.126c.273.129.479.081.6-.193.192-.424.364-.858.516-1.3a3.007,3.007,0,0,1,1.65-1.845,3.629,3.629,0,0,1,.57-.156,1.557,1.557,0,0,0,0,.41c.1.367.23.728.358,1.087a.78.78,0,0,1-.232.959c-.3.242-.576.5-.864.753a.736.736,0,0,0-.175.928.86.86,0,0,0,.727.631c-.059.058-.115.12-.179.173a2.294,2.294,0,0,0-.767,2.47c.055.234.126.464.19.7a.717.717,0,0,1-.313.714,8.117,8.117,0,0,1-1.221-.279,3.254,3.254,0,0,0-1.269-.173A2.378,2.378,0,0,1,74.618,27.477Z" transform="translate(-57.969 18.463)"/>
        <path id="Path_21538" data-name="Path 21538" class="cls-27" d="M79.346,24.026a.863.863,0,0,1-.727-.631.736.736,0,0,1,.175-.928c.289-.251.569-.509.864-.753a.78.78,0,0,0,.232-.959c-.128-.359-.254-.72-.358-1.087a1.578,1.578,0,0,1,0-.41,4.167,4.167,0,0,1,.723.02,1.347,1.347,0,0,1,1.037,1.355A7.187,7.187,0,0,1,80.82,23.4a.768.768,0,0,1-.611.5C79.934,23.962,79.636,23.986,79.346,24.026Z" transform="translate(-57.969 18.463)"/>
        <path id="Path_21539" data-name="Path 21539" class="cls-28" d="M74.618,27.477a2.366,2.366,0,0,0,1.17.151,3.254,3.254,0,0,1,1.269.173,8,8,0,0,0,1.221.279c-.284.458-.537.938-.856,1.371a11.926,11.926,0,0,1-3.943,3.358,2.109,2.109,0,0,1-.2.086c.163-.492.325-.953.468-1.416a20.318,20.318,0,0,0,.829-3.914C74.575,27.531,74.6,27.5,74.618,27.477Z" transform="translate(-57.969 18.463)"/>
        <path id="Path_21540" data-name="Path 21540" class="cls-29" d="M78.883,38.967l-1.154.448-.154.046a.27.27,0,0,1-.04.008l-1.21.09c-.174-.135-.343-.276-.522-.4a.408.408,0,0,1-.186-.552,4.876,4.876,0,0,0,.356-2.247c.311-.083.619-.175.933-.244a.251.251,0,0,1,.321.272,2.2,2.2,0,0,0-.013.3c.016.112.031.265.1.32a.456.456,0,0,0,.359.046c.115-.037.2-.161.3-.241s.193-.136.29-.2c.1.383.209.765.309,1.149C78.682,38.154,78.782,38.561,78.883,38.967Z" transform="translate(-57.969 18.463)"/>
        <path id="Path_21541" data-name="Path 21541" class="cls-28" d="M75.972,36.354a4.876,4.876,0,0,1-.356,2.247.408.408,0,0,0,.186.552c.179.127.351.269.522.4a7.466,7.466,0,0,1-1.119-.2c-1.2-.412-2.381-.857-3.566-1.3a1.9,1.9,0,0,1-.384-.266l.034-.071c.483-.109.975-.19,1.448-.333,1-.3,2-.638,3-.959C75.812,36.4,75.892,36.38,75.972,36.354Z" transform="translate(-57.969 18.463)"/>
        <path id="Path_21542" data-name="Path 21542" class="cls-30" d="M78.883,38.967c-.1-.406-.2-.813-.307-1.219-.1-.384-.206-.766-.309-1.149.1-.117.191-.242.3-.348.161-.154.312-.132.511.05a3.838,3.838,0,0,0-.338.489.554.554,0,0,0,.06.694,5.178,5.178,0,0,0,.826.472l-.459.838,0,.007-.1.058Z" transform="translate(-57.969 18.463)"/>
        <path id="Path_21543" data-name="Path 21543" class="cls-31" d="M79.629,37.958a5.378,5.378,0,0,1-.826-.472.554.554,0,0,1-.06-.694,3.6,3.6,0,0,1,.338-.489c.045.023.091.042.133.068A1.025,1.025,0,0,1,79.629,37.958Z" transform="translate(-57.969 18.463)"/>
        <path id="Path_21544" data-name="Path 21544" class="cls-23" d="M77.574,39.461l.154-.046Z" transform="translate(-57.969 18.463)"/>
        <path id="Path_21545" data-name="Path 21545" class="cls-23" d="M79.074,38.861l.1-.058Z" transform="translate(-57.969 18.463)"/>
        <path id="Path_21546" data-name="Path 21546" class="cls-29" d="M68.445,28.33c.328.116.652.242.984.345.287.089.412.217.424.507a9.522,9.522,0,0,1-.369,2.679,1.086,1.086,0,0,1-.18.272,7.089,7.089,0,0,0-.522-.778c-.479-.542-.985-1.06-1.477-1.591-.237-.256-.469-.518-.7-.777-.021-.151-.041-.3-.061-.457l.115-.047A5.167,5.167,0,0,1,68.445,28.33Z" transform="translate(-57.969 18.463)"/>
        <path id="Path_21547" data-name="Path 21547" class="cls-9" d="M68.445,28.33a5.169,5.169,0,0,0-1.79.153l-.114.047c-.142-.4-.275-.808-.429-1.2a.472.472,0,0,1,.167-.61,3.421,3.421,0,0,0,.862-1.468l-.163-.035a6.241,6.241,0,0,1,.83-.138.887.887,0,0,1,.853.587c.056.12-.031.306-.05.462-.165.194-.34.379-.485.586-.031.045.05.167.076.251a.725.725,0,0,0,.971.585,1.129,1.129,0,0,1,.123-.016c.216.28.192.351-.146.4-.114.019-.231.026-.344.05C68.612,28.019,68.459,28.1,68.445,28.33Z" transform="translate(-57.969 18.463)"/>
        <path id="Path_21548" data-name="Path 21548" class="cls-30" d="M66.978,25.209l.163.035a3.421,3.421,0,0,1-.862,1.468.475.475,0,0,0-.167.61c.154.4.287.8.429,1.2.02.151.04.3.061.457a2.464,2.464,0,0,1-.94-2.926,1.131,1.131,0,0,1,.76-.741c.094-.032.187-.069.28-.1Z" transform="translate(-57.969 18.463)"/>
        <path id="Path_21549" data-name="Path 21549" class="cls-32" d="M69.294,27.527a1.129,1.129,0,0,0-.123.016.725.725,0,0,1-.971-.585l.644.074C69.13,27.066,69.2,27.147,69.294,27.527Z" transform="translate(-57.969 18.463)"/>
      </g>
    </g>
  </g>
</svg>
