<svg xmlns="http://www.w3.org/2000/svg" xmlns:xlink="http://www.w3.org/1999/xlink" width="114.008" height="64.482" viewBox="0 0 114.008 64.482">
  <defs>
    <clipPath id="clip-path">
      <circle id="Ellipse_202" data-name="Ellipse 202" cx="32" cy="32" r="32" transform="translate(-24190 -10494)" fill="#fff"/>
    </clipPath>
  </defs>
  <g id="Group_9389" data-name="Group 9389" transform="translate(24399.008 8366.482)">
    <circle id="Ellipse_1602" data-name="Ellipse 1602" cx="32" cy="32" r="32" transform="translate(-24399 -8366)" fill="#fff"/>
    <g id="Group_9387" data-name="Group 9387" transform="translate(68)">
      <g id="pWINGS" transform="translate(-24467 -8366)">
        <circle id="Ellipse_1603" data-name="Ellipse 1603" cx="32" cy="32" r="32" transform="translate(0 0)" fill="#ac7bff"/>
        <circle id="Ellipse_1604" data-name="Ellipse 1604" cx="30.588" cy="30.588" r="30.588" transform="translate(1.492 1.017)" fill="none" stroke="#191326" stroke-width="3" opacity="0.1"/>
        <g id="Group_9386" data-name="Group 9386" transform="translate(7.727 24.961)">
          <path id="Path_17069" data-name="Path 17069" d="M74.171,74.188c-4.577-.073-9.227,0-13.877,0-.654,0-.872.291-.8.872a4.007,4.007,0,0,0,3.124,3.633h9.736v.581H64.218c0,.073.073.073.073.145a4.794,4.794,0,0,0,3.415,3.851h4.65v.581H69.013a.071.071,0,0,0,.073.073,4.541,4.541,0,0,0,4.5,3.415,6.725,6.725,0,0,0,7.266-6.466C81.074,77.457,77.95,74.26,74.171,74.188Z" transform="translate(-59.482 -74.156)" fill="#fff"/>
          <path id="Path_17070" data-name="Path 17070" d="M117.73,74.188c-4.577,0-9.227-.073-13.877,0-3.851.073-6.975,3.2-6.757,6.757a6.852,6.852,0,0,0,7.266,6.466,4.541,4.541,0,0,0,4.5-3.415.071.071,0,0,1,.073-.073H105.6v-.581h4.723a4.906,4.906,0,0,0,3.415-3.851c0-.073.073-.073.073-.145h-8.065v-.581h9.663a4.139,4.139,0,0,0,3.124-3.633C118.529,74.478,118.312,74.188,117.73,74.188Z" transform="translate(-69.764 -74.156)" fill="#fff"/>
        </g>
      </g>
    </g>
    <g id="Mask_Group_50" data-name="Mask Group 50" transform="translate(-159 2128)" clip-path="url(#clip-path)">
      <g id="usd-coin-usdc-logo" transform="translate(-24190 -10494)">
        <path id="Path_5250" data-name="Path 5250" d="M32,64A31.923,31.923,0,1,0,9.35,54.65,31.923,31.923,0,0,0,32,64Z" fill="#2775ca"/>
        <path id="Path_5251" data-name="Path 5251" d="M40.8,37.067c0-4.667-2.8-6.267-8.4-6.933-4-.533-4.8-1.6-4.8-3.467s1.333-3.067,4-3.067c2.4,0,3.733.8,4.4,2.8a1,1,0,0,0,.933.667h2.133A.911.911,0,0,0,40,26.133V26a6.661,6.661,0,0,0-6-5.467v-3.2c0-.533-.4-.933-1.067-1.067h-2c-.533,0-.933.4-1.067,1.067V20.4c-4,.533-6.533,3.2-6.533,6.533,0,4.4,2.667,6.133,8.267,6.8,3.733.667,4.933,1.467,4.933,3.6s-1.867,3.6-4.4,3.6c-3.467,0-4.667-1.467-5.067-3.467a.974.974,0,0,0-.933-.8H23.867a.911.911,0,0,0-.933.933v.133c.533,3.333,2.667,5.733,7.067,6.4v3.2c0,.533.4.933,1.067,1.067h2c.533,0,.933-.4,1.067-1.067v-3.2c4-.667,6.667-3.467,6.667-7.067Z" fill="#fff"/>
        <path id="Path_5252" data-name="Path 5252" d="M25.2,51.067a19.952,19.952,0,0,1,0-37.467,1.338,1.338,0,0,0,.8-1.333V10.4a1.013,1.013,0,0,0-.8-1.067.8.8,0,0,0-.533.133,23.994,23.994,0,0,0,0,45.733.811.811,0,0,0,1.2-.533C26,54.533,26,54.4,26,54.133V52.267a1.776,1.776,0,0,0-.8-1.2Zm14.133-41.6a.811.811,0,0,0-1.2.533c-.133.133-.133.267-.133.533V12.4a1.769,1.769,0,0,0,.8,1.333,19.952,19.952,0,0,1,0,37.467,1.338,1.338,0,0,0-.8,1.333V54.4a1.013,1.013,0,0,0,.8,1.067.8.8,0,0,0,.533-.133,24.1,24.1,0,0,0,0-45.867Z" fill="#fff"/>
      </g>
    </g>
  </g>
</svg>
