<svg xmlns="http://www.w3.org/2000/svg" xmlns:xlink="http://www.w3.org/1999/xlink" width="114" height="64" viewBox="0 0 114 64">
  <defs>
    <style>
      .cls-1 {
        fill: #fff;
      }

      .cls-2 {
        clip-path: url(#clip-path);
      }

      .cls-3 {
        clip-path: url(#clip-path-2);
      }

      .cls-4 {
        clip-path: url(#clip-path-3);
      }

      .cls-5 {
        fill: #438ac9;
      }

      .cls-6 {
        fill: #2a3270;
      }

      .cls-7 {
        fill: #161f42;
      }

      .cls-8 {
        fill: #458bca;
      }

      .cls-9 {
        fill: #1a2245;
      }

      .cls-10 {
        fill: #689ad1;
      }

      .cls-11 {
        fill: #1b2445;
      }

      .cls-12 {
        fill: #5e96d0;
      }

      .cls-13 {
        fill: #5392ce;
      }

      .cls-14 {
        fill: #1f2748;
      }

      .cls-15 {
        fill: #5191cd;
      }

      .cls-16 {
        fill: #5592ce;
      }

      .cls-17 {
        fill: #1d2547;
      }

      .cls-18 {
        fill: #478bc9;
      }

      .cls-19 {
        fill: #498cc7;
      }

      .cls-20 {
        fill: #222b4c;
      }

      .cls-21 {
        fill: #709ed4;
      }

      .cls-22 {
        fill: #79a3d6;
      }

      .cls-23 {
        fill: #81a7d8;
      }

      .cls-24 {
        fill: #252a62;
      }

      .cls-25 {
        fill: #86abda;
      }

      .cls-26 {
        fill: #252a63;
      }

      .cls-27 {
        clip-path: url(#clip-path-4);
      }

      .cls-28 {
        clip-path: url(#clip-path-5);
      }

      .cls-29 {
        fill: #343434;
      }

      .cls-30 {
        fill: #8c8c8c;
      }

      .cls-31 {
        fill: #3c3c3b;
      }

      .cls-32 {
        fill: #141414;
      }

      .cls-33 {
        fill: #393939;
      }
    </style>
    <clipPath id="clip-path">
      <circle id="Ellipse_1902" data-name="Ellipse 1902" class="cls-1" cx="32" cy="32" r="32" transform="translate(-19831 -23193)"/>
    </clipPath>
    <clipPath id="clip-path-2">
      <circle id="Ellipse_2067" data-name="Ellipse 2067" class="cls-1" cx="32" cy="32" r="32" transform="translate(-24865 -22993)"/>
    </clipPath>
    <clipPath id="clip-path-3">
      <circle id="Ellipse_2053" data-name="Ellipse 2053" class="cls-1" cx="28.444" cy="28.444" r="28.444" transform="translate(-22067.555 -20359.111)"/>
    </clipPath>
    <clipPath id="clip-path-4">
      <circle id="Ellipse_1903" data-name="Ellipse 1903" class="cls-1" cx="32" cy="32" r="32" transform="translate(-19781 -21653)"/>
    </clipPath>
    <clipPath id="clip-path-5">
      <circle id="Ellipse_1822" data-name="Ellipse 1822" class="cls-1" cx="32" cy="32" r="32" transform="translate(-23325 -23674)"/>
    </clipPath>
  </defs>
  <g id="Group_961" data-name="Group 961" transform="translate(19831 23193)">
    <g id="Mask_Group_266" data-name="Mask Group 266" class="cls-2">
      <g id="Mask_Group_265" data-name="Mask Group 265" class="cls-3" transform="translate(5034 -200)">
        <g id="Group_856" data-name="Group 856" transform="translate(-2793.889 -2632.111)">
          <circle id="Ellipse_2052" data-name="Ellipse 2052" class="cls-1" cx="32" cy="32" r="32" transform="translate(-22071.111 -20360.889)"/>
          <g id="Mask_Group_242" data-name="Mask Group 242" class="cls-4">
            <g id="QUICK" transform="translate(-22065.848 -20359.111)">
              <path id="Path_19769" data-name="Path 19769" class="cls-5" d="M2.027,96.1A26.778,26.778,0,0,1,17.682,71.737a26.044,26.044,0,0,1,7.578-2.178,26.7,26.7,0,0,1,12.372,1.285l.327.112a26.5,26.5,0,0,1-6.427,5.689,7.773,7.773,0,0,0-.772-2.772L32.574,72.3a7.053,7.053,0,0,0-2.429-.356l-1.72-.068c-.521.022-1.042.043-1.562.068a.983.983,0,0,0-.226.068c-.34.023-.681.024-1.016.072-.489.068-.973.178-1.459.267l-2.958.756-2.956,1.166c-.487.253-.978.492-1.459.763a22.564,22.564,0,0,0-4.413,3.228c-.7.668-1.381,1.371-2.023,2.1-.482.545-.884,1.156-1.32,1.738l-1.72,2.821a8.031,8.031,0,0,0-.4.748c-.29.688-.56,1.38-.839,2.072q-.373,1.17-.748,2.34L4.847,92.7c-.089.923-.184,1.845-.267,2.77-.017.183.1.217.245.154a1.053,1.053,0,0,0,.257-.17c1-.852,1.984-1.712,2.982-2.56.309-.267.644-.5.968-.742a13.961,13.961,0,0,0,.474,3.188l1.39-1.055c.134.185.258.379.4.55a7.822,7.822,0,0,0,4.489,2.532c.614.138,1.238.219,1.908.333a11.654,11.654,0,0,1-.688-1.032,1.163,1.163,0,0,1,.279-1.576,4.346,4.346,0,0,1,1.1-.673,8.91,8.91,0,0,1,3.111-.606,18.285,18.285,0,0,1,5.476.545,12.332,12.332,0,0,1,3.311,1.286l.276.286c.144.178.294.349.431.533a6.066,6.066,0,0,1,.8,6.508,9.542,9.542,0,0,1-3.628,4.071,15.662,15.662,0,0,1-11.454,2.377,16.444,16.444,0,0,1-8.855-4.526,23.931,23.931,0,0,1-5-7.035C2.572,97.278,2.3,96.689,2.027,96.1Z" transform="translate(-2.002 -65.898)"/>
              <path id="Path_19770" data-name="Path 19770" class="cls-6" d="M30.286,95.644a12.291,12.291,0,0,0-3.311-1.286,18.286,18.286,0,0,0-5.476-.545,8.909,8.909,0,0,0-3.111.606,4.346,4.346,0,0,0-1.1.673,1.163,1.163,0,0,0-.279,1.576A12.186,12.186,0,0,0,17.7,97.7c-.668-.115-1.294-.2-1.908-.333A7.833,7.833,0,0,1,11.3,94.836c-.147-.178-.267-.367-.4-.55l.337-.276.138-.1-.011.009.125-.089h.005a2.362,2.362,0,0,0,.467-.148,17.847,17.847,0,0,1,4.183-1.591,18.781,18.781,0,0,1,6-.556c.826.068,1.662.1,2.484.225A32.208,32.208,0,0,1,30.7,93.333c.121.043.241.089.361.132l.075-.089c-.3-.455-.588-.915-.889-1.366-.193-.286-.4-.561-.6-.842l1.223.267.072-.062c-.328-.418-.642-.848-.988-1.25-.288-.334-.613-.637-.921-.954.473.032.951.03,1.417.1a19.858,19.858,0,0,1,6.8,2.327,19.448,19.448,0,0,1,6.567,6.062,18.839,18.839,0,0,1,2.987,7.257,16.729,16.729,0,0,1,.1,5.554,14.357,14.357,0,0,1-2.667,6.459.829.829,0,0,0-.077.267l-.008.008-.309.315.008-.012-.079.081.011-.012-.077.079.008-.008-.075.075h0l-.068.063a16.453,16.453,0,0,1-5.667,3.485,25.124,25.124,0,0,1-7.911,1.484,26.909,26.909,0,0,1-9.628-1.326,26.336,26.336,0,0,1-8.622-4.783c-.13-.108-.247-.23-.371-.344a.74.74,0,0,1,.212.06c.428.284.84.591,1.276.86a16.089,16.089,0,0,0,8.291,2.564.848.848,0,0,0,.309.123c.933-.035,1.867-.068,2.8-.133a16.54,16.54,0,0,0,3.765-.79A19.7,19.7,0,0,0,33.867,116a17.79,17.79,0,0,0,3.092-2.945,12.811,12.811,0,0,0,2.069-3.491,9.01,9.01,0,0,0,.724-3.556,10.325,10.325,0,0,0-.96-4.485l-.1.021c-.03.068-.062.138-.089.206a14.63,14.63,0,0,1-.557,1.448,12.718,12.718,0,0,1-.819,1.244,5.919,5.919,0,0,1-.523.489c-.688.51-1.393,1.006-2.091,1.511h0c.017-.111.032-.223.052-.333q.178-1.037.361-2.074h0l.068-.068c0-.589.02-1.18,0-1.768a6.469,6.469,0,0,0-.667-2.527A9.013,9.013,0,0,0,30.591,95.7a1.542,1.542,0,0,0-.3-.056Z" transform="translate(-2.002 -65.898)"/>
              <path id="Path_19771" data-name="Path 19771" class="cls-7" d="M35.027,104.043q-.178,1.037-.361,2.074c-.02.111-.035.222-.052.333l-.031.025H34.6a.082.082,0,0,0,.011-.023c.7-.5,1.4-1,2.091-1.511a5.532,5.532,0,0,0,.523-.489,7.979,7.979,0,0,1,.361,2.994,9.413,9.413,0,0,1-.951,3.332,14.549,14.549,0,0,1-4,4.771,19.216,19.216,0,0,1-4.847,2.872,16.711,16.711,0,0,1-6.653,1.371,16.076,16.076,0,0,1-8.291-2.564c-.436-.267-.848-.577-1.276-.86a.739.739,0,0,0-.212-.06V116.3c-.025-.024-.05-.048-.074-.073l.011,0-.1-.089v.007l-.508-.436a24.634,24.634,0,0,1-5.085-6.25A26.189,26.189,0,0,1,2.261,99.8c-.142-1.018-.17-2.052-.251-3.076L2,96.292l.025-.19c.276.587.545,1.177.826,1.759a23.931,23.931,0,0,0,5,7.035,16.48,16.48,0,0,0,8.863,4.527,15.662,15.662,0,0,0,11.454-2.377,9.554,9.554,0,0,0,3.628-4.071,6.066,6.066,0,0,0-.8-6.508c-.138-.182-.287-.356-.431-.533a1.2,1.2,0,0,1,.3.138,8.73,8.73,0,0,1,.681.673,7.683,7.683,0,0,1,1.867,7.071,16.672,16.672,0,0,1-.55,1.684,4.837,4.837,0,0,0,.533-.282C33.942,104.835,34.483,104.436,35.027,104.043Z" transform="translate(-2.002 -65.898)"/>
              <path id="Path_19772" data-name="Path 19772" class="cls-8" d="M40.4,72.021c1.22.711,2.469,1.376,3.652,2.144a23.131,23.131,0,0,1,4.452,3.9A26.656,26.656,0,0,1,55.433,94.5a26.025,26.025,0,0,1-.9,8.59c0,.017-.026.029-.029.034a19.685,19.685,0,0,0-4.433-11.9A18.2,18.2,0,0,0,46.5,87.831a.366.366,0,0,1-.064-.079,17.569,17.569,0,0,1,7.188,2.115l-.281-.385-.188-.138-.013.028a.724.724,0,0,0-.089-.257,28.808,28.808,0,0,0-3.44-3.275,27.935,27.935,0,0,0-7.749-4.427A23.35,23.35,0,0,0,35.388,79.9a2.845,2.845,0,0,1-.3-.056,16.721,16.721,0,0,0,3.526-3.9A17.821,17.821,0,0,0,40.4,72.021Z" transform="translate(-2.002 -65.898)"/>
              <path id="Path_19773" data-name="Path 19773" class="cls-9" d="M44.148,117.208a.835.835,0,0,1,.077-.267,14.357,14.357,0,0,0,2.667-6.459,16.729,16.729,0,0,0-.1-5.554A18.839,18.839,0,0,0,43.8,97.663,19.448,19.448,0,0,0,37.24,91.6a19.868,19.868,0,0,0-6.8-2.327c-.466-.073-.944-.068-1.417-.1a.8.8,0,0,1-.158-.063c-.849-.57-1.7-1.141-2.511-1.689.946,0,1.97-.049,2.988.009a19.778,19.778,0,0,1,8.081,2.126A19.143,19.143,0,0,1,47.862,103.4a15.752,15.752,0,0,1-1.64,11.015,12.057,12.057,0,0,1-2.074,2.793Z" transform="translate(-2.002 -65.898)"/>
              <path id="Path_19774" data-name="Path 19774" class="cls-10" d="M26.638,72.013a.983.983,0,0,1,.226-.068c.52-.028,1.041-.048,1.562-.068a.335.335,0,0,1-.153.482,5.516,5.516,0,0,0-.6.51q-1.011.868-2.024,1.733c-.7.6-1.409,1.188-2.112,1.785-.677.575-1.348,1.156-2.027,1.73-.833.707-1.673,1.406-2.5,2.115-.693.59-1.376,1.192-2.07,1.783-.875.747-1.749,1.492-2.636,2.222a6.821,6.821,0,0,1-.748.482c0-.077.008-.156.012-.238-.764.161-3.251,2.477-4.015,4.515a.839.839,0,0,0-.281.082c-.294.23-.58.474-.863.717-1,.857-1.99,1.72-2.995,2.569a4.147,4.147,0,0,1-.568.338q.242-1.308.482-2.614a4.667,4.667,0,0,0,.577-.344c.7-.583,1.387-1.183,2.081-1.778s1.376-1.156,2.06-1.743,1.366-1.17,2.052-1.756c.85-.724,1.7-1.441,2.555-2.164.688-.583,1.366-1.17,2.052-1.756s1.376-1.156,2.064-1.74,1.364-1.175,2.051-1.757c.833-.711,1.673-1.408,2.508-2.113.87-.735,1.743-1.466,2.6-2.21A9.078,9.078,0,0,0,26.638,72.013Z" transform="translate(-2.002 -65.898)"/>
              <path id="Path_19775" data-name="Path 19775" class="cls-11" d="M40.4,72.021a17.579,17.579,0,0,1-1.783,3.918,16.721,16.721,0,0,1-3.526,3.9c-.384.262-.766.526-1.156.786A23.237,23.237,0,0,1,29.4,82.971a.867.867,0,0,1-.267.015h.006A6.357,6.357,0,0,0,31.111,79.9a.832.832,0,0,1,.533-.578,15.987,15.987,0,0,0,6.7-5.266c.164-.214.309-.444.464-.664l.041-.054h-.081l-1.824.539a20.422,20.422,0,0,0,2.634-3.8A23.661,23.661,0,0,0,41.26,65.9c-.06.809-.068,1.626-.19,2.426-.178,1.161-.425,2.311-.643,3.467C40.42,71.867,40.408,71.944,40.4,72.021Z" transform="translate(-2.002 -65.898)"/>
              <path id="Path_19776" data-name="Path 19776" class="cls-12" d="M13.555,84.721a8.017,8.017,0,0,0,.748-.482c.889-.732,1.761-1.478,2.636-2.222.692-.591,1.376-1.193,2.07-1.783.832-.711,1.671-1.409,2.5-2.115.677-.574,1.349-1.156,2.027-1.73.7-.6,1.411-1.188,2.112-1.785q1.016-.863,2.024-1.733a4.945,4.945,0,0,1,.6-.51.332.332,0,0,0,.153-.482l1.72.068a1.9,1.9,0,0,1-.254.349c-.644.563-1.293,1.116-1.945,1.669q-1.524,1.292-3.053,2.578c-.7.588-1.41,1.156-2.084,1.768-.239.217-.622.34-.637.756a4.421,4.421,0,0,0-2.745,2.362,1.008,1.008,0,0,0-.279.116c-.791.665-1.576,1.333-2.363,2-.711.6-1.422,1.2-2.127,1.809-.4.34-.776.694-1.164,1.042a2.059,2.059,0,0,1,.061-1.68Z" transform="translate(-2.002 -65.898)"/>
              <path id="Path_19777" data-name="Path 19777" class="cls-9" d="M29.641,91.172c.2.281.412.556.6.842.3.452.595.91.889,1.366l-.075.089-.361-.132A32.208,32.208,0,0,0,24.61,91.76c-.82-.12-1.655-.156-2.484-.225a18.781,18.781,0,0,0-6,.556,17.846,17.846,0,0,0-4.183,1.591,2.614,2.614,0,0,1-.467.148A18.2,18.2,0,0,1,16.7,91.274a21.054,21.054,0,0,1,8.339-.831c1.407.132,2.8.4,4.2.622a2.725,2.725,0,0,1,.393.108Z" transform="translate(-2.002 -65.898)"/>
              <path id="Path_19778" data-name="Path 19778" class="cls-13" d="M22.172,79.066c.013-.417.4-.54.637-.756.674-.612,1.388-1.18,2.084-1.768l3.053-2.578q.978-.826,1.945-1.669a1.9,1.9,0,0,0,.254-.349,7.059,7.059,0,0,1,2.429.356l-1.819,1.572-.327-.458c-.226.365-.4.706-.632,1.009A9.628,9.628,0,0,1,27.182,76.7a27.629,27.629,0,0,1-4.849,2.328,1.007,1.007,0,0,1-.165.037Z" transform="translate(-2.002 -65.898)"/>
              <path id="Path_19779" data-name="Path 19779" class="cls-14" d="M53.346,89.476l.281.385a17.538,17.538,0,0,0-7.186-2.112c-.653-.412-1.293-.848-1.964-1.23A19.174,19.174,0,0,0,38.422,84.3a1,1,0,0,1-.34-.12,21.772,21.772,0,0,1,8.932,2.339l-.848-1.469.057-.082c1.123.638,2.274,1.232,3.361,1.926,1.142.732,2.222,1.563,3.33,2.348a1.652,1.652,0,0,0,.23.117l.013-.028Z" transform="translate(-2.002 -65.898)"/>
              <path id="Path_19780" data-name="Path 19780" class="cls-15" d="M13.5,86.4c.388-.344.769-.7,1.164-1.042.7-.607,1.418-1.206,2.127-1.809.788-.669,1.572-1.341,2.363-2a1.016,1.016,0,0,1,.279-.116,6.11,6.11,0,0,0-.089,1.451,2.17,2.17,0,0,0,2,1.736,2.369,2.369,0,0,1-2.253-.374c-.178.172-.372.344-.556.528a8,8,0,0,1-2.947,2,3.917,3.917,0,0,1-1.238.206A.829.829,0,0,1,13.5,86.4Z" transform="translate(-2.002 -65.898)"/>
              <path id="Path_19781" data-name="Path 19781" class="cls-16" d="M4.847,92.7a3.886,3.886,0,0,0,.568-.338c1-.849,2-1.712,3-2.569.284-.244.568-.487.863-.717A.8.8,0,0,1,9.554,89a7.69,7.69,0,0,0-.523,3.156c-.324.246-.659.482-.968.742-1,.848-1.988,1.707-2.982,2.56a1.054,1.054,0,0,1-.257.17c-.143.063-.267.029-.245-.154C4.664,94.548,4.757,93.625,4.847,92.7Z" transform="translate(-2.002 -65.898)"/>
              <path id="Path_19782" data-name="Path 19782" class="cls-17" d="M26.3,80.267l2.192-1.132a1.92,1.92,0,0,1-.044.311A5.365,5.365,0,0,1,23.39,83.5c-.412.028-.822.029-1.232.044a18.775,18.775,0,0,0,1.926-.68,3.879,3.879,0,0,0,2.217-2.6Z" transform="translate(-2.002 -65.898)"/>
              <path id="Path_19783" data-name="Path 19783" class="cls-18" d="M26.3,80.267a3.878,3.878,0,0,1-2.214,2.6,19.252,19.252,0,0,1-1.926.68,1.3,1.3,0,0,1,.336-1.333,3.445,3.445,0,0,1,1.01-.788C24.417,80.993,25.366,80.644,26.3,80.267Z" transform="translate(-2.002 -65.898)"/>
              <path id="Path_19784" data-name="Path 19784" class="cls-19" d="M13.788,89.14l-.138.65c-.116-.4-.337-.572-.731-.5a2,2,0,0,0-1.145.636,2.521,2.521,0,0,0-.241.371l-.141-.109.089-.286a2.25,2.25,0,0,0,.212-.242,2.708,2.708,0,0,1,1.124-1.067c.528-.241.813-.084.9.482C13.728,89.094,13.765,89.116,13.788,89.14Z" transform="translate(-2.002 -65.898)"/>
              <path id="Path_19785" data-name="Path 19785" class="cls-20" d="M13.788,89.14c-.022-.024-.06-.045-.063-.068-.089-.569-.373-.726-.9-.482A2.69,2.69,0,0,0,11.7,89.656a2.249,2.249,0,0,1-.215.245,6.985,6.985,0,0,1,.6-1.2,2.423,2.423,0,0,1,.892-.7c.55-.255.958.06.941.681a1.891,1.891,0,0,1-.132.459Z" transform="translate(-2.002 -65.898)"/>
              <path id="Path_19786" data-name="Path 19786" class="cls-6" d="M10.69,115.72l.508.436Z" transform="translate(-2.002 -65.898)"/>
              <path id="Path_19787" data-name="Path 19787" class="cls-9" d="M43.829,117.531l.309-.315Z" transform="translate(-2.002 -65.898)"/>
              <path id="Path_19788" data-name="Path 19788" class="cls-5" d="M2,96.292l.012.435Z" transform="translate(-2.002 -65.898)"/>
              <path id="Path_19789" data-name="Path 19789" class="cls-9" d="M11.479,93.827l-.126.093Z" transform="translate(-2.002 -65.898)"/>
              <path id="Path_19790" data-name="Path 19790" class="cls-9" d="M11.365,93.908l-.138.1Z" transform="translate(-2.002 -65.898)"/>
              <path id="Path_19791" data-name="Path 19791" class="cls-9" d="M43.56,117.8l.068-.063Z" transform="translate(-2.002 -65.898)"/>
              <path id="Path_19792" data-name="Path 19792" class="cls-11" d="M29.133,82.986l.061.056-.027.017c-.008-.024-.017-.048-.028-.073Z" transform="translate(-2.002 -65.898)"/>
              <path id="Path_19793" data-name="Path 19793" class="cls-6" d="M11.195,116.148l.1.089Z" transform="translate(-2.002 -65.898)"/>
              <path id="Path_19794" data-name="Path 19794" class="cls-6" d="M11.284,116.231c.024.025.049.049.074.073C11.333,116.282,11.309,116.256,11.284,116.231Z" transform="translate(-2.002 -65.898)"/>
              <path id="Path_19795" data-name="Path 19795" class="cls-9" d="M43.761,117.6l.079-.081Z" transform="translate(-2.002 -65.898)"/>
              <path id="Path_19796" data-name="Path 19796" class="cls-9" d="M43.692,117.667l.077-.079Z" transform="translate(-2.002 -65.898)"/>
              <path id="Path_19797" data-name="Path 19797" class="cls-9" d="M43.623,117.732l.075-.075Z" transform="translate(-2.002 -65.898)"/>
              <path id="Path_19798" data-name="Path 19798" class="cls-21" d="M26.638,72.013c-.233.241-.451.5-.7.719-.862.745-1.735,1.476-2.6,2.21-.836.7-1.675,1.4-2.508,2.113-.688.582-1.364,1.174-2.051,1.757s-1.376,1.156-2.064,1.74-1.366,1.17-2.052,1.756c-.851.724-1.7,1.441-2.555,2.164-.688.583-1.366,1.17-2.052,1.756s-1.376,1.16-2.06,1.743-1.38,1.191-2.081,1.778a4.137,4.137,0,0,1-.577.344l.749-2.34c.324-.242.662-.47.972-.73.7-.585,1.376-1.189,2.073-1.778q1.5-1.271,3-2.532c.677-.574,1.346-1.156,2.023-1.732.842-.711,1.689-1.422,2.531-2.133.694-.589,1.376-1.192,2.072-1.778.833-.711,1.673-1.4,2.508-2.109.739-.622,1.48-1.244,2.209-1.881.252-.219.466-.482.7-.721.485-.089.97-.194,1.459-.267C25.956,72.04,26.3,72.04,26.638,72.013Z" transform="translate(-2.002 -65.898)"/>
              <path id="Path_19799" data-name="Path 19799" class="cls-22" d="M24.164,72.35c-.231.242-.444.5-.7.721-.729.636-1.469,1.257-2.209,1.881-.835.7-1.675,1.4-2.508,2.109-.694.589-1.376,1.191-2.072,1.778-.841.711-1.689,1.422-2.531,2.133-.677.574-1.346,1.156-2.023,1.732q-1.5,1.269-3,2.532c-.694.589-1.376,1.195-2.073,1.778-.31.26-.647.488-.972.73.276-.688.55-1.386.838-2.072.109-.259.267-.5.4-.748a1.41,1.41,0,0,0,.393-.151c.667-.55,1.32-1.12,1.981-1.679.835-.707,1.674-1.406,2.508-2.115s1.659-1.422,2.489-2.133q1.3-1.108,2.608-2.206c.7-.6,1.414-1.184,2.116-1.783q.858-.732,1.7-1.488c.061-.055.068-.178.1-.267Z" transform="translate(-2.002 -65.898)"/>
              <path id="Path_19800" data-name="Path 19800" class="cls-23" d="M21.207,73.11c-.031.089-.036.206-.1.267q-.84.756-1.7,1.488c-.7.6-1.411,1.189-2.116,1.783q-1.308,1.1-2.608,2.206c-.833.711-1.658,1.427-2.489,2.133S10.527,82.4,9.692,83.1c-.66.559-1.314,1.127-1.981,1.679a1.35,1.35,0,0,1-.393.151l1.72-2.821c.178.168.281.023.4-.081.826-.711,1.652-1.428,2.489-2.133,1.128-.955,2.264-1.9,3.393-2.853.912-.77,1.823-1.542,2.722-2.328a1.313,1.313,0,0,0,.213-.431Z" transform="translate(-2.002 -65.898)"/>
              <path id="Path_19801" data-name="Path 19801" class="cls-24" d="M35.027,104.043c-.544.394-1.085.792-1.635,1.177a4.83,4.83,0,0,1-.533.282,16.669,16.669,0,0,0,.55-1.684,7.684,7.684,0,0,0-1.867-7.071,8.734,8.734,0,0,0-.681-.673,1.091,1.091,0,0,0-.3-.138l-.276-.286a.989.989,0,0,1,.3.068A9.02,9.02,0,0,1,34.42,99.69a6.469,6.469,0,0,1,.667,2.527c.02.588,0,1.178,0,1.768l-.068.068Z" transform="translate(-2.002 -65.898)"/>
              <path id="Path_19802" data-name="Path 19802" class="cls-25" d="M18.252,74.284a1.3,1.3,0,0,1-.213.431c-.9.786-1.811,1.557-2.722,2.328-1.129.954-2.265,1.9-3.393,2.853-.833.706-1.658,1.422-2.489,2.133-.121.1-.228.248-.4.081.437-.582.841-1.193,1.32-1.738.642-.728,1.319-1.43,2.023-2.1a22.627,22.627,0,0,1,4.413-3.228C17.27,74.774,17.765,74.537,18.252,74.284Z" transform="translate(-2.002 -65.898)"/>
              <path id="Path_19803" data-name="Path 19803" class="cls-26" d="M21.137,119.791a16.7,16.7,0,0,0,6.653-1.371,19.216,19.216,0,0,0,4.847-2.872,14.549,14.549,0,0,0,4-4.771,9.413,9.413,0,0,0,.951-3.334,7.979,7.979,0,0,0-.361-2.994,12.812,12.812,0,0,0,.819-1.244,14.631,14.631,0,0,0,.559-1.454c.027-.068.06-.138.089-.206l.1-.021a14.285,14.285,0,0,1,.67,1.916,14.705,14.705,0,0,1,.29,2.569,9.046,9.046,0,0,1-.724,3.556,12.812,12.812,0,0,1-2.069,3.491,17.789,17.789,0,0,1-3.1,2.946,19.7,19.7,0,0,1-5.856,2.993,16.551,16.551,0,0,1-3.765.79c-.932.068-1.867.1-2.8.133C21.345,119.919,21.244,119.836,21.137,119.791Z" transform="translate(-2.002 -65.898)"/>
              <path id="Path_19804" data-name="Path 19804" class="cls-7" d="M35.022,104.045l.068-.068Z" transform="translate(-2.002 -65.898)"/>
              <path id="Path_19805" data-name="Path 19805" class="cls-6" d="M34.609,106.447a.082.082,0,0,1-.011.023.031.031,0,0,0-.017,0l.031-.025Z" transform="translate(-2.002 -65.898)"/>
              <path id="Path_19806" data-name="Path 19806" class="cls-1" d="M53.346,89.476l-.188-.138Z" transform="translate(-2.002 -65.898)"/>
              <path id="Path_19807" data-name="Path 19807" class="cls-1" d="M38.772,73.338h.081l-.041.054A.206.206,0,0,1,38.772,73.338Z" transform="translate(-2.002 -65.898)"/>
            </g>
          </g>
        </g>
      </g>
    </g>
    <g id="Mask_Group_214" data-name="Mask Group 214" class="cls-27" transform="translate(0 -1540)">
      <g id="Group_727" data-name="Group 727" transform="translate(3544 2021)">
        <g id="Group_726" data-name="Group 726">
          <circle id="Ellipse_1807" data-name="Ellipse 1807" class="cls-1" cx="32" cy="32" r="32" transform="translate(-23325 -23674)"/>
          <g id="Mask_Group_16" data-name="Mask Group 16" class="cls-28">
            <g id="Layer_x0020_1" transform="translate(-23311.184 -23671.611)">
              <g id="_1421394342400">
                <g id="Group_714" data-name="Group 714">
                  <path id="Path_128" data-name="Path 128" class="cls-29" d="M19.612,0l-.4,1.35V40.509l.4.4L37.789,30.161Z" transform="translate(-1.434)"/>
                  <path id="Path_129" data-name="Path 129" class="cls-30" d="M18.177,0,0,30.161,18.177,40.9Z"/>
                  <path id="Path_130" data-name="Path 130" class="cls-31" d="M19.626,47.058l-.224.273V61.28l.224.654L37.814,36.319Z" transform="translate(-1.448 -2.711)"/>
                  <path id="Path_131" data-name="Path 131" class="cls-30" d="M18.177,61.934V47.058L0,36.319Z" transform="translate(0 -2.711)"/>
                  <path id="Path_132" data-name="Path 132" class="cls-32" d="M19.644,42.672,37.821,31.927,19.644,23.665Z" transform="translate(-1.466 -1.766)"/>
                  <path id="Path_133" data-name="Path 133" class="cls-33" d="M0,31.927,18.177,42.672V23.665Z" transform="translate(0 -1.766)"/>
                </g>
              </g>
            </g>
          </g>
        </g>
      </g>
    </g>
  </g>
</svg>
