<svg xmlns="http://www.w3.org/2000/svg" xmlns:xlink="http://www.w3.org/1999/xlink" width="114" height="64" viewBox="0 0 114 64">
  <defs>
    <style>
      .cls-1 {
        fill: #fff;
      }

      .cls-2 {
        clip-path: url(#clip-path);
      }

      .cls-3 {
        fill: #349967;
      }

      .cls-4 {
        fill: #522616;
      }

      .cls-5 {
        fill: #c23028;
      }

      .cls-6 {
        fill: #648b71;
      }

      .cls-7 {
        fill: #ecb842;
      }

      .cls-8 {
        fill: #eab641;
      }

      .cls-9 {
        fill: #e9b540;
      }

      .cls-10 {
        fill: #e0ab36;
      }

      .cls-11 {
        fill: #daa52e;
      }

      .cls-12 {
        fill: #d19d2b;
      }

      .cls-13 {
        fill: #d9a42e;
      }

      .cls-14 {
        fill: #c6922c;
      }

      .cls-15 {
        fill: #e5b13b;
      }

      .cls-16 {
        fill: #cf9b2c;
      }

      .cls-17 {
        fill: #dea932;
      }

      .cls-18 {
        fill: #e1ad3e;
      }

      .cls-19 {
        fill: #3a160f;
      }

      .cls-20 {
        fill: #eb2a25;
      }

      .cls-21 {
        fill: #f0bc47;
      }

      .cls-22 {
        fill: #edb944;
      }

      .cls-23 {
        fill: #522416;
      }

      .cls-24 {
        fill: #b7842c;
      }

      .cls-25 {
        fill: #6bac42;
      }

      .cls-26 {
        fill: #c52c27;
      }

      .cls-27 {
        fill: #f06023;
      }

      .cls-28 {
        fill: #f1bd4a;
      }

      .cls-29 {
        fill: #552515;
      }

      .cls-30 {
        fill: #f8f5f4;
      }

      .cls-31 {
        fill: #f5f2f0;
      }

      .cls-32 {
        clip-path: url(#clip-path-2);
      }

      .cls-33 {
        fill: #2775ca;
      }
    </style>
    <clipPath id="clip-path">
      <circle id="Ellipse_1970" data-name="Ellipse 1970" class="cls-1" cx="32" cy="32" r="32" transform="translate(-24423 -22993)"/>
    </clipPath>
    <clipPath id="clip-path-2">
      <circle id="Ellipse_1968" data-name="Ellipse 1968" class="cls-1" cx="32" cy="32" r="32" transform="translate(-24373 -21453)"/>
    </clipPath>
  </defs>
  <g id="Group_899" data-name="Group 899" transform="translate(24423 22993)">
    <g id="Mask_Group_245" data-name="Mask Group 245" class="cls-2">
      <g id="SALSA" transform="translate(-24423.012 -22992.975)">
        <path id="Path_19800" data-name="Path 19800" class="cls-3" d="M198.028-32.047H202.9a1.377,1.377,0,0,0,.324.117A30.445,30.445,0,0,1,221.45-24.2c9.676,8.767,13.157,19.684,9.939,32.315C227.142,24.8,210.607,34.739,193.7,31.182A31.986,31.986,0,0,1,168.91,4.673c-.1-.707-.23-1.407-.353-2.111V-2.685A1.442,1.442,0,0,0,168.682-3c.213-1.333.36-2.681.638-4A32.027,32.027,0,0,1,195.8-31.689C196.536-31.792,197.282-31.928,198.028-32.047ZM198-17.024c-.269.025-.535.067-.8.071-2.157.053-4.321.023-6.472.17-2.479.168-4.95.459-7.417.762a5.679,5.679,0,0,0-3.922,1.8,2.919,2.919,0,0,0-.207,3.578q6.69,9.974,13.366,19.95a2.913,2.913,0,0,1-.335.252,3.1,3.1,0,0,0-1.8,2.788A2.273,2.273,0,0,0,192.2,14.66a3.56,3.56,0,0,0-.018,3.39,2.449,2.449,0,0,0,2.983,1.1.832.832,0,0,1,.078.186c.23,2.295,2.118,3.263,4.106,2.1a.457.457,0,0,1,.688.117,2.467,2.467,0,0,0,3.775.057,3,3,0,0,0,.78-2.261c3.179-.649,3.768-1.448,2.644-3.64a3.709,3.709,0,0,0,2.047-2.265,2.184,2.184,0,0,0-1.09-2.573l.718-2.127a1.117,1.117,0,0,0,.119-.138q6.4-9.57,12.8-19.14a2.791,2.791,0,0,0-.459-4,6.093,6.093,0,0,0-2.4-1.232,64.45,64.45,0,0,0-10.307-1.164,1.266,1.266,0,0,0-.349-.106Q203.162-17.038,198-17.024Z" transform="translate(-168.545 32.047)"/>
        <path id="Path_19801" data-name="Path 19801" class="cls-4" d="M192.548,9.306q-6.678-9.976-13.366-19.95a2.919,2.919,0,0,1,.207-3.578,5.679,5.679,0,0,1,3.922-1.8c2.467-.3,4.939-.594,7.417-.762,2.15-.147,4.315-.117,6.472-.17.269,0,.535-.046.8-.071a.718.718,0,0,0,.025.094,3,3,0,0,0,.59.122h7.8a3.61,3.61,0,0,0,.6-.1l1.645-.025a64.449,64.449,0,0,1,10.307,1.164,6.093,6.093,0,0,1,2.4,1.232,2.776,2.776,0,0,1,.459,4q-6.4,9.568-12.792,19.14a1.329,1.329,0,0,1-.119.14c-.092-.333-.184-.666-.278-1l3.571-5.294,1.921-2.887c.216-.328.434-.654.652-.982.431-.627.879-1.246,1.294-1.884.585-.9,1.147-1.813,1.721-2.722l-.021-.011.184-.14,1.5-2.247c.567-.838,1.147-1.671,1.7-2.524a2.143,2.143,0,0,0-.567-3.245,13.889,13.889,0,0,0-2.823-1l-1.377-.229-1.753-.229-2.242-.126h-.629l-3.105-.291h0l-.865-.062c-.395-.018-.787-.055-1.182-.053q-6.04,0-12.085.023l-.734.014-.9.018c-.688.028-1.356.034-2.031.083-.753.055-1.505.149-2.258.229h-.443l-2.616.266-1.756.262-.383.09h0a17.993,17.993,0,0,0-2.332.633,2.342,2.342,0,0,0-1.345,3.266c.688,1.12,1.455,2.171,2.189,3.254l1.749,2.621,1.912,2.866q.787,1.177,1.584,2.362L188.6,1.962l.324.473.218.312,3.738,5.613C192.807,8.689,193.39,9.24,192.548,9.306Z" transform="translate(-168.545 32.047)"/>
        <path id="Path_19802" data-name="Path 19802" class="cls-5" d="M208.64,7.746c.094.335.186.668.278,1-.229.688-.459,1.354-.718,2.125a2.184,2.184,0,0,1,1.09,2.573,3.709,3.709,0,0,1-2.047,2.265c1.118,2.2.528,2.983-2.655,3.64a3.045,3.045,0,0,1-.78,2.261,2.461,2.461,0,0,1-3.775-.057.456.456,0,0,0-.688-.117,2.552,2.552,0,0,1-4.106-2.1.831.831,0,0,0-.078-.186,2.457,2.457,0,0,1-2.983-1.1,3.56,3.56,0,0,1,.018-3.39,2.261,2.261,0,0,1-1.785-2.313,3.071,3.071,0,0,1,1.8-2.788,2.912,2.912,0,0,0,.335-.252c.835-.067.252-.617.321-.946A3.63,3.63,0,0,1,193.9,6.185V6.139l.259-.188v.016l1.095-.3h.262l1.868.67c.287-.815.688-1.648,1.694-1.822,1.086-.186,1.627.592,2.006,1.267a10.986,10.986,0,0,1,2.065-.677c1.108-.138,1.689.443,2.235,1.969.083.48.356.19.542.119A2.215,2.215,0,0,1,208.64,7.746ZM203.655,19.64a3.558,3.558,0,0,0,0-.431c-.09-.606.172-.847.771-.785a2.662,2.662,0,0,0,.81,0c.6-.133,1.315-.184,1.606-.824.264-.6-.1-1.106-.5-1.567-.36-.418-.2-.764.259-1.03a7.221,7.221,0,0,0,1.577-1.147,1.363,1.363,0,0,0-.688-2.295c-.783-.2-.84-.459-.328-1.086a4.315,4.315,0,0,0,.81-1.377,1.147,1.147,0,0,0-.271-.989,1.223,1.223,0,0,0-1.056-.2,10.453,10.453,0,0,0-1.5.957,3.245,3.245,0,0,1-.638.229,2.88,2.88,0,0,1-.168-.688,3.065,3.065,0,0,1,.161-.663,1.5,1.5,0,0,0-.542-1.606,1.189,1.189,0,0,0-1.4-.016,4.425,4.425,0,0,0-1,.725c-.521.459-.918.372-1.147-.3a3.179,3.179,0,0,0-.291-.688.807.807,0,0,0-1.51.076,9.388,9.388,0,0,0-.42,1.606c-.154.592-.4.663-.849.229-.2-.186-.342-.427-.549-.594-1.081-.872-2.084-.991-2.754.363a3.462,3.462,0,0,0-.1,1.687c.053.721-.023.863-.767.934a2.143,2.143,0,0,0-1.9,2.01c-.071,1.01.388,1.51,1.629,1.772.459.1.553.379.312.76a3,3,0,0,0-.5,1.047,2.257,2.257,0,0,0,.555,2.359,1.667,1.667,0,0,0,1.971.037,2.963,2.963,0,0,1,.808-.142,3.258,3.258,0,0,1,.1.856c-.269,1.852.787,2.375,1.932,2.162a4.508,4.508,0,0,0,1.285-.783c.216-.135.436-.344.661-.351.117,0,.31.342.358.555a1.542,1.542,0,0,0,2.222,1.026A1.674,1.674,0,0,0,203.655,19.64Z" transform="translate(-168.545 32.047)"/>
        <path id="Path_19803" data-name="Path 19803" class="cls-6" d="M198.028-16.93a.716.716,0,0,1-.025-.094q5.157,0,10.311-.014a1.267,1.267,0,0,1,.349.106l-1.645.025Z" transform="translate(-168.545 32.047)"/>
        <path id="Path_19804" data-name="Path 19804" class="cls-7" d="M192.885-16.124l.907-.018.734-.014q6.04-.014,12.085-.023c.395,0,.787.034,1.182.053l.865.062h0l-1.9.135c-.269.021-.539.037-.81.053.308.489.553.918.828,1.306.193.275.436.314.656.016.266-.363.544-.3.847-.053a2.6,2.6,0,0,0,.363.229c.588.351.6.438.057.888a1.535,1.535,0,0,0,.408.161,1.134,1.134,0,0,1,1.106.826c.092.248.482.392.746.569a3.353,3.353,0,0,0,.459.2l-2.02.285-1.763.767c-.048-.069-.122-.129-.14-.2-.057-.229-.021-.512-.151-.661-.2-.229-.4-.126-.459.19l-.379-.092c-.048-.546-.333-.6-.753-.356a3.531,3.531,0,0,1-.978.1c-1.095-.193-2.171-.482-3.266-.663a7.089,7.089,0,0,0-2.065-.117c-1.258.174-2.456.739-3.771.562-.115-.016-.229.08-.36.078-.33,0-.659-.03-.989-.044h-.521l.344.441-1.005.539h0l-.25-.145h0l-.351-.147-.753-.243.459-.186c-.383-.259-.991.3-1.333-.473a4.476,4.476,0,0,1,1.237-.645,1.05,1.05,0,0,0,.918-.847c.8.076.849.03.84-.709a.794.794,0,0,0,.9-.443,1.427,1.427,0,0,1,2.017-.241c.156.126.532.241.6.17a7.494,7.494,0,0,0,.734-1.115h-5.233l-.33-.041Z" transform="translate(-168.545 32.047)"/>
        <path id="Path_19805" data-name="Path 19805" class="cls-8" d="M208.64,7.746a2.205,2.205,0,0,0-2.7-.565c-.186.071-.459.36-.542-.119l.771-1.88c.188.291.275.429.365.565l.2-.028v-.75c0-.2-.112-.48-.018-.592.353-.411.783-.737.526-1.4-.053-.135.321-.4.441-.64a2.926,2.926,0,0,0,.328-.9c.05-.347-.023-.688.406-.881.106-.046.117-.353.131-.544s-.1-.333-.055-.459c.33-1.04.688-2.065,1.033-3.1.624-.078,1.248-.163,1.875-.229a4.321,4.321,0,0,1,.643.032.6.6,0,0,0-.268.771,2.524,2.524,0,0,1-.1,2.139c-.073.147.016.367,0,.553a2.523,2.523,0,0,1-.092.75c-.459,1.17-.342,1.59.629,1.992ZM210.246.968c-.3-.229-.537-.519-.624-.48a2.625,2.625,0,0,0-.6.544c.168.17.344.484.5.473.211-.014.4-.278.734-.537Zm-3.789,5.508-.028.229.491.048.023-.186Z" transform="translate(-168.545 32.047)"/>
        <path id="Path_19806" data-name="Path 19806" class="cls-9" d="M193.909,6.2a3.629,3.629,0,0,0-1.033,2.176l-3.738-5.618.021-.434h0c1.4-.748.041-1.448-.069-2.164l.6-.2a5.811,5.811,0,0,1-.8-3.755l-.174.016.33-.269.633.372-.443.053c.271.3.473.542.548-.039l.376.138c.028.053.039.133.083.158a1.638,1.638,0,0,1,.868,1.746,7.872,7.872,0,0,0,.335,2.212c.089.34.434.6.128,1-.032.041.131.229.2.356l.266.716c.023.229-.034.5.078.659a2.156,2.156,0,0,1,.431,2.015c-.032.106.17.409.229.4C193.261,5.659,193.551,6,193.909,6.2Zm-3.472-4.165V1.875h-.413V1.99Z" transform="translate(-168.545 32.047)"/>
        <path id="Path_19807" data-name="Path 19807" class="cls-10" d="M188.155-15.812h.443l1.439.319a5.878,5.878,0,0,0-.585.75c-.4.757-.817,1.515-1.147,2.295s-.918,1.512-.379,2.421a4.177,4.177,0,0,0-.287,4.59c-.1.666-.2,1.329-.3,1.992-.021.138-.016.347-.1.392-.484.271-.3.645-.229,1.03a8.7,8.7,0,0,1,.078,1.042c.553.365.567.427.071.787q-.8-1.184-1.6-2.366a.774.774,0,0,0,.158-1.32L185.6-4.891a5.416,5.416,0,0,0,.344-.6c.078-.184.067-.409.158-.581a.914.914,0,0,0-.083-1.161.778.778,0,0,1-.09-.585c.1-.477.269-.941.379-1.418a7.406,7.406,0,0,0,.094-.847l-.172-.014-.129.544-.2-.018a6.075,6.075,0,0,1,.106-.76c.064-.257.188-.5.273-.748.337-.987.668-1.974,1.005-2.958a1.617,1.617,0,0,1,.1-.158Q187.772-15.007,188.155-15.812Zm-.776,5.714-.2-.041-.094.459.184.037Z" transform="translate(-168.545 32.047)"/>
        <path id="Path_19808" data-name="Path 19808" class="cls-11" d="M188.155-15.812q-.386.806-.773,1.606a1.617,1.617,0,0,0-.1.158c-.337.985-.668,1.971-1.005,2.958-.085.25-.209.491-.273.748a6.077,6.077,0,0,0-.106.769l.2.018.129-.544.172.014a7.4,7.4,0,0,1-.094.847c-.11.477-.28.941-.379,1.418a.778.778,0,0,0,.089.585.923.923,0,0,1,.083,1.161c-.092.172-.08.4-.158.581a5.418,5.418,0,0,1-.344.6l.122,1.012a.774.774,0,0,1-.158,1.32L183.655-5.43l.459-.129c-.275-1.239.289-2.352.546-3.518.342,0,.81.186.858-.39.044-.5-.308-.615-.73-.59-.037-.05-.108-.106-.1-.151a14.806,14.806,0,0,1,1.012-4.076c.28-.61.3-.918-.165-1.267Z" transform="translate(-168.545 32.047)"/>
        <path id="Path_19809" data-name="Path 19809" class="cls-12" d="M185.539-15.546c.459.342.445.656.165,1.267a14.805,14.805,0,0,0-1.012,4.076c0,.046.064.1.1.151-.044.326-.087.654-.129.98-.257,1.166-.822,2.279-.546,3.518l-.459.129-1.749-2.621a6.685,6.685,0,0,0,.489-1.2c.2-.946.289-1.912.48-2.857a7.386,7.386,0,0,1,.489-1.466c.229-.553.5-1.081.03-1.634h0l.383-.09Z" transform="translate(-168.545 32.047)"/>
        <path id="Path_19810" data-name="Path 19810" class="cls-13" d="M217.792-6.024c-.574.918-1.136,1.822-1.721,2.722-.415.638-.863,1.258-1.294,1.884a.664.664,0,0,1,.149-1.03c.106-.076.145-.229.213-.363.124-.246.418-.574.344-.728-.395-.819.119-1.574.092-2.368a24.026,24.026,0,0,0-.344-4.714c-.071-.308.067-.668-.023-.966-.271-.9-.583-1.795-.918-2.676a10.826,10.826,0,0,0-.652-1.2l1-.2,1.753.229-.652.193,1.03,4.679c-.165.216-.459.429-.459.652,0,.413.356.489.716.459,0,.516-.431,1.083.229,1.54-.521.328-.342.67-.108,1.063a2.906,2.906,0,0,1,.2.812Z" transform="translate(-168.545 32.047)"/>
        <path id="Path_19811" data-name="Path 19811" class="cls-14" d="M183.393-15.2c.473.553.211,1.081-.03,1.634a7.385,7.385,0,0,0-.489,1.466c-.19.946-.285,1.912-.48,2.857a6.682,6.682,0,0,1-.489,1.2c-.734-1.083-1.505-2.141-2.189-3.254a2.342,2.342,0,0,1,1.356-3.266A17.343,17.343,0,0,1,183.393-15.2Z" transform="translate(-168.545 32.047)"/>
        <path id="Path_19812" data-name="Path 19812" class="cls-15" d="M209.4-11.45l2.02-.285a3.353,3.353,0,0,1-.459-.2c-.264-.177-.654-.321-.746-.569a1.134,1.134,0,0,0-1.1-.808,1.535,1.535,0,0,1-.409-.161c.539-.459.53-.537-.057-.888a2.6,2.6,0,0,1-.363-.229c-.3-.248-.581-.31-.847.053-.229.3-.459.259-.656-.016-.275-.4-.521-.817-.828-1.306.271-.016.542-.032.81-.053l1.9-.135,3.105.271-.946.431a5.645,5.645,0,0,1,.744.8c.588.987,1.134,2,1.705,3,.317.548-.156,1.01-.145,1.524A4.169,4.169,0,0,0,209.4-11.45Z" transform="translate(-168.545 32.047)"/>
        <path id="Path_19813" data-name="Path 19813" class="cls-16" d="M217.792-6.024h-.445a2.906,2.906,0,0,0-.2-.812c-.229-.392-.413-.734.108-1.063-.67-.459-.25-1.024-.23-1.54.4-.6.363-.776-.25-1.113l-1.03-4.675.652-.193,1.377.229c.064.392.112.787.2,1.173.073.321.229.624.285.948.19,1.322.353,2.646.519,3.97.05.415.186.725.688.666l-1.5,2.247-.184.14Z" transform="translate(-168.545 32.047)"/>
        <path id="Path_19814" data-name="Path 19814" class="cls-14" d="M219.461-8.423c-.5.06-.638-.25-.688-.666-.165-1.324-.328-2.648-.519-3.97-.046-.324-.211-.627-.285-.948-.087-.386-.135-.78-.2-1.173a13.889,13.889,0,0,1,2.823,1,2.143,2.143,0,0,1,.567,3.245C220.6-10.1,220.028-9.26,219.461-8.423Z" transform="translate(-168.545 32.047)"/>
        <path id="Path_19815" data-name="Path 19815" class="cls-10" d="M213.127-10.04c0-.514.459-.975.145-1.524-.571-1-1.118-2.013-1.705-3a5.645,5.645,0,0,0-.744-.8l.946-.431h.629c.119.262.229.521.356.78a23.59,23.59,0,0,1,1.106,2.508,6.483,6.483,0,0,1,.558,2.837,2.733,2.733,0,0,0,.06,1.083,4.108,4.108,0,0,1-.039,2.619c-.041.115.03.273.053.411a4.543,4.543,0,0,1,.218,1.4,1.184,1.184,0,0,0,.438,1.345c-.069.124-.108.287-.213.363a.664.664,0,0,0-.149,1.03c-.218.328-.436.654-.652.982-.1-.09-.229-.163-.278-.273-.062-.158-.03-.353-.08-.519-.142-.475-.459-.936.142-1.361a.647.647,0,0,0,.14-.62c-.383-.592-.154-1.441-.81-1.907a4.147,4.147,0,0,0,.023-4.819l-.142-.119Z" transform="translate(-168.545 32.047)"/>
        <path id="Path_19816" data-name="Path 19816" class="cls-15" d="M213.246-5.115c.656.459.427,1.315.81,1.907a.647.647,0,0,1-.14.62c-.594.425-.285.886-.142,1.361.05.165.018.36.08.519.041.11.181.184.278.273l-1.921,2.887c-.971-.4-1.095-.822-.629-1.992a2.524,2.524,0,0,0,.092-.75c0-.186-.078-.406,0-.553a2.524,2.524,0,0,0,.1-2.139.594.594,0,0,1,.269-.773,2.042,2.042,0,0,1,.269-.5C212.6-4.562,212.932-4.819,213.246-5.115Z" transform="translate(-168.545 32.047)"/>
        <path id="Path_19817" data-name="Path 19817" class="cls-17" d="M215.146-2.811a1.184,1.184,0,0,1-.438-1.345,4.629,4.629,0,0,0-.218-1.4c-.023-.138-.094-.3-.053-.411a4.108,4.108,0,0,0,.039-2.614,2.733,2.733,0,0,1-.06-1.083,6.368,6.368,0,0,0-.558-2.837A23.59,23.59,0,0,0,212.753-15c-.117-.259-.229-.519-.356-.78l2.242.126-1,.2a10.824,10.824,0,0,1,.652,1.2c.342.881.654,1.772.918,2.676.09.3-.048.659.023.966a24.026,24.026,0,0,1,.344,4.714c.028.794-.487,1.549-.092,2.368C215.564-3.385,215.268-3.057,215.146-2.811Z" transform="translate(-168.545 32.047)"/>
        <path id="Path_19818" data-name="Path 19818" class="cls-15" d="M187.161-.193c.5-.36.482-.422-.071-.787a8.69,8.69,0,0,0-.078-1.042c-.076-.386-.257-.76.229-1.03.083-.046.078-.255.1-.392.1-.663.2-1.326.3-1.992q.7.688,1.409,1.377l-.33.269.174-.016a5.811,5.811,0,0,0,.8,3.755l-.6.2c.11.716,1.464,1.416.069,2.164.039-.484-.168-.569-.562-.349Z" transform="translate(-168.545 32.047)"/>
        <path id="Path_19819" data-name="Path 19819" class="cls-18" d="M187.921-10.022c-.539-.918.055-1.657.379-2.421s.748-1.547,1.147-2.295a5.877,5.877,0,0,1,.585-.75l-1.439-.319c.753-.076,1.505-.17,2.258-.229.675-.048,1.354-.055,2.031-.083l-.312.154.33.041-1.09.165c-.608.728-1.191,1.326-1.659,2.006-.493.716-.881,1.508-1.313,2.265l.2.512Z" transform="translate(-168.545 32.047)"/>
        <path id="Path_19820" data-name="Path 19820" class="cls-19" d="M198.028-16.93l8.989.023a3.61,3.61,0,0,1-.6.1h-7.8A3,3,0,0,1,198.028-16.93Z" transform="translate(-168.545 32.047)"/>
        <path id="Path_19821" data-name="Path 19821" class="cls-9" d="M188.6,1.962c.395-.229.6-.135.562.349h0l-.229.124Z" transform="translate(-168.545 32.047)"/>
        <path id="Path_19822" data-name="Path 19822" class="cls-18" d="M208.658-16.065l-.865-.062Z" transform="translate(-168.545 32.047)"/>
        <path id="Path_19823" data-name="Path 19823" class="cls-18" d="M194.526-16.157l-.734.014Z" transform="translate(-168.545 32.047)"/>
        <path id="Path_19824" data-name="Path 19824" class="cls-15" d="M188.919,2.435l.229-.124-.011.443Z" transform="translate(-168.545 32.047)"/>
        <path id="Path_19825" data-name="Path 19825" class="cls-14" d="M183.783-15.284l-.383.09Z" transform="translate(-168.545 32.047)"/>
        <path id="Path_19826" data-name="Path 19826" class="cls-13" d="M217.779-6.036l.184-.14Z" transform="translate(-168.545 32.047)"/>
        <path id="Path_19827" data-name="Path 19827" class="cls-20" d="M203.655,19.64a1.672,1.672,0,0,1-1.037,1.815,1.542,1.542,0,0,1-2.222-1.03c-.048-.213-.241-.56-.358-.555-.229,0-.445.216-.661.351a4.636,4.636,0,0,1-1.285.783c-1.147.213-2.2-.31-1.932-2.162a3.259,3.259,0,0,0-.1-.856,2.963,2.963,0,0,0-.808.142,1.667,1.667,0,0,1-1.971-.037,2.266,2.266,0,0,1-.555-2.359,3,3,0,0,1,.514-1.044c.229-.381.145-.661-.312-.76-1.242-.262-1.7-.762-1.629-1.772a2.144,2.144,0,0,1,1.886-1.983c.744-.071.819-.213.767-.934a3.47,3.47,0,0,1,.1-1.687c.663-1.354,1.666-1.235,2.754-.363.207.168.353.409.548.594.448.431.688.36.849-.229a10.719,10.719,0,0,1,.42-1.606.807.807,0,0,1,1.51-.076,3.179,3.179,0,0,1,.291.688c.229.675.62.769,1.147.3a4.425,4.425,0,0,1,1-.725,1.189,1.189,0,0,1,1.4.016,1.5,1.5,0,0,1,.542,1.606,3.067,3.067,0,0,0-.161.663,2.88,2.88,0,0,0,.168.688,3.245,3.245,0,0,0,.638-.229,10.451,10.451,0,0,1,1.5-.957,1.223,1.223,0,0,1,1.056.2,1.147,1.147,0,0,1,.271.989,4.315,4.315,0,0,1-.81,1.377c-.512.62-.459.886.328,1.086a1.363,1.363,0,0,1,.688,2.295,7.22,7.22,0,0,1-1.577,1.147c-.459.266-.62.613-.259,1.03.4.459.764.971.5,1.567-.282.64-1,.688-1.606.824a2.662,2.662,0,0,1-.81,0c-.6-.062-.861.179-.771.785A3.561,3.561,0,0,1,203.655,19.64Zm-8.193-8.985c-.789.018-1.019.2-1,.769.025.831.351,1.393.8,1.377.7-.021,1.147-.372,1.113-.89C196.332,11.046,196.036,10.642,195.462,10.656Zm3.33,3.087a2.273,2.273,0,0,1,1.788-2.524,1.024,1.024,0,0,0-1.168-.519,1.58,1.58,0,0,0-1.327,1.315A1.377,1.377,0,0,0,198.792,13.742Zm3.917-5.586c-.264.177-.477.241-.532.372a6.655,6.655,0,0,0-.367,1.182c-.03.135.071.42.145.431.383.06.952.229,1.125.032a1.916,1.916,0,0,0,.429-1.3C203.495,8.624,203,8.4,202.71,8.156Zm-6.83,8.016c.259-.273.64-.507.744-.831.131-.406-.553-1.161-.918-1.161a.785.785,0,0,0-.8.9,1.173,1.173,0,0,0,.975,1.095Zm4.5,1.166c-1.147.769-2.088.744-2.692-.585-.526.59-.124.966.119,1.333a1.462,1.462,0,0,0,1.728.477A1.175,1.175,0,0,0,200.378,17.338Zm4.289-6.91c-.549,0-.879.367-.856,1.037.016.512.372.7.84.714a1.1,1.1,0,0,0,.849-1.053c-.009-.5-.363-.7-.833-.7Zm-4.835,6.325c.386-.064.918-.057.893-.652-.018-.418-.016-1.028-.627-1.037-.326,0-.886-.028-.941.551C199.1,16.216,199.412,16.73,199.832,16.753Zm2.8-4.5c.8.918.376,1.742-.119,2.561.652.289.9-.193,1.166-.507a1.154,1.154,0,0,0,.028-1.531A.952.952,0,0,0,202.627,12.255ZM195.091,10.1c.395-.968,1.219-.918,2.15-.812-.321-.608-.643-.959-1.2-.968a1.074,1.074,0,0,0-1.125.709C194.783,9.375,194.645,9.712,195.091,10.1Zm8.613,5.581c-.732.158-.778.606-.8,1.044-.028.542.42.672.8.789.248.073.8-.746.661-1.12C204.252,16.085,203.892,15.87,203.7,15.679Z" transform="translate(-168.545 32.047)"/>
        <path id="Path_19828" data-name="Path 19828" class="cls-21" d="M209.53-3.566c-.347,1.033-.7,2.065-1.033,3.1-.044.135.067.312.055.459s-.025.5-.131.544c-.429.19-.356.535-.406.881a2.926,2.926,0,0,1-.328.9c-.119.229-.493.5-.441.64.257.668-.172.994-.526,1.4-.094.112,0,.39.018.592v.75l-.2.028c-.09-.135-.177-.273-.365-.565L205.4,7.062c-.546-1.526-1.127-2.107-2.235-1.969a11.434,11.434,0,0,0-2.065.677c-.379-.675-.918-1.453-2.006-1.267-1.014.174-1.407,1.007-1.694,1.822l-1.868-.67c.087-.555.19-1.115-.666-1.129-.069,0-.168-.2-.186-.324,0-.055.14-.135.229-.2l.42-.342c-.725-.147-.886-.314-.732-.918.1-.372-.041-.537-.294-.778-.381-.365-1.04-.643-.688-1.4.034-.071-.092-.305-.184-.333-.567-.174-.539-.594-.5-1.051a3,3,0,0,0-.041-.771,4.148,4.148,0,0,0-.23-.884c-.188-.459-.241-1.01-.851-1.147l1.914-.966c.5.273.643-.03.672-.434l.76-.1c-.078-.415-.138-.73-.193-1.047-.023-.131-.039-.264-.057-.4l.039-.259.076-.312.073-.184a1.051,1.051,0,0,0,1.2.532c.975-.161,1.953-.319,2.935-.388.943-.067,1.9-.025,2.843,0a8.432,8.432,0,0,1,1.044.108c.544.08,1.086.193,1.634.243.122.011.3-.154.386-.282.443-.629-.151-1.221-.041-1.886-.308.395-.555.75-.767,0a.482.482,0,0,0-.376-.25c-1.43-.037-2.86,0-4.287-.073a5.551,5.551,0,0,0-3.571.828l-.516-.459-.131.094c.282.548.108.845-.459.918v-.034l.032-.016c.271-1.083.172-1.549-.372-1.836v.64a4.911,4.911,0,0,0-1.5-1.733l1-.532-.337-.441h.521c.33.014.659.041.989.044.119,0,.246-.094.36-.078,1.315.177,2.524-.388,3.771-.562a7.089,7.089,0,0,1,2.065.117c1.095.181,2.171.47,3.266.663a3.531,3.531,0,0,0,.978-.1l.213.769.539-.413.379.092c.046-.317.255-.413.459-.19.131.149.094.438.151.661.018.076.092.135.14.2l-1.079.888c-.115.076-.314.138-.326.229a9.8,9.8,0,0,0-.046,1.04h.016l-.05.229-.025.248a.85.85,0,0,0,.014,1.251l.016.122c.046.165.09.33.135.5h0l.115.269.028.021v.032c-.11.459-.229.229-.425.034-.23-.229-.519-.581-.789-.59-.849-.032-1.7.115-2.554.115-1.056,0-2.114-.087-3.169-.11-.824-.018-1.645,0-2.469,0-.627,0-.789.445-.842.95-.044.413-.094.858.523.769.073.4-.771.56-.17,1.017A4.161,4.161,0,0,0,200.22.858a4.474,4.474,0,0,0,3.548-1.191c.149.4.335.42.688.168a15.311,15.311,0,0,1,1.606-.918.68.68,0,0,1,.053-1.014c.048-.041-.085-.333-.179-.48-.3-.47-.108-.817.289-1.147v.849l.532-.438a5.561,5.561,0,0,1,.021-.865.615.615,0,0,1,.431-.028,5.277,5.277,0,0,1,.714.5l.358-.229ZM196.936,2.554a.934.934,0,0,0-1.014.858.95.95,0,0,0,.918,1.019.966.966,0,0,0,1.035-.939A.939.939,0,0,0,196.936,2.554Zm-.028,2.7-.594.33.918.475Z" transform="translate(-168.545 32.047)"/>
        <path id="Path_19829" data-name="Path 19829" class="cls-22" d="M191.8-3.624c.61.14.663.7.851,1.147a4.15,4.15,0,0,1,.229.884,3,3,0,0,1,.041.771c-.039.459-.067.877.5,1.051.092.028.218.262.184.333-.356.757.3,1.035.688,1.4a.683.683,0,0,1,.294.778c-.154.6,0,.769.732.918L194.9,4c-.08.067-.229.147-.229.2.018.119.117.324.186.324.856.014.753.574.666,1.129h-.259c-.521-.459-.794-.025-1.095.3V5.946l-.257.188V6.18c-.358-.188-.647-.526-1.125-.459-.064,0-.266-.294-.229-.4a2.181,2.181,0,0,0-.431-2.015c-.112-.158-.055-.436-.078-.659.395.046.67-.126.7-.514.014-.161-.19-.487-.266-.477a2.582,2.582,0,0,0-.7.275c-.071-.122-.23-.314-.2-.356.305-.4-.039-.663-.129-1a7.873,7.873,0,0,1-.335-2.212,1.638,1.638,0,0,0-.868-1.746c-.044-.025-.055-.106-.083-.158Z" transform="translate(-168.545 32.047)"/>
        <path id="Path_19830" data-name="Path 19830" class="cls-21" d="M194.177,5.967c.3-.328.574-.762,1.095-.3Z" transform="translate(-168.545 32.047)"/>
        <path id="Path_19831" data-name="Path 19831" class="cls-21" d="M193.925,6.139l.257-.188Z" transform="translate(-168.545 32.047)"/>
        <path id="Path_19832" data-name="Path 19832" class="cls-23" d="M206.558-9.795l1.079-.888,1.763-.767a4.2,4.2,0,0,1,3.727,1.409h0l.142.119a4.125,4.125,0,0,1-.023,4.819c-.314.285-.643.553-.936.858a2.043,2.043,0,0,0-.269.5,4.037,4.037,0,0,0-.643-.034c-.627.062-1.251.147-1.875.229l-1.244-.386-1.485-1.281a.069.069,0,0,0-.044-.078c-.112-.188-.23-.379-.333-.569v-.032l-.028-.021-.115-.269h0c-.046-.165-.09-.33-.135-.5l-.016-.122-.014-1.251a2.27,2.27,0,0,1,.025-.248l.05-.229h-.016Zm2.628-.516A1.662,1.662,0,0,0,208-9.843a1.662,1.662,0,0,0-.505,1.171,1.7,1.7,0,0,0,.466,1.22,1.7,1.7,0,0,0,1.194.529,1.751,1.751,0,0,0,1.717-1.648A1.735,1.735,0,0,0,209.186-10.311Zm3.3,4.067a1,1,0,0,0-.962-.964,1.047,1.047,0,0,0-1.005,1,.994.994,0,0,0,.959.959A1.033,1.033,0,0,0,212.484-6.245Z" transform="translate(-168.545 32.047)"/>
        <path id="Path_19833" data-name="Path 19833" class="cls-23" d="M191.8-3.624l-1.639.083-.365-.131a.273.273,0,0,0-.106-.014l-.633-.372q-.707-.688-1.409-1.377a4.178,4.178,0,0,1,.287-4.59l1.125-.959a5.028,5.028,0,0,1,2.738-.459l.753.246.365.149h0l.25.145h0a4.911,4.911,0,0,1,1.476,1.724l.372,1.191-.032.016v.034l.1.617-.073.184-.076.312-.039.259a5,5,0,0,1-1.182,1.974Zm-3.369-4.806a1.76,1.76,0,0,0,1.707,1.73,1.744,1.744,0,0,0,1.675-1.689,1.694,1.694,0,0,0-1.641-1.71,1.689,1.689,0,0,0-1.221.468,1.689,1.689,0,0,0-.521,1.2Zm3.986,3.38a1,1,0,0,0,1.014-.971,1.021,1.021,0,0,0-.939-.991,1.1,1.1,0,0,0-1.026.994.991.991,0,0,0,.95.968Z" transform="translate(-168.545 32.047)"/>
        <path id="Path_19834" data-name="Path 19834" class="cls-9" d="M191.783-11.44a5.028,5.028,0,0,0-2.738.459l-.2-.512c.431-.757.819-1.549,1.313-2.265a25.065,25.065,0,0,1,1.659-2.006l1.09-.165h5.233a7.5,7.5,0,0,1-.734,1.115c-.067.071-.443-.044-.6-.17a1.435,1.435,0,0,0-2.017.241.794.794,0,0,1-.9.443l-.773-.122-.069.831a1.031,1.031,0,0,1-.918.847,4.415,4.415,0,0,0-1.237.645c.342.769.95.213,1.333.473Zm-2.524.028.016.05a.539.539,0,0,0,.09-.044.1.1,0,0,0-.014-.05Z" transform="translate(-168.545 32.047)"/>
        <path id="Path_19835" data-name="Path 19835" class="cls-24" d="M193.046-13.591l.069-.831.773.122C193.895-13.561,193.842-13.515,193.046-13.591Z" transform="translate(-168.545 32.047)"/>
        <path id="Path_19836" data-name="Path 19836" class="cls-14" d="M206.517-11.45l-.539.413-.213-.769C206.184-12.046,206.469-12,206.517-11.45Z" transform="translate(-168.545 32.047)"/>
        <path id="Path_19837" data-name="Path 19837" class="cls-21" d="M192.9-11.048l-.353-.149Z" transform="translate(-168.545 32.047)"/>
        <path id="Path_19838" data-name="Path 19838" class="cls-21" d="M193.149-10.906l-.25-.145Z" transform="translate(-168.545 32.047)"/>
        <path id="Path_19839" data-name="Path 19839" class="cls-24" d="M210.249.968c-.33.259-.523.523-.732.537-.151.011-.328-.3-.5-.473a2.626,2.626,0,0,1,.6-.544C209.712.459,209.946.728,210.249.968Z" transform="translate(-168.545 32.047)"/>
        <path id="Path_19840" data-name="Path 19840" class="cls-21" d="M206.46,6.481l.487.087-.023.186-.491-.048Z" transform="translate(-168.545 32.047)"/>
        <path id="Path_19841" data-name="Path 19841" class="cls-24" d="M191.774,1.935a2.582,2.582,0,0,1,.7-.275c.076,0,.28.317.266.477-.032.388-.308.56-.7.514Z" transform="translate(-168.545 32.047)"/>
        <path id="Path_19842" data-name="Path 19842" class="cls-15" d="M189.677-3.693a.273.273,0,0,1,.117.021c-.076.581-.278.34-.548.039Z" transform="translate(-168.545 32.047)"/>
        <path id="Path_19843" data-name="Path 19843" class="cls-15" d="M190.436,2.031l-.413-.041V1.875h.413Z" transform="translate(-168.545 32.047)"/>
        <path id="Path_19844" data-name="Path 19844" class="cls-18" d="M187.379-10.1l-.11.459-.184-.037.094-.459Z" transform="translate(-168.545 32.047)"/>
        <path id="Path_19845" data-name="Path 19845" class="cls-24" d="M184.664-9.072c.041-.326.085-.654.129-.98.422-.025.773.092.73.59C185.475-8.886,185.006-9.083,184.664-9.072Z" transform="translate(-168.545 32.047)"/>
        <path id="Path_19846" data-name="Path 19846" class="cls-24" d="M216.771-10.557c.613.337.652.509.25,1.113-.36.028-.728-.048-.716-.459C216.312-10.123,216.606-10.327,216.771-10.557Z" transform="translate(-168.545 32.047)"/>
        <path id="Path_19847" data-name="Path 19847" class="cls-15" d="M213.269-9.93l-.142-.119Z" transform="translate(-168.545 32.047)"/>
        <path id="Path_19848" data-name="Path 19848" class="cls-25" d="M195.462,10.656c.574-.014.87.39.918,1.255.028.519-.409.87-1.113.89-.459.016-.778-.546-.8-1.377C194.443,10.851,194.673,10.674,195.462,10.656Z" transform="translate(-168.545 32.047)"/>
        <path id="Path_19849" data-name="Path 19849" class="cls-26" d="M198.792,13.742a1.379,1.379,0,0,1-.707-1.73,1.591,1.591,0,0,1,1.326-1.315,1.024,1.024,0,0,1,1.168.519A2.278,2.278,0,0,0,198.792,13.742Z" transform="translate(-168.545 32.047)"/>
        <path id="Path_19850" data-name="Path 19850" class="cls-25" d="M202.71,8.156c.294.248.785.459.8.714a1.916,1.916,0,0,1-.429,1.3c-.172.186-.741.028-1.125-.032-.073,0-.174-.3-.145-.431a6.655,6.655,0,0,1,.367-1.182C202.232,8.4,202.446,8.333,202.71,8.156Z" transform="translate(-168.545 32.047)"/>
        <path id="Path_19851" data-name="Path 19851" class="cls-27" d="M195.88,16.173a1.173,1.173,0,0,1-.973-1.095.785.785,0,0,1,.8-.9c.363,0,1.047.755.918,1.161C196.52,15.665,196.139,15.9,195.88,16.173Z" transform="translate(-168.545 32.047)"/>
        <path id="Path_19852" data-name="Path 19852" class="cls-26" d="M200.378,17.338a1.177,1.177,0,0,1-.845,1.226,1.462,1.462,0,0,1-1.728-.477c-.243-.367-.645-.744-.119-1.333C198.285,18.082,199.226,18.107,200.378,17.338Z" transform="translate(-168.545 32.047)"/>
        <path id="Path_19853" data-name="Path 19853" class="cls-27" d="M204.667,10.428c.47,0,.822.179.833.688s-.459,1.06-.849,1.053c-.459,0-.824-.2-.84-.714C203.793,10.786,204.119,10.424,204.667,10.428Z" transform="translate(-168.545 32.047)"/>
        <path id="Path_19854" data-name="Path 19854" class="cls-25" d="M199.832,16.753c-.42,0-.732-.526-.675-1.147.055-.578.615-.555.941-.551.61,0,.608.62.627,1.037C200.748,16.684,200.217,16.678,199.832,16.753Z" transform="translate(-168.545 32.047)"/>
        <path id="Path_19855" data-name="Path 19855" class="cls-26" d="M202.627,12.255a.952.952,0,0,1,1.074.523,1.154,1.154,0,0,1-.028,1.531c-.271.314-.514.8-1.166.507C203,14,203.424,13.169,202.627,12.255Z" transform="translate(-168.545 32.047)"/>
        <path id="Path_19856" data-name="Path 19856" class="cls-26" d="M195.091,10.1c-.445-.386-.308-.723-.172-1.072a1.074,1.074,0,0,1,1.125-.709c.555,0,.877.36,1.2.968C196.309,9.18,195.485,9.129,195.091,10.1Z" transform="translate(-168.545 32.047)"/>
        <path id="Path_19857" data-name="Path 19857" class="cls-27" d="M203.7,15.679c.188.19.549.406.663.714.135.374-.413,1.193-.661,1.12-.383-.117-.831-.248-.8-.789C202.926,16.294,202.971,15.835,203.7,15.679Z" transform="translate(-168.545 32.047)"/>
        <path id="Path_19858" data-name="Path 19858" class="cls-28" d="M206.795-5.233l1.485,1.281-.358.229a5.278,5.278,0,0,0-.716-.5.615.615,0,0,0-.431.028,5.561,5.561,0,0,0-.021.865l-.532.438v-.849c-.4.324-.59.67-.289,1.147.094.147.229.438.179.48a.673.673,0,0,0-.053,1.014c-.558.319-1.108.581-1.606.929-.358.252-.544.229-.688-.168l.688-.877.475.14-.229-.64.19-.477.555.1c.028-.168.053-.285.067-.4.08-.711.142-1.427.243-2.137a1.212,1.212,0,0,0-.688-1.324c.1.491.172.833.229,1.076l-.872.351.211.344c-.675-.053-.833.347-.884.918A3.055,3.055,0,0,1,200.7-.4a2.909,2.909,0,0,1-2.921-2.814c0-.083.021-.188-.018-.243-.161-.229-.3-.516-.521-.606a.516.516,0,0,0-.453.014.516.516,0,0,0-.267.367c-.6-.459.243-.617.17-1.017-.617.09-.567-.356-.523-.769.053-.5.216-.943.842-.95.824,0,1.645-.028,2.469,0,1.056.023,2.114.112,3.169.11.851,0,1.705-.147,2.554-.115.271,0,.555.356.789.59.19.193.314.415.425-.034.11.19.23.381.333.569l-.351.252-.188.117.071.071.117-.188.351.126Z" transform="translate(-168.545 32.047)"/>
        <path id="Path_19859" data-name="Path 19859" class="cls-28" d="M195.093-7.314l-.1-.617c.569-.078.744-.374.459-.918l.131-.094.516.459a5.516,5.516,0,0,1,3.566-.833c1.427.062,2.857.037,4.287.073a.482.482,0,0,1,.376.25c.211.748.459.392.766,0-.11.666.484,1.258.041,1.886-.09.129-.264.294-.386.282-.548-.05-1.09-.163-1.634-.243a8.431,8.431,0,0,0-1.044-.108c-.948-.016-1.9-.057-2.843,0-.982.069-1.96.229-2.935.388a1.051,1.051,0,0,1-1.2-.526Z" transform="translate(-168.545 32.047)"/>
        <path id="Path_19860" data-name="Path 19860" class="cls-29" d="M204.9-2.187c-.062.158-.126.319-.19.477l-.255.5-.688.877A4.447,4.447,0,0,1,200.22.858a4.206,4.206,0,0,1-3.7-4.544.516.516,0,0,1,.267-.367.516.516,0,0,1,.453-.014c.229.09.36.388.521.606.039.055,0,.161.018.243A2.906,2.906,0,0,0,200.7-.4a3.055,3.055,0,0,0,3.064-2.853c.05-.578.209-.978.884-.918a3.373,3.373,0,0,1,.379.9,4.605,4.605,0,0,1-.129,1.083Z" transform="translate(-168.545 32.047)"/>
        <path id="Path_19861" data-name="Path 19861" class="cls-24" d="M196.936,2.554a.939.939,0,0,1,.946.939.966.966,0,0,1-1.035.939.95.95,0,0,1-.918-1.019.934.934,0,0,1,1.007-.858Z" transform="translate(-168.545 32.047)"/>
        <path id="Path_19862" data-name="Path 19862" class="cls-28" d="M193.723-4.59A5,5,0,0,0,194.9-6.564c.018.133.034.266.057.4.055.317.115.631.193,1.047l-.76.1C194.365-4.615,194.223-4.312,193.723-4.59Z" transform="translate(-168.545 32.047)"/>
        <path id="Path_19863" data-name="Path 19863" class="cls-7" d="M195.01-7.982l-.372-1.2v-.652C195.182-9.531,195.281-9.065,195.01-7.982Z" transform="translate(-168.545 32.047)"/>
        <path id="Path_19864" data-name="Path 19864" class="cls-22" d="M196.908,5.253l.326.806-.918-.475Z" transform="translate(-168.545 32.047)"/>
        <path id="Path_19865" data-name="Path 19865" class="cls-22" d="M206.558-9.795l-.372,1.265a9.8,9.8,0,0,1,.046-1.04C206.244-9.657,206.444-9.719,206.558-9.795Z" transform="translate(-168.545 32.047)"/>
        <path id="Path_19866" data-name="Path 19866" class="cls-22" d="M206.127-8.06l.014,1.251A.85.85,0,0,1,206.127-8.06Z" transform="translate(-168.545 32.047)"/>
        <path id="Path_19867" data-name="Path 19867" class="cls-22" d="M206.157-6.688c.046.165.09.33.135.5C206.246-6.357,206.2-6.522,206.157-6.688Z" transform="translate(-168.545 32.047)"/>
        <path id="Path_19868" data-name="Path 19868" class="cls-22" d="M206.2-8.528l-.05.229Z" transform="translate(-168.545 32.047)"/>
        <path id="Path_19869" data-name="Path 19869" class="cls-28" d="M194.944-6.818l.076-.312Z" transform="translate(-168.545 32.047)"/>
        <path id="Path_19870" data-name="Path 19870" class="cls-22" d="M206.288-6.2l.115.269Z" transform="translate(-168.545 32.047)"/>
        <path id="Path_19871" data-name="Path 19871" class="cls-30" d="M209.186-10.311a1.735,1.735,0,0,1,1.685,1.74,1.751,1.751,0,0,1-1.717,1.648,1.7,1.7,0,0,1-1.194-.529,1.7,1.7,0,0,1-.466-1.22A1.662,1.662,0,0,1,208-9.843a1.662,1.662,0,0,1,1.186-.468Z" transform="translate(-168.545 32.047)"/>
        <path id="Path_19872" data-name="Path 19872" class="cls-31" d="M212.484-6.245a1.033,1.033,0,0,1-1.007.991.994.994,0,0,1-.959-.959,1.046,1.046,0,0,1,1.005-1,1,1,0,0,1,.962.964Z" transform="translate(-168.545 32.047)"/>
        <path id="Path_19873" data-name="Path 19873" class="cls-21" d="M206.4-5.049l.351-.25a.069.069,0,0,1,.044.078c-.014.1-.028.193-.044.3Z" transform="translate(-168.545 32.047)"/>
        <path id="Path_19874" data-name="Path 19874" class="cls-30" d="M188.428-8.429a1.689,1.689,0,0,1,.521-1.2,1.689,1.689,0,0,1,1.221-.468,1.694,1.694,0,0,1,1.641,1.7,1.744,1.744,0,0,1-1.675,1.689,1.76,1.76,0,0,1-1.707-1.724Z" transform="translate(-168.545 32.047)"/>
        <path id="Path_19875" data-name="Path 19875" class="cls-31" d="M192.415-5.049a.991.991,0,0,1-.95-.968,1.1,1.1,0,0,1,1.026-.994,1.021,1.021,0,0,1,.939.991,1,1,0,0,1-1.014.971Z" transform="translate(-168.545 32.047)"/>
        <path id="Path_19876" data-name="Path 19876" class="cls-18" d="M189.25-11.413l.092-.044c0,.018.018.048.014.05a.54.54,0,0,1-.09.044Z" transform="translate(-168.545 32.047)"/>
        <path id="Path_19877" data-name="Path 19877" class="cls-21" d="M204.9-2.187a4.6,4.6,0,0,0,.129-1.09,3.373,3.373,0,0,0-.379-.9l-.211-.344.872-.351c-.05-.243-.122-.585-.229-1.076a1.242,1.242,0,0,1,.688,1.324c-.1.709-.163,1.425-.243,2.137-.014.119-.039.229-.067.4Z" transform="translate(-168.545 32.047)"/>
        <path id="Path_19878" data-name="Path 19878" class="cls-21" d="M204.456-1.209l.255-.5.23.64Z" transform="translate(-168.545 32.047)"/>
        <path id="Path_19879" data-name="Path 19879" class="cls-21" d="M206.4-5.049l-.117.188-.071-.071Z" transform="translate(-168.545 32.047)"/>
      </g>
    </g>
    <g id="Mask_Group_217" data-name="Mask Group 217" class="cls-32" transform="translate(0 -1540)">
      <g id="usd-coin-usdc-logo" transform="translate(-24373 -21453)">
        <path id="Path_19741" data-name="Path 19741" class="cls-33" d="M32,64A32,32,0,1,0,0,32,31.923,31.923,0,0,0,32,64Z"/>
        <path id="Path_19742" data-name="Path 19742" class="cls-1" d="M40.8,37.067c0-4.667-2.8-6.267-8.4-6.933-4-.533-4.8-1.6-4.8-3.467s1.333-3.067,4-3.067c2.4,0,3.733.8,4.4,2.8a1,1,0,0,0,.933.667h2.133A.911.911,0,0,0,40,26.133V26a6.661,6.661,0,0,0-6-5.467v-3.2c0-.533-.4-.933-1.067-1.067h-2c-.533,0-.933.4-1.067,1.067V20.4c-4,.533-6.533,3.2-6.533,6.533,0,4.4,2.667,6.133,8.267,6.8,3.733.667,4.933,1.467,4.933,3.6s-1.867,3.6-4.4,3.6c-3.467,0-4.667-1.467-5.067-3.467a.974.974,0,0,0-.933-.8H23.867a.911.911,0,0,0-.933.933v.133c.533,3.333,2.667,5.733,7.067,6.4v3.2c0,.533.4.933,1.067,1.067h2c.533,0,.933-.4,1.067-1.067v-3.2c4-.667,6.667-3.467,6.667-7.067Z"/>
        <path id="Path_19743" data-name="Path 19743" class="cls-1" d="M25.2,51.067a19.952,19.952,0,0,1,0-37.467,1.338,1.338,0,0,0,.8-1.333V10.4a1.013,1.013,0,0,0-.8-1.067.8.8,0,0,0-.533.133,23.994,23.994,0,0,0,0,45.733.811.811,0,0,0,1.2-.533C26,54.533,26,54.4,26,54.133V52.267A1.776,1.776,0,0,0,25.2,51.067Zm14.133-41.6a.811.811,0,0,0-1.2.533c-.133.133-.133.267-.133.533V12.4a1.769,1.769,0,0,0,.8,1.333,19.952,19.952,0,0,1,0,37.467,1.338,1.338,0,0,0-.8,1.333V54.4a1.013,1.013,0,0,0,.8,1.067.8.8,0,0,0,.533-.133,24.1,24.1,0,0,0,0-45.867Z"/>
      </g>
    </g>
  </g>
</svg>
