<svg xmlns="http://www.w3.org/2000/svg" xmlns:xlink="http://www.w3.org/1999/xlink" width="114" height="64.738" viewBox="0 0 114 64.738">
  <defs>
    <style>
      .cls-1 {
        fill: #fff;
      }

      .cls-2 {
        fill: #f00500;
      }

      .cls-3 {
        fill: none;
      }

      .cls-4 {
        fill: #ffa409;
      }

      .cls-5 {
        fill: #ff9300;
      }

      .cls-6 {
        fill: #ff8300;
      }

      .cls-7 {
        clip-path: url(#clip-path);
      }

      .cls-8 {
        fill: #8247e5;
      }
    </style>
    <clipPath id="clip-path">
      <circle id="Ellipse_1961" data-name="Ellipse 1961" class="cls-1" cx="32" cy="32" r="32" transform="translate(-24045 -21453)"/>
    </clipPath>
  </defs>
  <g id="Group_860" data-name="Group 860" transform="translate(24095 22993.738)">
    <g id="Group_938" transform="translate(-25048.469 -23225.701)">
      <g id="Group_931" transform="translate(953.47 234.08)">
        <path id="Path_8573" class="cls-2" d="M1154.652,256.777a41.194,41.194,0,0,0-4.548,5.4l-.429-.14a31.134,31.134,0,0,0-7.62-1.476c-.778-.06-3.68-.06-4.628,0a26.918,26.918,0,0,0-7.55,1.486c-.1.04-.189.07-.279.1a40.6,40.6,0,0,0-4.7-5.356,32.655,32.655,0,0,1,26.631-1.406c.928.349,1.835.758,2.723,1.2Z" transform="translate(-1107.801 -253.196)"/>
        <path id="Path_8574" class="cls-2" d="M1015.761,412.636a31.143,31.143,0,0,1-5.586,9.795,34.714,34.714,0,0,1-4.369,4.279,32.231,32.231,0,0,1-12.6,6.214,33.012,33.012,0,0,1-15.48,0,32.163,32.163,0,0,1-12.6-6.214,34.712,34.712,0,0,1-4.369-4.279,30.783,30.783,0,0,1-5.585-30,32.593,32.593,0,0,1,2.543-5.486c.469-.8,1.047-1.7,1.327-2.065.957,4.119,2.134,7.74,2.573,9.046a2.27,2.27,0,0,1-.11.219,36.167,36.167,0,0,0-3.88,14.073c0,.06-.01.13-.01.189a8.686,8.686,0,0,0,.2,3.042c.748,2.843,3.052,5.974,6.663,9.046,5.914,5.027,13.934,8.657,20.008,9.076,6.334.429,15.679-3.271,21.9-8.677a31.311,31.311,0,0,0,2.753-2.763,15.123,15.123,0,0,0,1.466-1.955c-.02,0,0-.02.04-.04s.06-.05.04-.07.01-.04.04-.05.05-.03.04-.05,0-.04.04-.05a.044.044,0,0,0,.03-.06c-.01-.02,0-.04.02-.04s.04-.03.04-.05.02-.05.04-.05a.043.043,0,0,0,.04-.04,1.045,1.045,0,0,1,.13-.229c.15-.229.748-1.3.828-1.476a13.759,13.759,0,0,0,1.1-3.581,10.193,10.193,0,0,0,.09-1.8c-.01-.04-.01-.11-.02-.219-.02-.2-.03-.5-.05-.8-.02-.449-.06-1.077-.09-1.386a29.261,29.261,0,0,0-3.78-12.148,3.443,3.443,0,0,1-.219-.419.6.6,0,0,1-.04-.08h0c.309-.928,1.576-4.808,2.583-9.246l.02.02.15.2c.259.349.948,1.386,1.257,1.885a30.636,30.636,0,0,1,2.823,26.232Z" transform="translate(-953.47 -371.224)"/>
        <path id="Path_8575" d="M1350.164,518.437a3.356,3.356,0,0,1-.967.987,16.671,16.671,0,0,1-6.344,2.394,7.8,7.8,0,0,1-3.281.09c-.279-.14-.319-.249-.219-.608a4.851,4.851,0,0,1,1.945-2.334c.539-.389,2.723-1.716,3.74-2.274a13.215,13.215,0,0,1,3.95-1.6,2.029,2.029,0,0,1,.748,0c.179.07.379.6.459,1.237A16.222,16.222,0,0,1,1350.164,518.437Z" transform="translate(-1300.82 -488.943)"/>
        <path id="Path_8576" d="M1112.756,522.673a1.084,1.084,0,0,1-.7.3,11.28,11.28,0,0,1-1.965-.05,20.644,20.644,0,0,1-5.994-1.725,7.547,7.547,0,0,1-2.065-1.386l-.279-.289-.03-.379a10.434,10.434,0,0,1,.04-2.065,2.707,2.707,0,0,1,.309-.878c.08-.1.08-.1.439-.1a4.316,4.316,0,0,1,1.406.259,27.464,27.464,0,0,1,5.276,2.633,9.153,9.153,0,0,1,3.052,2.374A1.994,1.994,0,0,1,1112.756,522.673Z" transform="translate(-1086.91 -489.878)"/>
        <path id="Path_8577" d="M1222.762,636.665c0,.03-.12.509-.269,1.077s-.269,1.027-.269,1.047a1.714,1.714,0,0,1-.319.01h-.319l-.439,1.037c-.239.568-.459,1.1-.489,1.177l-.06.14-.209-.339-.209-.339v-2.763l-.08.02c-.169.04-1.376.2-1.9.249a27.187,27.187,0,0,1-6.553-.14c-.349-.05-.648-.09-.658-.08s0,.648.02,1.436l.03,1.416-.17.259c-.09.14-.18.259-.18.269-.03.03-.13-.13-.359-.589a6.73,6.73,0,0,1-.558-1.516l-.07-.289-.309.02-.309.03-.08-.369c-.04-.2-.09-.509-.11-.678l-.03-.319-.259-.229c-.15-.13-.3-.259-.329-.279a.219.219,0,0,1-.07-.17v-.12l1.247.01,1.247.01.04.13.04.13.429.02c.24.01,1,.03,1.676.05l1.247.03.319-.5.329-.5h.419l-.01-1.037-.01-1.037-.549-.239c-1.765-.778-2.8-1.666-3.192-2.743a3.826,3.826,0,0,1-.1-1.3,3.967,3.967,0,0,1,.06-1.3,1.45,1.45,0,0,1,1.027-1.017,23.782,23.782,0,0,1,2.972-.05l2.773.01.309.15a1.732,1.732,0,0,1,.748.589,1.647,1.647,0,0,1,.309,1.177,8.782,8.782,0,0,1-.15,1.915,4.131,4.131,0,0,1-.578,1.147,5.313,5.313,0,0,1-2.234,1.566l-.239.09.01,1.047.01,1.047.219.02.219.02.3.449.289.449h1.337c.738,0,1.386.01,1.446.02.1.02.12.01.219-.16l.12-.18h1.147A3.619,3.619,0,0,1,1222.762,636.665Z" transform="translate(-1182.793 -589.986)"/>
        <path id="Path_8578" d="M1257.2,742.248c-.189.11-.319.16-.349.14s-.17-.13-.319-.239l-.269-.219-.279.3c-.608.658-.628.688-.808.7-.279.03-.339-.02-.678-.529-.179-.259-.319-.479-.319-.479s-.13-.02-.279-.03l-.279-.03-.13.269-.13.269-.229-.07a4.86,4.86,0,0,1-.529-.209l-.3-.15V741.4l2.653.01,2.653.01.01.269C1257.626,742.008,1257.636,742,1257.2,742.248Z" transform="translate(-1222.494 -692.706)"/>
      </g>
      <path id="Path_8579" class="cls-1" d="M1050.249,584.778c-.01-.04-.01-.11-.02-.219a21.211,21.211,0,0,0-15.57,4.818s-2.045-9.376-11.62-9.376-13.126,9.376-13.126,9.376c-5.366-5.775-12.547-5.356-15.141-4.977,0,.06-.01.13-.01.19a8.682,8.682,0,0,0,.2,3.042c.748,2.843,3.052,5.974,6.663,9.046,5.915,5.027,13.934,8.657,20.008,9.076,6.333.429,15.679-3.271,21.9-8.677a31.325,31.325,0,0,0,2.753-2.763,15.143,15.143,0,0,0,1.466-1.955c-.02,0,0-.02.04-.04s.06-.05.04-.07.01-.04.04-.05.05-.03.04-.05,0-.04.04-.05a.044.044,0,0,0,.03-.06c-.01-.02,0-.04.02-.04s.04-.03.04-.05.02-.05.04-.05a.043.043,0,0,0,.04-.04,1.05,1.05,0,0,1,.129-.229c.15-.229.748-1.3.828-1.476a13.759,13.759,0,0,0,1.1-3.581A12.036,12.036,0,0,0,1050.249,584.778Zm-24.935,12.168c-.189.11-.319.16-.349.14s-.169-.13-.319-.239l-.269-.219-.279.3c-.608.658-.628.688-.808.7-.279.03-.339-.02-.678-.529-.18-.259-.319-.479-.319-.479s-.13-.02-.279-.03l-.279-.03-.13.269-.13.269-.229-.07a4.845,4.845,0,0,1-.529-.209l-.3-.15V596.1l2.653.01,2.653.01.01.269C1025.742,596.707,1025.752,596.7,1025.313,596.946Zm4.987-1.8c-.15.568-.269,1.027-.269,1.047a1.713,1.713,0,0,1-.319.01h-.319l-.429,1.047c-.24.568-.459,1.1-.489,1.177l-.06.14-.209-.339-.209-.339v-2.763l-.08.02c-.17.04-1.376.2-1.905.249a27.187,27.187,0,0,1-6.553-.14c-.349-.05-.648-.09-.658-.08s0,.648.02,1.436l.03,1.416-.169.259c-.09.14-.18.259-.18.269-.03.03-.13-.13-.359-.589a6.744,6.744,0,0,1-.559-1.516l-.07-.289-.309.02-.309.03-.08-.369c-.04-.2-.09-.509-.11-.678l-.03-.319-.259-.229c-.15-.13-.3-.259-.329-.279a.219.219,0,0,1-.07-.17v-.12l1.247.01,1.247.01.04.13.04.13.429.02c.239.01,1,.03,1.676.05l1.247.03.319-.5.329-.5h.419L1023,592.4l-.01-1.037-.548-.239c-1.766-.778-2.8-1.666-3.192-2.743a3.82,3.82,0,0,1-.1-1.3,3.96,3.96,0,0,1,.06-1.3,1.45,1.45,0,0,1,1.027-1.017,23.729,23.729,0,0,1,2.972-.05l2.773.01.309.15a1.735,1.735,0,0,1,.748.588,1.648,1.648,0,0,1,.309,1.177,8.793,8.793,0,0,1-.15,1.915,4.145,4.145,0,0,1-.579,1.147,5.314,5.314,0,0,1-2.234,1.566l-.24.09.01,1.047.01,1.047.219.02.219.02.3.449.289.449h1.336c.738,0,1.386.01,1.446.02.1.02.12.01.219-.16l.12-.18h1.147a4.827,4.827,0,0,1,1.147.04A6.865,6.865,0,0,0,1030.3,595.151Z" transform="translate(-37.141 -313.324)"/>
      <path id="Path_8580" class="cls-3" d="M986,624.1a9.238,9.238,0,0,0-1,.189" transform="translate(-28.385 -353.025)"/>
      <path id="Path_8581" class="cls-3" d="M1552.088,625.83s-.319-.07-.888-.13" transform="translate(-538.112 -354.466)"/>
      <path id="Path_8582" class="cls-4" d="M1050.416,270.436c-.02-.449-.06-1.077-.09-1.386a29.258,29.258,0,0,0-3.78-12.148,3.472,3.472,0,0,1-.219-.419.6.6,0,0,1-.04-.08h0c.309-.928,1.576-4.808,2.583-9.246,1.366-6.024,2.234-13.066-.419-15.18,0,0-4.588-.339-10.732,5.685a41.214,41.214,0,0,0-4.548,5.4l-.429-.14a31.131,31.131,0,0,0-7.62-1.476c-.778-.06-3.68-.06-4.628,0a26.918,26.918,0,0,0-7.55,1.486c-.1.04-.19.07-.279.1a40.613,40.613,0,0,0-4.7-5.356c-6.393-6.054-11.151-5.705-11.151-5.705-2.813,2.184-1.855,9.545-.4,15.769.958,4.119,2.135,7.74,2.573,9.046a2.219,2.219,0,0,1-.11.219A36.167,36.167,0,0,0,995,271.075c2.6-.379,9.775-.808,15.151,4.977,0,0,3.551-9.376,13.126-9.376s11.62,9.376,11.62,9.376a21.258,21.258,0,0,1,15.569-4.817C1050.456,271.035,1050.436,270.735,1050.416,270.436Zm-49.541-17.415s-3.73-9.326-2.773-14.652h0a5.141,5.141,0,0,1,.928-2.284s4.229.419,11.051,8a19.5,19.5,0,0,0-3.032,1.965.034.034,0,0,1-.02.01,23.981,23.981,0,0,0-6.154,6.962Zm15.829,13.854a1.084,1.084,0,0,1-.7.3,11.285,11.285,0,0,1-1.965-.05,20.65,20.65,0,0,1-5.995-1.726,7.548,7.548,0,0,1-2.064-1.386l-.279-.289-.03-.379a10.422,10.422,0,0,1,.04-2.065,2.7,2.7,0,0,1,.309-.878c.08-.1.08-.1.439-.1a4.315,4.315,0,0,1,1.406.259,27.463,27.463,0,0,1,5.276,2.633,9.147,9.147,0,0,1,3.052,2.374A1.994,1.994,0,0,1,1016.7,266.875Zm23.5-3.3a3.358,3.358,0,0,1-.968.987,16.672,16.672,0,0,1-6.343,2.394,7.8,7.8,0,0,1-3.281.09c-.279-.14-.319-.249-.22-.608a4.851,4.851,0,0,1,1.945-2.334c.539-.389,2.723-1.716,3.74-2.274a13.213,13.213,0,0,1,3.95-1.6,2.029,2.029,0,0,1,.748,0c.18.07.379.6.459,1.237A16.308,16.308,0,0,1,1040.2,263.574Zm-1.656-17.524-.02-.01a18.621,18.621,0,0,0-2.932-1.965c6.593-7.58,10.672-8,10.672-8a5.412,5.412,0,0,1,.9,2.284h0c.928,5.326-2.673,14.662-2.673,14.662a23.756,23.756,0,0,0-5.944-6.972Z" transform="translate(-37.388 0)"/>
      <path id="Path_8583" class="cls-3" d="M1377.15,343.2c-.02.02-.03.05-.05.07" transform="translate(-381.377 -100.143)"/>
      <path id="Path_8584" class="cls-3" d="M1508.47,476.9c-.05.14-.07.209-.07.209" transform="translate(-499.581 -220.507)"/>
      <g id="Group_934" transform="translate(998.206 236.076)">
        <g id="Group_933" transform="translate(0)">
          <g id="Group_932">
            <path id="Path_8585" class="cls-5" d="M1413.58,275.484c-.778-.1-4.458-.12-8.628,7.69l-.02-.01A18.622,18.622,0,0,0,1402,281.2c6.593-7.58,10.672-8,10.672-8A5.294,5.294,0,0,1,1413.58,275.484Z" transform="translate(-1402 -273.2)"/>
          </g>
          <path id="Path_8586" class="cls-6" d="M1437.555,310.583a23.663,23.663,0,0,0-5.955-6.972c4.169-7.81,7.84-7.79,8.628-7.69h0C1441.155,301.257,1437.555,310.583,1437.555,310.583Z" transform="translate(-1428.648 -293.637)"/>
          <path id="Path_8587" class="cls-6" d="M1518.25,296.13l-.15-.03Z" transform="translate(-1506.52 -293.816)"/>
        </g>
      </g>
      <path id="Path_8588" class="cls-3" d="M1172.309,343.319c-.1-.14-.209-.279-.309-.419" transform="translate(-196.734 -99.872)"/>
      <path id="Path_8589" class="cls-3" d="M1035,480.8c.11.339.18.519.18.519" transform="translate(-73.399 -224.018)"/>
      <g id="Group_937" transform="translate(960.554 236.076)">
        <g id="Group_936">
          <g id="Group_935" transform="translate(0.15)">
            <path id="Path_8590" class="cls-5" d="M1037.989,281.2a19.507,19.507,0,0,0-3.032,1.965.034.034,0,0,1-.02.01c-4.319-7.82-8.119-7.79-8.937-7.69a5.139,5.139,0,0,1,.928-2.284C1026.938,273.2,1031.167,273.619,1037.989,281.2Z" transform="translate(-1026 -273.2)"/>
          </g>
          <path id="Path_8591" class="cls-6" d="M1033.618,303.611a23.907,23.907,0,0,0-6.164,6.972s-3.73-9.326-2.773-14.662h0C1025.489,295.821,1029.3,295.8,1033.618,303.611Z" transform="translate(-1024.522 -293.637)"/>
          <path id="Path_8592" class="cls-6" d="M1024.66,296.1l-.16.03Z" transform="translate(-1024.5 -293.816)"/>
        </g>
      </g>
      <path id="Path_8593" class="cls-1" d="M1364.581,449.841s-3.192.2-2.793-2.294a3.3,3.3,0,0,1,3.591-2.693c.7.1,3.491,1.1,2.992,3.192s-1.2,1.7-1.6,1.8A15.817,15.817,0,0,1,1364.581,449.841Z" transform="translate(-367.562 -191.643)"/>
      <path id="Path_8594" class="cls-1" d="M1128.581,449.841s-3.192.2-2.793-2.294a3.3,3.3,0,0,1,3.591-2.693c.7.1,3.491,1.1,2.992,3.192s-1.2,1.7-1.6,1.8A15.818,15.818,0,0,1,1128.581,449.841Z" transform="translate(-155.101 -191.643)"/>
    </g>
    <g id="Mask_Group_219" data-name="Mask Group 219" class="cls-7" transform="translate(0 -1540)">
      <g id="matic-token-inverted-icon" transform="translate(-24045 -21453)">
        <circle id="Ellipse_2046" data-name="Ellipse 2046" class="cls-1" cx="32" cy="32" r="32"/>
        <path id="Path_19745" data-name="Path 19745" class="cls-8" d="M42.592,25.153a2.708,2.708,0,0,0-2.61,0L34,28.577l-4.068,2.233-5.987,3.423a2.708,2.708,0,0,1-2.61,0l-4.759-2.679a2.554,2.554,0,0,1-1.3-2.158V24.112a2.4,2.4,0,0,1,1.3-2.158l4.682-2.6a2.708,2.708,0,0,1,2.61,0l4.682,2.6a2.554,2.554,0,0,1,1.3,2.158v3.423l4.068-2.307V21.8a2.4,2.4,0,0,0-1.3-2.158l-8.673-4.912a2.708,2.708,0,0,0-2.61,0L12.5,19.646A2.4,2.4,0,0,0,11.2,21.8v9.9a2.4,2.4,0,0,0,1.3,2.158l8.827,4.912a2.708,2.708,0,0,0,2.61,0l5.987-3.349L34,33.116l5.987-3.349a2.708,2.708,0,0,1,2.61,0l4.682,2.6a2.554,2.554,0,0,1,1.3,2.158v5.284a2.4,2.4,0,0,1-1.3,2.158l-4.682,2.679a2.708,2.708,0,0,1-2.61,0l-4.682-2.6A2.554,2.554,0,0,1,34,39.888V36.465l-4.068,2.307V42.2a2.4,2.4,0,0,0,1.3,2.158l8.827,4.912a2.708,2.708,0,0,0,2.61,0L51.5,44.354A2.554,2.554,0,0,0,52.8,42.2V32.3a2.4,2.4,0,0,0-1.3-2.158Z"/>
      </g>
    </g>
  </g>
</svg>
