<svg xmlns="http://www.w3.org/2000/svg" xmlns:xlink="http://www.w3.org/1999/xlink" width="114" height="78.959" viewBox="0 0 114 78.959">
  <defs>
    <clipPath id="clip-path">
      <ellipse id="Ellipse_115" data-name="Ellipse 115" cx="26.5" cy="25.5" rx="26.5" ry="25.5" transform="translate(-24483 -11213.874)" fill="#fff"/>
    </clipPath>
  </defs>
  <g id="Group_3382" data-name="Group 3382" transform="translate(24392 10284)">
    <circle id="Ellipse_103" data-name="Ellipse 103" cx="32" cy="32" r="32" transform="translate(-24392 -10284)" fill="#fff"/>
    <circle id="Ellipse_104" data-name="Ellipse 104" cx="32" cy="32" r="32" transform="translate(-24342 -10284)" fill="#fff"/>
    <g id="download" transform="translate(-24601.6 -10282.3)">
      <circle id="Ellipse_116" data-name="Ellipse 116" cx="32" cy="32" r="32" transform="translate(209.6 -1.7)" fill="#ffd574"/>
      <circle id="Ellipse_117" data-name="Ellipse 117" cx="26.825" cy="26.825" r="26.825" transform="translate(214.711 2.268)" fill="#fcc24a"/>
      <circle id="Ellipse_118" data-name="Ellipse 118" cx="18.825" cy="18.825" r="18.825" transform="translate(222.394 7.538)" fill="#f8ab24"/>
      <path id="Path_4134" data-name="Path 4134" d="M320.371,152.332a21,21,0,0,1,6.667,4.7c2.952,3.175,5.111,6.6,3.682,10.127s-3.048,6.349-5.492,5.3c0,0-.762-.984.762-1.46,1.492-.476,3.206-4.19,2.19-7.048-.984-2.857-3.524-4.54-5.143-5.9a25.62,25.62,0,0,1-4.825-4.317s2.667,3.27,2.191,10.952-3.365,8.667-3.9,8.667c0,0-1.619.1-.476-2.508a14.086,14.086,0,0,0,1.556-8.032c-.445-2.889-.445-4.794-3.683-8.6l-1.968-.444a47.1,47.1,0,0,1,1.492,7.048c.476,3.683.7,4.413.286,6.571s-1.683,3.555-1.968,4.6c-.286,1.016-1.46,3.46-.984,5.873s1.778,3.333.7,4.349c0,0-1.841,1.143-2.921-2.571a10.777,10.777,0,0,1,.381-7.746,16.128,16.128,0,0,0,1.619-8.19,41.729,41.729,0,0,0-1.968-9.778,8.336,8.336,0,0,0-.762-1.619" transform="translate(-67.026 -105.111)" fill="#b6b6dc"/>
      <path id="Path_4135" data-name="Path 4135" d="M296.8,157.4s2.6.889,4.317.032" transform="translate(-59.518 -108.592)" fill="#b6b6dc"/>
      <path id="Path_4136" data-name="Path 4136" d="M283.074,152.114s-3.841,1.46-4.254,4.889c-.444,3.429,1.587,7.4,1.9,9.841s-1.968,7.873-4.159,7.46a1.712,1.712,0,0,1-.444-2.635,7.034,7.034,0,0,0,1.9-4.984,5.677,5.677,0,0,0-.794-2.254c-.857-1.809-1.778-3.048-1.587-6.667.222-3.619,3.968-6.762,3.968-6.762l.762-.6" transform="translate(-45.062 -103.815)" fill="#b6b6dc"/>
      <path id="Path_4137" data-name="Path 4137" d="M241.868,75.7h-1.4a19.425,19.425,0,0,1-5.809,4.571c-4.032,2.222-5.682,3.683-4.889,7.4s2.952,4.19,6.286,4.286c0,0,1.746.1.19,1.3a6.227,6.227,0,0,1-7.492-.571c-2.191-2.19-2.857-6.762-1.365-9.651,1.492-2.921,3.333-3.746,5.524-5.048s4.889-2.063,5.333-3.968c0,0-4.063,3.429-6.889-1.4s-3.778-6.794-6.317-5.714-.889,4.921-.889,4.921.571,2.444-1.27,1.175-2-5.206-.381-7.111,4.508-3.143,6.952-.889a11.5,11.5,0,0,1,2.19,3.556c1.016,2.413,5.841,4.6,7.9,1.46s-.222-6.667-1.175-10.444c-.921-3.809-2-11.524,1.9-15.9,0,0,5.3-6.857,14.571-3.048,0,0,7.4,2.349,6.413,14.127a37.75,37.75,0,0,1-1.968,8.571c-1.683,4.7-.191,9.46,2.063,9.714,5.429.6,6.508-9.048,11.809-3.46,5.587,5.873-.889,9.27-.857,8.73,0,0-1.175,0,.19-2.381,1.333-2.381.19-5.556-2.54-4.762-1.46.413-2.063,2.1-3.556,3.873a3.391,3.391,0,0,1-2.381,1.238,2.89,2.89,0,0,1-1.9-.508" transform="translate(-8.046 -28.101)" fill="#b6b6dc"/>
      <path id="Path_4138" data-name="Path 4138" d="M295.8,150.552a1.249,1.249,0,0,0-.508.952,1.17,1.17,0,0,0,.635.857,5.746,5.746,0,0,0,2.19.444l1.238.159a.74.74,0,0,0,.889-.6,1.74,1.74,0,0,0-.064-.984.922.922,0,0,0-.889-.508,8.639,8.639,0,0,0-2.7.349.47.47,0,0,0,0,.889,18.5,18.5,0,0,0,2.667.19c.476,0,.635-.762.127-.889l-.317-.063a.443.443,0,0,0-.222.857l.317.063.127-.889a12.335,12.335,0,0,1-2.413-.159v.857a6.516,6.516,0,0,1,2.064-.317,1.2,1.2,0,0,1,.476,0c.032,0-.032-.063.032.032-.032-.063.032.063,0,.032.032.1-.032.254,0,.317-.032.1,0,.1.127-.063.032-.032,0-.032-.064,0a.7.7,0,0,0-.254-.032c-.7-.1-1.4-.159-2.1-.254a2.455,2.455,0,0,1-.857-.254c-.032-.032-.1-.064-.064-.032-.032-.063.222-.254.254-.286a.424.424,0,0,0,0-.635.533.533,0,0,0-.7-.032Z" transform="translate(-58.489 -103.84)" fill="#b6b6dc"/>
      <path id="Path_4139" data-name="Path 4139" d="M289.517,155.531a2.541,2.541,0,0,1,1.746-.032l.127-.889a4.664,4.664,0,0,0-3.365,1.175.424.424,0,0,0,.032.635.483.483,0,0,0,.635,0,3.913,3.913,0,0,1,2.73-.921.445.445,0,0,0,.444-.381.4.4,0,0,0-.317-.476,3.325,3.325,0,0,0-2.413.127.426.426,0,0,0-.159.6.354.354,0,0,0,.54.159Z" transform="translate(-53.441 -106.596)" fill="#b6b6dc"/>
      <path id="Path_4140" data-name="Path 4140" d="M255.485,152.9a28.654,28.654,0,0,1-4.952,3.683c-2.1,1.079-4.54,2.7-5.333,4.635,0,0-.032,1.143.667.1a6.5,6.5,0,0,1,2.063-2.286,25.147,25.147,0,0,1,4.063-2.444,38.143,38.143,0,0,0,3.81-3.048C256.533,152.835,255.771,152.676,255.485,152.9Z" transform="translate(-24.298 -105.456)" fill="#a9a9d5"/>
      <path id="Path_4141" data-name="Path 4141" d="M247.665,201.537s-2.73,1.016-.191,2.222a5.556,5.556,0,0,0,4.54.254s2.191-1.111.254-1.206c-1.968-.1-3.016-.222-3.524-.73S247.792,201.442,247.665,201.537Z" transform="translate(-25.113 -138.698)" fill="#a9a9d5"/>
      <path id="Path_4142" data-name="Path 4142" d="M223.949,127.652s-1.714.317-1.492,2.7a2.721,2.721,0,0,0,1.175,2.317.531.531,0,0,0,.762-.127.577.577,0,0,0,.1-.444,3.161,3.161,0,0,0-.444-.762c-1.016-1.365.159-3.079.19-3.46C224.235,127.525,223.949,127.652,223.949,127.652Z" transform="translate(-8.762 -88.273)" fill="#a9a9d5"/>
      <path id="Path_4143" data-name="Path 4143" d="M280.092,208.577a1.161,1.161,0,0,0-.889.73,4.353,4.353,0,0,1-1.079,1.841,1.4,1.4,0,0,0-.444,1.873c.286.444,1.048.381,1.683-.381a5.553,5.553,0,0,0,1.365-2.413C280.981,209.466,281.044,208.45,280.092,208.577Z" transform="translate(-46.334 -143.515)" fill="#a9a9d5"/>
      <path id="Path_4144" data-name="Path 4144" d="M309.605,224.526a1.213,1.213,0,0,0-.222.857,10.848,10.848,0,0,0,.6,3.556c.571,1.175.73,2.032,2,2.1,0,0,.921-.54,0-1.619a5.183,5.183,0,0,1-.794-3.619s.349-1.365-.6-1.619A.818.818,0,0,0,309.605,224.526Z" transform="translate(-68.101 -154.132)" fill="#a9a9d5"/>
      <path id="Path_4145" data-name="Path 4145" d="M333.474,157.416a.343.343,0,0,1,.349-.222c.508-.032,1.841.159,2.54,2.159a21.907,21.907,0,0,1,1.016,9.4c-.413,3.238-.825,6.127-3.46,7.46,0,0-.6-.032-.19-.6s2.222-.984,2.444-6.444.032-7.714-1.048-9.428C334.236,158.241,333.347,157.829,333.474,157.416Z" transform="translate(-84.541 -108.45)" fill="#a9a9d5"/>
      <path id="Path_4146" data-name="Path 4146" d="M345.448,157a.28.28,0,0,1,.159-.381.117.117,0,0,1,.1-.032,1.381,1.381,0,0,1,1.079.381,57.64,57.64,0,0,1,5.841,5.682c2.127,2.476,2.794,4.794,2.381,6.635-.381,1.841-.635,4.762-4.032,5.556,0,0-.571-.159.857-.635,1.4-.508,2.413-2.952,2.571-4.222s.381-3.778-1.048-5.4C351.987,163.066,346.21,158.526,345.448,157Z" transform="translate(-92.705 -108.036)" fill="#a9a9d5"/>
      <path id="Path_4147" data-name="Path 4147" d="M381.939,142.757a.416.416,0,0,1,.254-.508.271.271,0,0,1,.222,0,2.045,2.045,0,0,1,1.429,1.683c.508,2-2.222,4.6-2.73,3.778s.571-.984.984-2.1a3.5,3.5,0,0,0,0-2.413A1.84,1.84,0,0,0,381.939,142.757Z" transform="translate(-116.974 -98.235)" fill="#a9a9d5"/>
      <path id="Path_4148" data-name="Path 4148" d="M285.9,132.014s3.841,1.46,4.254,4.889c.444,3.429-1.587,7.4-1.9,9.841s1.968,7.873,4.159,7.46a1.712,1.712,0,0,0,.444-2.635,7.034,7.034,0,0,1-1.9-4.984,5.677,5.677,0,0,1,.794-2.254c.857-1.809,1.778-3.048,1.587-6.667-.222-3.619-3.968-6.762-3.968-6.762l-.762-.6" transform="translate(-52.078 -90.096)" fill="#b6b6dc"/>
      <path id="Path_4149" data-name="Path 4149" d="M230.229,123.021a1.341,1.341,0,0,1,1.683-.857c.032.032.1.032.127.063a.783.783,0,0,1,.349,1.175c-.476.667-1.746.952-2.1.222A.774.774,0,0,1,230.229,123.021Z" transform="translate(-14.058 -84.499)" fill="#574b7b"/>
      <path id="Path_4150" data-name="Path 4150" d="M243.672,128.4a1.324,1.324,0,0,1,.825,1.683c-.032.032-.032.1-.063.127a.82.82,0,0,1-1.206.349c-.667-.476-.921-1.746-.222-2.127A.978.978,0,0,1,243.672,128.4Z" transform="translate(-22.517 -88.772)" fill="#574b7b"/>
      <path id="Path_4151" data-name="Path 4151" d="M251.382,142.583a1.158,1.158,0,0,1,1.111,1.175.24.24,0,0,1-.032.127.7.7,0,0,1-.921.571c-.667-.222-1.206-1.206-.73-1.714A.833.833,0,0,1,251.382,142.583Z" transform="translate(-28.004 -98.473)" fill="#574b7b"/>
      <path id="Path_4152" data-name="Path 4152" d="M259.559,165.087c-.54-.159-1.746-.063-2.159,1.809,0,0,.254.889,1.619.349a1.476,1.476,0,0,0,1.016-1.587A.685.685,0,0,0,259.559,165.087Z" transform="translate(-32.626 -113.803)" fill="#574b7b"/>
      <path id="Path_4153" data-name="Path 4153" d="M248.433,175.7s1.429,2.571-1.333,2.73A4.306,4.306,0,0,1,248.433,175.7Z" transform="translate(-25.595 -121.083)" fill="#574b7b"/>
      <path id="Path_4154" data-name="Path 4154" d="M246.823,191.1s1.873.19.667,1.936C247.522,193.036,245.712,192.592,246.823,191.1Z" transform="translate(-25.16 -131.594)" fill="#574b7b"/>
      <path id="Path_4155" data-name="Path 4155" d="M252.332,200.281a1.776,1.776,0,0,1,2.413,1.048s-.159.825-1.492.349C251.856,201.233,252.332,200.281,252.332,200.281Z" transform="translate(-29.113 -137.759)" fill="#574b7b"/>
      <path id="Path_4156" data-name="Path 4156" d="M310.761,163.3s-1.651,2.1.635,2.794Z" transform="translate(-68.653 -112.619)" fill="#574b7b"/>
      <path id="Path_4157" data-name="Path 4157" d="M313.242,175.1a1.761,1.761,0,0,0,.445,2.952C313.655,178.021,313.242,175.227,313.242,175.1Z" transform="translate(-70.309 -120.673)" fill="#574b7b"/>
      <path id="Path_4158" data-name="Path 4158" d="M314.6,189.5s-1.841,1.175-.064,2.286Z" transform="translate(-71.095 -130.502)" fill="#574b7b"/>
      <path id="Path_4159" data-name="Path 4159" d="M312.356,201s-1.175.032-1.429.921c-.222.889.73,1.429.73,1.429A12.448,12.448,0,0,0,312.356,201Z" transform="translate(-69.137 -138.351)" fill="#574b7b"/>
      <path id="Path_4160" data-name="Path 4160" d="M307.02,218.4a1.388,1.388,0,0,0-1.143,1.46s-.159.7.762,1.048A10.276,10.276,0,0,1,307.02,218.4Z" transform="translate(-65.706 -150.227)" fill="#574b7b"/>
      <path id="Path_4161" data-name="Path 4161" d="M329.673,162s-.286,2.794,1.873,3.175A19.8,19.8,0,0,0,329.673,162Z" transform="translate(-81.946 -111.732)" fill="#574b7b"/>
      <path id="Path_4162" data-name="Path 4162" d="M335.69,176.3s-1.524,1.841.444,2.54C336.1,178.84,335.849,176.871,335.69,176.3Z" transform="translate(-85.678 -121.492)" fill="#574b7b"/>
      <path id="Path_4163" data-name="Path 4163" d="M336.917,189.5s-1.682,1.4-.254,2.73A17.529,17.529,0,0,0,336.917,189.5Z" transform="translate(-86.334 -130.502)" fill="#574b7b"/>
      <path id="Path_4164" data-name="Path 4164" d="M350.755,166.162a1.319,1.319,0,0,1,1.968.254s.032,1.048-.984.857C351.739,167.273,350.565,167.242,350.755,166.162Z" transform="translate(-96.33 -114.339)" fill="#574b7b"/>
      <path id="Path_4165" data-name="Path 4165" d="M358.393,172.615s2.032-.444,1.9,1.651C360.3,174.266,358.3,174.869,358.393,172.615Z" transform="translate(-101.555 -118.95)" fill="#574b7b"/>
      <path id="Path_4166" data-name="Path 4166" d="M367.182,181.2a1.606,1.606,0,0,0,1.27,2.159A8.591,8.591,0,0,0,367.182,181.2Z" transform="translate(-107.487 -124.837)" fill="#574b7b"/>
      <path id="Path_4167" data-name="Path 4167" d="M370.818,195.392s-.508-.1-.762.667a.952.952,0,0,0,.349,1.143A2.358,2.358,0,0,0,370.818,195.392Z" transform="translate(-109.473 -134.521)" fill="#574b7b"/>
      <path id="Path_4168" data-name="Path 4168" d="M259.29,168.667c-.064.063-.19-.032-.19-.1.032-.1.064-.159.159-.191a.619.619,0,0,1,.254-.032,1.538,1.538,0,0,0,1.143-.762c.032-.063.064-.159.127-.19a.153.153,0,0,1,.222,0,.117.117,0,0,1,.032.1c.064.317-.19.571-.444.762a1.967,1.967,0,0,1-1.3.508" transform="translate(-33.786 -115.384)" fill="#696194"/>
      <path id="Path_4169" data-name="Path 4169" d="M248.825,177.668a1.611,1.611,0,0,1-.063,1.016c-.1.254-.349.6-.667.476-.159-.064-.19.159-.064.222.413.159.762-.19.921-.54a1.59,1.59,0,0,0,.1-1.206c-.032-.064-.063-.1-.159-.064-.063-.032-.1.032-.063.1Z" transform="translate(-26.178 -122.353)" fill="#696194"/>
      <path id="Path_4170" data-name="Path 4170" d="M248.7,191.9a.873.873,0,0,1,.476.794c0,.064-.032.1-.063.159a.2.2,0,0,1-.254-.032.391.391,0,0,1-.159-.317.307.307,0,0,1,.222-.254" transform="translate(-26.687 -132.14)" fill="#696194"/>
      <path id="Path_4171" data-name="Path 4171" d="M255.13,201.337a.425.425,0,0,0-.444-.254.364.364,0,0,0-.381.159.289.289,0,0,0,.032.349.507.507,0,0,0,.286.222c.127.064.254.1.413.159a.243.243,0,0,0,.286-.063.24.24,0,0,0-.032-.254.866.866,0,0,0-.413-.476" transform="translate(-30.483 -138.402)" fill="#696194"/>
      <path id="Path_4172" data-name="Path 4172" d="M252.165,143.363a.859.859,0,0,0,.286,1.143l.19.1a.376.376,0,0,0,.317-.032.2.2,0,0,0,.063-.254l-.032-.032c-.063-.063-.159-.032-.254-.063-.19-.063-.222-.254-.254-.444s-.032-.381-.19-.476" transform="translate(-28.978 -98.969)" fill="#696194"/>
      <path id="Path_4173" data-name="Path 4173" d="M244.186,128.9c-.19.032-.254.222-.254.413s-.032.349-.032.508a1.638,1.638,0,0,0,.063.349.865.865,0,0,0,.476.413c.127.063.317.127.413.032a.338.338,0,0,0-.032-.413c-.1-.127-.222-.191-.317-.317a1.294,1.294,0,0,1-.159-.571.663.663,0,0,0-.254-.508" transform="translate(-23.411 -89.072)" fill="#696194"/>
      <path id="Path_4174" data-name="Path 4174" d="M231.782,124.471a.194.194,0,0,0,.1.222.747.747,0,0,0,.254.063,1.548,1.548,0,0,0,.667-.1.587.587,0,0,0,.349-.54.214.214,0,0,0-.127-.19.191.191,0,0,0-.127-.032c-.381.032-.667.444-1.079.444" transform="translate(-15.134 -85.727)" fill="#696194"/>
      <path id="Path_4175" data-name="Path 4175" d="M306.976,219.869a1.112,1.112,0,0,0-.445.889.79.79,0,0,0-.032.254.2.2,0,0,0,.19.19.212.212,0,0,0,.222-.127.521.521,0,0,0,.032-.317.741.741,0,0,1,.191-.571.112.112,0,0,0-.159-.159,1.171,1.171,0,0,0-.222.444.7.7,0,0,0-.032.254c0,.064.032.159,0,.222h-.032l.032.032v-.1a.117.117,0,0,1,.032-.1,1.675,1.675,0,0,1,.1-.381.5.5,0,0,1,.254-.317c.1-.127,0-.286-.127-.222Z" transform="translate(-66.138 -151.22)" fill="#696194"/>
      <path id="Path_4176" data-name="Path 4176" d="M312.262,202.97a.507.507,0,0,0-.6.349.739.739,0,0,0,.254.73c.032.032.032.032.063.032a.111.111,0,0,0,.064-.032.873.873,0,0,0,.063-.413.862.862,0,0,1,.191-.54" transform="translate(-69.646 -139.686)" fill="#696194"/>
      <path id="Path_4177" data-name="Path 4177" d="M314.845,191.149a1,1,0,0,0-.286.921.116.116,0,0,0,.159.063.068.068,0,0,0,.063-.063,2.111,2.111,0,0,0,.222-.762.1.1,0,0,0-.1-.1.143.143,0,0,0-.1.1,2.64,2.64,0,0,1-.191.667l.191.032c0-.032-.032-.063-.032-.1v-.1c0-.064.032-.127.032-.19a.657.657,0,0,1,.19-.317.142.142,0,0,0,0-.159.144.144,0,0,0-.159,0Z" transform="translate(-71.626 -131.611)" fill="#696194"/>
      <path id="Path_4178" data-name="Path 4178" d="M313.459,176.785a2.336,2.336,0,0,0-.127.444,3.08,3.08,0,0,0-.032.54.914.914,0,0,0,.413.73c.063.032.127.032.159-.032s.032-.127-.032-.159h0a.767.767,0,0,1-.317-.6,2.094,2.094,0,0,1,.032-.444.844.844,0,0,1,.1-.381c.1-.1-.127-.222-.191-.1Z" transform="translate(-70.78 -121.787)" fill="#696194"/>
      <path id="Path_4179" data-name="Path 4179" d="M310.942,165.964a1.25,1.25,0,0,0,.444,1.429c.064.032.127.032.159-.032s.032-.127-.032-.159a1.055,1.055,0,0,1-.349-1.175c.032-.063-.032-.127-.1-.127s-.127.032-.127.064Z" transform="translate(-69.12 -114.394)" fill="#696194"/>
      <path id="Path_4180" data-name="Path 4180" d="M330.3,165.114a9.263,9.263,0,0,0,.444.984.833.833,0,0,0,.667.54c.159.032.159-.222,0-.222-.286-.032-.444-.317-.54-.54-.127-.317-.254-.6-.381-.889-.032-.063-.1-.063-.159-.032h0a.238.238,0,0,0-.032.159Z" transform="translate(-82.383 -113.735)" fill="#696194"/>
      <path id="Path_4181" data-name="Path 4181" d="M335.949,178.857a1.725,1.725,0,0,0,0,.571c.032.1.032.19.063.254a.436.436,0,0,0,.159.254c.063.032.19.032.222-.064a.031.031,0,0,1,.032-.032.337.337,0,0,0-.032-.254l-.1-.6c-.032-.063-.064-.1-.159-.063-.063.032-.1.063-.063.159l.1.476.032.222v.032h0v.032s.1-.064.1-.032a.031.031,0,0,0-.032-.032,1.381,1.381,0,0,1-.1-.794c.032-.063-.032-.127-.064-.159-.1-.063-.159-.032-.159.032Z" transform="translate(-86.222 -123.193)" fill="#696194"/>
      <path id="Path_4182" data-name="Path 4182" d="M337.243,191.619a1.152,1.152,0,0,0-.222,1.016c.032.064.063.1.159.064.063-.032.1-.064.063-.159a.979.979,0,0,1,.222-.825c.032-.063.032-.127-.032-.159s-.127-.032-.159.032A.031.031,0,0,0,337.243,191.619Z" transform="translate(-86.945 -131.89)" fill="#696194"/>
      <path id="Path_4183" data-name="Path 4183" d="M352.63,167.246c-.317-.1-.73.1-.73.317s.317.381.635.317.444-.349.19-.476" transform="translate(-97.126 -115.296)" fill="#696194"/>
      <path id="Path_4184" data-name="Path 4184" d="M360.031,173.687a.3.3,0,0,0-.349.191v.032a.569.569,0,0,0,.127.444,1.39,1.39,0,0,0,.7.444h.064a.153.153,0,0,0,.063-.19,1.416,1.416,0,0,0-.444-.825" transform="translate(-102.432 -119.705)" fill="#696194"/>
      <path id="Path_4185" data-name="Path 4185" d="M367.6,182.644a1.944,1.944,0,0,0,.476,1.175c.1.1.254-.063.159-.159a1.966,1.966,0,0,1-.444-1.016c.032-.159-.19-.159-.19,0Z" transform="translate(-107.842 -125.741)" fill="#696194"/>
      <path id="Path_4186" data-name="Path 4186" d="M370.883,196.049a1.267,1.267,0,0,0-.318,1.048.116.116,0,0,0,.159.063c.063-.032.063-.063.063-.127a.882.882,0,0,1,.254-.825.112.112,0,0,0-.159-.159Z" transform="translate(-109.854 -134.956)" fill="#696194"/>
      <path id="Path_4187" data-name="Path 4187" d="M257.464,201.839h0c0,.032.032.064.032.1l-.032-.032a.191.191,0,0,1,.032.127V202h0c0,.032,0,.032.032.032a.031.031,0,0,0,.032.032.1.1,0,0,0,.063.032.111.111,0,0,0,.064-.032l.032-.064c0-.063-.032-.1-.032-.159a.117.117,0,0,1-.032-.1c-.032-.032-.032-.063-.064-.1a.142.142,0,0,0-.159,0,.117.117,0,0,0-.032.1v.032c.032.032.032.063.063.063Z" transform="translate(-32.626 -138.778)" fill="#9a97c1"/>
      <path id="Path_4188" data-name="Path 4188" d="M249.2,195.422c.063,0,.1-.063.1-.127a.1.1,0,0,0-.1-.1c-.063,0-.1.063-.1.127A.084.084,0,0,0,249.2,195.422Z" transform="translate(-26.96 -134.392)" fill="#9a97c1"/>
      <path id="Path_4189" data-name="Path 4189" d="M263.5,169.322c.064,0,.1-.063.1-.127a.1.1,0,0,0-.1-.1c-.064,0-.1.064-.1.127A.084.084,0,0,0,263.5,169.322Z" transform="translate(-36.721 -116.578)" fill="#9a97c1"/>
      <path id="Path_4190" data-name="Path 4190" d="M264.109,166.757a1.046,1.046,0,0,0,.032-.762c-.032-.063-.063-.1-.127-.1-.063.032-.1.064-.1.127v.032a.522.522,0,0,1,.032.317v.063a41.019,41.019,0,0,0-.063.127.031.031,0,0,1-.032.032v.032h0c-.032.063-.032.127.032.159.127.064.19.032.222-.032Z" transform="translate(-37.017 -114.394)" fill="#9a97c1"/>
      <path id="Path_4191" data-name="Path 4191" d="M254.3,147.222c.063,0,.1-.064.1-.127a.1.1,0,0,0-.1-.1c-.063,0-.1.063-.1.127A.1.1,0,0,0,254.3,147.222Z" transform="translate(-30.441 -101.494)" fill="#9a97c1"/>
      <path id="Path_4192" data-name="Path 4192" d="M252.071,145.235c-.032-.032-.063-.032-.063-.063h0l-.032-.032-.032-.032-.032-.032-.032-.032h0c-.032-.032-.032-.064-.063-.064l-.032-.032-.032-.032h0a.1.1,0,0,1-.032-.063l-.032-.032v-.032h0v-.1a.1.1,0,0,0-.19,0,.828.828,0,0,0,.381.7c.063.032.127.032.159-.032.1,0,.1-.063.032-.127Z" transform="translate(-28.598 -99.856)" fill="#9a97c1"/>
      <path id="Path_4193" data-name="Path 4193" d="M243.554,129.847a1.5,1.5,0,0,0,.032.984c.032.063.063.1.159.063s.1-.063.063-.159h0a1.316,1.316,0,0,1-.032-.857C243.808,129.784,243.586,129.72,243.554,129.847Z" transform="translate(-23.129 -89.738)" fill="#9a97c1"/>
      <path id="Path_4194" data-name="Path 4194" d="M245,133.822c.063,0,.1-.064.1-.127a.1.1,0,0,0-.1-.1c-.063,0-.1.063-.1.127A.1.1,0,0,0,245,133.822Z" transform="translate(-24.094 -92.348)" fill="#9a97c1"/>
      <path id="Path_4195" data-name="Path 4195" d="M233.419,124.563a.887.887,0,0,1-.984.762c-.032,0-.063-.032-.1-.032-.063-.032-.127.032-.159.064s.032.127.063.159a1.062,1.062,0,0,0,1.333-.794.117.117,0,0,0,.032-.1c.032-.063-.032-.127-.1-.127-.032,0-.1,0-.1.063Z" transform="translate(-15.407 -86.137)" fill="#9a97c1"/>
      <path id="Path_4196" data-name="Path 4196" d="M231.5,126.422c.064,0,.1-.063.1-.127a.1.1,0,0,0-.1-.1c-.063,0-.1.063-.1.127C231.432,126.359,231.463,126.422,231.5,126.422Z" transform="translate(-14.879 -87.297)" fill="#9a97c1"/>
      <path id="Path_4197" data-name="Path 4197" d="M248,182.622c.064,0,.1-.063.1-.127a.1.1,0,0,0-.1-.1c-.063,0-.1.063-.1.127A.1.1,0,0,0,248,182.622Z" transform="translate(-26.141 -125.656)" fill="#9a97c1"/>
      <path id="Path_4198" data-name="Path 4198" d="M306.7,224.022c.064,0,.1-.064.1-.127a.1.1,0,0,0-.1-.1c-.063,0-.1.063-.1.127Q306.6,223.975,306.7,224.022Z" transform="translate(-66.207 -153.913)" fill="#9a97c1"/>
      <path id="Path_4199" data-name="Path 4199" d="M306.871,221.212a.4.4,0,0,1-.032-.19.286.286,0,0,1,.032-.159.857.857,0,0,1,.159-.349c.032-.063.032-.127-.032-.159h0c-.064-.032-.127-.032-.159.032a1.056,1.056,0,0,0-.19.857c.032.063.063.1.159.063.032.032.063-.032.063-.1Z" transform="translate(-66.224 -151.548)" fill="#9a97c1"/>
      <path id="Path_4200" data-name="Path 4200" d="M312.4,206.622c.064,0,.1-.063.1-.127a.1.1,0,0,0-.1-.1c-.063,0-.1.063-.1.127A.143.143,0,0,0,312.4,206.622Z" transform="translate(-70.097 -142.037)" fill="#9a97c1"/>
      <path id="Path_4201" data-name="Path 4201" d="M311.938,203.284c-.032-.032-.032-.032-.032-.063v-.032a.031.031,0,0,0-.032-.032.111.111,0,0,1-.032-.064v-.032h0v-.19c0-.032.032-.032.032-.063a.031.031,0,0,1,.032-.032s.032-.032,0-.032c.032-.032.032-.064.063-.1h0l.032-.032.032-.032.032-.032h.032c.032-.032.032-.032.063-.032,0,0,.032-.032.032,0h.032a.116.116,0,0,0,.064-.159c-.032-.064-.064-.064-.127-.064a.746.746,0,0,0-.444.921c.032.032.032.063.064.127s.1.063.159.032.063-.1.032-.159Z" transform="translate(-69.672 -139.238)" fill="#9a97c1"/>
      <path id="Path_4202" data-name="Path 4202" d="M314.339,190.837a1.13,1.13,0,0,0-.349.921.1.1,0,0,0,.1.1c.063,0,.127-.063.1-.1a.937.937,0,0,1,.254-.762c.159-.1.032-.254-.1-.159Z" transform="translate(-71.247 -131.394)" fill="#9a97c1"/>
      <path id="Path_4203" data-name="Path 4203" d="M313.577,178.222c.063,0,.1-.063.1-.127a.1.1,0,0,0-.1-.1c-.063,0-.1.063-.1.127C313.45,178.159,313.514,178.19,313.577,178.222Z" transform="translate(-70.898 -122.653)" fill="#9a97c1"/>
      <path id="Path_4204" data-name="Path 4204" d="M313.381,179.059a1.237,1.237,0,0,0,.063.476c.032.063.064.1.159.063.063-.032.1-.063.063-.159a.588.588,0,0,1-.063-.222h0V179a.1.1,0,0,0-.1-.1c-.1.063-.127.127-.127.159Z" transform="translate(-70.829 -123.267)" fill="#9a97c1"/>
      <path id="Path_4205" data-name="Path 4205" d="M311.2,165.722c.063,0,.1-.063.1-.127a.1.1,0,0,0-.1-.1c-.064,0-.1.064-.1.127C311.1,165.659,311.163,165.69,311.2,165.722Z" transform="translate(-69.278 -114.121)" fill="#9a97c1"/>
      <path id="Path_4206" data-name="Path 4206" d="M330.5,164.922c.064,0,.1-.064.1-.127a.1.1,0,0,0-.1-.1c-.063,0-.1.063-.1.127A.1.1,0,0,0,330.5,164.922Z" transform="translate(-82.451 -113.575)" fill="#9a97c1"/>
      <path id="Path_4207" data-name="Path 4207" d="M331.04,165.79a.726.726,0,0,0,.349.825c.064.032.127.032.159-.032s.032-.127-.032-.159c-.032-.032-.063-.032-.063-.063h0l-.032-.032-.032-.032-.032-.032h0l-.032-.032c-.032-.032-.032-.064-.063-.1h0l-.032-.032c0-.032-.032-.032-.032-.063l-.032-.063v-.032h0v-.127h0l.032-.063c.032-.063-.032-.127-.064-.159h0c0,.1-.063.127-.1.19Z" transform="translate(-82.869 -114.189)" fill="#9a97c1"/>
      <path id="Path_4208" data-name="Path 4208" d="M336,178.922c.063,0,.1-.063.1-.127a.1.1,0,0,0-.1-.1c-.064,0-.1.064-.1.127A.084.084,0,0,0,336,178.922Z" transform="translate(-86.205 -123.131)" fill="#9a97c1"/>
      <path id="Path_4209" data-name="Path 4209" d="M335.873,180.2a1.492,1.492,0,0,0,.444.889c.1.1.254-.063.159-.159a1.253,1.253,0,0,1-.381-.794c-.032-.064-.064-.1-.159-.064-.063.032-.1.064-.063.127Z" transform="translate(-86.178 -124.059)" fill="#9a97c1"/>
      <path id="Path_4210" data-name="Path 4210" d="M336.977,193.9a.745.745,0,0,1-.222-.794c.032-.064-.032-.127-.1-.127-.064-.032-.1.032-.127.063a1.016,1.016,0,0,0,.317,1.016.141.141,0,0,0,.159,0,.238.238,0,0,0-.032-.159Z" transform="translate(-86.616 -132.872)" fill="#9a97c1"/>
      <path id="Path_4211" data-name="Path 4211" d="M351.5,167.422c.064,0,.1-.063.1-.127a.1.1,0,0,0-.1-.1c-.063,0-.1.064-.1.127A.084.084,0,0,0,351.5,167.422Z" transform="translate(-96.785 -115.281)" fill="#9a97c1"/>
      <path id="Path_4212" data-name="Path 4212" d="M352.132,168.507a.813.813,0,0,0,.762.19c.063-.032.1-.063.063-.159-.032-.063-.063-.1-.159-.063a.1.1,0,0,1-.064.032h-.222a.111.111,0,0,1-.064-.032h-.032l-.032-.032a.1.1,0,0,0-.064-.032h0l-.032-.032-.032-.032a.142.142,0,0,0-.159,0h0a.237.237,0,0,0,.032.159Z" transform="translate(-97.262 -116.049)" fill="#9a97c1"/>
      <path id="Path_4213" data-name="Path 4213" d="M359.1,173.922c.064,0,.1-.063.1-.127a.1.1,0,0,0-.1-.1c-.063,0-.1.063-.1.127A.084.084,0,0,0,359.1,173.922Z" transform="translate(-101.972 -119.718)" fill="#9a97c1"/>
      <path id="Path_4214" data-name="Path 4214" d="M360.149,175.614a.978.978,0,0,0,.794.444c.063,0,.1-.063.1-.127a.1.1,0,0,0-.1-.1h-.127l-.063-.032c-.032,0-.063-.032-.1-.032s.032.032,0,0h-.032l-.063-.032c-.032-.032-.063-.032-.063-.063h0l-.032-.032-.032-.032-.063-.063h0l-.032-.032-.032-.032c-.032-.064-.1-.064-.159-.032a.142.142,0,0,0,0,.159Z" transform="translate(-102.74 -120.902)" fill="#9a97c1"/>
      <path id="Path_4215" data-name="Path 4215" d="M369.7,186.022c.063,0,.1-.063.1-.127a.1.1,0,0,0-.1-.1c-.064,0-.1.063-.1.127A.084.084,0,0,0,369.7,186.022Z" transform="translate(-109.207 -127.977)" fill="#9a97c1"/>
      <path id="Path_4216" data-name="Path 4216" d="M371.6,196.222c.064,0,.1-.063.1-.127a.1.1,0,0,0-.1-.1c-.063,0-.1.063-.1.127A.1.1,0,0,0,371.6,196.222Z" transform="translate(-110.504 -134.939)" fill="#9a97c1"/>
      <path id="Path_4217" data-name="Path 4217" d="M370.727,197.127a.9.9,0,0,0-.127.476.1.1,0,0,0,.19,0v-.1h0v-.064a.1.1,0,0,1,.032-.063.117.117,0,0,0,.032-.1h0v-.032l.032-.032c0-.032.032-.032.032-.063a.116.116,0,0,0-.063-.159c-.032.064-.1.1-.127.127Z" transform="translate(-109.889 -135.621)" fill="#9a97c1"/>
      <path id="Path_4218" data-name="Path 4218" d="M367.432,182.308a.937.937,0,0,0,.254.762c.063.032.127.032.159-.032a.142.142,0,0,0,0-.159l-.064-.063-.032-.032h0v-.032l-.032-.032a.1.1,0,0,1-.032-.063l-.032-.032h0v-.032a.1.1,0,0,1-.032-.064v-.063h0v-.159h0c.032-.063-.032-.127-.1-.127-.063-.032-.1.032-.127.063Z" transform="translate(-107.705 -125.501)" fill="#9a97c1"/>
      <path id="Path_4219" data-name="Path 4219" d="M277.767,66.177c2.508,3.651,13.9,3.27,16.508-2.254a25.3,25.3,0,0,0,2.032-12.54c-.571-2.159-3.714-9.016-10.54-8.984-4.889.032-8.1,3.683-9.524,5.714a11.36,11.36,0,0,0-1.683,7.3S274.942,62.05,277.767,66.177Z" transform="translate(-44.294 -30.1)" fill="#bfc0e1"/>
      <path id="Path_4220" data-name="Path 4220" d="M290.328,64.646s10.413-2.286,7.746-11.9c-2.762-9.936-15.651-10.952-18.857-.7C276.328,61.313,283.725,65.567,290.328,64.646Z" transform="translate(-47.077 -31.743)" fill="#c7c7e5"/>
      <path id="Path_4221" data-name="Path 4221" d="M288.964,54.91c-3.746-.857-4.127-3.683-1.175-6.063a8.294,8.294,0,0,1,4.825-1.46c5.841-.159,9.175,2.635,8.635,5.206C300.805,55.005,294.3,56.148,288.964,54.91Z" transform="translate(-52.031 -33.499)" fill="#d1d1ea"/>
      <path id="Path_4222" data-name="Path 4222" d="M321.678,18.3l4.286-7.048c.889-.571.857-1.206.857-1.206a1.907,1.907,0,0,0,.571-1.079,1.055,1.055,0,0,0,.794-.889c.032-.508-.762-.794-.762-.794-1.333-.508-1.206,1.048-1.206,1.048-.508-.19-.921.889-.921.889a1.518,1.518,0,0,0-.476,1.27l-4.921,7.27" transform="translate(-75.284 -6.06)" fill="#c1a66f"/>
      <path id="Path_4223" data-name="Path 4223" d="M322.9,18.608l4.667-7.27a1.425,1.425,0,0,0,.667-.762,5.594,5.594,0,0,0,.73-1.175,1.591,1.591,0,0,0,.73-1.3.614.614,0,0,1,.349.921c-.317.73-.7.6-.7.6s-.19.921-.571,1.079a1.186,1.186,0,0,1-.857,1.206l-4.317,6.984-.794-.222Z" transform="translate(-77.264 -6.689)" fill="#967740"/>
      <path id="Path_4224" data-name="Path 4224" d="M339.8,10.8a2.012,2.012,0,0,0,1.175.667" transform="translate(-88.867 -8.532)" fill="none"/>
      <path id="Path_4225" data-name="Path 4225" d="M336.9,13.5a2.338,2.338,0,0,0,1.524.889" transform="translate(-86.888 -10.375)" fill="none"/>
      <path id="Path_4226" data-name="Path 4226" d="M335.5,17.6a2.134,2.134,0,0,0,1.175.794" transform="translate(-85.932 -13.173)" fill="none"/>
      <path id="Path_4227" data-name="Path 4227" d="M274.4,45.812s.19,3.968,4.381.762c0,0,3.428-3.968,3.841-.571s.286,6.857,3.016,6.7c2.73-.19,2.571-4.857,2.571-4.857s-.254-3.365,1.683-2.032c0,0,.286-.063.317,1.238s.921,1.429,1.746,1.27c.857-.159,1.048-1.746,1.683-1.27s-.54,2.159,1.587,2.667,1.619-2.73,1.619-2.73a10.933,10.933,0,0,0-10.6-8.6A12.126,12.126,0,0,0,274.4,45.812Z" transform="translate(-44.229 -27.353)" fill="#8c4e18"/>
      <path id="Path_4228" data-name="Path 4228" d="M290.56,40.4a9.927,9.927,0,0,0-4.444,2.159c-1.683,1.619,13.206,2.317,14.508-.1C300.623,42.437,297.988,39.04,290.56,40.4Z" transform="translate(-52.135 -28.518)" fill="#7a4413"/>
      <path id="Path_4229" data-name="Path 4229" d="M276.062,56.612a1.513,1.513,0,0,1-.064-.921,3.107,3.107,0,0,1,3.048-2.317c3.079-.222,1.333,2.73.318,3.333C278.443,57.247,276.7,58.295,276.062,56.612Z" transform="translate(-45.288 -37.582)" fill="#9f571d"/>
      <path id="Path_4230" data-name="Path 4230" d="M304.664,60.992s-1.9.349-1.556,3.556,1.9,2.889,1.9,2.889,2.159.032,2.222-4.1a2.519,2.519,0,0,0-.571-1.683A1.718,1.718,0,0,0,304.664,60.992Z" transform="translate(-63.794 -42.724)" fill="#9f571d"/>
      <path id="Path_4231" data-name="Path 4231" d="M325.658,62.4a.9.9,0,0,1,1.079-.571.954.954,0,0,1,.349.19c.254.254.508.6.317.984-.317.73-.984,1.206-1.429.794a.963.963,0,0,1-.349-1.4C325.658,62.433,325.658,62.433,325.658,62.4Z" transform="translate(-79.074 -43.339)" fill="#9f571d"/>
      <path id="Path_4232" data-name="Path 4232" d="M337.49,63.6s-1.365-.032-1.143,1.587a1.455,1.455,0,0,0,1.778,1.3s.762-.222.667-1.429A1.373,1.373,0,0,0,337.49,63.6Z" transform="translate(-86.494 -44.565)" fill="#9f571d"/>
      <path id="Path_4233" data-name="Path 4233" d="M277.2,61.571a2.474,2.474,0,0,0,1.365.159c.984-.381,1.016-1.048,1.587-.825s-.73,1.143-1.3,1.333a1.674,1.674,0,0,1-1.714-.19C277.171,62.079,276.6,61.635,277.2,61.571Z" transform="translate(-45.952 -42.7)" fill="#e5a552"/>
      <path id="Path_4234" data-name="Path 4234" d="M305.551,72.825s-.984-.6-1.143-1.206c-.349-1.206.254-1.746-.381-2.127s-.571,1.492-.318,2.222a2.007,2.007,0,0,0,1.429,1.492C305.106,73.237,305.963,73.46,305.551,72.825Z" transform="translate(-64.11 -48.557)" fill="#e5a552"/>
      <path id="Path_4235" data-name="Path 4235" d="M327.669,65.056s.413-.159.508-.381c.222-.444.032-.667.286-.794.254-.1.1.6-.032.889a.773.773,0,0,1-.635.476S327.479,65.31,327.669,65.056Z" transform="translate(-80.546 -44.756)" fill="#e5a552"/>
      <path id="Path_4236" data-name="Path 4236" d="M338.336,67.109s-.54-.317-.635-.667c-.19-.667.159-.984-.222-1.206s-.317.857-.19,1.27a1.058,1.058,0,0,0,.794.825C338.114,67.331,338.59,67.458,338.336,67.109Z" transform="translate(-87.086 -45.666)" fill="#e5a552"/>
      <path id="Path_4237" data-name="Path 4237" d="M305.84,65.484h0l-.127.032h.032l-.127-.032h.032l-.1-.063.032.032-.1-.063a.031.031,0,0,1,.032.032l-.063-.1h0l-.032-.1h0L305.4,65.1h0l.032-.127h0l.063-.1h0l.063-.1h0l.1-.064h0l.1-.063h-.032l.127-.032h-.032l.127.032h0l.1.032h0l.1.063h0l.063.1h0l.032.1v-.032l.032.127v-.032l-.032.127h0l-.032.1h0l-.063.1h0l-.1.063h0l-.1.032h0l-.127.032h0l-.127-.032h0l-.1-.032h0l-.1-.063h0l-.063-.1h0l-.032-.1h0l-.032-.127h0l.032-.127h0l.032-.1h0l.063-.1h0l.1-.063h0l-.1.063a.7.7,0,0,0-.1.159.117.117,0,0,0-.032.1.2.2,0,0,0,0,.19l.032.1.064.1a.693.693,0,0,0,.159.1.4.4,0,0,0,.19.032h0l.127.063h0c.032-.032.19-.063.1-.063h0c.032-.032.064-.063.1-.063h0l.032-.032.032-.063h0a.117.117,0,0,0,.032-.1c0-.032,0-.032.032-.063v-.063c0-.032-.032-.063-.032-.127h0l-.032-.1h0c-.032-.032-.063-.063-.063-.1a.472.472,0,0,0-.444-.127c-.063.032-.1.032-.159.063a.379.379,0,0,0-.159.286.2.2,0,0,0,0,.19l.064.1a.382.382,0,0,0,.159.159l.1.032a.271.271,0,0,0,.222,0h0l-.127.032h0l-.127-.032h0l-.1-.032h0l-.1-.063h0l-.064-.1h0l-.032-.1h0l-.032-.127h0l.032-.127h0l.032-.1h0l.064-.1h0l.1-.063h0l.1-.063h0l.127-.032h0l.222.857h0l.1-.063h0c.032-.032.032-.032.032-.063l.032-.063c.032-.032.032-.032.032-.063.032-.032.032-.032.032-.063h0l.032-.127h0l-.032-.127h0a.116.116,0,0,1-.032-.1c-.032-.032-.032-.032-.032-.063s-.032-.032-.032-.063l-.1-.063h0a.588.588,0,0,0-.222-.063h0l-.127.032h0l-.063.032-.064.032a.326.326,0,0,0-.159.19h0l-.032.063-.032.063h0c0-.032-.032.1-.032.127h0V65.1c0,.032,0,.032.032.063h0V65.2a.111.111,0,0,0,.032.063c0,.032.032.032.032.063a.384.384,0,0,0,.159.159l.064.032c.032,0,.032.032.063.032h.159c.032,0,.1-.032.127-.032H306l.063-.032.063-.032h0l.063-.032.064-.032h0c.032-.032.063-.063.063-.1h0l.032-.063.032-.064h0a.348.348,0,0,0,0-.254h0l-.032-.1h0l-.063-.1h0c-.032-.032-.063-.063-.1-.063h-.032c-.032-.032-.063-.032-.1-.063h0c-.032,0-.1-.032-.127-.032h-.127a.425.425,0,0,0-.254.222c-.032.063-.064.1-.064.159a.2.2,0,0,0,0,.19l.032.1a.383.383,0,0,0,.159.159l.1.032c-.127.063-.032.063.063.063Z" transform="translate(-65.319 -45.184)" fill="#e5a552"/>
      <path id="Path_4238" data-name="Path 4238" d="M323.747,44.412c.1.032.19.032.254.064l-.1-.032a1.681,1.681,0,0,1,.318.19l-.1-.063a.967.967,0,0,1,.254.254l-.064-.1c.064.063.1.159.159.222a.565.565,0,0,0,.254.222.483.483,0,0,0,.571-.317h0a.359.359,0,0,0-.063-.349,1.853,1.853,0,0,0-1.27-.952.45.45,0,0,0-.349.032.426.426,0,0,0-.159.6h0A.64.64,0,0,0,323.747,44.412Z" transform="translate(-77.671 -30.874)" fill="#e5a552"/>
      <path id="Path_4239" data-name="Path 4239" d="M289.054,36.794a3.355,3.355,0,0,1,2.508-.222l.794.381s.159.159-.254.6a3.178,3.178,0,0,1-2.444-.254H288.8Z" transform="translate(-54.057 -26.018)" fill="#018b38"/>
      <path id="Path_4240" data-name="Path 4240" d="M297.5,43.83l2.159-.73s.476.349.476.73a.846.846,0,0,1-.286.635,4.858,4.858,0,0,1-1.524.635A2.092,2.092,0,0,1,297.5,43.83Z" transform="translate(-59.995 -30.578)" fill="#018b38"/>
      <path id="Path_4241" data-name="Path 4241" d="M313.867,46.3a4.5,4.5,0,0,1-.667,1.524,5.632,5.632,0,0,0,2.1.952c.73,0,1.429-.984,1.492-1.46a.386.386,0,0,0,0-.508s-.571.444-1.746-.032Z" transform="translate(-70.711 -32.762)" fill="#018b38"/>
      <path id="Path_4242" data-name="Path 4242" d="M309.2,34.646s.381-1.333,0-1.746a6.029,6.029,0,0,0,1.27.444c.952.286,1.4.1,1.143.635a.718.718,0,0,1-.381.635A7.346,7.346,0,0,1,309.2,34.646Z" transform="translate(-67.981 -23.616)" fill="#018b38"/>
      <path id="Path_4243" data-name="Path 4243" d="M315.7,49.844s2.032.286,2.508-.444a1.313,1.313,0,0,1-1.46,1.175A1.367,1.367,0,0,1,315.7,49.844Z" transform="translate(-72.418 -34.878)" fill="#125b2b"/>
      <path id="Path_4244" data-name="Path 4244" d="M298.2,45.6s.254.794.6.984a2.537,2.537,0,0,0,1.46-.635S298.517,46.616,298.2,45.6Z" transform="translate(-60.473 -32.284)" fill="#125b2b"/>
      <path id="Path_4245" data-name="Path 4245" d="M290.8,37.179a1.871,1.871,0,0,1,2-.254s.063-.032.794.349c0,0-.032.254-.508.254S292.641,36.8,290.8,37.179Z" transform="translate(-55.422 -26.244)" fill="#125b2b"/>
      <path id="Path_4246" data-name="Path 4246" d="M310,36.467a3.817,3.817,0,0,0,1.968-.667s.032.667-.571.667Z" transform="translate(-68.527 -25.595)" fill="#125b2b"/>
      <path id="Path_4247" data-name="Path 4247" d="M287.879,206.689a.445.445,0,0,0,0-.889A.445.445,0,0,0,287.879,206.689Z" transform="translate(-53.136 -141.627)" fill="#bfc0e1"/>
      <path id="Path_4248" data-name="Path 4248" d="M286.395,194.608a3.558,3.558,0,0,0-.317-2.063,13.23,13.23,0,0,1-.762-1.841.443.443,0,0,0-.857.222,12.318,12.318,0,0,0,.73,1.778,2.992,2.992,0,0,1,.349,1.651.483.483,0,0,0,.317.571.493.493,0,0,0,.54-.317Z" transform="translate(-51.08 -131.102)" fill="#bfc0e1"/>
      <path id="Path_4249" data-name="Path 4249" d="M314.416,202.492A37.506,37.506,0,0,1,316,198.016c.318-.73.667-1.429.984-2.127a3.547,3.547,0,0,0,.349-2.286c-.127-.571-1.016-.317-.857.222a3.116,3.116,0,0,1-.444,1.968c-.349.7-.635,1.4-.952,2.127a43.636,43.636,0,0,0-1.524,4.317c-.159.571.73.825.857.254Z" transform="translate(-70.944 -133.081)" fill="#bfc0e1"/>
      <path id="Path_4250" data-name="Path 4250" d="M244.179,202.289a.445.445,0,0,0,0-.889A.445.445,0,0,0,244.179,202.289Z" transform="translate(-23.309 -138.624)" fill="#bfc0e1"/>
      <path id="Path_4251" data-name="Path 4251" d="M241.032,187.036a5.362,5.362,0,0,1-.825-4.73.443.443,0,1,0-.857-.222,6.174,6.174,0,0,0,.921,5.4.426.426,0,0,0,.6.159A.432.432,0,0,0,241.032,187.036Z" transform="translate(-20.131 -125.212)" fill="#bfc0e1"/>
      <path id="Path_4252" data-name="Path 4252" d="M233.454,118.029c.317-.032.635-.032.984-.032.159,0,.317.032.508.032.064,0,.127.032.191.032.032,0,.063.032.1.032s.1.032.063.032c-.063-.032.032.032.032.032l.064.032.1.063h0c.064.032.1.1.159.127l.063.063.032.032c.032.064.063.1.1.159l.032.063h0c.032.063.032.127.063.191,0,.032.032.063.032.1.032.063-.032-.1,0,.032a.444.444,0,1,0,.889,0,1.977,1.977,0,0,0-1.048-1.619,2.675,2.675,0,0,0-1.111-.222,7.358,7.358,0,0,0-1.175.032.434.434,0,0,0-.444.444c-.064.159.127.349.381.381Z" transform="translate(-16.013 -81.126)" fill="#bfc0e1"/>
      <path id="Path_4253" data-name="Path 4253" d="M377.054,191.949a5.435,5.435,0,0,0,.159-2.762.462.462,0,1,0-.889.254.286.286,0,0,1,.032.159l.032.064v.032c0,.1.032.19.032.254a2.131,2.131,0,0,1,0,.635c0,.1-.032.19-.032.317l-.032.064c0,.063-.032.1-.032.159a4.221,4.221,0,0,1-.159.6.483.483,0,0,0,.318.571A.5.5,0,0,0,377.054,191.949Z" transform="translate(-113.677 -130.062)" fill="#bfc0e1"/>
      <path id="Path_4254" data-name="Path 4254" d="M331.093,158.86a9.817,9.817,0,0,1,2.444,5.016.444.444,0,1,0,.889,0,10.784,10.784,0,0,0-2.7-5.682.424.424,0,0,0-.635,0,.46.46,0,0,0,0,.667Z" transform="translate(-82.826 -109.036)" fill="#bfc0e1"/>
      <path id="Path_4255" data-name="Path 4255" d="M362.279,139.089a.445.445,0,0,0,0-.889A.445.445,0,0,0,362.279,139.089Z" transform="translate(-103.917 -95.488)" fill="#bfc0e1"/>
      <path id="Path_4256" data-name="Path 4256" d="M366.055,132.638a3.354,3.354,0,0,1,1.81-1.175,2.184,2.184,0,0,1,1.968.317.441.441,0,1,0,.444-.762c-1.556-1.175-3.968-.317-5.016,1.175a.426.426,0,0,0,.159.6.462.462,0,0,0,.635-.159Z" transform="translate(-106.201 -90.211)" fill="#bfc0e1"/>
      <path id="Path_4257" data-name="Path 4257" d="M242.023,172.259a3.735,3.735,0,0,1,.349-.6c.032-.064.064-.1.1-.159.032-.032.032-.063.064-.063-.064.063,0,.032,0,0a1.813,1.813,0,0,1,.222-.254,2.387,2.387,0,0,1,.508-.476l.127-.1c.032-.032.064-.063.1-.063-.063.032-.032.032,0,0a2.748,2.748,0,0,1,.317-.222.441.441,0,1,0-.444-.762h0a6.3,6.3,0,0,0-2.1,2.286.426.426,0,0,0,.159.6.474.474,0,0,0,.6-.19Z" transform="translate(-21.566 -116.849)" fill="#bfc0e1"/>
      <path id="Path_4258" data-name="Path 4258" d="M317.458,158.006a14.3,14.3,0,0,1,.73,5.3c-.032.571.857.571.889,0a14.835,14.835,0,0,0-.762-5.524A.443.443,0,1,0,317.458,158.006Z" transform="translate(-73.604 -108.627)" fill="#bfc0e1"/>
      <path id="Path_4259" data-name="Path 4259" d="M320.879,178.589a.445.445,0,0,0,0-.889A.445.445,0,0,0,320.879,178.589Z" transform="translate(-75.66 -122.448)" fill="#bfc0e1"/>
      <path id="Path_4260" data-name="Path 4260" d="M301.4,99.222A3.657,3.657,0,0,0,306.321,99" transform="translate(-62.657 -68.732)" fill="none" stroke="#1d1d1b" stroke-miterlimit="10" stroke-width="2"/>
      <path id="Path_4261" data-name="Path 4261" d="M288.727,87.453s-2.191-1.619-4.127,0" transform="translate(-51.191 -60.359)" fill="none" stroke="#1d1d1b" stroke-miterlimit="10" stroke-width="3"/>
      <path id="Path_4262" data-name="Path 4262" d="M319.1,87.453a3.4,3.4,0,0,1,4.1,0" transform="translate(-74.738 -60.359)" fill="none" stroke="#1d1d1b" stroke-miterlimit="10" stroke-width="3"/>
      <path id="Path_4263" data-name="Path 4263" d="M296.017,174.534a2.741,2.741,0,0,1,.349-1.651,12.3,12.3,0,0,0,.73-1.778.443.443,0,0,0-.857-.222c-.19.635-.508,1.206-.762,1.841a4.039,4.039,0,0,0-.317,2.032.48.48,0,0,0,.571.317A.414.414,0,0,0,296.017,174.534Z" transform="translate(-58.385 -117.568)" fill="#bfc0e1"/>
      <path id="Path_4264" data-name="Path 4264" d="M295.479,187.589a.445.445,0,0,0,0-.889A.445.445,0,0,0,295.479,187.589Z" transform="translate(-58.323 -128.591)" fill="#bfc0e1"/>
    </g>
    <g id="Group_3352" data-name="Group 3352" transform="translate(-152 105)">
      <circle id="Ellipse_104-2" data-name="Ellipse 104" cx="32" cy="32" r="32" transform="translate(-24190 -10389)" fill="#fff"/>
      <g id="Mask_Group_33" data-name="Mask Group 33" transform="translate(299 831.874)" clip-path="url(#clip-path)">
        <g id="polygon-matic-logo" transform="translate(-24476.975 -11206.542)">
          <path id="Path_4126" data-name="Path 4126" d="M30.434,10.808a2.646,2.646,0,0,0-2.519,0l-5.877,3.5-3.988,2.23-5.772,3.5a2.646,2.646,0,0,1-2.519,0L5.247,17.286a2.594,2.594,0,0,1-1.259-2.23V9.746a2.626,2.626,0,0,1,1.259-2.23L9.76,4.861a2.646,2.646,0,0,1,2.519,0l4.513,2.761a2.594,2.594,0,0,1,1.259,2.23v3.5l3.988-2.336V7.409a2.626,2.626,0,0,0-1.259-2.23L12.383.188a2.646,2.646,0,0,0-2.519,0l-8.605,5.1A2.34,2.34,0,0,0,0,7.409v9.982a2.626,2.626,0,0,0,1.259,2.23l8.5,4.991a2.646,2.646,0,0,0,2.519,0l5.772-3.4,3.988-2.336,5.772-3.4a2.646,2.646,0,0,1,2.519,0l4.513,2.655a2.594,2.594,0,0,1,1.259,2.23v5.31a2.626,2.626,0,0,1-1.259,2.23L30.434,30.56a2.646,2.646,0,0,1-2.519,0L23.4,27.905a2.594,2.594,0,0,1-1.259-2.23v-3.4l-3.988,2.336v3.5a2.626,2.626,0,0,0,1.259,2.23l8.5,4.991a2.646,2.646,0,0,0,2.519,0l8.5-4.991a2.594,2.594,0,0,0,1.259-2.23V18.029a2.626,2.626,0,0,0-1.259-2.23Z" transform="translate(0 0.131)" fill="#8247e5"/>
        </g>
      </g>
    </g>
  </g>
</svg>
