<svg xmlns="http://www.w3.org/2000/svg" xmlns:xlink="http://www.w3.org/1999/xlink" width="114" height="64" viewBox="0 0 114 64">
  <defs>
    <clipPath id="clip-path">
      <circle id="Ellipse_202" data-name="Ellipse 202" cx="32" cy="32" r="32" transform="translate(-24190 -10494)" fill="#fff"/>
    </clipPath>
    <clipPath id="clip-path-2">
      <ellipse id="Ellipse_892" data-name="Ellipse 892" cx="26.5" cy="25.5" rx="26.5" ry="25.5" transform="translate(-24483 -11213.874)" fill="#fff"/>
    </clipPath>
  </defs>
  <g id="Group_9086" data-name="Group 9086" transform="translate(24390 8935)">
    <circle id="Ellipse_1139" data-name="Ellipse 1139" cx="32" cy="32" r="32" transform="translate(-24340 -8935)" fill="#fff"/>
    <g id="Mask_Group_50" data-name="Mask Group 50" transform="translate(-200 1559)" clip-path="url(#clip-path)">
      <g id="usd-coin-usdc-logo" transform="translate(-24190 -10494)">
        <path id="Path_5250" data-name="Path 5250" d="M32,64A31.923,31.923,0,1,0,9.35,54.65,31.923,31.923,0,0,0,32,64Z" fill="#2775ca"/>
        <path id="Path_5251" data-name="Path 5251" d="M40.8,37.067c0-4.667-2.8-6.267-8.4-6.933-4-.533-4.8-1.6-4.8-3.467s1.333-3.067,4-3.067c2.4,0,3.733.8,4.4,2.8a1,1,0,0,0,.933.667h2.133A.911.911,0,0,0,40,26.133V26a6.661,6.661,0,0,0-6-5.467v-3.2c0-.533-.4-.933-1.067-1.067h-2c-.533,0-.933.4-1.067,1.067V20.4c-4,.533-6.533,3.2-6.533,6.533,0,4.4,2.667,6.133,8.267,6.8,3.733.667,4.933,1.467,4.933,3.6s-1.867,3.6-4.4,3.6c-3.467,0-4.667-1.467-5.067-3.467a.974.974,0,0,0-.933-.8H23.867a.911.911,0,0,0-.933.933v.133c.533,3.333,2.667,5.733,7.067,6.4v3.2c0,.533.4.933,1.067,1.067h2c.533,0,.933-.4,1.067-1.067v-3.2c4-.667,6.667-3.467,6.667-7.067Z" fill="#fff"/>
        <path id="Path_5252" data-name="Path 5252" d="M25.2,51.067a19.952,19.952,0,0,1,0-37.467,1.338,1.338,0,0,0,.8-1.333V10.4a1.013,1.013,0,0,0-.8-1.067.8.8,0,0,0-.533.133,23.994,23.994,0,0,0,0,45.733.811.811,0,0,0,1.2-.533C26,54.533,26,54.4,26,54.133V52.267a1.776,1.776,0,0,0-.8-1.2Zm14.133-41.6a.811.811,0,0,0-1.2.533c-.133.133-.133.267-.133.533V12.4a1.769,1.769,0,0,0,.8,1.333,19.952,19.952,0,0,1,0,37.467,1.338,1.338,0,0,0-.8,1.333V54.4a1.013,1.013,0,0,0,.8,1.067.8.8,0,0,0,.533-.133,24.1,24.1,0,0,0,0-45.867Z" fill="#fff"/>
      </g>
    </g>
    <g id="Group_9083" data-name="Group 9083" transform="translate(-307 534)">
      <circle id="Ellipse_830" data-name="Ellipse 830" cx="32" cy="32" r="32" transform="translate(-24033 -9469)" fill="#fff"/>
      <g id="Mask_Group_97" data-name="Mask Group 97" transform="translate(456 1751.874)" clip-path="url(#clip-path-2)">
        <g id="polygon-matic-logo" transform="translate(-24476.975 -11206.542)">
          <path id="Path_9616" data-name="Path 9616" d="M30.434,10.808a2.646,2.646,0,0,0-2.519,0l-5.877,3.5-3.988,2.23-5.772,3.5a2.646,2.646,0,0,1-2.519,0L5.247,17.286a2.594,2.594,0,0,1-1.259-2.23V9.746a2.626,2.626,0,0,1,1.259-2.23L9.76,4.861a2.646,2.646,0,0,1,2.519,0l4.513,2.761a2.594,2.594,0,0,1,1.259,2.23v3.5l3.988-2.336V7.409a2.626,2.626,0,0,0-1.259-2.23L12.383.188a2.646,2.646,0,0,0-2.519,0l-8.605,5.1A2.34,2.34,0,0,0,0,7.409v9.982a2.626,2.626,0,0,0,1.259,2.23l8.5,4.991a2.646,2.646,0,0,0,2.519,0l5.772-3.4,3.988-2.336,5.772-3.4a2.646,2.646,0,0,1,2.519,0l4.513,2.655a2.594,2.594,0,0,1,1.259,2.23v5.31a2.626,2.626,0,0,1-1.259,2.23L30.434,30.56a2.646,2.646,0,0,1-2.519,0L23.4,27.905a2.594,2.594,0,0,1-1.259-2.23v-3.4l-3.988,2.336v3.5a2.626,2.626,0,0,0,1.259,2.23l8.5,4.991a2.646,2.646,0,0,0,2.519,0l8.5-4.991a2.594,2.594,0,0,0,1.259-2.23V18.029a2.626,2.626,0,0,0-1.259-2.23Z" transform="translate(0 0.131)" fill="#8247e5"/>
        </g>
      </g>
    </g>
  </g>
</svg>
