<svg xmlns="http://www.w3.org/2000/svg" xmlns:xlink="http://www.w3.org/1999/xlink" width="114" height="64" viewBox="0 0 114 64">
  <defs>
    <style>
      .cls-1 {
        fill: #fff;
      }

      .cls-2 {
        clip-path: url(#clip-path);
      }

      .cls-3 {
        fill: #2775ca;
      }

      .cls-4 {
        clip-path: url(#clip-path-2);
      }

      .cls-5 {
        fill: #8c86f5;
        fill-rule: evenodd;
      }
    </style>
    <clipPath id="clip-path">
      <circle id="Ellipse_1929" data-name="Ellipse 1929" class="cls-1" cx="32" cy="32" r="32" transform="translate(-23767 -21453)"/>
    </clipPath>
    <clipPath id="clip-path-2">
      <circle id="Ellipse_2054" data-name="Ellipse 2054" class="cls-1" cx="32" cy="32" r="32" transform="translate(-23717 -22993)"/>
    </clipPath>
  </defs>
  <g id="Group_865" data-name="Group 865" transform="translate(23767 22993)">
    <g id="Mask_Group_221" data-name="Mask Group 221" class="cls-2" transform="translate(0 -1540)">
      <g id="usd-coin-usdc-logo" transform="translate(-23767 -21453)">
        <path id="Path_19746" data-name="Path 19746" class="cls-3" d="M32,64A32,32,0,1,0,0,32,31.923,31.923,0,0,0,32,64Z"/>
        <path id="Path_19747" data-name="Path 19747" class="cls-1" d="M40.8,37.067c0-4.667-2.8-6.267-8.4-6.933-4-.533-4.8-1.6-4.8-3.467s1.333-3.067,4-3.067c2.4,0,3.733.8,4.4,2.8a1,1,0,0,0,.933.667h2.133A.911.911,0,0,0,40,26.133V26a6.661,6.661,0,0,0-6-5.467v-3.2c0-.533-.4-.933-1.067-1.067h-2c-.533,0-.933.4-1.067,1.067V20.4c-4,.533-6.533,3.2-6.533,6.533,0,4.4,2.667,6.133,8.267,6.8,3.733.667,4.933,1.467,4.933,3.6s-1.867,3.6-4.4,3.6c-3.467,0-4.667-1.467-5.067-3.467a.974.974,0,0,0-.933-.8H23.867a.911.911,0,0,0-.933.933v.133c.533,3.333,2.667,5.733,7.067,6.4v3.2c0,.533.4.933,1.067,1.067h2c.533,0,.933-.4,1.067-1.067v-3.2c4-.667,6.667-3.467,6.667-7.067Z"/>
        <path id="Path_19748" data-name="Path 19748" class="cls-1" d="M25.2,51.067a19.952,19.952,0,0,1,0-37.467,1.338,1.338,0,0,0,.8-1.333V10.4a1.013,1.013,0,0,0-.8-1.067.8.8,0,0,0-.533.133,23.994,23.994,0,0,0,0,45.733.811.811,0,0,0,1.2-.533C26,54.533,26,54.4,26,54.133V52.267A1.776,1.776,0,0,0,25.2,51.067Zm14.133-41.6a.811.811,0,0,0-1.2.533c-.133.133-.133.267-.133.533V12.4a1.769,1.769,0,0,0,.8,1.333,19.952,19.952,0,0,1,0,37.467,1.338,1.338,0,0,0-.8,1.333V54.4a1.013,1.013,0,0,0,.8,1.067.8.8,0,0,0,.533-.133,24.1,24.1,0,0,0,0-45.867Z"/>
      </g>
    </g>
    <circle id="Ellipse_1930" data-name="Ellipse 1930" class="cls-1" cx="32" cy="32" r="32" transform="translate(-23717 -22993)"/>
    <g id="Mask_Group_247" data-name="Mask Group 247" class="cls-4">
      <path id="ABR" class="cls-5" d="M27.11,0h9.778V12.258a20.608,20.608,0,0,0-9.778-.218ZM21.252,14.338,12.83,5.916,5.916,12.83l8.313,8.313A20.548,20.548,0,0,1,21.252,14.338ZM11.7,27.111H0v9.778H11.7a20.611,20.611,0,0,1,0-9.778Zm2.53,15.746L5.915,51.171l6.914,6.914,8.423-8.423A20.547,20.547,0,0,1,14.228,42.857Zm12.882,9.1V64h9.778V51.742a20.61,20.61,0,0,1-9.778.218Zm15.3-2.634,8.758,8.758,6.914-6.914L49.217,42.3A20.548,20.548,0,0,1,42.412,49.326Zm9-12.438H64V27.111H51.411a20.608,20.608,0,0,1,0,9.778ZM49.217,21.7l8.867-8.866L51.17,5.916l-8.758,8.758A20.549,20.549,0,0,1,49.217,21.7Z" transform="translate(-23717 -22993)"/>
    </g>
  </g>
</svg>
