<svg xmlns="http://www.w3.org/2000/svg" xmlns:xlink="http://www.w3.org/1999/xlink" width="114" height="64" viewBox="0 0 114 64">
  <defs>
    <style>
      .cls-1 {
        fill: #fff;
      }

      .cls-2 {
        clip-path: url(#clip-path);
      }

      .cls-3 {
        fill: #2775ca;
      }

      .cls-4 {
        clip-path: url(#clip-path-2);
      }

      .cls-12, .cls-16, .cls-22, .cls-23, .cls-24, .cls-25, .cls-5 {
        fill: none;
        stroke: #282829;
        stroke-miterlimit: 22.926;
      }

      .cls-5 {
        stroke-width: 3.704px;
      }

      .cls-10, .cls-11, .cls-12, .cls-13, .cls-14, .cls-15, .cls-16, .cls-17, .cls-18, .cls-19, .cls-21, .cls-24, .cls-25, .cls-5, .cls-6, .cls-8, .cls-9 {
        fill-rule: evenodd;
      }

      .cls-6, .cls-7 {
        fill: #372d52;
      }

      .cls-8 {
        fill: #3b3461;
      }

      .cls-9 {
        fill: #6b599d;
      }

      .cls-10 {
        fill: #564f7e;
      }

      .cls-11 {
        fill: #917fba;
      }

      .cls-12 {
        stroke-width: 0.385px;
      }

      .cls-13 {
        fill: #dccf8b;
      }

      .cls-14 {
        fill: #f2eacd;
      }

      .cls-15 {
        fill: url(#linear-gradient);
      }

      .cls-16, .cls-22 {
        stroke-width: 0.185px;
      }

      .cls-17 {
        fill: #d0d0c6;
      }

      .cls-18 {
        fill: #837045;
      }

      .cls-19 {
        fill: #91533a;
      }

      .cls-20 {
        fill: #282829;
      }

      .cls-21 {
        fill: #8e949b;
      }

      .cls-23, .cls-24 {
        stroke-width: 0.096px;
      }

      .cls-25 {
        stroke-width: 1.542px;
      }
    </style>
    <clipPath id="clip-path">
      <circle id="Ellipse_1805" data-name="Ellipse 1805" class="cls-1" cx="32" cy="32" r="32" transform="translate(-23609 -24761)"/>
    </clipPath>
    <clipPath id="clip-path-2">
      <circle id="Ellipse_1806" data-name="Ellipse 1806" class="cls-1" cx="32" cy="32" r="32" transform="translate(-23559 -24761)"/>
    </clipPath>
    <linearGradient id="linear-gradient" x1="0.549" y1="0.177" x2="0.554" y2="0.577" gradientUnits="objectBoundingBox">
      <stop offset="0"/>
      <stop offset="1" stop-color="#f2eacd"/>
    </linearGradient>
  </defs>
  <g id="Group_12925" data-name="Group 12925" transform="translate(23609 24761)">
    <g id="Mask_Group_476" data-name="Mask Group 476" class="cls-2">
      <g id="usd-coin-usdc-logo" transform="translate(-23609 -24761)">
        <path id="Path_29057" data-name="Path 29057" class="cls-3" d="M32,64A32,32,0,1,0,0,32,31.923,31.923,0,0,0,32,64Z"/>
        <path id="Path_29058" data-name="Path 29058" class="cls-1" d="M40.8,37.067c0-4.667-2.8-6.267-8.4-6.933-4-.533-4.8-1.6-4.8-3.467s1.333-3.067,4-3.067c2.4,0,3.733.8,4.4,2.8a1,1,0,0,0,.933.667h2.133A.911.911,0,0,0,40,26.133V26a6.661,6.661,0,0,0-6-5.467v-3.2c0-.533-.4-.933-1.067-1.067h-2c-.533,0-.933.4-1.067,1.067V20.4c-4,.533-6.533,3.2-6.533,6.533,0,4.4,2.667,6.133,8.267,6.8,3.733.667,4.933,1.467,4.933,3.6s-1.867,3.6-4.4,3.6c-3.467,0-4.667-1.467-5.067-3.467a.974.974,0,0,0-.933-.8H23.867a.911.911,0,0,0-.933.933v.133c.533,3.333,2.667,5.733,7.067,6.4v3.2c0,.533.4.933,1.067,1.067h2c.533,0,.933-.4,1.067-1.067v-3.2c4-.667,6.667-3.467,6.667-7.067Z"/>
        <path id="Path_29059" data-name="Path 29059" class="cls-1" d="M25.2,51.067a19.952,19.952,0,0,1,0-37.467,1.338,1.338,0,0,0,.8-1.333V10.4a1.013,1.013,0,0,0-.8-1.067.8.8,0,0,0-.533.133,23.994,23.994,0,0,0,0,45.733.811.811,0,0,0,1.2-.533C26,54.533,26,54.4,26,54.133V52.267A1.776,1.776,0,0,0,25.2,51.067Zm14.133-41.6a.811.811,0,0,0-1.2.533c-.133.133-.133.267-.133.533V12.4a1.769,1.769,0,0,0,.8,1.333,19.952,19.952,0,0,1,0,37.467,1.338,1.338,0,0,0-.8,1.333V54.4a1.013,1.013,0,0,0,.8,1.067.8.8,0,0,0,.533-.133,24.1,24.1,0,0,0,0-45.867Z"/>
      </g>
    </g>
    <g id="Mask_Group_474" data-name="Mask Group 474" class="cls-4">
      <g id="Capa_x0020_1" transform="translate(-23561.969 -24764.023)">
        <g id="_2259825632336">
          <g id="Group_12735" data-name="Group 12735">
            <path id="Path_28873" data-name="Path 28873" class="cls-5" d="M34.969,5.892A29.131,29.131,0,1,0,64.1,35.023,29.131,29.131,0,0,0,34.969,5.892Z"/>
            <path id="_1" data-name="1" class="cls-6" d="M34.969,5.892A29.131,29.131,0,1,0,64.1,35.023,29.131,29.131,0,0,0,34.969,5.892Z"/>
          </g>
          <circle id="Ellipse_2430" data-name="Ellipse 2430" class="cls-7" cx="29.63" cy="29.63" r="29.63" transform="matrix(0.997, 0.083, -0.083, 0.997, 7.916, 3.023)"/>
          <path id="Path_28874" data-name="Path 28874" class="cls-8" d="M20.058,60.328,7.491,44.719l26.059,13.7L24.4,7.867,59.571,51.021,50.934,11.314Z"/>
          <path id="Path_28875" data-name="Path 28875" class="cls-9" d="M64.253,41.891l-58.293-7.2L49.639,60.456,27.312,62.57l7.67-51.539L11.8,33.3l1.848-15.315Z"/>
          <path id="Path_28876" data-name="Path 28876" class="cls-10" d="M59.127,22.654,36.731,4.808l7.088,36.5L7.537,43.074Z"/>
          <path id="Path_28877" data-name="Path 28877" class="cls-11" d="M7.764,24.584l30.691-.169L41.24,63.656l4.888-55.78,8.407,48.887Z"/>
          <g id="Group_12736" data-name="Group 12736">
            <path id="Path_28878" data-name="Path 28878" class="cls-12" d="M37.86,21.474c-.762.572-1.2.579-.529,1.687.471.778,1.4,1.124.436,2.365-.439.564-.087,2.329-.107,3.1-.008.309.077.865.077,1.31,0,.56-.138.385-.777.484a15.475,15.475,0,0,1-4.2-.752c-.321-.62.628-5.565.931-6.348.458-1.186.1-1.962,1.381-2.616.8-.407,1.507-.817,2.25.062.2.241.62.649.538.71Z"/>
            <path id="_1-2" data-name="1" class="cls-13" d="M37.86,21.474c-.762.572-1.2.579-.529,1.687.471.778,1.4,1.124.436,2.365-.439.564-.087,2.329-.107,3.1-.008.309.077.865.077,1.31,0,.56-.138.385-.777.484a15.475,15.475,0,0,1-4.2-.752c-.321-.62.628-5.565.931-6.348.458-1.186.1-1.962,1.381-2.616.8-.407,1.507-.817,2.25.062.2.241.62.649.538.71Z"/>
          </g>
          <g id="Group_12737" data-name="Group 12737">
            <path id="Path_28879" data-name="Path 28879" class="cls-12" d="M30.282,25.558c.5.1,3.61,1.2,3.58,1.829a6.276,6.276,0,0,0,.023,1.644c.167,0,.559.237,1.052.332,1.43.275,3.71.671,3.818.965.868,2.364,0,5.658-3.545,5.237-5.5-.654-4.976-1.569-5.3-6.894C29.889,28.4,29.954,25.5,30.282,25.558Z"/>
            <path id="_1-3" data-name="1" class="cls-14" d="M30.282,25.558c.5.1,3.61,1.2,3.58,1.829a6.276,6.276,0,0,0,.023,1.644c.167,0,.559.237,1.052.332,1.43.275,3.71.671,3.818.965.868,2.364,0,5.658-3.545,5.237-5.5-.654-4.976-1.569-5.3-6.894C29.889,28.4,29.954,25.5,30.282,25.558Z"/>
          </g>
          <g id="Group_12738" data-name="Group 12738">
            <path id="Path_28880" data-name="Path 28880" class="cls-12" d="M30.513,25.5c.275.77,1.715,1.417,2.9,1.709a1.523,1.523,0,0,0,1.347-.157c.073-.06.661-1.061.992-1.661.432-.783.157-3.878.253-5.056.025-.31-.69-.229-1.089-.229-1.953,0-6.332,1.011-5.293,3.559C29.835,24.2,30.49,25.439,30.513,25.5Z"/>
            <path id="_1-4" data-name="1" class="cls-15" d="M30.513,25.5c.275.77,1.715,1.417,2.9,1.709a1.523,1.523,0,0,0,1.347-.157c.073-.06.661-1.061.992-1.661.432-.783.157-3.878.253-5.056.025-.31-.69-.229-1.089-.229-1.953,0-6.332,1.011-5.293,3.559C29.835,24.2,30.49,25.439,30.513,25.5Z"/>
          </g>
          <g id="Group_12739" data-name="Group 12739">
            <path id="Path_28881" data-name="Path 28881" class="cls-16" d="M41.152,59.377c-3.214-3.873-7.086-8.589-6.815-9.821"/>
          </g>
          <g id="Group_12740" data-name="Group 12740">
            <path id="Path_28882" data-name="Path 28882" class="cls-12" d="M23.97,30.447c2.275.388,5.788,2.343,7.726,2.495,1.7.134,1.294,1.174,3.524.237a8.237,8.237,0,0,1,3.1-.042c2.368.328,3.367-2.842,3.66-2.607,2.052,1.65,3.565,3.157,5.679,4.85a18.093,18.093,0,0,1,3.13,2.875c.275.358.023.888.335,1.242,1.026,1.162,2.555,2.171,3.15,3.275.967,1.794,3.666,3.9,3.658,4.65-.033,3.218-5.368,7.113-9.925,10.469-5.182,3.818-12.254,4.587-18.477,3.668-4.135-.61-7.881-2.933-11.146-5.54-3.916-3.127-.72-14.64-.073-19.3.079-.568-.4-1.615-.243-1.933.839-1.759,3.065-1.426,4.152-3.756.129-.277,1.425-.607,1.75-.581Z"/>
            <path id="_1-5" data-name="1" class="cls-13" d="M23.97,30.447c2.275.388,5.788,2.343,7.726,2.495,1.7.134,1.294,1.174,3.524.237a8.237,8.237,0,0,1,3.1-.042c2.368.328,3.367-2.842,3.66-2.607,2.052,1.65,3.565,3.157,5.679,4.85a18.093,18.093,0,0,1,3.13,2.875c.275.358.023.888.335,1.242,1.026,1.162,2.555,2.171,3.15,3.275.967,1.794,3.666,3.9,3.658,4.65-.033,3.218-5.368,7.113-9.925,10.469-5.182,3.818-12.254,4.587-18.477,3.668-4.135-.61-7.881-2.933-11.146-5.54-3.916-3.127-.72-14.64-.073-19.3.079-.568-.4-1.615-.243-1.933.839-1.759,3.065-1.426,4.152-3.756.129-.277,1.425-.607,1.75-.581Z"/>
          </g>
          <g id="Group_12741" data-name="Group 12741">
            <path id="Path_28883" data-name="Path 28883" class="cls-12" d="M32.443,33.687a8.368,8.368,0,0,1-1.759-4.457,13.175,13.175,0,0,1,.378-4.509c.245-.593-.885-.3-.962-.784-.107-.679,4.268-1.681,2.829-2.179-1.174-.407,2.114-.677,2.289-.713a2.993,2.993,0,0,1,2.642.428c-.227-1.164-.616-1.148-1.065-2.139a4.938,4.938,0,0,0-.937-1.79,6.391,6.391,0,0,0-9.015-.113c-.5.432-1.914,1.419-1.591,2.092a20.6,20.6,0,0,1,.611,2.266c.2.674.31.6.28,1.092-.121,2-1.532,2.929-1.007,3.62.178.235,1.56,1.739.941,1.772-.48.026-2.193.072-1.538.9,1.414,1.785,3.05,2.1,5.093,3.041a12.873,12.873,0,0,0,2.811,1.474Z"/>
            <path id="_1-6" data-name="1" class="cls-13" d="M32.443,33.687a8.368,8.368,0,0,1-1.759-4.457,13.175,13.175,0,0,1,.378-4.509c.245-.593-.885-.3-.962-.784-.107-.679,4.268-1.681,2.829-2.179-1.174-.407,2.114-.677,2.289-.713a2.993,2.993,0,0,1,2.642.428c-.227-1.164-.616-1.148-1.065-2.139a4.938,4.938,0,0,0-.937-1.79,6.391,6.391,0,0,0-9.015-.113c-.5.432-1.914,1.419-1.591,2.092a20.6,20.6,0,0,1,.611,2.266c.2.674.31.6.28,1.092-.121,2-1.532,2.929-1.007,3.62.178.235,1.56,1.739.941,1.772-.48.026-2.193.072-1.538.9,1.414,1.785,3.05,2.1,5.093,3.041a12.873,12.873,0,0,0,2.811,1.474Z"/>
          </g>
          <g id="Group_12742" data-name="Group 12742">
            <path id="Path_28884" data-name="Path 28884" class="cls-12" d="M36.888,34.655c-4.049-2.581-8.918-4.008-13.8-5.63-.6.6-1.419,1-2.024,1.55-.157.144-.1.385-.26.542l15.571,5.54.514-2Z"/>
            <path id="_1-7" data-name="1" class="cls-17" d="M36.888,34.655c-4.049-2.581-8.918-4.008-13.8-5.63-.6.6-1.419,1-2.024,1.55-.157.144-.1.385-.26.542l15.571,5.54.514-2Z"/>
          </g>
          <g id="Group_12743" data-name="Group 12743">
            <path id="Path_28885" data-name="Path 28885" class="cls-12" d="M37.722,33.723c.047-.244.044-1.923.078-2.492a13.047,13.047,0,0,0,.037-2.46c.4-.439,1.2.186,1.2.512-.025,1.045,1.626.2,1.972.686.214.3-1.109,2.072-1.393,2.35-.4.389-1.3,1.489-1.89,1.4Z"/>
            <path id="_1-8" data-name="1" class="cls-13" d="M37.722,33.723c.047-.244.044-1.923.078-2.492a13.047,13.047,0,0,0,.037-2.46c.4-.439,1.2.186,1.2.512-.025,1.045,1.626.2,1.972.686.214.3-1.109,2.072-1.393,2.35-.4.389-1.3,1.489-1.89,1.4Z"/>
          </g>
          <g id="Group_12744" data-name="Group 12744">
            <path id="Path_28886" data-name="Path 28886" class="cls-12" d="M36.355,35.192c2.925-3.808,4.669-6.58,8.705-9.771.92.434,1.517,1.277,2.567,1.772-4.248,3.507-5.858,6.2-10.106,9.7Z"/>
            <path id="_1-9" data-name="1" class="cls-17" d="M36.355,35.192c2.925-3.808,4.669-6.58,8.705-9.771.92.434,1.517,1.277,2.567,1.772-4.248,3.507-5.858,6.2-10.106,9.7Z"/>
          </g>
          <g id="Group_12745" data-name="Group 12745">
            <path id="Path_28887" data-name="Path 28887" class="cls-12" d="M20.631,30.845a147.473,147.473,0,0,1,2.952,16.193,33.788,33.788,0,0,1,13.437,3.5c1.571,1.707,5.114.112,12.2-6.906-1.056-5.711-.9-11.652-.842-17.569-3.673,2.814-6.266,5.844-9.229,8.766.393,1.2-1.261,1.311-1.984,1.577-.631.232-1.676-.608-2.249-.731-4.943-1.063-9.343-3.764-14.285-4.827Z"/>
            <path id="_1-10" data-name="1" class="cls-18" d="M20.631,30.845a147.473,147.473,0,0,1,2.952,16.193,33.788,33.788,0,0,1,13.437,3.5c1.571,1.707,5.114.112,12.2-6.906-1.056-5.711-.9-11.652-.842-17.569-3.673,2.814-6.266,5.844-9.229,8.766.393,1.2-1.261,1.311-1.984,1.577-.631.232-1.676-.608-2.249-.731-4.943-1.063-9.343-3.764-14.285-4.827Z"/>
          </g>
          <g id="Group_12746" data-name="Group 12746">
            <path id="Path_28888" data-name="Path 28888" class="cls-16" d="M46.265,59.022c-4.973-2.144-9.553-6.6-9.281-7.833"/>
          </g>
          <g id="Group_12747" data-name="Group 12747">
            <path id="Path_28889" data-name="Path 28889" class="cls-12" d="M22.212,32.191c.523,2.154.988,4.333,1.4,6.518l7.349,2.615-1.164.789-5.7-.625c.286,1.734.538,3.465.755,5.184A30.215,30.215,0,0,1,36.868,49.8c1.4,1.526,4.574.1,10.91-6.176a44.336,44.336,0,0,1-.6-4.853l-1.993,1.306-1.2-.2c.011-.068,3.062-3.733,3.062-3.733-.09-2.729-.039-5.485-.013-8.235-3.391,2.6-5.306,5.606-7.813,7.8A8.3,8.3,0,0,1,37.3,36.86c-.617.141-1.5-.322-2.145-.461-4.275-.919-8.673-3.289-12.947-4.208Z"/>
            <path id="_1-11" data-name="1" class="cls-19" d="M22.212,32.191c.523,2.154.988,4.333,1.4,6.518l7.349,2.615-1.164.789-5.7-.625c.286,1.734.538,3.465.755,5.184A30.215,30.215,0,0,1,36.868,49.8c1.4,1.526,4.574.1,10.91-6.176a44.336,44.336,0,0,1-.6-4.853l-1.993,1.306-1.2-.2c.011-.068,3.062-3.733,3.062-3.733-.09-2.729-.039-5.485-.013-8.235-3.391,2.6-5.306,5.606-7.813,7.8A8.3,8.3,0,0,1,37.3,36.86c-.617.141-1.5-.322-2.145-.461-4.275-.919-8.673-3.289-12.947-4.208Z"/>
          </g>
          <g id="Group_12748" data-name="Group 12748">
            <path id="Path_28890" data-name="Path 28890" class="cls-12" d="M34.893,35.923A89.4,89.4,0,0,1,37.02,50.536a13.516,13.516,0,0,0,1.413.4,3.712,3.712,0,0,0,3.12-.864c-.856-5.15-1.489-9.732-2.344-14.882-.8.994-2.2,1.387-4.316.735Z"/>
            <path id="_1-12" data-name="1" class="cls-19" d="M34.893,35.923A89.4,89.4,0,0,1,37.02,50.536a13.516,13.516,0,0,0,1.413.4,3.712,3.712,0,0,0,3.12-.864c-.856-5.15-1.489-9.732-2.344-14.882-.8.994-2.2,1.387-4.316.735Z"/>
          </g>
          <g id="Group_12749" data-name="Group 12749">
            <path id="Path_28891" data-name="Path 28891" class="cls-12" d="M35.084,35.726c.994-1.648,2.35-1.405,3.936-.818a3,3,0,0,1-1.71,1.325A2.749,2.749,0,0,1,35.084,35.726Z"/>
            <path id="_1-13" data-name="1" class="cls-17" d="M35.084,35.726c.994-1.648,2.35-1.405,3.936-.818a3,3,0,0,1-1.71,1.325A2.749,2.749,0,0,1,35.084,35.726Z"/>
          </g>
          <g id="Group_12750" data-name="Group 12750">
            <path id="Path_28892" data-name="Path 28892" class="cls-12" d="M31.7,43.664c.688-2.154,2.661-2.813,2.991-5.586.1-.882,1.276.428.548,1.79-1.422,2.662-.306,1.522,1.765.777.79-.284,3.044-3.05,3.729-2.248.137.161-.55.842-.733,1.064-.234.285-2.716,2.773-2.559,2.9.539.431,2.3-1.4,2.683-2.006.963-1.549,2.265-1.143,1.762-.64-.465.465-.839,1.381-1.585,2.088a8.766,8.766,0,0,1-1.772,1.546c-.377.22-.154,1.478,2.285-.98.4-.407,1.593-1.651,1.815-.558.013.062-2.373,2.225-2.719,2.452.151.214,2.086-1.425,2.312-.317,0,0-.47.34-1.219.779-.8.47-6.709,3.644-7.484,3.454-1.309-.321-1.4-2.543-1.768-3.848a1.489,1.489,0,0,1-.051-.666Z"/>
            <path id="_1-14" data-name="1" class="cls-14" d="M31.7,43.664c.688-2.154,2.661-2.813,2.991-5.586.1-.882,1.276.428.548,1.79-1.422,2.662-.306,1.522,1.765.777.79-.284,3.044-3.05,3.729-2.248.137.161-.55.842-.733,1.064-.234.285-2.716,2.773-2.559,2.9.539.431,2.3-1.4,2.683-2.006.963-1.549,2.265-1.143,1.762-.64-.465.465-.839,1.381-1.585,2.088a8.766,8.766,0,0,1-1.772,1.546c-.377.22-.154,1.478,2.285-.98.4-.407,1.593-1.651,1.815-.558.013.062-2.373,2.225-2.719,2.452.151.214,2.086-1.425,2.312-.317,0,0-.47.34-1.219.779-.8.47-6.709,3.644-7.484,3.454-1.309-.321-1.4-2.543-1.768-3.848a1.489,1.489,0,0,1-.051-.666Z"/>
          </g>
          <g id="Group_12751" data-name="Group 12751">
            <path id="Path_28893" data-name="Path 28893" class="cls-12" d="M34.829,35.642c.1.438.2.887.3,1.325a3.968,3.968,0,0,0,4.276-.567l-.258-1.574A5.639,5.639,0,0,1,34.829,35.642Z"/>
            <path id="_1-15" data-name="1" class="cls-18" d="M34.829,35.642c.1.438.2.887.3,1.325a3.968,3.968,0,0,0,4.276-.567l-.258-1.574A5.639,5.639,0,0,1,34.829,35.642Z"/>
          </g>
          <g id="Group_12752" data-name="Group 12752">
            <path id="Path_28894" data-name="Path 28894" class="cls-20" d="M32.665,42.774l-.221.257h0l-.034-.041-.041-.036-.049-.031-.057-.025L32.2,42.88l-.073-.012-.08-.005-.086,0-.091.008-.1.015-.1.021-.1.026-.1.032L31.362,43l-.106.04-.106.044-.106.047-.1.05-.1.052-.1.054-.1.055-.094.055-.09.055-.085.055-.079.054-.073.052-.066.05-.059.047-.05.043L30,43.791l-.03.031-.017.02-.217-.263.039-.049.045-.047.052-.048.059-.05L30,43.332l.072-.054.079-.056.085-.057.09-.058.095-.058.1-.058.1-.057.106-.056.108-.055.11-.052.112-.05.113-.047.113-.043.113-.039.113-.034.112-.029.11-.023.109-.017.106-.01.1,0,.1.007.1.016.094.027.09.039.085.053.078.069.069.085h0Zm2.116,5.973-.292.067h0l-.02-.131-.024-.142-.029-.152-.034-.161-.038-.17-.042-.178-.046-.184-.05-.191-.053-.2-.056-.2-.059-.2-.062-.208-.065-.21-.067-.212-.07-.212-.072-.213-.074-.212-.075-.211-.077-.209-.078-.206-.079-.2-.08-.2-.081-.193-.081-.187L33,44.051l-.081-.174-.081-.166-.08-.157-.079-.147-.078-.137-.077-.126-.075-.114.221-.257.083.125.083.136.084.146.084.156.084.164.084.172.084.18.084.187.083.193.083.2.082.2.081.207.08.21.078.213.077.215.075.216.073.216.071.216.069.215.066.214.064.211.061.208.058.2.054.2.051.2.047.19.043.183.039.176.035.169.031.16.026.151.021.142h0Zm-2.467,1.518-.029-.384h0l.1-.013.1-.012.1-.013.1-.013.105-.013.105-.014.1-.015.1-.016.1-.017.1-.018.1-.02.1-.021.1-.023.092-.025.089-.027.085-.029.081-.032.076-.034.071-.036.066-.039.06-.041.054-.043.047-.045.041-.046.034-.047.028-.049.022-.05.016-.053.011-.056.006-.062V48.89l-.007-.076.292-.067.011.118v.115l-.01.111-.021.106-.031.1-.041.093-.049.085-.056.077-.062.07-.067.064-.072.058-.077.052-.081.047-.084.043-.088.039-.091.036-.094.033-.1.03-.1.027-.1.025-.1.023-.1.021-.105.019-.106.017-.107.016-.107.015-.107.014-.106.013-.105.013-.1.013-.1.012-.1.012h0Zm-2.577-6.686.217.263h0l.01-.016-.01.051-.012.095-.009.129-.006.158v.183l0,.205.008.225.013.242.019.256.025.268.031.278.037.285.044.29.051.292.058.293.066.29.074.285.082.278.09.269.1.257.106.242.115.226.123.207.132.185.14.162.149.138.158.112.167.084.178.055.19.025.2-.009.029.384-.241.01-.23-.03-.217-.067-.2-.1-.19-.135-.177-.163-.163-.189-.15-.211-.138-.231-.127-.248-.116-.263-.105-.275-.1-.286-.086-.294L30,47.48l-.069-.3-.061-.3-.053-.3-.046-.3-.038-.295-.032-.287-.025-.277-.019-.265-.014-.251-.008-.234,0-.216v-.2l.006-.173.011-.15.016-.127.023-.109.05-.111h0Z"/>
            <path id="_1-16" data-name="1" class="cls-21" d="M29.847,43.71c.245-.341,2.2-1.54,2.708-.808a19.458,19.458,0,0,1,2.081,5.878c.146,1.068-1.268,1.158-2.335,1.292-2.437.306-2.684-6.043-2.454-6.362Z"/>
          </g>
          <g id="Group_12753" data-name="Group 12753">
            <path id="Path_28895" data-name="Path 28895" class="cls-12" d="M36.936,49.4c.034.438.044.9.084,1.137a2.447,2.447,0,0,0,2.007.743,4.634,4.634,0,0,0,2.526-1.21c-.086-.525-.12-.684-.206-1.209A4.2,4.2,0,0,1,39.433,50.3a3.882,3.882,0,0,1-2.5-.9Z"/>
            <path id="_1-17" data-name="1" class="cls-18" d="M36.936,49.4c.034.438.044.9.084,1.137a2.447,2.447,0,0,0,2.007.743,4.634,4.634,0,0,0,2.526-1.21c-.086-.525-.12-.684-.206-1.209A4.2,4.2,0,0,1,39.433,50.3a3.882,3.882,0,0,1-2.5-.9Z"/>
          </g>
          <g id="Group_12754" data-name="Group 12754">
            <path id="Path_28896" data-name="Path 28896" class="cls-12" d="M40.059,61.327c-1.62-3.079-4.685-5.139-6.305-8.218a30.688,30.688,0,0,1-3.483-10.133c-.1-.377-1.541.248-2.129.573-.423.234-.485.015-.958.167-.561.18-1.053.919-1.535,1.3q-.352.277-.695.528c-.4.292-.412.195-.838.39-.113.052-1.258-.392-1.738-.058-3.413,2.372-4.681,9.946-3.607,10.757,5.657,4.552,12.737,6.007,21.287,4.7Z"/>
            <path id="_1-18" data-name="1" class="cls-13" d="M40.059,61.327c-1.62-3.079-4.685-5.139-6.305-8.218a30.688,30.688,0,0,1-3.483-10.133c-.1-.377-1.541.248-2.129.573-.423.234-.485.015-.958.167-.561.18-1.053.919-1.535,1.3q-.352.277-.695.528c-.4.292-.412.195-.838.39-.113.052-1.258-.392-1.738-.058-3.413,2.372-4.681,9.946-3.607,10.757,5.657,4.552,12.737,6.007,21.287,4.7Z"/>
          </g>
          <g id="Group_12755" data-name="Group 12755">
            <path id="Path_28897" data-name="Path 28897" class="cls-12" d="M36.142,37.714a.309.309,0,1,1-.309.309A.309.309,0,0,1,36.142,37.714Z"/>
            <path id="_1-19" data-name="1" class="cls-18" d="M36.142,37.714a.309.309,0,1,1-.309.309A.309.309,0,0,1,36.142,37.714Z"/>
          </g>
          <g id="Group_12756" data-name="Group 12756">
            <path id="Path_28898" data-name="Path 28898" class="cls-12" d="M39.059,37.251a.309.309,0,1,1-.309.309A.309.309,0,0,1,39.059,37.251Z"/>
            <path id="_1-20" data-name="1" class="cls-18" d="M39.059,37.251a.309.309,0,1,1-.309.309A.309.309,0,0,1,39.059,37.251Z"/>
          </g>
          <g id="Group_12757" data-name="Group 12757">
            <path id="Path_28899" data-name="Path 28899" class="cls-12" d="M37.626,48.612a.309.309,0,1,1-.309.309A.309.309,0,0,1,37.626,48.612Z"/>
            <path id="_1-21" data-name="1" class="cls-18" d="M37.626,48.612a.309.309,0,1,1-.309.309A.309.309,0,0,1,37.626,48.612Z"/>
          </g>
          <g id="Group_12758" data-name="Group 12758">
            <path id="Path_28900" data-name="Path 28900" class="cls-12" d="M40.761,48.077a.309.309,0,1,1-.309.309A.309.309,0,0,1,40.761,48.077Z"/>
            <path id="_1-22" data-name="1" class="cls-18" d="M40.761,48.077a.309.309,0,1,1-.309.309A.309.309,0,0,1,40.761,48.077Z"/>
          </g>
          <g id="Group_12759" data-name="Group 12759">
            <path id="Path_28901" data-name="Path 28901" class="cls-12" d="M48.736,43.355c-2.06,0-.453-.5-2.279.815-1.158.836-1.639,1.005-1.389,2.789.021.152-1.032.672-1.562,1.377-.4.537.854.9,1.806.523.559.164.466.82,1.371.175,0,0,.694.8,1.631-.517.13-.183.759.47,1.677-1.05.275-.455.628-1.252.851-1.578.4-.593.508-.574-.478-1.671a7.553,7.553,0,0,0-1.628-.864Z"/>
            <path id="_1-23" data-name="1" class="cls-14" d="M48.736,43.355c-2.06,0-.453-.5-2.279.815-1.158.836-1.639,1.005-1.389,2.789.021.152-1.032.672-1.562,1.377-.4.537.854.9,1.806.523.559.164.466.82,1.371.175,0,0,.694.8,1.631-.517.13-.183.759.47,1.677-1.05.275-.455.628-1.252.851-1.578.4-.593.508-.574-.478-1.671a7.553,7.553,0,0,0-1.628-.864Z"/>
          </g>
          <g id="Group_12760" data-name="Group 12760">
            <path id="Path_28902" data-name="Path 28902" class="cls-12" d="M54.081,53.139c.321-.618-.974-2.573-1.153-3.231a32.968,32.968,0,0,0-3.505-5.588c-.4-.376-2.172-1.458-1.06-1.646.535-.091.087-.425.867-.758.13-.056-.1-.4.278-.443.161-.312,2.324.242,2.914.753,1.353,1.172,3.716,3.245,4.7,5.109a4.217,4.217,0,0,1,.379.956c.112.459-1.665,3.509-2.519,4.007-.028.016-.914.861-.9.84Z"/>
            <path id="_1-24" data-name="1" class="cls-13" d="M54.081,53.139c.321-.618-.974-2.573-1.153-3.231a32.968,32.968,0,0,0-3.505-5.588c-.4-.376-2.172-1.458-1.06-1.646.535-.091.087-.425.867-.758.13-.056-.1-.4.278-.443.161-.312,2.324.242,2.914.753,1.353,1.172,3.716,3.245,4.7,5.109a4.217,4.217,0,0,1,.379.956c.112.459-1.665,3.509-2.519,4.007-.028.016-.914.861-.9.84Z"/>
          </g>
          <g id="Group_12761" data-name="Group 12761">
            <path id="Path_28903" data-name="Path 28903" class="cls-20" d="M40.537,54.072l-.078-.37h0l.047-.018.045-.022.044-.025.042-.029.041-.032.039-.035.038-.038.036-.041.035-.044.033-.047.032-.05.03-.053.028-.055.027-.058.025-.06.023-.063.021-.065.019-.067.017-.069.015-.071.012-.072.01-.074.008-.075.005-.077,0-.078v-.079l0-.08,0-.08-.007-.081-.01-.081L41.1,51.9l-.016-.082.287-.1.018.1.015.1.012.1.009.1.006.1,0,.1V52.4l0,.094-.006.092-.009.091-.012.09-.015.088-.018.087-.021.085-.023.083-.026.081-.029.079-.031.077-.034.074-.037.071-.039.069-.042.065-.044.062-.047.059-.049.055-.052.052-.054.048-.056.044-.058.039-.06.035-.062.03-.064.025h0Zm-1.624-1.49.287-.1h0l.018.081.02.079.023.077.025.075.027.073.029.07.031.068.032.065.034.063.036.06.037.057.038.054.04.051.041.048.042.045.043.042.044.039.044.036.045.033.046.029.046.026.047.022.047.019.047.015.047.012.047.008.047,0h.048l.047,0,.047-.007.047-.011.047-.015.078.37-.065.02-.065.015-.066.009-.066,0H40.21l-.065-.006L40.08,54.1l-.064-.016-.063-.02-.062-.025-.061-.029-.06-.034-.059-.038-.058-.042-.057-.046L39.54,53.8l-.054-.053-.052-.057-.051-.06-.049-.063-.047-.067-.045-.07L39.2,53.36l-.041-.076-.039-.079-.037-.082-.034-.084-.032-.087-.03-.089-.027-.092-.024-.094-.021-.1h0Zm.831-2.35.078.37h0l-.047.018-.045.022-.044.025-.042.029-.041.032-.039.035-.038.038-.037.041-.035.044-.033.047-.032.05-.03.053-.028.055-.027.058-.025.06-.023.063-.021.065-.019.067-.017.069-.015.071-.012.072-.01.074-.008.075-.005.077,0,.078V52l0,.08,0,.08.007.081.01.081.013.082.016.082-.287.1-.018-.1-.015-.1-.012-.1-.009-.1-.006-.1,0-.1v-.095l0-.094.006-.092.009-.091.012-.09.015-.088.018-.087.021-.085.023-.083.026-.081.029-.079.031-.077.034-.074.037-.071.039-.069.042-.065.044-.062.047-.059.049-.055.052-.052.054-.048.056-.044.058-.039.06-.035.062-.03.064-.025h0Zm1.624,1.49-.287.1h0l-.018-.081-.02-.079-.023-.077L41,51.508l-.027-.073-.029-.07-.031-.068-.032-.065-.034-.063-.036-.06-.037-.057L40.732,51l-.04-.051-.041-.048-.042-.045-.043-.042-.044-.039-.044-.036-.045-.033-.046-.029-.046-.026-.047-.022-.047-.019-.047-.015-.047-.012-.047-.008-.047,0h-.048l-.047,0-.047.007-.047.011-.047.015-.078-.37.065-.02.065-.015.066-.009.066,0h.065l.065.006.065.011.064.016.063.02.062.025.061.029.06.034.059.038.058.042.057.046.055.049.054.053.052.057.051.06.049.063.047.067.045.07.043.073.041.076.039.079.037.082.034.084.032.087.03.089.027.092.024.094.021.1h0Zm-.71,2.938-.078-.37h0l.065-.026.063-.031.061-.035.059-.04.057-.045.055-.049.053-.053.051-.058.049-.062.047-.066.044-.069.042-.073.039-.077.037-.08.034-.083.032-.086.029-.089.026-.092.023-.095.02-.1.017-.1.014-.1.011-.1.007-.105,0-.107v-.108l0-.109-.006-.11-.01-.111-.014-.112L41.47,51.8l-.021-.113.287-.1.024.128.02.128.016.127.012.127.007.126,0,.125v.124l0,.123-.008.121-.012.119-.016.118-.02.116-.023.113-.027.111-.031.108-.034.106-.038.1-.041.1-.044.1-.048.093-.051.089-.054.085-.057.081-.061.076-.064.072-.067.067-.07.062-.073.057-.075.051-.078.045-.08.039-.083.033h0ZM38.546,52.71l.287-.1h0l.025.111.028.108.031.106.034.1.037.1.039.1.042.093.044.09.047.086.049.082.051.079.053.075.055.071.056.067.058.063L39.54,54l.06.054.062.05.063.045.063.04.064.036.065.031.065.026.066.021.066.016.066.011.067.006h.067l.067,0,.067-.009.066-.015.066-.02.078.37-.084.026-.085.019-.085.012-.085.005h-.085l-.084-.008-.084-.014-.083-.02L39.9,54.65l-.081-.032-.08-.038-.078-.044-.077-.049-.075-.054-.074-.059-.072-.064-.07-.069-.068-.074-.066-.078L39.1,54l-.061-.087-.059-.091-.056-.1-.054-.1-.051-.1-.048-.107-.045-.11L38.68,53.2l-.039-.117-.035-.12-.032-.123-.028-.126h0Zm1.077-3.067.078.37h0l-.065.026-.063.031-.061.035-.059.04-.057.045-.055.049-.053.053-.051.058-.049.062-.047.066-.044.07-.042.073-.039.077-.037.08-.034.083-.032.086-.029.089-.026.092-.023.095-.02.1-.017.1-.014.1-.011.1-.007.105,0,.107v.108l0,.109.006.11.01.111.014.112.017.112.021.113-.287.1-.024-.128-.02-.128-.016-.127-.012-.127-.007-.126,0-.125v-.124l0-.123.008-.121.012-.119.016-.118.02-.116.023-.113.027-.111.031-.108.034-.106.038-.1.041-.1.044-.1.048-.093.051-.089.054-.085.057-.081.061-.076L39.1,50l.067-.067.07-.062.072-.057.075-.051.078-.045.08-.039.083-.033h0Zm2.112,1.949-.287.1h0l-.025-.111-.028-.108-.031-.106-.034-.1-.037-.1-.039-.1-.042-.093-.044-.09-.047-.086-.049-.082-.051-.079-.053-.075-.055-.071-.056-.067-.058-.063-.059-.058-.06-.054-.062-.05-.063-.045-.063-.04-.064-.036-.065-.031-.065-.026L40.233,50l-.066-.016-.066-.011-.067-.006h-.067l-.067,0-.067.009-.066.015-.066.02-.078-.37.084-.026.085-.019.085-.012.085-.005h.085l.084.008.083.014.083.02.082.027.081.032.08.038.078.044.077.049.075.054.074.059.072.064.07.069.068.074.066.078.064.083.061.087.059.091.056.1.054.1.051.1.048.107.045.11.042.114.039.117.035.12.032.123.028.126h0Z"/>
            <path id="_1-25" data-name="1" class="cls-21" d="M41.225,51.771c.2.958-.128,1.906-.727,2.116s-1.244-.4-1.442-1.354.128-1.906.727-2.116S41.027,50.812,41.225,51.771Zm.367-.129c.264,1.283-.171,2.551-.973,2.832s-1.665-.53-1.93-1.813.171-2.551.973-2.832S41.328,50.359,41.592,51.642Z"/>
          </g>
          <g id="Group_12762" data-name="Group 12762">
            <path id="Path_28904" data-name="Path 28904" class="cls-12" d="M39.129,49.009l-.509-.015-.17-.478.787-.586,1.142.339L41.151,51l-.91.448-1.034.062Z"/>
            <path id="_1-26" data-name="1" class="cls-18" d="M39.129,49.009l-.509-.015-.17-.478.787-.586,1.142.339L41.151,51l-.91.448-1.034.062Z"/>
          </g>
          <g id="Group_12763" data-name="Group 12763">
            <path id="Path_28905" data-name="Path 28905" class="cls-20" d="M41.17,58.871l-.078-.37h0l.047-.018.045-.022.044-.025.042-.029.041-.032.039-.035.038-.038.036-.041.035-.044.033-.047.032-.05.03-.053.028-.055.027-.058.025-.06.023-.063.021-.065L41.7,57.7l.017-.069.015-.071.012-.072.01-.074.008-.075.005-.077,0-.078v-.079l0-.08,0-.08-.007-.081-.01-.081L41.73,56.7l-.016-.082.287-.1.018.1.015.1.012.1.009.1.006.1,0,.1v.095l0,.094-.006.092-.009.091-.012.09-.015.088L42,57.737l-.021.085-.023.083-.026.081-.029.079-.031.077-.034.074-.037.071-.039.069-.042.065-.044.062-.047.059-.049.055-.052.052-.054.048-.056.044-.058.039-.06.035-.062.03-.064.025h0Zm-1.624-1.49.287-.1h0l.018.081.02.079.023.077.025.075.027.073.029.07.031.068.032.065.034.063.036.06.037.057.038.054.04.051.041.048.042.045.043.042.044.039.044.036.045.033.046.029.046.026.047.022.047.019.047.015.047.012.047.008.047,0H40.9l.047,0L41,58.526l.047-.011.047-.015.078.37-.065.02-.065.015-.066.009-.066,0h-.065l-.065-.006-.065-.011-.064-.016-.063-.02-.062-.025-.061-.029-.06-.034-.059-.038-.058-.042-.057-.046-.055-.049-.054-.053-.052-.057-.051-.06-.049-.063L39.92,58.3l-.045-.07-.043-.073-.041-.076-.039-.079-.037-.082-.034-.084-.032-.087-.03-.089-.027-.092-.024-.094-.021-.1h0Zm.831-2.35.078.37h0l-.047.018-.045.022-.044.025-.042.029-.041.032-.039.035-.038.038-.036.041-.035.044-.033.047-.032.05-.03.053-.028.055-.027.058-.025.06-.023.063-.021.065-.019.067-.017.069-.015.071-.012.072-.01.074-.008.075-.005.077,0,.078V56.8l0,.08,0,.08.007.081.01.081.013.082.016.082-.287.1-.018-.1-.015-.1-.012-.1-.009-.1-.006-.1,0-.1v-.095l0-.094.006-.092.009-.091.012-.09.015-.088.018-.087.021-.085L39.592,56l.026-.081.029-.079.031-.077.034-.074.037-.071.039-.069.042-.065.044-.062.047-.059.049-.055.052-.052.054-.048.056-.044.058-.039.06-.035.062-.03.064-.025h0ZM42,56.521l-.287.1h0l-.018-.081-.02-.079-.023-.077-.025-.075-.027-.073-.029-.07-.031-.068-.032-.065-.034-.063-.036-.06-.037-.057-.038-.054-.04-.051-.041-.048-.042-.045L41.2,55.61l-.044-.039-.044-.036-.045-.033-.046-.029-.046-.026-.047-.022-.047-.019-.047-.015-.047-.012-.047-.008-.047,0h-.048l-.047,0-.047.007-.047.011-.047.015-.078-.37.065-.02L40.508,55l.066-.009.066,0H40.7l.065.006.065.011.064.016.063.02.062.025.061.029.06.034.059.038.058.042.057.046.055.049.054.053.052.057.051.06.049.063.047.067.045.07.043.073.041.076.039.079.037.082.034.084.032.087.03.089.027.092.024.094.021.1h0Zm-.71,2.938-.078-.37h0l.065-.026.063-.031L41.4,59l.059-.04.057-.045.055-.049.053-.053.051-.058.049-.062.047-.066.044-.069.042-.073L41.9,58.4l.037-.08.034-.083L42,58.155l.029-.089.026-.092.023-.095.02-.1.017-.1.014-.1.011-.1.007-.105,0-.107v-.108l0-.109-.006-.11-.01-.111-.014-.112L42.1,56.6l-.021-.113.287-.1.024.128.02.128.016.127.012.127.007.126,0,.125v.124l0,.123-.008.121-.012.119-.016.118-.02.116-.023.113-.027.111-.031.108-.034.106-.038.1-.041.1-.044.1L42.1,58.7l-.051.089L42,58.876l-.057.081-.061.076-.064.072-.067.067-.07.062-.073.057-.075.051-.078.045-.08.039-.083.033h0ZM39.179,57.51l.287-.1h0l.025.111.028.108.031.106.034.1.037.1.039.1.042.093.044.09.047.086.049.082.051.079.053.075L40,58.61l.056.067.058.063.059.058.06.054.062.05.063.045.063.04.064.036.065.031.065.026.066.021.066.016.066.011.067.006h.067l.067,0,.067-.009.066-.015.066-.02.078.37-.084.026-.085.019-.085.012-.085.005h-.085l-.084-.008L40.7,59.5l-.083-.02-.082-.027-.081-.032-.08-.038-.078-.044-.077-.049-.075-.054-.074-.059L40,59.109l-.07-.069-.068-.074-.066-.078L39.73,58.8l-.061-.087-.059-.091-.056-.1-.054-.1-.051-.1-.048-.107-.045-.11L39.313,58l-.039-.117-.035-.12-.032-.123-.028-.126h0Zm1.077-3.067.078.37h0l-.065.026-.063.031-.061.035-.059.04-.057.045-.055.049-.053.053-.051.058-.049.062-.047.066-.044.07-.042.073-.039.077-.037.08-.034.083-.032.086-.029.089-.026.092-.023.095-.02.1-.017.1-.014.1-.011.1-.007.105,0,.107v.108l0,.109.006.11.01.111.014.112.017.112.021.113-.287.1-.024-.128-.02-.128-.016-.127L39.108,57l-.007-.126,0-.125v-.124l0-.123.008-.121.012-.119.016-.118.02-.116.023-.113.027-.111.031-.108.034-.106.038-.1.041-.1.044-.1.048-.093.051-.089.054-.085.057-.081.061-.076.064-.072.067-.067.07-.062.072-.057.075-.051.078-.045.08-.039.083-.033h0Zm2.112,1.949-.287.1h0l-.025-.111-.028-.108L42,56.165l-.034-.1-.037-.1-.039-.1-.042-.093-.044-.09-.047-.086-.049-.082-.051-.079-.053-.075-.055-.071-.056-.067-.058-.063-.059-.058-.06-.054L41.252,55l-.063-.045-.063-.04-.064-.036L41,54.847l-.065-.026-.066-.021-.066-.016-.066-.011-.067-.006H40.6l-.067,0-.067.009-.066.015-.066.02-.078-.37.084-.026.085-.019.085-.012.085-.005h.085l.084.008.084.014.083.02.082.027.081.032.08.038.078.044.077.049.075.054.074.059.072.064.07.069.068.074.066.078.064.083.061.087.059.091.056.1.054.1.051.1.048.107.045.11.042.114.039.117.035.12.032.123.028.126h0Z"/>
            <path id="_1-27" data-name="1" class="cls-21" d="M41.858,56.57c.2.958-.128,1.906-.727,2.116s-1.244-.4-1.442-1.354.128-1.906.727-2.116S41.66,55.612,41.858,56.57Zm.367-.129c.264,1.283-.171,2.551-.973,2.832s-1.665-.53-1.93-1.813.171-2.551.973-2.832,1.665.53,1.93,1.813Z"/>
          </g>
          <g id="Group_12764" data-name="Group 12764">
            <path id="Path_28906" data-name="Path 28906" class="cls-20" d="M41.892,61.2l-.076-.371h0l.035-.011.035-.01.035-.009.034-.007.034-.006.033-.005.033,0,.032,0,.032,0,.031,0h.316l-.011,0-.023.014-.036.04-.029.081,0,.079.287-.1,0,.091-.033.09-.043.048-.034.02-.025.009-.021,0-.018,0h-.322l-.026,0-.027,0-.027,0-.027,0-.027,0-.027,0-.027.006-.027.007-.027.008-.027.009h0Zm-1.625.1.287-.1h0l.006.025.006.017.006.011.006.007.007.006.009.006.013.006.018,0,.023,0h.028l.032,0,.036-.006.039-.009.042-.012.045-.014.047-.017.049-.019.051-.021.053-.023.054-.025.055-.026.056-.027.057-.028.057-.028L41.408,61l.058-.028.059-.027.059-.027.059-.026.059-.024.058-.023.058-.021.076.371-.051.018-.053.021-.054.022-.055.024-.056.025-.056.026-.057.027-.057.028-.057.028-.057.028-.057.028-.057.027-.057.026-.056.025-.056.023L41,61.6l-.054.02-.054.017-.053.015-.053.012-.052.008-.052,0h-.051l-.051-.007-.051-.014-.05-.022-.049-.032-.045-.043-.04-.053-.033-.061-.026-.067-.019-.072h0Zm.836-1.326.078.37h0l-.057.02-.055.018-.053.017-.051.016-.049.015-.046.014-.044.014-.041.013-.038.013-.035.013-.032.013-.029.014-.026.014-.022.014-.019.014-.016.014-.013.014-.01.013-.009.014-.008.015-.007.017-.006.021-.005.026,0,.031,0,.037v.043l0,.049,0,.056.007.062.01.069.013.075.016.082-.287.1-.018-.092-.015-.087-.012-.082-.009-.078-.006-.074,0-.071v-.068l0-.066.008-.063.012-.061.017-.058.021-.055.025-.051.029-.046.032-.041.035-.036.036-.032.038-.028.039-.024.04-.021.041-.019.042-.017.043-.016.044-.015.045-.014.046-.014.047-.014.048-.015.05-.015L41,60.009l.052-.017.053-.018h0Zm1.554.912-.287.1h0l-.018-.079-.019-.073-.021-.067L42.29,60.7l-.024-.057-.025-.052-.026-.047-.027-.043-.028-.039-.029-.035L42.1,60.4l-.031-.028-.032-.025L42,60.328l-.035-.019-.036-.017-.038-.014-.039-.012-.041-.009-.042-.007-.044,0-.045,0h-.046l-.047,0-.048.005-.049.007-.05.009-.051.011-.052.013-.052.015-.053.017-.053.018-.078-.37.059-.02.059-.018.059-.017.059-.015.059-.013.058-.011.058-.009.058-.006.058,0h.058l.057,0,.057.005.057.009.056.012.055.016.055.02.054.025.053.029.051.034.05.038.048.043.046.048.044.053.042.058.04.063.037.067.035.072.032.077.029.081.027.086.024.091.022.1h0ZM39.98,61.8l.26-.186-.16-.095.008,0,.023-.006.038-.01.051-.014.064-.017.075-.02.085-.023.094-.025.1-.027.11-.029.116-.031.121-.032.125-.033.128-.034.13-.035.131-.035.131-.035.13-.035.128-.034L42,61.009l.121-.032.116-.031.11-.029.1-.027.094-.025.085-.023.075-.02.064-.017.051-.014.038-.01.023-.006.008,0,.06.376-.008,0-.023.006-.038.01-.051.014-.064.017-.075.02-.085.023-.094.025-.1.027-.11.029-.116.031-.121.032-.125.033-.128.034-.13.035-.131.035-.131.035-.13.035-.128.034-.125.033-.121.032-.116.031-.11.029-.1.027-.094.025-.085.023-.075.02-.064.017-.051.014-.038.01-.023.006-.008,0-.16-.095Zm1-2.416.078.37h0l-.071.026-.07.028-.068.03-.066.032-.064.034-.062.036-.06.038-.057.04-.055.042-.052.044-.049.046-.046.047-.042.049-.039.051-.035.052-.032.054-.028.055-.025.057-.021.059-.017.061-.014.063-.01.065-.006.068,0,.072,0,.075.007.079.012.083.018.087.023.091.029.095.035.1.042.1-.26.186-.048-.119-.042-.117-.035-.115-.029-.113-.023-.111-.016-.109-.01-.106,0-.1,0-.1.009-.1.014-.1.02-.093.026-.089.031-.086.035-.082.04-.078.044-.074.048-.071.051-.067.055-.063.058-.06.06-.056.063-.053.065-.05.068-.047.07-.044.071-.042.073-.039.075-.036.076-.034.077-.031.078-.029h0Zm1.962,1.76-.06-.376-.117.166.006-.107v-.1l-.007-.093-.013-.087-.018-.082-.023-.076-.028-.072-.033-.068-.038-.064-.042-.06-.047-.056-.051-.053-.055-.049-.059-.045-.062-.042-.066-.038-.069-.034-.071-.03-.073-.026-.075-.022-.076-.018-.077-.014-.077-.01-.078-.007-.077,0H41.48l-.075,0-.074.008-.072.011-.069.014-.067.017-.063.02-.078-.37.076-.024.079-.021.081-.017.083-.013.085-.009.086,0h.087l.088,0,.089.008.089.012.088.016.088.021.087.026.086.031.085.036.083.041.081.046.078.052.075.058.072.064.068.07.064.077.059.084.054.09.048.1.041.1.034.11.026.116.018.122.009.128v.133l-.008.138-.117.166Z"/>
            <path id="_1-28" data-name="1" class="cls-21" d="M42.513,60.936c.014.066-.328-.038-.659.076-.576.2-1.331.79-1.444.239-.2-.958.132-.881.731-1.091S42.316,59.977,42.513,60.936Zm.4.023-2.8.75a1.431,1.431,0,0,1,.911-2.138A1.359,1.359,0,0,1,42.913,60.959Z"/>
          </g>
          <g id="Group_12765" data-name="Group 12765">
            <path id="Path_28907" data-name="Path 28907" class="cls-20" d="M41.208,60.527l.135-.358h0l-.013,0-.018,0H41.29l-.021,0-.017.007-.013.008-.007.007,0,0h0l0,0,0-.007,0-.011,0-.014.005-.017,0-.02,0-.022,0-.025,0-.027,0-.029,0-.031,0-.033,0-.035v-.156l0-.043,0-.044,0-.045,0-.046,0-.047-.006-.048.379-.045.006.054.005.053,0,.052,0,.051,0,.05,0,.049v.184l0,.043,0,.042,0,.04,0,.039-.006.038-.007.037-.007.036-.009.034-.01.033-.011.032-.013.032-.015.031-.018.03-.021.03-.026.029-.031.027-.037.024-.043.019-.047.011-.049,0-.047-.006-.043-.013Zm-.539-1.264.379-.045h0l.006.049.007.048.008.048.008.047.009.047.009.046.01.045.01.045.011.044.011.043.011.042.012.04.012.039.012.038.013.036.013.035.013.033.013.032.013.03.013.028.013.026.013.024.012.021.012.019.011.016.01.013.009.01.007.007,0,0h0l0,0-.008,0-.135.358-.038-.018-.034-.021-.03-.023-.027-.025-.024-.026-.023-.027-.021-.029-.02-.03-.019-.031-.019-.032-.018-.034-.017-.035L40.9,60.16l-.016-.038-.016-.039-.016-.04L40.837,60l-.015-.043-.014-.044-.014-.045-.013-.046-.013-.047-.012-.048-.012-.049-.011-.05-.011-.051-.01-.051-.01-.052-.009-.053-.008-.053-.008-.054-.007-.054h0ZM41.1,58.18l-.135.358h0l.013,0,.018,0h.021l.021,0,.017-.007.013-.008.007-.007,0,0h0l0,0,0,.007,0,.011,0,.014-.005.017,0,.02,0,.022,0,.025,0,.027,0,.029,0,.031,0,.033,0,.035v.156l0,.043,0,.044,0,.045,0,.046,0,.047.006.048-.379.045-.006-.054-.005-.053,0-.052,0-.051,0-.05,0-.049v-.184l0-.043,0-.042,0-.04,0-.039.006-.038.007-.037.007-.036.009-.034.01-.033.011-.032.013-.032.015-.031.018-.03.021-.03.026-.029.031-.027.037-.024.043-.019.047-.011.049,0,.047.006.043.013h0Zm.539,1.264-.379.045h0l-.006-.049-.007-.048-.008-.048-.008-.047-.009-.047-.009-.046-.01-.045-.01-.045-.011-.044-.011-.043-.011-.042-.012-.04-.012-.039-.012-.038-.013-.036-.013-.035-.013-.033-.013-.032-.013-.03-.013-.028-.013-.026-.013-.024L41,58.6l-.012-.019-.011-.016-.01-.013-.009-.01-.007-.007,0,0h0l0,0,.008,0,.135-.358.038.018.034.021.03.023.027.025.024.026.023.027.021.029.02.03.019.031.019.032.018.034.017.035.017.037.016.038.016.039.016.04.015.042.015.043.014.044.014.045.013.046.013.047.012.048.012.049.011.05.011.051.01.051.01.052.009.053.008.053.008.054.007.054h0Z"/>
            <path id="_1-29" data-name="1" class="cls-21" d="M41.446,59.466c.068.549-.009.944-.171.881s-.349-.558-.416-1.107.009-.944.171-.881.349.558.416,1.107Z"/>
          </g>
          <g id="Group_12766" data-name="Group 12766">
            <path id="Path_28908" data-name="Path 28908" class="cls-20" d="M35.084,53.215l-.078-.37h0l.047-.018L35.1,52.8l.044-.025.042-.029.041-.032.039-.035.038-.038.037-.041.035-.044.033-.047.032-.05.03-.053.028-.055.027-.058.025-.06.023-.063.021-.065.019-.067.017-.069.015-.071.012-.072.01-.074.008-.075.005-.077,0-.078v-.079l0-.08,0-.08-.007-.081-.01-.081-.013-.082-.016-.082.287-.1.018.1.015.1.012.1.009.1.006.1,0,.1v.095l0,.094-.006.092-.009.091-.012.09-.015.088-.018.087-.021.085-.023.083-.026.081-.029.079-.031.077-.034.074-.037.071-.039.069-.042.065-.044.062-.047.059-.049.055-.052.052-.054.048-.056.044-.058.039-.06.035-.062.03-.064.025h0Zm-1.624-1.49.287-.1h0l.018.081.02.079.023.077.025.075.027.073.029.07.031.068.032.065.034.063.036.06.037.057.038.054.04.051.041.048.042.045.043.042.044.039.044.036.045.033.046.029.046.026.047.022.047.019.047.015.047.012.047.008.047,0h.048l.047,0,.047-.007.047-.011.047-.015.078.37-.065.02-.065.015-.066.009-.066,0h-.065l-.065-.006-.065-.011-.064-.016-.063-.02-.062-.025-.061-.029-.06-.034-.059-.038-.058-.042L34.141,53l-.055-.049-.054-.053-.052-.057-.051-.06-.049-.063-.047-.067-.045-.07-.043-.073-.041-.076-.039-.079-.037-.082-.034-.084-.032-.087-.03-.089-.027-.092-.024-.094-.021-.1h0Zm.831-2.35.078.37h0l-.047.018-.045.022-.044.025-.042.029-.041.032-.039.035-.038.038-.036.041L34,50.029l-.033.047-.032.05-.03.053-.028.055-.027.058-.025.06-.023.063-.021.065-.019.067-.017.069-.015.071-.012.072-.01.074-.008.075-.005.077,0,.078v.079l0,.08,0,.08.007.081.01.081.013.082.016.082-.287.1-.018-.1-.015-.1-.012-.1-.009-.1-.006-.1,0-.1V51.05l0-.094.006-.092.009-.091.012-.09.015-.088.018-.087.021-.085.023-.083.026-.081.029-.079.031-.077.034-.074.037-.071.039-.069.042-.065.044-.062.047-.059.049-.055.052-.052.054-.048.056-.044.058-.039.06-.035.062-.03.064-.025h0Zm1.624,1.49-.287.1h0l-.018-.081-.02-.079-.023-.077-.025-.075-.027-.073-.029-.07-.031-.068-.032-.065-.034-.063-.036-.06-.037-.057-.038-.054-.04-.051-.041-.048L35.157,50l-.043-.042-.044-.039-.044-.036-.045-.033-.046-.029-.046-.026-.047-.022-.047-.019-.047-.015-.047-.012-.047-.008-.047,0h-.048l-.047,0-.047.007-.047.011-.047.015-.078-.37.065-.02.065-.015.066-.009.066,0h.065l.065.006.065.011.064.016.063.02.062.025.061.029.06.034.059.038.058.042.057.046.055.049.054.053.052.057.051.06.049.063.047.067.045.07.043.073.041.076.039.079.037.082.034.084.032.087.03.089.027.092.024.094.021.1h0ZM35.2,53.8l-.078-.37h0l.065-.026.063-.031.061-.035.059-.04.057-.045.055-.049.053-.053.051-.058.049-.062.047-.066.044-.07.042-.073.039-.077.037-.08.034-.083.032-.086.029-.089.026-.092.023-.095.02-.1.017-.1.014-.1.011-.1.007-.105,0-.107V51.5l0-.109-.006-.11-.01-.111-.014-.112-.017-.112-.021-.113.287-.1.024.128.02.128.016.127.012.127.007.126,0,.125v.124l0,.123-.008.121-.012.119-.016.118-.02.116-.023.113-.027.111-.031.108-.034.106-.038.1-.041.1-.044.1-.048.093-.051.089-.054.085-.057.081-.061.076-.064.072-.067.067-.07.062-.073.057-.075.051-.078.045-.08.039L35.2,53.8h0Zm-2.112-1.949.287-.1h0l.025.111.028.108.031.106.034.1.037.1.039.1.042.093.044.09.047.086.049.082.051.079.053.075.055.071.056.067.058.063.059.058.06.054.062.05.063.045.063.04.064.036.065.031.065.026.066.021.066.016.066.011.067.006h.067l.067,0,.067-.009.066-.015.066-.02.078.37-.084.026-.085.019-.085.012-.085.005h-.085l-.084-.008-.083-.014-.083-.02-.082-.027-.081-.032-.08-.038-.078-.044-.077-.049-.075-.054-.074-.059-.072-.064-.07-.069-.068-.074-.066-.078-.064-.083-.061-.087-.059-.091-.056-.1-.054-.1-.051-.1-.048-.107-.045-.11-.042-.114-.039-.117-.035-.12-.032-.123-.028-.126h0Zm1.077-3.067.078.37h0l-.065.026-.063.031-.061.035-.059.04-.057.045-.055.049-.053.053-.051.058-.049.062-.047.066-.044.07-.042.073-.039.077-.037.08L33.49,50l-.032.086-.029.089-.026.092-.023.095-.02.1-.017.1-.014.1-.011.1-.007.105,0,.107v.108l0,.109.006.11.01.111.014.112.017.112.021.113-.287.1-.024-.128-.02-.128-.016-.127-.012-.127-.007-.126,0-.125v-.124l0-.123.008-.121.012-.119.016-.118.02-.116.023-.113.027-.111.031-.108.034-.106.038-.1.041-.1.044-.1.048-.093.051-.089.054-.085.057-.081.061-.076.064-.072.067-.067.07-.062.073-.057.075-.051.078-.045.08-.039.083-.033h0Zm2.112,1.949-.287.1h0l-.025-.111-.028-.108-.031-.106-.034-.1-.037-.1-.039-.1-.042-.093-.044-.09-.047-.086-.049-.082-.051-.079-.053-.075-.055-.071-.056-.067-.058-.063-.059-.058-.06-.054-.062-.05L35.1,49.3l-.063-.04-.064-.036-.065-.031-.065-.026-.066-.021-.066-.016-.066-.011-.067-.006h-.067l-.067,0-.067.009-.066.015-.066.02-.078-.37.084-.026.085-.019.085-.012.085-.005h.085l.084.008.084.014.083.02.082.027.081.032.08.038.078.044.077.049.075.054.074.059.072.064.07.069.068.074.066.078.064.083.061.087.059.091.056.1.054.1.051.1.048.107.045.11.042.114.039.117.035.12.032.123.028.126h0Z"/>
            <path id="_1-30" data-name="1" class="cls-21" d="M35.771,50.914c.2.958-.128,1.906-.727,2.116s-1.244-.4-1.442-1.354.128-1.906.727-2.116S35.574,49.955,35.771,50.914Zm.367-.129c.264,1.283-.171,2.551-.973,2.832s-1.665-.53-1.93-1.813.171-2.551.973-2.832S35.874,49.5,36.138,50.785Z"/>
          </g>
          <g id="Group_12767" data-name="Group 12767">
            <path id="Path_28909" data-name="Path 28909" class="cls-20" d="M35.926,58.058l-.078-.37h0l.047-.018.045-.022.044-.025.042-.029.041-.032.039-.035.038-.038.036-.041.035-.044.033-.047.032-.05.03-.053.028-.055.027-.058.025-.06.023-.063.021-.065.019-.067.017-.069.015-.071.012-.072.01-.074.008-.075.005-.077,0-.078v-.079l0-.08,0-.08-.007-.081-.01-.081-.013-.082-.016-.082.287-.1.018.1.015.1.012.1.009.1.006.1,0,.1v.095l0,.094-.006.092-.009.091-.012.09-.015.088-.018.087-.021.085-.023.083-.026.081-.029.079-.031.077-.034.074-.037.071-.039.069-.042.065-.044.062-.047.059-.049.055-.052.052-.054.048-.056.044-.058.039-.06.035-.062.03-.064.025h0ZM34.3,56.568l.287-.1h0l.018.081.02.079.023.077.025.075.027.073.029.07.031.068.032.065.034.063.036.06.037.057.038.054.04.051.041.048.042.045.043.042.044.039.044.036.045.033.046.029.046.026.047.022.047.019.047.015.047.012.047.008.047,0h.048l.047,0,.047-.007L35.8,57.7l.047-.015.078.37-.065.02-.065.015-.066.009-.066,0H35.6l-.065-.006-.065-.011-.064-.016-.063-.02-.062-.025L35.218,58l-.06-.034-.059-.038-.058-.042-.057-.046-.055-.049-.054-.053-.052-.057-.051-.06-.049-.063-.047-.067-.045-.07-.043-.073-.041-.076-.039-.079-.037-.082-.034-.084L34.4,56.94l-.03-.089-.027-.092-.024-.094-.021-.1h0Zm.831-2.35.078.37h0l-.047.018-.045.022-.044.025-.042.029-.041.032-.039.035-.038.038-.036.041-.035.044-.033.047-.032.05-.03.053-.028.055-.027.058-.025.06-.023.063-.021.065-.019.067-.017.069-.015.071-.012.072-.01.074-.008.075-.005.077,0,.078v.079l0,.08,0,.08.007.081.01.081.013.082.016.082-.287.1-.018-.1-.015-.1-.012-.1-.009-.1-.006-.1,0-.1v-.095l0-.094.006-.092.009-.091.012-.09.015-.088.018-.087.021-.085.023-.083.026-.081.029-.079.031-.077.034-.074.037-.071.039-.069.042-.065.044-.062.047-.059.049-.055.052-.052.054-.048.056-.044.058-.039.06-.035.062-.03.064-.025h0Zm1.624,1.49-.287.1h0l-.018-.081-.02-.079-.023-.077-.025-.075-.027-.073-.029-.07-.031-.068-.032-.065-.034-.063L36.2,55.1l-.037-.057-.038-.054-.04-.051-.041-.048L36,54.839l-.043-.042-.044-.039-.044-.036-.045-.033-.046-.029-.046-.026-.047-.022-.047-.019-.047-.015-.047-.012-.047-.008-.047,0H35.4l-.047,0-.047.007-.047.011-.047.015-.078-.37.065-.02.065-.015.066-.009.066,0h.065l.065.006.065.011.064.016.063.02.062.025.061.029.06.034.059.038.058.042.057.046.055.049.054.053.052.057.051.06.049.063.047.067.045.07.043.073.041.076.039.079.037.082.034.084.032.087.03.089.027.092.024.094.021.1h0Zm-.71,2.938-.078-.37h0l.065-.026.063-.031.061-.035.059-.04.057-.045.055-.049L36.383,58l.051-.058.049-.062.047-.066.044-.069.042-.073.039-.077.037-.08.034-.083.032-.086.029-.089.026-.092.023-.095.02-.1.017-.1.014-.1.011-.1.007-.105,0-.107v-.108l0-.109-.006-.11-.01-.111-.014-.112-.017-.112-.021-.113.287-.1.024.128.02.128.016.127.012.127.007.126,0,.125v.124l0,.123-.008.121-.012.119-.016.118-.02.116-.023.113-.027.111-.031.108-.034.106-.038.1-.041.1-.044.1-.048.093-.051.089-.054.085-.057.081-.061.076-.064.072-.067.067-.07.062-.073.057-.075.051-.078.045-.08.039-.083.033h0ZM33.935,56.7l.287-.1h0l.025.111.028.108.031.106.034.1.037.1.039.1.042.093.044.09.047.086.049.082.051.079.053.075.055.071.056.067.058.063.059.058.06.054.062.05.063.045.063.04.064.036.065.031.065.026.066.021.066.016.066.011.067.006H35.7l.067,0,.067-.009L35.9,58.3l.066-.02.078.37-.084.026-.085.019-.085.012-.085.005h-.085L35.54,58.7l-.084-.014-.083-.02-.082-.027-.081-.032-.08-.038-.078-.044-.077-.049-.075-.054-.074-.059-.072-.064-.07-.069-.068-.074-.066-.078-.064-.083-.061-.087-.059-.091-.056-.1-.054-.1-.051-.1-.048-.107-.045-.11-.042-.114-.039-.117-.035-.12-.032-.123-.028-.126h0Zm1.077-3.067.078.37h0l-.065.026-.063.031-.061.035-.059.04-.057.045-.055.049-.053.053-.051.058-.049.062-.047.066-.044.07-.042.073-.039.077-.037.08-.034.083-.032.086-.029.089-.026.092-.023.095-.02.1-.017.1-.014.1-.011.1-.007.105,0,.107v.108l0,.109.006.11.01.111.014.112.017.112.021.113-.287.1-.024-.128-.02-.128-.016-.127-.012-.127-.007-.126,0-.125v-.124l0-.123.008-.121.012-.119.016-.118.02-.116.023-.113.027-.111L34,54.884l.034-.106.038-.1.041-.1.044-.1.048-.093.051-.089.054-.085.057-.081.061-.076.064-.072.067-.067.07-.062L34.7,53.8l.075-.051.078-.045.08-.039.083-.033h0Zm2.112,1.949-.287.1h0l-.025-.111-.028-.108-.031-.106-.034-.1-.037-.1-.039-.1-.042-.093-.044-.09-.047-.086-.049-.082-.051-.079-.053-.075-.055-.071-.056-.067-.058-.063-.059-.058-.06-.054-.062-.05-.063-.045-.063-.04-.064-.036-.065-.031-.065-.026-.066-.021-.066-.016-.066-.011-.067-.006h-.067l-.067,0-.067.009-.066.015L35.09,54l-.078-.37L35.1,53.6l.085-.019.085-.012.085-.005h.085l.084.008.083.014.083.02.082.027.081.032.08.038.078.044.077.049.075.054.074.059.072.064.07.069.068.074.066.078.064.083.061.087.059.091.056.1.054.1.051.1.048.107.045.11.042.114.039.117.035.12.032.123.028.126h0Z"/>
            <path id="_1-31" data-name="1" class="cls-21" d="M36.614,55.757c.2.958-.128,1.906-.727,2.116s-1.244-.4-1.442-1.354.128-1.906.727-2.116,1.244.4,1.442,1.354Zm.367-.129c.264,1.283-.171,2.551-.973,2.832s-1.665-.53-1.93-1.813.171-2.551.973-2.832,1.665.53,1.93,1.813Z"/>
          </g>
          <g id="Group_12768" data-name="Group 12768">
            <path id="Path_28910" data-name="Path 28910" class="cls-20" d="M35.177,54.873l.135-.358h0l-.013,0-.018,0h-.021l-.021,0-.017.007-.013.008-.007.007,0,0h0l0,0,0-.007,0-.011,0-.014.005-.017,0-.02,0-.023,0-.025,0-.027,0-.029,0-.031,0-.033,0-.035v-.156l0-.043,0-.044,0-.045,0-.046,0-.047-.006-.048.379-.045.006.054.005.053,0,.052,0,.051,0,.05,0,.049v.184l0,.043,0,.042,0,.04,0,.039-.006.038-.007.037-.007.036-.009.034-.01.033-.011.032-.013.032-.015.031-.018.03-.021.03-.026.029-.031.027-.037.024-.043.019-.047.011-.049,0-.047-.006-.043-.013h0Zm-.539-1.264.379-.045h0l.006.049.007.048.008.048.008.047.009.047.009.046.01.045.01.045.011.044.011.043.011.042.012.04.012.039.012.038.013.036.013.035.013.033.013.032.013.03.013.028.013.026.013.024.012.021.012.019.011.016.01.013.009.01.007.007,0,0h0l0,0-.008,0-.135.358-.038-.018-.034-.021-.03-.023-.027-.025-.024-.026L35,54.734l-.021-.029-.02-.03-.019-.031-.019-.032-.018-.034-.017-.035-.017-.036-.016-.038-.016-.039-.016-.04-.015-.042-.015-.043-.014-.044-.014-.045-.013-.046-.013-.047-.012-.048-.012-.049-.011-.05-.011-.051-.01-.051-.01-.052-.009-.053-.008-.053-.008-.054-.007-.054h0Zm.428-1.083-.135.358h0l.013,0,.018,0h.021l.021,0,.017-.007.013-.008.007-.007,0,0h0l0,0,0,.007,0,.011,0,.014-.005.017,0,.02,0,.023,0,.025,0,.027,0,.029,0,.031,0,.033,0,.035v.156l0,.043,0,.044,0,.045,0,.046,0,.047.006.048-.379.045-.006-.054-.005-.053,0-.052,0-.051,0-.05,0-.049v-.184l0-.043,0-.042,0-.04,0-.039.006-.038.007-.037.007-.036.009-.034.01-.033.011-.032.013-.032.015-.031.018-.03.021-.03.026-.029.031-.027.037-.024.043-.019.047-.011.049,0,.047.006.043.013h0ZM35.6,53.79l-.379.045h0l-.006-.049-.007-.048L35.2,53.69l-.008-.047-.009-.047-.009-.046-.01-.045-.01-.045-.011-.044-.011-.043-.011-.042-.012-.04-.012-.039-.012-.038-.013-.036-.013-.035-.013-.033-.013-.032-.013-.03-.013-.028L35,52.995l-.013-.024-.012-.021-.012-.019-.011-.016-.01-.013-.009-.01-.007-.007,0,0h0l0,0,.008,0,.135-.358.038.018.034.021.03.023.027.025.024.026.023.027.021.029.02.03.019.031.019.032.018.034.017.035.017.037.016.038.016.039.016.04.015.042.015.043.014.044.014.045.013.046.013.047.012.048.012.049.011.05.011.051.01.051.01.052.009.053.008.053.008.054.007.054h0Z"/>
            <path id="_1-32" data-name="1" class="cls-21" d="M35.415,53.813c.068.549-.009.944-.171.881s-.349-.558-.416-1.107.009-.944.171-.881.349.558.416,1.107Z"/>
          </g>
          <g id="Group_12769" data-name="Group 12769">
            <path id="Path_28911" data-name="Path 28911" class="cls-20" d="M36.465,62.1l-.078-.37h0l.055-.019.054-.019.052-.019.051-.019.049-.019.047-.019.045-.019.043-.02.04-.02.038-.021.035-.021.033-.022.03-.023.028-.023.025-.024.022-.025.02-.025.018-.026.016-.027.014-.029.012-.031.01-.034.009-.037.007-.04,0-.045,0-.049V61l0-.059-.006-.064-.009-.07-.012-.075-.015-.081.287-.1.018.094.014.091.011.087.007.084,0,.081v.078l0,.075-.008.072-.012.07-.016.067-.02.064-.023.061-.027.057-.03.053-.033.049-.036.045-.038.042-.04.038-.042.035-.043.032-.044.03-.046.028-.047.026-.048.024-.049.023-.05.022L36.735,62l-.052.02-.053.02-.054.02-.055.019-.056.02h0Zm-1.531-.688.287-.1h0l.017.078.019.07.02.063.021.056.022.05.023.044.024.038.024.033.025.029.026.025.027.022.028.018.029.016.031.013.033.01.035.008.036.005.038,0h.04l.042,0,.044,0,.045-.007.047-.009.048-.011.049-.012.051-.014.052-.016.053-.017.054-.018.054-.019.055-.019.056-.02.078.37-.056.02-.056.02-.056.019-.056.019-.056.018-.056.017-.056.016-.056.014-.055.012-.055.01-.055.008-.055.005-.055,0h-.054l-.054,0-.054-.008-.053-.012-.053-.017-.052-.022-.051-.028-.05-.033-.048-.039-.046-.045-.044-.051-.041-.057L35.1,61.9l-.035-.068-.032-.073-.03-.079-.027-.084-.024-.09-.022-.1h0Zm.831-2.35.078.37h0l-.047.018-.045.022-.044.025-.042.029-.041.032-.039.035-.038.038-.036.041-.035.044-.033.047-.032.05-.03.053-.028.055-.027.058-.025.06-.023.063-.021.065-.019.067-.017.069-.015.071-.012.072-.01.074-.008.075-.005.077,0,.078v.079l0,.08,0,.08.007.081.01.081.013.082.016.082-.287.1-.018-.1-.015-.1-.012-.1-.009-.1-.006-.1,0-.1V60.74l0-.094.006-.092.009-.091.012-.09.015-.088.018-.087.021-.085.023-.083.026-.081.029-.079.031-.077.034-.074.037-.071.039-.069.042-.065.044-.062.047-.059.049-.055.052-.052.054-.048.056-.044.058-.039.06-.035.062-.03.064-.025h0Zm1.624,1.49-.287.1h0l-.018-.081-.02-.079-.023-.077-.025-.075-.027-.073-.029-.07-.031-.068-.032-.065L36.863,60l-.036-.06-.037-.057-.038-.054-.04-.051-.041-.048-.042-.045-.043-.042-.044-.039-.044-.036-.045-.033-.046-.029-.046-.026-.047-.022-.047-.019-.047-.015-.047-.012-.047-.008-.047,0h-.048l-.047,0-.047.007-.047.011-.047.015-.078-.37.065-.02.065-.015.066-.009.066,0h.065l.065.006.065.011.064.016.063.02.062.025.061.029.06.034.059.038.058.042.057.046.055.049.054.053.052.057.051.06.049.063.047.067.045.07.043.073.041.076.039.079.037.082.034.084.032.087.03.089.027.092.024.094.021.1h0ZM36.465,62.1l-.078-.37h0l.077-.026.076-.024.074-.022.072-.021.07-.019.068-.018.066-.018.063-.018.061-.018.058-.018.055-.019.051-.019.048-.02.044-.021.04-.023.036-.024.032-.025.028-.026.024-.027.021-.029.018-.031.015-.034L37.5,61.2l.011-.043.008-.05.005-.057,0-.065,0-.074-.006-.082-.011-.091-.016-.1-.021-.109.287-.1.023.123.018.117.013.111.008.1,0,.1,0,.095-.009.09-.014.086-.02.081-.026.076-.032.07-.037.064-.042.058-.046.052-.049.046-.051.04-.053.035-.055.031-.057.028-.058.025-.06.023-.062.021-.063.02-.064.019-.066.018-.067.018L36.818,62l-.069.019-.07.02-.071.021-.071.023-.072.024h0Zm-1.9-.559.287-.1h0l.024.106.025.094.027.083.028.072.029.062.029.053.029.044.029.036.03.029.03.024.032.019.033.015.036.011.039.007.042,0h.045l.048,0,.05-.009.053-.012.056-.016.058-.019.06-.022.062-.024.064-.026.066-.028.068-.029.07-.03.071-.03.073-.03.074-.03.076-.029.077-.028.078.37-.072.026-.072.028-.071.029-.071.03-.07.03-.07.03-.069.03-.068.029-.068.028-.067.026-.067.024-.066.022-.066.019-.065.015-.065.011-.065.007-.065,0-.064,0-.064-.011-.063-.019-.062-.027-.061-.036-.058-.045-.055-.054-.052-.063-.048-.072-.044-.08-.041-.088-.037-.1-.034-.105-.031-.114-.028-.124h0Zm1.077-3.067.078.37h0l-.065.026-.063.031-.061.035-.059.04-.057.045-.055.049-.053.053-.051.058-.049.062-.047.066-.044.069-.042.073-.039.077-.037.08-.034.083-.032.086-.029.089-.026.092-.023.095-.02.1-.017.1-.014.1-.011.1-.007.105,0,.107v.108l0,.109.006.11.01.111.014.112.017.112.021.113-.287.1-.024-.128-.02-.128-.016-.127-.012-.127-.007-.126,0-.125v-.124l0-.123.008-.121.012-.119.016-.118.02-.116.023-.113.027-.111.031-.108.034-.106.038-.1.041-.1.044-.1.048-.093.051-.089.054-.085.057-.081.061-.076.064-.072.067-.067.07-.062.072-.057.075-.051.078-.045.08-.039.083-.033h0Zm2.112,1.949-.287.1h0l-.025-.111-.028-.108-.031-.106-.034-.1-.037-.1-.039-.1-.042-.093-.044-.09-.047-.086-.049-.082-.051-.079-.053-.075-.055-.071-.056-.067L36.82,59.2l-.059-.058-.06-.054-.062-.05-.063-.045-.063-.04-.064-.036-.065-.031-.065-.026-.066-.021-.066-.016-.066-.011-.067-.006h-.067l-.067,0-.067.009-.066.015-.066.02-.078-.37.084-.026.085-.019.085-.012.085-.005h.085l.084.008.083.014.083.02.082.027.081.032.08.038.078.044.077.049.075.054.074.059.072.064.07.069.068.074.066.078.064.083.062.087.059.091.056.1.054.1.051.1.048.107.045.11.042.114.039.117.035.12.032.123.028.126Z"/>
            <path id="_1-33" data-name="1" class="cls-21" d="M37.245,60.6c.2.958-.221,1.1-.819,1.314s-1.152.406-1.349-.552.128-1.906.727-2.116,1.244.4,1.442,1.354Zm.367-.129c.264,1.283-.385,1.161-1.186,1.442s-1.452.86-1.716-.423.171-2.551.973-2.832S37.348,59.192,37.612,60.475Z"/>
          </g>
          <g id="Group_12770" data-name="Group 12770">
            <path id="Path_28912" data-name="Path 28912" class="cls-20" d="M35.819,59.686l.135-.358h0l-.013,0-.018,0H35.9l-.021,0-.017.007-.013.008-.007.007,0,0h0l0,0,0-.007,0-.011,0-.014.005-.017,0-.02,0-.023,0-.025,0-.027,0-.029,0-.031,0-.033,0-.035v-.156l0-.043,0-.044,0-.045,0-.046,0-.047-.006-.048.379-.045.006.054.005.053,0,.052,0,.051,0,.05,0,.049V59.1l0,.043,0,.042,0,.04,0,.039-.006.038-.007.037-.007.036-.009.034-.01.033-.011.032-.013.032-.015.031-.018.03-.021.03-.026.029-.031.027-.037.024L36,59.692l-.047.011-.049,0-.047-.006-.043-.013Zm-.539-1.264.379-.045h0l.006.049.007.048.008.048.008.047.009.047.009.046.01.045.01.045.011.044.011.043.011.042.012.04.012.039L35.8,59l.013.036.013.035.013.033.013.032.013.03.013.028.013.026.013.024.012.021.012.019.011.016.01.013.009.01.007.007,0,0h0l0,0-.008,0-.135.358-.038-.018-.034-.021-.03-.023L35.69,59.6l-.024-.026-.023-.027-.021-.029-.02-.03-.019-.031-.019-.032-.018-.034-.017-.035-.017-.036-.016-.038-.016-.039-.016-.04-.015-.042-.015-.043-.014-.044-.014-.045-.013-.046-.013-.047-.012-.048-.012-.049-.011-.05-.011-.051-.01-.051-.01-.052-.009-.053-.008-.053-.008-.054-.007-.054h0Zm.428-1.083-.135.358h0l.013,0,.018,0h.021l.021,0,.017-.007.013-.008.007-.007,0,0h0l0,0,0,.007,0,.011,0,.014-.005.017,0,.02,0,.023,0,.025,0,.027,0,.029,0,.031,0,.033,0,.035V58.1l0,.043,0,.044,0,.045,0,.046,0,.047.006.048-.379.045-.006-.054-.005-.053,0-.052,0-.051,0-.05,0-.049v-.184l0-.043,0-.042,0-.04,0-.039.006-.038.007-.037.007-.036.009-.034.01-.033.011-.032.013-.032.015-.031.018-.03.021-.03.026-.029.031-.027.037-.024.043-.019.047-.011.049,0,.047.006.043.013h0Zm.539,1.264-.379.045h0l-.006-.049-.007-.048-.008-.048-.008-.047-.009-.047-.009-.046-.01-.045-.01-.045-.011-.044-.011-.043-.011-.042-.012-.04-.012-.039-.012-.038-.013-.036-.013-.035-.013-.033-.013-.032-.013-.03-.013-.028-.013-.026-.013-.024-.012-.021-.012-.019-.011-.016-.01-.013-.009-.01-.007-.007,0,0h0l0,0,.008,0,.135-.358.038.018.034.021.03.023.027.025.024.026.023.027.021.029.02.03.019.031.019.032.018.034.017.035.017.037.016.038.016.039.016.04.015.042.015.043.014.044.014.045.013.046.013.047.012.048.012.049.011.05.011.051.01.051.01.052.009.053.008.053.008.054.007.054h0Z"/>
            <path id="_1-34" data-name="1" class="cls-21" d="M36.057,58.626c.068.549-.009.944-.171.881s-.349-.558-.416-1.107.009-.944.171-.881.349.558.416,1.107Z"/>
          </g>
          <g id="Group_12771" data-name="Group 12771">
            <path id="Path_28913" data-name="Path 28913" class="cls-20" d="M34.592,48.571l.139-.34h0l.04.031.038.035.035.039.033.042.031.045.029.047.027.049.026.051.024.053.022.054.021.056.019.057.018.058.017.059.015.059.014.06.013.06.011.06.01.06.008.06.007.059.006.059,0,.058,0,.057v.111l0,.054,0,.053-.006.052-.008.05-.01.049-.013.048-.276-.141,0-.019,0-.023,0-.028,0-.032,0-.035v-.121l0-.045,0-.046,0-.047-.006-.048-.007-.049-.008-.049-.009-.05-.01-.049-.011-.049-.012-.048-.013-.047-.014-.046-.015-.045-.016-.043-.017-.041-.017-.039-.018-.036L34.7,48.7l-.019-.03-.019-.027-.019-.024-.019-.02-.018-.017-.018-.014h0Zm-1.122.086-.289-.09h0l.042-.1.039-.042L33.3,48.4l.033-.018.035-.016.037-.015.04-.014.044-.014.047-.014.049-.013.052-.013.054-.013.056-.012.057-.012.058-.011.059-.011.06-.01.06-.009.06-.008.059-.007.058-.006.057-.005.055,0,.053,0h.1l.046,0,.044,0,.042.006.04.009.04.014.042.023-.139.34,0,0-.009,0-.019,0-.026,0-.032,0-.037,0h-.086l-.048,0-.051,0-.053,0-.054.006-.056.007-.056.008-.057.009-.057.009-.056.01-.055.011-.054.011-.052.012-.05.012-.048.012-.045.012-.041.012-.037.012-.033.012-.027.011-.021.009-.012.007h0l.016-.018.031-.076h0Zm.41,1.48-.194.291h0L33.66,50.4l-.026-.029-.027-.03-.028-.031-.028-.032-.029-.034-.029-.035-.029-.037-.029-.038-.029-.04-.028-.042-.028-.044-.027-.047-.026-.049-.025-.051-.024-.054-.022-.057-.02-.059-.018-.062-.016-.065-.014-.067-.012-.07-.009-.073-.007-.076,0-.078v-.081l0-.084,0-.087.008-.09.011-.093.014-.1.017-.1.289.09-.015.087-.012.083-.009.079-.006.075,0,.071v.131l0,.06.005.057.007.054.009.051.01.048.012.046.013.044.014.042.016.04.017.039.018.037.019.036.02.035.021.034.022.033.023.032.024.031.024.031.025.03.025.03.026.03.026.029.026.029.026.029.026.029h0Zm1.006-.366.276.141h0l-.025.066-.031.058-.036.051-.04.045-.042.04-.045.036-.047.032-.049.03L34.8,50.3l-.053.025-.054.023-.055.021-.056.019-.056.018-.057.016-.057.014-.056.013-.056.011-.055.01-.053.008-.052.007-.05.006-.048,0-.045,0-.043,0h-.077l-.035,0-.032,0-.032-.007-.036-.014-.053-.041.194-.291-.034-.028-.007,0h.007l.016,0,.023,0h.061l.036,0,.04,0,.043,0,.045-.005.047-.006.049-.008.05-.009.05-.01.051-.012.051-.013.051-.014.05-.015L34.555,50l.047-.018.045-.019.042-.02.039-.021.036-.022.032-.022.028-.022.023-.021.017-.02.012-.017.007-.013,0-.009h0Z"/>
            <path id="_1-35" data-name="1" class="cls-21" d="M35.025,49.842a1.777,1.777,0,0,0-.363-1.441,2.4,2.4,0,0,0-1.336.212,1.619,1.619,0,0,0,.457,1.671C33.85,50.358,34.9,50.25,35.025,49.842Z"/>
          </g>
          <g id="Group_12772" data-name="Group 12772">
            <path id="Path_28914" data-name="Path 28914" class="cls-16" d="M29.2,50.8c-.47-1.849-1.5-6.025-1.227-7.257"/>
          </g>
          <g id="Group_12773" data-name="Group 12773">
            <path id="Path_28915" data-name="Path 28915" class="cls-16" d="M27.677,48.962a7.507,7.507,0,0,1-1.157-4.931"/>
          </g>
          <g id="Group_12774" data-name="Group 12774">
            <path id="Path_28916" data-name="Path 28916" class="cls-16" d="M26.01,50.98c-1.007-1.589-.827-4.7-.556-5.934"/>
          </g>
          <g id="Group_12775" data-name="Group 12775">
            <path id="Path_28917" data-name="Path 28917" class="cls-16" d="M23.8,51.8a44.468,44.468,0,0,1,.856-6.181"/>
          </g>
          <g id="Group_12776" data-name="Group 12776">
            <path id="Path_28918" data-name="Path 28918" class="cls-16" d="M48.658,56c-4.973-2.144-5.926-3.342-6.72-4.993"/>
          </g>
          <g id="Group_12777" data-name="Group 12777">
            <path id="Path_28919" data-name="Path 28919" class="cls-16" d="M48.968,53.275c-1.918-1.218-2.912-1.9-3.706-3.553"/>
          </g>
          <g id="Group_12778" data-name="Group 12778">
            <path id="Path_28920" data-name="Path 28920" class="cls-16" d="M51.431,54.422A10.59,10.59,0,0,1,47.6,49.85"/>
          </g>
          <g id="Group_12779" data-name="Group 12779">
            <path id="Path_28921" data-name="Path 28921" class="cls-16" d="M52.46,53.614a10.59,10.59,0,0,1-3.829-4.572"/>
          </g>
          <g id="Group_12780" data-name="Group 12780">
            <path id="Path_28922" data-name="Path 28922" class="cls-16" d="M52.071,44.777c-.621-1.342-1.5-2.026-3.564-2.258"/>
          </g>
          <g id="Group_12781" data-name="Group 12781">
            <path id="Path_28923" data-name="Path 28923" class="cls-16" d="M34.348,46.31c1.015-.389,1.188-.384,1.969-.661"/>
          </g>
          <g id="Group_12782" data-name="Group 12782">
            <path id="Path_28924" data-name="Path 28924" class="cls-16" d="M38.266,44.953c.988-.454,1.161-.459,1.922-.786"/>
          </g>
          <g id="Group_12783" data-name="Group 12783">
            <path id="Path_28925" data-name="Path 28925" class="cls-16" d="M36.919,44.38c.379.14.559.05.857-.253"/>
          </g>
          <g id="Group_12784" data-name="Group 12784">
            <path id="Path_28926" data-name="Path 28926" class="cls-16" d="M37.283,45.387c.379.14.559.05.857-.253"/>
          </g>
          <g id="Group_12785" data-name="Group 12785">
            <path id="Path_28927" data-name="Path 28927" class="cls-16" d="M36.141,43.76c.379.14.559.05.857-.253"/>
          </g>
          <g id="Group_12786" data-name="Group 12786">
            <path id="Path_28928" data-name="Path 28928" class="cls-16" d="M35.186,43.332a6.951,6.951,0,0,0,.834-.253c.218.015.374-.093.594-.317"/>
          </g>
          <g id="Group_12787" data-name="Group 12787">
            <line id="Line_325" data-name="Line 325" class="cls-22" x2="0.599" y2="0.035" transform="translate(34.022 39.82)"/>
          </g>
          <g id="Group_12788" data-name="Group 12788">
            <path id="Path_28929" data-name="Path 28929" class="cls-16" d="M33.929,40.041c.317.169.367.239.706.219"/>
          </g>
          <g id="Group_12789" data-name="Group 12789">
            <line id="Line_326" data-name="Line 326" class="cls-22" x1="0.324" y1="0.505" transform="translate(39.014 39.5)"/>
          </g>
          <g id="Group_12790" data-name="Group 12790">
            <path id="Path_28930" data-name="Path 28930" class="cls-16" d="M39.19,40.2c-.3-.194-.388-.2-.537-.508"/>
          </g>
          <g id="Group_12791" data-name="Group 12791">
            <line id="Line_327" data-name="Line 327" class="cls-22" x1="0.324" y1="0.505" transform="translate(40.229 40.81)"/>
          </g>
          <g id="Group_12792" data-name="Group 12792">
            <path id="Path_28931" data-name="Path 28931" class="cls-16" d="M40.406,41.506c-.3-.194-.388-.2-.537-.508"/>
          </g>
          <g id="Group_12793" data-name="Group 12793">
            <line id="Line_328" data-name="Line 328" class="cls-23" x1="0.168" y1="0.262" transform="translate(38.85 42.309)"/>
          </g>
          <g id="Group_12794" data-name="Group 12794">
            <path id="Path_28932" data-name="Path 28932" class="cls-24" d="M38.941,42.669c-.157-.1-.2-.1-.279-.263"/>
          </g>
          <g id="Group_12795" data-name="Group 12795">
            <line id="Line_329" data-name="Line 329" class="cls-23" x1="0.168" y1="0.262" transform="translate(40.856 42.734)"/>
          </g>
          <g id="Group_12796" data-name="Group 12796">
            <path id="Path_28933" data-name="Path 28933" class="cls-24" d="M40.948,43.095c-.157-.1-.2-.1-.279-.263"/>
          </g>
          <g id="Group_12797" data-name="Group 12797">
            <path id="Path_28934" data-name="Path 28934" class="cls-16" d="M45.251,48.983a12.117,12.117,0,0,1,2.87-2.361"/>
          </g>
          <g id="Group_12798" data-name="Group 12798">
            <path id="Path_28935" data-name="Path 28935" class="cls-16" d="M46.689,49.149c.768-.76.955-1.366,1.736-1.643"/>
          </g>
          <g id="Group_12799" data-name="Group 12799">
            <path id="Path_28936" data-name="Path 28936" class="cls-16" d="M48.376,48.595a9.256,9.256,0,0,1,.657-.77"/>
          </g>
          <g id="Group_12800" data-name="Group 12800">
            <path id="Path_28937" data-name="Path 28937" class="cls-16" d="M48.343,46.421c.261-.289.612-.662,1.009-1.053"/>
          </g>
          <g id="Group_12801" data-name="Group 12801">
            <path id="Path_28938" data-name="Path 28938" class="cls-16" d="M48.769,46.947a11.368,11.368,0,0,1,.762-1.03"/>
          </g>
          <g id="Group_12802" data-name="Group 12802">
            <path id="Path_28939" data-name="Path 28939" class="cls-16" d="M44.958,46.982c.346-.143,1.963-1.356,2.151-2.2"/>
          </g>
          <g id="Group_12803" data-name="Group 12803">
            <path id="Path_28940" data-name="Path 28940" class="cls-16" d="M30.634,60.927c-2.2-1.494-6.444-6.955-6.173-8.187"/>
          </g>
          <g id="Group_12804" data-name="Group 12804">
            <path id="Path_28941" data-name="Path 28941" class="cls-16" d="M31.272,28.064c.691,1.447,1.79,4.045,2.57,3.768"/>
          </g>
          <g id="Group_12805" data-name="Group 12805">
            <path id="Path_28942" data-name="Path 28942" class="cls-16" d="M32.787,27.953c.691,1.447.319,2.167.663,2.665"/>
          </g>
          <g id="Group_12806" data-name="Group 12806">
            <path id="Path_28943" data-name="Path 28943" class="cls-16" d="M33.93,28.881c.078.808-.1.966.157,1.635"/>
          </g>
          <g id="Group_12807" data-name="Group 12807">
            <path id="Path_28944" data-name="Path 28944" class="cls-16" d="M36.762,30.6c-.786.657-1.513.9-1.429,1.614"/>
          </g>
          <g id="Group_12808" data-name="Group 12808">
            <path id="Path_28945" data-name="Path 28945" class="cls-16" d="M31.661,23.792c.108.531.629.5.879.981"/>
          </g>
          <g id="Group_12809" data-name="Group 12809">
            <path id="Path_28946" data-name="Path 28946" class="cls-16" d="M35.184,21.207c.073.356.6,1.615.634,1.956.027.3-.423.4-.681.506"/>
          </g>
          <g id="Group_12810" data-name="Group 12810">
            <path id="Path_28947" data-name="Path 28947" class="cls-16" d="M33.573,24.8c.525-.118,1.632-.383,1.882.1"/>
          </g>
          <g id="Group_12811" data-name="Group 12811">
            <path id="Path_28948" data-name="Path 28948" class="cls-16" d="M34.172,25.2a.63.63,0,0,0,.874.041"/>
          </g>
          <g id="Group_12812" data-name="Group 12812">
            <path id="Path_28949" data-name="Path 28949" class="cls-16" d="M34.09,23.517c.1-.008.379-.136.565,0"/>
          </g>
          <g id="Group_12813" data-name="Group 12813">
            <path id="Path_28950" data-name="Path 28950" class="cls-16" d="M29.878,18.924c.2,1.227.081,4.525.331,5.009"/>
          </g>
          <g id="Group_12814" data-name="Group 12814">
            <path id="Path_28951" data-name="Path 28951" class="cls-16" d="M32.542,18.015c.2,1.227-.012,3.086.238,3.57"/>
          </g>
          <g id="Group_12815" data-name="Group 12815">
            <path id="Path_28952" data-name="Path 28952" class="cls-16" d="M27.457,23.846c.2,1.227,2.766,6.365,3.016,6.85"/>
          </g>
          <g id="Group_12816" data-name="Group 12816">
            <path id="Path_28953" data-name="Path 28953" class="cls-16" d="M26.134,28.1c.657,1.062,1.319.837,1.569,1.321"/>
          </g>
          <g id="Group_12817" data-name="Group 12817">
            <path id="Path_28954" data-name="Path 28954" class="cls-20" d="M40.588,55.674l.135-.358h0l-.013,0-.018,0H40.67l-.021,0-.017.007-.013.008-.007.007,0,0h0l0,0,0-.007,0-.011,0-.014.005-.017,0-.02,0-.022,0-.025,0-.027,0-.029,0-.031,0-.033,0-.035v-.156l0-.043,0-.044,0-.045,0-.046,0-.047-.006-.048.379-.045.006.054.005.053,0,.052,0,.051,0,.05,0,.049v.184l0,.043,0,.042,0,.04,0,.039-.006.038-.007.037-.007.036L41,55.392l-.01.033-.011.032-.013.032-.015.031-.018.03-.021.03-.026.029-.031.027-.037.024-.043.019-.047.011-.049,0-.047-.006-.043-.013h0Zm-.539-1.264.379-.045h0l.006.049.007.048.008.048.008.047.009.047.009.046.01.045.01.045.011.044.011.043.011.042.012.04.012.039.012.038.013.036.013.035.013.033.013.032.013.03.013.028.013.026.013.024.012.021.012.019.011.016.01.013.009.01.007.007,0,0h0l0,0-.008,0-.135.358-.038-.018-.034-.021-.03-.023-.027-.025-.024-.026-.023-.027-.021-.029-.02-.03-.019-.031-.019-.032-.018-.034-.017-.035-.017-.036-.016-.038-.016-.039-.016-.04-.015-.042-.015-.043-.014-.044-.014-.045-.013-.046-.013-.047-.012-.048-.012-.049-.011-.05-.011-.051-.01-.051-.01-.052-.009-.053-.008-.053-.008-.054-.007-.054h0Zm.428-1.083-.135.358h0l.013,0,.018,0h.021l.021,0,.017-.007.013-.008.007-.007,0,0h0l0,0,0,.007,0,.011,0,.014-.005.017,0,.02,0,.022,0,.025,0,.027,0,.029,0,.031,0,.033,0,.035v.156l0,.043,0,.044,0,.045,0,.046,0,.047.006.048-.379.045-.006-.054-.005-.053,0-.052,0-.051,0-.05,0-.049v-.184l0-.043,0-.042,0-.04,0-.039.006-.038.007-.037.007-.036.009-.034.01-.033.011-.032.013-.032.015-.031.018-.03.021-.03.026-.029.031-.027.037-.024.043-.019.047-.011.049,0,.047.006.043.013h0Zm.539,1.264-.379.045h0l-.006-.049-.007-.048-.008-.048-.008-.047L40.6,54.4l-.009-.046-.01-.045-.01-.045-.011-.044-.011-.043-.011-.042-.012-.04-.012-.039-.012-.038-.013-.036-.013-.035-.013-.033-.013-.032-.013-.03-.013-.028L40.41,53.8l-.013-.024-.012-.021-.012-.019-.011-.016-.01-.013-.009-.01-.007-.007,0,0h0l0,0,.008,0,.135-.358.038.018.034.021.03.023.027.025.024.026.023.027.021.029.02.03.019.031.019.032.018.034.017.035.017.037.016.038.016.039.016.04.015.042.015.043.014.044.014.045.013.046.013.047.012.048.012.049.011.05.011.051.01.051.01.052.009.053.008.053.008.054.007.054h0Z"/>
            <path id="_1-36" data-name="1" class="cls-21" d="M40.826,54.614c.068.549-.009.944-.171.881s-.349-.558-.416-1.107.009-.944.171-.881.349.558.416,1.107Z"/>
          </g>
          <g id="Group_12818" data-name="Group 12818">
            <path id="Path_28955" data-name="Path 28955" class="cls-16" d="M28.75,27.125c.691,1.447.245,2.649.59,3.147"/>
          </g>
          <g id="Group_12819" data-name="Group 12819">
            <path id="Path_28956" data-name="Path 28956" class="cls-16" d="M25.62,28.872a7.2,7.2,0,0,0,3.055,1.314"/>
          </g>
          <path id="Path_28957" data-name="Path 28957" class="cls-13" d="M18.719,49.241c1.381,0,2.595-.1,2.595,1.642,0,1.209,1.846,1.658,1.109,2.395-4.258,4.257-1.314,4.732-4.039,2.74-.95-.695-.96-6.761-1.23-9.372-.052-.5-.07-1.083-.07-1.34C17.084,43.568,17.338,49.241,18.719,49.241Z"/>
          <g id="Group_12820" data-name="Group 12820">
            <path id="Path_28958" data-name="Path 28958" class="cls-16" d="M19.509,52.44c-.859,1.056-1.218,3.166-.585,3.545.422.253,1.161-2.926,2.393-5.623,1.023-2.238,2.613-4.172,2.707-4.6"/>
          </g>
          <path id="Path_28959" data-name="Path 28959" class="cls-13" d="M54.044,51.106c-.532-.379.414-4.382-1.079-6.909-.311-.527-.49-.4-.851-.881-.773-1.031-.942-.556-1.172-1.033s-.5-1.93.985-.827c3.584,2.657,6.272,6.248,5.462,6.461-.68.179-1.885,1.979-2.351,2.811-.224.4-.432.778-.994.377Z"/>
          <g id="Group_12821" data-name="Group 12821">
            <path id="Path_28960" data-name="Path 28960" class="cls-16" d="M55.8,50.951c-1.47-.462-1.207-3.75-2-5.4"/>
          </g>
          <g id="Group_12822" data-name="Group 12822">
            <path id="Path_28961" data-name="Path 28961" class="cls-16" d="M56.454,47.417c-1.059-.328-1.084-.077-1.877-1.728"/>
          </g>
          <g id="Group_12823" data-name="Group 12823">
            <path id="Path_28962" data-name="Path 28962" class="cls-16" d="M56.554,46.926a1.181,1.181,0,0,1-1.26-.756"/>
          </g>
          <g id="Group_12824" data-name="Group 12824">
            <path id="Path_28963" data-name="Path 28963" class="cls-16" d="M33.152,24.718c.066-.078.284-.921.514-.956"/>
          </g>
          <g id="Group_12825" data-name="Group 12825">
            <line id="Line_330" data-name="Line 330" class="cls-22" x2="11.543" y2="4.321" transform="translate(22.423 30.371)"/>
          </g>
          <g id="Group_12826" data-name="Group 12826">
            <line id="Line_331" data-name="Line 331" class="cls-22" x2="11.543" y2="4.321" transform="translate(23.259 29.658)"/>
          </g>
          <g id="Group_12827" data-name="Group 12827">
            <line id="Line_332" data-name="Line 332" class="cls-22" x1="6.779" y2="7.423" transform="translate(39.021 26.799)"/>
          </g>
          <g id="Group_12828" data-name="Group 12828">
            <line id="Line_333" data-name="Line 333" class="cls-22" x1="6.841" y2="7.731" transform="translate(37.938 26.309)"/>
          </g>
          <g id="Group_12829" data-name="Group 12829">
            <path id="Path_28964" data-name="Path 28964" class="cls-25" d="M34.969,8.383a26.64,26.64,0,1,0,26.64,26.64,26.64,26.64,0,0,0-26.64-26.64Z"/>
          </g>
        </g>
      </g>
    </g>
  </g>
</svg>
