<svg xmlns="http://www.w3.org/2000/svg" xmlns:xlink="http://www.w3.org/1999/xlink" width="114" height="64" viewBox="0 0 114 64">
  <defs>
    <style>
      .cls-1 {
        fill: #fff;
      }

      .cls-2 {
        clip-path: url(#clip-path);
      }

      .cls-3 {
        clip-path: url(#clip-path-2);
      }

      .cls-4 {
        fill: #53ae94;
      }

      .cls-5 {
        clip-path: url(#clip-path-3);
      }

      .cls-6 {
        clip-path: url(#clip-path-4);
      }

      .cls-7 {
        fill: #343434;
      }

      .cls-8 {
        fill: #8c8c8c;
      }

      .cls-9 {
        fill: #3c3c3b;
      }

      .cls-10 {
        fill: #141414;
      }

      .cls-11 {
        fill: #393939;
      }
    </style>
    <clipPath id="clip-path">
      <circle id="Ellipse_1935" data-name="Ellipse 1935" class="cls-1" cx="32" cy="32" r="32" transform="translate(-23275 -21453)"/>
    </clipPath>
    <clipPath id="clip-path-2">
      <circle id="Ellipse_1825" data-name="Ellipse 1825" class="cls-1" cx="32" cy="32" r="32" transform="translate(-23439 -23605)"/>
    </clipPath>
    <clipPath id="clip-path-3">
      <circle id="Ellipse_1936" data-name="Ellipse 1936" class="cls-1" cx="32" cy="32" r="32" transform="translate(-23225 -21453)"/>
    </clipPath>
    <clipPath id="clip-path-4">
      <circle id="Ellipse_1822" data-name="Ellipse 1822" class="cls-1" cx="32" cy="32" r="32" transform="translate(-23325 -23674)"/>
    </clipPath>
  </defs>
  <g id="Group_937" data-name="Group 937" transform="translate(23275 22993)">
    <g id="Mask_Group_226" data-name="Mask Group 226" class="cls-2" transform="translate(0 -1540)">
      <g id="Mask_Group_19" data-name="Mask Group 19" class="cls-3" transform="translate(164 2152)">
        <g id="tether-seeklogo.com" transform="translate(-23439 -23605)">
          <path id="Path_17428" data-name="Path 17428" class="cls-4" d="M32,0A32,32,0,1,1,0,32,32,32,0,0,1,32,0"/>
          <path id="Path_17429" data-name="Path 17429" class="cls-1" d="M35.949,27.736v-4.76H46.835V15.723H17.193v7.253H28.08v4.756c-8.848.406-15.5,2.159-15.5,4.258s6.656,3.852,15.5,4.26V51.5h7.872V36.25c8.832-.408,15.471-2.159,15.471-4.256s-6.639-3.848-15.471-4.256m0,7.22h0c-.222.014-1.363.083-3.9.083-2.031,0-3.46-.058-3.964-.084v.006c-7.817-.346-13.652-1.708-13.652-3.336s5.836-2.988,13.652-3.335V33.6c.512.035,1.976.122,4,.122,2.428,0,3.648-.1,3.872-.122V28.288c7.8.348,13.623,1.71,13.623,3.333s-5.824,2.986-13.623,3.334"/>
        </g>
      </g>
    </g>
    <g id="Mask_Group_227" data-name="Mask Group 227" class="cls-5" transform="translate(0 -1540)">
      <g id="Group_727" data-name="Group 727" transform="translate(100 2221)">
        <g id="Group_726" data-name="Group 726">
          <circle id="Ellipse_1807" data-name="Ellipse 1807" class="cls-1" cx="32" cy="32" r="32" transform="translate(-23325 -23674)"/>
          <g id="Mask_Group_16" data-name="Mask Group 16" class="cls-6">
            <g id="Layer_x0020_1" transform="translate(-23311.184 -23671.611)">
              <g id="_1421394342400">
                <g id="Group_714" data-name="Group 714">
                  <path id="Path_128" data-name="Path 128" class="cls-7" d="M19.612,0l-.4,1.35V40.509l.4.4L37.789,30.161Z" transform="translate(-1.434)"/>
                  <path id="Path_129" data-name="Path 129" class="cls-8" d="M18.177,0,0,30.161,18.177,40.9Z"/>
                  <path id="Path_130" data-name="Path 130" class="cls-9" d="M19.626,47.058l-.224.273V61.28l.224.654L37.814,36.319Z" transform="translate(-1.448 -2.711)"/>
                  <path id="Path_131" data-name="Path 131" class="cls-8" d="M18.177,61.934V47.058L0,36.319Z" transform="translate(0 -2.711)"/>
                  <path id="Path_132" data-name="Path 132" class="cls-10" d="M19.644,42.672,37.821,31.927,19.644,23.665Z" transform="translate(-1.466 -1.766)"/>
                  <path id="Path_133" data-name="Path 133" class="cls-11" d="M0,31.927,18.177,42.672V23.665Z" transform="translate(0 -1.766)"/>
                </g>
              </g>
            </g>
          </g>
        </g>
      </g>
    </g>
  </g>
</svg>
