<svg xmlns="http://www.w3.org/2000/svg" xmlns:xlink="http://www.w3.org/1999/xlink" width="114" height="64" viewBox="0 0 114 64">
  <defs>
    <clipPath id="clip-path">
      <ellipse id="Ellipse_115" data-name="Ellipse 115" cx="26.5" cy="25.5" rx="26.5" ry="25.5" transform="translate(-24483 -11213.874)" fill="#fff"/>
    </clipPath>
  </defs>
  <g id="Group_3379" data-name="Group 3379" transform="translate(24392 10389)">
    <circle id="Ellipse_103" data-name="Ellipse 103" cx="32" cy="32" r="32" transform="translate(-24392 -10389)" fill="#fff"/>
    <circle id="Ellipse_104" data-name="Ellipse 104" cx="32" cy="32" r="32" transform="translate(-24342 -10389)" fill="#fff"/>
    <g id="Layer_2" data-name="Layer 2" transform="translate(-24392 -10389)">
      <g id="Layer_1" data-name="Layer 1" transform="translate(0 0)">
        <g id="Page-1">
          <g id="wbtc_colour" data-name="wbtc colour">
            <path id="Shape" d="M87.847,22.9,86.09,24.658a24.877,24.877,0,0,1,0,33.576l1.757,1.757a27.39,27.39,0,0,0,0-37.131Z" transform="translate(-35.662 -9.47)" fill="#5a5564"/>
            <path id="Shape-2" data-name="Shape" d="M24.728,16.819a24.877,24.877,0,0,1,33.576,0l1.757-1.757a27.39,27.39,0,0,0-37.131,0Z" transform="translate(-9.499 -3.235)" fill="#5a5564"/>
            <path id="Shape-3" data-name="Shape" d="M16.819,58.305a24.877,24.877,0,0,1,0-33.558L15.061,22.99a27.39,27.39,0,0,0,0,37.131Z" transform="translate(-3.235 -9.523)" fill="#5a5564"/>
            <path id="Shape-4" data-name="Shape" d="M58.293,86.05a24.877,24.877,0,0,1-33.576,0L22.96,87.807a27.39,27.39,0,0,0,37.131,0Z" transform="translate(-9.511 -35.645)" fill="#5a5564"/>
            <path id="Shape-5" data-name="Shape" d="M57.713,37.321c-.351-3.667-3.515-4.9-7.515-5.272V27H47.1v4.956H44.633V27H41.563v5.084H35.29v3.31s2.284-.041,2.249,0A1.6,1.6,0,0,1,39.3,36.753V50.671a1.084,1.084,0,0,1-.375.756,1.072,1.072,0,0,1-.8.269c.041.035-2.249,0-2.249,0l-.586,3.7H41.5v5.166H44.6v-5.09H47.07v5.067h3.1V55.427c5.225-.316,8.868-1.6,9.325-6.5.369-3.936-1.482-5.694-4.44-6.4C56.852,41.644,57.965,40,57.713,37.321Zm-4.335,11c0,3.843-6.584,3.4-8.681,3.4V44.907C46.794,44.912,53.378,44.309,53.378,48.322Zm-1.435-9.606c0,3.515-5.494,3.087-7.24,3.087V35.6C46.449,35.6,51.943,35.054,51.943,38.715Z" transform="translate(-14.619 -11.185)" fill="#f09242"/>
            <path id="Shape-6" data-name="Shape" d="M31.994,64A32,32,0,1,1,64,32,32,32,0,0,1,31.994,64Zm0-61.5a29.487,29.487,0,1,0,20.87,8.632A29.487,29.487,0,0,0,31.994,2.5Z" transform="translate(0 0)" fill="#282138"/>
          </g>
        </g>
      </g>
    </g>
    <g id="Group_3350" data-name="Group 3350" transform="translate(-152)">
      <circle id="Ellipse_104-2" data-name="Ellipse 104" cx="32" cy="32" r="32" transform="translate(-24190 -10389)" fill="#fff"/>
      <g id="Mask_Group_33" data-name="Mask Group 33" transform="translate(299 831.874)" clip-path="url(#clip-path)">
        <g id="polygon-matic-logo" transform="translate(-24476.975 -11206.542)">
          <path id="Path_4126" data-name="Path 4126" d="M30.434,10.808a2.646,2.646,0,0,0-2.519,0l-5.877,3.5-3.988,2.23-5.772,3.5a2.646,2.646,0,0,1-2.519,0L5.247,17.286a2.594,2.594,0,0,1-1.259-2.23V9.746a2.626,2.626,0,0,1,1.259-2.23L9.76,4.861a2.646,2.646,0,0,1,2.519,0l4.513,2.761a2.594,2.594,0,0,1,1.259,2.23v3.5l3.988-2.336V7.409a2.626,2.626,0,0,0-1.259-2.23L12.383.188a2.646,2.646,0,0,0-2.519,0l-8.605,5.1A2.34,2.34,0,0,0,0,7.409v9.982a2.626,2.626,0,0,0,1.259,2.23l8.5,4.991a2.646,2.646,0,0,0,2.519,0l5.772-3.4,3.988-2.336,5.772-3.4a2.646,2.646,0,0,1,2.519,0l4.513,2.655a2.594,2.594,0,0,1,1.259,2.23v5.31a2.626,2.626,0,0,1-1.259,2.23L30.434,30.56a2.646,2.646,0,0,1-2.519,0L23.4,27.905a2.594,2.594,0,0,1-1.259-2.23v-3.4l-3.988,2.336v3.5a2.626,2.626,0,0,0,1.259,2.23l8.5,4.991a2.646,2.646,0,0,0,2.519,0l8.5-4.991a2.594,2.594,0,0,0,1.259-2.23V18.029a2.626,2.626,0,0,0-1.259-2.23Z" transform="translate(0 0.131)" fill="#8247e5"/>
        </g>
      </g>
    </g>
  </g>
</svg>
