<svg xmlns="http://www.w3.org/2000/svg" xmlns:xlink="http://www.w3.org/1999/xlink" width="114" height="64" viewBox="0 0 114 64">
  <defs>
    <style>
      .cls-1, .cls-15 {
        fill: #fff;
      }

      .cls-2 {
        clip-path: url(#clip-path);
      }

      .cls-3 {
        clip-path: url(#clip-path-2);
      }

      .cls-4 {
        fill: #343434;
      }

      .cls-5 {
        fill: #8c8c8c;
      }

      .cls-6 {
        fill: #3c3c3b;
      }

      .cls-7 {
        fill: #141414;
      }

      .cls-8 {
        fill: #393939;
      }

      .cls-11, .cls-17, .cls-9 {
        fill: #ff97c3;
      }

      .cls-10 {
        clip-path: url(#clip-path-3);
      }

      .cls-11, .cls-12, .cls-13, .cls-14, .cls-17, .cls-18, .cls-19, .cls-20 {
        stroke: #fff;
        stroke-linecap: round;
        stroke-linejoin: round;
        stroke-miterlimit: 10;
      }

      .cls-11, .cls-12, .cls-13, .cls-14 {
        stroke-width: 0.19px;
      }

      .cls-12, .cls-18 {
        fill: #dce8f2;
      }

      .cls-13, .cls-19 {
        fill: #d96c9f;
      }

      .cls-14, .cls-20 {
        fill: #a9a7d9;
      }

      .cls-15 {
        fill-rule: evenodd;
      }

      .cls-16 {
        clip-path: url(#clip-path-4);
      }

      .cls-17, .cls-18, .cls-19, .cls-20 {
        stroke-width: 1.011px;
      }
    </style>
    <clipPath id="clip-path">
      <circle id="Ellipse_1870" data-name="Ellipse 1870" class="cls-1" cx="32" cy="32" r="32" transform="translate(-22455 -21453)"/>
    </clipPath>
    <clipPath id="clip-path-2">
      <circle id="Ellipse_1822" data-name="Ellipse 1822" class="cls-1" cx="32" cy="32" r="32" transform="translate(-23325 -23674)"/>
    </clipPath>
    <clipPath id="clip-path-3">
      <circle id="Ellipse_2057" data-name="Ellipse 2057" class="cls-1" cx="32" cy="32" r="32" transform="translate(-22405 -22925)"/>
    </clipPath>
    <clipPath id="clip-path-4">
      <circle id="Ellipse_2058" data-name="Ellipse 2058" class="cls-1" cx="32" cy="32" r="32" transform="translate(-22386 -22925)"/>
    </clipPath>
  </defs>
  <g id="Group_946" data-name="Group 946" transform="translate(22455 22993)">
    <g id="Mask_Group_234" data-name="Mask Group 234" class="cls-2" transform="translate(0 -1540)">
      <g id="Group_727" data-name="Group 727" transform="translate(870 2221)">
        <g id="Group_726" data-name="Group 726">
          <circle id="Ellipse_1807" data-name="Ellipse 1807" class="cls-1" cx="32" cy="32" r="32" transform="translate(-23325 -23674)"/>
          <g id="Mask_Group_16" data-name="Mask Group 16" class="cls-3">
            <g id="Layer_x0020_1" transform="translate(-23311.184 -23671.611)">
              <g id="_1421394342400">
                <g id="Group_714" data-name="Group 714">
                  <path id="Path_128" data-name="Path 128" class="cls-4" d="M19.612,0l-.4,1.35V40.509l.4.4L37.789,30.161Z" transform="translate(-1.434)"/>
                  <path id="Path_129" data-name="Path 129" class="cls-5" d="M18.177,0,0,30.161,18.177,40.9Z"/>
                  <path id="Path_130" data-name="Path 130" class="cls-6" d="M19.626,47.058l-.224.273V61.28l.224.654L37.814,36.319Z" transform="translate(-1.448 -2.711)"/>
                  <path id="Path_131" data-name="Path 131" class="cls-5" d="M18.177,61.934V47.058L0,36.319Z" transform="translate(0 -2.711)"/>
                  <path id="Path_132" data-name="Path 132" class="cls-7" d="M19.644,42.672,37.821,31.927,19.644,23.665Z" transform="translate(-1.466 -1.766)"/>
                  <path id="Path_133" data-name="Path 133" class="cls-8" d="M0,31.927,18.177,42.672V23.665Z" transform="translate(0 -1.766)"/>
                </g>
              </g>
            </g>
          </g>
        </g>
      </g>
    </g>
    <g id="Group_882" data-name="Group 882">
      <circle id="Ellipse_1871" data-name="Ellipse 1871" class="cls-1" cx="32" cy="32" r="32" transform="translate(-22405 -22993)"/>
      <circle id="Ellipse_2056" data-name="Ellipse 2056" class="cls-9" cx="32" cy="32" r="32" transform="translate(-22405 -22993)"/>
      <g id="Mask_Group_250" data-name="Mask Group 250" class="cls-10" transform="translate(-19 -68)">
        <g id="dokidoki_logo_white_text_transp_bg" transform="translate(-22405.082 -22831.059)">
          <g id="Group_867" data-name="Group 867">
            <path id="Path_20384" data-name="Path 20384" class="cls-11" d="M9.237,5.443a3.3,3.3,0,0,1-.276.466A2.726,2.726,0,0,0,8.7,5.643L7.388,4.454,5.353,2.729h0l-.523.494-.989.932L1.982,5.914l-.39.371L.128,5.077.181,5.03l1.8-1.707L3.841,1.564,4.825.632,5.348.138h0L7.388,1.854,8.7,3.043a2.331,2.331,0,0,1,.475.58c.014.024.024.043.038.067A1.879,1.879,0,0,1,9.237,5.443Z"/>
            <path id="Path_20385" data-name="Path 20385" class="cls-12" d="M5.348,9.384v2.6l-1.169-.965L2.154,9.346.128,7.673l.052-.048L1.593,6.285l.561.466L4.179,8.419Z"/>
            <path id="Path_20386" data-name="Path 20386" class="cls-13" d="M8.961,5.909a4.779,4.779,0,0,1-.366.452l-.128.119-3.119,2.9L4.179,8.419,2.154,6.751l-.561-.466.39-.371L3.841,4.155l.984-.932.523-.494h0L7.383,4.454,8.7,5.643A2.305,2.305,0,0,1,8.961,5.909Z"/>
            <path id="Path_20387" data-name="Path 20387" class="cls-12" d="M9.237,8.039a3.73,3.73,0,0,1-.642.918l-.128.119-3.119,2.9v-2.6l3.119-2.9L8.6,6.361a4.131,4.131,0,0,0,.366-.452,2.321,2.321,0,0,1,.219.314c.014.024.024.043.038.067A1.869,1.869,0,0,1,9.237,8.039Z"/>
            <path id="Path_20388" data-name="Path 20388" class="cls-14" d="M1.593,6.285.181,7.625l-.052.048v-2.6Z"/>
          </g>
          <path id="Shape_115_1_copy" class="cls-15" d="M62.51,1.84A.585.585,0,0,1,62.923,2a.334.334,0,0,1,.1.1h0l.024-.029.057-.062a.667.667,0,0,1,.3-.157.512.512,0,0,1,.314.038.6.6,0,0,1,.295.7,1.086,1.086,0,0,1-.209.385,1.873,1.873,0,0,1-.38.371.9.9,0,0,1-.342.176.385.385,0,0,1-.219-.029,1.442,1.442,0,0,1-.295-.181L62.5,3.256c-.029-.024-.052-.048-.081-.071-.043-.043-.086-.086-.124-.128a1.266,1.266,0,0,1-.257-.414.8.8,0,0,1,0-.409.707.707,0,0,1,.081-.171.529.529,0,0,1,.266-.195.553.553,0,0,1,.086-.019Z"/>
        </g>
      </g>
      <g id="Mask_Group_251" data-name="Mask Group 251" class="cls-16" transform="translate(-19 -68)">
        <g id="dokidoki_logo_white_text_transp_bg-2" data-name="dokidoki_logo_white_text_transp_bg" transform="translate(-22375.664 -22923.344)">
          <g id="Group_868" data-name="Group 868" transform="translate(2.683 6.217)">
            <path id="Path_20389" data-name="Path 20389" class="cls-17" d="M37.8,22.352a13.461,13.461,0,0,1-1.124,1.9,11.108,11.108,0,0,0-1.046-1.085l-5.366-4.843-8.291-7.032h0l-2.131,2.015-4.029,3.8L8.238,24.27,6.649,25.781.683,20.861.9,20.667l7.342-6.954,7.574-7.168,4.01-3.8L21.953.733h0l8.31,6.993,5.366,4.843a9.5,9.5,0,0,1,1.937,2.363c.058.1.1.174.155.271A7.655,7.655,0,0,1,37.8,22.352Z" transform="translate(-0.683 -0.733)"/>
            <path id="Path_20390" data-name="Path 20390" class="cls-18" d="M21.953,46.059V56.636L17.187,52.7,8.935,45.9.683,39.085.9,38.892l5.753-5.463,2.286,1.9,8.252,6.8Z" transform="translate(-0.683 -8.381)"/>
            <path id="Path_20391" data-name="Path 20391" class="cls-19" d="M38.5,27.474a19.474,19.474,0,0,1-1.492,1.84l-.523.484L23.775,41.635,19.009,37.7l-8.252-6.8L8.471,29l1.588-1.511,7.574-7.168,4.01-3.8,2.131-2.015h0l8.291,7.032,5.366,4.843A9.393,9.393,0,0,1,38.5,27.474Z" transform="translate(-2.504 -3.957)"/>
            <path id="Path_20392" data-name="Path 20392" class="cls-18" d="M44.293,40.11a15.2,15.2,0,0,1-2.615,3.739l-.523.484L28.447,56.169V45.592L41.155,33.756l.523-.484a16.832,16.832,0,0,0,1.492-1.84,9.459,9.459,0,0,1,.891,1.279c.058.1.1.174.155.271A7.616,7.616,0,0,1,44.293,40.11Z" transform="translate(-7.177 -7.914)"/>
            <path id="Path_20393" data-name="Path 20393" class="cls-20" d="M6.649,31.926.9,37.389l-.213.194V27.006Z" transform="translate(-0.683 -6.879)"/>
          </g>
        </g>
      </g>
    </g>
  </g>
</svg>
